<svg width="472" height="103" viewBox="0 0 472 103" fill="none" xmlns="http://www.w3.org/2000/svg">
<path d="M38.945 36.315H37.79V42.58H38.945V36.315ZM47.31 33.235H44.615V27.075H64.46V33.235H60.19V42.93C60.19 43.595 60.26 43.595 60.75 43.595C61.065 43.595 61.17 43.42 61.205 43.175C61.24 43 61.31 39.43 61.345 38.73C62.92 39.29 63.935 39.605 65.65 39.92C65.405 45.52 64.425 46.045 60.925 46.045H57.53C54.52 46.045 54.345 45.135 54.345 42.58V32.325H58.685V29.56H50.53V32.325H53.4V33.655C53.4 41.075 50.18 44.12 44.615 46.605L43.215 45.065H37.79V46.29H32.645V33.865H43.285V44.4C46.26 41.775 47.31 39.71 47.31 33.97V33.235ZM32.645 28.825H43.285V31.275H32.645V28.825ZM57.775 16.365H65.195V18.815H57.775V22.245H63.69V24.73H45.28V22.245H51.37V18.815H44.545V16.365H51.37V12.935H57.775V16.365ZM32.645 13.915H43.285V16.365H32.645V13.915ZM31.77 18.815H43.81V21.3H31.77V18.815ZM32.645 23.785H43.285V26.27H32.645V23.785ZM97.57 18.85H100.09V21.335H97.57V24.87H86.72V25.85H97.57V28.335H86.72V29.42H100.09V31.905H66.91V29.42H80.245V28.335H69.465V25.85H80.245V24.87H69.465V22.385H80.245V21.335H66.91V18.85H80.245V17.87H69.465V15.385H80.245V13.04H86.72V15.385H97.57V18.85ZM86.72 18.85H91.095V17.87H86.72V18.85ZM91.095 21.335H86.72V22.385H91.095V21.335ZM90.535 44.715H76.43V46.325H70.025V32.92H96.975V46.325H90.535V44.715ZM76.43 42.23H90.535V39.955H76.43V42.23ZM76.43 37.47H90.535V35.405H76.43V37.47ZM124.174 39.57H118.399V34.075C116.439 35.09 115.109 36.77 115.109 38.94C115.109 41.425 116.894 42.58 121.899 42.58C124.769 42.58 127.534 42.37 130.439 41.81V45.135C128.724 45.275 126.694 45.38 124.979 45.38H119.344C111.609 45.38 109.334 43.455 109.334 40.13C109.334 35.58 114.339 32.885 118.189 30.855C117.944 29.665 117.489 27.53 115.249 27.53C113.254 27.53 112.274 29.105 111.784 29.98C111.294 30.855 109.334 34.67 108.074 37.82L102.614 35.825C103.524 33.725 104.504 31.555 109.369 21.79C106.639 21.93 105.799 21.965 103.489 21.965L103.559 19.235C106.219 19.235 109.649 19.06 110.734 19.025C112.589 15.35 112.834 14.86 113.324 13.25L120.289 14.79C119.239 16.54 119.134 16.715 118.049 18.605C123.474 18.22 124.594 18.115 127.079 17.73L127.044 20.6C124.244 20.915 118.924 21.265 116.404 21.405C115.529 22.875 115.179 23.505 114.234 25.22C115.634 24.52 116.859 24.52 117.244 24.52C120.184 24.52 122.214 25.78 123.264 28.545C124.839 27.88 125.994 27.425 129.809 26.06L130.859 30.12C127.324 30.82 125.609 31.31 123.964 31.8C124.034 32.71 124.174 33.9 124.174 36.315V39.57ZM151.198 41.075V34.565H149.798V41.39H143.883V21.125H152.178C148.538 19.235 147.208 18.71 146.298 18.325L147.768 16.68H142.448V14.23H163.693V16.33C162.643 16.995 161.908 17.485 158.268 19.34C158.688 19.445 159.703 19.76 161.138 20.25L160.088 21.125H164.848V37.435C164.848 38.485 164.813 41.075 161.208 41.075H158.058L157.323 38.94V41.075H151.198ZM157.323 29.07V32.08H158.723V29.07H157.323ZM151.198 32.08V29.07H149.798V32.08H151.198ZM157.323 23.61V26.585H158.723V23.61H157.323ZM151.198 26.585V23.61H149.798V26.585H151.198ZM157.323 34.565V38.66C157.743 38.73 157.848 38.73 158.023 38.73C158.618 38.73 158.723 38.345 158.723 37.61V34.565H157.323ZM153.998 16.68H148.713C150.988 17.31 151.233 17.345 153.333 17.94C153.578 17.485 153.683 17.31 153.998 16.68ZM143.323 21.58L137.583 25.465C137.303 24.1 136.113 18.255 133.628 14.65L135.693 13.005C136.883 14.055 140.488 17.275 143.323 21.58ZM133.663 27.74H142.098V38.415C142.098 40.445 142.483 43.175 149.028 43.175H157.568C157.988 43.175 164.883 43.035 167.438 42.72L166.563 45.66H146.893C143.218 45.66 140.418 45.275 138.808 42.755C137.933 43.63 136.743 44.89 134.853 46.185L133.103 41.285C134.048 41.11 135.273 40.76 136.078 40.375V30.225H133.663V27.74ZM193.243 30.575L195.518 31.38C193.383 38.45 190.093 45.1 180.293 45.1C174.098 45.1 170.668 42.265 170.633 35.475C170.633 33.025 170.703 31.135 171.228 14.195L177.878 14.72C177.213 24.905 177.003 33.235 177.003 33.97C177.003 35.755 177.073 40.13 182.883 40.13C188.623 40.13 191.353 35.79 193.243 30.575ZM223.952 40.935L223.252 44.085C218.562 43.945 205.577 43.49 205.577 32.185C205.577 24.24 211.842 20.845 214.747 19.235C208.517 19.41 200.047 20.32 198.857 20.46L198.612 17.45C207.572 16.75 219.822 16.26 227.907 16.19V18.92C226.577 18.885 226.087 18.885 225.597 18.885C222.377 18.885 220.977 19.27 220.277 19.48C216.147 20.74 212.332 24.695 212.332 31.45C212.332 39.71 218.457 41.005 222.027 41.005C222.657 41.005 223.392 40.97 223.952 40.935ZM246.585 15.07H248.125V13.075H253.48V15.07H261.145V27.25H233.705V15.07H241.3V13.075H246.585V15.07ZM246.585 19.97H248.125V17.555H246.585V19.97ZM248.125 22.175H246.585V24.765H248.125V22.175ZM241.3 22.175H239.83V24.765H241.3V22.175ZM239.83 19.97H241.3V17.555H239.83V19.97ZM253.48 19.97H254.985V17.555H253.48V19.97ZM254.985 22.175H253.48V24.765H254.985V22.175ZM254.32 39.185L258.66 40.445C257.96 40.9 256.77 41.6 254.215 42.65H264.05V45.135H230.73V42.65H239.515C238.885 41.46 238.22 40.55 237.415 39.675L238.08 39.185H234.545V31.555H260.2V39.185H254.32ZM249.875 42.65L248.58 42.125C249.35 40.97 250.015 39.57 250.19 39.185H242.105C244.45 40.06 245.5 40.585 246.865 41.46L244.03 42.65H249.875ZM253.83 34.04H240.95V36.735H253.83V34.04ZM231.535 28.16H263.42V30.645H231.535V28.16ZM299.12 27.495L293.275 31.625C292.68 26.69 291.49 22.735 289.355 19.27L291.84 17.45C294.815 20.425 296.95 23.33 299.12 27.495ZM267.69 27.005L266.955 23.855C269.545 23.015 271.33 22.56 273.85 22.105C274.585 20.005 275.81 16.435 276.79 13.88L282.355 15.7C281.935 16.855 281.585 17.905 280.43 21.37C281.305 21.3 282.355 21.3 282.95 21.3C288.095 21.3 290.02 23.54 290.02 29.385C290.02 33.095 289.46 38.065 288.06 41.075C287.605 42.09 286.1 45.065 282.74 45.065C280.255 45.065 277.42 43.525 275.81 42.65L276.79 39.57C278.295 40.76 279.555 41.46 280.185 41.46C280.955 41.46 281.34 40.76 281.655 40.165C282.53 38.45 284 34.6 284 28.055C284 24.59 283.51 23.75 281.27 23.75C280.885 23.75 280.22 23.785 279.625 23.855C277.35 30.82 275.425 36.84 272.94 45.17L266.815 42.965C268.355 38.17 270.07 33.13 272.8 25.185C271.54 25.535 269.72 26.06 267.69 27.005ZM319.461 25.15L325.446 25.535C325.376 30.33 325.481 34.355 325.551 36.595C327.931 37.33 329.751 38.1 332.586 39.535L328.981 43.84C327.791 42.51 327.021 41.915 325.726 40.935C325.551 42.195 325.166 45.24 317.781 45.24C316.836 45.24 310.151 45.205 310.151 40.445C310.151 37.365 313.441 35.23 317.711 35.23C318.516 35.23 319.181 35.3 319.776 35.335C319.671 33.655 319.461 29.77 319.461 25.15ZM319.951 38.24C319.426 38.135 318.796 37.995 318.306 37.995C316.871 37.995 315.156 38.38 315.156 40.165C315.156 41.81 316.311 42.335 317.606 42.335C319.041 42.335 320.126 41.565 320.126 40.62C320.126 40.27 319.986 38.625 319.951 38.24ZM332.971 21.825L330.241 26.235C328.631 25.01 325.551 22.7 320.406 20.74L322.016 18.5C325.656 19.34 329.506 20.53 332.971 21.825ZM302.871 23.365V20.355C303.781 20.425 305.356 20.495 307.841 20.495C308.751 18.045 309.311 16.575 310.326 14.055L316.031 15.14C315.226 16.925 314.841 17.73 313.861 20.145C316.871 19.83 317.886 19.655 318.691 19.515L318.796 22.49C316.626 22.735 315.541 22.84 312.706 23.015C310.816 28.09 308.716 33.935 307.456 40.165L301.541 38.555C303.081 33.76 304.691 29.21 306.791 23.295C304.761 23.365 304.341 23.365 302.871 23.365ZM349.606 28.37H348.381V31.275H349.606V28.37ZM369.276 42.895L363.046 46.395C362.381 41.74 362.101 40.06 360.806 37.225L362.381 36.28C361.786 36.07 360.631 35.685 359.161 33.83C357.411 35.195 355.976 35.93 354.891 36.455L352.861 34.705C353.421 34.285 353.561 34.145 354.051 33.76H343.551V25.885H354.401V33.445C355.451 32.5 356.256 31.625 357.131 30.575C355.696 27.495 354.996 24.135 354.716 19.375H342.676V23.295C342.676 30.4 339.701 34.215 336.201 36.98L334.346 35.195C335.361 33.165 336.481 30.785 336.481 24.38V16.89H354.611C354.576 16.085 354.541 15 354.541 14.65V13.11H360.806C360.841 13.215 360.841 15.385 360.841 16.89H362.381C361.996 15.21 361.646 14.545 361.261 13.845L363.676 12.655C364.376 13.005 366.756 14.265 368.436 15.49L365.426 16.89H368.436V19.375H360.876C360.981 22.35 361.086 22.91 361.226 23.715C361.506 23.05 362.206 21.265 362.241 20.075L368.051 22.595C366.441 25.955 364.796 28.195 363.361 29.875C363.746 30.54 364.096 31.135 364.411 31.135C365.286 31.135 365.391 28.615 365.426 27.915C366.161 28.58 367.106 29.315 368.646 30.12C368.226 32.78 367.561 36.525 363.781 36.525C365.531 38.205 367.631 40.62 369.276 42.895ZM356.151 39.955L350.691 42.44C350.551 41.11 349.991 37.925 349.046 35.51L351.216 34.565C352.371 35.335 356.606 38.73 357.411 39.395L356.851 39.64C358.881 40.41 360.316 40.83 361.961 41.18C361.296 46.22 358.146 46.22 356.256 46.22H345.861C343.096 46.22 342.361 45.66 342.361 42.58V35.335H348.486V41.915C348.486 43.455 348.486 43.735 350.166 43.735H353.421C355.031 43.735 355.661 43.735 356.151 39.955ZM338.581 36.245L341.276 36.945C341.171 39.36 340.716 43.875 340.051 46.325L334.311 43.98C335.746 42.02 337.391 39.29 338.581 36.245ZM343.446 21.58H354.401V24.065H343.446V21.58ZM379.671 18.255L381.071 17.31C382.506 19.375 382.821 19.865 383.311 20.67C383.346 20.18 383.381 19.305 383.381 17.94C383.381 17.1 383.346 15.28 383.311 14.51L390.171 15.175C390.066 15.805 389.821 17.38 388.876 20.6H390.661V13.005H397.311V20.6H403.156V23.085H397.311V30.855H402.421V33.34H397.311V43.105H403.821V45.59H381.071V43.105H390.661V33.34H383.906V30.855H390.661V23.085H388.036C387.791 23.715 386.741 26.515 384.361 29.875L382.051 28.965C382.366 27.67 382.681 26.375 382.926 24.485L380.686 26.235C380.371 23.33 379.916 21.16 379.671 20.04V46.325H373.861V13.005H379.671V18.255ZM370.606 18.85L373.056 19.55C373.056 29.07 372.986 31.24 372.216 34.565L369.486 30.295C369.906 28.685 370.291 27.25 370.606 18.85ZM411.206 15.14L417.576 14.545C417.996 16.96 418.696 20.32 419.046 22.035C420.656 21.685 421.951 21.405 423.876 21.125C425.031 18.71 425.801 16.225 426.151 14.02L433.186 15.385C432.206 16.89 431.261 18.325 429.196 20.88C431.331 21.16 437.351 21.965 437.351 28.265C437.351 35.475 429.616 36.035 426.816 36.035C424.996 36.035 424.296 35.93 423.491 35.79L423.736 32.955C424.226 33.025 424.856 33.13 425.766 33.13C428.776 33.13 430.736 31.485 430.736 28.755C430.736 25.99 428.916 23.995 425.276 23.995C423.176 23.995 420.936 24.485 419.606 24.765C420.236 27.74 422.231 37.295 423.876 44.4L417.436 45.625C416.876 42.09 414.496 30.54 413.621 26.445C410.856 27.39 409.456 27.95 406.901 29.105L406.026 25.36C409.666 24.345 412.116 23.715 413.026 23.47C412.641 21.58 411.661 17.24 411.206 15.14ZM42.585 94.73V95.395H36.74V90.67C35.375 93.085 33.52 94.765 32.855 95.395L31.105 93.645C33.24 89.41 33.24 83.32 33.24 82.095V73.45C33.065 73.52 32.96 73.555 32.54 73.73L31.105 71.28C34.745 68.76 36.53 66.38 38.28 62.495H46.715C47.87 65.47 49.235 67.78 52.49 70.545V64.35H56.9V88.325H52.49V71.84L51.65 73.03C50.25 72.4 49.55 72.05 48.115 71.245V72.225H36.81V71.56C35.48 72.365 34.57 72.855 33.31 73.415H50.915V84.23H39.085C38.98 84.825 38.945 85.14 38.805 85.63H50.915V94.73H42.585ZM39.54 75.9V77.44H45V75.9H39.54ZM45 81.745V79.925H39.54V81.745H45ZM42.585 92.245H45.105V88.08H42.585V92.245ZM39.33 69.775H45.77C43.46 68.095 42.97 67.465 42.445 66.73C41.675 67.745 40.66 68.69 39.33 69.775ZM58.02 62.145H64.04V89.62C64.04 93.295 63.725 95.115 58.3 95.115H53.96L53.505 92.42C55.535 92.7 56.235 92.7 56.48 92.7C57.81 92.7 58.02 92.14 58.02 90.88V62.145ZM97.43 78.665V89.795H78.53V78.665H97.43ZM90.885 87.345V81.15H84.865V87.345H90.885ZM84.83 68.865H81.435C80.21 70.79 78.775 72.505 77.34 73.555L75.1 72.575C76.5 68.935 77.27 66.17 77.235 61.76L84.305 62.95C84.375 63.265 83.185 65.82 82.87 66.38H84.83V62.04H91.095V66.38H98.795V68.865H91.095V73.975H99.985V76.46H76.29V73.975H84.83V68.865ZM75.905 70.3L70.375 74.36C69.92 71.945 69.045 68.27 66.63 63.685L68.59 62.215C71.74 64.525 75.17 68.97 75.905 70.3ZM66.875 76.915H75.94V88.395C75.94 92.105 80.385 92.105 81.4 92.105H90.885C93.475 92.105 98.06 91.965 100.58 91.72L99.705 94.59H80.07C76.78 94.59 74.155 94.59 72.44 92.245C71.81 92.84 70.655 93.89 67.75 95.78L66.21 90.495C66.98 90.355 69.22 89.97 69.885 89.76V79.4H66.875V76.915ZM112.585 69.39V62.04H118.955V69.39H133.655C133.725 74.465 133.62 88.185 131.94 92.28C130.96 94.625 128.79 95.29 124.8 95.29H118.22L117.415 92.49C119.48 92.735 121.44 92.84 122.49 92.84C125.045 92.84 125.535 92.105 126.06 90.11C126.445 88.535 127.25 82.83 127.075 71.875H118.955C118.955 77.23 118.675 80.555 116.575 84.615C114.965 87.695 111.465 92.595 103.45 95.57L101.805 93.855C110.87 87.625 112.62 83.25 112.585 71.875H102.26V69.39H112.585ZM159.174 88.57H153.399V83.075C151.439 84.09 150.109 85.77 150.109 87.94C150.109 90.425 151.894 91.58 156.899 91.58C159.769 91.58 162.534 91.37 165.439 90.81V94.135C163.724 94.275 161.694 94.38 159.979 94.38H154.344C146.609 94.38 144.334 92.455 144.334 89.13C144.334 84.58 149.339 81.885 153.189 79.855C152.944 78.665 152.489 76.53 150.249 76.53C148.254 76.53 147.274 78.105 146.784 78.98C146.294 79.855 144.334 83.67 143.074 86.82L137.614 84.825C138.524 82.725 139.504 80.555 144.369 70.79C141.639 70.93 140.799 70.965 138.489 70.965L138.559 68.235C141.219 68.235 144.649 68.06 145.734 68.025C147.589 64.35 147.834 63.86 148.324 62.25L155.289 63.79C154.239 65.54 154.134 65.715 153.049 67.605C158.474 67.22 159.594 67.115 162.079 66.73L162.044 69.6C159.244 69.915 153.924 70.265 151.404 70.405C150.529 71.875 150.179 72.505 149.234 74.22C150.634 73.52 151.859 73.52 152.244 73.52C155.184 73.52 157.214 74.78 158.264 77.545C159.839 76.88 160.994 76.425 164.809 75.06L165.859 79.12C162.324 79.82 160.609 80.31 158.964 80.8C159.034 81.71 159.174 82.9 159.174 85.315V88.57ZM188.473 65.19H201.808V67.64H183.398L184.833 67.99C184.833 68.27 181.508 72.05 181.368 72.225C182.243 72.19 182.698 72.155 183.118 72.155C184.623 72.085 191.238 71.7 192.603 71.63C191.903 70.51 191.308 69.705 190.783 69.005L193.373 67.78C195.088 68.83 197.713 70.51 201.703 73.835L196.033 76.635H197.713V90.845C197.713 93.19 197.608 95.15 193.058 95.15H185.568L184.798 92.245C185.323 92.35 188.823 92.805 189.733 92.805C190.888 92.805 191.168 92.14 191.168 90.565V88.57H179.128V95.43H172.863V76.635H195.158C194.738 75.795 194.353 74.955 193.933 74.15C192.008 74.395 172.443 76.425 170.413 76.425H170.133L169.153 72.61C170.693 72.61 171.113 72.61 176.083 72.4C176.853 70.405 177.273 69.04 177.658 67.64H168.628V65.19H182.068V62.04H188.473V65.19ZM191.168 86.12V83.845H179.128V86.12H191.168ZM179.128 79.12V81.36H191.168V79.12H179.128ZM210.558 94.45L204.398 92.805C206.253 86.82 208.493 80.87 212.763 69.565C213.078 68.76 214.373 65.05 215.108 62.67L221.723 64.665C219.308 70.02 217.383 74.99 216.613 77.02C217.313 76.6 219.063 75.585 221.898 75.585C226.343 75.585 227.498 78.105 227.498 81.01C227.498 81.99 227.008 86.855 227.008 87.94C227.008 89.48 227.393 89.935 228.408 89.935C229.563 89.935 231.523 89.06 233.623 83.39L236.108 84.825C235.093 87.485 232.328 94.625 225.678 94.625C221.303 94.625 220.603 90.915 220.603 89.34C220.603 88.045 221.163 81.675 221.163 81.01C221.163 79.715 220.708 78.77 219.098 78.77C216.858 78.77 215.458 80.905 214.618 82.62C213.743 84.475 211.573 90.775 210.558 94.45ZM268.128 76.46L265.503 78.105C264.943 76.705 263.788 74.675 262.423 73.205L264.278 72.085C265.818 73.345 267.113 74.78 268.128 76.46ZM271.523 74.325L268.863 75.97C268.408 75.025 267.428 73.205 265.993 71.77L267.813 70.615C270.018 72.26 270.928 73.52 271.523 74.325ZM264.313 90.005L263.613 93.155C258.783 92.98 245.973 92.525 245.973 81.22C245.973 73.31 252.203 69.88 255.108 68.305C249.438 68.445 241.948 69.215 239.218 69.53L238.973 66.52C251.748 65.505 264.838 65.26 268.303 65.225V67.99C266.938 67.955 266.448 67.92 265.993 67.92C262.738 67.92 261.338 68.34 260.638 68.55C256.508 69.81 252.693 73.73 252.693 80.52C252.693 88.78 258.853 90.075 262.388 90.075C263.018 90.075 263.753 90.04 264.313 90.005ZM292.718 77.965V80.73C290.338 80.905 286.418 81.08 283.933 81.185C283.758 82.9 283.583 84.895 283.583 86.365C283.583 89.62 284.668 91.545 289.918 91.545C293.138 91.545 296.568 90.39 296.568 85.665C296.568 83.005 295.833 80.905 295.343 79.505L297.688 78.49C299.928 81.675 301.188 84.51 301.188 86.855C301.188 88.535 300.593 90.985 298.003 92.665C295.763 94.1 290.373 94.415 288.658 94.415C287.818 94.415 282.008 94.415 279.103 91.685C277.423 90.145 277.283 87.52 277.283 86.26C277.283 84.895 277.458 82.69 277.598 81.43C275.848 81.5 273.258 81.57 272.418 81.57V78.77C274.518 78.77 274.903 78.77 277.878 78.7C277.878 78.42 278.403 73.625 278.473 72.82C275.533 72.925 273.853 72.925 273.188 72.925V70.23C274.518 70.23 277.248 70.16 278.788 70.125C279.243 65.995 279.348 64.735 279.453 63.055L286.313 63.72C286.033 65.4 285.823 66.59 285.333 69.88C288.938 69.74 290.968 69.635 293.698 69.425V72.19C292.578 72.26 291.178 72.4 284.948 72.61C284.668 74.675 284.598 75.2 284.213 78.455C286.978 78.315 289.638 78.21 292.718 77.965ZM327.677 65.295L325.192 71.385C319.732 67.255 315.112 66.065 311.682 65.295L312.837 62.6C315.462 62.705 320.677 62.915 327.677 65.295ZM312.452 94.73L311.857 91.755C317.947 91.685 326.137 91.195 326.137 83.425C326.137 78.35 322.042 77.545 320.292 77.545C319.207 77.545 317.387 77.755 315.077 79.47C312.242 81.57 311.402 83.67 310.667 85.455L305.452 84.51C305.977 80.45 306.747 74.29 308.042 67.85L314.587 69.11C313.747 71.49 312.872 75.725 312.522 77.51C314.027 76.46 317.002 74.43 322.287 74.43C327.747 74.43 332.857 76.95 332.857 83.355C332.857 94.31 318.087 94.66 312.452 94.73ZM349.269 85.07L350.984 87.38C349.024 90.18 347.169 92.245 344.264 92.245C337.509 92.245 337.509 82.305 337.509 79.995C337.509 76.145 337.789 71.105 339.084 65.12L346.224 66.45C345.559 68.55 343.879 73.8 343.879 80.415C343.879 82.865 344.089 87.345 346.259 87.345C347.729 87.345 348.814 85.77 349.269 85.07ZM366.384 86.12L359.559 88.045C359.769 78.035 358.929 73.17 356.409 68.515L359.034 67.08C364.529 72.995 365.929 79.855 366.384 86.12ZM399.893 88.57V93.785C397.093 93.96 391.318 93.995 390.898 93.995C387.993 93.995 381.973 93.96 381.973 88.955C381.973 86.82 382.918 85 384.073 83.46L386.558 84.51C385.928 85.35 385.438 86.47 385.438 87.52C385.438 89.585 387.293 89.585 389.988 89.585C393.698 89.585 397.548 89.2 399.893 88.57ZM400.628 73.975L399.788 79.33C396.043 77.755 392.053 76.46 386.838 76.285L386.978 73.31C388.518 73.275 390.653 73.275 390.898 73.275C393.313 73.275 397.058 73.345 400.628 73.975ZM389.393 68.655V71.385C388.343 71.49 387.223 71.595 383.163 71.805C379.803 82.41 377.878 89.235 376.688 93.785L370.423 92.175C372.348 85.805 374.483 78.77 376.548 72.085C372.663 72.225 371.718 72.225 370.528 72.225V69.425C372.593 69.425 373.888 69.425 377.423 69.32C378.368 66.24 378.473 65.89 379.418 62.95L385.753 64.14C385.228 65.505 384.633 67.255 384.038 69.005C386.908 68.865 387.363 68.83 389.393 68.655ZM416.671 85.07L418.386 87.38C416.426 90.18 414.571 92.245 411.666 92.245C404.911 92.245 404.911 82.305 404.911 79.995C404.911 76.145 405.191 71.105 406.486 65.12L413.626 66.45C412.961 68.55 411.281 73.8 411.281 80.415C411.281 82.865 411.491 87.345 413.661 87.345C415.131 87.345 416.216 85.77 416.671 85.07ZM433.786 86.12L426.961 88.045C427.171 78.035 426.331 73.17 423.811 68.515L426.436 67.08C431.931 72.995 433.331 79.855 433.786 86.12Z" fill="white"/>
<path d="M8.38102 6.22852C8.03869 6.22852 7.71826 6.38922 7.51351 6.66439L2.86491 12.9084C2.58758 13.2821 2.4375 13.7353 2.4375 14.2012V19.2581C2.4375 20.4552 3.40708 21.4248 4.60417 21.4248H8.9375C10.1346 21.4248 11.1042 20.4552 11.1042 19.2581V14.9248C11.1042 13.7288 10.1346 12.7581 8.9375 12.7581H5.67692L9.25065 7.95719C9.78148 7.24328 9.27261 6.22852 8.38102 6.22852ZM19.1932 6.22852C18.8509 6.22852 18.5283 6.38922 18.3236 6.66439L13.6982 12.8787C13.4209 13.2525 13.2708 13.7046 13.2708 14.1715V19.2285C13.2708 20.4256 14.2404 21.3952 15.4375 21.3952H19.7708C20.9679 21.3952 21.9375 20.4256 21.9375 19.2285V14.8952C21.9375 13.6981 20.9679 12.7285 19.7708 12.7285H16.5103L20.0628 7.95931C20.5937 7.24431 20.0848 6.22852 19.1932 6.22852Z" fill="white"/>
<path d="M463.619 91.7715C463.961 91.7715 464.282 91.6108 464.486 91.3356L469.135 85.0916C469.412 84.7179 469.563 84.2647 469.563 83.7988L469.563 78.7419C469.563 77.5448 468.593 76.5752 467.396 76.5752L463.063 76.5752C461.865 76.5752 460.896 77.5448 460.896 78.7419L460.896 83.0752C460.896 84.2712 461.865 85.2419 463.063 85.2419L466.323 85.2419L462.749 90.0428C462.219 90.7567 462.727 91.7715 463.619 91.7715ZM452.807 91.7715C453.149 91.7715 453.472 91.6108 453.676 91.3356L458.302 85.1213C458.579 84.7475 458.729 84.2954 458.729 83.8284L458.729 78.7715C458.729 77.5744 457.76 76.6048 456.563 76.6048L452.229 76.6048C451.032 76.6048 450.063 77.5744 450.063 78.7715L450.063 83.1048C450.063 84.3019 451.032 85.2715 452.229 85.2715L455.49 85.2715L451.937 90.0407C451.406 90.7557 451.915 91.7715 452.807 91.7715Z" fill="white"/>
</svg>
