<svg width="98" height="33" viewBox="0 0 98 33" fill="none" xmlns="http://www.w3.org/2000/svg">
<path d="M28.91 6.882L28.756 6.168C28.28 6.658 28.112 6.77 27.944 6.882L27.216 6.224C27.524 5.832 27.748 5.398 27.888 4.922C27.734 5.02 27.692 5.034 27.328 5.258L26.866 4.698V5.37H26.124V5.776C26.306 5.762 27.104 5.706 27.216 5.706L27.104 6.658C26.502 6.784 23.436 7.162 22.764 7.218H33.348V12.37H32.214C33.222 13.042 34.006 13.28 34.832 13.434L34.034 14.316C32.844 14.26 30.632 14.05 29.036 13.014L30.366 12.37H25.284L26.866 13.112C25.816 13.714 23.996 14.246 21.98 14.372L21.14 13.518C22.274 13.266 23.282 12.776 23.912 12.37H22.652V7.232C22.582 7.232 22.428 7.26 22.344 7.26L22.022 5.958C22.736 6 24.192 5.916 24.29 5.902V5.37H22.862V4.558H24.29V4.082H23.856V4.432H21.728V1.856H26.698V1.03H29.26V1.856H34.272V4.502H32.13V4.334H31.64V5.874C31.64 6.518 31.584 6.882 30.758 6.882H28.91ZM30.87 10.004V9.598H25.102V10.004H30.87ZM25.102 8.212V8.604H30.87V8.212H25.102ZM30.87 11.404V10.984H25.102V11.404H30.87ZM29.694 4.852V4.334H28.77C28.546 4.502 28.462 4.572 28.364 4.628L29.694 4.852ZM28.686 2.85L29.974 3.102C29.82 3.27 29.778 3.312 29.624 3.48H32.13V2.85H28.686ZM29.694 5.692V4.992C29.47 5.356 29.33 5.552 28.868 6.056C29.022 6.098 29.218 6.112 29.386 6.112C29.582 6.112 29.694 6.084 29.694 5.692ZM26.124 4.558H26.754C27.454 3.816 27.566 3.396 27.706 2.85H23.856V3.256H27.104V4.082H26.124V4.558ZM34.636 5.916L32.606 6.882C32.326 5.986 32.144 5.496 31.892 4.894L32.76 4.558C33.39 4.88 34.146 5.468 34.636 5.916ZM43.274 6.588V8.17H47.376V9.164H43.274V13.07H48.538V14.05H35.518V13.07H38.01C37.898 12.356 37.59 11.11 37.072 9.864L37.996 9.388C38.878 10.116 39.886 11.138 40.698 12.188V9.164H36.582V8.17H40.698V6.588H38.444V6.042C37.114 6.784 36.232 7.134 35.728 7.33L35.07 6.56C37.114 5.384 39.242 3.69 40.166 1.142H43.932C44.254 2.864 46.158 5.076 48.888 6.504L48.314 7.302C46.858 6.756 46.144 6.392 45.598 6.07V6.588H43.274ZM40.698 13.07V12.216L38.598 13.07H40.698ZM39.186 5.594H44.828C43.232 4.53 42.434 3.536 42.028 3.046C41.678 3.494 40.852 4.53 39.186 5.594ZM44.506 9.29L47.39 10.396C47.25 10.62 45.906 12.048 44.436 13.056L43.526 12.538C44.282 10.97 44.492 9.472 44.506 9.29ZM56.616 2.108V1.03H59.178V2.108H62.188V3.102H59.178V3.886H61.95V4.88H59.178V5.678H62.622V6.658H53.13V5.678H56.616V4.88H53.844V3.886H56.616V3.102H53.536V2.108H56.616ZM53.34 2.584L51.534 4.544C51.31 4.138 50.624 2.906 49.546 1.674L50.274 0.931999C50.722 1.142 52.36 1.94 53.34 2.584ZM52.906 5.93L51.24 7.974C50.47 6.574 49.518 5.44 49.224 5.076L49.812 4.32C50.008 4.418 50.134 4.488 51.24 5.006C51.8 5.272 52.5 5.692 52.906 5.93ZM59.416 11.852H56.448V14.33H53.844V7.302H61.908V12.594C61.908 13.462 61.726 14.246 60.55 14.246H57.876L57.624 13.182C58.352 13.28 58.506 13.294 58.814 13.294C59.36 13.294 59.416 13.084 59.416 12.524V11.852ZM56.448 10.858H59.416V10.06H56.448V10.858ZM56.448 9.066H59.416V8.296H56.448V9.066ZM52.43 7.848L53.34 8.688C52.836 9.808 51.212 13.49 50.75 14.33L49.168 12.804C50.26 11.544 52.066 8.478 52.43 7.848ZM75.04 8.968V9.962H76.608V10.956H75.04V12.706C75.04 14.12 74.27 14.246 73.402 14.246H70.952L70.658 13.196C70.966 13.238 71.33 13.308 71.96 13.308C72.422 13.308 72.464 13.154 72.464 12.566V10.956H69.16C70.014 11.404 70.728 11.838 71.75 12.454L69.342 13.938C68.978 12.874 68.46 11.964 68.068 11.348L68.712 10.956H67.074V9.962H72.464V8.968H67.9V4.054H70.798V3.298H67.48V2.304H70.798V1.044H73.29V2.304H73.92C73.78 1.786 73.682 1.52 73.584 1.226L74.452 0.875999C75.376 1.226 75.754 1.38 76.566 1.786L75.264 2.304H76.608V3.298H73.29V4.054H76.188V8.968H75.04ZM70.28 6.014H70.798V5.048H70.28V6.014ZM70.798 7.008H70.28V7.988H70.798V7.008ZM73.29 6.014H73.822V5.048H73.29V6.014ZM73.822 7.008H73.29V7.988H73.822V7.008ZM64.19 4.404V1.044H66.64V4.404H67.48V5.398H66.64V14.33H64.19V5.398H63.322V4.404H64.19ZM3.57 22.418V19.03H6.132V32.316H3.57V29.124C2.702 29.572 0.826 30.468 0.714 30.51L0.21 28.648C0.392 28.634 1.274 28.522 3.57 27.948V23.398H0.322V22.418H3.57ZM12.208 21.186L13.972 23.384C13.916 23.412 13.762 23.496 13.692 23.538C12.376 24.196 11.018 24.756 9.618 25.176V30.608C9.618 31.028 9.618 31.196 9.968 31.196H10.5C10.836 31.196 10.976 31.014 11.074 30.356C11.172 29.754 11.214 28.956 11.186 28.34C11.55 28.48 12.642 28.872 13.832 29.04C13.524 31.588 13.244 32.19 11.424 32.19H9.198C7.014 32.19 7.014 31.21 7.014 30.328V19.03H9.618V23.916C10.906 22.796 11.704 22.026 12.208 21.186ZM19.642 22.502H26.95C26.95 23.006 26.866 25.204 26.852 25.652H27.65V26.646H26.81C26.796 26.856 26.684 28.998 26.684 29.026H27.552V30.02H26.586C26.488 32.12 25.2 32.162 24.276 32.162H21.868L21.574 31.126C22.19 31.182 22.75 31.238 23.156 31.238C23.604 31.238 24.024 31.238 24.066 30.02H17.794C18.06 28.9 18.284 27.85 18.452 26.646H17.864V25.652H18.592C18.676 25.078 18.76 24.364 18.858 23.174C18.592 23.384 18.382 23.538 18.116 23.72L17.416 23.132C18.284 21.942 18.914 20.892 19.222 18.82L21.924 19.352C21.84 19.548 21.49 20.178 21.406 20.318H27.65V21.298H20.734C20.482 21.648 20.09 22.096 19.642 22.502ZM21.07 25.652H21.574C21.616 25.078 21.7 24.042 21.714 23.496H21.308C21.266 23.888 21.224 24.364 21.07 25.652ZM23.856 25.652H24.374C24.388 25.316 24.458 23.804 24.458 23.496H23.968C23.94 24.21 23.884 25.232 23.856 25.652ZM21.476 26.646H20.944C20.874 27.22 20.79 27.836 20.58 29.026H21.182C21.224 28.802 21.42 27.08 21.476 26.646ZM24.332 26.646H23.772C23.744 26.982 23.604 28.648 23.576 29.026H24.206C24.206 29.026 24.318 26.898 24.332 26.646ZM16.87 25.624L17.752 26.17C16.954 29.418 16.184 31.434 15.806 32.33L14.154 30.748C15.232 29.124 16.352 27.038 16.87 25.624ZM18.354 20.556L16.576 22.306C16.17 21.564 15.456 20.416 14.7 19.534L15.316 18.904C16.128 19.212 17.444 19.856 18.354 20.556ZM17.85 23.944L16.086 25.862C15.89 25.428 15.26 24.014 14.252 22.894L14.826 22.152C16.142 22.81 16.884 23.258 17.85 23.944ZM31.696 21.662V21.228H33.768C33.698 20.906 33.488 20.038 33.124 19.296L33.922 18.876C34.832 19.324 35.994 20.08 36.484 20.584L34.594 21.228H37.94L37.1 20.892C37.408 20.248 37.674 19.268 37.73 18.89L40.656 19.66C40.614 19.772 39.144 21.074 38.948 21.228H41.636V22.222H37.87C37.618 22.544 37.212 22.978 37.1 23.09H40.67V30.174H32.396V23.09H34.86C34.958 22.768 34.986 22.586 35.042 22.222H32.158C32.2 22.278 32.242 22.334 32.284 22.39L29.918 23.93C29.456 22.376 28.924 20.92 28.154 19.604L28.952 19.044C30.268 20.038 31.598 21.55 31.696 21.662ZM38.08 26.1H34.916V27.108H38.08V26.1ZM34.916 25.106H38.08V24.084H34.916V25.106ZM38.08 28.102H34.916V29.18H38.08V28.102ZM28.364 24.896H31.654V29.642C31.822 30.72 32.816 31.056 34.188 31.056H38.374C39.018 31.056 40.852 31.056 41.832 30.958L41.454 32.05H33.824C31.836 32.05 31.192 31.868 30.254 30.944C29.75 31.546 29.176 31.994 28.742 32.316L28.07 30.272C28.364 30.216 29.064 30.062 29.302 29.964V25.876H28.364V24.896ZM47.684 22.502V19.058H50.302V22.446C50.302 22.642 50.316 22.768 50.316 22.894H55.636V23.874H50.428C51.114 28.732 54.418 30.748 55.888 31.546L55.16 32.4C51.436 30.804 50.078 29.39 48.986 27.738C47.138 30.104 45.472 31.308 42.756 32.4L42.112 31.546C43.246 30.944 46.704 29.04 47.558 23.874H42.35V22.894H47.67C47.67 22.768 47.684 22.726 47.684 22.502ZM58.548 24.392H56.728V21.774H58.282C57.862 20.626 57.568 19.982 57.26 19.45L58.142 18.96C59.248 19.394 60.522 20.542 60.984 21.018L59.808 21.774H61.642C61.6 21.62 61.264 20.22 60.83 19.296L61.726 18.82C62.524 19.296 63.714 20.136 64.442 21.004L62.944 21.774H65.856L64.904 21.424C65.366 20.374 65.604 19.044 65.646 18.82L68.628 19.842C68.488 20.066 67.172 21.256 66.36 21.774H69.3V24.392H67.858V25.036C66.612 25.834 65.688 26.31 64.288 26.884V27.556H69.664V28.536H64.288V30.552C64.288 32.26 63.098 32.26 62.384 32.26H59.402L59.178 31.168C60.144 31.266 60.466 31.294 60.9 31.294C61.432 31.294 61.642 31.196 61.642 30.496V28.536H56.35V27.556H61.642V25.988L63.21 26.1C63.574 25.764 63.868 25.414 64.12 25.036H58.548V24.392ZM59.234 22.754V24.042H66.738V22.754H59.234ZM81.83 26.632L80.346 28.41C80.164 28.242 80.038 28.116 79.772 27.878V31.14C79.772 31.294 79.772 31.364 79.856 31.364C80.164 31.364 80.22 31.364 80.248 31.14C80.318 30.72 80.332 30.034 80.36 29.278C80.934 29.474 81.228 29.572 81.718 29.67C81.578 28.578 81.424 27.99 81.298 27.5L82.6 26.982C83.216 28.312 83.65 29.544 83.986 30.916L81.858 32.05C81.858 31.658 81.858 31.35 81.816 30.846C81.648 31.434 81.382 32.344 80.416 32.344H78.792C77.364 32.344 77.364 31.168 77.364 30.678V27.304H79.072C78.652 26.996 78.316 26.786 78.022 26.618L78.484 26.128C78.176 26.184 76.79 26.408 76.51 26.45C76.524 26.492 76.538 26.534 76.594 26.646L75.11 27.164L75.264 27.136C75.39 27.29 75.53 27.458 75.908 28.116C75.978 27.836 76.02 27.626 76.09 27.304L77.084 27.584C76.916 30.272 76.846 30.93 76.538 32.148L74.606 31.084C74.83 30.734 75.026 30.426 75.278 29.908L74.718 30.174C74.648 29.726 74.55 29.054 74.2 27.836V32.344H71.792V30.118C71.358 31.322 71.092 31.756 70.77 32.232L70.028 31.616C70.336 30.454 70.448 28.354 70.448 27.486L71.792 27.696V26.884C71.526 26.954 70.56 27.108 70.336 27.122L70.168 25.092C70.336 25.092 70.98 25.092 71.204 25.106C71.47 24.672 71.554 24.546 71.624 24.406C71.386 23.902 70.658 22.516 70.112 21.886L70.714 20.864C70.98 21.018 71.078 21.074 71.316 21.228C71.568 20.262 71.652 19.422 71.708 18.806L73.878 19.226C73.738 19.646 72.758 21.256 72.24 21.928C72.52 22.166 72.618 22.25 72.744 22.376C73.416 21.102 73.5 20.878 73.724 20.262L75.964 21.004C75.908 21.102 75.88 21.158 75.796 21.27C74.354 23.272 74.186 23.496 72.786 25.12C73.136 25.106 73.752 25.092 74.242 25.05C74.116 24.686 74.018 24.434 73.906 24.182L74.886 23.678C75.516 24.462 75.964 25.316 76.034 25.442L75.866 24.574H77.14C77.336 23.888 77.574 22.572 77.686 21.816C77 22.684 76.286 23.37 76.006 23.65L75.082 22.922C76.076 21.494 76.3 20.64 76.762 18.918L78.848 20.01C78.792 20.22 78.218 21.102 77.994 21.396L80.43 21.718C79.94 22.698 79.38 23.664 78.736 24.546C79.17 24.532 80.15 24.49 80.822 24.434C80.472 23.468 80.304 23.104 80.15 22.782L81.228 22.46C82.194 23.258 83.356 24.602 83.958 25.428L81.396 26.38C81.27 25.89 81.228 25.75 81.172 25.54C80.43 25.708 80.108 25.792 79.814 25.848C80.528 26.086 81.046 26.254 81.83 26.632ZM74.2 26.296V27.388L74.802 27.248C74.69 26.632 74.676 26.562 74.578 26.184C74.452 26.226 74.368 26.254 74.2 26.296ZM80.262 20.01H78.96V19.016H82.502C82.684 20.164 83.146 21.718 83.972 22.922L83.188 23.748C82.53 23.16 81.088 21.872 80.262 20.01ZM97.692 31.546L97.118 32.372C94.864 31.91 93.1 31.252 91.658 29.684L91.532 30.496C90.482 30.846 85.19 32.26 84.714 32.358L84.182 30.566C84.546 30.538 84.728 30.51 86.338 30.314V26.198H84.378V25.204H86.338V19.352H96.642V20.346H88.928V21.228H96.306V22.222H88.928V23.118H96.306V24.098H88.928V25.204H97.65V26.198H95.592L97.258 27.71C96.53 28.326 94.976 28.956 94.024 29.25C94.934 30.328 95.802 30.79 97.692 31.546ZM95.242 26.198H92.61C92.792 26.982 92.988 27.542 93.338 28.2C94.122 27.542 94.332 27.276 95.242 26.198ZM88.928 26.198V29.964C89.684 29.866 90.832 29.67 91.504 29.516C90.692 28.55 90.076 27.43 89.768 26.198H88.928Z" fill="#DAE000"/>
</svg>
