<svg width="147" height="33" viewBox="0 0 147 33" fill="none" xmlns="http://www.w3.org/2000/svg">
<g opacity="0.7">
<mask id="path-1-outside-1_527_3293" maskUnits="userSpaceOnUse" x="0" y="0" width="147" height="33" fill="black">
<rect fill="white" width="147" height="33"/>
<path d="M28.3185 18.6L24.6065 23.624C23.2945 22.184 22.1105 21.096 19.4865 19.272C15.6465 24.52 11.7425 27.464 3.6465 30.376L2.3345 28.328C8.2545 25.544 11.7425 22.536 14.9425 16.648C12.2225 15.368 10.5265 14.792 7.9985 14.12L9.5025 11.592C13.2465 12.328 14.9425 12.776 16.4145 13.192C17.2785 10.632 18.0145 8.072 18.3665 2.824L24.6705 4.2C23.8705 9.8 22.9105 12.456 21.8225 15.048C24.7345 16.296 26.3025 17.224 28.3185 18.6ZM37.9733 18.376L33.8773 20.328C33.4293 18.056 32.5973 14.952 31.0293 12.424L32.7573 11.432C34.0052 12.68 36.2773 15.24 37.9733 18.376ZM44.8853 16.296L40.6933 17.992C40.3093 15.752 39.4453 12.808 38.3253 10.92L40.0853 9.992C42.1013 11.88 43.8612 14.504 44.8853 16.296ZM35.8613 31.176L34.8053 29.416C40.2773 27.528 47.0933 23.656 47.3173 9.512L52.2773 10.28C50.8053 23.208 45.8453 28.104 35.8613 31.176ZM67.9865 3.432V10.376L80.6265 9.768L82.4185 11.976C78.7065 17.704 75.0905 19.912 71.7625 21.448L70.0665 19.464C72.5945 17.576 74.3225 15.368 75.3785 12.36L67.9865 12.712V24.2C67.9865 26.44 68.8505 27.016 71.1545 27.016H74.4185C74.8345 27.016 77.9385 26.92 81.0745 26.344V29.608H69.4905C64.2745 29.608 62.1945 28.392 62.1945 25V13L55.3785 13.32V10.984L62.1945 10.632V3.016L67.9865 3.432ZM114.335 15.144V18.408H85.7905V15.144H114.335ZM142.447 6.472L140.431 8.456C139.247 6.6 137.647 5.224 136.815 4.584L138.287 3.24C140.079 4.392 141.231 5.192 142.447 6.472ZM118.031 13.256L119.439 11.144C121.871 11.464 125.327 11.976 129.839 13.992L126.607 19.016C123.823 16.36 121.967 15.016 118.031 13.256ZM145.135 4.008L143.119 5.992C142.639 5.384 141.647 4.136 139.727 2.696L141.167 1.352C143.471 2.472 144.527 3.432 145.135 4.008ZM121.743 30.664L119.567 24.36C131.375 23.56 137.679 19.592 143.503 10.28L145.519 11.592C141.231 20.808 135.663 27.4 121.743 30.664ZM133.039 6.664L129.519 11.368C127.631 8.872 125.743 6.856 122.223 4.456L124.015 2.664C128.495 4.04 130.287 4.872 133.039 6.664Z"/>
</mask>
<path d="M28.3185 18.6L29.1228 19.1942L29.7397 18.3593L28.8822 17.774L28.3185 18.6ZM24.6065 23.624L23.8673 24.2975L24.6873 25.1975L25.4108 24.2182L24.6065 23.624ZM19.4865 19.272L20.0573 18.4509L19.2558 17.8938L18.6795 18.6815L19.4865 19.272ZM3.6465 30.376L2.80447 30.9154L3.23461 31.5869L3.98496 31.317L3.6465 30.376ZM2.3345 28.328L1.90894 27.4231L0.877819 27.908L1.49247 28.8674L2.3345 28.328ZM14.9425 16.648L15.8211 17.1255L16.3272 16.1944L15.3683 15.7432L14.9425 16.648ZM7.9985 14.12L7.13909 13.6087L6.46226 14.7464L7.7416 15.0864L7.9985 14.12ZM9.5025 11.592L9.69539 10.6108L9.00358 10.4748L8.64309 11.0807L9.5025 11.592ZM16.4145 13.192L16.1425 14.1543L17.0578 14.413L17.362 13.5118L16.4145 13.192ZM18.3665 2.824L18.5798 1.847L17.4464 1.59962L17.3687 2.75708L18.3665 2.824ZM24.6705 4.2L25.6605 4.34142L25.7919 3.42123L24.8838 3.223L24.6705 4.2ZM21.8225 15.048L20.9004 14.661L20.5163 15.5762L21.4286 15.9671L21.8225 15.048ZM28.3185 18.6L27.5142 18.0058L23.8022 23.0298L24.6065 23.624L25.4108 24.2182L29.1228 19.1942L28.3185 18.6ZM24.6065 23.624L25.3457 22.9505C23.9765 21.4478 22.734 20.3115 20.0573 18.4509L19.4865 19.272L18.9157 20.0931C21.487 21.8805 22.6125 22.9202 23.8673 24.2975L24.6065 23.624ZM19.4865 19.272L18.6795 18.6815C16.8062 21.2416 14.9433 23.2057 12.5828 24.8852C10.2147 26.5701 7.30592 27.997 3.30804 29.435L3.6465 30.376L3.98496 31.317C8.08308 29.843 11.1743 28.3419 13.7422 26.5148C16.3177 24.6823 18.3268 22.5504 20.2935 19.8625L19.4865 19.272ZM3.6465 30.376L4.48853 29.8366L3.17653 27.7886L2.3345 28.328L1.49247 28.8674L2.80447 30.9154L3.6465 30.376ZM2.3345 28.328L2.76006 29.2329C5.7772 27.8141 8.22338 26.3154 10.3326 24.3907C12.4443 22.4637 14.1806 20.1441 15.8211 17.1255L14.9425 16.648L14.0639 16.1705C12.5044 19.0399 10.8967 21.1683 8.98444 22.9133C7.06962 24.6606 4.8118 26.0579 1.90894 27.4231L2.3345 28.328ZM14.9425 16.648L15.3683 15.7432C12.5882 14.4349 10.8349 13.8392 8.2554 13.1536L7.9985 14.12L7.7416 15.0864C10.2181 15.7448 11.8568 16.3011 14.5167 17.5528L14.9425 16.648ZM7.9985 14.12L8.85791 14.6313L10.3619 12.1033L9.5025 11.592L8.64309 11.0807L7.13909 13.6087L7.9985 14.12ZM9.5025 11.592L9.30961 12.5732C13.0286 13.3043 14.6981 13.7461 16.1425 14.1543L16.4145 13.192L16.6865 12.2297C15.1869 11.8059 13.4644 11.3517 9.69539 10.6108L9.5025 11.592ZM16.4145 13.192L17.362 13.5118C18.2497 10.8816 19.0057 8.23639 19.3643 2.89092L18.3665 2.824L17.3687 2.75708C17.0233 7.90761 16.3073 10.3824 15.467 12.8722L16.4145 13.192ZM18.3665 2.824L18.1532 3.801L24.4572 5.177L24.6705 4.2L24.8838 3.223L18.5798 1.847L18.3665 2.824ZM24.6705 4.2L23.6806 4.05858C22.8936 9.56737 21.9582 12.141 20.9004 14.661L21.8225 15.048L22.7446 15.435C23.8628 12.771 24.8474 10.0326 25.6605 4.34142L24.6705 4.2ZM21.8225 15.048L21.4286 15.9671C24.2749 17.187 25.7863 18.0824 27.7548 19.4259L28.3185 18.6L28.8822 17.774C26.8187 16.3656 25.1941 15.405 22.2164 14.1289L21.8225 15.048ZM37.9733 18.376L38.4035 19.2787L39.3535 18.826L38.8529 17.9003L37.9733 18.376ZM33.8773 20.328L32.8961 20.5215L33.1452 21.7846L34.3075 21.2307L33.8773 20.328ZM31.0293 12.424L30.5314 11.5567L29.6341 12.0719L30.1794 12.9511L31.0293 12.424ZM32.7572 11.432L33.4644 10.7249L32.9232 10.1837L32.2594 10.5647L32.7572 11.432ZM44.8853 16.296L45.2603 17.223L46.3214 16.7937L45.7535 15.7999L44.8853 16.296ZM40.6933 17.992L39.7076 18.161L39.9174 19.3846L41.0683 18.919L40.6933 17.992ZM38.3252 10.92L37.8588 10.0354L36.9287 10.5259L37.4652 11.4302L38.3252 10.92ZM40.0853 9.992L40.7688 9.2621L40.2489 8.77521L39.6188 9.10743L40.0853 9.992ZM35.8613 31.176L35.0038 31.6905L35.4067 32.3621L36.1553 32.1318L35.8613 31.176ZM34.8053 29.416L34.4791 28.4707L33.3132 28.8729L33.9478 29.9305L34.8053 29.416ZM47.3173 9.512L47.4703 8.52378L46.3356 8.34808L46.3174 9.49616L47.3173 9.512ZM52.2773 10.28L53.2708 10.3931L53.3795 9.43875L52.4303 9.29177L52.2773 10.28ZM37.9733 18.376L37.543 17.4733L33.447 19.4253L33.8773 20.328L34.3075 21.2307L38.4035 19.2787L37.9733 18.376ZM33.8773 20.328L34.8584 20.1345C34.4027 17.8238 33.5426 14.5789 31.8791 11.8969L31.0293 12.424L30.1794 12.9511C31.6519 15.3251 32.4558 18.2882 32.8961 20.5215L33.8773 20.328ZM31.0293 12.424L31.5271 13.2913L33.2551 12.2993L32.7572 11.432L32.2594 10.5647L30.5314 11.5567L31.0293 12.424ZM32.7572 11.432L32.0501 12.1391C33.2575 13.3465 35.4592 15.8295 37.0936 18.8517L37.9733 18.376L38.8529 17.9003C37.0953 14.6505 34.753 12.0135 33.4644 10.7249L32.7572 11.432ZM44.8853 16.296L44.5102 15.369L40.3182 17.065L40.6933 17.992L41.0683 18.919L45.2603 17.223L44.8853 16.296ZM40.6933 17.992L41.6789 17.823C41.2845 15.5226 40.3926 12.4449 39.1853 10.4098L38.3252 10.92L37.4652 11.4302C38.4979 13.1711 39.334 15.9814 39.7076 18.161L40.6933 17.992ZM38.3252 10.92L38.7917 11.8046L40.5517 10.8766L40.0853 9.992L39.6188 9.10743L37.8588 10.0354L38.3252 10.92ZM40.0853 9.992L39.4017 10.7219C41.3144 12.5131 43.0164 15.0411 44.017 16.7921L44.8853 16.296L45.7535 15.7999C44.7061 13.9669 42.8881 11.2469 40.7688 9.2621L40.0853 9.992ZM35.8613 31.176L36.7187 30.6615L35.6627 28.9015L34.8053 29.416L33.9478 29.9305L35.0038 31.6905L35.8613 31.176ZM34.8053 29.416L35.1314 30.3613C37.9431 29.3912 41.2188 27.8724 43.8052 24.6908C46.3977 21.5017 48.2026 16.7616 48.3171 9.52783L47.3173 9.512L46.3174 9.49616C46.2079 16.4064 44.4928 20.6743 42.2533 23.4292C40.0077 26.1916 37.1394 27.5528 34.4791 28.4707L34.8053 29.416ZM47.3173 9.512L47.1642 10.5002L52.1242 11.2682L52.2773 10.28L52.4303 9.29177L47.4703 8.52378L47.3173 9.512ZM52.2773 10.28L51.2837 10.1669C50.5591 16.5301 48.9911 20.7697 46.4913 23.7859C43.9948 26.7981 40.4684 28.7121 35.5672 30.2202L35.8613 31.176L36.1553 32.1318C41.2381 30.5679 45.1837 28.4979 48.0312 25.0621C50.8754 21.6303 52.5234 16.9579 53.2708 10.3931L52.2773 10.28ZM67.9865 3.432H68.9865V2.50125L68.0581 2.43457L67.9865 3.432ZM67.9865 10.376H66.9865V11.4253L68.0345 11.3748L67.9865 10.376ZM80.6265 9.768L81.403 9.13783L81.084 8.74484L80.5785 8.76915L80.6265 9.768ZM82.4185 11.976L83.2577 12.5198L83.6529 11.91L83.195 11.3458L82.4185 11.976ZM71.7625 21.448L71.0024 22.0978L71.4942 22.6732L72.1816 22.356L71.7625 21.448ZM70.0665 19.464L69.4681 18.6628L68.6124 19.3019L69.3064 20.1138L70.0665 19.464ZM75.3785 12.36L76.322 12.6912L76.8138 11.2905L75.3309 11.3611L75.3785 12.36ZM67.9865 12.712L67.9389 11.7131L66.9865 11.7585V12.712H67.9865ZM81.0745 26.344H82.0745V25.1436L80.8939 25.3605L81.0745 26.344ZM81.0745 29.608V30.608H82.0745V29.608H81.0745ZM62.1945 13H63.1945V11.952L62.1476 12.0011L62.1945 13ZM55.3785 13.32H54.3785V14.368L55.4254 14.3189L55.3785 13.32ZM55.3785 10.984L55.3269 9.98533L54.3785 10.0343V10.984H55.3785ZM62.1945 10.632L62.2461 11.6307L63.1945 11.5817V10.632H62.1945ZM62.1945 3.016L62.2661 2.01857L61.1945 1.9416V3.016H62.1945ZM67.9865 3.432H66.9865V10.376H67.9865H68.9865V3.432H67.9865ZM67.9865 10.376L68.0345 11.3748L80.6745 10.7668L80.6265 9.768L80.5785 8.76915L67.9385 9.37715L67.9865 10.376ZM80.6265 9.768L79.85 10.3982L81.642 12.6062L82.4185 11.976L83.195 11.3458L81.403 9.13783L80.6265 9.768ZM82.4185 11.976L81.5793 11.4322C77.9904 16.9702 74.5371 19.066 71.3434 20.54L71.7625 21.448L72.1816 22.356C75.6439 20.758 79.4226 18.4378 83.2577 12.5198L82.4185 11.976ZM71.7625 21.448L72.5226 20.7982L70.8266 18.8142L70.0665 19.464L69.3064 20.1138L71.0024 22.0978L71.7625 21.448ZM70.0665 19.464L70.6649 20.2652C73.3362 18.2702 75.194 15.9045 76.322 12.6912L75.3785 12.36L74.435 12.0288C73.451 14.8315 71.8528 16.8818 69.4681 18.6628L70.0665 19.464ZM75.3785 12.36L75.3309 11.3611L67.9389 11.7131L67.9865 12.712L68.0341 13.7109L75.4261 13.3589L75.3785 12.36ZM67.9865 12.712H66.9865V24.2H67.9865H68.9865V12.712H67.9865ZM67.9865 24.2H66.9865C66.9865 25.4004 67.2085 26.4946 68.0627 27.2132C68.865 27.8881 69.9903 28.016 71.1545 28.016V27.016V26.016C70.0147 26.016 69.556 25.8559 69.3503 25.6828C69.1965 25.5534 68.9865 25.2396 68.9865 24.2H67.9865ZM71.1545 27.016V28.016H74.4185V27.016V26.016H71.1545V27.016ZM74.4185 27.016V28.016C74.8775 28.016 78.0445 27.9173 81.2551 27.3275L81.0745 26.344L80.8939 25.3605C77.8325 25.9227 74.7915 26.016 74.4185 26.016V27.016ZM81.0745 26.344H80.0745V29.608H81.0745H82.0745V26.344H81.0745ZM81.0745 29.608V28.608H69.4905V29.608V30.608H81.0745V29.608ZM69.4905 29.608V28.608C66.9064 28.608 65.3308 28.2959 64.4142 27.7265C63.6207 27.2337 63.1945 26.4634 63.1945 25H62.1945H61.1945C61.1945 26.9286 61.8083 28.4623 63.3588 29.4255C64.7862 30.3121 66.8587 30.608 69.4905 30.608V29.608ZM62.1945 25H63.1945V13H62.1945H61.1945V25H62.1945ZM62.1945 13L62.1476 12.0011L55.3316 12.3211L55.3785 13.32L55.4254 14.3189L62.2414 13.9989L62.1945 13ZM55.3785 13.32H56.3785V10.984H55.3785H54.3785V13.32H55.3785ZM55.3785 10.984L55.4301 11.9827L62.2461 11.6307L62.1945 10.632L62.1429 9.63333L55.3269 9.98533L55.3785 10.984ZM62.1945 10.632H63.1945V3.016H62.1945H61.1945V10.632H62.1945ZM62.1945 3.016L62.1229 4.01343L67.9149 4.42943L67.9865 3.432L68.0581 2.43457L62.2661 2.01857L62.1945 3.016ZM114.335 15.144H115.335V14.144H114.335V15.144ZM114.335 18.408V19.408H115.335V18.408H114.335ZM85.7905 18.408H84.7905V19.408H85.7905V18.408ZM85.7905 15.144V14.144H84.7905V15.144H85.7905ZM114.335 15.144H113.335V18.408H114.335H115.335V15.144H114.335ZM114.335 18.408V17.408H85.7905V18.408V19.408H114.335V18.408ZM85.7905 18.408H86.7905V15.144H85.7905H84.7905V18.408H85.7905ZM85.7905 15.144V16.144H114.335V15.144V14.144H85.7905V15.144ZM142.447 6.472L143.148 7.18474L143.849 6.49557L143.172 5.78325L142.447 6.472ZM140.431 8.456L139.588 8.99381L140.252 10.035L141.132 9.16874L140.431 8.456ZM136.815 4.584L136.141 3.84551L135.26 4.64956L136.205 5.37662L136.815 4.584ZM138.287 3.24L138.828 2.39882L138.181 1.98289L137.613 2.50151L138.287 3.24ZM118.031 13.256L117.199 12.7013L116.543 13.6859L117.623 14.1689L118.031 13.256ZM119.439 11.144L119.569 10.1525L118.952 10.0713L118.607 10.5893L119.439 11.144ZM129.839 13.992L130.68 14.533L131.31 13.5539L130.247 13.079L129.839 13.992ZM126.607 19.016L125.917 19.7395L126.793 20.5754L127.448 19.557L126.607 19.016ZM145.135 4.008L145.836 4.72074L146.575 3.99431L145.823 3.28205L145.135 4.008ZM143.119 5.992L142.334 6.61164L143.025 7.4872L143.82 6.70474L143.119 5.992ZM139.727 2.696L139.045 1.96494L138.172 2.77961L139.127 3.496L139.727 2.696ZM141.167 1.352L141.604 0.452631L140.987 0.152438L140.485 0.620944L141.167 1.352ZM121.743 30.664L120.798 30.9903L121.092 31.8437L121.971 31.6376L121.743 30.664ZM119.567 24.36L119.499 23.3623L118.195 23.4506L118.622 24.6863L119.567 24.36ZM143.503 10.28L144.048 9.44186L143.195 8.88648L142.655 9.74974L143.503 10.28ZM145.519 11.592L146.426 12.0138L146.792 11.2271L146.064 10.7539L145.519 11.592ZM133.039 6.664L133.84 7.26313L134.479 6.40848L133.585 5.826L133.039 6.664ZM129.519 11.368L128.721 11.9713L129.523 13.0313L130.32 11.9671L129.519 11.368ZM122.223 4.456L121.516 3.74889L120.662 4.60232L121.66 5.28223L122.223 4.456ZM124.015 2.664L124.309 1.70807L123.733 1.5314L123.308 1.95689L124.015 2.664ZM142.447 6.472L141.746 5.75926L139.73 7.74326L140.431 8.456L141.132 9.16874L143.148 7.18474L142.447 6.472ZM140.431 8.456L141.274 7.91818C140.001 5.92316 138.3 4.46448 137.425 3.79138L136.815 4.584L136.205 5.37662C136.994 5.98352 138.493 7.27684 139.588 8.99381L140.431 8.456ZM136.815 4.584L137.489 5.32248L138.961 3.97848L138.287 3.24L137.613 2.50151L136.141 3.84551L136.815 4.584ZM138.287 3.24L137.746 4.08118C139.527 5.22566 140.593 5.97245 141.722 7.16075L142.447 6.472L143.172 5.78325C141.869 4.41155 140.631 3.55834 138.828 2.39882L138.287 3.24ZM118.031 13.256L118.863 13.8107L120.271 11.6987L119.439 11.144L118.607 10.5893L117.199 12.7013L118.031 13.256ZM119.439 11.144L119.309 12.1355C121.701 12.4503 125.048 12.9464 129.431 14.905L129.839 13.992L130.247 13.079C125.606 11.0056 122.041 10.4777 119.569 10.1525L119.439 11.144ZM129.839 13.992L128.998 13.451L125.766 18.475L126.607 19.016L127.448 19.557L130.68 14.533L129.839 13.992ZM126.607 19.016L127.297 18.2925C124.437 15.5641 122.487 14.1533 118.439 12.3431L118.031 13.256L117.623 14.1689C121.447 15.8787 123.209 17.1559 125.917 19.7395L126.607 19.016ZM145.135 4.008L144.434 3.29526L142.418 5.27926L143.119 5.992L143.82 6.70474L145.836 4.72074L145.135 4.008ZM143.119 5.992L143.904 5.37235C143.398 4.73221 142.345 3.40948 140.327 1.896L139.727 2.696L139.127 3.496C140.949 4.86252 141.88 6.03579 142.334 6.61164L143.119 5.992ZM139.727 2.696L140.409 3.42705L141.849 2.08305L141.167 1.352L140.485 0.620944L139.045 1.96494L139.727 2.696ZM141.167 1.352L140.73 2.25137C142.921 3.31648 143.894 4.2101 144.447 4.73395L145.135 4.008L145.823 3.28205C145.16 2.6539 144.021 1.62752 141.604 0.452631L141.167 1.352ZM121.743 30.664L122.688 30.3377L120.512 24.0337L119.567 24.36L118.622 24.6863L120.798 30.9903L121.743 30.664ZM119.567 24.36L119.635 25.3577C125.636 24.9511 130.333 23.7333 134.291 21.3707C138.252 19.0072 141.387 15.5495 144.351 10.8103L143.503 10.28L142.655 9.74974C139.795 14.3225 136.866 17.5048 133.267 19.6533C129.665 21.8027 125.306 22.9689 119.499 23.3623L119.567 24.36ZM143.503 10.28L142.958 11.1181L144.974 12.4301L145.519 11.592L146.064 10.7539L144.048 9.44186L143.503 10.28ZM145.519 11.592L144.612 11.1701C142.499 15.7125 140.107 19.5267 136.585 22.6073C133.067 25.6842 128.354 28.0867 121.515 29.6904L121.743 30.664L121.971 31.6376C129.052 29.9773 134.083 27.4518 137.901 24.1127C141.715 20.7773 144.251 16.6875 146.426 12.0138L145.519 11.592ZM133.039 6.664L132.238 6.06487L128.718 10.7689L129.519 11.368L130.32 11.9671L133.84 7.26313L133.039 6.664ZM129.519 11.368L130.317 10.7647C128.372 8.19382 126.407 6.0986 122.786 3.62977L122.223 4.456L121.66 5.28223C125.079 7.6134 126.89 9.55018 128.721 11.9713L129.519 11.368ZM122.223 4.456L122.93 5.16311L124.722 3.37111L124.015 2.664L123.308 1.95689L121.516 3.74889L122.223 4.456ZM124.015 2.664L123.721 3.61993C128.136 4.97588 129.838 5.77289 132.493 7.502L133.039 6.664L133.585 5.826C130.736 3.97111 128.854 3.10412 124.309 1.70807L124.015 2.664Z" fill="white" mask="url(#path-1-outside-1_527_3293)"/>
</g>
</svg>
