<svg width="414" height="130" viewBox="0 0 414 130" fill="none" xmlns="http://www.w3.org/2000/svg">
<path d="M8.84736 16.545V8.075H15.2524V41.29H8.84736V33.31C6.67736 34.43 1.98736 36.67 1.70736 36.775L0.447363 32.12C0.902363 32.085 3.10736 31.805 8.84736 30.37V18.995H0.727363V16.545H8.84736ZM30.4424 13.465L34.8524 18.96C34.7124 19.03 34.3274 19.24 34.1524 19.345C30.8624 20.99 27.4674 22.39 23.9674 23.44V37.02C23.9674 38.07 23.9674 38.49 24.8424 38.49H26.1724C27.0124 38.49 27.3624 38.035 27.6074 36.39C27.8524 34.885 27.9574 32.89 27.8874 31.35C28.7974 31.7 31.5274 32.68 34.5024 33.1C33.7324 39.47 33.0324 40.975 28.4824 40.975H22.9174C17.4574 40.975 17.4574 38.525 17.4574 36.32V8.075H23.9674V20.29C27.1874 17.49 29.1824 15.565 30.4424 13.465ZM49.0274 16.755H67.2974C67.2974 18.015 67.0874 23.51 67.0524 24.63H69.0474V27.115H66.9474C66.9124 27.64 66.6324 32.995 66.6324 33.065H68.8024V35.55H66.3874C66.1424 40.8 62.9224 40.905 60.6124 40.905H54.5924L53.8574 38.315C55.3974 38.455 56.7974 38.595 57.8124 38.595C58.9324 38.595 59.9824 38.595 60.0874 35.55H44.4074C45.0724 32.75 45.6324 30.125 46.0524 27.115H44.5824V24.63H46.4024C46.6124 23.195 46.8224 21.41 47.0674 18.435C46.4024 18.96 45.8774 19.345 45.2124 19.8L43.4624 18.33C45.6324 15.355 47.2074 12.73 47.9774 7.55L54.7324 8.88C54.5224 9.37 53.6474 10.945 53.4374 11.295H69.0474V13.745H51.7574C51.1274 14.62 50.1474 15.74 49.0274 16.755ZM52.5974 24.63H53.8574C53.9624 23.195 54.1724 20.605 54.2074 19.24H53.1924C53.0874 20.22 52.9824 21.41 52.5974 24.63ZM59.5624 24.63H60.8574C60.8924 23.79 61.0674 20.01 61.0674 19.24H59.8424C59.7724 21.025 59.6324 23.58 59.5624 24.63ZM53.6124 27.115H52.2824C52.1074 28.55 51.8974 30.09 51.3724 33.065H52.8774C52.9824 32.505 53.4724 28.2 53.6124 27.115ZM60.7524 27.115H59.3524C59.2824 27.955 58.9324 32.12 58.8624 33.065H60.4374C60.4374 33.065 60.7174 27.745 60.7524 27.115ZM42.0974 24.56L44.3024 25.925C42.3074 34.045 40.3824 39.085 39.4374 41.325L35.3074 37.37C38.0024 33.31 40.8024 28.095 42.0974 24.56ZM45.8074 11.89L41.3624 16.265C40.3474 14.41 38.5624 11.54 36.6724 9.335L38.2124 7.76C40.2424 8.53 43.5324 10.14 45.8074 11.89ZM44.5474 20.36L40.1374 25.155C39.6474 24.07 38.0724 20.535 35.5524 17.735L36.9874 15.88C40.2774 17.525 42.1324 18.645 44.5474 20.36ZM79.1624 14.655V13.57H84.3424C84.1674 12.765 83.6424 10.595 82.7324 8.74L84.7274 7.69C87.0024 8.81 89.9074 10.7 91.1324 11.96L86.4074 13.57H94.7724L92.6724 12.73C93.4424 11.12 94.1074 8.67 94.2474 7.725L101.562 9.65C101.457 9.93 97.7824 13.185 97.2924 13.57H104.012V16.055H94.5974C93.9674 16.86 92.9524 17.945 92.6724 18.225H101.597V35.935H80.9124V18.225H87.0724C87.3174 17.42 87.3874 16.965 87.5274 16.055H80.3174C80.4224 16.195 80.5274 16.335 80.6324 16.475L74.7174 20.325C73.5624 16.44 72.2324 12.8 70.3074 9.51L72.3024 8.11C75.5924 10.595 78.9174 14.375 79.1624 14.655ZM95.1224 25.75H87.2124V28.27H95.1224V25.75ZM87.2124 23.265H95.1224V20.71H87.2124V23.265ZM95.1224 30.755H87.2124V33.45H95.1224V30.755ZM70.8324 22.74H79.0574V34.605C79.4774 37.3 81.9624 38.14 85.3924 38.14H95.8574C97.4674 38.14 102.052 38.14 104.502 37.895L103.557 40.625H84.4824C79.5124 40.625 77.9024 40.17 75.5574 37.86C74.2974 39.365 72.8624 40.485 71.7774 41.29L70.0974 36.18C70.8324 36.04 72.5824 35.655 73.1774 35.41V25.19H70.8324V22.74ZM119.132 16.755V8.145H125.677V16.615C125.677 17.105 125.712 17.42 125.712 17.735H139.012V20.185H125.992C127.707 32.33 135.967 37.37 139.642 39.365L137.822 41.5C128.512 37.51 125.117 33.975 122.387 29.845C117.767 35.76 113.602 38.77 106.812 41.5L105.202 39.365C108.037 37.86 116.682 33.1 118.817 20.185H105.797V17.735H119.097C119.097 17.42 119.132 17.315 119.132 16.755ZM146.292 21.48H141.742V14.935H145.627C144.577 12.065 143.842 10.455 143.072 9.125L145.277 7.9C148.042 8.985 151.227 11.855 152.382 13.045L149.442 14.935H154.027C153.922 14.55 153.082 11.05 151.997 8.74L154.237 7.55C156.232 8.74 159.207 10.84 161.027 13.01L157.282 14.935H164.562L162.182 14.06C163.337 11.435 163.932 8.11 164.037 7.55L171.492 10.105C171.142 10.665 167.852 13.64 165.822 14.935H173.172V21.48H169.567V23.09C166.452 25.085 164.142 26.275 160.642 27.71V29.39H174.082V31.84H160.642V36.88C160.642 41.15 157.667 41.15 155.882 41.15H148.427L147.867 38.42C150.282 38.665 151.087 38.735 152.172 38.735C153.502 38.735 154.027 38.49 154.027 36.74V31.84H140.797V29.39H154.027V25.47L157.947 25.75C158.857 24.91 159.592 24.035 160.222 23.09H146.292V21.48ZM148.007 17.385V20.605H166.767V17.385H148.007ZM179.811 8.88H193.251V11.4H185.796V41.22H179.811V8.88ZM219.773 11.26L218.618 17.28C214.803 15.67 208.048 13.955 199.298 13.71V11.015C204.898 10.28 208.153 10.28 208.958 10.28C212.598 10.28 216.203 10.595 219.773 11.26ZM200.068 25.82L202.448 27.15C201.468 28.34 200.453 29.88 200.453 31.455C200.453 34.255 203.848 34.255 207.523 34.255C210.218 34.255 214.873 34.15 221.733 32.33V38.28C216.588 39.015 212.003 39.05 210.358 39.05C206.823 39.05 196.288 39.05 196.288 32.89C196.288 29.25 198.878 26.905 200.068 25.82ZM253.727 15.075L250.857 16.51C249.982 13.395 248.932 12.03 248.372 11.295L250.437 10.42C251.732 11.89 252.817 13.57 253.727 15.075ZM257.297 13.36L254.462 14.795C253.902 13.36 253.097 11.645 252.012 10.28L254.007 9.335C255.722 11.015 256.527 12.17 257.297 13.36ZM233.812 17.245V8.95L240.497 9.44C240.077 11.96 239.797 14.83 239.797 17.385C239.797 19.38 239.902 20.22 240.077 21.235C244.067 20.045 245.607 19.625 250.962 18.12L251.872 22.46C248.862 22.74 242.562 23.335 237.662 25.26C236.297 25.785 232.797 27.15 232.797 31.665C232.797 35.585 235.912 36.88 241.757 36.88C246.657 36.88 249.527 36.145 251.417 35.62V39.645C247.777 40.065 243.192 40.065 241.267 40.065C235.387 40.065 226.112 39.89 226.112 32.225C226.112 26.94 230.627 24.945 234.582 23.195C234.232 22.04 233.812 20.57 233.812 17.245ZM278.491 23.965V26.73C276.111 26.905 272.191 27.08 269.706 27.185C269.531 28.9 269.356 30.895 269.356 32.365C269.356 35.62 270.441 37.545 275.691 37.545C278.911 37.545 282.341 36.39 282.341 31.665C282.341 29.005 281.606 26.905 281.116 25.505L283.461 24.49C285.701 27.675 286.961 30.51 286.961 32.855C286.961 34.535 286.366 36.985 283.776 38.665C281.536 40.1 276.146 40.415 274.431 40.415C273.591 40.415 267.781 40.415 264.876 37.685C263.196 36.145 263.056 33.52 263.056 32.26C263.056 30.895 263.231 28.69 263.371 27.43C261.621 27.5 259.031 27.57 258.191 27.57V24.77C260.291 24.77 260.676 24.77 263.651 24.7C263.651 24.42 264.176 19.625 264.246 18.82C261.306 18.925 259.626 18.925 258.961 18.925V16.23C260.291 16.23 263.021 16.16 264.561 16.125C265.016 11.995 265.121 10.735 265.226 9.055L272.086 9.72C271.806 11.4 271.596 12.59 271.106 15.88C274.711 15.74 276.741 15.635 279.471 15.425V18.19C278.351 18.26 276.951 18.4 270.721 18.61C270.441 20.675 270.371 21.2 269.986 24.455C272.751 24.315 275.411 24.21 278.491 23.965ZM323.63 35.34L321.915 37.195C320.725 36.46 318.59 35.165 315.825 32.54V33.94H309.63V41.325H303.12V33.94H297.065V32.68C294.545 35.025 292.235 36.46 290.975 37.265L289.225 35.305C294.3 30.58 298.185 22.74 299.235 16.93H289.855V14.445H303.12V8.075H309.63V14.445H323.175V16.93H313.585C314.635 22.635 318.94 31.035 323.63 35.34ZM309.63 31.49H314.775C313.585 30.265 311.485 27.85 309.63 24.665V31.49ZM303.12 31.49V24.665C302.63 25.575 300.985 28.725 298.29 31.49H303.12ZM342.88 39.12L342.04 36.355C344.77 35.62 350.86 33.94 350.86 23.93C350.86 16.265 346.38 14.62 344.595 13.955C344.245 17.98 343.58 25.225 341.76 30.545C339.975 35.795 337.42 37.685 334.025 37.685C328.565 37.685 325.66 32.4 325.66 26.695C325.66 18.645 331.12 10.665 342.355 10.665C348.97 10.665 357.405 13.675 357.405 24.385C357.405 36.39 346.975 38.35 342.88 39.12ZM338.295 13.955C336.825 14.515 335.32 15.11 333.64 17.49C331.47 20.605 330.84 24.665 330.84 28.305C330.84 29.39 330.84 34.36 333.15 34.36C335.11 34.36 337.49 26.345 338.295 13.955ZM375.519 39.435L374.154 37.615C375.974 35.9 378.459 33.275 379.754 28.55H377.094V26.065H381.749V22.67H387.769V26.065H393.894V28.55H389.589C390.534 32.785 392.389 35.34 394.454 37.615L392.879 39.4C391.864 38.665 388.959 36.6 387.769 35.2V41.395H381.749V34.955C380.489 36.285 378.529 37.965 375.519 39.435ZM393.614 21.235L392.179 23.125C389.064 22.11 384.829 20.57 380.349 17.07V23.615H373.979V16.965C369.639 20.815 365.019 22.39 361.974 23.335L360.469 21.445C361.799 20.71 363.934 19.555 366.419 17.035C367.014 16.44 368.204 15.145 368.974 13.675H361.974V11.225H373.979V8.04H380.349V11.225H392.424V13.675H385.459C386.124 14.76 388.364 18.19 393.614 21.235ZM375.974 33.555L374.539 35.795C373.909 35.41 373.524 35.165 372.614 34.5V41.395H366.664V34.745C364.774 36.81 362.884 38.14 361.134 39.295L359.629 37.51C363.199 33.59 364.424 29.32 364.634 28.55H360.504V26.065H366.664V22.67H372.614V26.065H376.254V28.55H373.104C373.489 29.6 374.259 31.49 375.974 33.555ZM409.189 40.52H395.749V38H403.204V8.18H409.189V40.52ZM76.2873 63.69C74.1873 63.69 72.5073 61.975 72.5073 59.84C72.5073 57.705 74.2223 55.99 76.2873 55.99C78.3523 55.99 80.0673 57.67 80.0673 59.84C80.0673 62.01 78.3523 63.69 76.2873 63.69ZM76.2873 61.52C77.1623 61.52 77.9323 60.82 77.9323 59.84C77.9323 58.86 77.1273 58.195 76.2873 58.195C75.3773 58.195 74.6423 58.965 74.6423 59.84C74.6423 60.715 75.3423 61.52 76.2873 61.52ZM47.8323 61.45H71.6323L74.1173 64.46C70.8273 81.155 61.3773 85.53 49.2323 88.295L48.0073 85.88C55.4623 83.78 65.2623 79.79 67.0473 64.005H47.8323V61.45ZM110.074 60.82V87.49H103.634V85.845H89.3888V87.49H82.9138V60.82H110.074ZM89.3888 83.29H103.634V63.375H89.3888V83.29ZM142.206 62.36L140.001 64.53C138.706 62.5 136.956 60.995 136.046 60.295L137.656 58.825C139.616 60.085 140.876 60.96 142.206 62.36ZM115.501 69.78L117.041 67.47C119.701 67.82 123.481 68.38 128.416 70.585L124.881 76.08C121.836 73.175 119.806 71.705 115.501 69.78ZM145.146 59.665L142.941 61.835C142.416 61.17 141.331 59.805 139.231 58.23L140.806 56.76C143.326 57.985 144.481 59.035 145.146 59.665ZM119.561 88.82L117.181 81.925C130.096 81.05 136.991 76.71 143.361 66.525L145.566 67.96C140.876 78.04 134.786 85.25 119.561 88.82ZM131.916 62.57L128.066 67.715C126.001 64.985 123.936 62.78 120.086 60.155L122.046 58.195C126.946 59.7 128.906 60.61 131.916 62.57ZM163.312 69.57V84.585H172.657V86.615H148.612V84.585H158.027V69.57H150.362V67.505H170.977V69.57H163.312ZM178.324 89.135L177.309 86.65C182.489 85.915 195.439 83.885 197.189 66.175H188.404C185.464 70.515 182.594 73.105 177.274 75.52L175.629 73.28C177.659 72.02 183.294 68.45 184.379 57.81L191.449 59.49C190.959 61.1 190.609 62.01 189.839 63.62H202.089L204.294 65.615C203.839 68.24 202.894 73.665 199.744 78.425C193.899 87.21 184.274 88.54 178.324 89.135ZM210.532 58.265L216.902 58.685V68.31C220.752 68.94 225.197 69.885 231.637 73.665L227.297 79.055C225.897 77.585 222.082 73.665 216.902 71.425V88.82H210.532V58.265ZM242.52 87.42L236.43 88.155C236.08 85.18 235.8 82.275 235.8 75.555C235.8 65.3 236.465 61.345 236.815 58.965L242.905 59.735C242.52 61.52 241.785 65.055 241.785 75.17C241.785 81.96 242.17 84.97 242.52 87.42ZM264.15 80.98V86.44C261.245 86.72 258.13 86.895 255.19 86.895C247.455 86.895 244.375 86.02 244.375 81.96C244.375 81.33 244.375 78.88 246.79 76.115L249.1 77.305C248.575 78.11 247.98 79.02 247.98 80.28C247.98 81.715 248.82 82.345 252.145 82.345C257.255 82.345 261.28 81.645 264.15 80.98ZM245.565 65.405L245.18 62.325C249.66 61.415 254.49 60.96 259.075 60.96C260.37 60.96 261.035 60.995 262.26 61.17V66.665C259.565 65.685 256.415 65.02 251.585 65.02C248.33 65.02 246.51 65.265 245.565 65.405ZM276.767 87L276.172 84.06C278.727 84.095 283.102 84.13 287.092 81.96C290.137 80.315 292.132 77.725 292.132 73.595C292.132 67.225 287.372 65.93 284.362 65.93C280.337 65.93 272.917 68.66 269.067 70.445L267.807 66.105C268.787 65.965 270.537 65.72 272.462 65.23C278.097 63.76 282.857 62.535 287.232 62.535C293.672 62.535 298.922 66.035 298.922 73.315C298.922 76.36 297.942 86.65 276.767 87ZM315.61 80.07L317.325 82.38C315.365 85.18 313.51 87.245 310.605 87.245C303.85 87.245 303.85 77.305 303.85 74.995C303.85 71.145 304.13 66.105 305.425 60.12L312.565 61.45C311.9 63.55 310.22 68.8 310.22 75.415C310.22 77.865 310.43 82.345 312.6 82.345C314.07 82.345 315.155 80.77 315.61 80.07ZM332.725 81.12L325.9 83.045C326.11 73.035 325.27 68.17 322.75 63.515L325.375 62.08C330.87 67.995 332.27 74.855 332.725 81.12ZM362.047 84.935L361.347 88.085C356.657 87.945 343.672 87.49 343.672 76.185C343.672 68.24 349.937 64.845 352.842 63.235C346.612 63.41 338.142 64.32 336.952 64.46L336.707 61.45C345.667 60.75 357.917 60.26 366.002 60.19V62.92C364.672 62.885 364.182 62.885 363.692 62.885C360.472 62.885 359.072 63.27 358.372 63.48C354.242 64.74 350.427 68.695 350.427 75.45C350.427 83.71 356.552 85.005 360.122 85.005C360.752 85.005 361.487 84.97 362.047 84.935Z" fill="#237233"/>
<g clip-path="url(#clip0_527_3491)">
<path d="M206.5 130C208.709 130 210.5 128.209 210.5 126C210.5 123.791 208.709 122 206.5 122C204.291 122 202.5 123.791 202.5 126C202.5 128.209 204.291 130 206.5 130Z" fill="#DAE000"/>
<path d="M186.5 130C188.709 130 190.5 128.209 190.5 126C190.5 123.791 188.709 122 186.5 122C184.291 122 182.5 123.791 182.5 126C182.5 128.209 184.291 130 186.5 130Z" fill="#237233"/>
<path d="M227.5 130C229.709 130 231.5 128.209 231.5 126C231.5 123.791 229.709 122 227.5 122C225.291 122 223.5 123.791 223.5 126C223.5 128.209 225.291 130 227.5 130Z" fill="#87C067"/>
</g>
<defs>
<clipPath id="clip0_527_3491">
<rect width="49" height="8" fill="white" transform="translate(182.5 122)"/>
</clipPath>
</defs>
</svg>
