<svg width="492" height="130" viewBox="0 0 492 130" fill="none" xmlns="http://www.w3.org/2000/svg">
<path d="M26.6461 15.64V17.53H9.51609V15.73C7.29609 16.87 5.73609 17.32 4.65609 17.65L3.27609 15.94C8.19609 13.6 11.9161 9.61 13.8361 5.44H22.6561C24.0361 8.95 27.2161 12.79 33.1561 15.85L31.8061 17.71C29.7361 17.02 28.5661 16.54 26.6461 15.64ZM10.1161 15.4H26.1961C23.5861 14.14 20.3461 12.16 18.2161 9.1C17.0761 10.27 14.4361 13.03 10.1161 15.4ZM5.46609 20.86H28.6561V23.08C25.2961 28.81 22.6861 32.08 20.6161 34.54L15.0061 33.01C18.4261 28.81 20.3161 25.6 21.7861 22.99H5.46609V20.86ZM46.1761 29.29L41.8861 33.25C41.0761 31.63 38.9161 27.34 35.2861 23.41L36.8761 21.79C39.9961 23.74 42.4861 25.57 46.1761 29.29ZM68.2732 24.13L66.8632 25.66C65.5732 24.61 64.9132 23.89 63.8932 22.72V33.91H58.7632V24.52C57.5632 26.32 55.9732 27.85 55.2232 28.54L53.9632 26.74C57.3232 21.43 58.3132 16.36 58.6732 14.26H54.5932V12.13H58.7632V5.32H63.8932V12.13H67.9132V14.26H63.9532C64.3732 16.87 65.7232 20.59 68.2732 24.13ZM68.7832 5.32H74.1832V30.52C74.1832 31.45 74.5132 31.54 75.3832 31.54H76.1632C76.8832 31.54 77.2432 30.97 77.3932 30.46C77.6632 29.56 77.9032 28.27 78.0832 25C78.7732 25.33 80.3332 26.05 83.4832 26.74C82.5532 32.53 81.8332 33.64 79.0132 33.64H72.4732C68.9032 33.64 68.7832 31.9 68.7832 29.5V5.32ZM95.3932 21.79H97.2532C96.9232 19.81 96.5932 18.52 95.9932 16.84L97.7332 15.91C99.3532 16.9 100.583 17.83 101.483 18.67V15.82H96.4732V6.04H111.653V15.82H109.403L113.393 17.47C113.303 17.59 112.943 17.92 112.913 17.95C110.723 20.08 110.483 20.32 108.863 21.55L106.583 20.59C107.153 18.91 107.363 17.32 107.543 15.82H106.553V21.79H113.003V23.92H108.743V31.21C108.743 31.51 108.923 31.6 109.043 31.6C109.493 31.6 109.493 31.51 109.493 30.76V27.82C111.053 28.6 112.223 28.84 113.183 28.99C112.853 32.8 112.043 33.7 110.033 33.7H105.863C104.243 33.7 103.613 32.92 103.613 31.21V23.92H102.923C102.773 27.19 102.353 31.9 94.9132 34L93.6232 32.35C97.1332 30.43 97.4632 28.27 97.4632 23.92H95.3932V24.52C95.3932 26.44 95.3932 27.49 93.0832 27.49H92.2732L91.8832 26.14V33.91H88.0432V12.25H87.2932V27.82H84.5332V10.12H87.5632V5.35H92.7532V10.12H95.3932V21.79ZM101.483 9.88H106.553V8.17H101.483V9.88ZM106.553 11.98H101.483V13.69H106.553V11.98ZM97.9732 21.79H101.483V19.9L97.9732 21.79ZM92.7532 12.25H91.8832V25.42C92.3332 25.45 92.5432 25.39 92.6332 25.24C92.7532 25.06 92.7532 24.79 92.7532 24.43V12.25ZM129.983 31.96L129.263 29.59C131.603 28.96 136.823 27.52 136.823 18.94C136.823 12.37 132.983 10.96 131.453 10.39C131.153 13.84 130.583 20.05 129.023 24.61C127.493 29.11 125.303 30.73 122.393 30.73C117.713 30.73 115.223 26.2 115.223 21.31C115.223 14.41 119.903 7.57 129.533 7.57C135.203 7.57 142.433 10.15 142.433 19.33C142.433 29.62 133.493 31.3 129.983 31.96ZM126.053 10.39C124.793 10.87 123.503 11.38 122.063 13.42C120.203 16.09 119.663 19.57 119.663 22.69C119.663 23.62 119.663 27.88 121.643 27.88C123.323 27.88 125.363 21.01 126.053 10.39ZM166.113 8.08L165.123 13.24C161.853 11.86 156.063 10.39 148.563 10.18V7.87C153.363 7.24 156.153 7.24 156.843 7.24C159.963 7.24 163.053 7.51 166.113 8.08ZM149.223 20.56L151.263 21.7C150.423 22.72 149.553 24.04 149.553 25.39C149.553 27.79 152.463 27.79 155.613 27.79C157.923 27.79 161.913 27.7 167.793 26.14V31.24C163.383 31.87 159.453 31.9 158.043 31.9C155.013 31.9 145.983 31.9 145.983 26.62C145.983 23.5 148.203 21.49 149.223 20.56ZM195.217 11.35L192.757 12.58C192.007 9.91 191.107 8.74 190.627 8.11L192.397 7.36C193.507 8.62 194.437 10.06 195.217 11.35ZM198.277 9.88L195.847 11.11C195.367 9.88 194.677 8.41 193.747 7.24L195.457 6.43C196.927 7.87 197.617 8.86 198.277 9.88ZM178.147 13.21V6.1L183.877 6.52C183.517 8.68 183.277 11.14 183.277 13.33C183.277 15.04 183.367 15.76 183.517 16.63C186.937 15.61 188.257 15.25 192.847 13.96L193.627 17.68C191.047 17.92 185.647 18.43 181.447 20.08C180.277 20.53 177.277 21.7 177.277 25.57C177.277 28.93 179.947 30.04 184.957 30.04C189.157 30.04 191.617 29.41 193.237 28.96V32.41C190.117 32.77 186.187 32.77 184.537 32.77C179.497 32.77 171.547 32.62 171.547 26.05C171.547 21.52 175.417 19.81 178.807 18.31C178.507 17.32 178.147 16.06 178.147 13.21ZM216.443 18.97V21.34C214.403 21.49 211.043 21.64 208.913 21.73C208.763 23.2 208.613 24.91 208.613 26.17C208.613 28.96 209.543 30.61 214.043 30.61C216.803 30.61 219.743 29.62 219.743 25.57C219.743 23.29 219.113 21.49 218.693 20.29L220.703 19.42C222.623 22.15 223.703 24.58 223.703 26.59C223.703 28.03 223.193 30.13 220.973 31.57C219.053 32.8 214.433 33.07 212.963 33.07C212.243 33.07 207.263 33.07 204.773 30.73C203.333 29.41 203.213 27.16 203.213 26.08C203.213 24.91 203.363 23.02 203.483 21.94C201.983 22 199.763 22.06 199.043 22.06V19.66C200.843 19.66 201.173 19.66 203.723 19.6C203.723 19.36 204.173 15.25 204.233 14.56C201.713 14.65 200.273 14.65 199.703 14.65V12.34C200.843 12.34 203.183 12.28 204.503 12.25C204.893 8.71 204.983 7.63 205.073 6.19L210.953 6.76C210.713 8.2 210.533 9.22 210.113 12.04C213.203 11.92 214.943 11.83 217.283 11.65V14.02C216.323 14.08 215.123 14.2 209.783 14.38C209.543 16.15 209.483 16.6 209.153 19.39C211.523 19.27 213.803 19.18 216.443 18.97ZM252.204 28.06V32.53C249.804 32.68 244.854 32.71 244.494 32.71C242.004 32.71 236.844 32.68 236.844 28.39C236.844 26.56 237.654 25 238.644 23.68L240.774 24.58C240.234 25.3 239.814 26.26 239.814 27.16C239.814 28.93 241.404 28.93 243.714 28.93C246.894 28.93 250.194 28.6 252.204 28.06ZM252.834 15.55L252.114 20.14C248.904 18.79 245.484 17.68 241.014 17.53L241.134 14.98C242.454 14.95 244.284 14.95 244.494 14.95C246.564 14.95 249.774 15.01 252.834 15.55ZM243.204 10.99V13.33C242.304 13.42 241.344 13.51 237.864 13.69C234.984 22.78 233.334 28.63 232.314 32.53L226.944 31.15C228.594 25.69 230.424 19.66 232.194 13.93C228.864 14.05 228.054 14.05 227.034 14.05V11.65C228.804 11.65 229.914 11.65 232.944 11.56C233.754 8.92 233.844 8.62 234.654 6.1L240.084 7.12C239.634 8.29 239.124 9.79 238.614 11.29C241.074 11.17 241.464 11.14 243.204 10.99ZM255.626 13.75V11.41C257.816 11.38 258.206 11.38 261.356 11.32C261.836 9.82 262.496 7.69 262.826 6.04L268.256 7.09C267.986 7.96 267.776 8.62 266.906 11.14C274.016 10.84 275.126 10.72 276.956 10.51L276.896 12.88C273.056 13.21 268.406 13.39 266.126 13.48C265.736 14.56 264.776 17.29 263.876 19.57C264.776 19.09 266.966 17.92 270.416 17.92C274.976 17.92 279.146 20.11 279.146 24.97C279.146 27.91 277.586 29.8 275.816 30.97C272.906 32.86 267.746 32.8 261.986 32.74L261.356 30.19C262.376 30.28 263.276 30.37 265.106 30.37C266.576 30.37 273.506 30.34 273.506 25.27C273.506 21.97 270.926 20.77 268.346 20.77C263.846 20.77 261.866 24.43 261.236 25.63L256.766 23.83C257.516 22.18 258.476 19.9 260.606 13.66C257.216 13.75 256.556 13.75 255.626 13.75ZM297.18 31.96L296.46 29.59C298.8 28.96 304.02 27.52 304.02 18.94C304.02 12.37 300.18 10.96 298.65 10.39C298.35 13.84 297.78 20.05 296.22 24.61C294.69 29.11 292.5 30.73 289.59 30.73C284.91 30.73 282.42 26.2 282.42 21.31C282.42 14.41 287.1 7.57 296.73 7.57C302.4 7.57 309.63 10.15 309.63 19.33C309.63 29.62 300.69 31.3 297.18 31.96ZM293.25 10.39C291.99 10.87 290.7 11.38 289.26 13.42C287.4 16.09 286.86 19.57 286.86 22.69C286.86 23.62 286.86 27.88 288.84 27.88C290.52 27.88 292.56 21.01 293.25 10.39ZM340.907 31.09L339.437 32.59C337.217 31.39 332.717 28.81 329.177 23.83V33.91H323.687V23.95C321.077 27.76 318.077 30.22 313.607 32.59L312.227 31C316.307 27.43 318.827 22.78 319.787 19.72H312.227V17.59H323.687V12.19H314.477V10.06H323.687V5.32H329.177V10.06H338.627V12.19H329.177V17.59H340.787V19.72H333.227C334.097 22.57 336.797 27.37 340.907 31.09ZM371.177 30.94L369.527 32.35C366.077 30.79 362.297 28.51 359.207 24.64V33.85H353.717V24.58C350.627 28.87 346.907 30.97 343.247 32.5L341.777 31.06C345.467 28.33 348.677 24.22 349.907 20.77H342.287V18.64H347.747C347.507 17.47 346.907 14.83 345.197 11.41L346.247 10.72H343.577V8.62H353.717V5.32H359.207V8.62H369.617V10.72H364.997L368.777 12.25C367.787 14.14 363.347 18.01 362.507 18.64H370.787V20.77H363.167C364.517 24.88 369.197 29.68 371.177 30.94ZM363.107 10.72H359.207V18.64H362.057L360.227 17.62C361.757 14.89 362.717 12.01 363.107 10.72ZM349.097 18.64H353.717V10.72H347.627C348.557 11.53 351.557 14.29 352.997 16.51L349.097 18.64ZM387.737 31.96L387.017 29.59C389.357 28.96 394.577 27.52 394.577 18.94C394.577 12.37 390.737 10.96 389.207 10.39C388.907 13.84 388.337 20.05 386.777 24.61C385.247 29.11 383.057 30.73 380.147 30.73C375.467 30.73 372.977 26.2 372.977 21.31C372.977 14.41 377.657 7.57 387.287 7.57C392.957 7.57 400.187 10.15 400.187 19.33C400.187 29.62 391.247 31.3 387.737 31.96ZM383.807 10.39C382.547 10.87 381.257 11.38 379.817 13.42C377.957 16.09 377.417 19.57 377.417 22.69C377.417 23.62 377.417 27.88 379.397 27.88C381.077 27.88 383.117 21.01 383.807 10.39ZM428.864 28.06V32.53C426.464 32.68 421.514 32.71 421.154 32.71C418.664 32.71 413.504 32.68 413.504 28.39C413.504 26.56 414.314 25 415.304 23.68L417.434 24.58C416.894 25.3 416.474 26.26 416.474 27.16C416.474 28.93 418.064 28.93 420.374 28.93C423.554 28.93 426.854 28.6 428.864 28.06ZM429.494 15.55L428.774 20.14C425.564 18.79 422.144 17.68 417.674 17.53L417.794 14.98C419.114 14.95 420.944 14.95 421.154 14.95C423.224 14.95 426.434 15.01 429.494 15.55ZM419.864 10.99V13.33C418.964 13.42 418.004 13.51 414.524 13.69C411.644 22.78 409.994 28.63 408.974 32.53L403.604 31.15C405.254 25.69 407.084 19.66 408.854 13.93C405.524 14.05 404.714 14.05 403.694 14.05V11.65C405.464 11.65 406.574 11.65 409.604 11.56C410.414 8.92 410.504 8.62 411.314 6.1L416.744 7.12C416.294 8.29 415.784 9.79 415.274 11.29C417.734 11.17 418.124 11.14 419.864 10.99ZM445.992 6.13L451.662 7.54C451.362 9.28 451.122 10.48 450.642 12.37C452.682 13.03 457.992 14.77 457.992 21.76C457.992 26.77 455.082 29.23 453.492 30.22C450.552 32.08 447.222 32.32 444.852 32.5L444.252 30.31C446.712 29.98 452.592 29.23 452.592 21.25C452.592 17.65 451.092 16.24 449.832 15.34C445.572 29.5 441.372 31.57 438.042 31.57C433.872 31.57 432.642 27.64 432.642 24.4C432.642 19.36 435.492 16.51 436.662 15.34C436.242 12.76 436.092 11.11 435.912 8.5L440.892 7.99C440.922 9.7 440.952 10.87 441.042 12.64C442.572 12.1 443.622 11.89 445.332 11.8C445.692 9.4 445.842 8.17 445.992 6.13ZM437.502 19.36C437.052 20.29 436.212 22.12 436.212 25.33C436.212 25.99 436.212 28.81 437.772 28.81C438.912 28.81 439.902 27.31 440.412 26.56C439.002 24.28 438.312 22.33 437.502 19.36ZM442.602 22.09C443.802 18.82 444.372 16.54 444.852 14.26C443.532 14.41 442.632 14.65 441.252 15.34C441.582 18.07 441.882 19.78 442.602 22.09ZM468.37 31.36L463.15 31.99C462.85 29.44 462.61 26.95 462.61 21.19C462.61 12.4 463.18 9.01 463.48 6.97L468.7 7.63C468.37 9.16 467.74 12.19 467.74 20.86C467.74 26.68 468.07 29.26 468.37 31.36ZM486.91 25.84V30.52C484.42 30.76 481.75 30.91 479.23 30.91C472.6 30.91 469.96 30.16 469.96 26.68C469.96 26.14 469.96 24.04 472.03 21.67L474.01 22.69C473.56 23.38 473.05 24.16 473.05 25.24C473.05 26.47 473.77 27.01 476.62 27.01C481 27.01 484.45 26.41 486.91 25.84ZM470.98 12.49L470.65 9.85C474.49 9.07 478.63 8.68 482.56 8.68C483.67 8.68 484.24 8.71 485.29 8.86V13.57C482.98 12.73 480.28 12.16 476.14 12.16C473.35 12.16 471.79 12.37 470.98 12.49ZM32.3944 50.846L40.4164 51.224C39.9544 53.366 39.5764 55.214 39.1564 57.566C43.7764 57.398 48.7744 57.188 52.5964 56.726V60.086C48.9424 60.338 44.8264 60.506 38.6524 60.758C38.3584 62.564 38.2744 63.362 38.0644 65.126C38.8624 65.084 39.7024 65 41.1724 65C45.5824 65 55.6624 66.428 55.6624 76.34C55.6624 87.512 43.7344 88.436 38.8624 88.814L37.9384 85.622C40.9204 85.328 47.8084 84.698 47.8084 76.256C47.8084 72.308 46.1284 70.67 45.2464 69.788C44.4484 72.728 43.1464 77.432 39.3664 81.842C36.0484 85.664 31.8484 87.638 27.7324 87.638C22.9024 87.638 21.4324 84.488 21.4324 80.372C21.4324 71.552 28.4884 68.192 31.0924 66.974C31.1344 65.672 31.1764 63.446 31.3444 61.052C29.1604 61.136 23.6584 61.304 21.8104 61.304V58.028C24.6244 58.028 28.7404 57.944 31.5544 57.86C31.8064 55.508 31.9324 54.122 32.3944 50.846ZM37.7704 77.306C39.8284 73.946 40.5424 71.342 41.2564 67.982C40.9204 67.94 40.5004 67.898 39.8704 67.898C39.3664 67.898 38.9464 67.94 37.8124 68.15C37.7284 69.536 37.6444 71.006 37.6444 73.106C37.6444 74.828 37.7284 76.046 37.7704 77.306ZM31.1344 71.972C30.2524 72.938 27.7324 75.668 27.7324 80.456C27.7324 81.884 28.0264 83.312 29.5384 83.312C29.7064 83.312 30.6724 83.312 32.1004 82.64C31.7644 80.498 31.3444 77.852 31.1344 71.972ZM81.5698 64.58L88.7518 65.042C88.6678 70.796 88.7938 75.626 88.8778 78.314C91.7338 79.196 93.9178 80.12 97.3198 81.842L92.9938 87.008C91.5658 85.412 90.6418 84.698 89.0878 83.522C88.8778 85.034 88.4158 88.688 79.5538 88.688C78.4198 88.688 70.3978 88.646 70.3978 82.934C70.3978 79.238 74.3458 76.676 79.4698 76.676C80.4358 76.676 81.2338 76.76 81.9478 76.802C81.8218 74.786 81.5698 70.124 81.5698 64.58ZM82.1578 80.288C81.5278 80.162 80.7718 79.994 80.1838 79.994C78.4618 79.994 76.4038 80.456 76.4038 82.598C76.4038 84.572 77.7898 85.202 79.3438 85.202C81.0658 85.202 82.3678 84.278 82.3678 83.144C82.3678 82.724 82.1998 80.75 82.1578 80.288ZM97.7818 60.59L94.5058 65.882C92.5738 64.412 88.8778 61.64 82.7038 59.288L84.6358 56.6C89.0038 57.608 93.6238 59.036 97.7818 60.59ZM61.6618 62.438V58.826C62.7538 58.91 64.6438 58.994 67.6258 58.994C68.7178 56.054 69.3898 54.29 70.6078 51.266L77.4538 52.568C76.4878 54.71 76.0258 55.676 74.8498 58.574C78.4618 58.196 79.6798 57.986 80.6458 57.818L80.7718 61.388C78.1678 61.682 76.8658 61.808 73.4638 62.018C71.1958 68.108 68.6758 75.122 67.1638 82.598L60.0658 80.666C61.9138 74.912 63.8458 69.452 66.3658 62.354C63.9298 62.438 63.4258 62.438 61.6618 62.438ZM136.868 81.884V88.142C133.508 88.352 126.578 88.394 126.074 88.394C122.588 88.394 115.364 88.352 115.364 82.346C115.364 79.784 116.498 77.6 117.884 75.752L120.866 77.012C120.11 78.02 119.522 79.364 119.522 80.624C119.522 83.102 121.748 83.102 124.982 83.102C129.434 83.102 134.054 82.64 136.868 81.884ZM137.75 64.37L136.742 70.796C132.248 68.906 127.46 67.352 121.202 67.142L121.37 63.572C123.218 63.53 125.78 63.53 126.074 63.53C128.972 63.53 133.466 63.614 137.75 64.37ZM124.268 57.986V61.262C123.008 61.388 121.664 61.514 116.792 61.766C112.76 74.492 110.45 82.682 109.022 88.142L101.504 86.21C103.814 78.566 106.376 70.124 108.854 62.102C104.192 62.27 103.058 62.27 101.63 62.27V58.91C104.108 58.91 105.662 58.91 109.904 58.784C111.038 55.088 111.164 54.668 112.298 51.14L119.9 52.568C119.27 54.206 118.556 56.306 117.842 58.406C121.286 58.238 121.832 58.196 124.268 57.986ZM162.511 87.344L161.503 84.026C164.779 83.144 172.087 81.128 172.087 69.116C172.087 59.918 166.711 57.944 164.569 57.146C164.149 61.976 163.351 70.67 161.167 77.054C159.025 83.354 155.959 85.622 151.885 85.622C145.333 85.622 141.847 79.28 141.847 72.434C141.847 62.774 148.399 53.198 161.881 53.198C169.819 53.198 179.941 56.81 179.941 69.662C179.941 84.068 167.425 86.42 162.511 87.344ZM157.009 57.146C155.245 57.818 153.439 58.532 151.423 61.388C148.819 65.126 148.063 69.998 148.063 74.366C148.063 75.668 148.063 81.632 150.835 81.632C153.187 81.632 156.043 72.014 157.009 57.146ZM207.516 55.928H223.56V58.91H207.516V65.378H218.646C218.1 72.644 213.438 78.398 208.692 81.926C215.202 85.496 221.418 86.672 224.232 87.176L222.468 90.032C215.706 88.982 209.658 87.68 203.652 84.95C202.224 85.622 195.336 89.108 184.458 90.2L182.946 87.386C188.49 86.462 193.782 84.824 198.612 82.01C194.244 78.734 191.178 74.954 189.708 69.914L196.134 68.318H185.718V65.378H199.662V58.91H183.66V55.928H199.662V50.09H207.516V55.928ZM209.112 68.318H197.772C198.528 72.476 200.208 75.416 203.484 78.356C208.062 73.904 208.818 69.788 209.112 68.318ZM259.806 62.984H263.964V65.798H251.406V68.99H265.602V71.804H251.28C251.154 72.896 251.028 73.61 250.86 74.24H263.964C263.418 77.726 262.284 81.086 258.63 84.446C262.158 86.882 264.72 87.386 266.484 87.722L265.056 90.326C263.04 90.116 258.63 89.57 254.262 87.386C253.296 87.89 249.642 89.822 244.602 90.326L243.09 87.89C244.266 87.638 246.66 87.092 250.188 84.656C249.18 83.774 248.424 82.892 247.668 81.716C244.266 87.008 239.982 89.192 238.386 89.99L236.37 87.848C241.158 83.942 243.342 77.558 243.594 71.804H239.1V68.99H243.636V65.798H240.15V62.984H242.208C242.166 62.648 241.662 59.624 240.486 56.978L243.636 55.466C245.316 56.852 246.534 58.112 249.054 60.884L244.812 62.984H249.642C249.474 62.27 248.844 59.372 247.5 56.516L250.062 55.214C248.508 55.256 241.578 55.424 240.15 55.424L238.932 52.484C245.988 52.484 251.616 52.19 259.008 50.426C260.856 50.006 261.234 49.838 261.696 49.586L264.72 53.912C264.762 54.248 260.604 54.626 258.84 54.794L265.728 56.81C265.686 57.104 262.62 60.674 259.806 62.984ZM251.07 62.984H258.798L256.152 62.228C256.32 61.598 256.446 61.094 256.656 60.086L251.07 62.984ZM255.102 77.138H249.978C249.852 77.516 249.642 78.104 248.97 79.448L252.708 77.18C252.96 77.768 253.422 78.776 254.22 79.994C254.892 78.566 254.976 77.894 255.102 77.138ZM235.95 58.7H238.974V61.598H235.95V69.284C236.538 69.074 236.706 68.99 237.798 68.528L238.638 71.3C238.344 71.51 236.496 72.644 235.95 72.938V84.488C235.95 86.924 235.95 89.78 231.582 89.78H225.996L225.408 86.42C225.87 86.504 226.626 86.672 227.424 86.672C228.558 86.672 228.558 86.378 228.558 84.908V77.18C228.138 77.39 226.206 78.398 226.08 78.44L224.988 72.854C225.912 72.644 226.164 72.56 228.558 71.846V61.598H225.702V58.7H228.558V50.048H235.95V58.7ZM256.782 59.498C256.95 58.616 257.328 56.39 257.37 54.92C255.186 55.088 252.624 55.172 250.902 55.172C251.07 55.256 252.204 56.138 256.782 59.498ZM306.342 67.394L299.37 72.35C298.824 67.982 297.354 62.186 294.456 57.65L297.732 55.214C300.504 58.112 303.948 62.69 306.342 67.394ZM305.544 56.348L302.646 58.658C301.428 56.726 299.664 54.668 298.278 53.324L300.336 51.686C302.226 53.03 303.948 54.584 305.544 56.348ZM268.794 66.806L267.954 63.026C271.062 62.018 273.162 61.472 276.186 60.926C277.068 58.406 278.538 54.122 279.714 51.056L286.434 53.24C285.888 54.626 285.468 55.886 284.082 60.044C285.132 59.96 286.392 59.96 287.106 59.96C293.28 59.96 295.59 62.648 295.59 69.662C295.59 74.114 294.96 80.078 293.28 83.69C292.734 84.908 290.886 88.478 286.854 88.478C283.914 88.478 280.47 86.63 278.538 85.58L279.714 81.884C281.52 83.312 283.032 84.152 283.788 84.152C284.712 84.152 285.174 83.312 285.552 82.598C286.644 80.54 288.366 75.92 288.366 68.066C288.366 63.908 287.778 62.9 285.09 62.9C284.628 62.9 283.83 62.942 283.116 63.026C280.89 69.872 278.538 77.18 275.094 88.604L267.744 85.958C270.054 78.818 272.49 71.72 274.926 64.622C273.414 65.042 271.23 65.672 268.794 66.806ZM309.114 53.324L306.3 55.634C305.208 54.08 303.78 52.484 302.184 51.224L304.368 49.46C305.922 50.468 307.728 51.896 309.114 53.324ZM337.38 50.216L345.78 52.82C345.612 53.408 342.798 60.17 340.152 64.958L342 63.824C343.764 66.092 346.956 70.334 350.106 77.768L344.142 80.834C342.63 88.856 340.152 89.738 335.784 89.738H324.822C323.184 89.738 320.664 89.738 319.782 86.336C316.086 88.394 313.356 89.444 311.424 90.116L309.324 87.848C313.104 86.168 316.422 84.404 319.53 81.926V59.54H327.384V73.4C328.728 71.426 332.508 65.756 335.994 55.508L330.786 60.674C328.56 58.322 325.242 55.172 318.732 51.812L320.664 49.754C326.082 50.51 331.5 52.064 336.246 54.668C336.918 52.442 337.086 51.686 337.38 50.216ZM327.384 81.086V84.026C327.384 85.496 327.468 86.798 329.652 86.798H333.138C336.036 86.798 336.498 86.336 337.464 77.558C338.346 78.02 339.606 78.692 341.832 79.364C341.706 77.936 341.076 71.048 339.48 66.134C335.196 73.82 331.374 77.852 327.384 81.086ZM314.658 62.48L317.808 63.32C317.808 71.342 317.43 75.5 315.582 83.522L308.946 79.868C311.13 75.878 313.776 69.368 314.658 62.48ZM390.426 85.496L385.428 90.662C381.396 88.52 379.002 87.386 375.726 86.294C369.762 89.192 360.186 90.074 353.592 89.99L352.164 86.84C358.926 86.798 364.512 85.622 368.082 84.152C359.766 82.43 355.944 82.388 352.71 82.43C354.306 81.128 356.574 79.28 359.682 76.088H351.66V73.106H362.37C363.714 71.51 364.302 70.628 364.806 69.83H353.424V57.734H362.538V54.5H351.66V51.518H391.56V54.5H380.22V57.734H389.796V69.83H370.644L374.592 70.334C373.836 71.258 373.374 71.846 372.156 73.106H391.56V76.088H384.966C383.664 79.658 381.774 81.548 380.64 82.682C381.354 82.85 385.89 83.9 390.426 85.496ZM370.518 60.716V66.848H372.492V60.716H370.518ZM372.492 57.734V54.5H370.518V57.734H372.492ZM362.538 66.848V60.716H360.648V66.848H362.538ZM380.22 60.716V66.848H382.152V60.716H380.22ZM375.936 76.088H369.216C367.284 77.936 366.024 78.986 364.68 80.12C365.898 80.204 368.166 80.372 372.744 81.128C374.172 79.7 375.138 77.978 375.936 76.088ZM429.84 67.352L426.69 69.326C426.018 67.646 424.632 65.21 422.994 63.446L425.22 62.102C427.068 63.614 428.622 65.336 429.84 67.352ZM433.914 64.79L430.722 66.764C430.176 65.63 429 63.446 427.278 61.724L429.462 60.338C432.108 62.312 433.2 63.824 433.914 64.79ZM425.262 83.606L424.422 87.386C418.626 87.176 403.254 86.63 403.254 73.064C403.254 63.572 410.73 59.456 414.216 57.566C407.412 57.734 398.424 58.658 395.148 59.036L394.854 55.424C410.184 54.206 425.892 53.912 430.05 53.87V57.188C428.412 57.146 427.824 57.104 427.278 57.104C423.372 57.104 421.692 57.608 420.852 57.86C415.896 59.372 411.318 64.076 411.318 72.224C411.318 82.136 418.71 83.69 422.952 83.69C423.708 83.69 424.59 83.648 425.262 83.606ZM434.886 61.052V57.776C439.968 57.314 447.822 56.978 453.534 56.768C453.366 53.744 453.366 53.408 453.114 50.426L461.136 51.014C461.136 53.87 461.178 55.466 461.178 56.558C465.042 56.474 467.436 56.39 470.922 56.39V59.708C468.402 59.708 466.68 59.708 461.262 59.834C461.304 61.934 461.472 70.586 461.472 72.14C461.472 85.958 450.3 88.688 444.042 89.696L442.656 86.756C451.434 84.992 452.946 80.624 453.912 78.02C451.518 80.456 448.41 80.456 448.074 80.456C446.226 80.456 441.144 79.742 441.144 71.762C441.144 67.016 443.328 62.102 448.914 62.102C451.518 62.102 452.904 63.11 453.786 63.74C453.786 62.354 453.702 60.59 453.702 60.002C449.46 60.17 440.094 60.506 434.886 61.052ZM450.72 66.008C447.78 66.008 447.612 69.872 447.612 71.048C447.612 71.636 447.696 75.752 450.678 75.752C452.526 75.752 453.954 74.072 453.954 70.88C453.954 68.738 453.072 66.008 450.72 66.008Z" fill="#237233"/>
<g clip-path="url(#clip0_527_3198)">
<path d="M245.5 130C247.709 130 249.5 128.209 249.5 126C249.5 123.791 247.709 122 245.5 122C243.291 122 241.5 123.791 241.5 126C241.5 128.209 243.291 130 245.5 130Z" fill="#DAE000"/>
<path d="M225.5 130C227.709 130 229.5 128.209 229.5 126C229.5 123.791 227.709 122 225.5 122C223.291 122 221.5 123.791 221.5 126C221.5 128.209 223.291 130 225.5 130Z" fill="#237233"/>
<path d="M266.5 130C268.709 130 270.5 128.209 270.5 126C270.5 123.791 268.709 122 266.5 122C264.291 122 262.5 123.791 262.5 126C262.5 128.209 264.291 130 266.5 130Z" fill="#87C067"/>
</g>
<defs>
<clipPath id="clip0_527_3198">
<rect width="49" height="8" fill="white" transform="translate(221.5 122)"/>
</clipPath>
</defs>
</svg>
