<svg width="708" height="252" viewBox="0 0 708 252" fill="none" xmlns="http://www.w3.org/2000/svg">
<path d="M186.567 9.358H218.823V46.612H210.843V44.344H194.211V46.612H186.567V9.358ZM210.843 24.94V12.34H194.211V24.94H210.843ZM210.843 41.404V27.922H194.211V41.404H210.843ZM264.904 39.808L262.846 42.034C261.418 41.152 258.856 39.598 255.538 36.448V38.128H248.104V46.99H240.292V38.128H233.026V36.616C230.002 39.43 227.23 41.152 225.718 42.118L223.618 39.766C229.708 34.096 234.37 24.688 235.63 17.716H224.374V14.734H240.292V7.09H248.104V14.734H264.358V17.716H252.85C254.11 24.562 259.276 34.642 264.904 39.808ZM248.104 35.188H254.278C252.85 33.718 250.33 30.82 248.104 26.998V35.188ZM240.292 35.188V26.998C239.704 28.09 237.73 31.87 234.496 35.188H240.292ZM285.988 22.042V12.508H282.418V9.526H305.392C305.266 25.696 304.762 39.22 302.41 43.546C300.898 46.402 298.504 46.654 295.018 46.654H288.004L286.996 43.63C289.348 44.008 291.154 44.008 291.448 44.008C293.968 44.008 295.06 42.79 295.69 39.766C297.286 32.122 297.454 20.488 297.412 12.508H293.548V20.236C293.548 29.938 292.162 39.052 281.326 46.738L278.806 44.596C281.704 41.992 283.384 38.38 284.476 34.642C285.526 31.072 285.61 29.476 285.946 23.638C284.518 24.688 283.09 25.78 281.578 26.662L279.268 24.856C281.2 22.504 282.292 20.068 282.67 19.144L285.988 22.042ZM284.518 32.038L282.292 34.516C281.242 33.844 279.436 32.374 278.092 31.24V47.326H270.826V32.584C269.482 33.676 268.642 34.264 267.76 34.852L265.66 32.458C270.28 27.796 273.094 22.126 274.102 17.422H266.416V14.44H271.162V7.132H278.218V14.44H283.048C282.586 16.078 281.62 19.48 278.344 24.436C278.638 24.898 281.242 29.14 284.518 32.038ZM330.004 44.344L328.996 41.026C332.272 40.144 339.58 38.128 339.58 26.116C339.58 16.918 334.204 14.944 332.062 14.146C331.642 18.976 330.844 27.67 328.66 34.054C326.518 40.354 323.452 42.622 319.378 42.622C312.826 42.622 309.34 36.28 309.34 29.434C309.34 19.774 315.892 10.198 329.374 10.198C337.312 10.198 347.434 13.81 347.434 26.662C347.434 41.068 334.918 43.42 330.004 44.344ZM324.502 14.146C322.738 14.818 320.932 15.532 318.916 18.388C316.312 22.126 315.556 26.998 315.556 31.366C315.556 32.668 315.556 38.632 318.328 38.632C320.68 38.632 323.536 29.014 324.502 14.146ZM370.768 15.952L378.454 15.112C378.454 19.648 378.622 25.276 380.596 30.862C382.024 26.284 382.444 21.958 382.612 14.104H372.406V11.122H390.718C390.55 24.184 388.114 31.282 383.662 37.036C385.384 39.598 387.484 41.95 391.474 44.596L389.5 46.696C385.342 44.554 382.99 42.664 380.512 40.396C377.152 43.504 373.54 45.52 371.818 46.486L370.18 44.512V46.906H362.62V38.842C359.806 40.102 354.052 42.454 352.204 43.126L350.398 37.96C351.196 37.834 352.12 37.708 352.876 37.54V11.752H351.154V8.77H371.44V11.752H370.18V44.05C374.548 41.11 376.648 38.212 377.446 37.162C375.514 34.726 373.624 31.45 372.28 25.906C371.104 21.202 370.894 17.548 370.768 15.952ZM362.62 26.368V20.53H360.226V26.368H362.62ZM362.62 17.548V11.752H360.226V17.548H362.62ZM362.62 35.524V29.308H360.226V36.112C360.814 35.944 361.318 35.86 362.62 35.524ZM406.965 27.544L409.401 30.19C405.873 35.104 403.731 36.994 400.875 36.994C397.221 36.994 395.751 34.096 395.751 25.654C395.751 23.008 396.003 15.952 396.969 8.854L404.739 9.778C404.109 13.348 403.353 18.934 403.353 25.612C403.353 28.72 403.479 29.014 403.689 29.35C403.815 29.602 404.025 29.728 404.361 29.728C405.495 29.728 406.545 28.216 406.965 27.544ZM423.933 15.238V27.124C423.933 42.286 413.307 44.638 404.529 46.108L403.143 43.042C408.897 41.95 416.457 40.186 416.457 28.552V19.942C416.457 18.43 416.373 12.676 415.995 8.224L423.807 8.896C423.891 10.03 423.933 12.298 423.933 15.238ZM448.155 27.376V8.392H467.013V43H468.819V45.982H443.157V43H448.155V40.018L442.611 42.034C442.611 38.8 442.317 34.894 441.981 32.542L443.157 32.08C442.821 30.232 442.779 30.022 442.485 28.51C442.401 28.51 441.477 28.72 441.351 28.762V46.99H434.505V36.994C433.497 40.228 432.237 42.958 430.473 45.814L427.953 44.974C429.549 38.296 429.171 32.752 429.129 32.206L434.505 33.34V30.19C433.665 30.358 430.053 31.072 429.339 31.198L428.247 25.906C428.793 25.906 431.103 25.948 431.565 25.948C432.405 24.772 433.581 22.924 434.211 22C433.581 21.034 431.817 18.304 428.415 14.398L430.053 12.298C431.103 12.97 431.607 13.264 432.405 13.81C433.539 10.66 433.875 8.056 434.001 6.712L440.889 8.644C441.057 8.686 438.117 12.844 435.219 15.868C435.933 16.414 436.437 16.834 436.983 17.296C437.361 16.624 438.747 14.23 439.629 11.71L446.685 14.356C446.937 14.44 441.855 20.446 436.101 25.864C436.731 25.822 439.881 25.654 441.771 25.57C441.393 24.016 441.099 23.26 440.763 22.336L443.073 21.202C444.963 23.302 446.181 24.772 448.155 27.376ZM459.915 22.378H455.379V30.4H459.915V22.378ZM459.915 33.382H455.379V43H459.915V33.382ZM459.915 11.374H455.379V19.396H459.915V11.374ZM448.155 37.792V30.232L444.249 31.702C446.475 34.978 447.105 35.902 448.155 37.792ZM478.437 12.634L478.269 9.19C484.191 9.274 489.651 8.686 493.641 7.93L495.573 10.408C494.355 14.608 493.431 17.884 491.625 23.092C494.061 23.596 495.531 23.974 498.345 24.94C499.101 20.782 499.437 18.262 499.815 14.314L507.669 16.12C507.081 19.564 506.535 22.756 505.275 27.67C507.375 28.636 508.299 29.056 510.777 30.358L507.501 37.624C506.199 36.07 505.359 35.23 503.427 33.592C501.201 39.808 498.807 43.63 487.635 46.57L485.955 43.546C492.591 41.362 494.733 39.85 497.379 29.476C494.859 28.174 493.095 27.418 490.365 26.662C487.635 33.676 484.401 42.076 476.463 42.076C471.969 42.076 471.171 38.842 471.171 35.902C471.171 31.828 472.851 27.46 476.673 24.814C479.613 22.756 482.133 22.546 484.275 22.378C486.417 15.868 486.753 13.684 487.005 11.92C485.703 12.088 482.091 12.592 478.437 12.634ZM482.973 26.032C481.923 26.158 480.747 26.326 479.445 27.586C477.513 29.476 474.867 34.054 474.867 36.826C474.867 37.498 475.161 38.128 475.917 38.128C478.185 38.128 481.419 30.064 482.973 26.032ZM516.479 32.962L514.967 9.274H523.619L522.107 32.962H516.479ZM515.639 43V35.482H522.947V43H515.639ZM20.2352 68.054H37.9172V102.032H30.0632V99.764H12.0032V102.032H4.31719V68.054H13.9352C14.8592 65.912 15.5312 63.728 16.0352 61.46L25.2332 63.056C24.9812 63.35 24.5612 63.77 24.3932 63.98C23.0912 65.45 21.6632 66.752 20.2352 68.054ZM30.0632 86.618V80.234H12.0032V86.618H30.0632ZM12.0032 71.036V77.252H30.0632V71.036H12.0032ZM30.0632 96.824V89.558H12.0032V96.824H30.0632ZM66.1832 69.272V62.09H73.9532V63.266L76.0532 62.006C77.7332 62.93 80.7992 64.862 83.2352 67.802L77.8172 70.868H82.9832V73.85H74.8352C76.9352 80.528 79.1612 83.804 83.4032 87.206L81.1772 89.516C79.5392 88.76 75.0872 86.66 70.4252 80.36C66.4772 85.652 59.9252 88.172 57.4892 89.096L55.3052 87.038C64.3352 81.62 65.3852 76.034 65.8052 73.85H61.6052C57.2792 83.468 49.0472 87.668 44.8472 89.768L42.9992 87.416C46.6532 84.854 47.9132 83.72 49.5512 81.83C48.6692 80.024 47.6612 78.176 46.3172 76.538C45.6872 77.084 45.3512 77.378 44.5112 78.008L42.5792 75.74C44.4692 73.346 46.2332 70.406 47.7452 64.316C48.2492 62.216 48.2912 61.964 48.3752 61.46L56.1872 63.14C55.9772 63.644 55.5152 64.694 55.3052 65.24H63.6632C63.6212 66.542 63.5372 68.054 62.7392 70.868H66.0992C66.1412 70.532 66.1832 69.818 66.1832 69.272ZM73.9532 64.484V66.458C73.9532 67.676 73.7852 69.986 73.7012 70.868H76.2632C75.8852 68.726 75.0452 66.332 73.9532 64.484ZM55.8932 68.18H53.7512C53.3312 68.852 53.0372 69.398 52.5332 70.07C53.6252 70.364 54.5492 70.658 55.3472 70.952C55.6412 69.65 55.7672 69.062 55.8932 68.18ZM52.9532 76.874C53.1632 76.454 53.2892 76.244 53.4572 75.95C53.0792 75.404 52.1552 73.892 50.6012 72.506C50.1812 73.01 49.6772 73.556 48.5432 74.648C49.4252 75.026 51.4832 75.908 52.9532 76.874ZM50.0972 102.242L42.5792 99.722C43.6292 98.63 47.3672 94.85 49.8032 89.138L52.7852 90.104C52.1552 94.766 51.6932 97.496 50.0972 102.242ZM62.4872 101.192L54.6752 102.41C54.8012 101.402 54.9692 99.47 54.9692 95.648C54.9692 92.582 54.8012 91.406 54.7172 90.566L57.7832 90.02C59.6732 93.002 61.8572 98.798 62.4872 101.192ZM73.0292 100.856L64.7972 102.326C64.5452 97.664 63.8312 92.876 62.8232 90.146L66.2672 89.558C68.8292 92.834 69.7532 94.388 73.0292 100.856ZM83.2352 99.89L75.2552 102.284C75.0032 98.84 74.0792 93.884 72.7772 89.894L75.9272 88.97C79.0772 92.624 80.6312 95.144 83.2352 99.89ZM104.067 64.484H105.915V62.09H112.341V64.484H121.539V79.1H88.6112V64.484H97.7252V62.09H104.067V64.484ZM104.067 70.364H105.915V67.466H104.067V70.364ZM105.915 73.01H104.067V76.118H105.915V73.01ZM97.7252 73.01H95.9612V76.118H97.7252V73.01ZM95.9612 70.364H97.7252V67.466H95.9612V70.364ZM112.341 70.364H114.147V67.466H112.341V70.364ZM114.147 73.01H112.341V76.118H114.147V73.01ZM113.349 93.422L118.557 94.934C117.717 95.48 116.289 96.32 113.223 97.58H125.025V100.562H85.0412V97.58H95.5832C94.8272 96.152 94.0292 95.06 93.0632 94.01L93.8612 93.422H89.6192V84.266H120.405V93.422H113.349ZM108.015 97.58L106.461 96.95C107.385 95.564 108.183 93.884 108.393 93.422H98.6912C101.505 94.472 102.765 95.102 104.403 96.152L101.001 97.58H108.015ZM112.761 87.248H97.3052V90.482H112.761V87.248ZM86.0072 80.192H124.269V83.174H86.0072V80.192ZM167.109 79.394L160.095 84.35C159.381 78.428 157.953 73.682 155.391 69.524L158.373 67.34C161.943 70.91 164.505 74.396 167.109 79.394ZM129.393 78.806L128.511 75.026C131.619 74.018 133.761 73.472 136.785 72.926C137.667 70.406 139.137 66.122 140.313 63.056L146.991 65.24C146.487 66.626 146.067 67.886 144.681 72.044C145.731 71.96 146.991 71.96 147.705 71.96C153.879 71.96 156.189 74.648 156.189 81.662C156.189 86.114 155.517 92.078 153.837 95.69C153.291 96.908 151.485 100.478 147.453 100.478C144.471 100.478 141.069 98.63 139.137 97.58L140.313 93.884C142.119 95.312 143.631 96.152 144.387 96.152C145.311 96.152 145.773 95.312 146.151 94.598C147.201 92.54 148.965 87.92 148.965 80.066C148.965 75.908 148.377 74.9 145.689 74.9C145.227 74.9 144.429 74.942 143.715 75.026C140.985 83.384 138.675 90.608 135.693 100.604L128.343 97.958C130.191 92.204 132.249 86.156 135.525 76.622C134.013 77.042 131.829 77.672 129.393 78.806ZM191.518 76.58L198.7 77.042C198.616 82.796 198.742 87.626 198.826 90.314C201.682 91.196 203.866 92.12 207.268 93.842L202.942 99.008C201.514 97.412 200.59 96.698 199.036 95.522C198.826 97.034 198.364 100.688 189.502 100.688C188.368 100.688 180.346 100.646 180.346 94.934C180.346 91.238 184.294 88.676 189.418 88.676C190.384 88.676 191.182 88.76 191.896 88.802C191.77 86.786 191.518 82.124 191.518 76.58ZM192.106 92.288C191.476 92.162 190.72 91.994 190.132 91.994C188.41 91.994 186.352 92.456 186.352 94.598C186.352 96.572 187.738 97.202 189.292 97.202C191.014 97.202 192.316 96.278 192.316 95.144C192.316 94.724 192.148 92.75 192.106 92.288ZM207.73 72.59L204.454 77.882C202.522 76.412 198.826 73.64 192.652 71.288L194.584 68.6C198.952 69.608 203.572 71.036 207.73 72.59ZM171.61 74.438V70.826C172.702 70.91 174.592 70.994 177.574 70.994C178.666 68.054 179.338 66.29 180.556 63.266L187.402 64.568C186.436 66.71 185.974 67.676 184.798 70.574C188.41 70.196 189.628 69.986 190.594 69.818L190.72 73.388C188.116 73.682 186.814 73.808 183.412 74.018C181.144 80.108 178.624 87.122 177.112 94.598L170.014 92.666C171.862 86.912 173.794 81.452 176.314 74.354C173.878 74.438 173.374 74.438 171.61 74.438ZM237.604 98.084H250.33V101.024H215.932V98.084H220.174V87.668H227.314V98.084H230.044V85.568H224.71V79.394C223.66 80.906 222.442 82.334 221.182 83.678L219.502 82.166C219.25 87.122 218.074 93.296 212.026 101.234L209.338 99.47C211.942 92.12 211.942 85.316 211.942 79.268V63.35H250.33V66.332H219.544V78.428C219.544 80.024 219.544 80.402 219.502 81.242C220.804 79.142 221.938 76.16 222.4 74.018H220.3V71.036H224.71V67.256H231.052V71.036H234.244V74.018H232.396C232.648 74.564 233.32 75.866 234.664 77.63L232.564 79.814C232.144 79.394 231.85 79.1 231.052 78.092V84.812H237.604V89.39H247.726V92.372H237.604V98.084ZM251.296 82.082L249.07 84.182C248.398 83.594 247.054 82.25 245.332 79.478V85.568H239.032V79.016C236.89 82.04 235.462 83.258 234.454 84.056L232.354 82.124C233.152 81.116 235.21 78.47 236.512 74.018H235.336V71.036H239.032V67.256H245.332V71.036H250.33V74.018H247.978C248.062 74.732 248.566 77.924 251.296 82.082ZM268.432 68.096V62.09H276.16V68.096H290.146V84.434H275.992C275.446 89.852 274.102 92.162 272.926 93.758C277.63 96.488 284.728 98.756 292.582 99.68L291.364 102.368C283.048 102.032 274.9 100.268 268.684 97.412C265.744 99.176 261.502 101.108 253.018 102.2L251.632 99.512C258.52 98.126 262.006 95.606 263.476 94.388C259.192 91.28 257.638 88.088 256.84 86.282L264.862 85.064C265.282 86.114 265.828 87.458 267.34 89.222C267.718 88.256 268.054 87.206 268.348 84.434H254.488V68.096H268.432ZM268.432 71.078H261.796V81.452H268.432V71.078ZM276.16 71.078V81.452H282.796V71.078H276.16ZM306.446 62.846L314.468 63.224C314.006 65.366 313.628 67.214 313.208 69.566C317.828 69.398 322.826 69.188 326.648 68.726V72.086C322.994 72.338 318.878 72.506 312.704 72.758C312.41 74.564 312.326 75.362 312.116 77.126C312.914 77.084 313.754 77 315.224 77C319.634 77 329.714 78.428 329.714 88.34C329.714 99.512 317.786 100.436 312.914 100.814L311.99 97.622C314.972 97.328 321.86 96.698 321.86 88.256C321.86 84.308 320.18 82.67 319.298 81.788C318.5 84.728 317.198 89.432 313.418 93.842C310.1 97.664 305.9 99.638 301.784 99.638C296.954 99.638 295.484 96.488 295.484 92.372C295.484 83.552 302.54 80.192 305.144 78.974C305.186 77.672 305.228 75.446 305.396 73.052C303.212 73.136 297.71 73.304 295.862 73.304V70.028C298.676 70.028 302.792 69.944 305.606 69.86C305.858 67.508 305.984 66.122 306.446 62.846ZM311.822 89.306C313.88 85.946 314.594 83.342 315.308 79.982C314.972 79.94 314.552 79.898 313.922 79.898C313.418 79.898 312.998 79.94 311.864 80.15C311.78 81.536 311.696 83.006 311.696 85.106C311.696 86.828 311.78 88.046 311.822 89.306ZM305.186 83.972C304.304 84.938 301.784 87.668 301.784 92.456C301.784 93.884 302.078 95.312 303.59 95.312C303.758 95.312 304.724 95.312 306.152 94.64C305.816 92.498 305.396 89.852 305.186 83.972ZM340.719 68.096L340.593 64.358C345.843 64.358 354.789 64.19 362.433 63.728L364.407 66.836C361.215 69.44 355.965 73.934 352.521 77.126C354.033 76.622 355.923 76.454 357.561 76.454C365.121 76.454 369.867 80.99 369.867 87.542C369.867 97.034 361.593 100.562 353.109 100.562C346.221 100.562 342.483 97.538 342.483 93.884C342.483 90.944 344.499 87.752 350.505 87.752C352.269 87.752 354.243 88.172 355.713 89.054C358.443 90.65 359.073 92.624 359.619 95.102C360.669 93.926 362.265 92.204 362.265 88.214C362.265 84.35 360.333 79.856 354.495 79.856C349.539 79.856 346.683 82.712 339.585 91.028L334.041 86.114C341.181 78.764 349.161 71.078 353.109 67.34C349.077 67.718 344.163 68.012 340.719 68.096ZM354.411 97.706C354.285 95.354 354.033 91.07 350.715 91.07C348.657 91.07 348.069 92.792 348.069 94.052C348.069 96.194 350.169 97.874 352.563 97.874C352.689 97.874 353.487 97.874 354.411 97.706ZM383.372 72.254V62.09H391.058V101.948H383.372V92.372C380.768 93.716 375.14 96.404 374.804 96.53L373.292 90.944C373.838 90.902 376.484 90.566 383.372 88.844V75.194H373.628V72.254H383.372ZM409.286 68.558L414.578 75.152C414.41 75.236 413.948 75.488 413.738 75.614C409.79 77.588 405.716 79.268 401.516 80.528V96.824C401.516 98.084 401.516 98.588 402.566 98.588H404.162C405.17 98.588 405.59 98.042 405.884 96.068C406.178 94.262 406.304 91.868 406.22 90.02C407.312 90.44 410.588 91.616 414.158 92.12C413.234 99.764 412.394 101.57 406.934 101.57H400.256C393.704 101.57 393.704 98.63 393.704 95.984V62.09H401.516V76.748C405.38 73.388 407.774 71.078 409.286 68.558ZM431.588 72.506H453.512C453.512 74.018 453.26 80.612 453.218 81.956H455.612V84.938H453.092C453.05 85.568 452.714 91.994 452.714 92.078H455.318V95.06H452.42C452.126 101.36 448.262 101.486 445.49 101.486H438.266L437.384 98.378C439.232 98.546 440.912 98.714 442.13 98.714C443.474 98.714 444.734 98.714 444.86 95.06H426.044C426.842 91.7 427.514 88.55 428.018 84.938H426.254V81.956H428.438C428.69 80.234 428.942 78.092 429.236 74.522C428.438 75.152 427.808 75.614 427.01 76.16L424.91 74.396C427.514 70.826 429.404 67.676 430.328 61.46L438.434 63.056C438.182 63.644 437.132 65.534 436.88 65.954H455.612V68.894H434.864C434.108 69.944 432.932 71.288 431.588 72.506ZM435.872 81.956H437.384C437.51 80.234 437.762 77.126 437.804 75.488H436.586C436.46 76.664 436.334 78.092 435.872 81.956ZM444.23 81.956H445.784C445.826 80.948 446.036 76.412 446.036 75.488H444.566C444.482 77.63 444.314 80.696 444.23 81.956ZM437.09 84.938H435.494C435.284 86.66 435.032 88.508 434.402 92.078H436.208C436.334 91.406 436.922 86.24 437.09 84.938ZM445.658 84.938H443.978C443.894 85.946 443.474 90.944 443.39 92.078H445.28C445.28 92.078 445.616 85.694 445.658 84.938ZM423.272 81.872L425.918 83.51C423.524 93.254 421.214 99.302 420.08 101.99L415.124 97.244C418.358 92.372 421.718 86.114 423.272 81.872ZM427.724 66.668L422.39 71.918C421.172 69.692 419.03 66.248 416.762 63.602L418.61 61.712C421.046 62.636 424.994 64.568 427.724 66.668ZM426.212 76.832L420.92 82.586C420.332 81.284 418.442 77.042 415.418 73.682L417.14 71.456C421.088 73.43 423.314 74.774 426.212 76.832ZM467.75 69.986V68.684H473.966C473.756 67.718 473.126 65.114 472.034 62.888L474.428 61.628C477.158 62.972 480.644 65.24 482.114 66.752L476.444 68.684H486.482L483.962 67.676C484.886 65.744 485.684 62.804 485.852 61.67L494.63 63.98C494.504 64.316 490.094 68.222 489.506 68.684H497.57V71.666H486.272C485.516 72.632 484.298 73.934 483.962 74.27H494.672V95.522H469.85V74.27H477.242C477.536 73.304 477.62 72.758 477.788 71.666H469.136C469.262 71.834 469.388 72.002 469.514 72.17L462.416 76.79C461.03 72.128 459.434 67.76 457.124 63.812L459.518 62.132C463.466 65.114 467.456 69.65 467.75 69.986ZM486.902 83.3H477.41V86.324H486.902V83.3ZM477.41 80.318H486.902V77.252H477.41V80.318ZM486.902 89.306H477.41V92.54H486.902V89.306ZM457.754 79.688H467.624V93.926C468.128 97.16 471.11 98.168 475.226 98.168H487.784C489.716 98.168 495.218 98.168 498.158 97.874L497.024 101.15H474.134C468.17 101.15 466.238 100.604 463.424 97.832C461.912 99.638 460.19 100.982 458.888 101.948L456.872 95.816C457.754 95.648 459.854 95.186 460.568 94.892V82.628H457.754V79.688ZM515.714 72.506V62.174H523.568V72.338C523.568 72.926 523.61 73.304 523.61 73.682H539.57V76.622H523.946C526.004 91.196 535.916 97.244 540.326 99.638L538.142 102.2C526.97 97.412 522.896 93.17 519.62 88.214C514.076 95.312 509.078 98.924 500.93 102.2L498.998 99.638C502.4 97.832 512.774 92.12 515.336 76.622H499.712V73.682H515.672C515.672 73.304 515.714 73.178 515.714 72.506ZM548.306 78.176H542.846V70.322H547.508C546.248 66.878 545.366 64.946 544.442 63.35L547.088 61.88C550.406 63.182 554.228 66.626 555.614 68.054L552.086 70.322H557.588C557.462 69.86 556.454 65.66 555.152 62.888L557.84 61.46C560.234 62.888 563.804 65.408 565.988 68.012L561.494 70.322H570.23L567.374 69.272C568.76 66.122 569.474 62.132 569.6 61.46L578.546 64.526C578.126 65.198 574.178 68.768 571.742 70.322H580.562V78.176H576.236V80.108C572.498 82.502 569.726 83.93 565.526 85.652V87.668H581.654V90.608H565.526V96.656C565.526 101.78 561.956 101.78 559.814 101.78H550.868L550.196 98.504C553.094 98.798 554.06 98.882 555.362 98.882C556.958 98.882 557.588 98.588 557.588 96.488V90.608H541.712V87.668H557.588V82.964L562.292 83.3C563.384 82.292 564.266 81.242 565.022 80.108H548.306V78.176ZM550.364 73.262V77.126H572.876V73.262H550.364ZM605.342 99.344L604.334 96.026C607.61 95.144 614.918 93.128 614.918 81.116C614.918 71.918 609.542 69.944 607.4 69.146C606.98 73.976 606.182 82.67 603.998 89.054C601.856 95.354 598.79 97.622 594.716 97.622C588.164 97.622 584.678 91.28 584.678 84.434C584.678 74.774 591.23 65.198 604.712 65.198C612.65 65.198 622.772 68.81 622.772 81.662C622.772 96.068 610.256 98.42 605.342 99.344ZM599.84 69.146C598.076 69.818 596.27 70.532 594.254 73.388C591.65 77.126 590.894 81.998 590.894 86.366C590.894 87.668 590.894 93.632 593.666 93.632C596.018 93.632 598.874 84.014 599.84 69.146ZM650.014 69.02H664.924V90.734H657.112V88.802H650.014V101.99H642.496V88.802H635.566V90.734H627.964V69.02H642.496V62.174H650.014V69.02ZM657.112 72.002H650.014V85.862H657.112V72.002ZM635.566 85.862H642.496V72.002H635.566V85.862ZM679.345 98.504L672.037 99.386C671.617 95.816 671.281 92.33 671.281 84.266C671.281 71.96 672.079 67.214 672.499 64.358L679.807 65.282C679.345 67.424 678.463 71.666 678.463 83.804C678.463 91.952 678.925 95.564 679.345 98.504ZM705.301 90.776V97.328C701.815 97.664 698.077 97.874 694.549 97.874C685.267 97.874 681.571 96.824 681.571 91.952C681.571 91.196 681.571 88.256 684.469 84.938L687.241 86.366C686.611 87.332 685.897 88.424 685.897 89.936C685.897 91.658 686.905 92.414 690.895 92.414C697.027 92.414 701.857 91.574 705.301 90.776ZM682.999 72.086L682.537 68.39C687.913 67.298 693.709 66.752 699.211 66.752C700.765 66.752 701.563 66.794 703.033 67.004V73.598C699.799 72.422 696.019 71.624 690.223 71.624C686.317 71.624 684.133 71.918 682.999 72.086ZM78.8108 125.028L86.9588 127.38C86.9168 127.548 86.7068 128.514 86.6648 128.64C84.1448 137.544 81.7088 143.088 75.1988 149.556L72.6368 147.792C75.9968 141.828 77.7188 135.15 78.4748 128.346C78.6008 127.254 78.7688 125.742 78.8108 125.028ZM114.343 144.978L106.195 148.716C104.851 140.568 101.953 129.648 100.063 125.994L102.877 124.692C107.161 129.732 113.251 142.458 114.343 144.978ZM89.6048 117.048H97.3328V150.774C97.3328 154.344 96.2408 156.528 90.9488 156.528H82.1288L81.2048 153.294C82.2548 153.42 85.2788 153.798 86.8328 153.798C88.6808 153.798 89.6048 153.504 89.6048 150.774V117.048ZM139.042 124.02H153.952V145.734H146.14V143.802H139.042V156.99H131.524V143.802H124.594V145.734H116.992V124.02H131.524V117.174H139.042V124.02ZM146.14 127.002H139.042V140.862H146.14V127.002ZM124.594 140.862H131.524V127.002H124.594V140.862ZM164.113 133.176H158.653V125.322H163.315C162.055 121.878 161.173 119.946 160.249 118.35L162.895 116.88C166.213 118.182 170.035 121.626 171.421 123.054L167.893 125.322H173.395C173.269 124.86 172.261 120.66 170.959 117.888L173.647 116.46C176.041 117.888 179.611 120.408 181.795 123.012L177.301 125.322H186.037L183.181 124.272C184.567 121.122 185.281 117.132 185.407 116.46L194.353 119.526C193.933 120.198 189.985 123.768 187.549 125.322H196.369V133.176H192.043V135.108C188.305 137.502 185.533 138.93 181.333 140.652V142.668H197.461V145.608H181.333V151.656C181.333 156.78 177.763 156.78 175.621 156.78H166.675L166.003 153.504C168.901 153.798 169.867 153.882 171.169 153.882C172.765 153.882 173.395 153.588 173.395 151.488V145.608H157.519V142.668H173.395V137.964L178.099 138.3C179.191 137.292 180.073 136.242 180.829 135.108H164.113V133.176ZM166.171 128.262V132.126H188.683V128.262H166.171ZM209.977 125.028H215.563V117.006H223.333V125.028H237.781V128.01H223.333V138.048H235.723V141.03H223.333V153.21H239.461V156.192H199.561V153.21H215.563V141.03H203.215V138.048H215.563V128.01H208.297C206.617 130.53 204.937 133.176 201.367 136.578L198.889 134.898C203.593 127.59 204.391 117.636 204.433 117.216L212.455 118.518C212.413 118.77 212.329 119.148 212.287 119.358C211.699 121.71 210.481 124.104 209.977 125.028ZM280.201 134.394L273.229 139.35C272.683 134.982 271.213 129.186 268.315 124.65L271.591 122.214C274.363 125.112 277.807 129.69 280.201 134.394ZM279.403 123.348L276.505 125.658C275.287 123.726 273.523 121.668 272.137 120.324L274.195 118.686C276.085 120.03 277.807 121.584 279.403 123.348ZM242.653 133.806L241.813 130.026C244.921 129.018 247.021 128.472 250.045 127.926C250.927 125.406 252.397 121.122 253.573 118.056L260.293 120.24C259.747 121.626 259.327 122.886 257.941 127.044C258.991 126.96 260.251 126.96 260.965 126.96C267.139 126.96 269.449 129.648 269.449 136.662C269.449 141.114 268.819 147.078 267.139 150.69C266.593 151.908 264.745 155.478 260.713 155.478C257.773 155.478 254.329 153.63 252.397 152.58L253.573 148.884C255.379 150.312 256.891 151.152 257.647 151.152C258.571 151.152 259.033 150.312 259.411 149.598C260.503 147.54 262.225 142.92 262.225 135.066C262.225 130.908 261.637 129.9 258.949 129.9C258.487 129.9 257.689 129.942 256.975 130.026C254.749 136.872 252.397 144.18 248.953 155.604L241.603 152.958C243.913 145.818 246.349 138.72 248.785 131.622C247.273 132.042 245.089 132.672 242.653 133.806ZM282.973 120.324L280.159 122.634C279.067 121.08 277.639 119.484 276.043 118.224L278.227 116.46C279.781 117.468 281.587 118.896 282.973 120.324ZM292.003 144.978H290.617V152.496H292.003V144.978ZM302.041 141.282H298.807V133.89H322.621V141.282H317.497V152.916C317.497 153.714 317.581 153.714 318.169 153.714C318.547 153.714 318.673 153.504 318.715 153.21C318.757 153 318.841 148.716 318.883 147.876C320.773 148.548 321.991 148.926 324.049 149.304C323.755 156.024 322.579 156.654 318.379 156.654H314.305C310.693 156.654 310.483 155.562 310.483 152.496V140.19H315.691V136.872H305.905V140.19H309.349V141.786C309.349 150.69 305.485 154.344 298.807 157.326L297.127 155.478H290.617V156.948H284.443V142.038H297.211V154.68C300.781 151.53 302.041 149.052 302.041 142.164V141.282ZM284.443 135.99H297.211V138.93H284.443V135.99ZM314.599 121.038H323.503V123.978H314.599V128.094H321.697V131.076H299.605V128.094H306.913V123.978H298.723V121.038H306.913V116.922H314.599V121.038ZM284.443 118.098H297.211V121.038H284.443V118.098ZM283.393 123.978H297.841V126.96H283.393V123.978ZM284.443 129.942H297.211V132.924H284.443V129.942ZM362.353 124.02H365.377V127.002H362.353V131.244H349.333V132.42H362.353V135.402H349.333V136.704H365.377V139.686H325.561V136.704H341.563V135.402H328.627V132.42H341.563V131.244H328.627V128.262H341.563V127.002H325.561V124.02H341.563V122.844H328.627V119.862H341.563V117.048H349.333V119.862H362.353V124.02ZM349.333 124.02H354.583V122.844H349.333V124.02ZM354.583 127.002H349.333V128.262H354.583V127.002ZM353.911 155.058H336.985V156.99H329.299V140.904H361.639V156.99H353.911V155.058ZM336.985 152.076H353.911V149.346H336.985V152.076ZM336.985 146.364H353.911V143.886H336.985V146.364ZM394.277 148.884H387.347V142.29C384.995 143.508 383.399 145.524 383.399 148.128C383.399 151.11 385.541 152.496 391.547 152.496C394.991 152.496 398.309 152.244 401.795 151.572V155.562C399.737 155.73 397.301 155.856 395.243 155.856H388.481C379.199 155.856 376.469 153.546 376.469 149.556C376.469 144.096 382.475 140.862 387.095 138.426C386.801 136.998 386.255 134.436 383.567 134.436C381.173 134.436 379.997 136.326 379.409 137.376C378.821 138.426 376.469 143.004 374.957 146.784L368.405 144.39C369.497 141.87 370.673 139.266 376.511 127.548C373.235 127.716 372.227 127.758 369.455 127.758L369.539 124.482C372.731 124.482 376.847 124.272 378.149 124.23C380.375 119.82 380.669 119.232 381.257 117.3L389.615 119.148C388.355 121.248 388.229 121.458 386.927 123.726C393.437 123.264 394.781 123.138 397.763 122.676L397.721 126.12C394.361 126.498 387.977 126.918 384.953 127.086C383.903 128.85 383.483 129.606 382.349 131.664C384.029 130.824 385.499 130.824 385.961 130.824C389.489 130.824 391.925 132.336 393.185 135.654C395.075 134.856 396.461 134.31 401.039 132.672L402.299 137.544C398.057 138.384 395.999 138.972 394.025 139.56C394.109 140.652 394.277 142.08 394.277 144.978V148.884ZM422.086 125.112V128.304H429.142V125.112H422.086ZM414.736 123.852V122.172H420.112C420.616 120.366 421.036 118.014 421.162 116.334L430.15 117.804C430.066 117.93 429.73 118.476 429.52 118.728C428.176 120.366 427.672 120.996 426.496 122.172H436.45V124.986C438.046 122.928 439.726 120.198 440.482 118.056L446.572 123.18C445.732 123.852 440.86 126.708 438.004 127.884L436.45 126.456V131.454L437.458 130.152C441.112 131.622 442.918 132.462 446.32 134.562L441.7 140.274C439.768 137.082 437.374 134.142 436.45 133.176V137.67H414.736V133.932C413.896 134.856 409.78 138.636 407.512 140.19L404.866 134.436C407.134 133.764 411.544 132.042 413.518 130.824L414.736 132.63V125.7L410.074 130.362C408.52 126.414 407.554 124.482 405.244 120.912L407.05 118.938C410.326 120.744 411.586 121.584 414.736 123.852ZM429.142 134.73V131.286H422.086V134.73H429.142ZM429.352 148.002V157.242H421.372V148.212C416.08 152.958 409.612 155.352 406.714 156.444L404.824 153.84C411.208 150.228 414.148 145.692 414.736 144.768H405.538V141.786H421.372V138.636H429.352V141.786H445.564V144.768H436.198C437.248 146.616 439.6 150.186 446.32 153.882L444.514 156.444C439.138 154.89 434.434 152.706 429.352 148.002ZM477.16 138.09L479.89 139.056C477.328 147.54 473.38 155.52 461.62 155.52C454.186 155.52 450.07 152.118 450.028 143.97C450.028 141.03 450.112 138.762 450.742 118.434L458.722 119.064C457.924 131.286 457.672 141.282 457.672 142.164C457.672 144.306 457.756 149.556 464.728 149.556C471.616 149.556 474.892 144.348 477.16 138.09ZM522.425 130.614L517.133 136.2C515.243 132.042 512.513 127.464 510.119 124.944L512.219 122.718C516.041 125.07 519.191 127.506 522.425 130.614ZM507.305 155.562H502.727C493.361 155.562 493.403 150.9 493.445 147.666C492.899 148.254 492.353 148.842 490.379 148.842C485.717 148.842 485.003 143.844 485.003 140.652C485.003 138.846 485.339 132.42 490.631 132.42C492.647 132.42 493.193 133.134 493.697 133.722V128.43C486.767 128.724 486.179 128.724 484.457 128.766L484.415 125.49C487.817 125.49 491.765 125.28 493.697 125.196V117.93L501.803 118.518C501.677 119.736 501.509 124.566 501.509 124.776C505.919 124.44 506.843 124.356 508.439 124.188V127.59C505.289 127.842 502.601 128.01 501.341 128.052C500.963 138.384 500.963 142.374 500.963 142.752V148.002C500.963 150.648 502.013 152.034 505.163 152.034H506.591C509.699 152.034 513.857 151.068 513.857 146.364C513.857 144.894 513.647 142.962 513.353 141.534L516.419 140.568C519.149 145.314 519.149 148.296 519.149 148.758C519.149 154.302 513.353 155.562 507.305 155.562ZM491.009 140.652C491.009 143.214 491.177 144.894 492.395 144.894C493.823 144.894 494.201 143.34 494.201 140.4C494.201 138.594 494.159 136.242 492.647 136.242C491.177 136.242 491.009 139.056 491.009 140.652ZM553.262 120.912L551.876 128.136C547.298 126.204 539.192 124.146 528.692 123.852V120.618C535.412 119.736 539.318 119.736 540.284 119.736C544.652 119.736 548.978 120.114 553.262 120.912ZM529.616 138.384L532.472 139.98C531.296 141.408 530.078 143.256 530.078 145.146C530.078 148.506 534.152 148.506 538.562 148.506C541.796 148.506 547.382 148.38 555.614 146.196V153.336C549.44 154.218 543.938 154.26 541.964 154.26C537.722 154.26 525.08 154.26 525.08 146.868C525.08 142.5 528.188 139.686 529.616 138.384ZM570.823 127.968V117.972L578.887 118.56C578.341 121.626 578.005 125.028 578.005 128.136C578.005 130.488 578.131 131.538 578.341 132.756C583.129 131.328 584.977 130.782 591.403 129.018L592.495 134.184C588.841 134.562 581.323 135.276 575.443 137.586C573.805 138.216 569.647 139.854 569.647 145.272C569.647 149.976 573.343 151.53 580.399 151.53C586.279 151.53 589.681 150.606 591.949 150.018V154.848C587.581 155.352 582.079 155.352 579.769 155.352C572.713 155.352 561.583 155.142 561.583 145.944C561.583 139.602 567.001 137.208 571.747 135.108C571.327 133.68 570.823 131.958 570.823 127.968ZM606.994 153.504L599.686 154.386C599.266 150.816 598.93 147.33 598.93 139.266C598.93 126.96 599.728 122.214 600.148 119.358L607.456 120.282C606.994 122.424 606.112 126.666 606.112 138.804C606.112 146.952 606.574 150.564 606.994 153.504ZM632.95 145.776V152.328C629.464 152.664 625.726 152.874 622.198 152.874C612.916 152.874 609.22 151.824 609.22 146.952C609.22 146.196 609.22 143.256 612.118 139.938L614.89 141.366C614.26 142.332 613.546 143.424 613.546 144.936C613.546 146.658 614.554 147.414 618.544 147.414C624.676 147.414 629.506 146.574 632.95 145.776ZM610.648 127.086L610.186 123.39C615.562 122.298 621.358 121.752 626.86 121.752C628.414 121.752 629.212 121.794 630.682 122.004V128.598C627.448 127.422 623.668 126.624 617.872 126.624C613.966 126.624 611.782 126.918 610.648 127.086ZM220.416 203.38L213.612 208C212.52 202.12 211.344 200.02 210.672 198.802L212.772 197.332H210.126V194.392C209.58 194.686 209.034 194.98 207.942 195.568V211.906H200.634V199.264C198.45 200.356 195.762 201.7 194.628 202.246L192.696 196.618C194.796 196.114 195.384 195.946 200.634 194.476V184.018H198.828C198.282 186.832 197.232 189.982 195.048 192.796L192.57 191.452C193.158 189.73 193.41 188.428 193.494 187.798C194.04 184.522 194.124 181.12 194.124 178.306C194.124 175.996 194.04 175.324 193.914 173.728L199.584 174.568C199.626 175.828 199.332 180.322 199.248 181.078H200.634V172.09H207.942V181.078H210.42V184.018H207.942V192.04C209.118 191.578 209.412 191.452 210.21 191.158L210.966 193.888C210.378 194.224 210.378 194.266 210.168 194.392H221.928V190.528H229.572V194.392H233.184V197.332H229.572V206.53C229.572 211.57 226.716 211.57 224.112 211.57H216.552L215.67 208.462C217.056 208.63 218.442 208.756 219.828 208.756C221.928 208.756 221.928 208.546 221.928 206.362V197.332H213.612C214.578 198.046 218.274 201.028 220.416 203.38ZM225.582 177.844H231.966V180.826H225.582V186.664H233.184V189.604H210.126V186.664H217.77V180.826H211.638V177.844H217.77V172.048H225.582V177.844ZM246.792 180.784V211.99H239.316V190.906C237.93 192.376 237.09 193.048 236.334 193.678L234.486 191.956C239.946 184.102 241.878 172.258 242.046 171.376L250.32 173.518C250.194 173.812 250.11 174.022 249.984 174.358C248.976 176.92 247.506 179.44 246.792 180.784ZM271.068 180.322L275.73 185.698C274.89 186.118 266.784 189.73 260.148 191.2V206.278C260.148 208 260.232 208.504 262.794 208.504H265.062C267.792 208.504 268.212 208.504 268.884 200.062C270.774 200.902 273.84 201.616 275.478 201.826C274.596 209.344 273.042 211.486 267.75 211.486H257.754C253.302 211.486 252.42 209.554 252.42 205.522V172.09H260.148V187.84C264.348 185.698 268.926 182.674 271.068 180.322ZM306.822 193.09L309.552 194.056C306.99 202.54 303.042 210.52 291.282 210.52C283.848 210.52 279.732 207.118 279.69 198.97C279.69 196.03 279.774 193.762 280.404 173.434L288.384 174.064C287.586 186.286 287.334 196.282 287.334 197.164C287.334 199.306 287.418 204.556 294.39 204.556C301.278 204.556 304.554 199.348 306.822 193.09ZM348.699 203.884V210.142C345.339 210.352 338.409 210.394 337.905 210.394C334.419 210.394 327.195 210.352 327.195 204.346C327.195 201.784 328.329 199.6 329.715 197.752L332.697 199.012C331.941 200.02 331.353 201.364 331.353 202.624C331.353 205.102 333.579 205.102 336.813 205.102C341.265 205.102 345.885 204.64 348.699 203.884ZM349.581 186.37L348.573 192.796C344.079 190.906 339.291 189.352 333.033 189.142L333.201 185.572C335.049 185.53 337.611 185.53 337.905 185.53C340.803 185.53 345.297 185.614 349.581 186.37ZM336.099 179.986V183.262C334.839 183.388 333.495 183.514 328.623 183.766C324.591 196.492 322.281 204.682 320.853 210.142L313.335 208.21C315.645 200.566 318.207 192.124 320.685 184.102C316.023 184.27 314.889 184.27 313.461 184.27V180.91C315.939 180.91 317.493 180.91 321.735 180.784C322.869 177.088 322.995 176.668 324.129 173.14L331.731 174.568C331.101 176.206 330.387 178.306 329.673 180.406C333.117 180.238 333.663 180.196 336.099 179.986ZM383.918 210.058H361.448V212.074H354.056V173.434H391.394V212.074H383.918V210.058ZM361.448 191.62V203.044C363.674 201.7 366.656 199.852 369.68 196.744C366.32 194.35 363.8 192.712 361.448 191.62ZM361.448 190.99L362.75 189.016C363.674 189.268 363.758 189.31 363.968 189.352C363.506 186.706 362.498 183.724 361.448 181.246V190.99ZM383.918 198.718V186.412C382.364 189.982 380.39 192.796 378.164 195.358C380.768 196.744 382.322 197.626 383.918 198.718ZM383.918 200.944L380.138 205.774C379.256 204.808 377.24 202.624 373.544 199.684C369.554 202.876 364.892 204.766 362.918 205.564L361.448 203.842V207.076H383.918V200.944ZM377.828 178.894L383.918 181.54V176.416H361.448V180.154L363.548 178.894C365.354 180.28 366.866 181.666 369.386 184.564C368.798 181.246 368.588 180.28 368 178.348L370.394 177.382C372.662 179.566 374.678 182.002 376.526 184.564C377.24 182.128 377.408 181.162 377.828 178.894ZM369.764 186.958L364.808 189.646C365.564 189.898 369.512 191.242 372.83 192.796C373.334 191.998 374.468 190.234 375.854 186.664L370.016 189.016C369.974 188.302 369.89 187.798 369.764 186.958ZM431.546 179.02H434.57V182.002H431.546V186.244H418.526V187.42H431.546V190.402H418.526V191.704H434.57V194.686H394.754V191.704H410.756V190.402H397.82V187.42H410.756V186.244H397.82V183.262H410.756V182.002H394.754V179.02H410.756V177.844H397.82V174.862H410.756V172.048H418.526V174.862H431.546V179.02ZM418.526 179.02H423.776V177.844H418.526V179.02ZM423.776 182.002H418.526V183.262H423.776V182.002ZM423.104 210.058H406.178V211.99H398.492V195.904H430.832V211.99H423.104V210.058ZM406.178 207.076H423.104V204.346H406.178V207.076ZM406.178 201.364H423.104V198.886H406.178V201.364ZM468.086 210.184H463.046V212.116H455.822V185.11H454.226V181.918L452.84 183.766C452.252 183.346 451.37 182.674 449.522 180.616V184.018H453.428V198.55H445.28V204.598C445.784 204.514 446.036 204.43 447.884 204.094C447.254 201.28 447.086 200.902 446.834 200.188L449.522 198.634C451.412 200.902 454.1 205.144 455.57 208.252L448.976 212.116C448.892 210.772 448.85 209.68 448.43 206.992C447.254 207.496 438.098 211.36 437.51 211.528L435.914 206.194C436.67 206.068 437.006 206.026 438.14 205.858V185.488C437.552 185.866 437.342 186.034 436.922 186.328L435.788 183.262C438.602 180.364 440.828 176.584 441.92 172.468H450.488C451.202 175.87 453.596 179.314 454.226 180.07V176.668H461.24V172.132H468.926V176.668H476.192V185.11H473.714V194.392H463.046V197.374H475.352V212.116H468.086V210.184ZM445.28 186.958V189.73H446.666V186.958H445.28ZM440.03 184.018H442.844V181.456C442.508 181.792 441.332 182.884 440.03 184.018ZM446.666 195.61V192.712H445.28V195.61H446.666ZM461.324 179.65V183.01H469.178V179.65H461.324ZM466.28 191.41V185.992H463.046V191.41H466.28ZM463.046 207.202H468.086V200.356H463.046V207.202ZM444.104 180.154H449.144C447.422 178.18 447.086 177.592 446.624 176.92C446.12 177.718 445.7 178.348 444.104 180.154ZM505.47 203.884H498.54V197.29C496.188 198.508 494.592 200.524 494.592 203.128C494.592 206.11 496.734 207.496 502.74 207.496C506.184 207.496 509.502 207.244 512.988 206.572V210.562C510.93 210.73 508.494 210.856 506.436 210.856H499.674C490.392 210.856 487.662 208.546 487.662 204.556C487.662 199.096 493.668 195.862 498.288 193.426C497.994 191.998 497.448 189.436 494.76 189.436C492.366 189.436 491.19 191.326 490.602 192.376C490.014 193.426 487.662 198.004 486.15 201.784L479.598 199.39C480.69 196.87 481.866 194.266 487.704 182.548C484.428 182.716 483.42 182.758 480.648 182.758L480.732 179.482C483.924 179.482 488.04 179.272 489.342 179.23C491.568 174.82 491.862 174.232 492.45 172.3L500.808 174.148C499.548 176.248 499.422 176.458 498.12 178.726C504.63 178.264 505.974 178.138 508.956 177.676L508.914 181.12C505.554 181.498 499.17 181.918 496.146 182.086C495.096 183.85 494.676 184.606 493.542 186.664C495.222 185.824 496.692 185.824 497.154 185.824C500.682 185.824 503.118 187.336 504.378 190.654C506.268 189.856 507.654 189.31 512.232 187.672L513.492 192.544C509.25 193.384 507.192 193.972 505.218 194.56C505.302 195.652 505.47 197.08 505.47 199.978V203.884Z" fill="#237233"/>
<g clip-path="url(#clip0_527_3081)">
<path d="M353.5 252C355.709 252 357.5 250.209 357.5 248C357.5 245.791 355.709 244 353.5 244C351.291 244 349.5 245.791 349.5 248C349.5 250.209 351.291 252 353.5 252Z" fill="#DAE000"/>
<path d="M333.5 252C335.709 252 337.5 250.209 337.5 248C337.5 245.791 335.709 244 333.5 244C331.291 244 329.5 245.791 329.5 248C329.5 250.209 331.291 252 333.5 252Z" fill="#237233"/>
<path d="M374.5 252C376.709 252 378.5 250.209 378.5 248C378.5 245.791 376.709 244 374.5 244C372.291 244 370.5 245.791 370.5 248C370.5 250.209 372.291 252 374.5 252Z" fill="#87C067"/>
</g>
<defs>
<clipPath id="clip0_527_3081">
<rect width="49" height="8" fill="white" transform="translate(329.5 244)"/>
</clipPath>
</defs>
</svg>
