<svg width="400" height="92" viewBox="0 0 400 92" fill="none" xmlns="http://www.w3.org/2000/svg">
<path d="M19.4872 10.288V4.48H23.8792V27.256H19.4872V21.784C17.9992 22.552 14.7832 24.088 14.5912 24.16L13.7272 20.968C14.0392 20.944 15.5512 20.752 19.4872 19.768V11.968H13.9192V10.288H19.4872ZM34.2952 8.176L37.3192 11.944C37.2232 11.992 36.9592 12.136 36.8392 12.208C34.5832 13.336 32.2552 14.296 29.8552 15.016V24.328C29.8552 25.048 29.8552 25.336 30.4552 25.336H31.3672C31.9432 25.336 32.1832 25.024 32.3512 23.896C32.5192 22.864 32.5912 21.496 32.5432 20.44C33.1672 20.68 35.0392 21.352 37.0792 21.64C36.5512 26.008 36.0712 27.04 32.9512 27.04H29.1352C25.3912 27.04 25.3912 25.36 25.3912 23.848V4.48H29.8552V12.856C32.0632 10.936 33.4312 9.616 34.2952 8.176ZM47.0392 10.432H59.5672C59.5672 11.296 59.4232 15.064 59.3992 15.832H60.7672V17.536H59.3272C59.3032 17.896 59.1112 21.568 59.1112 21.616H60.5992V23.32H58.9432C58.7752 26.92 56.5672 26.992 54.9832 26.992H50.8552L50.3512 25.216C51.4072 25.312 52.3672 25.408 53.0632 25.408C53.8312 25.408 54.5512 25.408 54.6232 23.32H43.8712C44.3272 21.4 44.7112 19.6 44.9992 17.536H43.9912V15.832H45.2392C45.3832 14.848 45.5272 13.624 45.6952 11.584C45.2392 11.944 44.8792 12.208 44.4232 12.52L43.2232 11.512C44.7112 9.472 45.7912 7.672 46.3192 4.12L50.9512 5.032C50.8072 5.368 50.2072 6.448 50.0632 6.688H60.7672V8.368H48.9112C48.4792 8.968 47.8072 9.736 47.0392 10.432ZM49.4872 15.832H50.3512C50.4232 14.848 50.5672 13.072 50.5912 12.136H49.8952C49.8232 12.808 49.7512 13.624 49.4872 15.832ZM54.2632 15.832H55.1512C55.1752 15.256 55.2952 12.664 55.2952 12.136H54.4552C54.4072 13.36 54.3112 15.112 54.2632 15.832ZM50.1832 17.536H49.2712C49.1512 18.52 49.0072 19.576 48.6472 21.616H49.6792C49.7512 21.232 50.0872 18.28 50.1832 17.536ZM55.0792 17.536H54.1192C54.0712 18.112 53.8312 20.968 53.7832 21.616H54.8632C54.8632 21.616 55.0552 17.968 55.0792 17.536ZM42.2872 15.784L43.7992 16.72C42.4312 22.288 41.1112 25.744 40.4632 27.28L37.6312 24.568C39.4792 21.784 41.3992 18.208 42.2872 15.784ZM44.8312 7.096L41.7832 10.096C41.0872 8.824 39.8632 6.856 38.5672 5.344L39.6232 4.264C41.0152 4.792 43.2712 5.896 44.8312 7.096ZM43.9672 12.904L40.9432 16.192C40.6072 15.448 39.5272 13.024 37.7992 11.104L38.7832 9.832C41.0392 10.96 42.3112 11.728 43.9672 12.904ZM67.7032 8.992V8.248H71.2552C71.1352 7.696 70.7752 6.208 70.1512 4.936L71.5192 4.216C73.0792 4.984 75.0712 6.28 75.9112 7.144L72.6712 8.248H78.4072L76.9672 7.672C77.4952 6.568 77.9512 4.888 78.0472 4.24L83.0632 5.56C82.9912 5.752 80.4712 7.984 80.1352 8.248H84.7432V9.952H78.2872C77.8552 10.504 77.1592 11.248 76.9672 11.44H83.0872V23.584H68.9032V11.44H73.1272C73.2952 10.888 73.3432 10.576 73.4392 9.952H68.4952C68.5672 10.048 68.6392 10.144 68.7112 10.24L64.6552 12.88C63.8632 10.216 62.9512 7.72 61.6312 5.464L62.9992 4.504C65.2552 6.208 67.5352 8.8 67.7032 8.992ZM78.6472 16.6H73.2232V18.328H78.6472V16.6ZM73.2232 14.896H78.6472V13.144H73.2232V14.896ZM78.6472 20.032H73.2232V21.88H78.6472V20.032ZM61.9912 14.536H67.6312V22.672C67.9192 24.52 69.6232 25.096 71.9752 25.096H79.1512C80.2552 25.096 83.3992 25.096 85.0792 24.928L84.4312 26.8H71.3512C67.9432 26.8 66.8392 26.488 65.2312 24.904C64.3672 25.936 63.3832 26.704 62.6392 27.256L61.4872 23.752C61.9912 23.656 63.1912 23.392 63.5992 23.224V16.216H61.9912V14.536ZM95.1112 10.432V4.528H99.5992V10.336C99.5992 10.672 99.6232 10.888 99.6232 11.104H108.743V12.784H99.8152C100.991 21.112 106.655 24.568 109.175 25.936L107.927 27.4C101.543 24.664 99.2152 22.24 97.3432 19.408C94.1752 23.464 91.3192 25.528 86.6632 27.4L85.5592 25.936C87.5032 24.904 93.4312 21.64 94.8952 12.784H85.9672V11.104H95.0872C95.0872 10.888 95.1112 10.816 95.1112 10.432ZM113.735 13.672H110.615V9.184H113.279C112.559 7.216 112.055 6.112 111.527 5.2L113.039 4.36C114.935 5.104 117.119 7.072 117.911 7.888L115.895 9.184H119.039C118.967 8.92 118.391 6.52 117.647 4.936L119.183 4.12C120.551 4.936 122.591 6.376 123.839 7.864L121.271 9.184H126.263L124.631 8.584C125.423 6.784 125.831 4.504 125.903 4.12L131.015 5.872C130.775 6.256 128.519 8.296 127.127 9.184H132.167V13.672H129.695V14.776C127.559 16.144 125.975 16.96 123.575 17.944V19.096H132.791V20.776H123.575V24.232C123.575 27.16 121.535 27.16 120.311 27.16H115.199L114.815 25.288C116.471 25.456 117.023 25.504 117.767 25.504C118.679 25.504 119.039 25.336 119.039 24.136V20.776H109.967V19.096H119.039V16.408L121.727 16.6C122.351 16.024 122.855 15.424 123.287 14.776H113.735V13.672ZM114.911 10.864V13.072H127.775V10.864H114.911ZM150.786 6.664L149.994 10.792C147.378 9.688 142.746 8.512 136.746 8.344V6.496C140.586 5.992 142.818 5.992 143.37 5.992C145.866 5.992 148.338 6.208 150.786 6.664ZM137.274 16.648L138.906 17.56C138.234 18.376 137.538 19.432 137.538 20.512C137.538 22.432 139.866 22.432 142.386 22.432C144.234 22.432 147.426 22.36 152.13 21.112V25.192C148.602 25.696 145.458 25.72 144.33 25.72C141.906 25.72 134.682 25.72 134.682 21.496C134.682 19 136.458 17.392 137.274 16.648ZM174.069 9.28L172.101 10.264C171.501 8.128 170.781 7.192 170.397 6.688L171.813 6.088C172.701 7.096 173.445 8.248 174.069 9.28ZM176.517 8.104L174.573 9.088C174.189 8.104 173.637 6.928 172.893 5.992L174.261 5.344C175.437 6.496 175.989 7.288 176.517 8.104ZM160.413 10.768V5.08L164.997 5.416C164.709 7.144 164.517 9.112 164.517 10.864C164.517 12.232 164.589 12.808 164.709 13.504C167.445 12.688 168.501 12.4 172.173 11.368L172.797 14.344C170.733 14.536 166.413 14.944 163.053 16.264C162.117 16.624 159.717 17.56 159.717 20.656C159.717 23.344 161.853 24.232 165.861 24.232C169.221 24.232 171.189 23.728 172.485 23.368V26.128C169.989 26.416 166.845 26.416 165.525 26.416C161.493 26.416 155.133 26.296 155.133 21.04C155.133 17.416 158.229 16.048 160.941 14.848C160.701 14.056 160.413 13.048 160.413 10.768ZM191.05 15.376V17.272C189.418 17.392 186.73 17.512 185.026 17.584C184.906 18.76 184.786 20.128 184.786 21.136C184.786 23.368 185.53 24.688 189.13 24.688C191.338 24.688 193.69 23.896 193.69 20.656C193.69 18.832 193.186 17.392 192.85 16.432L194.458 15.736C195.994 17.92 196.858 19.864 196.858 21.472C196.858 22.624 196.45 24.304 194.674 25.456C193.138 26.44 189.442 26.656 188.266 26.656C187.69 26.656 183.706 26.656 181.714 24.784C180.562 23.728 180.466 21.928 180.466 21.064C180.466 20.128 180.586 18.616 180.682 17.752C179.482 17.8 177.706 17.848 177.13 17.848V15.928C178.57 15.928 178.834 15.928 180.874 15.88C180.874 15.688 181.234 12.4 181.282 11.848C179.266 11.92 178.114 11.92 177.658 11.92V10.072C178.57 10.072 180.442 10.024 181.498 10C181.81 7.168 181.882 6.304 181.954 5.152L186.658 5.608C186.466 6.76 186.322 7.576 185.986 9.832C188.458 9.736 189.85 9.664 191.722 9.52V11.416C190.954 11.464 189.994 11.56 185.722 11.704C185.53 13.12 185.482 13.48 185.218 15.712C187.114 15.616 188.938 15.544 191.05 15.376ZM222.002 23.176L220.826 24.448C220.01 23.944 218.546 23.056 216.65 21.256V22.216H212.402V27.28H207.938V22.216H203.786V21.352C202.058 22.96 200.474 23.944 199.61 24.496L198.41 23.152C201.89 19.912 204.554 14.536 205.274 10.552H198.842V8.848H207.938V4.48H212.402V8.848H221.69V10.552H215.114C215.834 14.464 218.786 20.224 222.002 23.176ZM212.402 20.536H215.93C215.114 19.696 213.674 18.04 212.402 15.856V20.536ZM207.938 20.536V15.856C207.602 16.48 206.474 18.64 204.626 20.536H207.938ZM235.202 25.768L234.626 23.872C236.498 23.368 240.674 22.216 240.674 15.352C240.674 10.096 237.602 8.968 236.378 8.512C236.138 11.272 235.682 16.24 234.434 19.888C233.21 23.488 231.458 24.784 229.13 24.784C225.386 24.784 223.394 21.16 223.394 17.248C223.394 11.728 227.138 6.256 234.842 6.256C239.378 6.256 245.162 8.32 245.162 15.664C245.162 23.896 238.01 25.24 235.202 25.768ZM232.058 8.512C231.05 8.896 230.018 9.304 228.866 10.936C227.378 13.072 226.946 15.856 226.946 18.352C226.946 19.096 226.946 22.504 228.53 22.504C229.874 22.504 231.506 17.008 232.058 8.512ZM257.584 25.984L256.648 24.736C257.896 23.56 259.6 21.76 260.488 18.52H258.664V16.816H261.856V14.488H265.984V16.816H270.184V18.52H267.232C267.88 21.424 269.152 23.176 270.568 24.736L269.488 25.96C268.792 25.456 266.8 24.04 265.984 23.08V27.328H261.856V22.912C260.992 23.824 259.648 24.976 257.584 25.984ZM269.992 13.504L269.008 14.8C266.872 14.104 263.968 13.048 260.896 10.648V15.136H256.528V10.576C253.552 13.216 250.384 14.296 248.296 14.944L247.264 13.648C248.176 13.144 249.64 12.352 251.344 10.624C251.752 10.216 252.568 9.328 253.096 8.32H248.296V6.64H256.528V4.456H260.896V6.64H269.176V8.32H264.4C264.856 9.064 266.392 11.416 269.992 13.504ZM257.896 21.952L256.912 23.488C256.48 23.224 256.216 23.056 255.592 22.6V27.328H251.512V22.768C250.215 24.184 248.92 25.096 247.72 25.888L246.688 24.664C249.136 21.976 249.976 19.048 250.12 18.52H247.288V16.816H251.512V14.488H255.592V16.816H258.088V18.52H255.928C256.192 19.24 256.72 20.536 257.896 21.952ZM298.032 7.48V25.36H293.616V24.136H280.08V22.384H293.616V9.232H280.344V7.48H298.032ZM312.333 9.112L309.309 12.496C307.557 10 305.517 8.224 302.877 6.76L303.693 5.344C307.893 6.184 310.245 7.576 312.333 9.112ZM303.501 26.2L301.581 21.688C311.397 20.776 316.149 17.392 320.589 11.224L322.005 12.256C317.973 20.08 313.053 23.68 303.501 26.2ZM333.256 5.824V11.032L342.736 10.576L344.08 12.232C341.296 16.528 338.584 18.184 336.088 19.336L334.816 17.848C336.712 16.432 338.008 14.776 338.8 12.52L333.256 12.784V21.4C333.256 23.08 333.904 23.512 335.632 23.512H338.08C338.392 23.512 340.72 23.44 343.072 23.008V25.456H334.384C330.472 25.456 328.912 24.544 328.912 22V13L323.8 13.24V11.488L328.912 11.224V5.512L333.256 5.824ZM366.118 9.016C364.678 9.016 363.526 7.84 363.526 6.376C363.526 4.912 364.702 3.736 366.118 3.736C367.534 3.736 368.71 4.888 368.71 6.376C368.71 7.864 367.534 9.016 366.118 9.016ZM366.118 7.528C366.718 7.528 367.246 7.048 367.246 6.376C367.246 5.704 366.694 5.248 366.118 5.248C365.494 5.248 364.99 5.776 364.99 6.376C364.99 6.976 365.47 7.528 366.118 7.528ZM346.606 7.48H362.926L364.63 9.544C362.374 20.992 355.894 23.992 347.566 25.888L346.726 24.232C351.838 22.792 358.558 20.056 359.782 9.232H346.606V7.48ZM371.5 5.296L375.868 5.584V12.184C378.508 12.616 381.556 13.264 385.972 15.856L382.996 19.552C382.036 18.544 379.42 15.856 375.868 14.32V26.248H371.5V5.296Z" fill="white"/>
<path d="M5.36839 52.322V44.132H13.4324V50.432C13.4324 55.64 8.05639 57.194 6.58639 57.614L4.99039 55.64C5.95639 55.178 7.84639 54.254 8.51839 52.322H5.36839ZM15.8684 52.322V44.132H23.9324V50.432C23.9324 55.64 18.5564 57.194 17.0864 57.614L15.4904 55.64C16.4564 55.178 18.3464 54.254 19.0184 52.322H15.8684ZM57.0688 47.912L55.6828 55.136C51.1048 53.204 42.9988 51.146 32.4988 50.852V47.618C39.2188 46.736 43.1248 46.736 44.0908 46.736C48.4588 46.736 52.7848 47.114 57.0688 47.912ZM33.4228 65.384L36.2788 66.98C35.1028 68.408 33.8848 70.256 33.8848 72.146C33.8848 75.506 37.9588 75.506 42.3688 75.506C45.6028 75.506 51.1888 75.38 59.4208 73.196V80.336C53.2468 81.218 47.7448 81.26 45.7708 81.26C41.5288 81.26 28.8868 81.26 28.8868 73.868C28.8868 69.5 31.9948 66.686 33.4228 65.384ZM97.8137 52.49L94.3697 54.212C93.3197 50.474 92.0597 48.836 91.3877 47.954L93.8657 46.904C95.4197 48.668 96.7217 50.684 97.8137 52.49ZM102.098 50.432L98.6957 52.154C98.0237 50.432 97.0577 48.374 95.7557 46.736L98.1497 45.602C100.208 47.618 101.174 49.004 102.098 50.432ZM73.9157 55.094V45.14L81.9377 45.728C81.4337 48.752 81.0977 52.196 81.0977 55.262C81.0977 57.656 81.2237 58.664 81.4337 59.882C86.2217 58.454 88.0697 57.95 94.4957 56.144L95.5877 61.352C91.9757 61.688 84.4157 62.402 78.5357 64.712C76.8977 65.342 72.6977 66.98 72.6977 72.398C72.6977 77.102 76.4357 78.656 83.4497 78.656C89.3297 78.656 92.7737 77.774 95.0417 77.144V81.974C90.6737 82.478 85.1717 82.478 82.8617 82.478C75.8057 82.478 64.6757 82.268 64.6757 73.07C64.6757 66.728 70.0937 64.334 74.8397 62.234C74.4197 60.848 73.9157 59.084 73.9157 55.094ZM127.531 63.158V66.476C124.675 66.686 119.971 66.896 116.989 67.022C116.779 69.08 116.569 71.474 116.569 73.238C116.569 77.144 117.871 79.454 124.171 79.454C128.035 79.454 132.151 78.068 132.151 72.398C132.151 69.206 131.269 66.686 130.681 65.006L133.495 63.788C136.183 67.61 137.695 71.012 137.695 73.826C137.695 75.842 136.981 78.782 133.873 80.798C131.185 82.52 124.717 82.898 122.659 82.898C121.651 82.898 114.679 82.898 111.193 79.622C109.177 77.774 109.009 74.624 109.009 73.112C109.009 71.474 109.219 68.828 109.387 67.316C107.287 67.4 104.179 67.484 103.171 67.484V64.124C105.691 64.124 106.153 64.124 109.723 64.04C109.723 63.704 110.353 57.95 110.437 56.984C106.909 57.11 104.893 57.11 104.095 57.11V53.876C105.691 53.876 108.967 53.792 110.815 53.75C111.361 48.794 111.487 47.282 111.613 45.266L119.845 46.064C119.509 48.08 119.257 49.508 118.669 53.456C122.995 53.288 125.431 53.162 128.707 52.91V56.228C127.363 56.312 125.683 56.48 118.207 56.732C117.871 59.21 117.787 59.84 117.325 63.746C120.643 63.578 123.835 63.452 127.531 63.158ZM152.021 80.504L144.713 81.386C144.293 77.816 143.957 74.33 143.957 66.266C143.957 53.96 144.755 49.214 145.175 46.358L152.483 47.282C152.021 49.424 151.139 53.666 151.139 65.804C151.139 73.952 151.601 77.564 152.021 80.504ZM177.977 72.776V79.328C174.491 79.664 170.753 79.874 167.225 79.874C157.943 79.874 154.247 78.824 154.247 73.952C154.247 73.196 154.247 70.256 157.145 66.938L159.917 68.366C159.287 69.332 158.573 70.424 158.573 71.936C158.573 73.658 159.581 74.414 163.571 74.414C169.703 74.414 174.533 73.574 177.977 72.776ZM155.675 54.086L155.213 50.39C160.589 49.298 166.385 48.752 171.887 48.752C173.441 48.752 174.239 48.794 175.709 49.004V55.598C172.475 54.422 168.695 53.624 162.899 53.624C158.993 53.624 156.809 53.918 155.675 54.086ZM197.191 52.91V59.756C197.191 61.058 197.191 61.52 197.107 62.528H201.853V65.51H197.989C198.787 70.34 200.383 73.784 202.777 76.808V47.114H220.501V83.276H212.899V80.966H210.253V83.276H202.777V78.404L201.097 80.504C199.795 79.454 196.645 76.892 194.251 73.07C193.369 74.582 190.051 79.538 182.617 83.906L180.559 81.596C187.657 76.094 189.127 69.248 189.589 65.51H181.567V62.528H189.841V52.91H189.757C187.279 56.396 185.221 58.496 183.205 60.386L180.643 58.664C183.541 54.548 185.893 46.274 185.851 43.334L194.041 45.14C193.957 45.644 191.983 49.382 191.647 49.928H201.853V52.91H197.191ZM210.253 77.984H212.899V50.096H210.253V77.984ZM250.367 75.884H243.437V69.29C241.085 70.508 239.489 72.524 239.489 75.128C239.489 78.11 241.631 79.496 247.637 79.496C251.081 79.496 254.399 79.244 257.885 78.572V82.562C255.827 82.73 253.391 82.856 251.333 82.856H244.571C235.289 82.856 232.559 80.546 232.559 76.556C232.559 71.096 238.565 67.862 243.185 65.426C242.891 63.998 242.345 61.436 239.657 61.436C237.263 61.436 236.087 63.326 235.499 64.376C234.911 65.426 232.559 70.004 231.047 73.784L224.495 71.39C225.587 68.87 226.763 66.266 232.601 54.548C229.325 54.716 228.317 54.758 225.545 54.758L225.629 51.482C228.821 51.482 232.937 51.272 234.239 51.23C236.465 46.82 236.759 46.232 237.347 44.3L245.705 46.148C244.445 48.248 244.319 48.458 243.017 50.726C249.527 50.264 250.871 50.138 253.853 49.676L253.811 53.12C250.451 53.498 244.067 53.918 241.043 54.086C239.993 55.85 239.573 56.606 238.439 58.664C240.119 57.824 241.589 57.824 242.051 57.824C245.579 57.824 248.015 59.336 249.275 62.654C251.165 61.856 252.551 61.31 257.129 59.672L258.389 64.544C254.147 65.384 252.089 65.972 250.115 66.56C250.199 67.652 250.367 69.08 250.367 71.978V75.884ZM300.364 54.842L297.424 59.924C294.694 58.286 291.166 55.598 288.73 53.288C290.704 56.396 293.77 61.268 293.77 67.274C293.77 75.548 288.142 81.218 278.524 81.218C273.61 81.218 264.538 79.58 264.538 68.492C264.538 61.226 268.276 56.48 273.148 51.188C271.09 51.734 267.352 52.658 263.866 53.414L263.068 49.55C266.428 49.34 272.098 48.332 276.172 47.156L278.608 50.348C276.886 52.154 275.584 53.582 273.988 57.362C273.19 59.252 271.594 63.452 271.594 68.114C271.594 72.902 274.114 75.716 278.524 75.716C286.336 75.716 287.134 67.526 287.134 63.914C287.134 59.084 285.958 53.582 283.396 49.55L286.504 47.114C290.746 51.23 296.374 53.666 300.364 54.842ZM331.247 47.954L328.265 55.262C321.713 50.306 316.169 48.878 312.053 47.954L313.439 44.72C316.589 44.846 322.847 45.098 331.247 47.954ZM312.977 83.276L312.263 79.706C319.571 79.622 329.399 79.034 329.399 69.71C329.399 63.62 324.485 62.654 322.385 62.654C321.083 62.654 318.899 62.906 316.127 64.964C312.725 67.484 311.717 70.004 310.835 72.146L304.577 71.012C305.207 66.14 306.131 58.748 307.685 51.02L315.539 52.532C314.531 55.388 313.481 60.47 313.061 62.612C314.867 61.352 318.437 58.916 324.779 58.916C331.331 58.916 337.463 61.94 337.463 69.626C337.463 82.772 319.739 83.192 312.977 83.276ZM371.395 77.354L365.935 84.074C360.475 77.942 349.219 69.374 346.615 67.61C344.053 65.888 342.751 64.964 342.751 63.83C342.751 60.554 357.451 47.996 362.953 43.964L369.001 49.592C363.331 52.868 357.871 56.48 352.831 60.68C351.361 61.898 350.731 62.528 350.731 63.116C350.731 63.62 351.739 64.208 352.033 64.376C358.795 68.198 365.347 72.482 371.395 77.354ZM375.945 52.322V44.132H384.009V50.432C384.009 55.64 378.633 57.194 377.163 57.614L375.567 55.64C376.533 55.178 378.423 54.254 379.095 52.322H375.945ZM386.445 52.322V44.132H394.509V50.432C394.509 55.64 389.133 57.194 387.663 57.614L386.067 55.64C387.033 55.178 388.923 54.254 389.595 52.322H386.445Z" fill="white"/>
</svg>
