<svg width="74" height="69" viewBox="0 0 74 69" fill="none" xmlns="http://www.w3.org/2000/svg">
<path d="M53.9624 24.4008C56.4978 21.6966 56.361 17.4491 53.6568 14.9138C50.9526 12.3784 46.7052 12.5152 44.1698 15.2194C41.6344 17.9236 41.7713 22.171 44.4754 24.7064C47.1796 27.2418 51.4271 27.1049 53.9624 24.4008Z" fill="#2396C8"/>
<path d="M66.6393 21.606C66.6543 25.3148 63.6617 28.3281 59.9575 28.3444C56.2533 28.3608 53.2355 25.3669 53.2191 21.6627C53.2028 17.9585 56.1967 14.9407 59.9009 14.9243C63.605 14.9079 66.6229 17.9019 66.6393 21.606Z" fill="#2396C8"/>
<path d="M47.8167 23.1705C47.829 26.1838 45.3962 28.6323 42.3874 28.6459C39.374 28.6581 36.9255 26.2254 36.9119 23.2166C36.8997 20.2032 39.3325 17.7547 42.3413 17.7411C45.3546 17.7289 47.8032 20.1617 47.8167 23.1705Z" fill="#8CCEEB"/>
<path d="M61.8499 21.629C61.8622 24.6423 59.4294 27.0908 56.4206 27.1044C53.4072 27.1166 50.9587 24.6839 50.9451 21.6751C50.9329 18.6617 53.3657 16.2132 56.3745 16.1996C59.3878 16.1874 61.8364 18.6202 61.8499 21.629Z" fill="#8CCEEB"/>
<path d="M39.7456 14.3894C40.4313 12.8031 39.7011 10.9614 38.1148 10.2758C36.5285 9.59017 34.6868 10.3203 34.0012 11.9066C33.3156 13.4929 34.0457 15.3346 35.632 16.0202C37.2183 16.7059 39.06 15.9757 39.7456 14.3894Z" fill="#8CCEEB"/>
<path d="M58.7591 11.9409C59.8645 10.6126 59.6837 8.63966 58.3554 7.53429C57.027 6.42893 55.0541 6.6097 53.9487 7.93806C52.8433 9.26641 53.0241 11.2393 54.3525 12.3447C55.6808 13.4501 57.6538 13.2693 58.7591 11.9409Z" fill="#8CCEEB"/>
<path d="M62.5991 62.7688L41.5491 62.8573C40.5681 62.86 39.741 62.1198 39.6337 61.1425L36.2451 29.4496L67.6271 29.3194L64.5001 61.0411C64.4055 62.0182 63.5847 62.7674 62.5991 62.7688Z" fill="#FF5338"/>
<path d="M37.0029 23.2125L66.8135 23.0901C68.638 23.0826 70.1282 24.5607 70.1357 26.3852L70.1361 26.4797C70.1436 28.3042 68.6655 29.7944 66.841 29.8019L37.0305 29.9242C35.206 29.9317 33.7158 28.4537 33.7083 26.6292L33.7079 26.5347C33.7004 24.7102 35.1785 23.22 37.0029 23.2125Z" fill="#FF735B"/>
<path d="M70.1385 26.4357C70.1809 36.4971 62.0591 44.6847 51.9977 44.7271C41.9364 44.7695 33.7487 36.6477 33.7063 26.5863" stroke="#005773" stroke-width="2" stroke-linecap="round" stroke-linejoin="round"/>
<path d="M60.836 41.0153C60.6051 40.8786 60.3453 40.8072 60.0882 40.8106C59.8609 40.8129 59.6385 40.8658 59.43 40.9721C57.1106 42.1781 54.6084 42.7985 51.9944 42.8096C49.3998 42.8216 46.9076 42.2331 44.5929 41.0563C44.3872 40.9516 44.161 40.9 43.9383 40.9036C43.6766 40.9056 43.419 40.9778 43.1907 41.1177C42.7636 41.3815 42.5038 41.8471 42.5099 42.3465L42.5146 43.4217C42.5152 43.9736 42.8356 44.4764 43.3364 44.717C46.0651 46.0104 48.9828 46.6597 52.0157 46.6483C55.0679 46.6376 58.003 45.9522 60.7336 44.6206C61.2288 44.3767 61.544 43.8732 61.5434 43.3213L61.5388 42.2461C61.5385 41.7436 61.2749 41.282 60.8437 41.0225L60.836 41.0153Z" fill="#FFEF7F"/>
<g clip-path="url(#clip0_527_3268)">
<path d="M4.91772 43.379L41.8737 59.2779C43.6601 60.0456 44.4771 62.1062 43.7057 63.884C42.9343 65.6618 40.8637 66.4749 39.0774 65.7072L2.12649 49.8083C0.340096 49.0406 -0.476974 46.98 0.294421 45.2022C1.06582 43.4244 3.13641 42.6113 4.9228 43.379H4.91772Z" fill="#00B645"/>
<path d="M23.4872 42.9492L26.72 44.3381L22.8782 51.1058L21.168 50.3684L23.4872 42.9492Z" fill="#B3B3B3"/>
<path d="M20.2579 41.5605L23.4856 42.9494L19.6439 49.7171L17.9336 48.9797L20.2579 41.5605Z" fill="#B3B3B3"/>
<path d="M17.0263 40.1719L20.259 41.5608L16.4173 48.3284L14.707 47.5911L17.0263 40.1719Z" fill="#B3B3B3"/>
<path d="M13.7919 38.7773L17.0247 40.1713L13.1829 46.9339L11.4727 46.2016L13.7919 38.7773Z" fill="#B3B3B3"/>
<path d="M10.5665 37.3887L13.7942 38.7776L9.95245 45.5452L8.24219 44.8079L10.5665 37.3887Z" fill="#B3B3B3"/>
<path d="M7.33293 36L10.5657 37.3889L6.72394 44.1566L5.01367 43.4192L7.33293 36Z" fill="#B3B3B3"/>
</g>
<defs>
<clipPath id="clip0_527_3268">
<rect width="44" height="30" fill="white" transform="translate(0 36)"/>
</clipPath>
</defs>
</svg>
