<svg width="80" height="80" viewBox="0 0 80 80" fill="none" xmlns="http://www.w3.org/2000/svg">
<circle cx="40" cy="40" r="40" fill="#EEF1EC"/>
<path d="M43.75 20H24.5825C22.05 20 20 22.05 20 24.5825V50.415C20 52.95 22.05 55 24.5825 55H38.165C36.765 52.7825 35.8325 50.1675 35.8325 47.1675V43.1C35.5825 43.25 35.3 43.3325 35 43.3325H26.6675C25.75 43.3325 25 42.5825 25 41.665C25 40.7475 25.75 40 26.6675 40H35C35.3175 40 35.6 40.0825 35.85 40.2325C35.9175 38.815 36.5825 37.515 37.6325 36.665H26.665C25.75 36.6675 25 35.9175 25 35C25 34.0825 25.75 33.3325 26.6675 33.3325H41.6675C42.3675 33.3325 42.9675 33.765 43.2175 34.3825L47.9675 32.765C48.085 32.715 48.2 32.6825 48.335 32.665V24.5825C48.3325 22.05 46.2825 20 43.75 20ZM33.3325 30H26.665C25.75 30 25 29.25 25 28.3325C25 27.415 25.75 26.665 26.6675 26.665H33.335C34.2525 26.665 35.0025 27.415 35.0025 28.3325C35.0025 29.25 34.25 30 33.3325 30Z" fill="#237233"/>
<path d="M58.87 38.897L50.12 35.922C49.7725 35.802 49.395 35.802 49.045 35.922L40.295 38.897C39.62 39.127 39.165 39.762 39.165 40.4745V47.172C39.165 55.617 48.53 59.697 48.93 59.867C49.14 59.9545 49.3625 59.9995 49.5825 59.9995C49.805 59.9995 50.0275 59.9545 50.235 59.867C50.635 59.697 60 55.617 60 47.172V40.4745C60 39.762 59.545 39.127 58.87 38.897ZM55.5 45.167L50.5 51.8345C50.21 52.222 49.7675 52.462 49.285 52.497C49.245 52.497 49.205 52.4995 49.1675 52.4995C48.7275 52.4995 48.3025 52.3245 47.99 52.012L44.6575 48.6795C44.0075 48.0295 44.0075 46.9745 44.6575 46.322C45.3075 45.6695 46.3625 45.672 47.015 46.322L48.99 48.297L52.8375 43.167C53.39 42.432 54.435 42.282 55.17 42.8345C55.9025 43.3845 56.0525 44.4295 55.5 45.167Z" fill="#87C067"/>
</svg>
