<svg width="424" height="78" viewBox="0 0 424 78" fill="none" xmlns="http://www.w3.org/2000/svg">
<path d="M0.717773 18.28H29.2178V20.77H0.717773V18.28ZM45.4178 8.92V6.22H55.2878V14.53C55.2878 15.1 55.2878 15.16 55.5878 15.16C55.7978 15.16 56.0078 15.16 56.0078 13.72C56.0078 13.24 55.9778 12.13 55.9478 11.65C57.0878 12.22 58.3178 12.61 59.5778 12.88C59.4578 16.54 58.4378 17.11 56.3078 17.11H53.2778C51.1178 17.11 50.7578 16.54 50.7578 14.62V8.35H50.1578V9.37C50.1578 14.35 47.3078 16.54 45.8678 17.65L45.3878 17.29L45.2078 18.46H59.1278C58.7078 24.13 56.9378 26.95 54.4478 29.32C56.4578 31.09 58.7078 31.78 59.8778 32.17L58.4978 34.15C56.0678 33.55 54.0878 32.83 51.6278 31.42C49.1078 32.89 46.0478 33.64 44.6978 33.97L43.4678 32.53C42.6278 33.64 41.6678 33.64 40.6778 33.64H36.4478L35.9078 31.36C36.6578 31.51 37.6478 31.69 38.4878 31.69C39.4778 31.69 39.4778 31.39 39.4778 30.46V20.68C39.3278 20.74 39.2378 20.74 38.6078 20.89V29.77H36.8978V21.25L36.4178 21.34C36.2378 25.93 35.4578 30.49 31.7978 33.7L29.9978 32.38C31.8278 29.35 31.8878 26.74 31.9778 22.33C31.8278 22.36 31.2278 22.48 30.9578 22.51L30.4778 18.61C30.8378 18.61 31.6178 18.58 31.9778 18.55V8.68H35.0378C35.3678 7.48 35.6078 5.65 35.6678 4.99L41.1878 6.04C40.7978 6.58 38.8478 8.35 38.4278 8.68H43.9778V16C45.0278 14.2 45.4178 12.37 45.4178 8.92ZM45.1178 17.11L43.9778 16.36V17.32C44.3378 17.26 44.5178 17.23 45.1178 17.11ZM39.4778 16.12L37.4678 17.86C37.4078 16.72 37.3178 14.83 36.4478 12.07V18.25C37.1978 18.19 38.9678 17.98 39.4778 17.92V16.12ZM44.6378 20.59V19.42C44.3978 19.51 44.3078 19.51 43.9778 19.6V29.92C43.9778 30.31 43.9778 31.51 43.6478 32.17C46.0478 31.51 47.8178 30.37 49.0478 29.44C48.5678 28.96 45.9578 26.14 45.3578 21.58L48.7778 20.59H44.6378ZM36.4478 12.01L37.7678 10.93C38.1278 11.38 38.8478 12.31 39.4778 13.36V10.78H36.4478V12.01ZM53.3078 20.59H50.3978C50.4878 22.96 50.9978 24.61 51.8678 26.17C53.2778 23.59 53.2778 21.61 53.3078 20.59ZM68.0978 9.79H72.8078V15.46C73.7378 13.57 74.6978 11.2 75.4778 5.11L81.6578 6.31C81.5978 6.55 81.4478 6.88 81.3878 7C80.8778 8.29 80.5778 8.98 79.8278 10.24H88.6778C88.7678 17.32 88.2278 28.09 87.6278 30.16C86.6078 33.7 84.0278 33.7 81.5378 33.7H76.1678L75.3278 31.42C76.3478 31.51 78.1478 31.66 79.2878 31.66C80.6978 31.66 81.5678 31.63 82.0478 30.01C83.1278 26.35 83.1278 16.87 83.1278 12.37H78.5678C76.2878 15.76 74.3978 17.32 73.7078 17.86L72.8078 17.29V30.97H66.4778V32.41H61.2278V9.79H64.2578C64.3778 9.19 64.6478 6.58 64.7978 4.99L70.7978 6.04C70.6478 6.34 69.2078 8.35 68.0978 9.79ZM66.4778 11.89V19.03H67.5878V11.89H66.4778ZM67.5878 28.87V21.16H66.4778V28.87H67.5878ZM82.2878 23.89L76.9478 27.52C76.6178 25.09 75.8378 21.1 74.3978 18.04L76.1678 16.72C76.8278 17.38 80.1278 20.65 82.2878 23.89ZM106.683 15.7L111.813 16.03C111.753 20.14 111.843 23.59 111.903 25.51C113.943 26.14 115.503 26.8 117.933 28.03L114.843 31.72C113.823 30.58 113.163 30.07 112.053 29.23C111.903 30.31 111.573 32.92 105.243 32.92C104.433 32.92 98.7027 32.89 98.7027 28.81C98.7027 26.17 101.523 24.34 105.183 24.34C105.873 24.34 106.443 24.4 106.953 24.43C106.863 22.99 106.683 19.66 106.683 15.7ZM107.103 26.92C106.653 26.83 106.113 26.71 105.693 26.71C104.463 26.71 102.993 27.04 102.993 28.57C102.993 29.98 103.983 30.43 105.093 30.43C106.323 30.43 107.253 29.77 107.253 28.96C107.253 28.66 107.133 27.25 107.103 26.92ZM118.263 12.85L115.923 16.63C114.543 15.58 111.903 13.6 107.493 11.92L108.873 10C111.993 10.72 115.293 11.74 118.263 12.85ZM92.4627 14.17V11.59C93.2427 11.65 94.5927 11.71 96.7227 11.71C97.5027 9.61 97.9827 8.35 98.8527 6.19L103.743 7.12C103.053 8.65 102.723 9.34 101.883 11.41C104.463 11.14 105.333 10.99 106.023 10.87L106.113 13.42C104.253 13.63 103.323 13.72 100.893 13.87C99.2727 18.22 97.4727 23.23 96.3927 28.57L91.3227 27.19C92.6427 23.08 94.0227 19.18 95.8227 14.11C94.0827 14.17 93.7227 14.17 92.4627 14.17ZM139.181 8.68L136.061 13.27C133.631 10.78 131.321 9.37 127.931 8.29L129.041 6.31C132.581 6.7 135.821 7.42 139.181 8.68ZM123.221 31.36L120.041 27.04C122.651 25.36 125.651 22.66 127.331 19.72L129.281 21.22C128.411 23.89 126.641 28.18 123.221 31.36ZM149.081 27.19L143.891 30.16C143.651 28.45 143.021 23.74 140.711 19.87L142.571 18.58C146.171 22.03 148.451 26.05 149.081 27.19ZM127.721 32.17L127.301 29.47C129.191 29.89 130.661 29.89 131.051 29.89C133.271 29.89 134.411 29.23 134.411 25.84C134.411 21.22 131.531 18.34 128.261 15.73L129.941 13.78C136.781 17.47 140.261 22.09 140.261 26.11C140.261 30.85 137.651 32.26 131.741 32.26C130.631 32.26 128.801 32.26 127.721 32.17ZM156.038 9.64L155.948 6.97C159.698 6.97 166.088 6.85 171.548 6.52L172.958 8.74C170.678 10.6 166.928 13.81 164.468 16.09C165.548 15.73 166.898 15.61 168.068 15.61C173.468 15.61 176.858 18.85 176.858 23.53C176.858 30.31 170.948 32.83 164.888 32.83C159.968 32.83 157.298 30.67 157.298 28.06C157.298 25.96 158.738 23.68 163.028 23.68C164.288 23.68 165.698 23.98 166.748 24.61C168.698 25.75 169.148 27.16 169.538 28.93C170.288 28.09 171.428 26.86 171.428 24.01C171.428 21.25 170.048 18.04 165.878 18.04C162.338 18.04 160.298 20.08 155.228 26.02L151.268 22.51C156.368 17.26 162.068 11.77 164.888 9.1C162.008 9.37 158.498 9.58 156.038 9.64ZM165.818 30.79C165.728 29.11 165.548 26.05 163.178 26.05C161.708 26.05 161.288 27.28 161.288 28.18C161.288 29.71 162.788 30.91 164.498 30.91C164.588 30.91 165.158 30.91 165.818 30.79ZM201.861 22.15L197.721 24.43C196.641 23.32 194.751 21.4 191.121 21.4C188.031 21.4 186.351 22.96 186.351 25.57C186.351 29.08 189.321 30.25 191.961 30.25C192.531 30.25 195.651 30.25 200.121 28.78L200.871 31.87C197.511 32.53 194.091 32.86 190.701 32.86C188.421 32.86 180.741 32.62 180.741 25.84C180.741 23.05 182.361 18.85 189.321 18.85C190.791 18.85 192.681 19 194.421 19.63C193.311 17.56 192.111 15.16 191.601 14.14C185.631 14.47 182.511 14.47 180.231 14.47V12.13C183.411 12.1 185.691 12.1 190.461 11.89C190.131 11.2 188.481 7.81 188.121 7.03L193.731 5.83C194.721 8.17 195.681 10.12 196.341 11.5C200.001 11.17 201.381 10.96 202.941 10.66V13C200.901 13.36 198.531 13.57 197.391 13.69C198.231 15.37 200.031 19.06 201.861 22.15ZM213.171 13.12V5.98L218.931 6.4C218.541 8.59 218.301 11.02 218.301 13.24C218.301 14.92 218.391 15.67 218.541 16.54C221.961 15.52 223.281 15.13 227.871 13.87L228.651 17.56C226.041 17.83 220.671 18.34 216.471 19.99C215.301 20.44 212.331 21.61 212.331 25.48C212.331 28.84 214.971 29.95 220.011 29.95C224.211 29.95 226.641 29.29 228.261 28.87V32.32C225.141 32.68 221.211 32.68 219.561 32.68C214.521 32.68 206.571 32.53 206.571 25.96C206.571 21.43 210.441 19.72 213.831 18.22C213.531 17.2 213.171 15.97 213.171 13.12ZM242.985 10.51H248.385V5.29H253.275V10.51H258.975V29.53C258.975 32.74 258.645 33.61 254.775 33.61H251.265L250.635 31.3C250.995 31.33 252.525 31.54 253.305 31.54C254.175 31.54 254.175 31.21 254.175 29.89V24.7L252.915 26.92C251.805 25.03 251.205 23.14 250.935 21.88C250.665 22.78 250.095 24.76 248.835 26.92L247.425 24.61V33.91H242.715V29.89L240.585 30.91C240.375 27.91 239.805 25.21 239.565 24.16V33.91H234.855V27.13C234.075 29.98 233.025 32.29 232.635 33.1L230.685 32.35C231.375 29.44 231.585 26.47 231.585 23.47L234.855 24.16V22.06C234.375 22.18 231.765 22.81 231.495 22.84L230.805 19C232.185 19 232.305 19 233.025 18.97C233.625 17.89 233.655 17.83 234.405 16.36C232.695 13.45 232.215 12.61 230.685 10.51L231.975 8.95C232.425 9.28 232.635 9.46 233.145 9.88C233.625 8.17 234.015 6.67 234.315 4.93L238.815 6.55C238.755 6.94 235.635 11.23 235.215 11.8C235.305 11.89 236.085 12.61 236.235 12.76C237.975 9.34 237.975 9.31 238.425 8.26L242.985 10.51ZM247.425 12.61V23.35C248.385 21.16 248.385 16.42 248.385 14.47V12.61H247.425ZM242.715 18.13V11.17C241.575 12.67 240.405 14.17 239.175 15.61L241.095 14.92C241.665 15.94 241.755 16.18 242.715 18.13ZM254.175 12.61H253.275V13.45C253.275 19.09 253.485 21.46 254.175 23.17V12.61ZM242.715 25.12V21.73L241.155 22.42C241.455 22.87 242.115 23.98 242.715 25.12ZM239.565 20.83V23.05L240.765 22.54C240.645 21.88 240.525 21.22 240.375 20.59C240.135 20.65 240.075 20.68 239.565 20.83ZM239.145 15.64C238.305 16.63 236.895 18.28 236.475 18.76C238.365 18.64 238.575 18.61 239.865 18.49C239.685 17.77 239.445 16.84 239.145 15.64ZM270.135 23.5V33.97H264.885V25.66C263.475 27.79 262.635 28.57 262.125 29.05L260.655 27.16C262.125 25.09 263.415 22.42 264.705 16.15H261.225V14.05H264.885V10.39C263.505 10.51 262.815 10.54 261.765 10.57L260.865 8.38C264.405 8.14 269.295 6.73 271.635 5.44L273.525 8.92C273.075 9.07 271.515 9.43 270.135 9.7V14.05H272.715V16.15H270.345C270.675 18.1 271.515 20.98 273.795 24.22L272.265 26.02C271.455 25.24 270.795 24.46 270.135 23.5ZM277.185 12.22H283.995L282.045 11.5C282.915 9.13 283.365 7.18 283.635 5.05L289.995 7.21C289.245 7.9 285.405 11.56 284.505 12.22H288.795V23.11H285.465V31.21C285.465 31.45 285.495 31.51 285.705 31.51C286.095 31.51 286.125 31.51 286.155 31.36C286.185 31.21 286.185 29.5 286.185 29.23V26.29C287.835 27.25 288.495 27.61 290.265 28.18C289.785 33.4 288.735 33.61 286.035 33.61H283.485C280.665 33.61 280.485 32.32 280.485 30.61V23.11H279.765C279.645 26.32 279.465 31.15 272.085 33.97L270.465 32.44C273.885 29.89 274.755 27.01 274.845 23.11H273.435V12.22H275.535C275.025 9.61 274.635 8.38 273.765 6.1L275.775 5.17C278.385 7.12 280.785 9.94 281.085 10.33L277.185 12.22ZM283.485 21.01V14.35H278.685V21.01H283.485ZM299.275 13.12V5.98L305.035 6.4C304.645 8.59 304.405 11.02 304.405 13.24C304.405 14.92 304.495 15.67 304.645 16.54C308.065 15.52 309.385 15.13 313.975 13.87L314.755 17.56C312.145 17.83 306.775 18.34 302.575 19.99C301.405 20.44 298.435 21.61 298.435 25.48C298.435 28.84 301.075 29.95 306.115 29.95C310.315 29.95 312.745 29.29 314.365 28.87V32.32C311.245 32.68 307.315 32.68 305.665 32.68C300.625 32.68 292.675 32.53 292.675 25.96C292.675 21.43 296.545 19.72 299.935 18.22C299.635 17.2 299.275 15.97 299.275 13.12ZM325.311 16.06H337.911V27.16H325.311V16.06ZM332.901 18.16H330.321V25.03H332.901V18.16ZM318.651 6.37H344.601V29.53C344.601 32.2 343.911 33.55 340.521 33.55H334.341L333.621 31.09C334.461 31.24 335.691 31.45 337.251 31.45C338.751 31.45 339.261 31.18 339.261 29.62V8.5H323.991V33.79H318.651V6.37ZM324.831 11.11H338.421V13.24H324.831V11.11ZM358.098 23.08L356.538 25.06C356.178 24.52 355.848 24.07 355.368 23.23V33.88H349.998V24.88C348.888 26.41 348.258 27.04 347.538 27.76L346.668 25.78C347.358 24.55 348.228 22.69 348.948 20.11C349.848 16.87 349.998 14.44 349.998 13.72H347.358V11.62H349.998V5.38H355.368V11.62H357.558V13.72H355.368C355.668 18.49 356.808 21.01 358.098 23.08ZM368.928 12.61V14.59H374.508V16.72H368.928V18.7H375.828V20.83H369.738C370.008 22.09 370.248 22.84 370.638 23.77C371.688 22.63 372.498 21.52 372.888 20.92L376.098 23.92C375.978 24.01 375.708 24.16 375.408 24.34C374.538 24.85 373.338 25.48 371.808 26.14C373.428 28.93 375.498 30.94 376.308 31.75L374.898 33.13C371.328 31.06 369.738 29.17 368.928 28.21V29.89C368.928 32.17 368.418 33.64 364.608 33.64H360.408L359.658 31.33C360.108 31.39 361.488 31.57 362.238 31.57C363.438 31.57 363.588 31.27 363.588 30.22V28.33C362.238 29.44 359.568 31.21 357.858 32.29L356.088 29.11C358.458 28.12 359.388 27.73 362.928 25.99L363.588 27.19V24.28L360.378 26.53C360.108 25.75 359.028 23.2 358.758 22.63C358.578 22.24 358.278 21.7 358.098 21.43L358.908 20.83H357.408V18.7H363.588V16.72H358.788V14.59H363.588V12.61H358.188V10.51H360.738C360.648 10.15 359.928 7.54 358.758 5.92L360.468 5.02C362.508 5.92 364.998 7.33 366.468 8.65L362.508 10.51H368.058L366.738 9.85C367.488 8.68 367.968 7.18 368.568 4.9L374.448 7.09C373.128 8.26 371.568 9.46 370.038 10.51H375.168V12.61H368.928ZM363.588 22.84V20.83H360.348C361.428 21.4 362.268 21.94 363.588 22.84ZM385.111 31.36L379.891 31.99C379.591 29.44 379.351 26.95 379.351 21.19C379.351 12.4 379.921 9.01 380.221 6.97L385.441 7.63C385.111 9.16 384.481 12.19 384.481 20.86C384.481 26.68 384.811 29.26 385.111 31.36ZM403.651 25.84V30.52C401.161 30.76 398.491 30.91 395.971 30.91C389.341 30.91 386.701 30.16 386.701 26.68C386.701 26.14 386.701 24.04 388.771 21.67L390.751 22.69C390.301 23.38 389.791 24.16 389.791 25.24C389.791 26.47 390.511 27.01 393.361 27.01C397.741 27.01 401.191 26.41 403.651 25.84ZM387.721 12.49L387.391 9.85C391.231 9.07 395.371 8.68 399.301 8.68C400.411 8.68 400.981 8.71 402.031 8.86V13.57C399.721 12.73 397.021 12.16 392.881 12.16C390.091 12.16 388.531 12.37 387.721 12.49ZM418.425 29.29L414.135 33.25C413.325 31.63 411.165 27.34 407.535 23.41L409.125 21.79C412.245 23.74 414.735 25.57 418.425 29.29ZM62.0831 62.5V72.97H56.8331V64.66C55.4231 66.79 54.5831 67.57 54.0731 68.05L52.6031 66.16C54.0731 64.09 55.3631 61.42 56.6531 55.15H53.1731V53.05H56.8331V49.39C55.4531 49.51 54.7631 49.54 53.7131 49.57L52.8131 47.38C56.3531 47.14 61.2431 45.73 63.5831 44.44L65.4731 47.92C65.0231 48.07 63.4631 48.43 62.0831 48.7V53.05H64.6631V55.15H62.2931C62.6231 57.1 63.4631 59.98 65.7431 63.22L64.2131 65.02C63.4031 64.24 62.7431 63.46 62.0831 62.5ZM69.1331 51.22H75.9431L73.9931 50.5C74.8631 48.13 75.3131 46.18 75.5831 44.05L81.9431 46.21C81.1931 46.9 77.3531 50.56 76.4531 51.22H80.7431V62.11H77.4131V70.21C77.4131 70.45 77.4431 70.51 77.6531 70.51C78.0431 70.51 78.0731 70.51 78.1031 70.36C78.1331 70.21 78.1331 68.5 78.1331 68.23V65.29C79.7831 66.25 80.4431 66.61 82.2131 67.18C81.7331 72.4 80.6831 72.61 77.9831 72.61H75.4331C72.6131 72.61 72.4331 71.32 72.4331 69.61V62.11H71.7131C71.5931 65.32 71.4131 70.15 64.0331 72.97L62.4131 71.44C65.8331 68.89 66.7031 66.01 66.7931 62.11H65.3831V51.22H67.4831C66.9731 48.61 66.5831 47.38 65.7131 45.1L67.7231 44.17C70.3331 46.12 72.7331 48.94 73.0331 49.33L69.1331 51.22ZM75.4331 60.01V53.35H70.6331V60.01H75.4331ZM100.183 56.26V59.65H108.973V61.78H100.183V70.15H111.463V72.25H83.5631V70.15H88.9031C88.6631 68.62 88.0031 65.95 86.8931 63.28L88.8731 62.26C90.7631 63.82 92.9231 66.01 94.6631 68.26V61.78H85.8431V59.65H94.6631V56.26H89.8331V55.09C86.9831 56.68 85.0931 57.43 84.0131 57.85L82.6031 56.2C86.9831 53.68 91.5431 50.05 93.5231 44.59H101.593C102.283 48.28 106.363 53.02 112.213 56.08L110.983 57.79C107.863 56.62 106.333 55.84 105.163 55.15V56.26H100.183ZM94.6631 70.15V68.32L90.1631 70.15H94.6631ZM91.4231 54.13H103.513C100.093 51.85 98.3831 49.72 97.5131 48.67C96.7631 49.63 94.9931 51.85 91.4231 54.13ZM102.823 62.05L109.003 64.42C108.703 64.9 105.823 67.96 102.673 70.12L100.723 69.01C102.343 65.65 102.793 62.44 102.823 62.05ZM138.703 59.11H134.383C131.413 59.11 130.933 58.81 130.933 56.26V53.68C129.103 57.91 125.263 59.47 122.503 60.37L121.423 59.02V60.1C121.183 60.28 120.523 60.64 120.223 60.79V68.92C120.223 70.93 120.043 72.64 117.043 72.64H113.203L112.843 70.33C113.533 70.45 114.073 70.51 114.463 70.51C115.063 70.51 115.243 70.27 115.243 69.28V63.58C114.253 64.12 114.133 64.18 113.563 64.45L112.633 60.52C113.203 60.43 113.623 60.34 115.243 59.89V52.66H113.203V50.53H115.243V44.29H120.223V50.53H121.423V52.66H120.223V58.18C120.463 58.09 120.553 58.06 121.423 57.73V58.66C122.323 58.09 124.453 56.68 125.353 54.04H122.023V47.92H129.133V44.29H134.383V47.92H141.703V54.04H137.923C139.483 54.73 140.143 55 141.703 55.51C141.373 56.95 140.863 59.11 138.703 59.11ZM136.033 50.05V56.38C136.033 56.89 136.033 57.01 136.453 57.01C137.113 57.04 137.293 56.98 137.383 56.35C137.443 55.84 137.473 55.3 137.533 54.04H136.843V50.05H136.033ZM130.933 51.58V50.05H126.913V50.86L130.933 51.58ZM134.383 62.65V70.12H141.793V72.25H121.333V70.12H128.983V62.65H123.373V60.52H140.023V62.65H134.383ZM165.163 56.05V59.38H171.733V61.48H165.163V68.95C165.163 70.9 164.893 72.7 161.833 72.7H156.373L155.953 70.63C155.083 71.47 154.483 71.92 153.883 72.37L152.143 71.26C152.833 70.33 153.913 68.86 154.753 64.21C154.813 63.94 154.993 62.86 155.023 62.59L159.853 63.82V61.48H153.343C153.613 62.86 153.613 64.15 153.613 64.42C153.613 68.95 151.783 68.95 150.493 68.95H149.023L148.303 66.25V72.88H143.773V45.1H154.393V46.66L152.683 53.26C155.233 50.86 157.303 47.98 158.323 44.62H166.543C167.023 46.42 168.073 49.12 172.393 53.92L171.103 55.6C170.293 55.12 170.173 55.06 169.903 54.88V56.05H165.163ZM159.853 59.38V56.05H155.203V54.58C154.123 55.21 153.793 55.36 153.373 55.54L152.413 54.31L151.723 56.98C152.623 58.75 152.983 59.89 153.253 61.18V59.38H159.853ZM156.253 53.92H168.343C165.343 51.94 163.723 50.17 162.403 48.58C160.903 50.56 158.773 52.24 156.253 53.92ZM159.853 68.95V65.77C158.743 67.63 157.123 69.49 156.253 70.33C156.913 70.45 157.753 70.57 158.383 70.57C159.853 70.57 159.853 70.27 159.853 68.95ZM149.653 47.23H148.303V66.22C148.513 66.31 148.603 66.34 148.963 66.34C149.713 66.34 149.713 66.07 149.713 65.14C149.713 60.94 148.903 58.33 148.333 56.56L149.653 47.23ZM172.393 68.95L167.383 72.1C167.143 70.99 166.693 68.8 166.483 67.84C166.243 66.7 165.643 64.66 165.403 63.79L167.203 62.86C169.723 65.41 171.013 66.85 172.393 68.95ZM200.833 56.71L195.853 60.25C195.463 57.13 194.413 52.99 192.343 49.75L194.683 48.01C196.663 50.08 199.123 53.35 200.833 56.71ZM200.263 48.82L198.193 50.47C197.323 49.09 196.063 47.62 195.073 46.66L196.543 45.49C197.893 46.45 199.123 47.56 200.263 48.82ZM174.013 56.29L173.413 53.59C175.633 52.87 177.133 52.48 179.293 52.09C179.923 50.29 180.973 47.23 181.813 45.04L186.613 46.6C186.223 47.59 185.923 48.49 184.933 51.46C185.683 51.4 186.583 51.4 187.093 51.4C191.503 51.4 193.153 53.32 193.153 58.33C193.153 61.51 192.703 65.77 191.503 68.35C191.113 69.22 189.793 71.77 186.913 71.77C184.813 71.77 182.353 70.45 180.973 69.7L181.813 67.06C183.103 68.08 184.183 68.68 184.723 68.68C185.383 68.68 185.713 68.08 185.983 67.57C186.763 66.1 187.993 62.8 187.993 57.19C187.993 54.22 187.573 53.5 185.653 53.5C185.323 53.5 184.753 53.53 184.243 53.59C182.653 58.48 180.973 63.7 178.513 71.86L173.263 69.97C174.913 64.87 176.653 59.8 178.393 54.73C177.313 55.03 175.753 55.48 174.013 56.29ZM202.813 46.66L200.803 48.31C200.023 47.2 199.003 46.06 197.863 45.16L199.423 43.9C200.533 44.62 201.823 45.64 202.813 46.66ZM209.413 59.05H225.403V55.9H209.413V59.05ZM225.133 47.92L229.303 49.6C229.363 49.63 226.693 52.21 224.713 53.8H230.863V59.8H226.963C226.153 63.91 223.633 66.46 220.933 68.35C223.153 69.25 227.443 70.57 232.003 70.84L230.683 72.94C227.623 72.73 222.523 72.43 217.243 70.27C215.473 71.02 209.983 72.88 204.283 73L202.903 70.93C205.123 70.81 208.903 70.51 213.553 68.38C211.363 66.91 209.923 65.2 208.933 62.2L211.873 61.18H206.623V59.8H203.923V53.8H207.673C206.923 51.46 206.143 50.23 205.603 49.39L207.043 48.43C206.803 48.43 205.753 48.46 205.603 48.46L204.673 46.36C211.153 46.36 221.023 45.97 226.873 44.02L229.543 47.47C229.333 47.53 229.123 47.56 229.003 47.56C227.653 47.71 226.873 47.8 225.133 47.92ZM212.743 49.09L213.703 48.34C212.563 48.37 209.473 48.4 208.213 48.43C208.393 48.52 211.243 50.29 212.773 51.85L209.053 53.8H214.783C214.723 53.59 213.583 50.41 212.743 49.09ZM219.823 51.97L216.793 53.8H222.853L221.263 53.11C222.013 51.52 222.523 49.81 222.913 48.07C220.153 48.16 217.273 48.28 215.833 48.31C217.303 49.33 219.133 50.86 219.823 51.97ZM220.303 61.18H214.453C215.023 63.34 216.103 65.05 217.273 66.13C218.563 65.02 219.583 63.94 220.303 61.18ZM240.793 68.08L235.483 68.74C235.123 65.59 235.033 62.41 235.033 59.26C235.033 54.31 235.273 50.92 236.113 46.24L241.483 46.87C240.523 52.18 240.313 56.86 240.313 60.7C240.313 64.24 240.493 65.74 240.793 68.08ZM250.393 45.1L256.003 45.49C256.003 48.25 256.033 50.44 256.063 51.49C259.033 51.16 259.663 51.01 260.353 50.86V53.14C258.763 53.47 256.723 53.68 256.093 53.74C256.123 54.97 256.153 56.14 256.153 57.67V61.99C256.153 70 248.623 71.53 243.823 72.37L243.133 70.12C245.353 69.52 248.803 68.56 249.943 65.92C250.723 64.15 250.723 63.49 250.723 54.1C248.593 54.16 247.363 54.19 245.953 54.19H242.803V52H247.423C248.773 52 249.103 52 250.723 51.91C250.693 48.64 250.513 46.72 250.393 45.1ZM282.871 47.11L280.741 52.33C276.061 48.79 272.101 47.77 269.161 47.11L270.151 44.8C272.401 44.89 276.871 45.07 282.871 47.11ZM269.821 72.34L269.311 69.79C274.531 69.73 281.551 69.31 281.551 62.65C281.551 58.3 278.041 57.61 276.541 57.61C275.611 57.61 274.051 57.79 272.071 59.26C269.641 61.06 268.921 62.86 268.291 64.39L263.821 63.58C264.271 60.1 264.931 54.82 266.041 49.3L271.651 50.38C270.931 52.42 270.181 56.05 269.881 57.58C271.171 56.68 273.721 54.94 278.251 54.94C282.931 54.94 287.311 57.1 287.311 62.59C287.311 71.98 274.651 72.28 269.821 72.34ZM316.623 64.87L318.243 66.64C314.823 70.27 311.883 70.27 311.373 70.27C308.523 70.27 307.623 68.32 307.623 66.07C307.623 64.78 307.773 62.08 307.833 60.7C307.893 59.8 308.253 55.21 308.253 54.97C308.253 54.61 308.253 52.84 306.783 52.84C305.883 52.84 303.933 53.83 300.783 56.83V71.8L295.413 71.86C295.473 69.64 295.503 65.17 295.533 62.74C294.093 64.51 292.833 66.25 292.323 66.94L289.833 62.98C290.673 62.26 294.663 58.69 295.563 57.88C295.563 57.28 295.593 54.34 295.593 53.68C294.603 53.74 292.893 53.83 291.123 54.07V51.37C293.823 51.28 294.813 51.22 295.593 51.19V45.25L301.083 45.64C300.873 47.71 300.813 51.16 300.813 53.59C303.453 51.67 306.483 49.66 309.333 49.66C310.923 49.66 313.713 50.44 313.713 54.31C313.713 55.66 313.143 62.32 313.143 63.82C313.143 65.59 313.203 66.22 314.163 66.22C315.243 66.22 316.203 65.29 316.623 64.87ZM335.957 57.82H335.327C335.357 58.36 335.417 60.97 335.447 61.96C338.807 62.95 341.057 64.03 344.297 66.07L341.387 70.66C338.867 68.08 337.397 67 335.507 65.83C335.537 68.8 335.537 71.98 328.367 71.98C326.627 71.98 324.227 71.71 322.697 70.72C321.947 70.24 320.717 69.25 320.717 67.09C320.717 62.68 325.427 61.15 329.987 61.15C329.957 60.76 329.897 58.69 329.837 57.82H327.347C324.437 57.82 323.807 57.82 321.527 57.76V55.39C323.567 55.51 328.637 55.51 328.757 55.51H329.777V51.85H325.157C323.897 51.85 322.187 51.82 320.807 51.76V49.51C322.877 49.57 323.627 49.6 325.787 49.6H329.717C329.657 46.48 329.717 45.85 329.717 44.95L335.267 45.28C335.237 45.97 335.237 48.67 335.237 49.6H336.107C338.027 49.6 341.237 49.45 343.037 49.3V51.61C339.677 51.79 337.007 51.85 336.107 51.85H335.267C335.267 52.39 335.297 54.94 335.297 55.51C337.127 55.51 339.617 55.42 342.497 55.24V57.64C339.167 57.82 336.947 57.82 335.957 57.82ZM330.047 63.94C329.687 63.91 329.207 63.88 329.027 63.88C326.207 63.88 325.397 65.68 325.397 67.12C325.397 68.86 326.687 69.4 327.857 69.4C330.167 69.4 330.137 68.2 330.047 63.94ZM346.527 52.18V49.84C350.157 49.51 355.767 49.27 359.847 49.12C359.727 46.96 359.727 46.72 359.547 44.59L365.277 45.01C365.277 47.05 365.307 48.19 365.307 48.97C368.067 48.91 369.777 48.85 372.267 48.85V51.22C370.467 51.22 369.237 51.22 365.367 51.31C365.397 52.81 365.517 58.99 365.517 60.1C365.517 69.97 357.537 71.92 353.067 72.64L352.077 70.54C358.347 69.28 359.427 66.16 360.117 64.3C358.407 66.04 356.187 66.04 355.947 66.04C354.627 66.04 350.997 65.53 350.997 59.83C350.997 56.44 352.557 52.93 356.547 52.93C358.407 52.93 359.397 53.65 360.027 54.1C360.027 53.11 359.967 51.85 359.967 51.43C356.937 51.55 350.247 51.79 346.527 52.18ZM357.837 55.72C355.737 55.72 355.617 58.48 355.617 59.32C355.617 59.74 355.677 62.68 357.807 62.68C359.127 62.68 360.147 61.48 360.147 59.2C360.147 57.67 359.517 55.72 357.837 55.72Z" fill="#237233"/>
</svg>
