<svg width="149" height="30" viewBox="0 0 149 30" fill="none" xmlns="http://www.w3.org/2000/svg">
<path d="M28.3255 7.97L23.3155 10.88C22.1755 6.17 20.0155 3.2 18.6955 1.55L20.4655 0.319998C25.2055 3.26 27.4255 6.59 28.3255 7.97ZM15.5755 27.62L14.7055 25.46C16.4155 25.1 20.4655 24.32 20.4655 19.34C20.4655 16.1 18.3355 13.79 13.7455 13.79V14.96C13.7455 22.7 13.7455 23.57 13.6255 24.32C13.4155 25.58 12.8455 27.62 8.52547 27.62C5.91547 27.62 0.965469 26.75 0.965469 21.5C0.965469 19.82 1.44547 17.36 3.90547 15.11C5.52547 13.61 7.02547 13.04 8.79547 12.35V8.57C7.41547 8.6 6.57547 8.63 5.61547 8.63H1.59547V6.35H8.82547C8.82547 5.27 8.85547 1.67 8.85547 1.16L13.8355 1.34C13.7755 2.9 13.7455 4.43 13.7455 6.17C16.1455 6.05 17.5555 5.96 20.4055 5.72V8C19.2955 8.09 17.7655 8.21 13.7455 8.39V11.36C14.4955 11.3 15.2455 11.3 15.6355 11.3C21.3955 11.3 25.8955 13.91 25.8955 19.4C25.8955 25.82 19.7755 26.96 15.5755 27.62ZM8.79547 14.9C7.71547 15.56 5.07547 17.21 5.07547 21.8C5.07547 22.94 5.37547 25.25 7.35547 25.25C7.86547 25.25 8.49547 25.07 8.70547 24.23C8.79547 23.9 8.79547 22.16 8.79547 14.9ZM46.1734 12.26V15.65H54.9634V17.78H46.1734V26.15H57.4534V28.25H29.5534V26.15H34.8934C34.6534 24.62 33.9934 21.95 32.8834 19.28L34.8634 18.26C36.7534 19.82 38.9134 22.01 40.6534 24.26V17.78H31.8334V15.65H40.6534V12.26H35.8234V11.09C32.9734 12.68 31.0834 13.43 30.0034 13.85L28.5934 12.2C32.9734 9.68 37.5334 6.05 39.5134 0.589998H47.5834C48.2734 4.28 52.3534 9.02 58.2034 12.08L56.9734 13.79C53.8534 12.62 52.3234 11.84 51.1534 11.15V12.26H46.1734ZM40.6534 26.15V24.32L36.1534 26.15H40.6534ZM37.4134 10.13H49.5034C46.0834 7.85 44.3734 5.72 43.5034 4.67C42.7534 5.63 40.9834 7.85 37.4134 10.13ZM48.8134 18.05L54.9934 20.42C54.6934 20.9 51.8134 23.96 48.6634 26.12L46.7134 25.01C48.3334 21.65 48.7834 18.44 48.8134 18.05ZM74.6434 26.96L73.9234 24.59C76.2634 23.96 81.4834 22.52 81.4834 13.94C81.4834 7.37 77.6434 5.96 76.1134 5.39C75.8134 8.84 75.2434 15.05 73.6834 19.61C72.1534 24.11 69.9634 25.73 67.0534 25.73C62.3734 25.73 59.8834 21.2 59.8834 16.31C59.8834 9.41 64.5634 2.57 74.1934 2.57C79.8634 2.57 87.0934 5.15 87.0934 14.33C87.0934 24.62 78.1534 26.3 74.6434 26.96ZM70.7134 5.39C69.4534 5.87 68.1634 6.38 66.7234 8.42C64.8634 11.09 64.3234 14.57 64.3234 17.69C64.3234 18.62 64.3234 22.88 66.3034 22.88C67.9834 22.88 70.0234 16.01 70.7134 5.39ZM110.96 7.43L112.85 6.5C113.87 7.37 117.05 10.4 118.73 12.38L114.29 14.78H115.04V26C115.04 26.54 115.04 26.69 115.46 26.69C115.79 26.69 115.85 26.57 115.85 26.3C115.88 25.61 115.91 24.05 115.91 22.1C116.72 22.52 117.35 22.76 118.73 23.06C118.49 28.01 117.8 28.64 115.61 28.64H112.97C110.87 28.64 110.75 27.74 110.75 26.15V14.78H113.45C113.3 14.09 113.15 13.43 112.82 12.35C108.86 13.01 102.32 13.73 99.14 14C99.02 14 98.9 14.03 98.81 14.03L97.97 10.58C99.98 10.61 101.09 10.61 102.05 10.61C102.62 8.33 102.86 7.43 103.13 6.05H97.82V3.92H105.08V0.47H110.51V3.92H118.19V6.05H109.76C108.71 7.58 107.39 9.23 106.46 10.37C107.72 10.31 111.08 10.07 112.04 9.98C111.56 8.63 111.29 8.12 110.96 7.43ZM97.91 3.59L94.37 7.52C93.05 5 91.4 2.9 90.32 1.7L91.79 0.319998C93.5 1.07 96.17 2.45 97.91 3.59ZM96.41 14.96L98.3 16.61C96.98 20.15 93.62 27.23 92.39 28.94L89.24 25.82C91.94 22.4 94.4 18.83 96.41 14.96ZM109.97 28.91H105.62V14.78H109.97V28.91ZM97.25 10.7L93.83 14.99C92.54 12.71 90.77 10.43 89.51 9.05L90.83 7.46C91.25 7.64 94.4 9.05 97.25 10.7ZM96.74 29.12L95.36 27.65C98.9 25.22 99.98 22.25 99.98 16.22V14.78H104.84V15.17C104.84 16.58 104.84 18.44 104.78 19.67C104.48 26.03 99.83 28.07 96.74 29.12ZM146.51 20.87L148.13 22.64C144.71 26.27 141.77 26.27 141.26 26.27C138.41 26.27 137.51 24.32 137.51 22.07C137.51 20.78 137.66 18.08 137.72 16.7C137.78 15.8 138.14 11.21 138.14 10.97C138.14 10.61 138.14 8.84 136.67 8.84C135.77 8.84 133.82 9.83 130.67 12.83V27.8L125.3 27.86C125.36 25.64 125.39 21.17 125.42 18.74C123.98 20.51 122.72 22.25 122.21 22.94L119.72 18.98C120.56 18.26 124.55 14.69 125.45 13.88C125.45 13.28 125.48 10.34 125.48 9.68C124.49 9.74 122.78 9.83 121.01 10.07V7.37C123.71 7.28 124.7 7.22 125.48 7.19V1.25L130.97 1.64C130.76 3.71 130.7 7.16 130.7 9.59C133.34 7.67 136.37 5.66 139.22 5.66C140.81 5.66 143.6 6.44 143.6 10.31C143.6 11.66 143.03 18.32 143.03 19.82C143.03 21.59 143.09 22.22 144.05 22.22C145.13 22.22 146.09 21.29 146.51 20.87Z" fill="#237233"/>
</svg>
