<svg width="176" height="39" viewBox="0 0 176 39" fill="none" xmlns="http://www.w3.org/2000/svg">
<path d="M27.4464 9.22L25.3164 10.81C24.6864 9.7 23.6964 8.14 22.3164 6.91L23.7864 5.77C24.5964 6.34 26.2164 7.63 27.4464 9.22ZM6.65641 20.32L8.51641 21.67C6.74641 23.68 6.53641 24.88 6.53641 25.51C6.53641 27.88 9.83641 27.88 12.7164 27.88C15.5664 27.88 19.2864 27.7 24.8664 26.23V31.33C22.7364 31.63 20.2164 31.99 14.9664 31.99C10.4064 31.99 3.26641 31.78 3.26641 26.8C3.26641 23.5 5.48641 21.4 6.65641 20.32ZM30.1464 7.12L28.0464 8.74C27.6264 8.11 26.6664 6.76 25.1664 5.47L26.6664 4.33C27.9564 5.11 29.0364 5.92 30.1464 7.12ZM23.1864 8.26L21.7164 13.33C18.4464 11.89 12.7164 10.57 5.63641 10.36V8.05C10.4064 7.42 13.2264 7.42 13.9164 7.42C17.0064 7.42 20.1264 7.72 23.1864 8.26ZM45.0899 24.91L43.5599 26.62C42.8699 26.02 41.8499 25.06 40.4699 23.32V33.88H35.2499V25.06C33.5699 27.25 31.9799 28.57 31.3199 29.11L30.0299 27.43C32.9699 23.89 34.6499 19.96 35.1899 16.24H30.6299V14.11H35.2499V10.45C33.1799 10.63 32.2499 10.63 31.2599 10.66L30.3299 8.65C33.0299 8.38 37.4999 7.66 42.1199 5.44L44.2499 8.98C43.7699 9.13 40.9499 9.7 40.4699 9.79V14.11H44.6399V16.24H40.5299C41.4599 19.6 43.2899 23.08 45.0899 24.91ZM45.4199 7.06H50.7299V28.15H45.4199V7.06ZM52.1999 5.32H57.6599V30.28C57.6599 33.73 55.4099 33.73 53.3699 33.73H47.6999L47.0699 31.21C48.2399 31.45 49.4399 31.6 50.6399 31.6C52.1999 31.6 52.1999 30.73 52.1999 30.04V5.32ZM77.6699 23.68V32.8H72.2099V23.68H67.2899C66.8099 26.71 65.8499 29.62 61.7099 33.91L60.0899 32.32C61.6199 29.47 62.2499 26.92 62.2499 20.11V6.31H87.8099V29.26C87.8099 33.04 86.3999 33.55 83.4599 33.55H78.8099L78.2699 31.24C79.7699 31.48 80.7599 31.48 80.8499 31.48C81.4199 31.48 82.3499 31.48 82.3499 29.83V23.68H77.6699ZM77.6699 16.12V21.55H82.3499V16.12H77.6699ZM72.2099 21.55V16.12H67.6799V19.24C67.6799 19.99 67.6499 20.8 67.5599 21.55H72.2099ZM77.6699 8.44V14.02H82.3499V8.44H77.6699ZM72.2099 14.02V8.44H67.6799V14.02H72.2099ZM112.108 8.74L114.058 10.09C111.658 23.2 105.658 28.84 92.5476 31.78L91.3476 29.68C99.6276 27.49 105.988 23.29 107.848 10.93H91.2576V8.74H112.108ZM141.854 8.56V31.42H136.334V30.01H124.124V31.42H118.574V8.56H141.854ZM124.124 27.82H136.334V10.75H124.124V27.82ZM173.04 18.01V21.07H146.28V18.01H173.04Z" fill="#237233"/>
</svg>
