<svg width="446" height="78" viewBox="0 0 446 78" fill="none" xmlns="http://www.w3.org/2000/svg">
<path d="M29.4365 18.61L28.3865 20.23H31.1165V22.36H26.2565V29.8C26.2565 31.93 26.0465 33.67 22.9565 33.67H16.4165L15.8165 31.39C16.9265 31.6 18.2765 31.75 18.9065 31.75C20.6165 31.75 20.7665 30.61 20.7665 29.74V22.36H2.67648V20.23H5.13648L4.05648 18.58C8.46648 17.95 11.4665 16.24 12.6365 14.32H8.61648V14.92H3.42648V7.63H13.9265V5.38H19.4765V7.63H30.4265V14.92H25.1165V14.32H20.3165C22.0265 16.39 25.1165 17.89 29.4365 18.61ZM7.98648 20.23H25.0865C21.8465 19.69 18.8165 18.58 16.4765 16.63C13.7765 19.12 10.4465 19.84 7.98648 20.23ZM13.3565 10.3H19.4465V10.51C19.4465 10.69 19.2365 11.74 19.0865 12.22H25.1165V9.64H8.61648V12.22H13.2965C13.3565 11.74 13.3565 11.02 13.3565 10.3ZM5.85648 23.83H17.7665V30.82H10.8065V32.26H5.85648V23.83ZM12.7865 25.93H10.8065V28.69H12.7865V25.93ZM41.0765 12.37V33.94H35.7065V18.91C34.5965 19.99 34.0865 20.44 33.5165 20.92L31.9865 19.51C36.6965 13.99 38.2865 5.59 38.3465 5.14L44.0465 6.22C43.9865 6.43 43.8365 6.82 43.8065 6.94C42.8465 9.76 41.5265 11.68 41.0765 12.37ZM57.3665 12.55H61.1465V14.65H57.3665V30.13C57.3665 33.28 55.5065 33.58 53.1965 33.58H46.9865L46.1165 31.27C47.5265 31.42 48.5465 31.54 49.6865 31.54C51.8165 31.54 51.8165 31.03 51.8165 29.8V14.65H41.8865V12.55H51.8165V5.29H57.3665V12.55ZM50.9765 24.52L45.5165 28.15C44.7665 25.12 43.1465 19.99 41.9765 17.92L43.7165 16.84C46.8365 19.51 50.5565 23.98 50.9765 24.52ZM71.4365 10.12H74.0165V5.35H79.5365V10.12H88.4465V12.22H79.5365V18.52H91.1165V20.65H83.4065V30.82C83.4065 31.6 83.7665 31.66 84.1865 31.66H84.6965C85.4165 31.66 85.7165 30.94 85.8665 30.37C86.1365 29.29 86.3165 27.46 86.3765 26.32C88.6865 27.31 90.2765 27.55 91.4765 27.67C91.0265 32.68 89.8265 33.76 87.2465 33.76H81.1565C78.0065 33.76 77.7665 32.14 77.7665 30.64V20.65H75.4265C75.4265 25 75.1265 31.18 64.1165 34.21L62.6165 32.44C69.0365 29.5 69.9365 25.51 69.8465 20.65H62.6165V18.52H74.0165V12.22H70.2665C69.6965 13.12 68.2565 15.04 65.1065 17.35L63.1865 16.33C64.0565 15.1 66.4565 11.68 66.7865 5.32L72.8765 6.64C72.6965 7.3 71.6465 9.7 71.4365 10.12ZM108.096 31.96L107.376 29.59C109.716 28.96 114.936 27.52 114.936 18.94C114.936 12.37 111.096 10.96 109.566 10.39C109.266 13.84 108.696 20.05 107.136 24.61C105.606 29.11 103.416 30.73 100.506 30.73C95.8265 30.73 93.3365 26.2 93.3365 21.31C93.3365 14.41 98.0165 7.57 107.646 7.57C113.316 7.57 120.546 10.15 120.546 19.33C120.546 29.62 111.606 31.3 108.096 31.96ZM104.166 10.39C102.906 10.87 101.616 11.38 100.176 13.42C98.3165 16.09 97.7765 19.57 97.7765 22.69C97.7765 23.62 97.7765 27.88 99.7565 27.88C101.436 27.88 103.476 21.01 104.166 10.39ZM136.823 9.61H149.453V33.88H143.843V32.26H130.943V33.88H125.453V9.61H132.323C132.983 8.08 133.463 6.52 133.823 4.9L140.393 6.04C140.213 6.25 139.913 6.55 139.793 6.7C138.863 7.75 137.843 8.68 136.823 9.61ZM143.843 22.87V18.31H130.943V22.87H143.843ZM130.943 11.74V16.18H143.843V11.74H130.943ZM143.843 30.16V24.97H130.943V30.16H143.843ZM174.323 32.38H167.783V33.85H162.263V19.99H179.933V33.85H174.323V32.38ZM167.783 30.25H174.323V22.12H167.783V30.25ZM159.503 19.99L161.393 21.52C160.403 24.13 158.093 29.8 155.993 33.73L152.663 30.61C153.743 29.32 154.133 28.84 155.243 27.13C156.743 24.79 158.183 22.42 159.503 19.99ZM173.153 9.61L175.013 8.53C177.683 11.14 180.233 13.87 182.273 17.02L176.993 19.9C176.513 18.07 176.093 16.87 176.003 16.6C173.993 16.96 165.143 18.43 163.343 18.73C163.163 18.76 161.843 19 161.543 19.06C161.483 19.06 161.423 19.06 161.363 19.12L160.643 15.88L157.373 19.96C155.123 16.03 153.593 14.59 152.843 13.84L154.223 12.25C155.693 12.85 158.423 14.17 160.553 15.55L160.403 14.89C162.473 14.89 164.243 14.8 164.333 14.8C165.623 11.62 166.523 8.32 167.093 4.93L173.333 6.58C173.453 6.61 170.213 11.53 167.873 14.65C170.213 14.56 172.793 14.38 175.133 14.17C174.323 12.01 173.963 11.17 173.153 9.61ZM162.323 8.98L158.303 12.85C157.103 10.39 155.303 7.93 154.163 6.64L155.453 5.17C157.253 5.89 160.613 7.78 162.323 8.98ZM196.103 13.27H191.723V11.14H198.563V5.32H204.233V11.14H211.673V13.27H206.873C207.353 17.35 209.303 23.71 212.393 28.3L211.013 29.86C209.903 28.78 209.063 27.94 208.163 26.89V28.21H204.233V33.85H198.563V28.21H194.723V26.8C193.493 28.21 192.503 29.08 191.753 29.71L190.943 28.96V33.85H185.693V19.24C184.793 20.11 184.433 20.44 183.923 20.86L182.453 19.42C185.093 15.7 186.833 9.88 187.463 5.05L193.433 6.34C193.463 6.67 191.333 11.08 190.943 11.77V27.52C193.163 24.07 195.593 17.5 196.103 13.27ZM204.233 26.08H207.473C206.333 24.7 205.253 23.2 204.233 20.83V26.08ZM198.563 26.08V21.04C198.053 22.06 197.033 24.04 195.353 26.08H198.563ZM220.956 31.36L215.736 31.99C215.436 29.44 215.196 26.95 215.196 21.19C215.196 12.4 215.766 9.01 216.066 6.97L221.286 7.63C220.956 9.16 220.326 12.19 220.326 20.86C220.326 26.68 220.656 29.26 220.956 31.36ZM239.496 25.84V30.52C237.006 30.76 234.336 30.91 231.816 30.91C225.186 30.91 222.546 30.16 222.546 26.68C222.546 26.14 222.546 24.04 224.616 21.67L226.596 22.69C226.146 23.38 225.636 24.16 225.636 25.24C225.636 26.47 226.356 27.01 229.206 27.01C233.586 27.01 237.036 26.41 239.496 25.84ZM223.566 12.49L223.236 9.85C227.076 9.07 231.216 8.68 235.146 8.68C236.256 8.68 236.826 8.71 237.876 8.86V13.57C235.566 12.73 232.866 12.16 228.726 12.16C225.936 12.16 224.376 12.37 223.566 12.49ZM270.665 12.97L265.655 15.88C264.515 11.17 262.355 8.2 261.035 6.55L262.805 5.32C267.545 8.26 269.765 11.59 270.665 12.97ZM257.915 32.62L257.045 30.46C258.755 30.1 262.805 29.32 262.805 24.34C262.805 21.1 260.675 18.79 256.085 18.79V19.96C256.085 27.7 256.085 28.57 255.965 29.32C255.755 30.58 255.185 32.62 250.865 32.62C248.255 32.62 243.305 31.75 243.305 26.5C243.305 24.82 243.785 22.36 246.245 20.11C247.865 18.61 249.365 18.04 251.135 17.35V13.57C249.755 13.6 248.915 13.63 247.955 13.63H243.935V11.35H251.165C251.165 10.27 251.195 6.67 251.195 6.16L256.175 6.34C256.115 7.9 256.085 9.43 256.085 11.17C258.485 11.05 259.895 10.96 262.745 10.72V13C261.635 13.09 260.105 13.21 256.085 13.39V16.36C256.835 16.3 257.585 16.3 257.975 16.3C263.735 16.3 268.235 18.91 268.235 24.4C268.235 30.82 262.115 31.96 257.915 32.62ZM251.135 19.9C250.055 20.56 247.415 22.21 247.415 26.8C247.415 27.94 247.715 30.25 249.695 30.25C250.205 30.25 250.835 30.07 251.045 29.23C251.135 28.9 251.135 27.16 251.135 19.9ZM279.093 11.47V33.82H273.843V19.09C272.853 20.17 272.583 20.41 272.163 20.77L270.783 19.18C272.043 17.17 274.503 11.86 275.343 5.05L281.373 6.34C281.343 6.46 281.223 6.76 281.133 7C280.533 8.65 279.933 9.91 279.093 11.47ZM290.433 11.95H299.373V14.05H292.623V20.95H298.443V23.08H292.623V31.06H300.003V33.19H279.963V31.06H287.223V23.08H281.253V20.95H287.223V14.05H280.443V11.95H288.783C287.073 8.29 285.903 6.91 285.303 6.16L287.013 5.02C289.563 6.31 291.183 7.48 294.273 10L290.433 11.95ZM317.627 18.82H316.997C317.027 19.36 317.087 21.97 317.117 22.96C320.477 23.95 322.727 25.03 325.967 27.07L323.057 31.66C320.537 29.08 319.067 28 317.177 26.83C317.207 29.8 317.207 32.98 310.037 32.98C308.297 32.98 305.897 32.71 304.367 31.72C303.617 31.24 302.387 30.25 302.387 28.09C302.387 23.68 307.097 22.15 311.657 22.15C311.627 21.76 311.567 19.69 311.507 18.82H309.017C306.107 18.82 305.477 18.82 303.197 18.76V16.39C305.237 16.51 310.307 16.51 310.427 16.51H311.447V12.85H306.827C305.567 12.85 303.857 12.82 302.477 12.76V10.51C304.547 10.57 305.297 10.6 307.457 10.6H311.387C311.327 7.48 311.387 6.85 311.387 5.95L316.937 6.28C316.907 6.97 316.907 9.67 316.907 10.6H317.777C319.697 10.6 322.907 10.45 324.707 10.3V12.61C321.347 12.79 318.677 12.85 317.777 12.85H316.937C316.937 13.39 316.967 15.94 316.967 16.51C318.797 16.51 321.287 16.42 324.167 16.24V18.64C320.837 18.82 318.617 18.82 317.627 18.82ZM311.717 24.94C311.357 24.91 310.877 24.88 310.697 24.88C307.877 24.88 307.067 26.68 307.067 28.12C307.067 29.86 308.357 30.4 309.527 30.4C311.837 30.4 311.807 29.2 311.717 24.94ZM339.151 25.06L340.621 27.04C338.941 29.44 337.351 31.21 334.861 31.21C329.071 31.21 329.071 22.69 329.071 20.71C329.071 17.41 329.311 13.09 330.421 7.96L336.541 9.1C335.971 10.9 334.531 15.4 334.531 21.07C334.531 23.17 334.711 27.01 336.571 27.01C337.831 27.01 338.761 25.66 339.151 25.06ZM353.821 25.96L347.971 27.61C348.151 19.03 347.431 14.86 345.271 10.87L347.521 9.64C352.231 14.71 353.431 20.59 353.821 25.96ZM371.973 31.96L371.253 29.59C373.593 28.96 378.813 27.52 378.813 18.94C378.813 12.37 374.973 10.96 373.443 10.39C373.143 13.84 372.573 20.05 371.013 24.61C369.483 29.11 367.293 30.73 364.383 30.73C359.703 30.73 357.213 26.2 357.213 21.31C357.213 14.41 361.893 7.57 371.523 7.57C377.193 7.57 384.423 10.15 384.423 19.33C384.423 29.62 375.483 31.3 371.973 31.96ZM368.043 10.39C366.783 10.87 365.493 11.38 364.053 13.42C362.193 16.09 361.653 19.57 361.653 22.69C361.653 23.62 361.653 27.88 363.633 27.88C365.313 27.88 367.353 21.01 368.043 10.39ZM404.12 10.33H415.58V12.46H399.83V17.11H413.39C413.39 22.48 412.85 28.63 412.16 30.82C411.29 33.64 408.98 33.64 407.42 33.64H400.31L399.56 31.45C400.61 31.51 402.86 31.69 404.48 31.69C405.53 31.69 406.22 31.57 406.64 30.46C407.42 28.33 407.69 21.79 407.81 19.24H399.77C399.56 22.69 398.72 29.8 388.46 34.12L386.99 32.53C391.76 29.41 394.22 25.78 394.22 18.19V12.46H387.08V10.33H398.57V5.32H404.12V10.33ZM435.113 18.97V21.34C433.073 21.49 429.713 21.64 427.583 21.73C427.433 23.2 427.283 24.91 427.283 26.17C427.283 28.96 428.213 30.61 432.713 30.61C435.473 30.61 438.413 29.62 438.413 25.57C438.413 23.29 437.783 21.49 437.363 20.29L439.373 19.42C441.293 22.15 442.373 24.58 442.373 26.59C442.373 28.03 441.863 30.13 439.643 31.57C437.723 32.8 433.103 33.07 431.633 33.07C430.913 33.07 425.933 33.07 423.443 30.73C422.003 29.41 421.883 27.16 421.883 26.08C421.883 24.91 422.033 23.02 422.153 21.94C420.653 22 418.433 22.06 417.713 22.06V19.66C419.513 19.66 419.843 19.66 422.393 19.6C422.393 19.36 422.843 15.25 422.903 14.56C420.383 14.65 418.943 14.65 418.373 14.65V12.34C419.513 12.34 421.853 12.28 423.173 12.25C423.563 8.71 423.653 7.63 423.743 6.19L429.623 6.76C429.383 8.2 429.203 9.22 428.783 12.04C431.873 11.92 433.613 11.83 435.953 11.65V14.02C434.993 14.08 433.793 14.2 428.453 14.38C428.213 16.15 428.153 16.6 427.823 19.39C430.193 19.27 432.473 19.18 435.113 18.97ZM88.4747 62.5V72.97H83.2247V64.66C81.8147 66.79 80.9747 67.57 80.4647 68.05L78.9947 66.16C80.4647 64.09 81.7547 61.42 83.0447 55.15H79.5647V53.05H83.2247V49.39C81.8447 49.51 81.1547 49.54 80.1047 49.57L79.2047 47.38C82.7447 47.14 87.6347 45.73 89.9747 44.44L91.8647 47.92C91.4147 48.07 89.8547 48.43 88.4747 48.7V53.05H91.0547V55.15H88.6847C89.0147 57.1 89.8547 59.98 92.1347 63.22L90.6047 65.02C89.7947 64.24 89.1347 63.46 88.4747 62.5ZM95.5247 51.22H102.335L100.385 50.5C101.255 48.13 101.705 46.18 101.975 44.05L108.335 46.21C107.585 46.9 103.745 50.56 102.845 51.22H107.135V62.11H103.805V70.21C103.805 70.45 103.835 70.51 104.045 70.51C104.435 70.51 104.465 70.51 104.495 70.36C104.525 70.21 104.525 68.5 104.525 68.23V65.29C106.175 66.25 106.835 66.61 108.605 67.18C108.125 72.4 107.075 72.61 104.375 72.61H101.825C99.0047 72.61 98.8247 71.32 98.8247 69.61V62.11H98.1047C97.9847 65.32 97.8047 70.15 90.4247 72.97L88.8047 71.44C92.2247 68.89 93.0947 66.01 93.1847 62.11H91.7747V51.22H93.8747C93.3647 48.61 92.9747 47.38 92.1047 45.1L94.1147 44.17C96.7247 46.12 99.1247 48.94 99.4247 49.33L95.5247 51.22ZM101.825 60.01V53.35H97.0247V60.01H101.825ZM126.575 56.26V59.65H135.365V61.78H126.575V70.15H137.855V72.25H109.955V70.15H115.295C115.055 68.62 114.395 65.95 113.285 63.28L115.265 62.26C117.155 63.82 119.315 66.01 121.055 68.26V61.78H112.235V59.65H121.055V56.26H116.225V55.09C113.375 56.68 111.485 57.43 110.405 57.85L108.995 56.2C113.375 53.68 117.935 50.05 119.915 44.59H127.985C128.675 48.28 132.755 53.02 138.605 56.08L137.375 57.79C134.255 56.62 132.725 55.84 131.555 55.15V56.26H126.575ZM121.055 70.15V68.32L116.555 70.15H121.055ZM117.815 54.13H129.905C126.485 51.85 124.775 49.72 123.905 48.67C123.155 49.63 121.385 51.85 117.815 54.13ZM129.215 62.05L135.395 64.42C135.095 64.9 132.215 67.96 129.065 70.12L127.115 69.01C128.735 65.65 129.185 62.44 129.215 62.05ZM165.095 59.11H160.775C157.805 59.11 157.325 58.81 157.325 56.26V53.68C155.495 57.91 151.655 59.47 148.895 60.37L147.815 59.02V60.1C147.575 60.28 146.915 60.64 146.615 60.79V68.92C146.615 70.93 146.435 72.64 143.435 72.64H139.595L139.235 70.33C139.925 70.45 140.465 70.51 140.855 70.51C141.455 70.51 141.635 70.27 141.635 69.28V63.58C140.645 64.12 140.525 64.18 139.955 64.45L139.025 60.52C139.595 60.43 140.015 60.34 141.635 59.89V52.66H139.595V50.53H141.635V44.29H146.615V50.53H147.815V52.66H146.615V58.18C146.855 58.09 146.945 58.06 147.815 57.73V58.66C148.715 58.09 150.845 56.68 151.745 54.04H148.415V47.92H155.525V44.29H160.775V47.92H168.095V54.04H164.315C165.875 54.73 166.535 55 168.095 55.51C167.765 56.95 167.255 59.11 165.095 59.11ZM162.425 50.05V56.38C162.425 56.89 162.425 57.01 162.845 57.01C163.505 57.04 163.685 56.98 163.775 56.35C163.835 55.84 163.865 55.3 163.925 54.04H163.235V50.05H162.425ZM157.325 51.58V50.05H153.305V50.86L157.325 51.58ZM160.775 62.65V70.12H168.185V72.25H147.725V70.12H155.375V62.65H149.765V60.52H166.415V62.65H160.775ZM191.555 56.05V59.38H198.125V61.48H191.555V68.95C191.555 70.9 191.285 72.7 188.225 72.7H182.765L182.345 70.63C181.475 71.47 180.875 71.92 180.275 72.37L178.535 71.26C179.225 70.33 180.305 68.86 181.145 64.21C181.205 63.94 181.385 62.86 181.415 62.59L186.245 63.82V61.48H179.735C180.005 62.86 180.005 64.15 180.005 64.42C180.005 68.95 178.175 68.95 176.885 68.95H175.415L174.695 66.25V72.88H170.165V45.1H180.785V46.66L179.075 53.26C181.625 50.86 183.695 47.98 184.715 44.62H192.935C193.415 46.42 194.465 49.12 198.785 53.92L197.495 55.6C196.685 55.12 196.565 55.06 196.295 54.88V56.05H191.555ZM186.245 59.38V56.05H181.595V54.58C180.515 55.21 180.185 55.36 179.765 55.54L178.805 54.31L178.115 56.98C179.015 58.75 179.375 59.89 179.645 61.18V59.38H186.245ZM182.645 53.92H194.735C191.735 51.94 190.115 50.17 188.795 48.58C187.295 50.56 185.165 52.24 182.645 53.92ZM186.245 68.95V65.77C185.135 67.63 183.515 69.49 182.645 70.33C183.305 70.45 184.145 70.57 184.775 70.57C186.245 70.57 186.245 70.27 186.245 68.95ZM176.045 47.23H174.695V66.22C174.905 66.31 174.995 66.34 175.355 66.34C176.105 66.34 176.105 66.07 176.105 65.14C176.105 60.94 175.295 58.33 174.725 56.56L176.045 47.23ZM198.785 68.95L193.775 72.1C193.535 70.99 193.085 68.8 192.875 67.84C192.635 66.7 192.035 64.66 191.795 63.79L193.595 62.86C196.115 65.41 197.405 66.85 198.785 68.95ZM215.045 70.96L214.325 68.59C216.665 67.96 221.885 66.52 221.885 57.94C221.885 51.37 218.045 49.96 216.515 49.39C216.215 52.84 215.645 59.05 214.085 63.61C212.555 68.11 210.365 69.73 207.455 69.73C202.775 69.73 200.285 65.2 200.285 60.31C200.285 53.41 204.965 46.57 214.595 46.57C220.265 46.57 227.495 49.15 227.495 58.33C227.495 68.62 218.555 70.3 215.045 70.96ZM211.115 49.39C209.855 49.87 208.565 50.38 207.125 52.42C205.265 55.09 204.725 58.57 204.725 61.69C204.725 62.62 204.725 66.88 206.705 66.88C208.385 66.88 210.425 60.01 211.115 49.39ZM243.621 50.83H250.221V44.38H255.681V50.83H258.651V52.96H255.681V68.74C255.681 72.25 253.941 72.7 251.511 72.7H245.391L244.821 70.33C245.331 70.45 246.081 70.6 247.881 70.6C249.591 70.6 250.221 70.51 250.221 69.1V63.67L245.751 66.58C245.211 62.89 243.951 59.05 242.811 56.44L244.971 55.12C247.221 57.76 249.111 60.28 250.221 62.14V52.96H243.201V51.22H230.211V49.12H234.081V44.38H239.601V49.12H243.621V50.83ZM244.431 67.24L239.991 70.93C239.151 69.16 238.461 67.78 237.591 66.25C234.951 69.67 232.311 71.68 230.991 72.64L229.401 71.02C233.181 67.12 234.561 64.09 235.251 62.47C232.971 59.14 230.991 57.37 229.941 56.44L231.531 54.91C232.761 55.63 234.471 56.65 236.541 58.45C237.291 55.36 237.471 52.21 237.501 51.76L243.201 53.32C243.171 53.53 243.171 53.68 243.081 54.07C242.751 55.87 242.241 58.3 240.261 62.11C242.421 64.54 243.711 66.28 244.431 67.24ZM285.081 58.93L288.951 62.23C287.121 63.16 285.651 63.7 283.491 64.48C285.111 68.23 287.121 69.97 289.071 71.38L287.781 72.76C286.041 72.13 281.631 70.51 279.021 65.74C279.201 66.46 279.381 67.39 279.381 68.68C279.381 71.56 278.181 72.73 274.191 72.73H268.911L268.221 70.3C269.601 70.6 270.951 70.69 271.731 70.69C273.681 70.69 273.861 70.06 273.891 68.17C272.061 69.07 269.151 70.33 260.991 71.65L259.521 69.58C265.341 68.53 270.471 66.04 273.381 63.91C273.351 63.85 273.351 63.82 273.321 63.7C271.281 64.57 266.211 66.49 260.961 67.24L259.821 65.2C265.221 64.18 269.901 61.57 271.881 60.22C271.851 60.16 271.821 60.13 271.761 60.04C267.891 61.24 265.191 62.08 261.261 62.56L259.971 60.58C263.511 59.95 266.931 58.75 269.961 56.8H262.491V52.27C261.951 52.48 261.681 52.57 260.991 52.84L259.581 51.01C262.461 49.63 266.001 46.18 266.901 43.69L273.081 44.8C272.691 45.31 272.391 45.64 271.881 46.18H281.931C281.451 46.84 280.401 48.19 277.851 50.23H286.551V56.8H282.261C282.261 59.65 282.501 61 282.621 61.66C283.791 60.58 284.601 59.53 285.081 58.93ZM267.921 54.67H271.641V52.33H267.921V54.67ZM266.631 50.23H272.241C272.751 49.54 273.231 48.79 273.471 48.31H269.481C268.131 49.33 267.981 49.45 266.631 50.23ZM281.031 52.33H277.251V54.67H281.031V52.33ZM276.861 58.09C275.481 58.69 274.701 58.99 274.191 59.17C275.991 60.34 276.951 61.36 277.761 62.68C277.461 61.81 276.981 59.77 276.861 58.09ZM315.994 56.68L313.744 58.09C313.264 56.89 312.274 55.15 311.104 53.89L312.694 52.93C314.014 54.01 315.124 55.24 315.994 56.68ZM318.904 54.85L316.624 56.26C316.234 55.45 315.394 53.89 314.164 52.66L315.724 51.67C317.614 53.08 318.394 54.16 318.904 54.85ZM312.724 68.29L312.124 70.99C307.984 70.84 297.004 70.45 297.004 60.76C297.004 53.98 302.344 51.04 304.834 49.69C299.974 49.81 293.554 50.47 291.214 50.74L291.004 48.16C301.954 47.29 313.174 47.08 316.144 47.05V49.42C314.974 49.39 314.554 49.36 314.164 49.36C311.374 49.36 310.174 49.72 309.574 49.9C306.034 50.98 302.764 54.34 302.764 60.16C302.764 67.24 308.044 68.35 311.074 68.35C311.614 68.35 312.244 68.32 312.724 68.29ZM319.598 52.18V49.84C323.228 49.51 328.838 49.27 332.918 49.12C332.798 46.96 332.798 46.72 332.618 44.59L338.348 45.01C338.348 47.05 338.378 48.19 338.378 48.97C341.138 48.91 342.848 48.85 345.338 48.85V51.22C343.538 51.22 342.308 51.22 338.438 51.31C338.468 52.81 338.588 58.99 338.588 60.1C338.588 69.97 330.608 71.92 326.138 72.64L325.148 70.54C331.418 69.28 332.498 66.16 333.188 64.3C331.478 66.04 329.258 66.04 329.018 66.04C327.698 66.04 324.068 65.53 324.068 59.83C324.068 56.44 325.628 52.93 329.618 52.93C331.478 52.93 332.468 53.65 333.098 54.1C333.098 53.11 333.038 51.85 333.038 51.43C330.008 51.55 323.318 51.79 319.598 52.18ZM330.908 55.72C328.808 55.72 328.688 58.48 328.688 59.32C328.688 59.74 328.748 62.68 330.878 62.68C332.198 62.68 333.218 61.48 333.218 59.2C333.218 57.67 332.588 55.72 330.908 55.72ZM353.518 72.1C350.788 72.1 348.628 69.82 348.628 67.12C348.628 64.42 350.788 62.14 353.518 62.14C356.248 62.14 358.408 64.42 358.408 67.12C358.408 69.82 356.278 72.1 353.518 72.1ZM353.518 70.18C355.198 70.18 356.518 68.8 356.518 67.12C356.518 65.44 355.168 64.06 353.518 64.06C351.868 64.06 350.518 65.44 350.518 67.12C350.518 68.83 351.868 70.18 353.518 70.18Z" fill="#237233"/>
</svg>
