<svg width="676" height="62" viewBox="0 0 676 62" fill="none" xmlns="http://www.w3.org/2000/svg">
<path d="M98.62 15.112L99.916 14.416C101.332 16.024 103.396 19.192 104.308 21.112L101.596 22.672L101.98 22.792C101.356 26.032 100.204 26.8 98.236 26.8H93.292C91.012 26.8 91.012 25.504 91.012 24.28V14.128C91.012 13.744 90.964 13.408 90.916 12.76L94.108 12.808C94.252 12.808 94.252 12.904 94.252 12.976C94.252 13.024 94.18 13.288 94.18 13.336V24.568C94.18 24.928 94.18 25.48 95.116 25.48H96.964C98.5 25.48 98.692 23.968 98.98 21.712C99.58 22.048 99.844 22.144 101.044 22.504C100.684 20.296 99.556 17.224 98.62 15.112ZM94.492 7.432H103.852V8.776H86.164V15.544C86.164 17.2 85.804 20.104 85.252 21.76C84.604 23.728 83.308 25.48 81.964 26.992L80.812 25.984C81.7 24.52 82.924 22.36 82.924 17.008V7.432H91.108V5.944C91.108 5.416 91.06 4.768 91.036 4.6L94.492 4.648C94.54 4.648 94.588 4.864 94.588 4.984C94.588 5.08 94.564 5.152 94.492 5.368V7.432ZM88.3 15.112L89.74 15.448C89.668 18.304 88.996 22.912 88.204 25.576L85.204 24.112C86.476 22.168 87.652 19.192 88.3 15.112ZM99.388 13.168L96.46 15.376C95.428 12.808 94.42 11.512 92.956 9.784L94.06 8.944C94.516 9.232 95.932 10.144 96.844 10.936C98.884 12.736 99.124 12.952 99.388 13.168ZM119.404 13.384V15.592H127.828V16.864H119.332C119.308 17.176 119.26 17.56 119.092 18.4H126.676C126.46 19.528 125.884 21.88 123.436 24.064C125.332 25.408 127.3 25.792 128.164 25.96L127.492 27.232C126.316 27.064 123.964 26.704 121.588 25.384C119.116 26.8 116.788 27.136 115.996 27.256L115.276 26.08C116.932 25.792 118.492 25.096 119.884 24.136C119.524 23.8 118.636 22.912 117.964 21.688C116.356 24.88 114.028 26.368 112.732 27.112L111.724 26.104C112.684 25.384 115.684 23.08 116.068 16.864H113.02V15.592H116.116V13.384H113.62V12.112H115.228C115.036 11.32 114.556 9.808 113.716 8.44L115.108 7.648C116.092 8.488 117.028 9.4 118.06 10.792L115.732 12.112H127.06V13.384H119.404ZM122.764 19.696H118.756C118.612 20.104 118.468 20.56 118.18 21.208L120.196 19.96C120.436 20.464 120.796 21.304 121.612 22.36C122.452 21.136 122.62 20.32 122.764 19.696ZM111.028 9.688H112.972V11.008H111.028V15.544C111.508 15.328 111.892 15.136 112.396 14.872L112.732 16.216C112.372 16.48 112.108 16.696 111.028 17.344V24.328C111.028 25.96 110.884 26.992 108.796 26.992H105.964L105.628 25.432C106.54 25.624 107.116 25.624 107.26 25.624C107.86 25.624 107.86 25.432 107.86 24.616V19.216C107.356 19.528 106.372 20.08 106.324 20.104C106.132 20.392 105.988 20.416 105.94 20.416C105.892 20.416 105.772 20.392 105.748 20.32L105.028 17.968C106.156 17.704 107.356 17.176 107.86 16.96V11.008H105.46V9.688H107.86V6.352C107.86 5.44 107.788 5.08 107.74 4.696L110.908 4.744C111.028 4.744 111.1 4.792 111.1 5.008C111.1 5.104 111.1 5.128 111.028 5.44V9.688ZM125.548 4.432L127.108 6.328C127.132 6.352 127.156 6.4 127.156 6.424C127.156 6.616 126.748 6.616 126.556 6.64C122.788 7.336 115.636 7.456 113.692 7.432L113.092 6.016C121.852 6.208 125.188 4.6 125.548 4.432ZM117.988 8.176L119.38 7.408C120.028 7.888 122.308 10.096 122.572 10.384L119.524 12.04C119.26 10.744 118.876 9.688 117.988 8.176ZM123.868 7.12L127.324 8.176C127.348 8.2 127.396 8.248 127.396 8.32C127.396 8.464 127.228 8.608 127.06 8.752C126.46 9.544 125.092 11.128 124.324 11.896L122.764 11.368C122.812 11.272 123.844 8.704 123.868 7.12ZM131.173 5.416L134.029 5.656C134.965 5.728 135.061 5.848 135.061 6.04C135.061 6.16 134.821 6.808 134.773 6.952C134.653 7.528 134.245 17.512 134.245 18.928C134.245 20.488 134.317 23.44 138.637 23.44C143.581 23.44 145.237 18.64 145.957 16.552L147.373 17.008C146.101 21.4 143.989 26.176 137.293 26.176C131.461 26.176 130.765 22.456 130.765 19.552C130.765 17.536 131.149 7.648 131.173 5.416ZM160.519 13.888L160.663 12.208C160.975 12.208 161.047 12.184 161.647 12.184C166.279 12.184 168.391 12.568 169.735 12.784L169.207 15.832C167.479 15.136 164.695 14.008 160.519 13.888ZM158.239 19.648L159.775 20.272C159.103 21.232 159.103 22.072 159.103 22.216C159.103 23.872 161.095 23.872 162.487 23.872C163.903 23.872 166.711 23.8 169.087 23.176L169.135 26.152C167.551 26.224 165.967 26.272 164.359 26.272C160.927 26.272 157.063 26.272 157.063 22.864C157.063 22.312 157.111 21.112 158.239 19.648ZM162.031 9.16V10.864C160.999 10.912 160.063 10.96 157.399 11.08C155.143 18.04 153.559 23.368 152.863 25.96L149.383 25C150.151 22.816 150.463 21.832 150.727 20.944C151.159 19.576 153.319 12.784 153.799 11.248C152.455 11.296 151.471 11.344 149.335 11.488V9.712C151.279 9.736 152.983 9.736 154.279 9.664C154.423 9.28 155.527 5.752 155.719 5.128L158.407 5.8C159.079 5.968 159.199 6.112 159.199 6.256C159.199 6.376 158.887 6.784 158.815 6.88C158.743 7.024 158.095 8.944 157.903 9.52C159.223 9.424 160.399 9.352 162.031 9.16ZM173.785 6.688L176.977 7.408C177.265 7.48 177.769 7.6 177.769 7.816C177.769 7.912 177.457 8.344 177.409 8.44C177.337 8.584 176.089 12.064 176.089 16.792C176.089 20.776 177.097 22.312 178.153 22.312C178.249 22.312 179.209 22.312 180.265 20.56L181.297 22C180.289 23.44 179.041 24.952 177.193 24.952C175.369 24.952 172.657 23.608 172.657 16.528C172.657 13.216 173.065 9.928 173.785 6.688ZM185.641 9.016L187.129 8.128C190.417 11.92 191.545 15.952 191.761 20.896L187.993 21.928C188.041 21.232 188.065 20.032 188.065 19.432C188.065 13.072 186.361 10.216 185.641 9.016ZM203.417 10.552V6.568C203.417 5.656 203.393 5.392 203.297 4.576L206.729 4.624C206.993 4.624 207.137 4.792 207.137 5.008C207.137 5.128 206.873 5.656 206.801 5.776V10.504C206.801 11.056 206.825 11.296 206.825 11.56H216.305V12.88H206.945C208.001 21.808 214.889 25.096 216.641 25.912L215.585 27.184C208.985 24.424 206.585 21.256 205.145 18.376C202.385 22.936 199.289 25.312 194.609 27.256L193.649 26.032C195.713 24.976 202.217 21.616 203.273 12.88H194.033V11.56H203.369C203.393 11.272 203.417 10.864 203.417 10.552ZM223.385 9.496H227.537C227.129 7.984 226.625 6.52 225.881 5.152L227.129 4.408C228.233 5.248 230.033 6.856 230.993 8.152L228.569 9.496H234.041L232.649 8.824C233.801 6.784 234.209 5.32 234.353 4.456L238.073 5.92C238.121 5.944 238.145 5.992 238.145 6.04C238.145 6.16 238.001 6.424 237.641 6.544C237.545 6.64 235.313 8.8 234.209 9.496H239.777V14.128H236.489V10.816H221.729V14.176H218.489V9.496H221.969C221.897 9.328 220.817 6.832 219.857 5.512L221.009 4.72C222.593 5.44 224.489 7.168 225.377 8.152L223.385 9.496ZM230.801 19.192H240.329V20.536H230.801V24.496C230.801 26.488 229.961 27.04 227.993 27.04H223.793L223.385 25.504C224.369 25.624 225.089 25.72 226.049 25.72C227.153 25.72 227.393 25.576 227.393 24.472V20.536H217.985V19.192H227.393V16.576L229.817 16.768C230.105 16.504 231.209 15.448 231.785 14.584H222.161V13.264H236.153V14.944C234.161 16.336 233.441 16.768 230.801 18.208V19.192ZM253.944 25.816L250.44 26.512C249.768 23.008 248.352 16.288 247.728 13.384C247.176 13.576 244.416 14.488 242.784 15.352L242.208 13.096C242.952 12.928 246.552 11.92 247.368 11.704C247.248 11.08 246.432 7.312 246.072 6.064L248.976 5.824C249.912 5.752 249.912 5.872 249.912 6.04C249.912 6.136 249.816 6.544 249.816 6.64C249.816 6.88 250.536 10.312 250.656 10.888C251.904 10.6 252.984 10.408 254.256 10.24C254.952 9.328 255.864 6.928 256.152 5.368L259.224 6.064C259.608 6.16 259.992 6.232 259.992 6.448C259.992 6.568 259.536 6.976 259.464 7.072C259.176 7.504 258.024 9.256 257.352 10.072C258.912 10.216 263.328 10.648 263.328 14.896C263.328 18.448 260.16 19.984 256.32 19.984C255.144 19.984 254.352 19.864 253.968 19.816L254.112 18.136C254.52 18.208 255.12 18.304 255.792 18.304C257.952 18.304 259.608 17.152 259.608 15.112C259.608 12.928 257.88 11.848 255.408 11.848C253.632 11.848 252.024 12.232 250.992 12.472C251.928 16.936 252.912 21.376 253.944 25.816ZM277.78 13.168L279.316 12.592V6.304C279.316 5.44 279.316 5.296 279.22 4.792L282.148 4.816C282.22 4.816 282.388 4.888 282.388 5.032C282.388 5.152 282.292 5.416 282.244 5.512V11.488L287.164 9.64C287.164 14.848 287.14 16.672 286.9 18.064C286.684 19.24 286.324 20.728 284.14 20.728H282.868L282.412 19.192C282.724 19.288 282.892 19.312 283.084 19.312C283.708 19.312 283.852 18.496 283.9 17.488C283.972 16.312 283.996 13.552 283.972 12.16L282.244 12.808V21.616H279.316V13.912L277.78 14.488V23.776C277.78 25.144 277.78 25.432 279.604 25.432H282.172C283.876 25.432 284.524 25.12 284.884 21.16C286.18 21.808 287.692 22.072 288.148 22.144C287.308 26.08 286.684 26.752 283.756 26.752H277.828C274.852 26.752 274.492 25.504 274.492 23.512V15.712L272.5 16.48L272.188 15.256L274.492 14.392V8.368C274.492 7.696 274.492 7.144 274.42 6.664L277.708 6.736C277.756 6.736 277.876 6.808 277.876 6.88C277.876 6.976 277.804 7.312 277.78 7.384V13.168ZM270.964 11.416H273.46V12.736H270.964V21.64C272.932 20.944 273.1 20.872 273.724 20.632L273.7 22.048C272.74 22.6 266.74 25.312 266.572 25.384C266.428 25.528 266.212 25.696 266.092 25.696C266.068 25.696 265.948 25.672 265.948 25.672L265.156 23.32C266.092 23.248 267.436 22.816 267.844 22.696V12.736H265.516V11.416H267.844V6.688C267.844 5.56 267.844 5.296 267.796 4.816H270.964C271.012 4.816 271.108 4.888 271.108 5.008C271.108 5.08 271.012 5.464 270.964 5.608V11.416ZM308.74 12.352L311.596 14.128C311.668 14.176 311.716 14.248 311.716 14.344C311.716 14.464 311.572 14.656 311.404 14.824C310.468 17.032 309.532 18.76 308.212 20.536C308.404 21.304 308.98 23.368 309.484 23.368C309.796 23.368 309.844 23.032 309.916 22.6C309.988 22.216 310.084 21.328 310.132 20.584C310.9 21.232 311.404 21.592 312.124 21.928C311.74 25.144 310.9 27.112 309.076 27.112C307.42 27.112 306.532 25.528 305.788 23.152C303.124 25.48 300.124 26.632 298.468 27.232L297.508 26.104C300.412 24.88 303.124 23.392 305.188 20.872C304.468 17.44 304.276 14.296 304.036 10.456H296.236V9.112H303.988C303.94 8.44 303.892 7.288 303.892 6.376C303.892 5.848 303.82 5.032 303.796 4.648L306.964 4.696C307.036 4.696 307.156 4.744 307.156 4.912C307.156 5.056 307.084 5.248 307.012 5.392C307.012 5.992 307.108 8.584 307.108 9.112H309.244C308.98 8.296 308.26 6.832 307.54 5.656L308.524 4.888C309.724 5.68 310.852 6.64 311.764 7.648L309.892 9.112H311.836V10.456H307.156C307.252 13.648 307.396 15.328 307.564 16.84C308.404 14.776 308.524 13.864 308.74 12.352ZM294.652 11.416H296.452V12.76H294.652V20.944C295.636 20.584 295.876 20.488 296.236 20.344L296.188 21.376C297.172 21.256 301.42 20.44 303.868 19.696L303.676 21.064C302.308 21.688 300.268 22.36 297.196 23.368C296.956 23.704 296.836 23.752 296.644 23.752C296.572 23.752 296.524 23.728 296.5 23.68L295.9 21.88C294.628 22.648 292.42 23.848 290.596 24.76C290.38 25.12 290.332 25.168 290.14 25.168C290.068 25.168 290.02 25.12 289.996 25.072L289.084 22.648C289.852 22.504 290.668 22.312 291.436 22.048V12.76H289.444V11.416H291.436V6.376C291.436 6.28 291.412 5.32 291.292 4.744L294.556 4.792C294.724 4.792 294.796 4.984 294.796 5.08C294.796 5.248 294.748 5.344 294.652 5.512V11.416ZM296.74 12.448H303.484V18.64H296.74V12.448ZM301.132 13.792H299.308V17.296H301.132V13.792ZM325.924 25.456L325.42 23.848C327.028 23.512 331.708 22.504 331.708 15.4C331.708 13.024 331.06 9.352 326.308 8.368C325.636 17.584 324.244 24.496 319.612 24.496C316.204 24.496 314.068 21.016 314.068 17.224C314.068 11.728 318.124 6.52 325.3 6.52C330.388 6.52 335.332 9.064 335.332 15.688C335.332 23.848 328.012 25.096 325.924 25.456ZM322.852 8.392C317.236 10.096 316.996 16.288 316.996 17.944C316.996 21.328 318.076 22.6 319.252 22.6C320.428 22.6 322.372 18.136 322.852 8.392ZM359.812 10.936H358.372C358.3 14.824 357.628 18.784 355.324 21.928C356.14 23.152 357.244 24.4 360.124 26.032L359.188 27.208C357.244 26.296 355.324 25.144 353.836 23.608C351.508 25.744 348.196 26.8 346.9 27.208L345.964 26.08C347.668 25.528 350.38 24.472 352.396 21.856C350.86 19.6 350.092 16.672 349.924 14.464C349.516 14.968 349.252 15.304 348.724 15.928L347.692 15.16C348.604 13.744 350.764 8.848 351.268 4.552L354.628 5.416C354.748 5.464 354.82 5.56 354.82 5.68C354.82 5.848 354.652 6.04 354.508 6.184C354.244 6.928 353.812 8.104 353.068 9.592H359.812V10.936ZM354.892 10.936H352.348C351.94 11.656 351.58 12.232 351.076 12.904L352.972 12.808C353.02 15.04 353.236 16.96 353.884 18.928C354.7 16.312 354.892 13.6 354.892 10.936ZM345.052 19.24V20.392C347.692 19.96 348.34 19.84 349.252 19.624L348.988 21.088C346.972 21.616 345.748 21.904 345.052 22.048V24.88C345.052 26.584 344.668 27.064 342.268 27.064H339.844L339.316 25.552C339.724 25.576 340.54 25.672 341.26 25.672C341.86 25.672 342.028 25.6 342.028 24.928V22.72C340.516 23.032 339.58 23.176 338.692 23.344C338.308 23.56 338.26 23.584 338.164 23.584C338.02 23.584 338.02 23.512 337.948 23.296L337.348 21.184C339.508 21.16 341.332 20.896 342.028 20.8V18.616L343.348 18.712C344.092 17.488 344.188 17.344 344.308 16.936H342.076C340.084 18.424 338.86 19.096 338.092 19.528L337.156 18.448C340.732 16.216 342.292 14.512 343.228 13.36H337.492V12.04H340.9V8.896H338.284V7.552H340.9V6.184C340.9 5.728 340.876 5.176 340.828 4.648L343.828 4.768C343.948 4.768 344.116 4.768 344.116 5.032C344.116 5.2 344.02 5.392 343.972 5.488V7.552H345.7V8.896H343.972V12.04H344.236C345.412 10.312 346.444 8.128 346.924 6.16L349.564 7.192C349.732 7.264 349.828 7.36 349.828 7.504C349.828 7.72 349.612 7.888 349.492 7.984C349.132 8.704 348.532 9.976 346.996 12.04H348.604V13.36H345.892C345.076 14.248 344.596 14.776 343.66 15.592H347.932V16.72C346.804 17.872 345.748 18.712 345.052 19.24ZM376.564 9.232L377.908 8.32C379.66 9.496 381.772 11.128 383.548 12.736L380.476 14.728V24.592C380.476 26.224 380.26 26.968 377.62 26.968H373.612L373.204 25.36C374.068 25.504 375.412 25.672 376.3 25.672C377.116 25.672 377.164 25.216 377.164 24.424V22.336H368.044V27.112H364.828V14.536H380.284C380.068 14.104 379.732 13.504 379.084 12.4C370.54 13.24 369.58 13.336 362.98 13.864C362.836 13.96 362.644 14.056 362.548 14.056C362.452 14.056 362.332 14.008 362.308 13.888L361.732 11.848C362.548 11.896 363.772 11.848 366.844 11.728C367.444 10.672 368.14 9.232 368.548 8.176H361.492V6.856H371.044V5.944C371.044 5.8 370.948 4.816 370.924 4.6L374.212 4.648C374.332 4.648 374.404 4.768 374.404 4.888C374.404 5.032 374.38 5.128 374.308 5.344V6.856H383.836V8.176H371.692L372.388 8.344C372.436 8.368 372.46 8.416 372.46 8.488C372.46 8.608 372.148 8.776 372.028 8.848C371.452 9.544 370.3 10.888 369.604 11.608C370.252 11.584 376.78 11.2 378.196 11.104C377.404 10.048 377.044 9.688 376.564 9.232ZM377.164 21.016V19.096H368.044V21.016H377.164ZM368.044 15.856V17.752H377.164V15.856H368.044ZM401.428 7.48V11.464H407.836V12.808H401.428V16.816H406.732V27.16H403.42V25.96H396.124V27.16H392.812V16.816H398.092V12.808H391.876V11.464H398.092V7.696C395.836 7.792 394.156 7.792 392.908 7.768L392.212 6.328C399.628 6.304 403.9 5.056 405.004 4.432L406.828 6.544C406.9 6.592 406.924 6.616 406.924 6.688C406.924 6.784 406.708 6.904 406.372 6.904C406.156 6.904 406.06 6.904 405.748 6.952C403.9 7.264 402.676 7.384 401.428 7.48ZM396.124 24.64H403.42V18.16H396.124V24.64ZM391.852 7.288L389.548 9.832C388.396 7.96 387.052 6.472 386.068 5.536L386.932 4.48C389.308 5.656 390.46 6.352 391.852 7.288ZM390.868 16.216L392.02 17.32C391.588 18.472 390.532 21.136 390.196 21.904C389.5 23.44 388.3 26.2 388.132 26.536C388.108 26.728 388.012 27.304 387.772 27.112L385.276 25.096C386.98 23.296 388.204 21.4 390.868 16.216ZM391.132 13.624L388.9 16.36C387.82 14.632 386.908 13.6 385.156 11.8L385.924 10.696C388.18 11.752 389.452 12.376 391.132 13.624ZM417.1 6.856V8.752H421.732V10.096H417.1V11.584H421.108V19.12H417.076V20.776H421.156V22.096H417.076V23.944C418.972 23.752 420.244 23.584 421.036 23.464L420.748 24.568C423.028 21.256 423.46 18.328 423.46 11.464H421.636V10.144H423.46V6.328C423.46 5.992 423.388 4.84 423.388 4.624L426.388 4.696C426.412 4.696 426.58 4.84 426.58 5.032C426.58 5.104 426.508 5.344 426.484 5.416V10.144H431.308C431.404 14.512 431.188 22.408 430.516 24.712C429.964 26.68 428.692 26.92 427.132 26.92H424.324L423.772 25.384C424.852 25.624 425.908 25.648 426.124 25.648C427.012 25.648 427.3 25.216 427.54 24.112C427.972 22.024 428.236 15.928 428.164 11.464H426.484C426.292 16.696 426.292 17.368 425.74 19.312C424.636 23.296 422.14 25.648 420.604 27.016L419.428 26.128C419.836 25.72 420.148 25.36 420.604 24.784C418.18 25.312 411.724 26.32 410.428 26.512C410.26 26.632 410.092 26.704 410.02 26.704C409.972 26.704 409.828 26.608 409.804 26.56L409.204 24.448C409.66 24.448 411.604 24.424 414.052 24.232V22.096H409.492V20.776H414.052V19.12H410.068V11.584H414.052V10.096H409.492V8.752H414.052V7.048C411.844 7.144 411.244 7.12 410.548 7.12L409.948 5.8C412.996 5.824 417.508 5.32 419.764 4.456L421.06 6.256C421.084 6.304 420.964 6.544 420.772 6.544C420.676 6.544 420.556 6.496 420.412 6.448C419.62 6.568 418.876 6.712 417.1 6.856ZM412.684 14.584H414.316V12.904H412.684V14.584ZM414.316 15.928H412.684V17.776H414.316V15.928ZM416.836 14.584H418.444V12.904H416.836V14.584ZM418.444 15.928H416.836V17.776H418.444V15.928ZM450.756 6.208C450.756 4.84 451.836 3.736 453.204 3.736C454.548 3.736 455.652 4.84 455.652 6.208C455.652 7.6 454.524 8.704 453.204 8.704C451.86 8.704 450.756 7.624 450.756 6.208ZM454.38 6.208C454.38 5.584 453.852 5.008 453.204 5.008C452.532 5.008 452.004 5.56 452.004 6.208C452.004 6.88 452.532 7.432 453.204 7.432C453.852 7.432 454.38 6.88 454.38 6.208ZM435.012 25.72L434.148 24.232C439.812 22.912 445.98 19.84 447.756 9.136L438.18 9.184C435.924 9.184 434.964 9.208 434.004 9.256V7.6C435.372 7.648 436.764 7.648 438.132 7.648L447.252 7.624C448.548 7.624 449.556 7.6 450.012 7.576L451.644 9.208C450.732 12.832 450.156 15.04 448.164 17.944C444.276 23.608 438.108 25 435.012 25.72ZM471.681 23.968H461.073C461.073 24.112 461.097 24.808 461.097 24.976H457.521C457.545 23.944 457.569 21.856 457.569 20.704V10.336C457.569 9.496 457.569 8.656 457.521 7.264C459.393 7.312 460.449 7.36 462.033 7.36H471.441C473.793 7.36 474.393 7.336 475.257 7.288C475.209 9.352 475.209 10.432 475.209 10.936V20.752C475.209 22.24 475.233 24.016 475.257 25H471.657C471.657 24.688 471.681 24.28 471.681 23.968ZM461.049 8.872V22.48H471.705V8.872H461.049ZM492.795 6.712L493.755 5.8C494.355 6.16 495.795 7.024 496.851 8.152L495.507 9.496C494.763 8.392 493.659 7.36 492.795 6.712ZM478.875 13.144L479.835 11.704C481.227 11.944 484.083 12.424 487.275 13.912L485.355 17.008C483.123 15.088 481.539 14.152 478.875 13.144ZM481.995 6.64L483.147 5.44C486.963 6.64 488.595 7.72 489.723 8.488L487.611 11.392C486.435 9.928 484.923 8.368 481.995 6.64ZM494.931 5.296L495.891 4.36C497.667 5.272 498.411 5.968 498.843 6.352L497.499 7.696C496.731 6.784 495.891 5.992 494.931 5.296ZM481.347 25.456L480.195 22.024C491.259 21.568 495.819 14.2 497.715 11.08L499.035 11.872C494.739 21.448 488.139 24.208 482.187 25.672C482.091 25.696 481.707 25.936 481.587 25.936C481.491 25.936 481.467 25.792 481.347 25.456ZM507.618 23.344V13.024H505.434C505.122 13.024 503.706 13.024 502.194 13.096V11.752C502.866 11.776 504.402 11.8 505.434 11.8H512.634C514.554 11.8 515.226 11.776 515.898 11.752V13.096C514.842 13.024 513.162 13.024 512.61 13.024H510.498V23.344H514.146C514.602 23.344 516.162 23.344 517.266 23.272V24.616C516.354 24.592 515.226 24.568 514.17 24.568H503.922C502.89 24.568 502.29 24.568 500.874 24.616V23.272C501.642 23.32 502.386 23.344 503.922 23.344H507.618ZM520.177 17.008L519.241 15.664C522.241 13.984 523.945 11.584 524.977 8.032C525.433 6.424 525.529 5.632 525.577 5.2L529.081 6.088C529.369 6.16 529.489 6.232 529.489 6.304C529.489 6.376 529.273 6.688 529.225 6.76C528.961 7.432 528.601 8.512 528.289 9.136H533.257C535.657 9.136 536.473 9.088 537.049 9.04L538.441 10.36C537.457 14.368 537.001 16.312 535.345 18.904C531.505 24.928 525.289 25.864 520.945 26.272L520.465 24.76C524.257 24.304 532.945 22.936 534.457 10.672H527.449C525.553 13.6 523.729 15.304 520.177 17.008ZM542.453 20.896V8.584C542.453 6.976 542.429 6.208 542.405 5.584L545.573 5.824C545.741 5.848 546.077 5.872 546.077 6.04C546.077 6.16 545.933 6.76 545.933 6.88V12.544C547.925 12.952 551.501 13.672 555.797 16.504L553.325 19.408C552.245 18.28 549.989 15.88 545.933 14.296V20.992C545.933 21.184 545.957 25.408 545.957 26.008H542.405C542.453 24.496 542.453 22.408 542.453 20.896ZM576.359 7.576L576.335 10.624C575.447 10.336 573.527 9.688 569.831 9.688C567.479 9.688 565.991 9.952 565.343 10.072L565.055 8.296C566.591 7.984 569.447 7.408 573.575 7.408C575.111 7.408 575.687 7.48 576.359 7.576ZM559.415 6.112L562.199 6.544C562.991 6.664 562.991 6.784 562.991 6.928C562.991 7.024 562.727 7.336 562.703 7.432C562.487 7.888 561.983 11.8 561.983 17.272C561.983 21.688 562.319 23.872 562.535 25.144L559.175 25.528C558.959 23.896 558.695 21.784 558.695 17.344C558.695 14.368 558.815 10.6 559.415 6.112ZM577.679 21.256L577.631 24.352C575.735 24.616 573.575 24.736 571.631 24.736C566.567 24.736 564.503 23.968 564.503 21.592C564.503 19.792 565.535 18.52 565.919 18.04L567.311 18.736C566.999 19.192 566.639 19.768 566.639 20.68C566.639 21.928 567.863 22.216 570.095 22.216C573.983 22.216 576.503 21.568 577.679 21.256ZM588.91 24.016L586.006 26.704C584.926 24.592 583.39 21.928 580.678 19.288L581.758 18.16C582.982 18.928 585.574 20.56 588.91 24.016ZM10.8297 37.496H5.66966V58.064H2.26166V36.008H10.8297V37.496ZM18.5817 37.856L19.3497 36.464C21.9657 36.92 24.0297 37.28 27.0777 38.384L25.0857 41.432C23.4297 39.824 20.8377 38.384 18.5817 37.856ZM18.1017 47.096L19.3977 48.2C18.7737 49.736 16.5417 53.936 14.4537 55.904L12.2937 52.976C14.6217 51.584 17.1657 48.68 18.1017 47.096ZM34.9737 52.928L31.6377 54.776C31.2297 52.04 30.3897 49.352 28.7577 47.144L30.0057 46.208C31.0377 47.264 33.7737 50.168 34.9737 52.928ZM18.3177 56.648L17.9577 54.752C18.8937 54.992 19.8297 55.136 20.8137 55.136C22.8537 55.136 24.0297 54.416 24.0297 51.776C24.0297 47.384 20.0937 44.6 18.8937 43.736L20.0697 42.368C23.2857 44.168 27.7737 47.72 27.7737 51.968C27.7737 55.616 25.5177 56.768 21.6297 56.768C20.5497 56.768 19.3977 56.744 18.3177 56.648ZM40.275 38.84L40.227 36.944C43.803 37.016 49.683 36.704 51.819 36.488L52.947 38.144C50.307 40.424 47.811 42.632 45.771 44.528C46.251 44.36 47.355 43.952 49.299 43.952C53.811 43.952 56.235 46.616 56.235 50C56.235 55.136 51.675 57.32 46.923 57.32C42.795 57.32 41.139 55.376 41.139 53.648C41.139 51.8 42.507 50.312 45.363 50.312C46.659 50.312 49.875 50.648 50.595 54.632C51.219 54.128 52.707 52.952 52.707 50.336C52.707 48.032 51.459 45.56 48.027 45.56C44.523 45.56 42.291 47.792 39.003 51.584L36.483 49.256C40.491 45.416 45.219 40.856 47.787 38.336C44.667 38.48 41.139 38.768 40.275 38.84ZM48.051 55.832C47.907 53.552 47.187 51.92 45.531 51.92C44.379 51.92 43.779 52.808 43.779 53.696C43.779 54.968 45.051 55.952 46.707 55.952C47.331 55.952 47.739 55.88 48.051 55.832ZM59.1323 42.704V41C60.0683 41.024 60.7643 41.048 62.0603 41.048C64.9883 41.048 66.9083 40.952 67.9883 40.904C67.7003 40.328 66.2363 37.472 65.8763 36.824L68.7803 36.128C68.9483 36.08 69.4043 35.984 69.5723 35.984C69.8603 35.984 69.8603 36.08 69.8603 36.536C69.8603 37.088 71.2043 39.752 71.6603 40.64C73.2923 40.496 75.2363 40.304 76.9883 39.824V41.6C76.3403 41.672 73.1243 42.032 72.4043 42.104C74.3483 45.968 75.2843 47.72 76.0523 48.944L73.4843 50.552C71.7563 49.136 69.6203 48.224 67.3883 48.224C64.8683 48.224 63.2123 49.52 63.2123 51.728C63.2123 54.008 65.0603 55.592 68.1323 55.592C68.4923 55.592 71.1323 55.592 74.6603 54.392L75.1163 56.528C72.6443 57.056 69.8123 57.344 67.2683 57.344C66.2363 57.344 59.6123 57.344 59.6123 51.92C59.6123 49.544 61.2203 46.568 66.2603 46.568C67.5083 46.568 69.3323 46.664 71.3243 47.36C70.4603 45.728 69.1403 43.16 68.7563 42.392C64.6523 42.608 61.6283 42.68 59.1323 42.704ZM96.4647 42.56L96.9447 45.2C95.6967 45.272 93.2487 45.416 90.2727 46.16C87.1527 46.952 83.5287 48.128 83.5287 51.536C83.5287 55.04 87.7287 55.352 89.9607 55.352C93.2487 55.352 95.5527 54.8 96.6327 54.536V56.864C94.7367 57.08 92.0007 57.152 90.1047 57.152C86.6487 57.152 79.8567 57.152 79.8567 51.896C79.8567 49.016 82.0407 47.336 85.7127 45.8C85.1847 44.24 85.1847 43.712 85.1847 38.864C85.1847 38 85.1607 37.04 85.1367 36.176L88.1847 36.464C89.0007 36.536 89.0487 36.704 89.0487 36.824C89.0487 36.944 88.7847 37.52 88.7367 37.64C88.5687 38.384 88.4487 41.216 88.4487 42.008C88.4487 42.848 88.4487 43.616 88.7367 44.744C89.8167 44.408 95.2407 42.944 96.4647 42.56ZM105.182 38.48L107.99 39.92C108.038 39.944 108.062 39.992 108.062 40.064C108.062 40.208 107.942 40.328 107.654 40.568C106.286 42.44 103.718 45.44 102.926 46.304C103.454 46.256 105.638 46.088 106.022 46.04C105.758 45.272 105.59 44.768 105.35 44.048L106.646 43.448C107.294 44.528 107.894 45.728 108.47 46.904V39.824H113.126V37.304C113.126 36.872 113.126 36.752 113.006 35.624L115.934 35.696C115.982 35.696 116.174 35.816 116.174 36.032C116.174 36.152 116.15 36.224 116.078 36.368V39.824H120.734V55.28C120.734 57.032 120.734 57.872 118.07 57.872H115.382L114.878 56.336C115.526 56.456 116.99 56.576 117.23 56.576C117.758 56.576 117.806 56.096 117.806 55.496V51.248L117.062 52.256C115.718 50.6 114.926 48.584 114.686 47.984C114.086 49.568 113.294 51.032 112.166 52.28L111.35 51.32V58.136H108.47V54.68L106.406 55.664C106.334 53.984 106.022 51.608 105.542 49.736L106.742 49.256C107.366 50.216 107.798 51.296 108.47 52.904V48.152L106.79 48.992C106.574 48.008 106.478 47.72 106.406 47.384C106.118 47.456 105.566 47.576 105.23 47.672V58.136H102.326V50.624C102.278 50.72 102.254 50.768 102.134 50.864C101.558 53.24 100.958 55.016 99.9741 57.08L98.6541 56.6C99.5421 53.744 99.7101 50.432 99.6381 49.664L102.182 50.264C102.206 50.264 102.278 50.336 102.326 50.384V48.272C101.87 48.368 99.8781 48.752 99.6381 48.8C99.5181 48.992 99.4701 49.088 99.3021 49.088C99.2781 49.088 99.1101 49.04 99.0861 48.896L98.5821 46.472C99.7581 46.472 99.8781 46.472 100.742 46.448C101.03 46.016 101.39 45.464 102.11 44.192C100.862 42.296 99.6381 40.976 98.7741 40.088L99.5901 39.056C99.9501 39.296 100.142 39.44 100.742 39.896C101.822 37.52 102.086 36.92 102.422 35.456L105.134 36.536C105.206 36.56 105.23 36.656 105.23 36.704C105.23 36.848 105.182 36.896 104.846 37.16C104.126 38.288 103.286 39.536 102.158 40.952C102.614 41.312 103.046 41.672 103.382 41.984C103.886 41.048 104.918 39.2 105.182 38.48ZM117.806 41.168H116.078V42.944C116.078 43.712 116.318 45.368 116.366 45.752C116.606 47.456 116.966 48.584 117.806 50.432V41.168ZM111.35 41.168V50.576C112.526 48.56 113.126 45.704 113.126 43.4V41.168H111.35ZM135.59 41.216H144.494V49.616H141.494V55.64C141.494 56.36 141.542 56.408 142.19 56.408C142.598 56.408 142.742 56.24 142.79 55.856C142.934 54.92 143.006 53.528 143.054 52.688C144.254 53.384 144.71 53.624 145.79 53.96C145.478 56.096 145.046 57.728 143.03 57.728H140.726C138.638 57.728 138.47 56.816 138.47 55.448V49.616H137.51C137.39 52.376 137.03 55.928 131.222 58.064L130.238 57.08C133.958 54.776 134.39 53.048 134.462 49.616H132.95V41.216H135.254C134.39 38.096 133.838 37.088 133.334 36.224L134.534 35.528C135.374 36.224 136.718 37.4 138.398 39.752L135.59 41.216ZM129.758 48.464V58.112H126.566V49.688C126.158 50.456 125.198 52.112 123.59 53.528L122.678 52.448C125.078 49.664 126.062 45.248 126.398 43.448H122.99V42.128H126.566V38.816C125.486 38.912 124.502 38.936 123.542 38.96L122.87 37.616C125.51 37.472 129.494 36.704 131.174 35.672L132.59 37.712C132.614 37.736 132.638 37.76 132.638 37.808C132.638 37.832 132.614 37.952 132.326 38C131.918 38.048 130.118 38.36 129.758 38.432V42.128H132.23V43.448H129.854C130.046 44.6 130.574 46.976 132.566 49.688L131.582 50.72C130.79 49.904 130.31 49.304 129.758 48.464ZM141.302 48.272V42.56H136.094V48.272H141.302ZM141.086 35.552L144.878 36.896C144.902 36.92 144.902 37.016 144.902 37.04C144.902 37.232 144.806 37.304 144.494 37.544C143.39 38.768 142.31 39.992 141.086 41.12L139.694 40.52C140.342 39.248 141.014 36.896 141.086 35.552ZM147.014 56.264H152.174V35.696H155.582V57.752H147.014V56.264ZM172.385 56.456L171.881 54.848C173.489 54.512 178.169 53.504 178.169 46.4C178.169 44.024 177.521 40.352 172.769 39.368C172.097 48.584 170.705 55.496 166.073 55.496C162.665 55.496 160.529 52.016 160.529 48.224C160.529 42.728 164.585 37.52 171.761 37.52C176.849 37.52 181.793 40.064 181.793 46.688C181.793 54.848 174.473 56.096 172.385 56.456ZM169.313 39.392C163.697 41.096 163.457 47.288 163.457 48.944C163.457 52.328 164.537 53.6 165.713 53.6C166.889 53.6 168.833 49.136 169.313 39.392ZM190.001 40.808V58.064H186.761V44.816C185.681 45.92 184.865 46.616 184.265 47.12L183.281 46.232C186.593 42.704 188.585 37.184 188.777 35.336L192.353 36.32C192.425 36.344 192.473 36.44 192.473 36.512C192.473 36.68 192.401 36.752 192.113 37.088C191.369 38.6 190.769 39.656 190.001 40.808ZM200.393 43.256H206.225V44.6H200.393V56.048H205.601V57.392H191.513V56.048H197.033V44.6H191.033V43.256H197.033V37.424C197.033 36.728 197.009 36.368 196.985 35.744L200.297 35.768C200.441 35.768 200.513 35.888 200.513 36.032C200.513 36.176 200.465 36.272 200.393 36.536V43.256ZM219.065 47.672V36.488H229.049V55.928H230.297V57.272H215.969V55.928H219.065V48.032L216.425 49.304C216.209 48.416 216.089 48.008 215.921 47.48C214.985 47.672 214.697 47.72 214.433 47.768V58.112H211.505V48.272C211.097 48.344 208.817 48.728 208.649 48.8C208.337 48.944 208.313 48.968 208.217 48.968C208.145 48.968 208.025 48.92 208.001 48.848L207.473 46.496C208.265 46.52 209.345 46.52 209.561 46.496C210.137 45.776 210.905 44.744 211.265 44.24C210.881 43.64 209.681 41.96 207.617 39.92L208.457 38.888C208.889 39.176 209.201 39.368 209.969 39.92C211.217 37.544 211.529 36.896 211.745 35.456L214.697 36.536C214.769 36.56 214.769 36.656 214.769 36.728C214.769 36.872 214.481 37.112 214.337 37.208C213.401 38.504 212.369 39.632 211.169 40.856C211.889 41.408 212.345 41.816 212.705 42.128C214.145 39.872 214.385 39.104 214.625 38.384L217.601 39.632C217.673 39.656 217.697 39.728 217.697 39.8C217.697 40.016 217.649 40.088 217.313 40.376C215.993 41.96 213.233 45.056 211.745 46.424C212.225 46.4 212.561 46.376 215.441 46.16C215.153 45.416 214.889 44.84 214.577 44.264L215.681 43.568C217.385 45.368 218.417 46.76 219.065 47.672ZM226.001 44H222.161V48.944H226.001V44ZM226.001 37.832H222.161V42.68H226.001V37.832ZM226.001 50.288H222.161V55.928H226.001V50.288ZM208.769 56.984L207.545 56.6C207.905 55.328 208.481 53.312 208.481 50.552C208.481 50.288 208.457 49.976 208.433 49.736L211.265 50.36C211.361 50.384 211.409 50.504 211.409 50.6C211.409 50.72 211.265 51.032 211.121 51.344C210.809 52.592 209.873 55.064 208.769 56.984ZM214.841 49.832L215.945 49.376C217.481 51.44 218.129 52.544 218.705 53.696L215.825 54.872C215.777 54.44 215.489 51.728 214.841 49.832ZM254.369 49.424L252.689 52.688C251.801 51.632 251.225 51.104 250.049 50.144C248.465 54.824 246.473 56.552 241.745 57.872L240.905 56.336C243.425 55.544 245.609 54.896 247.265 48.272C245.921 47.552 244.601 46.904 242.321 46.448C240.113 51.968 238.289 55.28 235.025 55.28C232.265 55.28 232.121 52.664 232.121 51.728C232.121 49.568 233.033 47.24 235.097 45.824C236.777 44.672 238.265 44.576 239.537 44.48C240.569 41.672 241.097 39.896 241.505 38.096C240.785 38.168 237.233 38.528 236.441 38.576L236.273 36.8C239.537 36.872 242.945 36.464 244.505 36.128L245.489 37.544C245.105 38.576 243.353 43.64 242.945 44.768C244.673 45.032 245.897 45.368 247.721 46.112C248.081 44.288 248.345 42.584 248.585 39.896L251.417 40.544C251.729 40.616 252.425 40.784 252.425 40.976C252.425 41 252.425 41.096 252.329 41.24C252.089 41.6 252.041 41.648 251.993 41.936C251.657 43.88 251.441 45.128 250.865 47.408C252.497 48.224 253.313 48.728 254.369 49.424ZM238.913 46.184C238.073 46.304 236.705 46.496 235.265 48.656C234.137 50.336 233.993 51.656 233.993 52.184C233.993 52.496 234.065 53.384 234.761 53.384C234.977 53.384 235.313 53.312 235.793 52.616C237.089 50.72 238.265 47.768 238.913 46.184ZM274.322 44.6L275.042 47.072C273.026 47.36 271.802 47.672 269.954 48.296C270.05 49.712 270.074 50.504 270.05 53.624H266.81C266.834 52.592 266.858 51.68 266.882 49.568C265.802 50.192 263.954 51.248 263.954 53.336C263.954 55.736 266.69 55.904 268.754 55.904C269.234 55.904 271.85 55.904 274.682 55.328L274.73 57.272C273.554 57.416 271.97 57.512 270.77 57.512H267.386C262.874 57.512 260.714 56.48 260.714 53.984C260.714 52.424 261.482 50.456 266.786 47.72C266.642 46.928 266.354 45.32 264.674 45.32C263.186 45.32 261.746 46.088 259.178 52.208L256.226 51.032C257.642 47.864 261.026 41.456 261.122 41.264C259.082 41.36 258.866 41.384 256.754 41.504L256.802 39.752C258.554 39.8 259.994 39.776 261.938 39.68C262.97 37.688 263.474 36.752 263.81 35.792L266.81 36.584C267.074 36.656 267.554 36.776 267.554 37.016C267.554 37.136 267.41 37.28 267.17 37.52C267.002 37.688 266.162 39.08 265.922 39.464C267.674 39.344 270.578 39.152 272.282 38.744V40.592C270.266 40.736 267.41 40.904 264.962 41.048C264.314 42.128 263.954 42.752 263.018 44.384C263.546 44.048 264.266 43.592 265.61 43.592C268.562 43.592 269.282 45.608 269.594 46.424C271.538 45.608 273.194 45.008 274.322 44.6ZM287.721 48.344H289.953C290.001 47.408 290.001 46.568 290.001 45.56V43.304H287.721V48.344ZM283.905 38.48H290.001V37.208C290.001 36.8 289.953 36.2 289.881 35.552L293.313 35.576C293.385 35.576 293.481 35.672 293.481 35.816C293.481 36.008 293.409 36.224 293.361 36.344V38.48H299.625V39.824H293.361V41.96H299.025V49.664H293.169C292.833 51.944 292.065 53.216 291.585 53.888C292.185 54.272 295.065 56.144 300.009 56.936L299.289 58.232C296.145 57.704 292.953 56.912 290.049 55.496C287.985 57.152 284.985 57.944 284.049 58.184L283.209 57.104C284.289 56.744 286.329 56.024 288.033 54.248C285.801 52.568 284.913 51.128 284.505 50.456L287.169 49.664H284.553V41.96H290.001V39.824H283.665V38.984C283.209 39.872 283.017 40.232 282.873 40.496V58.064H279.705V45.2C278.937 46.16 278.289 46.808 277.713 47.384L276.657 46.472C278.673 43.832 280.905 38.336 281.193 35.456L284.745 36.368C284.793 36.44 284.817 36.584 284.817 36.656C284.817 36.824 284.745 36.896 284.553 37.064C284.217 37.832 284.073 38.12 283.905 38.48ZM295.761 43.304H293.361V44.84C293.361 45.752 293.361 47 293.265 48.344H295.761V43.304ZM289.881 49.664H287.601C287.937 50.312 288.321 51.008 289.353 52.064C289.497 51.68 289.785 50.936 289.881 49.664ZM302.179 47L301.555 44.936C302.515 44.816 303.499 44.6 304.435 44.336C306.715 43.688 309.331 42.968 311.947 42.968C315.451 42.968 318.235 45.008 318.235 48.728C318.235 52.88 314.083 55.88 306.547 56L306.259 54.632C310.099 54.872 315.235 53.384 315.235 48.824C315.235 46.208 313.555 44.528 310.579 44.528C308.107 44.528 304.075 46.088 302.179 47ZM320.906 40.424L320.762 38.576C323.594 38.456 337.418 37.784 340.538 37.664V39.464C340.01 39.44 339.17 39.416 338.954 39.416C333.938 39.44 329.618 42.44 329.618 47.96C329.618 52.976 333.242 54.992 337.706 54.656L337.394 56.48C334.826 56.432 325.922 56.24 325.922 48.368C325.922 43.232 329.93 40.88 332.042 39.632C327.89 39.728 323.042 40.184 320.906 40.424ZM351.985 46.976L355.465 48.176C355.513 48.2 355.537 48.296 355.537 48.416C355.537 48.584 355.369 48.728 355.273 48.824C354.865 49.76 354.289 50.912 353.041 52.52C355.129 54.032 356.185 55.04 356.761 55.568L354.337 57.968C354.025 57.488 353.209 56.288 351.241 54.368C350.305 55.16 348.001 56.84 343.873 58.112L342.961 57.056C346.465 55.712 348.361 53.96 349.369 52.712C347.281 51.008 345.985 50.216 345.337 49.832L346.201 48.752C348.529 49.808 349.777 50.504 350.545 50.936C351.289 49.616 351.913 48.104 351.985 46.976ZM349.609 38.192H363.985V39.536H348.577C347.401 40.976 345.577 43.016 343.633 44.264L342.457 43.376C345.649 40.112 346.705 37.232 347.041 35.336L350.521 36.488C350.593 36.512 350.593 36.608 350.593 36.68C350.593 36.848 350.473 36.968 350.401 37.016C350.113 37.304 349.825 37.88 349.609 38.192ZM358.873 46.496H345.409V45.152H362.497C361.729 47.888 361.681 50.816 361.681 51.704C361.681 52.352 361.729 54.896 362.425 54.896C362.977 54.896 363.817 53.528 364.225 52.64C364.753 53.96 364.969 54.344 365.449 54.896C364.681 56.168 363.457 58.232 361.489 58.232C358.993 58.232 358.417 55.232 358.417 52.112C358.417 49.952 358.705 47.816 358.873 46.496ZM362.353 41.6V42.92H347.281V41.6H362.353ZM373.753 50.528V52.496H377.641V53.84H373.753V58.088H370.657V53.84H366.529V52.496H370.657V50.528H367.417V41.432H370.729V39.632H367.033V38.312H370.729V37.112C370.729 36.944 370.705 36.128 370.657 35.672L373.801 35.696C373.873 35.72 373.921 35.72 373.921 35.84C373.921 35.936 373.825 36.32 373.825 36.392V38.312H377.497V39.632H373.825V41.432H377.041V46.16C378.721 45.584 379.873 44.984 381.193 43.904C380.665 43.4 378.985 41.768 378.481 39.056L381.289 37.976H377.305V36.632H388.897C388.153 40.544 385.849 42.8 384.721 43.832C386.065 45.008 387.481 45.656 389.305 46.28L388.369 47.552C386.113 46.976 384.529 46.28 382.849 45.224C380.833 46.544 378.889 47.144 377.881 47.456L377.041 46.496V50.528H373.753ZM373.657 45.272H374.713V42.752H373.657V45.272ZM374.713 46.592H373.657V49.184H374.713V46.592ZM370.753 46.592H369.721V49.184H370.753V46.592ZM369.721 45.272H370.753V42.752H369.721V45.272ZM384.961 37.976H381.649C381.793 39.056 382.081 40.376 383.113 41.96C384.121 40.712 384.409 40.016 384.961 37.976ZM381.433 49.64V47.984C381.433 47.72 381.409 47.12 381.361 46.664H384.553C384.601 46.664 384.673 46.736 384.673 46.832C384.673 46.904 384.553 47.336 384.553 47.432V49.64H388.489V50.96H384.553V56.048H388.945V57.368H376.321V56.048H381.433V50.96H377.641V49.64H381.433ZM409.461 38.576L409.437 41.624C408.549 41.336 406.629 40.688 402.933 40.688C400.581 40.688 399.093 40.952 398.445 41.072L398.157 39.296C399.693 38.984 402.549 38.408 406.677 38.408C408.213 38.408 408.789 38.48 409.461 38.576ZM392.517 37.112L395.301 37.544C396.093 37.664 396.093 37.784 396.093 37.928C396.093 38.024 395.829 38.336 395.805 38.432C395.589 38.888 395.085 42.8 395.085 48.272C395.085 52.688 395.421 54.872 395.637 56.144L392.277 56.528C392.061 54.896 391.797 52.784 391.797 48.344C391.797 45.368 391.917 41.6 392.517 37.112ZM410.781 52.256L410.733 55.352C408.837 55.616 406.677 55.736 404.733 55.736C399.669 55.736 397.605 54.968 397.605 52.592C397.605 50.792 398.637 49.52 399.021 49.04L400.413 49.736C400.101 50.192 399.741 50.768 399.741 51.68C399.741 52.928 400.965 53.216 403.197 53.216C407.085 53.216 409.605 52.568 410.781 52.256ZM433.412 46.256L432.524 47.576C430.412 47.264 426.692 46.688 423.836 44C421.484 46.808 416.924 47.408 415.412 47.6L414.548 46.28C418.244 45.752 420.524 44.288 421.388 42.656H416.972V41.312H421.868C421.964 40.712 421.964 40.376 421.94 39.464L425.564 39.536C425.588 39.536 425.684 39.584 425.684 39.728C425.684 39.8 425.66 39.968 425.492 40.208C425.396 40.664 425.348 40.928 425.252 41.312H431.012V42.656H426.26C427.628 44.504 430.196 45.68 433.412 46.256ZM425.684 37.616H434.612V43.136H431.396V38.912H416.588V43.136H413.42V37.616H422.3V36.968C422.3 36.2 422.3 36.008 422.276 35.648L425.684 35.72C425.756 35.72 425.804 35.816 425.804 35.96C425.804 36.176 425.756 36.272 425.684 36.416V37.616ZM415.748 50.528H424.652V56H418.772V57.128H415.748V50.528ZM421.652 51.872H418.772V54.68H421.652V51.872ZM430.964 49.04V55.4C430.964 56.72 430.94 57.992 428.756 57.992H424.484L424.004 56.48C424.58 56.576 425.444 56.744 426.308 56.744C427.388 56.744 427.7 56.48 427.7 55.448V49.04H412.868V47.696H435.164V49.04H430.964ZM442.964 40.784V58.112H439.652V44.984C438.74 46.016 438.044 46.64 437.324 47.312L436.172 46.496C439.652 42.608 441.428 37.808 441.884 35.48L445.268 36.344C445.316 36.344 445.316 36.512 445.316 36.56C445.316 36.704 445.268 36.8 445.004 37.04C444.62 37.856 444.068 39.08 442.964 40.784ZM455.756 41.696H459.116V43.04H455.756V55.736C455.756 57.848 454.412 57.968 452.972 57.968H448.676L448.1 56.432C448.868 56.528 449.9 56.672 450.908 56.672C452.324 56.672 452.42 56.384 452.42 55.496V43.04H443.756V41.696H452.42V37.352C452.42 36.848 452.372 36.2 452.3 35.696L455.684 35.744C455.708 35.744 455.876 35.84 455.876 36.032C455.876 36.128 455.852 36.176 455.756 36.56V41.696ZM450.548 51.056L447.38 53.312C446.9 51.536 445.652 48.032 444.62 46.136L445.748 45.32C447.596 47.168 449.636 49.784 450.548 51.056ZM461.317 40.472L461.173 38.648C463.285 38.552 473.605 38.048 475.957 37.928C476.653 37.904 480.157 37.76 480.949 37.712V39.536C480.493 39.512 479.917 39.488 479.461 39.488C474.037 39.488 470.029 42.704 470.029 48.008C470.029 51.272 471.661 55.04 478.117 54.704L477.805 56.552C475.261 56.504 466.333 56.312 466.333 48.416C466.333 43.28 470.365 40.904 472.453 39.68C468.925 39.752 464.173 40.16 461.317 40.472ZM477.133 43.04L478.261 42.344C479.293 43.208 480.133 44.168 480.877 45.296L479.245 46.328C478.909 45.56 478.093 44.096 477.133 43.04ZM479.533 42.08L480.637 41.336C481.117 41.696 482.149 42.488 483.157 43.904L481.525 44.936C480.997 43.88 480.277 42.824 479.533 42.08ZM491.453 39.632L490.253 36.848L493.229 36.176C493.373 36.152 493.781 36.056 493.949 36.056C494.021 36.056 494.261 36.056 494.261 36.296C494.261 36.368 494.165 36.728 494.165 36.8C494.165 37.064 494.957 39.032 495.101 39.416C496.253 39.32 498.125 39.152 499.829 38.72L499.901 40.472C498.869 40.616 498.269 40.688 495.677 40.88C495.893 41.432 496.301 42.392 496.685 43.328C499.565 43.064 500.621 42.848 501.341 42.704V44.432C500.309 44.552 499.325 44.648 497.309 44.816C497.933 46.184 498.629 47.744 499.421 49.208L496.589 50.816C495.701 50.264 494.261 49.376 491.909 49.376C491.357 49.376 488.093 49.376 488.093 52.352C488.093 54.68 490.325 55.4 492.149 55.4C492.677 55.4 494.765 55.376 498.413 54.296L498.773 56.432C496.517 56.912 494.213 57.152 491.909 57.152C490.541 57.152 484.373 57.152 484.373 52.376C484.373 49.4 487.445 47.72 491.189 47.72C491.573 47.72 493.229 47.72 495.149 48.296C494.573 46.904 494.045 45.656 493.781 45.056C488.885 45.344 485.837 45.344 484.013 45.344L483.845 43.64C485.213 43.688 486.725 43.736 488.093 43.736C488.357 43.736 490.565 43.736 493.133 43.568C492.581 42.248 492.389 41.816 492.077 41.12C490.253 41.216 487.757 41.36 485.117 41.384L484.925 39.68C486.389 39.728 486.821 39.728 487.373 39.728C487.565 39.728 489.389 39.728 491.453 39.632ZM507.338 38.84L507.29 36.944C510.866 37.016 516.746 36.704 518.882 36.488L520.01 38.144C517.37 40.424 514.874 42.632 512.834 44.528C513.314 44.36 514.418 43.952 516.362 43.952C520.874 43.952 523.298 46.616 523.298 50C523.298 55.136 518.738 57.32 513.986 57.32C509.858 57.32 508.202 55.376 508.202 53.648C508.202 51.8 509.57 50.312 512.426 50.312C513.722 50.312 516.938 50.648 517.658 54.632C518.282 54.128 519.77 52.952 519.77 50.336C519.77 48.032 518.522 45.56 515.09 45.56C511.586 45.56 509.354 47.792 506.066 51.584L503.546 49.256C507.554 45.416 512.282 40.856 514.85 38.336C511.73 38.48 508.202 38.768 507.338 38.84ZM515.114 55.832C514.97 53.552 514.25 51.92 512.594 51.92C511.442 51.92 510.842 52.808 510.842 53.696C510.842 54.968 512.114 55.952 513.77 55.952C514.394 55.952 514.802 55.88 515.114 55.832ZM530.336 45.248V43.616H529.232C528.416 43.616 526.904 43.64 526.136 43.688V42.008C526.616 42.056 528.68 42.08 529.208 42.08H530.336V39.008C530.336 38.696 530.336 37.304 530.24 36.536L533.456 36.728C533.984 36.752 533.984 36.824 533.984 36.896C533.984 37.016 533.84 37.496 533.84 37.616V42.08H539.144V38.552C539.144 38.408 539.144 37.304 539.096 36.536L542.312 36.752C542.648 36.776 542.864 36.776 542.864 36.944C542.864 37.064 542.72 37.688 542.72 37.832V42.08H543.632C544.448 42.08 545.84 42.08 546.632 42.008V43.688C545.936 43.64 544.592 43.616 543.776 43.616H542.72C542.72 47.48 542.696 49.472 541.496 51.872C539.432 55.952 535.376 56.624 532.544 57.104L531.8 55.592C534.224 55.232 537.608 54.704 538.76 49.952C539.144 48.392 539.144 46.64 539.144 43.616H533.84V45.224C533.84 48.296 533.84 48.632 533.864 50.024H530.24C530.336 48.872 530.336 46.448 530.336 45.248ZM549.194 47.888V45.824C550.874 45.824 554.402 45.848 555.146 45.848H564.29C566.186 45.848 568.37 45.848 570.314 45.824V47.888C568.874 47.864 565.898 47.864 564.362 47.864H555.218C551.042 47.864 550.514 47.864 549.194 47.888ZM577.319 38.072L577.295 44.792C581.135 44.072 585.527 42.584 587.783 40.904L589.655 43.208C589.751 43.328 589.919 43.544 589.919 43.664C589.919 43.76 589.223 43.808 589.103 43.856C584.351 45.584 579.167 46.256 577.295 46.496L577.247 52.52C577.247 54.008 577.559 54.872 580.799 54.872H583.151C583.679 54.872 586.991 54.872 590.231 54.224V56.36C587.759 56.456 583.127 56.48 582.407 56.48H580.031C574.511 56.48 573.767 54.776 573.767 52.256L573.815 39.944C573.815 39.056 573.815 37.736 573.791 36.848L576.959 37.064C577.439 37.088 577.487 37.16 577.487 37.256C577.487 37.376 577.319 37.928 577.319 38.072ZM591.191 39.344L589.727 40.544C589.031 39.44 588.095 38.336 587.279 37.592L588.359 36.728C589.415 37.496 590.327 38.336 591.191 39.344ZM593.351 37.712L591.863 38.888C591.191 38 590.399 37.04 589.535 36.32L590.591 35.456C591.023 35.744 592.223 36.584 593.351 37.712ZM614.562 53.696L611.562 55.808C609.642 52.64 607.602 50.792 606.042 49.496C602.922 52.904 599.826 54.464 594.57 56.048L593.922 54.584C595.89 54.08 599.034 52.784 601.65 50.312C604.962 47.144 606.378 42.848 607.194 39.992L599.994 40.04C599.106 40.04 596.73 40.112 595.818 40.136L595.794 38.456C597.354 38.528 598.29 38.552 599.97 38.528L606.522 38.48C606.858 38.48 609.45 38.456 610.314 38.384L611.49 39.656C611.37 39.896 610.458 42.104 610.266 42.56C609.474 44.432 608.178 46.928 607.194 48.104C608.25 48.704 612.042 50.912 614.562 53.696ZM616.849 40.472L616.705 38.648C618.817 38.552 629.137 38.048 631.489 37.928C632.185 37.904 635.689 37.76 636.481 37.712V39.536C636.025 39.512 635.449 39.488 634.993 39.488C629.569 39.488 625.561 42.704 625.561 48.008C625.561 51.272 627.193 55.04 633.649 54.704L633.337 56.552C630.793 56.504 621.865 56.312 621.865 48.416C621.865 43.28 625.897 40.904 627.985 39.68C624.457 39.752 619.705 40.16 616.849 40.472ZM632.665 43.04L633.793 42.344C634.825 43.208 635.665 44.168 636.409 45.296L634.777 46.328C634.441 45.56 633.625 44.096 632.665 43.04ZM635.065 42.08L636.169 41.336C636.649 41.696 637.681 42.488 638.689 43.904L637.057 44.936C636.529 43.88 635.809 42.824 635.065 42.08ZM639.369 41.744V39.992C640.881 39.92 648.369 39.632 650.049 39.56C650.001 38.552 649.881 36.8 649.785 35.792L652.761 36.032C653.097 36.056 653.673 36.128 653.673 36.44C653.673 36.536 653.529 36.992 653.505 37.112C653.505 37.304 653.529 38.672 653.529 39.44C657.153 39.296 657.201 39.296 659.601 39.152V40.928C657.081 40.904 654.705 40.952 653.553 41C653.577 42.008 653.673 46.976 653.673 48.104C653.673 53.552 650.769 56.504 645.561 57.824L644.145 56.528C645.345 56.24 646.977 55.856 648.513 54.32C649.785 53.048 649.977 52.088 650.193 51.104C648.969 52.52 647.265 52.52 647.073 52.52C645.441 52.52 643.329 51.44 643.329 47.888C643.329 44.648 645.033 42.704 647.481 42.704C648.441 42.704 649.353 42.992 650.169 43.616C650.169 43.136 650.169 42.56 650.121 41.096C644.265 41.312 642.201 41.432 639.369 41.744ZM648.297 44.552C646.929 44.552 646.305 45.824 646.305 47.456C646.305 49.448 647.121 50.312 648.177 50.312C650.265 50.312 650.265 47.6 650.265 47.144C650.265 45.584 649.449 44.552 648.297 44.552ZM666.335 49.856C668.447 49.856 670.151 51.608 670.151 53.744C670.151 55.88 668.447 57.656 666.335 57.656C664.199 57.656 662.519 55.904 662.495 53.744C662.495 51.608 664.223 49.856 666.335 49.856ZM666.335 51.176C664.919 51.176 663.815 52.352 663.815 53.744C663.815 55.16 664.919 56.312 666.335 56.312C667.727 56.312 668.855 55.16 668.855 53.744C668.855 52.352 667.727 51.176 666.335 51.176Z" fill="#237233"/>
</svg>
