<svg xmlns="http://www.w3.org/2000/svg" width="40" height="40" viewBox="0 0 40 40" fill="none">
  <path d="M29.1675 28.3315C35.1501 28.3315 40 26.8395 40 24.999C40 23.1585 35.1501 21.6665 29.1675 21.6665C23.1848 21.6665 18.335 23.1585 18.335 24.999C18.335 26.8395 23.1848 28.3315 29.1675 28.3315Z" fill="#D79449"/>
  <path d="M29.1675 34.1672C35.15 34.1672 40 32.6747 40 30.8347V28.7222C36.59 30.6922 30.72 30.8347 29.1675 30.8347C27.615 30.8347 21.745 30.6922 18.335 28.7222V30.8347C18.3325 32.6747 23.1825 34.1672 29.1675 34.1672Z" fill="#D79449"/>
  <path d="M29.1675 36.6674C27.615 36.6674 21.745 36.5249 18.335 34.5549V36.6674C18.335 38.5074 23.185 39.9999 29.1675 39.9999C35.15 39.9999 40 38.5074 40 36.6674V34.5549C36.59 36.5224 30.72 36.6674 29.1675 36.6674Z" fill="#D79449"/>
  <path d="M15.8325 24.39L15.905 24.4325C16.655 19.4425 27.02 19.1675 29.165 19.1675C30.7225 19.1675 36.6 19.3225 39.9975 21.3125V4.5825C40 2.055 37.945 0 35.4175 0H4.5825C2.055 0 0 2.055 0 4.5825V22.0825C0 24.61 2.055 26.665 4.5825 26.665H15.8325V24.39ZM10.4175 7.5H6.25C5.56 7.5 5 6.94 5 6.25C5 5.56 5.56 5 6.25 5H10.4175C11.1075 5 11.6675 5.56 11.6675 6.25C11.6675 6.94 11.1075 7.5 10.4175 7.5ZM20 7.5C23.2175 7.5 25.8325 10.1175 25.8325 13.3325C25.8325 16.5475 23.2175 19.1675 20 19.1675C16.7825 19.1675 14.1675 16.55 14.1675 13.335C14.1675 10.12 16.7825 7.5 20 7.5Z" fill="#814501"/>
</svg>