<svg xmlns="http://www.w3.org/2000/svg" width="40" height="40" viewBox="0 0 40 40" fill="none">
  <path d="M23.75 0H4.5825C2.05 0 0 2.05 0 4.5825V30.415C0 32.95 2.05 35 4.5825 35H18.165C16.765 32.7825 15.8325 30.1675 15.8325 27.1675V23.1C15.5825 23.25 15.3 23.3325 15 23.3325H6.66749C5.74999 23.3325 5 22.5825 5 21.665C5 20.7475 5.74999 20 6.66749 20H15C15.3175 20 15.6 20.0825 15.85 20.2325C15.9175 18.815 16.5825 17.515 17.6325 16.665H6.66499C5.75 16.6675 5 15.9175 5 15C5 14.0825 5.74999 13.3325 6.66749 13.3325H21.6675C22.3675 13.3325 22.9675 13.765 23.2175 14.3825L27.9675 12.765C28.085 12.715 28.2 12.6825 28.335 12.665V4.5825C28.3325 2.05 26.2825 0 23.75 0ZM13.3325 9.99999H6.66499C5.75 9.99999 5 9.24999 5 8.33249C5 7.41499 5.74999 6.66499 6.66749 6.66499H13.335C14.2525 6.66499 15.0025 7.41499 15.0025 8.33249C15.0025 9.24999 14.25 9.99999 13.3325 9.99999Z" fill="#814501"/>
  <path d="M38.87 18.8975L30.12 15.9225C29.7725 15.8025 29.395 15.8025 29.045 15.9225L20.295 18.8975C19.62 19.1275 19.165 19.7625 19.165 20.475V27.1725C19.165 35.6175 28.53 39.6975 28.93 39.8675C29.14 39.955 29.3625 40 29.5825 40C29.805 40 30.0275 39.955 30.235 39.8675C30.635 39.6975 40 35.6175 40 27.1725V20.475C40 19.7625 39.545 19.1275 38.87 18.8975ZM35.5 25.1675L30.5 31.835C30.21 32.2225 29.7675 32.4625 29.285 32.4975C29.245 32.4975 29.205 32.5 29.1675 32.5C28.7275 32.5 28.3025 32.325 27.99 32.0125L24.6575 28.68C24.0075 28.03 24.0075 26.975 24.6575 26.3225C25.3075 25.67 26.3625 25.6725 27.015 26.3225L28.99 28.2975L32.8375 23.1675C33.39 22.4325 34.435 22.2825 35.17 22.835C35.9025 23.385 36.0525 24.43 35.5 25.1675Z" fill="#D79449"/>
</svg>