<svg xmlns="http://www.w3.org/2000/svg" width="40" height="40" viewBox="0 0 40 40" fill="none">
  <path d="M15.0004 8.3329C14.0806 8.3329 13.3329 7.58763 13.3329 6.66535V5.00023C13.3329 2.24254 15.5753 0 18.3329 0H36.2504C37.1702 0 37.9178 0.745274 37.9178 1.66756C37.9178 2.58984 37.1702 3.33267 36.2504 3.33267H18.3329C17.4131 3.33267 16.6654 4.08039 16.6654 5.00023V6.66779C16.6678 7.58763 15.9202 8.3329 15.0004 8.3329Z" fill="#D79449"/>
  <path d="M24.168 35.0017H18.3355C15.5779 35.0017 13.3355 32.7591 13.3355 30.0015V26.6688C13.333 25.7465 14.0807 25.0012 15.0005 25.0012C15.9203 25.0012 16.668 25.7465 16.668 26.6688V30.0015C16.668 30.9213 17.4157 31.669 18.3355 31.669H24.168C25.0878 31.669 25.8355 32.4143 25.8355 33.3366C25.833 34.2564 25.0878 35.0017 24.168 35.0017Z" fill="#D79449"/>
  <path d="M11.1774 24.5137C10.7001 24.9916 9.98474 25.1338 9.35974 24.8762C8.73779 24.6187 8.33252 24.0113 8.33252 23.3362V18.336H1.66748C0.745239 18.3336 0 17.5883 0 16.6685C0 15.7486 0.745239 15.0009 1.66748 15.0009H8.33496V10.0007C8.33496 9.32559 8.74023 8.71826 9.36279 8.46068C9.98474 8.2031 10.7025 8.34532 11.1798 8.82324L17.8473 15.491C18.4973 16.1411 18.4973 17.1958 17.8473 17.8483L11.1774 24.5137Z" fill="#814501"/>
  <path d="M35.605 0.16301L25.5903 3.50057C24.2402 3.97056 23.3326 5.24076 23.3326 6.666V36.6674C23.3326 38.5046 24.8274 40.0001 26.6652 40.0001C27.0253 40.0001 27.3628 39.95 27.7278 39.8377L37.7449 36.4971C39.0925 36.0295 40.0001 34.7575 40.0001 33.3347V3.33332C40.0001 1.1384 37.8425 -0.521836 35.605 0.16301Z" fill="#814501"/>
</svg>