<svg xmlns="http://www.w3.org/2000/svg" width="40" height="40" viewBox="0 0 40 40" fill="none">
  <path d="M25.4175 0H4.5825C2.05 0 0 2.05 0 4.5825V32.0825C0 34.615 2.05 36.665 4.5825 36.665H21.915C21.7475 35.865 21.665 35.015 21.665 34.165V25.415C21.665 25.2825 21.665 25.1325 21.6825 24.9975H6.66501C5.75001 25 5 24.25 5 23.3325C5 22.415 5.75 21.665 6.66751 21.665H22.3675C23.6175 18.3975 26.5 15.915 30 15.215V4.5825C30 2.05 27.95 0 25.4175 0ZM6.66751 8.33251H15C15.9175 8.33251 16.6675 9.08251 16.6675 10C16.6675 10.9175 15.9175 11.6675 15 11.6675H6.66751C5.75 11.6675 5 10.9175 5 10C5 9.08251 5.75 8.33251 6.66751 8.33251ZM23.3325 18.3325H6.66501C5.74751 18.3325 4.9975 17.5825 4.9975 16.665C5 15.75 5.75 15 6.66751 15H23.335C24.25 15 25 15.75 25 16.6675C25 17.5825 24.25 18.3325 23.3325 18.3325Z" fill="#814501"/>
  <path d="M34.1675 40C30.9525 40 28.335 37.3825 28.335 34.1675V25.4175C28.335 23.35 30.0175 21.6675 32.085 21.6675C34.1525 21.6675 35.835 23.35 35.835 25.4175V33.75C35.835 34.44 35.275 35 34.585 35C33.895 35 33.335 34.44 33.335 33.75V25.4175C33.335 24.7275 32.7725 24.1675 32.085 24.1675C31.3975 24.1675 30.835 24.7275 30.835 25.4175V34.1675C30.835 36.005 32.33 37.5 34.1675 37.5C36.005 37.5 37.5 36.005 37.5 34.1675V22.9175C37.5 22.2275 38.06 21.6675 38.75 21.6675C39.44 21.6675 40 22.2275 40 22.9175V34.1675C40 37.3825 37.3825 40 34.1675 40Z" fill="#D79449"/>
</svg>