<svg width="34" height="24" viewBox="0 0 34 24" fill="none" xmlns="http://www.w3.org/2000/svg">
<g id="Frame 1000004376">
<rect x="0.5" y="1" width="33" height="22" rx="11" stroke="#DDDDDD"/>
<path id="Q" d="M16.545 17.738C15.4343 17.738 14.454 17.4773 13.604 16.956C12.7653 16.4233 12.108 15.664 11.632 14.678C11.156 13.692 10.918 12.5133 10.918 11.142C10.918 9.782 11.156 8.62033 11.632 7.657C12.108 6.69367 12.7653 5.957 13.604 5.447C14.454 4.937 15.4343 4.682 16.545 4.682C17.667 4.682 18.6473 4.94267 19.486 5.464C20.3247 5.974 20.982 6.71067 21.458 7.674C21.934 8.626 22.172 9.782 22.172 11.142C22.172 12.5133 21.934 13.692 21.458 14.678C20.982 15.664 20.3247 16.4233 19.486 16.956C18.6473 17.4773 17.667 17.738 16.545 17.738ZM16.545 15.681C17.1683 15.681 17.7067 15.4997 18.16 15.137C18.6247 14.7743 18.9817 14.253 19.231 13.573C19.4803 12.893 19.605 12.0827 19.605 11.142C19.605 10.2467 19.4803 9.48167 19.231 8.847C18.9817 8.201 18.6247 7.708 18.16 7.368C17.7067 7.01667 17.1683 6.841 16.545 6.841C15.9217 6.841 15.3777 7.01667 14.913 7.368C14.4597 7.708 14.1083 8.201 13.859 8.847C13.621 9.48167 13.502 10.2467 13.502 11.142C13.502 12.0827 13.621 12.893 13.859 13.573C14.1083 14.253 14.4597 14.7743 14.913 15.137C15.3777 15.4997 15.9217 15.681 16.545 15.681ZM20.625 20.917C19.7297 20.917 18.9307 20.764 18.228 20.458C17.5253 20.152 16.9303 19.7327 16.443 19.2C15.9557 18.6787 15.576 18.0837 15.304 17.415L17.854 17.16C18.024 17.568 18.262 17.9023 18.568 18.163C18.8853 18.4237 19.248 18.6107 19.656 18.724C20.064 18.8487 20.4777 18.911 20.897 18.911C21.169 18.911 21.4183 18.8883 21.645 18.843C21.883 18.7977 22.0927 18.7467 22.274 18.69L22.733 20.543C22.5063 20.645 22.2117 20.73 21.849 20.798C21.4863 20.8773 21.0783 20.917 20.625 20.917Z" fill="#0072C6"/>
</g>
</svg>
