<svg xmlns="http://www.w3.org/2000/svg" width="40" height="40" viewBox="0 0 40 40" fill="none">
  <path d="M30.0004 0C24.4853 0 20.0002 4.48506 20.0002 10.0001C20.0002 15.5152 24.4853 20.0003 30.0004 20.0003C35.5154 20.0003 40.0005 15.5152 40.0005 10.0001C40.0005 4.48506 35.5154 0 30.0004 0ZM35.3879 8.2176L29.9704 14.0502C29.6429 14.4027 29.1954 14.5827 28.7479 14.5827C28.3629 14.5827 27.9778 14.4502 27.6628 14.1827L24.7453 11.6827C24.0453 11.0826 23.9653 10.0326 24.5653 9.33262C25.1653 8.63511 26.2178 8.55261 26.9153 9.15262L28.6154 10.6101L32.9429 5.95008C33.5704 5.27507 34.6229 5.23757 35.2979 5.86258C35.9754 6.48758 36.0155 7.5426 35.3879 8.2176Z" fill="#D79449"/>
  <path d="M31.6679 28.3328V23.2327C31.1179 23.3002 30.5679 23.3327 30.0004 23.3327C29.4329 23.3327 28.8829 23.3002 28.3329 23.2327V28.3328H6.66509V13.3326H17.0827C16.8152 12.2651 16.6652 11.15 16.6652 10C16.6652 8.85001 16.8152 7.73249 17.0827 6.66748H1.66752C0.750009 6.66748 0 7.41749 0 8.3325V11.665C0 12.5826 0.750009 13.3326 1.66752 13.3326H3.33504V28.3328C2.41503 28.3328 1.66752 29.0803 1.66752 30.0003C1.66752 30.9203 2.41503 31.6678 3.33504 31.6678H14.7427L10.3526 37.3104C9.78762 38.0354 9.91763 39.0829 10.6451 39.6504C11.3676 40.2129 12.4177 40.0829 12.9852 39.3579L17.5002 33.5478L22.0178 39.3554C22.5828 40.0804 23.6303 40.2129 24.3578 39.6479C25.0853 39.0829 25.2153 38.0354 24.6503 37.3079L20.2603 31.6653H31.6679C32.5879 31.6653 33.3354 30.9178 33.3354 29.9978C33.3354 29.0778 32.5879 28.3328 31.6679 28.3328Z" fill="#814501"/>
</svg>