<svg width="447" height="81" viewBox="0 0 447 81" fill="none" xmlns="http://www.w3.org/2000/svg">
<path d="M20.8712 22.915V28.9H29.3412V31.385H20.8712V38.035H33.4712V40.52H2.04119V38.035H14.3262V31.385H5.99619V28.9H14.3262V22.915H5.47119V21.06C3.72119 21.83 2.74119 22.18 1.79619 22.53L0.466191 20.395C4.84119 18.225 9.77619 14.375 12.3662 8.285H23.1462C24.7562 12.66 29.2712 17.28 34.9062 20.395L33.5412 22.39C32.7712 22.145 31.7912 21.865 30.0412 21.165V22.915H20.8712ZM6.80119 20.465H28.3612C21.5362 17.28 18.8062 13.815 17.6862 12.38C14.9912 15.425 11.8062 18.015 6.80119 20.465ZM37.2162 9.265H68.1912V41.29H61.9962V40.03H43.4112V41.29H37.2162V9.265ZM55.5912 26.625L57.9012 25.82C60.8762 28.06 61.2262 28.305 61.9962 29.18V11.715H43.4112V37.545H61.9962V29.6L57.9362 31.98H61.1912V34.465H44.0412V31.98H49.2912V25.19H45.3012V22.74H49.2912V17.525H44.6712V15.04H60.7012V17.525H55.5912V22.74H60.1062V25.19H55.5912V26.625ZM55.5912 31.98H57.0262C56.8512 30.86 56.3962 28.795 55.5912 26.8V31.98ZM80.141 38.42L74.051 39.155C73.701 36.18 73.421 33.275 73.421 26.555C73.421 16.3 74.086 12.345 74.436 9.965L80.526 10.735C80.141 12.52 79.406 16.055 79.406 26.17C79.406 32.96 79.791 35.97 80.141 38.42ZM101.771 31.98V37.44C98.866 37.72 95.751 37.895 92.811 37.895C85.076 37.895 81.996 37.02 81.996 32.96C81.996 32.33 81.996 29.88 84.411 27.115L86.721 28.305C86.196 29.11 85.601 30.02 85.601 31.28C85.601 32.715 86.441 33.345 89.766 33.345C94.876 33.345 98.901 32.645 101.771 31.98ZM83.186 16.405L82.801 13.325C87.281 12.415 92.111 11.96 96.696 11.96C97.991 11.96 98.656 11.995 99.881 12.17V17.665C97.186 16.685 94.036 16.02 89.206 16.02C85.951 16.02 84.131 16.265 83.186 16.405ZM126.462 25.82L128.772 24.49C133.252 29.18 136.367 34.325 138.502 38.7L131.152 41.36C131.047 40.625 130.942 39.855 130.277 36.915C127.022 37.965 119.672 39.995 113.232 41.22L111.552 36.6C113.547 36.495 115.017 36.32 116.102 36.18C117.222 32.68 118.867 25.54 119.637 20.71C119.847 19.485 120.162 16.65 120.337 15.18L127.932 16.475C127.092 19.1 125.902 22.67 124.012 27.29C122.857 30.09 121.562 33.31 120.407 35.62C125.237 35.025 126.882 34.78 129.577 34.255C128.807 31.455 127.687 28.165 126.462 25.82ZM124.852 11.82H137.697V14.27H113.162V22.74C113.162 29.25 111.762 36.635 106.022 41.185L103.922 39.54C106.617 35.2 106.757 28.06 106.757 24.35V11.82H118.307V8.04H124.852V11.82ZM172.032 22.495L166.222 26.625C165.767 22.985 164.542 18.155 162.127 14.375L164.857 12.345C167.167 14.76 170.037 18.575 172.032 22.495ZM171.367 13.29L168.952 15.215C167.937 13.605 166.467 11.89 165.312 10.77L167.027 9.405C168.602 10.525 170.037 11.82 171.367 13.29ZM140.742 22.005L140.042 18.855C142.632 18.015 144.382 17.56 146.902 17.105C147.637 15.005 148.862 11.435 149.842 8.88L155.442 10.7C154.987 11.855 154.637 12.905 153.482 16.37C154.357 16.3 155.407 16.3 156.002 16.3C161.147 16.3 163.072 18.54 163.072 24.385C163.072 28.095 162.547 33.065 161.147 36.075C160.692 37.09 159.152 40.065 155.792 40.065C153.342 40.065 150.472 38.525 148.862 37.65L149.842 34.57C151.347 35.76 152.607 36.46 153.237 36.46C154.007 36.46 154.392 35.76 154.707 35.165C155.617 33.45 157.052 29.6 157.052 23.055C157.052 19.59 156.562 18.75 154.322 18.75C153.937 18.75 153.272 18.785 152.677 18.855C150.822 24.56 148.862 30.65 145.992 40.17L139.867 37.965C141.792 32.015 143.822 26.1 145.852 20.185C144.592 20.535 142.772 21.06 140.742 22.005ZM174.342 10.77L171.997 12.695C171.087 11.4 169.897 10.07 168.567 9.02L170.387 7.55C171.682 8.39 173.187 9.58 174.342 10.77ZM181.005 13.08L180.9 9.965C185.275 9.965 192.73 9.825 199.1 9.44L200.745 12.03C198.085 14.2 193.71 17.945 190.84 20.605C192.1 20.185 193.675 20.045 195.04 20.045C201.34 20.045 205.295 23.825 205.295 29.285C205.295 37.195 198.4 40.135 191.33 40.135C185.59 40.135 182.475 37.615 182.475 34.57C182.475 32.12 184.155 29.46 189.16 29.46C190.63 29.46 192.275 29.81 193.5 30.545C195.775 31.875 196.3 33.52 196.755 35.585C197.63 34.605 198.96 33.17 198.96 29.845C198.96 26.625 197.35 22.88 192.485 22.88C188.355 22.88 185.975 25.26 180.06 32.19L175.44 28.095C181.39 21.97 188.04 15.565 191.33 12.45C187.97 12.765 183.875 13.01 181.005 13.08ZM192.415 37.755C192.31 35.795 192.1 32.225 189.335 32.225C187.62 32.225 187.13 33.66 187.13 34.71C187.13 36.495 188.88 37.895 190.875 37.895C190.98 37.895 191.645 37.895 192.415 37.755ZM212.512 8.88H225.952V11.4H218.497V41.22H212.512V8.88ZM252.474 11.26L251.319 17.28C247.504 15.67 240.749 13.955 231.999 13.71V11.015C237.599 10.28 240.854 10.28 241.659 10.28C245.299 10.28 248.904 10.595 252.474 11.26ZM232.769 25.82L235.149 27.15C234.169 28.34 233.154 29.88 233.154 31.455C233.154 34.255 236.549 34.255 240.224 34.255C242.919 34.255 247.574 34.15 254.434 32.33V38.28C249.289 39.015 244.704 39.05 243.059 39.05C239.524 39.05 228.989 39.05 228.989 32.89C228.989 29.25 231.579 26.905 232.769 25.82ZM286.428 15.075L283.558 16.51C282.683 13.395 281.633 12.03 281.073 11.295L283.138 10.42C284.433 11.89 285.518 13.57 286.428 15.075ZM289.998 13.36L287.163 14.795C286.603 13.36 285.798 11.645 284.713 10.28L286.708 9.335C288.423 11.015 289.228 12.17 289.998 13.36ZM266.513 17.245V8.95L273.198 9.44C272.778 11.96 272.498 14.83 272.498 17.385C272.498 19.38 272.603 20.22 272.778 21.235C276.768 20.045 278.308 19.625 283.663 18.12L284.573 22.46C281.563 22.74 275.263 23.335 270.363 25.26C268.998 25.785 265.498 27.15 265.498 31.665C265.498 35.585 268.613 36.88 274.458 36.88C279.358 36.88 282.228 36.145 284.118 35.62V39.645C280.478 40.065 275.893 40.065 273.968 40.065C268.088 40.065 258.813 39.89 258.813 32.225C258.813 26.94 263.328 24.945 267.283 23.195C266.933 22.04 266.513 20.57 266.513 17.245ZM311.192 23.965V26.73C308.812 26.905 304.892 27.08 302.407 27.185C302.232 28.9 302.057 30.895 302.057 32.365C302.057 35.62 303.142 37.545 308.392 37.545C311.612 37.545 315.042 36.39 315.042 31.665C315.042 29.005 314.307 26.905 313.817 25.505L316.162 24.49C318.402 27.675 319.662 30.51 319.662 32.855C319.662 34.535 319.067 36.985 316.477 38.665C314.237 40.1 308.847 40.415 307.132 40.415C306.292 40.415 300.482 40.415 297.577 37.685C295.897 36.145 295.757 33.52 295.757 32.26C295.757 30.895 295.932 28.69 296.072 27.43C294.322 27.5 291.732 27.57 290.892 27.57V24.77C292.992 24.77 293.377 24.77 296.352 24.7C296.352 24.42 296.877 19.625 296.947 18.82C294.007 18.925 292.327 18.925 291.662 18.925V16.23C292.992 16.23 295.722 16.16 297.262 16.125C297.717 11.995 297.822 10.735 297.927 9.055L304.787 9.72C304.507 11.4 304.297 12.59 303.807 15.88C307.412 15.74 309.442 15.635 312.172 15.425V18.19C311.052 18.26 309.652 18.4 303.422 18.61C303.142 20.675 303.072 21.2 302.687 24.455C305.452 24.315 308.112 24.21 311.192 23.965ZM356.331 35.34L354.616 37.195C353.426 36.46 351.291 35.165 348.526 32.54V33.94H342.331V41.325H335.821V33.94H329.766V32.68C327.246 35.025 324.936 36.46 323.676 37.265L321.926 35.305C327.001 30.58 330.886 22.74 331.936 16.93H322.556V14.445H335.821V8.075H342.331V14.445H355.876V16.93H346.286C347.336 22.635 351.641 31.035 356.331 35.34ZM342.331 31.49H347.476C346.286 30.265 344.186 27.85 342.331 24.665V31.49ZM335.821 31.49V24.665C335.331 25.575 333.686 28.725 330.991 31.49H335.821ZM375.581 39.12L374.741 36.355C377.471 35.62 383.561 33.94 383.561 23.93C383.561 16.265 379.081 14.62 377.296 13.955C376.946 17.98 376.281 25.225 374.461 30.545C372.676 35.795 370.121 37.685 366.726 37.685C361.266 37.685 358.361 32.4 358.361 26.695C358.361 18.645 363.821 10.665 375.056 10.665C381.671 10.665 390.106 13.675 390.106 24.385C390.106 36.39 379.676 38.35 375.581 39.12ZM370.996 13.955C369.526 14.515 368.021 15.11 366.341 17.49C364.171 20.605 363.541 24.665 363.541 28.305C363.541 29.39 363.541 34.36 365.851 34.36C367.811 34.36 370.191 26.345 370.996 13.955ZM408.221 39.435L406.856 37.615C408.676 35.9 411.161 33.275 412.456 28.55H409.796V26.065H414.451V22.67H420.471V26.065H426.596V28.55H422.291C423.236 32.785 425.091 35.34 427.156 37.615L425.581 39.4C424.566 38.665 421.661 36.6 420.471 35.2V41.395H414.451V34.955C413.191 36.285 411.231 37.965 408.221 39.435ZM426.316 21.235L424.881 23.125C421.766 22.11 417.531 20.57 413.051 17.07V23.615H406.681V16.965C402.341 20.815 397.721 22.39 394.676 23.335L393.171 21.445C394.501 20.71 396.636 19.555 399.121 17.035C399.716 16.44 400.906 15.145 401.676 13.675H394.676V11.225H406.681V8.04H413.051V11.225H425.126V13.675H418.161C418.826 14.76 421.066 18.19 426.316 21.235ZM408.676 33.555L407.241 35.795C406.611 35.41 406.226 35.165 405.316 34.5V41.395H399.366V34.745C397.476 36.81 395.586 38.14 393.836 39.295L392.331 37.51C395.901 33.59 397.126 29.32 397.336 28.55H393.206V26.065H399.366V22.67H405.316V26.065H408.956V28.55H405.806C406.191 29.6 406.961 31.49 408.676 33.555ZM441.891 40.52H428.451V38H435.906V8.18H441.891V40.52Z" fill="#237233"/>
<g clip-path="url(#clip0_527_3445)">
<path d="M223 81C225.209 81 227 79.2091 227 77C227 74.7909 225.209 73 223 73C220.791 73 219 74.7909 219 77C219 79.2091 220.791 81 223 81Z" fill="#DAE000"/>
<path d="M203 81C205.209 81 207 79.2091 207 77C207 74.7909 205.209 73 203 73C200.791 73 199 74.7909 199 77C199 79.2091 200.791 81 203 81Z" fill="#237233"/>
<path d="M244 81C246.209 81 248 79.2091 248 77C248 74.7909 246.209 73 244 73C241.791 73 240 74.7909 240 77C240 79.2091 241.791 81 244 81Z" fill="#87C067"/>
</g>
<defs>
<clipPath id="clip0_527_3445">
<rect width="49" height="8" fill="white" transform="translate(199 73)"/>
</clipPath>
</defs>
</svg>
