<svg width="97" height="60" viewBox="0 0 97 60" fill="none" xmlns="http://www.w3.org/2000/svg">
<g clip-path="url(#clip0_527_3215)">
<path d="M93.3566 1.68411V1.70037L38.201 1.52148V1.54588L37.5237 1.52148L37.1367 48.162L40.3375 48.3327L40.3617 46.6902L93.2276 46.2918V48.162L96.4203 48.3327L97.0089 1.65158L93.3566 1.68411ZM93.2921 23.0122L40.66 22.8414L40.8938 4.48124L93.3485 4.09094L93.2921 23.0122ZM40.394 43.7386L40.6197 25.7931L93.284 25.3946L93.2276 43.9093L40.394 43.7386Z" fill="white"/>
<path d="M44.3361 5.57772L48.2061 5.48828L48.3109 22.4825L44.1426 22.4174L44.3361 5.57772Z" fill="#F2564D"/>
<path d="M90.6391 18.2876L90.7278 22.1987L73.8691 22.2881L73.9417 18.0762L90.6391 18.2876Z" fill="#192749"/>
<path d="M49.3027 5.48828L53.3743 5.57772L52.818 22.4825H49.73L49.3027 5.48828Z" fill="#BABCBE"/>
<path d="M54.1641 5.49015L57.639 5.39258L57.5503 22.4843H54.4704L54.1641 5.49015Z" fill="#ABD4BE"/>
<path d="M73.5457 17.987L73.457 14.4824L90.4044 14.5719V17.678L73.5457 17.987Z" fill="#CECBBE"/>
<path d="M57.752 6.03402L61.0898 5.06641L65.2904 21.6215L62.3073 22.4021L57.752 6.03402Z" fill="#C7BBBA"/>
<path d="M61.299 26.4918L65.177 26.4023L65.2738 43.3965L61.1055 43.3315L61.299 26.4918Z" fill="#C7BBBA"/>
<path d="M59.0022 39.2329L59.0909 43.144L42.2402 43.2334L42.3047 39.0215L59.0022 39.2329Z" fill="#ABD4BE"/>
<path d="M76.9023 26.4023L80.9658 26.4918L80.4095 43.3965H77.3297L76.9023 26.4023Z" fill="#CECBBE"/>
<path d="M70.6692 43.3965L66.5977 43.3071L67.154 26.4023H70.2338L70.6692 43.3965Z" fill="#BABCBE"/>
<path d="M81.7617 26.4019L85.2367 26.3125L85.148 43.3961H82.0681L81.7617 26.4019Z" fill="#BABCBE"/>
<path d="M75.5218 43.3067L72.0469 43.3961L72.1356 26.3125H75.2154L75.5218 43.3067Z" fill="#FEC75D"/>
<path d="M85.3496 27.0282L88.6875 26.0605L92.88 42.6156L89.9049 43.3962L85.3496 27.0282Z" fill="#ABD4BE"/>
<path d="M30.3071 52.8301L8.34481 54.8547L6.54688 58.7414L29.1703 59.0911L30.3071 52.8301Z" fill="#F9D2D4"/>
<path d="M7.32856 57.7567L9.191 54.7319L7.03831 54.0977L4.03906 59.6594C4.934 60.253 6.01438 60.0497 6.49813 59.204L7.33663 57.7567H7.32856Z" fill="#141312"/>
<path d="M33.4595 48.707L38.7646 50.7154C42.296 52.0489 44.5777 55.5128 44.4406 59.3101L16.1735 59.0743L11.9648 52.0083L33.4595 48.707Z" fill="#192749"/>
<path d="M45.054 15.2547C45.054 15.2547 46.1263 14.2871 46.1666 13.6529C46.2392 12.5714 43.6189 15.2872 43.6189 15.2872C43.6189 15.2872 44.4977 13.7261 43.8043 13.6204C42.9335 13.4821 42.0709 15.4417 42.1676 16.4988C42.3692 18.6942 44.5622 18.7918 46.4004 18.2633C46.997 18.0925 47.4405 17.938 47.5453 17.8404C47.9968 17.3851 45.3845 17.3444 45.3845 17.3444C45.3845 17.3444 47.6824 16.6939 47.9404 16.3768C48.545 15.645 45.3442 16.1979 45.3442 16.1979C45.3442 16.1979 47.6743 15.1897 47.7549 14.6855C47.9081 13.7586 45.054 15.2547 45.054 15.2547Z" fill="#F9D2D4"/>
<path d="M14.5365 27.2637L27.8558 25.613L42.1345 14.8555L44.2065 19.2463L30.4277 32.9148L33.4592 48.7056L10.3359 54.5926L14.5365 27.2637Z" fill="#70D6C0"/>
<path d="M23.1138 50.8452C23.1138 50.8452 24.1458 51.6421 24.7021 51.577C25.6696 51.4632 22.8478 49.5686 22.8478 49.5686C22.8478 49.5686 24.3635 50.0972 24.3474 49.4548C24.3313 48.6498 22.4608 48.2026 21.5497 48.4628C19.655 49.0076 19.9372 50.9835 20.7031 52.5365C20.9531 53.0406 21.1627 53.4147 21.2675 53.4879C21.7432 53.8212 21.3481 51.4713 21.3481 51.4713C21.3481 51.4713 22.2995 53.4147 22.622 53.5936C23.3638 54.0164 22.3479 51.2437 22.3479 51.2437C22.3479 51.2437 23.6137 53.1545 24.0733 53.1464C24.9118 53.1301 23.1299 50.829 23.1299 50.829L23.1138 50.8452Z" fill="#F9D2D4"/>
<path d="M22.4376 48.4944C22.4376 48.4944 14.6331 38.4931 17.8017 27.7111C14.0365 25.9792 9.82787 29.1585 10.489 33.2729C11.4001 38.9728 13.7946 46.0795 19.8254 50.7386L22.4376 48.4944Z" fill="#70D6C0"/>
<path d="M26.8239 10.587C28.646 16.1406 25.3081 22.2471 19.3741 24.2148C13.4401 26.1907 7.15943 23.2879 5.34537 17.7343C3.52324 12.1807 6.86112 6.07416 12.7951 4.10642C18.7291 2.13054 25.0098 5.03337 26.8239 10.587Z" fill="#1E2678"/>
<path d="M21.5103 29.4357C22.5745 29.1755 23.2276 28.094 22.9696 27.0288L22.0021 23.0039L18.1562 23.9471L19.1237 27.9721C19.3817 29.0454 20.4541 29.704 21.5103 29.4438V29.4357Z" fill="#F9D2D4"/>
<path d="M9.78789 20.3042C12.0535 25.0202 18.2616 25.9228 22.7363 24.4755C27.1948 23.0281 28.9847 16.7508 26.7192 12.0347C24.4536 7.31866 18.826 5.35091 14.1497 7.63578C9.47345 9.92064 7.52233 15.5962 9.78789 20.3123V20.3042Z" fill="#F9D2D4"/>
<path d="M24.2267 16.905C24.388 17.653 25.1217 18.1328 25.8634 17.9702C26.6052 17.8075 27.0809 17.0676 26.9196 16.3195C26.7584 15.5715 26.0247 15.0917 25.2829 15.2543C24.5412 15.417 24.0655 16.1569 24.2267 16.905Z" fill="#F9D2D4"/>
<path d="M14.2384 19.5729C14.3997 20.321 15.1334 20.8007 15.8751 20.6381C16.6169 20.4755 17.0926 19.7356 16.9313 18.9875C16.7701 18.2394 16.0364 17.7597 15.2946 17.9223C14.5529 18.0849 14.0772 18.8249 14.2384 19.5729Z" fill="#F9D2D4"/>
<path d="M7.75655 18.3685C8.11936 19.1085 8.90949 19.45 9.52224 19.1491C10.135 18.8401 10.3366 17.9945 9.97374 17.2627C9.61093 16.5227 8.8208 16.1812 8.20805 16.4821C7.5953 16.7911 7.39374 17.6367 7.75655 18.3685Z" fill="#F9D2D4"/>
<path d="M11.0057 3.79759C12.0538 6.7736 10.5138 10.0342 7.57103 11.0994C4.62822 12.1564 1.38709 10.6034 0.330905 7.63551C-0.717221 4.6595 0.822718 1.39076 3.76553 0.333707C6.71641 -0.723347 9.94947 0.829709 11.0057 3.79759Z" fill="#1E2678"/>
<path d="M15.3433 4.21991C5.8618 6.42346 8.72399 16.3923 8.72399 16.3923C21.4466 10.7655 18.7537 6.47225 18.7537 6.47225C18.7537 6.47225 21.2531 12.0015 25.8488 10.4728C25.8488 10.4728 23.6961 2.27656 15.3352 4.21991H15.3433Z" fill="#1E2678"/>
</g>
<defs>
<clipPath id="clip0_527_3215">
<rect width="97" height="60" fill="white"/>
</clipPath>
</defs>
</svg>
