<svg width="80" height="80" viewBox="0 0 80 80" fill="none" xmlns="http://www.w3.org/2000/svg">
<circle cx="40" cy="40" r="40" fill="#EEF1EC"/>
<path d="M45.4175 20H24.5825C22.05 20 20 22.05 20 24.5825V52.0825C20 54.615 22.05 56.665 24.5825 56.665H41.915C41.7475 55.865 41.665 55.015 41.665 54.165V45.415C41.665 45.2825 41.665 45.1325 41.6825 44.9975H26.665C25.75 45 25 44.25 25 43.3325C25 42.415 25.75 41.665 26.6675 41.665H42.3675C43.6175 38.3975 46.5 35.915 50 35.215V24.5825C50 22.05 47.95 20 45.4175 20ZM26.6675 28.3325H35C35.9175 28.3325 36.6675 29.0825 36.6675 30C36.6675 30.9175 35.9175 31.6675 35 31.6675H26.6675C25.75 31.6675 25 30.9175 25 30C25 29.0825 25.75 28.3325 26.6675 28.3325ZM43.3325 38.3325H26.665C25.7475 38.3325 24.9975 37.5825 24.9975 36.665C25 35.75 25.75 35 26.6675 35H43.335C44.25 35 45 35.75 45 36.6675C45 37.5825 44.25 38.3325 43.3325 38.3325Z" fill="#237233"/>
<path d="M54.1675 60.0005C50.9525 60.0005 48.335 57.383 48.335 54.168V45.418C48.335 43.3505 50.0175 41.668 52.085 41.668C54.1525 41.668 55.835 43.3505 55.835 45.418V53.7505C55.835 54.4405 55.275 55.0005 54.585 55.0005C53.895 55.0005 53.335 54.4405 53.335 53.7505V45.418C53.335 44.728 52.7725 44.168 52.085 44.168C51.3975 44.168 50.835 44.728 50.835 45.418V54.168C50.835 56.0055 52.33 57.5005 54.1675 57.5005C56.005 57.5005 57.5 56.0055 57.5 54.168V42.918C57.5 42.228 58.06 41.668 58.75 41.668C59.44 41.668 60 42.228 60 42.918V54.168C60 57.383 57.3825 60.0005 54.1675 60.0005Z" fill="#87C067"/>
</svg>
