<svg width="427" height="31" viewBox="0 0 427 31" fill="none" xmlns="http://www.w3.org/2000/svg">
<path d="M2.21768 7.81988C2.09271 7.56392 1.96773 7.81988 1.69278 7.81988C1.41784 7.81988 1.41783 7.75809 1.14289 7.75809C0.867938 7.75809 0.867939 7.8287 0.58466 7.8287C0.30138 7.8287 0.176405 8.04053 0.0514286 7.78457C-0.0902111 7.50214 0.193065 7.52862 0.334705 7.25501C0.476345 6.9814 0.468014 6.97258 0.609654 6.69897C0.751294 6.41653 0.717969 6.40771 0.859609 6.12527C1.00125 5.84284 1.02624 5.86049 1.16788 5.57806C1.30952 5.29563 1.29286 5.29563 1.43449 5.01319C1.57613 4.73076 1.57614 4.73076 1.71778 4.45715C1.85942 4.17472 1.84275 4.16589 1.98439 3.89229C2.12603 3.60985 2.12603 3.60985 2.26767 3.33624C2.40931 3.06264 2.40931 3.05381 2.55095 2.7802C2.69259 2.49777 2.71759 2.51542 2.85923 2.24182C3.00087 1.95938 2.97587 1.95056 3.11751 1.66812C3.25915 1.38569 3.25915 1.38569 3.40079 1.10326C3.54243 0.820822 3.59242 0.8473 3.73406 0.564866C3.8757 0.282433 3.70073 0 4.00067 0C4.30062 0 4.15064 0.264782 4.29228 0.538389C4.43392 0.811997 4.41726 0.829648 4.5589 1.10326C4.70054 1.37686 4.67555 1.39451 4.81719 1.67695C4.95883 1.95938 5.01715 1.92408 5.15879 2.19768C5.30043 2.48012 5.25043 2.50659 5.39207 2.7802C5.53371 3.06264 5.54205 3.05381 5.68369 3.32742C5.82533 3.60985 5.83366 3.60102 5.9753 3.88346C6.11694 4.16589 6.1336 4.14824 6.27524 4.43067C6.41688 4.71311 6.39189 4.72193 6.53353 5.00437C6.67517 5.27797 6.70016 5.26915 6.8418 5.54275C6.98344 5.82519 6.95011 5.84284 7.09175 6.11645C7.23339 6.39888 7.24173 6.39006 7.38337 6.67249C7.52501 6.95492 7.55 6.93727 7.69164 7.2197C7.83328 7.50214 8.05823 7.49331 7.92492 7.77575C7.79995 8.04053 7.68331 7.8287 7.40003 7.8287C7.11675 7.8287 7.12508 7.8287 6.85013 7.8287C6.57518 7.8287 6.57518 7.76692 6.2919 7.76692C6.00862 7.76692 5.86699 7.52862 5.73368 7.78457C5.59204 8.05818 5.86699 8.06701 6.00029 8.34061C6.1336 8.61422 6.14194 8.60539 6.27524 8.879C6.41688 9.15261 6.45021 9.12613 6.59185 9.39974C6.73349 9.67334 6.66683 9.70865 6.80847 9.98226C6.95011 10.2559 7.00843 10.2206 7.15007 10.4942C7.29171 10.7678 7.22506 10.8031 7.3667 11.0767C7.50834 11.3503 7.54166 11.3326 7.6833 11.6062C7.82494 11.8799 8.09156 11.8799 7.94992 12.1535C7.82494 12.4094 7.68331 12.1535 7.40003 12.1535C7.11675 12.1535 7.12508 12.1182 6.85013 12.1182C6.57518 12.1182 6.57518 12.1535 6.2919 12.1535C6.00862 12.1535 5.88365 11.8975 5.75034 12.1535C5.6087 12.4271 5.87532 12.4182 6.00863 12.6919C6.15027 12.9655 6.17526 12.9478 6.3169 13.2214C6.45854 13.495 6.40022 13.5215 6.53353 13.7951C6.67517 14.0687 6.66683 14.0687 6.80847 14.3423C6.95011 14.6159 6.99177 14.5895 7.13341 14.8631C7.27505 15.1367 7.23339 15.1631 7.3667 15.4367C7.50834 15.7104 7.50834 15.7104 7.64998 15.984C7.79162 16.2576 8.09156 16.2487 7.95825 16.5224C7.83328 16.7783 7.67497 16.5047 7.40003 16.5047C7.12508 16.5047 7.12508 16.4871 6.85013 16.4871C6.57518 16.4871 6.57518 16.5047 6.2919 16.5047C6.00862 16.5047 5.85865 16.2487 5.72535 16.5047C5.58371 16.7783 5.86699 16.796 6.00029 17.0696C6.1336 17.3432 6.15026 17.3344 6.2919 17.608C6.43354 17.8816 6.44188 17.8727 6.57519 18.1463C6.71683 18.42 6.67517 18.4376 6.81681 18.7112C6.95845 18.9848 6.99177 18.9583 7.13341 19.2408C7.27505 19.5144 7.24173 19.532 7.38337 19.8056C7.52501 20.0792 7.53334 20.0793 7.67498 20.3529C7.81662 20.6265 8.10822 20.6353 7.95825 20.9001C7.79995 21.1737 7.65831 20.9265 7.35837 20.9265C7.05842 20.9265 7.05843 20.8824 6.75015 20.8824C6.44188 20.8824 6.44187 20.9265 6.14193 20.9265C5.84199 20.9265 5.84199 20.9265 5.53372 20.9265C5.22544 20.9265 5.23377 20.8912 4.9255 20.8912C4.61722 20.8912 4.61723 20.9265 4.31728 20.9265C4.01734 20.9265 4.00901 20.8824 3.70906 20.8824C3.40912 20.8824 3.40079 20.9265 3.10084 20.9265C2.8009 20.9265 2.8009 20.8912 2.49263 20.8912C2.18436 20.8912 2.18435 20.8912 1.88441 20.8912C1.58447 20.8912 1.57614 20.9177 1.2762 20.9177C0.976253 20.9177 0.967917 20.9001 0.659642 20.9001C0.351368 20.9001 0.226395 21.1825 0.0514286 20.9001C-0.106875 20.6441 0.168071 20.6265 0.309711 20.3529C0.45135 20.0793 0.484681 20.1057 0.626321 19.8321C0.767961 19.5585 0.726301 19.5409 0.859609 19.2673C1.00125 18.9936 0.984585 18.9848 1.12622 18.72C1.26786 18.4464 1.27619 18.4553 1.41783 18.1817C1.55114 17.908 1.55947 17.908 1.70111 17.6344C1.84275 17.3608 1.83442 17.352 1.96773 17.0784C2.10937 16.8048 2.38432 16.8136 2.24268 16.54C2.1177 16.284 1.97606 16.54 1.70111 16.54C1.42616 16.54 1.42617 16.5488 1.15122 16.5488C0.876271 16.5488 0.876273 16.5135 0.592993 16.5135C0.309714 16.5135 0.176403 16.7783 0.043095 16.5135C-0.0985446 16.2399 0.143075 16.2223 0.276383 15.9487C0.418023 15.6751 0.443018 15.6927 0.576326 15.4191C0.717966 15.1455 0.726296 15.1543 0.867936 14.8807C1.00958 14.6071 0.967918 14.5895 1.10956 14.3158C1.2512 14.0422 1.26786 14.0599 1.4095 13.7863C1.55114 13.5127 1.52615 13.5038 1.66779 13.2302C1.80943 12.9566 1.83442 12.9743 1.97606 12.7007C2.1177 12.4271 2.38432 12.4182 2.25101 12.1446C2.12603 11.8887 1.97606 12.1182 1.70111 12.1182C1.42616 12.1182 1.42617 12.1711 1.15122 12.1711C0.876271 12.1711 0.876273 12.1358 0.592993 12.1358C0.309714 12.1358 0.176403 12.3918 0.043095 12.1358C-0.0985446 11.8622 0.168071 11.8622 0.309711 11.5886C0.45135 11.315 0.48468 11.3326 0.617988 11.0679C0.759627 10.7943 0.726296 10.7766 0.867936 10.503C1.00124 10.2294 1.02624 10.2382 1.16788 9.97343C1.30952 9.69982 1.28453 9.691 1.42617 9.41739C1.56781 9.14378 1.53448 9.12613 1.67612 8.85252C1.81776 8.57891 1.80942 8.57009 2.00105 8.33178C2.20935 8.08465 2.37599 8.05818 2.23435 7.78457" fill="#237233"/>
<path d="M3.98398 14.1133C3.98398 14.431 3.97565 14.431 3.97565 14.7488C3.97565 15.0665 3.99231 15.0665 3.99231 15.3842C3.99231 15.702 3.97565 15.702 3.97565 16.0197C3.97565 16.3374 4.00064 16.3374 4.00064 16.6552C4.00064 16.9729 3.99231 16.9729 3.99231 17.2907C3.99231 17.6084 4.00897 17.6084 4.00897 17.9261C4.00897 18.2439 4.00897 18.2439 4.00897 18.5528C4.00897 18.8617 4.00897 18.8705 4.00897 19.1794C4.00897 19.4883 3.98398 19.4972 3.98398 19.8149C3.98398 20.1326 4.00064 20.1326 4.00064 20.4504C4.00064 20.7681 3.98398 20.7681 3.98398 21.0859C3.98398 21.4036 4.00064 21.4036 4.00064 21.7213C4.00064 22.0391 3.95898 22.0391 3.95898 22.3568C3.95898 22.6745 4.00064 22.6745 4.00064 22.9923C4.00064 23.31 4.00897 23.31 4.00897 23.6278C4.00897 23.9455 4.00897 23.9455 4.00897 24.2632C4.00897 24.581 4.00897 24.581 4.00897 24.8987C4.00897 25.2165 3.97565 25.2164 3.97565 25.5342C3.97565 25.8519 4.00064 25.8519 4.00064 26.1697C4.00064 26.4874 3.97565 26.4874 3.97565 26.8051C3.97565 27.1229 3.98398 27.1229 3.98398 27.4406C3.98398 27.7583 4.00064 27.7583 4.00064 28.0761C4.00064 28.3938 3.95898 28.3938 3.95898 28.7116C3.95898 29.0293 3.97565 29.0293 3.97565 29.3559C3.97565 29.6824 3.98398 29.6736 3.98398 30.0002" stroke="#623A26" stroke-width="0.697424" stroke-linecap="round" stroke-linejoin="round"/>
<path d="M34.6953 7.72L34.0353 11.16C31.8553 10.24 27.9953 9.26 22.9953 9.12V7.58C26.1953 7.16 28.0553 7.16 28.5153 7.16C30.5953 7.16 32.6553 7.34 34.6953 7.72ZM23.4353 16.04L24.7953 16.8C24.2353 17.48 23.6553 18.36 23.6553 19.26C23.6553 20.86 25.5953 20.86 27.6953 20.86C29.2353 20.86 31.8953 20.8 35.8153 19.76V23.16C32.8753 23.58 30.2553 23.6 29.3153 23.6C27.2953 23.6 21.2753 23.6 21.2753 20.08C21.2753 18 22.7553 16.66 23.4353 16.04ZM54.0977 9.9L52.4577 10.72C51.9577 8.94 51.3577 8.16 51.0377 7.74L52.2177 7.24C52.9577 8.08 53.5777 9.04 54.0977 9.9ZM56.1377 8.92L54.5177 9.74C54.1977 8.92 53.7377 7.94 53.1177 7.16L54.2577 6.62C55.2377 7.58 55.6977 8.24 56.1377 8.92ZM42.7177 11.14V6.4L46.5377 6.68C46.2977 8.12 46.1377 9.76 46.1377 11.22C46.1377 12.36 46.1977 12.84 46.2977 13.42C48.5777 12.74 49.4577 12.5 52.5177 11.64L53.0377 14.12C51.3177 14.28 47.7177 14.62 44.9177 15.72C44.1377 16.02 42.1377 16.8 42.1377 19.38C42.1377 21.62 43.9177 22.36 47.2577 22.36C50.0577 22.36 51.6977 21.94 52.7777 21.64V23.94C50.6977 24.18 48.0777 24.18 46.9777 24.18C43.6177 24.18 38.3177 24.08 38.3177 19.7C38.3177 16.68 40.8977 15.54 43.1577 14.54C42.9577 13.88 42.7177 13.04 42.7177 11.14ZM68.2486 14.98V16.56C66.8886 16.66 64.6486 16.76 63.2286 16.82C63.1286 17.8 63.0286 18.94 63.0286 19.78C63.0286 21.64 63.6486 22.74 66.6486 22.74C68.4886 22.74 70.4486 22.08 70.4486 19.38C70.4486 17.86 70.0286 16.66 69.7486 15.86L71.0886 15.28C72.3686 17.1 73.0886 18.72 73.0886 20.06C73.0886 21.02 72.7486 22.42 71.2686 23.38C69.9886 24.2 66.9086 24.38 65.9286 24.38C65.4486 24.38 62.1286 24.38 60.4686 22.82C59.5086 21.94 59.4286 20.44 59.4286 19.72C59.4286 18.94 59.5286 17.68 59.6086 16.96C58.6086 17 57.1286 17.04 56.6486 17.04V15.44C57.8486 15.44 58.0686 15.44 59.7686 15.4C59.7686 15.24 60.0686 12.5 60.1086 12.04C58.4286 12.1 57.4686 12.1 57.0886 12.1V10.56C57.8486 10.56 59.4086 10.52 60.2886 10.5C60.5486 8.14 60.6086 7.42 60.6686 6.46L64.5886 6.84C64.4286 7.8 64.3086 8.48 64.0286 10.36C66.0886 10.28 67.2486 10.22 68.8086 10.1V11.68C68.1686 11.72 67.3686 11.8 63.8086 11.92C63.6486 13.1 63.6086 13.4 63.3886 15.26C64.9686 15.18 66.4886 15.12 68.2486 14.98ZM92.0892 21.04V24.02C90.4892 24.12 87.1892 24.14 86.9492 24.14C85.2892 24.14 81.8492 24.12 81.8492 21.26C81.8492 20.04 82.3892 19 83.0492 18.12L84.4692 18.72C84.1092 19.2 83.8292 19.84 83.8292 20.44C83.8292 21.62 84.8892 21.62 86.4292 21.62C88.5492 21.62 90.7492 21.4 92.0892 21.04ZM92.5092 12.7L92.0292 15.76C89.8892 14.86 87.6092 14.12 84.6292 14.02L84.7092 12.32C85.5892 12.3 86.8092 12.3 86.9492 12.3C88.3292 12.3 90.4692 12.34 92.5092 12.7ZM86.0892 9.66V11.22C85.4892 11.28 84.8492 11.34 82.5292 11.46C80.6092 17.52 79.5092 21.42 78.8292 24.02L75.2492 23.1C76.3492 19.46 77.5692 15.44 78.7492 11.62C76.5292 11.7 75.9892 11.7 75.3092 11.7V10.1C76.4892 10.1 77.2292 10.1 79.2492 10.04C79.7892 8.28 79.8492 8.08 80.3892 6.4L84.0092 7.08C83.7092 7.86 83.3692 8.86 83.0292 9.86C84.6692 9.78 84.9292 9.76 86.0892 9.66ZM94.3705 11.5V9.94C95.8305 9.92 96.0905 9.92 98.1905 9.88C98.5105 8.88 98.9505 7.46 99.1705 6.36L102.79 7.06C102.61 7.64 102.47 8.08 101.89 9.76C106.63 9.56 107.37 9.48 108.59 9.34L108.55 10.92C105.99 11.14 102.89 11.26 101.37 11.32C101.11 12.04 100.47 13.86 99.8705 15.38C100.47 15.06 101.93 14.28 104.23 14.28C107.27 14.28 110.05 15.74 110.05 18.98C110.05 20.94 109.01 22.2 107.83 22.98C105.89 24.24 102.45 24.2 98.6105 24.16L98.1905 22.46C98.8705 22.52 99.4705 22.58 100.69 22.58C101.67 22.58 106.29 22.56 106.29 19.18C106.29 16.98 104.57 16.18 102.85 16.18C99.8505 16.18 98.5305 18.62 98.1105 19.42L95.1305 18.22C95.6305 17.12 96.2705 15.6 97.6905 11.44C95.4305 11.5 94.9905 11.5 94.3705 11.5ZM122.073 23.64L121.593 22.06C123.153 21.64 126.633 20.68 126.633 14.96C126.633 10.58 124.073 9.64 123.053 9.26C122.853 11.56 122.473 15.7 121.433 18.74C120.413 21.74 118.953 22.82 117.013 22.82C113.893 22.82 112.233 19.8 112.233 16.54C112.233 11.94 115.353 7.38 121.773 7.38C125.553 7.38 130.373 9.1 130.373 15.22C130.373 22.08 124.413 23.2 122.073 23.64ZM119.453 9.26C118.613 9.58 117.753 9.92 116.793 11.28C115.553 13.06 115.193 15.38 115.193 17.46C115.193 18.08 115.193 20.92 116.513 20.92C117.633 20.92 118.993 16.34 119.453 9.26ZM135.285 13.56H132.685V9.82H134.905C134.305 8.18 133.885 7.26 133.445 6.5L134.705 5.8C136.285 6.42 138.105 8.06 138.765 8.74L137.085 9.82H139.705C139.645 9.6 139.165 7.6 138.545 6.28L139.825 5.6C140.965 6.28 142.665 7.48 143.705 8.72L141.565 9.82H145.725L144.365 9.32C145.025 7.82 145.365 5.92 145.425 5.6L149.685 7.06C149.485 7.38 147.605 9.08 146.445 9.82H150.645V13.56H148.585V14.48C146.805 15.62 145.485 16.3 143.485 17.12V18.08H151.165V19.48H143.485V22.36C143.485 24.8 141.785 24.8 140.765 24.8H136.505L136.185 23.24C137.565 23.38 138.025 23.42 138.645 23.42C139.405 23.42 139.705 23.28 139.705 22.28V19.48H132.145V18.08H139.705V15.84L141.945 16C142.465 15.52 142.885 15.02 143.245 14.48H135.285V13.56ZM136.265 11.22V13.06H146.985V11.22H136.265ZM169.772 8.58L168.412 9.7C167.952 8.96 167.212 7.96 166.272 7.2L167.192 6.4C168.152 7 169.092 7.8 169.772 8.58ZM171.492 7.12L170.112 8.26C169.552 7.4 168.932 6.74 168.132 6.14L169.072 5.32C169.452 5.52 170.592 6.14 171.492 7.12ZM170.492 11.16L169.092 13.58C167.792 12.8 166.132 11.54 164.972 10.44C165.912 11.92 167.372 14.22 167.372 17.1C167.372 21.04 164.672 23.72 160.092 23.72C157.772 23.72 153.452 22.94 153.452 17.66C153.452 14.22 155.212 11.94 157.552 9.42C156.572 9.68 154.792 10.14 153.112 10.5L152.732 8.64C154.352 8.56 157.052 8.06 158.972 7.52L160.132 9.02C159.332 9.9 158.692 10.58 157.932 12.38C157.552 13.28 156.792 15.26 156.792 17.48C156.792 19.76 157.992 21.1 160.092 21.1C163.812 21.1 164.192 17.2 164.192 15.48C164.192 13.18 163.652 10.56 162.412 8.64L163.892 7.48C165.912 9.44 168.592 10.6 170.492 11.16ZM182.073 23.64L181.593 22.06C183.153 21.64 186.633 20.68 186.633 14.96C186.633 10.58 184.073 9.64 183.053 9.26C182.853 11.56 182.473 15.7 181.433 18.74C180.413 21.74 178.953 22.82 177.013 22.82C173.893 22.82 172.233 19.8 172.233 16.54C172.233 11.94 175.353 7.38 181.773 7.38C185.553 7.38 190.373 9.1 190.373 15.22C190.373 22.08 184.413 23.2 182.073 23.64ZM179.453 9.26C178.613 9.58 177.753 9.92 176.793 11.28C175.553 13.06 175.193 15.38 175.193 17.46C175.193 18.08 175.193 20.92 176.513 20.92C177.633 20.92 178.993 16.34 179.453 9.26ZM208.965 11.38L209.965 11.04C210.625 12.04 211.065 12.76 211.645 13.88L209.505 14.98C209.465 14.78 209.365 13.92 209.345 13.74L208.185 14.06C208.805 14.7 208.845 14.76 209.145 15.12L208.325 15.36H211.145V16.78H208.565L210.945 18.16C210.905 18.24 209.685 19.68 207.645 21.24C207.825 21.64 208.125 22.26 208.445 22.26C209.045 22.26 209.245 20.4 209.265 20.1C209.925 20.68 210.585 21.1 211.405 21.44C211.165 23.08 210.405 24.96 208.265 24.96C206.285 24.96 205.445 23.52 205.085 22.88C203.525 23.72 202.265 24.3 201.005 24.72L199.905 23.66C201.185 23.14 202.225 22.6 204.225 21.02C204.025 20.44 203.945 20.18 203.865 19.9L202.725 21.66C202.345 21.06 201.705 20.04 201.545 19.84C200.945 22.12 199.565 23.64 197.845 24.82L196.825 23.92C197.945 22.64 198.485 20.04 198.485 18.5V16.78H197.965C198.025 16.9 198.045 16.98 198.205 17.28L197.605 18.86C197.325 18.52 197.105 18.22 196.705 17.56V24.92H193.345V19.22C192.905 19.88 192.705 20.16 192.425 20.52L191.705 18.98C192.985 16.06 193.285 13.28 193.325 11.46H192.165V10.04H193.345V5.88H196.705V10.04H197.845V11.46H196.705C196.705 11.86 196.785 14.16 197.845 16.56V15.36H203.045C203.025 15.24 202.965 14.68 202.945 14.56L201.425 15.34C201.405 15.16 201.305 14.4 201.305 14.24L198.185 15.02C198.145 15.04 197.845 15.12 197.725 15.16L197.365 13.28C197.765 13.28 197.825 13.28 198.005 13.26C198.325 12.72 198.405 12.58 199.125 11.22C197.805 9.46 197.305 9.02 196.865 8.66L197.585 7.58C197.865 7.74 197.905 7.76 198.245 7.96C198.485 6.96 198.525 6.64 198.645 5.7L200.945 6.4C200.865 6.56 200.805 6.66 200.765 6.74C200.205 7.92 200.065 8.16 199.585 8.86C199.845 9.04 199.925 9.1 200.085 9.22C200.405 8.54 200.605 7.92 200.745 7.5L202.505 8.26V5.88H205.885V6.2C205.885 6.78 205.885 7.36 205.905 7.94C205.945 7.96 206.085 8.06 206.125 8.08C206.145 7.94 206.485 5.9 206.525 5.72L208.985 6.56C208.945 6.64 208.885 6.74 208.825 6.86C208.285 7.8 207.585 8.68 207.425 8.88C207.725 9.08 207.845 9.16 208.005 9.28C208.125 9.02 208.625 7.82 208.725 7.58L211.225 8.76C211.225 8.76 209.105 11.22 208.965 11.38ZM206.165 15.36H207.105C207.085 15.12 207.065 14.86 207.005 14.38L206.165 14.62C206.125 14.62 206.125 14.64 206.085 14.64C206.105 14.84 206.125 14.88 206.165 15.36ZM207.825 16.78H206.345C206.405 17.2 206.505 17.8 206.705 18.64C207.245 17.92 207.685 17.14 207.825 16.78ZM201.905 16.78V17.68C201.905 17.86 201.885 17.96 201.865 18.16C202.745 18.34 203.445 18.58 203.545 18.62C203.405 17.86 203.345 17.54 203.225 16.78H201.905ZM200.965 11.66L201.885 11.3C202.185 11.7 202.245 11.78 202.765 12.64C202.725 12.22 202.665 11.32 202.565 9.76C202.325 10.08 201.025 11.58 200.965 11.66ZM207.125 11.12C206.745 10.64 206.225 10.1 205.945 9.82C205.965 11.08 205.985 11.56 206.005 12.82C206.105 12.8 206.145 12.8 206.225 12.8C206.325 12.6 207.045 11.24 207.125 11.12ZM208.925 11.44C208.765 11.6 208.005 12.44 207.825 12.64C207.985 12.62 208.105 12.6 209.165 12.48C209.085 11.92 208.985 11.64 208.925 11.44ZM200.945 11.68L199.685 13.16C199.985 13.14 200.305 13.12 201.165 13.04C201.045 12.28 201.025 12.16 200.945 11.68ZM227.005 12.44V13.4H216.365V12.42C215.765 12.76 214.585 13.36 212.785 13.94L211.905 12.72C216.265 10.34 217.945 7.48 218.705 6.08H224.605C226.425 9.3 228.225 10.92 231.465 12.84L230.485 13.96C229.705 13.68 228.545 13.24 227.005 12.44ZM217.165 11.98H226.165C223.245 10.28 222.185 9.08 221.645 8.44C220.165 10.24 217.765 11.64 217.165 11.98ZM223.165 18.46L224.385 17.68C226.465 19.02 228.905 21.26 230.425 23.08L226.345 25.04C225.965 24 225.885 23.82 225.545 22.94C223.525 23.34 220.485 23.96 214.925 24.82C214.665 24.86 214.345 24.92 214.145 24.96L213.305 22.12C214.125 22.12 214.945 22.12 215.765 22.1C216.965 18.56 216.985 18.52 217.325 17.1H212.605V15.7H230.845V17.1H221.705C220.905 18.54 219.285 20.92 218.485 21.98C221.445 21.84 221.785 21.84 224.965 21.64C224.465 20.6 223.845 19.52 223.165 18.46ZM244.887 21.04H241.587V17.9C240.467 18.48 239.707 19.44 239.707 20.68C239.707 22.1 240.727 22.76 243.587 22.76C245.227 22.76 246.807 22.64 248.467 22.32V24.22C247.487 24.3 246.327 24.36 245.347 24.36H242.127C237.707 24.36 236.407 23.26 236.407 21.36C236.407 18.76 239.267 17.22 241.467 16.06C241.327 15.38 241.067 14.16 239.787 14.16C238.647 14.16 238.087 15.06 237.807 15.56C237.527 16.06 236.407 18.24 235.687 20.04L232.567 18.9C233.087 17.7 233.647 16.46 236.427 10.88C234.867 10.96 234.387 10.98 233.067 10.98L233.107 9.42C234.627 9.42 236.587 9.32 237.207 9.3C238.267 7.2 238.407 6.92 238.687 6L242.667 6.88C242.067 7.88 242.007 7.98 241.387 9.06C244.487 8.84 245.127 8.78 246.547 8.56L246.527 10.2C244.927 10.38 241.887 10.58 240.447 10.66C239.947 11.5 239.747 11.86 239.207 12.84C240.007 12.44 240.707 12.44 240.927 12.44C242.607 12.44 243.767 13.16 244.367 14.74C245.267 14.36 245.927 14.1 248.107 13.32L248.707 15.64C246.687 16.04 245.707 16.32 244.767 16.6C244.807 17.12 244.887 17.8 244.887 19.18V21.04ZM256.409 24.56V24.94H253.069V22.24C252.289 23.62 251.229 24.58 250.849 24.94L249.849 23.94C251.069 21.52 251.069 18.04 251.069 17.34V12.4C250.969 12.44 250.909 12.46 250.669 12.56L249.849 11.16C251.929 9.72 252.949 8.36 253.949 6.14H258.769C259.429 7.84 260.209 9.16 262.069 10.74V7.2H264.589V20.9H262.069V11.48L261.589 12.16C260.789 11.8 260.389 11.6 259.569 11.14V11.7H253.109V11.32C252.349 11.78 251.829 12.06 251.109 12.38H261.169V18.56H254.409C254.349 18.9 254.329 19.08 254.249 19.36H261.169V24.56H256.409ZM254.669 13.8V14.68H257.789V13.8H254.669ZM257.789 17.14V16.1H254.669V17.14H257.789ZM256.409 23.14H257.849V20.76H256.409V23.14ZM254.549 10.3H258.229C256.909 9.34 256.629 8.98 256.329 8.56C255.889 9.14 255.309 9.68 254.549 10.3ZM265.229 5.94H268.669V21.64C268.669 23.74 268.489 24.78 265.389 24.78H262.909L262.649 23.24C263.809 23.4 264.209 23.4 264.349 23.4C265.109 23.4 265.229 23.08 265.229 22.36V5.94ZM277.949 13.4V5.88H281.609V13.4H284.549V7.46H288.269V14.82H281.609V22.52H285.089V16.12H288.749V24.92H285.089V23.92H274.469V24.92H270.749V16.12H274.469V22.52H277.949V14.82H271.289V7.46H275.029V13.4H277.949ZM290.663 11.12V9.56C293.083 9.34 296.823 9.18 299.543 9.08C299.463 7.64 299.463 7.48 299.343 6.06L303.163 6.34C303.163 7.7 303.183 8.46 303.183 8.98C305.023 8.94 306.163 8.9 307.823 8.9V10.48C306.623 10.48 305.803 10.48 303.223 10.54C303.243 11.54 303.323 15.66 303.323 16.4C303.323 22.98 298.003 24.28 295.023 24.76L294.363 23.36C298.543 22.52 299.263 20.44 299.723 19.2C298.583 20.36 297.103 20.36 296.943 20.36C296.063 20.36 293.643 20.02 293.643 16.22C293.643 13.96 294.683 11.62 297.343 11.62C298.583 11.62 299.243 12.1 299.663 12.4C299.663 11.74 299.623 10.9 299.623 10.62C297.603 10.7 293.143 10.86 290.663 11.12ZM298.203 13.48C296.803 13.48 296.723 15.32 296.723 15.88C296.723 16.16 296.763 18.12 298.183 18.12C299.063 18.12 299.743 17.32 299.743 15.8C299.743 14.78 299.323 13.48 298.203 13.48ZM312.723 8.76L312.663 6.98C315.163 6.98 319.423 6.9 323.063 6.68L324.003 8.16C322.483 9.4 319.983 11.54 318.343 13.06C319.063 12.82 319.963 12.74 320.743 12.74C324.343 12.74 326.603 14.9 326.603 18.02C326.603 22.54 322.663 24.22 318.623 24.22C315.343 24.22 313.563 22.78 313.563 21.04C313.563 19.64 314.523 18.12 317.383 18.12C318.223 18.12 319.163 18.32 319.863 18.74C321.163 19.5 321.463 20.44 321.723 21.62C322.223 21.06 322.983 20.24 322.983 18.34C322.983 16.5 322.063 14.36 319.283 14.36C316.923 14.36 315.563 15.72 312.183 19.68L309.543 17.34C312.943 13.84 316.743 10.18 318.623 8.4C316.703 8.58 314.363 8.72 312.723 8.76ZM319.243 22.86C319.183 21.74 319.063 19.7 317.483 19.7C316.503 19.7 316.223 20.52 316.223 21.12C316.223 22.14 317.223 22.94 318.363 22.94C318.423 22.94 318.803 22.94 319.243 22.86ZM345.781 21.04V24.02C344.181 24.12 340.881 24.14 340.641 24.14C338.981 24.14 335.541 24.12 335.541 21.26C335.541 20.04 336.081 19 336.741 18.12L338.161 18.72C337.801 19.2 337.521 19.84 337.521 20.44C337.521 21.62 338.581 21.62 340.121 21.62C342.241 21.62 344.441 21.4 345.781 21.04ZM346.201 12.7L345.721 15.76C343.581 14.86 341.301 14.12 338.321 14.02L338.401 12.32C339.281 12.3 340.501 12.3 340.641 12.3C342.021 12.3 344.161 12.34 346.201 12.7ZM339.781 9.66V11.22C339.181 11.28 338.541 11.34 336.221 11.46C334.301 17.52 333.201 21.42 332.521 24.02L328.941 23.1C330.041 19.46 331.261 15.44 332.441 11.62C330.221 11.7 329.681 11.7 329.001 11.7V10.1C330.181 10.1 330.921 10.1 332.941 10.04C333.481 8.28 333.541 8.08 334.081 6.4L337.701 7.08C337.401 7.86 337.061 8.86 336.721 9.86C338.361 9.78 338.621 9.76 339.781 9.66ZM357.199 6.42L360.979 7.36C360.779 8.52 360.619 9.32 360.299 10.58C361.659 11.02 365.199 12.18 365.199 16.84C365.199 20.18 363.259 21.82 362.199 22.48C360.239 23.72 358.019 23.88 356.439 24L356.039 22.54C357.679 22.32 361.599 21.82 361.599 16.5C361.599 14.1 360.599 13.16 359.759 12.56C356.919 22 354.119 23.38 351.899 23.38C349.119 23.38 348.299 20.76 348.299 18.6C348.299 15.24 350.199 13.34 350.979 12.56C350.699 10.84 350.599 9.74 350.479 8L353.799 7.66C353.819 8.8 353.839 9.58 353.899 10.76C354.919 10.4 355.619 10.26 356.759 10.2C356.999 8.6 357.099 7.78 357.199 6.42ZM351.539 15.24C351.239 15.86 350.679 17.08 350.679 19.22C350.679 19.66 350.679 21.54 351.719 21.54C352.479 21.54 353.139 20.54 353.479 20.04C352.539 18.52 352.079 17.22 351.539 15.24ZM354.939 17.06C355.739 14.88 356.119 13.36 356.439 11.84C355.559 11.94 354.959 12.1 354.039 12.56C354.259 14.38 354.459 15.52 354.939 17.06ZM377.249 23.64L376.769 22.06C378.329 21.64 381.809 20.68 381.809 14.96C381.809 10.58 379.249 9.64 378.229 9.26C378.029 11.56 377.649 15.7 376.609 18.74C375.589 21.74 374.129 22.82 372.189 22.82C369.069 22.82 367.409 19.8 367.409 16.54C367.409 11.94 370.529 7.38 376.949 7.38C380.729 7.38 385.549 9.1 385.549 15.22C385.549 22.08 379.589 23.2 377.249 23.64ZM374.629 9.26C373.789 9.58 372.929 9.92 371.969 11.28C370.729 13.06 370.369 15.38 370.369 17.46C370.369 18.08 370.369 20.92 371.689 20.92C372.809 20.92 374.169 16.34 374.629 9.26ZM404.14 14.6V21.76H402.2C403 22.6 404.42 23.3 406.46 23.76L405.42 25.02C402.38 24.72 399.42 23.98 397.84 22.7L399.94 21.76H393.42L395.58 22.72C395.46 22.8 395.18 22.98 395.14 23C393.02 24.2 390.66 24.84 388.24 25.04L387.12 23.84C388.22 23.58 389.82 23.2 391.3 21.76H389.48V15.52C388.68 15.74 388.24 15.8 387.82 15.86L386.98 14.6C389.28 14.04 390.36 13.58 391.34 12.44H387.32C387.68 10.98 387.72 10.74 388.02 9.08H392.48C392.5 8.7 392.5 8.64 392.5 8.32H388.14V6.9H392.5V5.9H396.02V6.9H397.14V5.9H400.6V6.9H405.08V10.4H400.6V11.12H406.14C405.92 13.7 405.84 14.54 404.14 14.6ZM393.12 14.88V15.68H400.42V14.88H393.12ZM400.6 13.46H401.48L401.34 12.98C401.44 13.04 401.66 13.14 401.98 13.14C402.38 13.14 402.4 13.04 402.46 12.44H400.6V13.46ZM393.88 13.46H397.14V12.44H394.88C394.5 12.94 394.16 13.24 393.88 13.46ZM393.12 17.08V17.94H400.42V17.08H393.12ZM397.14 10.4H395.84C395.76 10.76 395.7 10.9 395.62 11.12H397.14V10.4ZM397.14 8.32H396.02V9.08H397.14V8.32ZM400.42 20.34V19.36H393.12V20.34H400.42ZM401.68 8.32H400.6V9.08H401.68V8.32ZM391.04 11.12H392.12C392.2 10.88 392.24 10.66 392.3 10.4H391.22L391.04 11.12ZM418.82 18.12V24.2H415.18V18.12H411.9C411.58 20.14 410.94 22.08 408.18 24.94L407.1 23.88C408.12 21.98 408.54 20.28 408.54 15.74V6.54H425.58V21.84C425.58 24.36 424.64 24.7 422.68 24.7H419.58L419.22 23.16C420.22 23.32 420.88 23.32 420.94 23.32C421.32 23.32 421.94 23.32 421.94 22.22V18.12H418.82ZM418.82 13.08V16.7H421.94V13.08H418.82ZM415.18 16.7V13.08H412.16V15.16C412.16 15.66 412.14 16.2 412.08 16.7H415.18ZM418.82 7.96V11.68H421.94V7.96H418.82ZM415.18 11.68V7.96H412.16V11.68H415.18Z" fill="#237233"/>
</svg>
