<svg width="80" height="80" viewBox="0 0 80 80" fill="none" xmlns="http://www.w3.org/2000/svg">
<circle cx="40" cy="40" r="40" fill="#EEF1EC"/>
<path d="M35.0005 28.3329C34.0807 28.3329 33.333 27.5876 33.333 26.6653V25.0002C33.333 22.2425 35.5754 20 38.333 20H56.2505C57.1703 20 57.918 20.7453 57.918 21.6676C57.918 22.5898 57.1703 23.3327 56.2505 23.3327H38.333C37.4132 23.3327 36.6655 24.0804 36.6655 25.0002V26.6678C36.668 27.5876 35.9203 28.3329 35.0005 28.3329Z" fill="#87C067"/>
<path d="M44.1685 55.0014H38.3359C35.5784 55.0014 33.3359 52.7589 33.3359 50.0012V46.6685C33.3335 45.7463 34.0812 45.001 35.001 45.001C35.9208 45.001 36.6685 45.7463 36.6685 46.6685V50.0012C36.6685 50.921 37.4161 51.6688 38.3359 51.6688H44.1685C45.0883 51.6688 45.8359 52.414 45.8359 53.3363C45.8335 54.2562 45.0883 55.0014 44.1685 55.0014Z" fill="#87C067"/>
<path d="M31.1774 44.5137C30.7001 44.9916 29.9847 45.1338 29.3597 44.8762C28.7378 44.6187 28.3325 44.0113 28.3325 43.3362V38.336H21.6675C20.7452 38.3336 20 37.5883 20 36.6685C20 35.7486 20.7452 35.0009 21.6675 35.0009H28.335V30.0007C28.335 29.3256 28.7402 28.7183 29.3628 28.4607C29.9847 28.2031 30.7025 28.3453 31.1798 28.8232L37.8473 35.491C38.4973 36.1411 38.4973 37.1958 37.8473 37.8483L31.1774 44.5137Z" fill="#237233"/>
<path d="M55.6053 20.163L45.5907 23.5006C44.2406 23.9706 43.333 25.2408 43.333 26.666V56.6674C43.333 58.5046 44.8278 60.0001 46.6655 60.0001C47.0256 60.0001 47.3632 59.95 47.7281 59.8377L57.7452 56.4971C59.0929 56.0295 60.0005 54.7575 60.0005 53.3347V23.3333C60.0005 21.1384 57.8429 19.4782 55.6053 20.163Z" fill="#237233"/>
</svg>
