<svg width="860" height="265" viewBox="0 0 860 265" fill="none" xmlns="http://www.w3.org/2000/svg">
<rect x="0.5" y="0.5" width="859" height="264" rx="7.5" fill="white" stroke="#237233"/>
<path d="M58.368 181.624H60.464V194.024C60.464 194.621 60.3893 195.069 60.24 195.368C60.0907 195.667 59.8347 195.896 59.472 196.056C59.0987 196.205 58.6293 196.301 58.064 196.344C57.5093 196.397 56.8427 196.419 56.064 196.408C56.032 196.227 55.9733 196.013 55.888 195.768C55.8027 195.533 55.7067 195.293 55.6 195.048C55.504 194.803 55.4027 194.595 55.296 194.424C55.648 194.435 56 194.445 56.352 194.456C56.704 194.467 57.0187 194.472 57.296 194.472C57.5733 194.461 57.7707 194.456 57.888 194.456C58.0587 194.456 58.1813 194.424 58.256 194.36C58.3307 194.296 58.368 194.184 58.368 194.024V181.624ZM62.208 185.832L64.096 185.128C64.5333 185.885 64.9547 186.696 65.36 187.56C65.776 188.413 66.1387 189.256 66.448 190.088C66.768 190.909 66.9973 191.656 67.136 192.328L65.024 193.16C64.9173 192.509 64.72 191.768 64.432 190.936C64.1547 190.093 63.8187 189.229 63.424 188.344C63.04 187.448 62.6347 186.611 62.208 185.832ZM54.176 185.304L56.352 185.672C56.1707 186.461 55.952 187.304 55.696 188.2C55.44 189.085 55.136 189.933 54.784 190.744C54.4427 191.544 54.048 192.243 53.6 192.84C53.44 192.723 53.2427 192.6 53.008 192.472C52.784 192.344 52.5547 192.227 52.32 192.12C52.096 192.003 51.8933 191.907 51.712 191.832C52.1493 191.288 52.528 190.643 52.848 189.896C53.1787 189.139 53.456 188.36 53.68 187.56C53.904 186.749 54.0693 185.997 54.176 185.304ZM71.728 186.872H79.104V188.536H71.728V186.872ZM68.864 190.472H83.184V192.232H68.864V190.472ZM75.024 189.432H76.992V194.376C76.992 194.867 76.9227 195.251 76.784 195.528C76.6453 195.805 76.384 196.013 76 196.152C75.616 196.291 75.168 196.376 74.656 196.408C74.144 196.44 73.5467 196.456 72.864 196.456C72.8 196.179 72.688 195.859 72.528 195.496C72.3787 195.144 72.2293 194.84 72.08 194.584C72.4213 194.595 72.768 194.605 73.12 194.616C73.472 194.627 73.7813 194.632 74.048 194.632C74.3253 194.632 74.5173 194.627 74.624 194.616C74.784 194.616 74.8907 194.595 74.944 194.552C74.9973 194.509 75.024 194.435 75.024 194.328V189.432ZM78.496 186.872H78.96L79.376 186.776L80.576 187.704C80.224 188.099 79.8133 188.493 79.344 188.888C78.8747 189.283 78.384 189.656 77.872 190.008C77.36 190.349 76.8427 190.648 76.32 190.904C76.2027 190.733 76.0373 190.541 75.824 190.328C75.6213 190.104 75.4507 189.923 75.312 189.784C75.728 189.571 76.1387 189.315 76.544 189.016C76.96 188.717 77.3387 188.413 77.68 188.104C78.0213 187.784 78.2933 187.496 78.496 187.24V186.872ZM69.072 183.944H83.008V187.864H81.12V185.64H70.864V187.864H69.072V183.944ZM80.144 181.512L82.224 182.12C81.8613 182.653 81.4827 183.176 81.088 183.688C80.6933 184.2 80.336 184.632 80.016 184.984L78.432 184.408C78.6453 184.131 78.8533 183.827 79.056 183.496C79.2693 183.165 79.472 182.829 79.664 182.488C79.856 182.136 80.016 181.811 80.144 181.512ZM70.144 182.296L71.776 181.56C72.064 181.88 72.3467 182.237 72.624 182.632C72.9013 183.016 73.104 183.363 73.232 183.672L71.504 184.488C71.3867 184.189 71.1947 183.837 70.928 183.432C70.672 183.016 70.4107 182.637 70.144 182.296ZM74.16 181.944L75.856 181.32C76.112 181.661 76.3573 182.051 76.592 182.488C76.8373 182.925 77.0133 183.309 77.12 183.64L75.312 184.344C75.2267 184.024 75.072 183.64 74.848 183.192C74.6347 182.733 74.4053 182.317 74.16 181.944ZM87.968 184.312H99.104V186.184H87.968V184.312ZM87.296 189.016H98.48V190.872H87.296V189.016ZM85.456 194.104H99.92V195.976H85.456V194.104ZM91.664 181.4H93.68V195.016H91.664V181.4ZM87.968 181.608L89.952 182.056C89.728 182.877 89.4507 183.688 89.12 184.488C88.7893 185.288 88.432 186.035 88.048 186.728C87.664 187.411 87.264 188.008 86.848 188.52C86.72 188.403 86.5493 188.275 86.336 188.136C86.1333 187.987 85.92 187.843 85.696 187.704C85.472 187.565 85.28 187.453 85.12 187.368C85.5467 186.92 85.936 186.387 86.288 185.768C86.6507 185.149 86.9707 184.483 87.248 183.768C87.536 183.053 87.776 182.333 87.968 181.608Z" fill="#237233"/>
<path d="M344.768 184.184H357.984V192.216H355.968V186.072H346.688V192.296H344.768V184.184ZM345.76 189.528H357.088V191.416H345.76V189.528ZM350.304 181.4H352.336V196.424H350.304V181.4ZM363.728 186.872H371.104V188.536H363.728V186.872ZM360.864 190.472H375.184V192.232H360.864V190.472ZM367.024 189.432H368.992V194.376C368.992 194.867 368.923 195.251 368.784 195.528C368.645 195.805 368.384 196.013 368 196.152C367.616 196.291 367.168 196.376 366.656 196.408C366.144 196.44 365.547 196.456 364.864 196.456C364.8 196.179 364.688 195.859 364.528 195.496C364.379 195.144 364.229 194.84 364.08 194.584C364.421 194.595 364.768 194.605 365.12 194.616C365.472 194.627 365.781 194.632 366.048 194.632C366.325 194.632 366.517 194.627 366.624 194.616C366.784 194.616 366.891 194.595 366.944 194.552C366.997 194.509 367.024 194.435 367.024 194.328V189.432ZM370.496 186.872H370.96L371.376 186.776L372.576 187.704C372.224 188.099 371.813 188.493 371.344 188.888C370.875 189.283 370.384 189.656 369.872 190.008C369.36 190.349 368.843 190.648 368.32 190.904C368.203 190.733 368.037 190.541 367.824 190.328C367.621 190.104 367.451 189.923 367.312 189.784C367.728 189.571 368.139 189.315 368.544 189.016C368.96 188.717 369.339 188.413 369.68 188.104C370.021 187.784 370.293 187.496 370.496 187.24V186.872ZM361.072 183.944H375.008V187.864H373.12V185.64H362.864V187.864H361.072V183.944ZM372.144 181.512L374.224 182.12C373.861 182.653 373.483 183.176 373.088 183.688C372.693 184.2 372.336 184.632 372.016 184.984L370.432 184.408C370.645 184.131 370.853 183.827 371.056 183.496C371.269 183.165 371.472 182.829 371.664 182.488C371.856 182.136 372.016 181.811 372.144 181.512ZM362.144 182.296L363.776 181.56C364.064 181.88 364.347 182.237 364.624 182.632C364.901 183.016 365.104 183.363 365.232 183.672L363.504 184.488C363.387 184.189 363.195 183.837 362.928 183.432C362.672 183.016 362.411 182.637 362.144 182.296ZM366.16 181.944L367.856 181.32C368.112 181.661 368.357 182.051 368.592 182.488C368.837 182.925 369.013 183.309 369.12 183.64L367.312 184.344C367.227 184.024 367.072 183.64 366.848 183.192C366.635 182.733 366.405 182.317 366.16 181.944ZM379.968 184.312H391.104V186.184H379.968V184.312ZM379.296 189.016H390.48V190.872H379.296V189.016ZM377.456 194.104H391.92V195.976H377.456V194.104ZM383.664 181.4H385.68V195.016H383.664V181.4ZM379.968 181.608L381.952 182.056C381.728 182.877 381.451 183.688 381.12 184.488C380.789 185.288 380.432 186.035 380.048 186.728C379.664 187.411 379.264 188.008 378.848 188.52C378.72 188.403 378.549 188.275 378.336 188.136C378.133 187.987 377.92 187.843 377.696 187.704C377.472 187.565 377.28 187.453 377.12 187.368C377.547 186.92 377.936 186.387 378.288 185.768C378.651 185.149 378.971 184.483 379.248 183.768C379.536 183.053 379.776 182.333 379.968 181.608Z" fill="#237233"/>
<path d="M626.336 182.728H640.384V184.376H626.336V182.728ZM632.272 181.384H634.24V183.544H632.272V181.384ZM626.96 189.192H638.672V190.776H628.832V196.44H626.96V189.192ZM637.952 189.192H639.872V194.408C639.872 194.845 639.819 195.197 639.712 195.464C639.605 195.741 639.397 195.955 639.088 196.104C638.779 196.243 638.411 196.328 637.984 196.36C637.557 196.392 637.051 196.408 636.464 196.408C636.432 196.141 636.357 195.832 636.24 195.48C636.123 195.139 636 194.851 635.872 194.616C636.245 194.627 636.603 194.637 636.944 194.648C637.296 194.648 637.525 194.643 637.632 194.632C637.76 194.621 637.845 194.6 637.888 194.568C637.931 194.536 637.952 194.472 637.952 194.376V189.192ZM630.272 191.512H631.936V195.848H630.272V191.512ZM631.12 191.512H636.416V195.112H631.12V193.816H634.736V192.808H631.12V191.512ZM630.784 186.264V187.24H635.808V186.264H630.784ZM628.96 184.984H637.76V188.52H628.96V184.984ZM648.464 183.64H657.344V185.4H648.464V183.64ZM651.92 181.4H653.808V184.424H651.92V181.4ZM650.32 185.544L652.048 186.264C651.696 186.957 651.275 187.629 650.784 188.28C650.293 188.92 649.787 189.459 649.264 189.896C649.125 189.715 648.923 189.507 648.656 189.272C648.389 189.027 648.155 188.824 647.952 188.664C648.432 188.291 648.88 187.821 649.296 187.256C649.723 186.68 650.064 186.109 650.32 185.544ZM653.648 186.328L655.136 185.48C655.456 185.821 655.776 186.189 656.096 186.584C656.427 186.979 656.725 187.373 656.992 187.768C657.269 188.152 657.483 188.509 657.632 188.84L656.016 189.768C655.888 189.448 655.696 189.091 655.44 188.696C655.184 188.301 654.896 187.896 654.576 187.48C654.267 187.053 653.957 186.669 653.648 186.328ZM651.504 188.536C651.856 189.475 652.32 190.355 652.896 191.176C653.483 191.987 654.176 192.701 654.976 193.32C655.776 193.928 656.677 194.408 657.68 194.76C657.541 194.899 657.381 195.069 657.2 195.272C657.029 195.475 656.864 195.683 656.704 195.896C656.555 196.109 656.432 196.301 656.336 196.472C655.28 196.035 654.341 195.453 653.52 194.728C652.699 193.992 651.984 193.144 651.376 192.184C650.768 191.213 650.256 190.152 649.84 189L651.504 188.536ZM653.824 188.44L655.76 188.824C655.397 189.976 654.907 191.048 654.288 192.04C653.68 193.032 652.917 193.907 652 194.664C651.083 195.411 649.979 196.019 648.688 196.488C648.624 196.339 648.533 196.168 648.416 195.976C648.299 195.784 648.176 195.597 648.048 195.416C647.931 195.235 647.819 195.08 647.712 194.952C648.875 194.568 649.867 194.051 650.688 193.4C651.509 192.749 652.176 192.003 652.688 191.16C653.211 190.307 653.589 189.4 653.824 188.44ZM642.72 184.712H648.272V186.488H642.72V184.712ZM644.752 181.4H646.528V196.424H644.752V181.4ZM644.736 185.944L645.824 186.312C645.707 186.952 645.557 187.613 645.376 188.296C645.205 188.979 645.008 189.651 644.784 190.312C644.56 190.963 644.315 191.576 644.048 192.152C643.792 192.717 643.515 193.203 643.216 193.608C643.131 193.352 642.997 193.059 642.816 192.728C642.645 192.397 642.485 192.115 642.336 191.88C642.603 191.528 642.853 191.117 643.088 190.648C643.333 190.179 643.563 189.683 643.776 189.16C643.989 188.627 644.176 188.088 644.336 187.544C644.496 186.989 644.629 186.456 644.736 185.944ZM646.464 187.208C646.56 187.325 646.704 187.528 646.896 187.816C647.088 188.093 647.296 188.397 647.52 188.728C647.744 189.059 647.947 189.368 648.128 189.656C648.32 189.944 648.453 190.147 648.528 190.264L647.488 191.688C647.392 191.443 647.264 191.155 647.104 190.824C646.944 190.493 646.768 190.152 646.576 189.8C646.395 189.437 646.219 189.101 646.048 188.792C645.877 188.483 645.733 188.227 645.616 188.024L646.464 187.208ZM661.968 184.312H673.104V186.184H661.968V184.312ZM661.296 189.016H672.48V190.872H661.296V189.016ZM659.456 194.104H673.92V195.976H659.456V194.104ZM665.664 181.4H667.68V195.016H665.664V181.4ZM661.968 181.608L663.952 182.056C663.728 182.877 663.451 183.688 663.12 184.488C662.789 185.288 662.432 186.035 662.048 186.728C661.664 187.411 661.264 188.008 660.848 188.52C660.72 188.403 660.549 188.275 660.336 188.136C660.133 187.987 659.92 187.843 659.696 187.704C659.472 187.565 659.28 187.453 659.12 187.368C659.547 186.92 659.936 186.387 660.288 185.768C660.651 185.149 660.971 184.483 661.248 183.768C661.536 183.053 661.776 182.333 661.968 181.608Z" fill="#237233"/>
<g clip-path="url(#clip0_643_786)">
<path d="M430.963 195.108C429.517 194.388 428.84 194.26 427.19 194.472C424.931 194.769 423.598 196.888 423.349 198.795C422.559 204.749 423.508 210.81 423.327 216.806C423.191 221.574 422.513 233.652 423.756 231.258C424.615 229.605 427.461 232.91 428.343 231.321C433.607 221.765 432.906 209.665 433.223 199.219C433.268 197.693 432.477 195.871 430.963 195.108Z" fill="#F9D2D4"/>
<path d="M424.953 229.689C422.129 230.346 418.74 231.702 417.136 234.097C416.051 235.728 417.068 236.237 418.921 236.322C420.254 236.385 421.564 236.025 422.852 235.749C424.027 235.495 425.202 235.368 426.354 234.987C428.071 234.414 429.404 233.864 428.952 232.295C428.523 230.791 426.761 229.287 424.953 229.71" fill="#E7B000"/>
<path d="M448.18 195.107C446.734 194.387 446.056 194.26 444.407 194.472C442.148 194.768 440.815 196.887 440.566 198.794C439.775 204.749 440.724 210.809 440.544 216.806C440.408 221.573 439.73 233.651 440.973 231.257C441.831 229.604 444.678 232.91 445.559 231.32C450.824 221.764 450.123 209.665 450.44 199.218C450.485 197.692 449.694 195.87 448.18 195.107Z" fill="#F9D2D4"/>
<path d="M442.17 229.689C439.346 230.346 435.957 231.702 434.375 234.097C433.29 235.728 434.307 236.237 436.16 236.322C437.493 236.385 438.803 236.025 440.091 235.749C441.266 235.495 442.441 235.368 443.593 234.987C445.31 234.414 446.643 233.864 446.191 232.295C445.762 230.791 444 229.287 442.192 229.71" fill="#E7B000"/>
<path d="M422.694 176.99L420.457 209.389C420.683 209.517 423.666 209.983 423.914 210.068C425.044 210.449 433.743 209.623 434.172 208.266L436.544 196.294L437.968 192.904L438.013 207.249C437.922 209.962 440.114 208.923 442.961 208.415L450.959 207.355C451.93 204.516 451.207 202.905 452.201 199.769C453.376 196.294 454.755 184.047 454.303 180.275C454.212 179.406 454.122 178.813 454.054 178.813C447.208 178.813 439.188 179.915 432.455 178.643C430.06 178.198 425.677 176.291 422.694 176.969" fill="#2396C8"/>
<path d="M422.627 151.181C420.141 151.944 417.295 156.796 416.368 158.152C411.262 155.631 405.591 149.973 402.157 145.672C400.937 144.146 397.367 135.501 394.498 139.929C392.306 143.32 396.78 144.316 397.706 145.587C401.411 150.567 413.476 177.901 422.762 162.878C423.96 160.928 424.841 158.788 425.361 156.584C425.699 155.08 425.858 153.406 424.954 152.113C424.276 151.117 423.463 150.906 422.604 151.16" fill="#F9D2D4"/>
<path d="M439.614 139.655C440.021 139.4 440.518 139.273 441.15 139.315C448.832 139.888 460.875 146.054 460.942 156.924C460.942 158.238 455.497 158.323 454.413 158.005C454.3 161.332 454.164 163.896 454.051 165.93C453.871 170.655 454.277 173.982 454.797 179.449C454.91 180.614 455.588 183.199 455.045 184.005C452.786 187.353 441.15 187.882 434.101 186.081C431.684 185.467 425.606 185.085 423.911 183.305C420.997 180.233 423.527 171.863 423.437 167.9C423.301 162.37 423.211 157.009 423.301 156.627C421.788 156.966 419.912 154.297 419.912 154.297C422.895 137.917 430.667 138.786 439.659 139.676" fill="#E7B000"/>
<path d="M444.587 118.443C442.418 117.723 440.52 117.914 438.419 118.698C436.973 119.227 434.216 120.923 432.815 119.969C431.573 119.121 429.901 118.994 428.952 120.245C428.184 121.24 428.251 122.681 429.087 123.487C431.234 125.542 433.38 125.521 436.25 125.711C437.424 125.796 438.419 126.22 439.322 126.856C440.497 128.233 441.853 130.034 443.367 131.306L450.145 128.339C451.206 124.165 449.241 120.011 444.587 118.443Z" fill="#1E2678"/>
<path d="M394.18 138.362C396.643 138.489 401.297 143.299 397.14 144.57C394.677 145.312 391.13 139.909 394.18 138.743" fill="#F9D2D4"/>
<path d="M440.292 145.037C437.581 145.037 435.367 142.982 435.367 140.418V133.701C435.367 131.158 437.559 129.081 440.292 129.081C443.026 129.081 445.218 131.137 445.218 133.701V140.418C445.218 142.961 443.026 145.037 440.292 145.037Z" fill="#F9D2D4"/>
<path d="M433.403 124.78C432.929 126.157 432.68 127.577 432.545 129.017V129.357C432.409 130.755 432.409 132.175 432.387 133.594C432.387 134.527 432.793 135.247 433.381 135.756C433.9 136.625 434.849 137.027 435.821 137.07C436.047 137.07 436.273 137.07 436.521 137.048C437.041 137.006 437.515 136.879 437.945 136.646L438.261 136.497H438.284C438.826 136.222 439.413 135.947 440.001 135.65C443.006 134.145 446.124 132.365 447.705 129.568C444.022 125.818 438.735 124.97 433.426 124.78" fill="#F9D2D4"/>
<path d="M450.391 125.203C450.21 123.804 449.623 122.406 448.38 121.897C447.296 121.452 446.392 121.622 445.669 122.194C444.856 119.545 442.822 117.659 439.93 119.312C437.151 120.88 430.215 123.232 431.593 127.004C432.746 130.183 439.501 128.784 442.506 127.534C442.619 129.822 444.155 134.272 445.285 134.971C448.945 137.218 450.64 127.195 450.391 125.203Z" fill="#1E2678"/>
<path d="M442.439 131.835C442.213 131.178 442.801 130.436 443.524 130.33C444.247 130.225 444.992 130.648 445.309 131.263C445.625 131.877 445.58 132.619 445.309 133.255C445.196 133.488 445.06 133.721 444.857 133.89C444.247 134.378 443.23 134.06 442.756 133.445C442.281 132.831 442.191 132.047 442.123 131.305" fill="#F9D2D4"/>
<path d="M424.771 134.738C424.771 134.738 415.598 131.856 411.101 134.123V154.72C415.62 152.474 424.771 155.334 424.771 155.334" fill="#EFEFEF"/>
<path d="M400.032 130.606C400.032 130.606 409.205 130.755 413.701 134.505V155.102C409.182 151.351 400.032 151.203 400.032 151.203" fill="#EFEFEF"/>
<path d="M398.292 131.306C398.292 131.306 407.465 131.454 411.961 135.205V155.801C407.442 152.05 398.292 151.902 398.292 151.902" fill="#1E2678"/>
<path d="M425.63 135.819C425.63 135.819 416.457 132.937 411.961 135.205V155.801C416.479 153.555 425.63 156.415 425.63 156.415" fill="#1E2678"/>
<path d="M411.01 156.183L412.908 156.5L411.959 135.205" fill="#1E2678"/>
<path d="M454.414 157.983C453.216 158.81 451.929 162.2 450.821 164.128C445.286 162.581 438.056 157.305 433.786 153.724C432.272 152.453 426.963 144.634 425.087 149.507C423.641 153.237 428.25 153.406 429.425 154.466C434.102 158.683 451.635 183.263 457.622 166.819C458.39 164.679 459.565 160.102 459.61 157.835C456.447 157.856 455.159 157.496 454.436 158.004" fill="#F9D2D4"/>
</g>
<g clip-path="url(#clip1_643_786)">
<path d="M127.592 221.567C126.398 222.354 124.901 222.657 123.505 222.374C123.606 226.21 123.808 230.025 124.152 233.84C125.124 233.84 126.074 233.84 127.046 233.84C126.621 233.557 126.621 232.972 126.661 232.467C126.965 228.834 127.288 225.2 127.592 221.567Z" fill="#F9D2D4"/>
<path d="M123.363 237.171C123.363 235.899 123.323 234.627 123.303 233.376C124.456 233.537 125.549 232.992 126.601 232.487C126.864 232.366 127.228 232.265 127.39 232.508C127.653 233.618 127.855 234.728 127.977 235.838C128.118 237.009 128.179 238.24 127.653 239.29C127.127 240.34 125.812 241.066 124.739 240.582C124.153 240.299 123.748 239.714 123.566 239.088C123.384 238.462 123.363 237.816 123.363 237.15V237.171Z" fill="#754B5B"/>
<path d="M142.159 220.679C140.966 221.466 139.468 221.769 138.072 221.486C138.173 225.321 138.376 229.137 138.72 232.952C139.691 232.952 140.642 232.952 141.613 232.952C141.188 232.669 141.188 232.084 141.229 231.579C141.532 227.946 141.836 224.312 142.159 220.679Z" fill="#F9D2D4"/>
<path d="M137.909 236.302C137.909 235.031 137.869 233.759 137.849 232.507C139.002 232.669 140.094 232.124 141.147 231.619C141.41 231.498 141.774 231.397 141.936 231.639C142.199 232.75 142.401 233.86 142.522 234.97C142.664 236.141 142.725 237.372 142.199 238.422C141.673 239.472 140.358 240.198 139.285 239.714C138.698 239.431 138.294 238.846 138.112 238.22C137.93 237.594 137.909 236.948 137.909 236.282V236.302Z" fill="#754B5B"/>
<path d="M146.002 154.772C145.213 154.288 144.768 153.339 144.869 152.431C144.97 151.522 145.658 150.715 146.528 150.432C146.973 150.291 147.418 150.291 147.883 150.231C150.19 149.988 152.274 148.717 154.075 147.263C155.875 145.81 157.494 144.114 159.396 142.762C160.306 142.116 161.379 141.53 162.492 141.571C162.997 142.237 162.997 143.166 162.734 143.953C162.471 144.74 161.945 145.406 161.439 146.072C160.448 147.364 159.457 148.656 158.283 149.746C156.037 151.825 153.184 153.117 150.352 154.348C148.956 154.954 147.276 155.539 145.982 154.752L146.002 154.772Z" fill="#F9D2D4"/>
<path d="M115.975 161.272C114.822 160.707 113.75 161.453 113.426 162.362C112.9 162.604 112.495 163.109 112.475 163.856C112.475 164.885 112.354 165.854 112.495 166.883C112.758 168.539 114.377 169.669 115.955 168.781C117.25 168.054 117.473 166.46 117.513 165.127C117.554 163.835 117.311 161.918 115.975 161.272Z" fill="#F9D2D4"/>
<path d="M128.928 144.397C129.879 144.538 130.87 144.578 131.76 144.235C132.63 143.912 133.359 143.246 133.925 142.519C135.766 140.138 136.211 136.989 136.131 134.001C136.07 131.518 135.685 128.995 134.492 126.815C132.084 122.455 126.095 120.335 122.554 124.695C120.936 126.674 120.875 129.459 120.895 132.003C120.936 137.836 122.21 143.408 128.928 144.397Z" fill="#F9D2D4"/>
<path d="M146.812 137.291C146.326 136.444 145.233 135.777 144.384 135.192C142.401 133.819 141.49 132.649 140.6 130.63C138.334 125.543 135.218 120.053 128.319 118.296C122.067 116.702 119.234 121.789 118.263 125.745C117.332 129.601 116.867 133.052 113.549 136.181C111.505 138.099 110.089 140.097 111.667 142.519C112.719 144.134 115.734 144.74 117.717 144.054C119.922 143.287 120.812 141.611 121.298 139.815C121.925 137.412 121.5 134.566 121.298 131.781C122.37 129.742 124.879 128.47 127.853 128.329C129.674 128.248 131.778 129.278 133.336 129.964C133.458 130.024 133.579 130.085 133.701 130.146C134.571 132.204 134.874 135.313 135.299 136.524C136.513 139.956 141.086 146.052 146.265 142.439C148.046 141.187 147.702 138.785 146.812 137.291Z" fill="#463D27"/>
<path d="M142.562 161.514C142.562 161.413 142.562 161.292 142.562 161.191C142.643 158.022 141.935 154.853 140.498 152.027C139.79 150.614 138.779 149.241 137.888 147.949C136.937 146.577 134.975 146.375 133.437 146.355C131.778 146.335 130.099 146.557 128.46 146.234C127.043 145.971 125.708 145.305 124.292 145.083C122.006 144.72 118.869 145.628 117.574 147.687C116.361 149.625 116.097 152.189 115.369 154.328C114.378 157.275 112.577 160.202 112.253 163.25C112.172 163.957 112.901 164.421 113.629 164.663C114.196 164.845 115.369 165.027 116.907 165.168C115.976 173.363 115.794 182.346 116.158 186.081C116.259 187.049 117.372 187.817 118.728 187.837C124.879 187.938 140.822 188.14 142.481 187.211C145.01 185.818 144.464 179.561 144.403 177.32C144.262 172.011 142.522 166.743 142.582 161.514H142.562Z" fill="#754B5B"/>
<path d="M150.089 157.82C144.95 158.365 140.155 161.473 137.585 165.955C136.776 159.697 135.967 153.439 135.157 147.182C139.831 147.929 144.626 148.05 149.34 147.525C149.786 150.936 150.028 154.388 150.109 157.82H150.089Z" fill="#754B5B"/>
<path d="M135.379 147.581C135.096 153.455 135.642 162.564 135.379 168.438C131.454 168.64 127.529 168.842 123.603 169.023C123.603 161.555 123.583 154.086 123.563 146.617C121.985 146.133 120.265 147.283 119.476 148.817C118.687 150.351 118.606 152.168 118.525 153.924C118.302 159.193 118.08 164.481 117.877 169.75C117.109 188.079 116.4 206.852 121.681 224.333C124.19 223.989 126.719 223.909 129.228 224.05L131.879 208.527L135.824 223.505C139.426 223.505 143.007 223.525 146.608 223.545C148.146 199.141 135.911 172.19 140.038 148.129C138.723 148.109 136.203 145.937 135.379 147.581Z" fill="#E0C74E"/>
<path d="M124.474 173.565C120.691 173.686 118.384 169.003 116.381 166.44C116.078 166.056 115.693 165.854 115.289 165.753C114.277 165.128 112.557 165.592 112.537 167.166C112.476 170.699 115.612 173.707 117.777 176.189C119.113 177.744 120.853 178.793 122.937 178.773C124.96 178.773 126.295 177.199 126.235 175.281C126.194 174.352 125.466 173.505 124.495 173.545L124.474 173.565Z" fill="#F9D2D4"/>
</g>
<path d="M151.546 122.377C151.546 122.377 161.094 122.532 165.773 126.444V147.929C161.07 144.016 151.546 143.862 151.546 143.862" fill="#1E2678"/>
<path d="M179.999 127.085C179.999 127.085 170.452 124.079 165.772 126.444V147.929C170.475 145.586 179.999 148.57 179.999 148.57" fill="#1E2678"/>
<g clip-path="url(#clip2_643_786)">
<path d="M705.137 128.059C705.137 128.059 706.464 132.971 711.081 135.916L708.11 197.578C708.11 197.578 705.137 195.403 705.137 192.598V128.059Z" fill="#C1BBAC"/>
<path d="M759.935 139.483C759.842 139.444 759.743 139.404 759.644 139.394C758.723 139.286 758.173 139.744 757.26 139.876C756.851 139.934 756.147 139.193 755.794 139.929C755.665 140.2 755.445 140.907 755.172 141.49C754.774 142.336 753.726 143.188 752.759 143.718C748.96 145.803 744.659 146.863 740.373 147.786C740.127 147.838 739.871 147.888 739.629 147.83C739.195 147.725 738.941 147.314 738.73 146.942C737.749 145.223 736.599 143.588 735.294 142.067C734.13 140.709 732.808 139.415 731.134 138.661C729.46 137.904 727.369 137.772 725.791 138.69C724.61 139.378 723.821 140.625 723.75 141.925C723.573 145.149 728.113 147.2 730.489 148.851C732.735 150.414 735.1 151.827 737.557 153.08C737.861 153.235 738.177 153.391 738.521 153.42C738.887 153.451 739.248 153.341 739.598 153.23C744.087 151.796 748.413 149.998 752.725 148.11C753.909 147.591 754.653 146.554 755.752 146.085C756.454 145.785 757.235 146.022 757.965 145.874C758.686 145.729 759.594 145.368 760.208 144.986C761.417 144.229 761.485 142.826 761.673 141.606C761.721 141.303 761.752 141.097 761.648 140.825C761.479 140.385 761.073 140.137 760.676 139.879C760.442 139.726 760.194 139.589 759.935 139.483Z" fill="#EFBFA5"/>
<path d="M730.126 147.648C732.395 146.127 734.664 144.608 736.935 143.087C736.789 143.185 730.191 133.031 729.774 132.441C728.19 130.181 726.53 127.853 724.084 126.419C718.859 123.358 712.255 127.777 714.265 133.44C716.446 139.588 721.316 145.476 727.012 149.13C727.136 149.209 727.269 149.291 727.418 149.301C727.624 149.317 727.81 149.198 727.979 149.088C728.695 148.608 729.41 148.128 730.129 147.648" fill="#DDDAE8"/>
<path d="M724.916 226.602L724.817 233.157L728.969 233.21L729.079 225.943L724.916 226.602Z" fill="#EFBFA5"/>
<path d="M728.599 232.181L724.989 233.297L723.912 234.38L724.095 236.948L733.855 237.657C734.681 236.534 734.143 235.01 732.767 234.567L732.314 234.422L728.599 232.179V232.181Z" fill="#292949"/>
<path d="M694.996 220.32L692.245 226.349L696.064 227.87L699.113 221.184L694.996 220.32Z" fill="#EFBFA5"/>
<path d="M695.994 227.984C695.856 227.842 695.698 227.707 695.512 227.581C695.053 227.267 691.352 225.432 691.034 226.26C690.983 226.394 691 226.542 691.017 226.684C691.321 229.065 691.919 231.411 692.792 233.663C693.167 234.628 693.734 235.693 694.799 235.936C695.267 236.041 695.757 235.965 696.225 235.864C696.916 235.717 697.598 235.524 698.257 235.287C698.5 235.2 698.756 235.095 698.883 234.881C699.134 234.457 698.697 233.953 698.237 233.726C697.781 233.497 697.22 233.333 696.997 232.896C696.899 232.701 696.882 232.477 696.871 232.258C696.778 230.644 697.071 229.097 695.994 227.987" fill="#292949"/>
<path d="M721.082 196.229C719.721 202.055 715.826 206.242 711.666 210.526C706.906 215.43 702.427 220.574 698.259 225.926C696.458 225.222 694.654 224.521 692.854 223.817C694.361 215.628 698.513 208.117 701.728 200.371C703.963 194.99 705.775 189.297 705.874 183.481C705.922 180.589 705.175 177.945 704.772 175.132C704.276 171.646 704.248 168.076 703.797 164.575C703.648 163.402 703.56 162.012 704.527 161.25C704.955 160.91 705.522 160.768 706.074 160.668C726.566 156.956 723.672 185.15 721.082 196.229Z" fill="#BABCBE"/>
<path d="M704.388 165.671C704.377 162.136 704.839 158.729 705.546 156.13C711.375 155.837 717.964 156.441 723.727 157.535C729.361 158.606 732.875 159.752 732.918 165.468C732.994 175.985 737.388 184.944 739.284 195.055C740.386 200.929 738.481 206.184 736.37 211.625C733.955 217.85 731.897 224.199 730.212 230.632C728.259 230.621 726.306 230.611 724.356 230.6C722.428 222.49 723.223 214.064 723.059 205.756C722.947 199.983 722.312 194.077 720.046 188.659C717.555 182.706 713.965 185.076 709.844 181.622C705.839 178.266 704.41 171.777 704.391 165.671" fill="#BABCBE"/>
<path d="M711.006 125.196C710.363 125.663 709.797 126.227 709.239 126.784C708.737 127.282 708.238 127.783 707.736 128.281C706 130.013 705.144 132.573 704.402 134.785C700.49 146.42 699.081 162.387 701.623 174.543C711.262 175.321 722.417 173.049 732.033 171.82C732.969 171.701 734.028 171.504 734.513 170.747C734.806 170.288 734.815 169.724 734.815 169.189C734.815 161.469 733.07 153.175 731.436 145.566C730.745 142.355 729.894 139.172 728.806 136.059C727.653 132.763 726.351 129.204 723.649 126.712C720.757 124.044 715.225 122.726 711.606 124.809C711.4 124.927 711.203 125.057 711.011 125.196" fill="#D67086"/>
<path d="M712.059 126.817L711.537 123.669C711.303 123.563 711.081 123.447 710.875 123.326C706.856 120.924 700.115 108.035 710.827 105.148C720.556 102.527 720.049 115.048 718.152 120.268C717.828 121.162 717.394 122.005 716.748 122.738C716.309 123.239 716.21 123.144 716.272 123.724C716.334 124.286 716.931 124.921 717.067 125.514C717.21 126.147 717.157 126.846 716.765 127.378C716.526 127.705 716.173 127.948 715.801 128.132C715.207 128.428 714.516 128.589 713.857 128.473C713.07 128.333 712.185 127.574 712.059 126.822" fill="#EFBFA5"/>
<path d="M720.435 115.538C719.623 118.109 718.933 119.098 717.963 120.255C715.931 122.681 717.619 114.086 716.78 111.107C716.715 110.88 716.653 110.621 716.785 110.421C716.909 110.234 717.157 110.165 717.388 110.118C721.486 109.29 721.472 112.636 720.435 115.538Z" fill="#292949"/>
<path d="M709.673 120.181C709.016 121.046 707.576 120.814 706.561 120.337C702.399 118.378 699.947 113.664 700.871 109.39C701.643 105.815 706.463 103.134 707.438 107.563C707.784 109.134 706.761 111.31 706.995 113.052C707.331 115.544 708.571 117.924 709.676 120.179" fill="#292949"/>
<path d="M720.389 101.865C720.856 102.037 721.33 102.219 721.829 102.403C722.863 102.783 723.615 102.909 724.681 102.343C724.985 102.179 727.031 100.37 726.541 99.9961C729.804 102.488 727.121 106.123 725.895 108.694C725.07 110.429 724.901 112.878 723.046 114.012C721.006 115.259 719.608 113.682 717.756 112.976C716.124 112.353 714.357 112.016 712.695 111.46C709.935 110.539 705.832 108.923 706.748 105.496C707.816 101.491 712.153 100.492 716.048 100.798C717.711 100.929 719.016 101.354 720.391 101.863" fill="#292949"/>
<path d="M763.99 178.862L753.9 164.656V116.401C753.9 115.555 755.076 115.222 755.574 115.929L763.987 127.775V178.862H763.99Z" fill="#353A85"/>
<path d="M763.541 128.244L754.88 116.219L751.304 116.915L761.684 129.074V179.291L763.541 178.861V128.244Z" fill="white"/>
<path d="M722.669 124.621L728.847 122.52L761.683 129.074V177.67L722.669 171.097V124.621Z" fill="white"/>
<path d="M758.932 180.364L720.645 175.41C719.791 175.252 719.174 174.551 719.174 173.736V126.124C719.174 125.048 720.225 124.241 721.352 124.449L758.932 129.274V180.364Z" fill="#353A85"/>
<path d="M763.993 127.774C763.897 128.133 762.939 128.684 761.685 129.074C760.329 129.499 759.131 129.58 758.945 129.269L758.928 129.275V180.23C758.917 180.269 758.917 180.306 758.928 180.341V180.364H758.937C759.089 180.691 760.307 180.612 761.682 180.182C763.071 179.747 764.1 179.12 763.99 178.772V127.774H763.993Z" fill="#5D66D3"/>
<path d="M751.304 116.915V127.002L761.684 129.074L751.304 116.915Z" fill="#DFD8C7"/>
<path d="M761.681 129.074L731.796 121.803V123.108L761.681 129.074Z" fill="#CBC4B5"/>
<path d="M723.703 165.721L755.249 169.802V176.412L723.703 172.331V165.721Z" fill="#8CABEF"/>
<g opacity="0.08">
<mask id="mask0_643_786" style="mask-type:luminance" maskUnits="userSpaceOnUse" x="720" y="129" width="39" height="52">
<path d="M758.928 129.274H720.642V180.364H758.928V129.274Z" fill="white"/>
</mask>
<g mask="url(#mask0_643_786)">
<path d="M720.644 175.408L758.93 180.362V129.274C758.93 129.274 753.902 168.052 720.644 175.408Z" fill="#272525"/>
</g>
</g>
<path d="M743.117 160.667C743.047 160.596 742.974 160.525 742.889 160.478C742.092 160.035 741.393 160.251 740.496 160.029C740.096 159.932 739.766 158.988 739.13 159.528C738.896 159.729 738.391 160.296 737.895 160.728C737.171 161.356 735.843 161.743 734.733 161.87C730.362 162.363 725.965 161.73 721.639 160.976C721.391 160.934 721.135 160.884 720.937 160.741C720.582 160.483 720.529 160.011 720.492 159.592C720.326 157.649 719.968 155.721 719.421 153.839C718.933 152.162 718.271 150.48 717.059 149.162C715.847 147.844 713.987 146.942 712.147 147.195C710.769 147.385 709.515 148.234 708.895 149.402C707.356 152.291 710.645 155.869 712.119 158.268C713.514 160.538 715.078 162.719 716.797 164.786C717.009 165.041 717.231 165.3 717.536 165.458C717.857 165.624 718.237 165.658 718.604 165.685C723.33 166.046 728.068 166.012 732.825 165.89C734.133 165.856 735.254 165.184 736.463 165.163C737.236 165.149 737.85 165.658 738.583 165.795C739.307 165.932 740.293 165.94 741.021 165.816C742.452 165.574 743.112 164.314 743.805 163.264C743.977 163.003 744.095 162.827 744.115 162.539C744.149 162.073 743.881 161.693 743.628 161.308C743.478 161.081 743.309 160.863 743.117 160.667Z" fill="#EFBFA5"/>
<path d="M712.304 157.026C715.032 156.477 717.763 155.932 720.492 155.383C720.317 155.417 718.595 143.646 718.465 142.947C717.975 140.284 717.448 137.529 715.816 135.301C712.33 130.545 704.391 132.132 703.818 138.075C703.196 144.526 705.154 151.742 708.815 157.221C708.894 157.339 708.982 157.463 709.114 157.529C709.294 157.622 709.517 157.582 709.72 157.542C710.582 157.368 711.445 157.197 712.304 157.023" fill="#D67086"/>
</g>
<path opacity="0.2" d="M287 24L287 241" stroke="#237233" stroke-dasharray="2 2"/>
<path opacity="0.2" d="M573 24V241" stroke="#237233" stroke-dasharray="2 2"/>
<ellipse cx="83" cy="59.9945" rx="36" ry="35.9945" fill="#EEF1EC"/>
<path d="M95.3127 26.1817C91.049 24.6301 86.5304 23.8983 81.9948 24.025L83 60.0055L95.3127 26.1817Z" fill="#00913A"/>
<path d="M142.992 73.7796L144.544 73.0116C144.821 73.3743 145.098 73.7743 145.376 74.2116C145.653 74.6383 145.904 75.0649 146.128 75.4916C146.352 75.9076 146.517 76.2863 146.624 76.6276L144.96 77.4916C144.864 77.1609 144.709 76.7823 144.496 76.3556C144.293 75.9183 144.058 75.4756 143.792 75.0276C143.536 74.5796 143.269 74.1636 142.992 73.7796ZM143.536 69.2516H149.28V71.0756H143.536V69.2516ZM148.448 69.2516H150.304C150.304 69.2516 150.304 69.3103 150.304 69.4276C150.304 69.5449 150.304 69.6729 150.304 69.8116C150.304 69.9503 150.298 70.0623 150.288 70.1476C150.234 71.9076 150.176 73.4063 150.112 74.6436C150.058 75.8703 149.989 76.8836 149.904 77.6836C149.818 78.4836 149.717 79.1129 149.6 79.5716C149.493 80.0303 149.354 80.3663 149.184 80.5796C148.96 80.8889 148.725 81.1023 148.48 81.2196C148.245 81.3369 147.957 81.4223 147.616 81.4756C147.328 81.5183 146.954 81.5396 146.496 81.5396C146.048 81.5396 145.584 81.5343 145.104 81.5236C145.093 81.2463 145.029 80.9209 144.912 80.5476C144.794 80.1849 144.645 79.8649 144.464 79.5876C144.976 79.6303 145.445 79.6569 145.872 79.6676C146.298 79.6783 146.613 79.6836 146.816 79.6836C146.986 79.6836 147.12 79.6623 147.216 79.6196C147.322 79.5769 147.424 79.5076 147.52 79.4116C147.648 79.2729 147.76 78.9903 147.856 78.5636C147.952 78.1369 148.032 77.5396 148.096 76.7716C148.17 75.9929 148.234 75.0169 148.288 73.8436C148.352 72.6703 148.405 71.2676 148.448 69.6356V69.2516ZM143.632 66.5156L145.616 66.9636C145.392 67.7529 145.12 68.5316 144.8 69.2996C144.49 70.0569 144.149 70.7663 143.776 71.4276C143.402 72.0889 143.013 72.6649 142.608 73.1556C142.48 73.0383 142.314 72.9049 142.112 72.7556C141.909 72.6063 141.696 72.4623 141.472 72.3236C141.248 72.1849 141.056 72.0729 140.896 71.9876C141.312 71.5609 141.69 71.0596 142.032 70.4836C142.373 69.8969 142.677 69.2676 142.944 68.5956C143.221 67.9129 143.45 67.2196 143.632 66.5156ZM137.984 66.5476L139.68 67.1396C139.466 67.5556 139.242 67.9823 139.008 68.4196C138.773 68.8463 138.544 69.2623 138.32 69.6676C138.096 70.0623 137.877 70.4089 137.664 70.7076L136.368 70.1796C136.56 69.8489 136.757 69.4756 136.96 69.0596C137.162 68.6329 137.354 68.2009 137.536 67.7636C137.717 67.3263 137.866 66.9209 137.984 66.5476ZM139.904 68.4516L141.536 69.1236C141.141 69.7316 140.714 70.3716 140.256 71.0436C139.797 71.7049 139.333 72.3396 138.864 72.9476C138.394 73.5556 137.957 74.0889 137.552 74.5476L136.384 73.9556C136.693 73.5929 137.008 73.1823 137.328 72.7236C137.648 72.2649 137.962 71.7903 138.272 71.2996C138.592 70.8089 138.89 70.3183 139.168 69.8276C139.456 69.3263 139.701 68.8676 139.904 68.4516ZM135.52 70.3396L136.432 69.0276C136.709 69.2623 136.997 69.5289 137.296 69.8276C137.594 70.1156 137.866 70.4036 138.112 70.6916C138.368 70.9796 138.56 71.2463 138.688 71.4916L137.712 72.9796C137.584 72.7343 137.397 72.4569 137.152 72.1476C136.917 71.8276 136.656 71.5129 136.368 71.2036C136.08 70.8836 135.797 70.5956 135.52 70.3396ZM139.52 72.3076L140.88 71.7156C141.093 72.0676 141.301 72.4463 141.504 72.8516C141.706 73.2569 141.882 73.6569 142.032 74.0516C142.181 74.4356 142.293 74.7823 142.368 75.0916L140.896 75.7636C140.832 75.4649 140.73 75.1183 140.592 74.7236C140.453 74.3183 140.288 73.9076 140.096 73.4916C139.914 73.0649 139.722 72.6703 139.52 72.3076ZM135.52 73.5876C136.256 73.5663 137.141 73.5343 138.176 73.4916C139.221 73.4489 140.282 73.4009 141.36 73.3476L141.344 74.8676C140.341 74.9423 139.344 75.0169 138.352 75.0916C137.36 75.1556 136.469 75.2089 135.68 75.2516L135.52 73.5876ZM139.792 76.3076L141.2 75.8436C141.424 76.3236 141.632 76.8463 141.824 77.4116C142.016 77.9769 142.154 78.4676 142.24 78.8836L140.752 79.4276C140.677 79.0009 140.549 78.4996 140.368 77.9236C140.186 77.3369 139.994 76.7983 139.792 76.3076ZM136.208 75.9396L137.792 76.2276C137.706 76.9956 137.578 77.7529 137.408 78.4996C137.237 79.2463 137.04 79.8756 136.816 80.3876C136.709 80.3129 136.565 80.2276 136.384 80.1316C136.202 80.0463 136.016 79.9609 135.824 79.8756C135.642 79.7903 135.482 79.7263 135.344 79.6836C135.578 79.2036 135.765 78.6329 135.904 77.9716C136.042 77.2996 136.144 76.6223 136.208 75.9396ZM138.064 74.4356H139.76V81.5716H138.064V74.4356ZM153.056 80.1316V78.2116H155.616V70.7396H153.456V69.2676C154.053 69.1609 154.565 69.0329 154.992 68.8836C155.429 68.7236 155.834 68.5209 156.208 68.2756H157.952V78.2116H160.176V80.1316H153.056ZM166.253 80.3556C165.624 80.3556 165.064 80.2809 164.573 80.1316C164.083 79.9823 163.645 79.7849 163.261 79.5396C162.877 79.2943 162.536 79.0276 162.237 78.7396L163.325 77.2356C163.549 77.4596 163.789 77.6623 164.045 77.8436C164.312 78.0249 164.6 78.1689 164.909 78.2756C165.229 78.3823 165.571 78.4356 165.933 78.4356C166.339 78.4356 166.696 78.3503 167.005 78.1796C167.325 78.0089 167.576 77.7636 167.757 77.4436C167.939 77.1129 168.029 76.7183 168.029 76.2596C168.029 75.5769 167.843 75.0489 167.469 74.6756C167.107 74.3023 166.627 74.1156 166.029 74.1156C165.688 74.1156 165.395 74.1636 165.149 74.2596C164.904 74.3449 164.605 74.4996 164.253 74.7236L163.181 74.0356L163.501 68.2756H169.837V70.2596H165.533L165.309 72.7716C165.544 72.6649 165.773 72.5849 165.997 72.5316C166.221 72.4783 166.467 72.4516 166.733 72.4516C167.395 72.4516 168.003 72.5849 168.557 72.8516C169.112 73.1076 169.555 73.5129 169.885 74.0676C170.216 74.6223 170.381 75.3316 170.381 76.1956C170.381 77.0703 170.184 77.8223 169.789 78.4516C169.405 79.0703 168.899 79.5449 168.269 79.8756C167.651 80.1956 166.979 80.3556 166.253 80.3556ZM178.555 66.9156H180.763C180.741 67.3636 180.704 67.9396 180.651 68.6436C180.597 69.3476 180.496 70.1316 180.347 70.9956C180.208 71.8489 179.995 72.7449 179.707 73.6836C179.419 74.6223 179.024 75.5609 178.523 76.4996C178.032 77.4276 177.403 78.3183 176.635 79.1716C175.877 80.0143 174.955 80.7663 173.867 81.4276C173.696 81.1823 173.461 80.9209 173.163 80.6436C172.875 80.3663 172.571 80.1156 172.251 79.8916C173.317 79.2943 174.213 78.6116 174.939 77.8436C175.664 77.0756 176.256 76.2703 176.715 75.4276C177.173 74.5743 177.525 73.7209 177.771 72.8676C178.016 72.0036 178.192 71.1876 178.299 70.4196C178.405 69.6516 178.469 68.9636 178.491 68.3556C178.512 67.7476 178.533 67.2676 178.555 66.9156ZM180.683 67.3476C180.693 67.5503 180.715 67.8703 180.747 68.3076C180.779 68.7449 180.843 69.2676 180.939 69.8756C181.035 70.4836 181.179 71.1449 181.371 71.8596C181.573 72.5636 181.84 73.2889 182.171 74.0356C182.501 74.7823 182.912 75.5129 183.403 76.2276C183.893 76.9423 184.485 77.6036 185.179 78.2116C185.883 78.8196 186.704 79.3476 187.643 79.7956C187.333 80.0196 187.045 80.2809 186.779 80.5796C186.523 80.8783 186.315 81.1609 186.155 81.4276C185.173 80.9369 184.315 80.3556 183.579 79.6836C182.853 79.0009 182.229 78.2649 181.707 77.4756C181.195 76.6756 180.768 75.8649 180.427 75.0436C180.085 74.2223 179.808 73.4169 179.595 72.6276C179.392 71.8276 179.237 71.0863 179.131 70.4036C179.024 69.7209 178.949 69.1289 178.907 68.6276C178.875 68.1263 178.848 67.7636 178.827 67.5396L180.683 67.3476ZM196.347 68.9476C196.837 69.0116 197.387 69.0596 197.995 69.0916C198.613 69.1129 199.237 69.1236 199.867 69.1236C200.507 69.1129 201.12 69.0916 201.707 69.0596C202.293 69.0169 202.8 68.9743 203.227 68.9316V70.9956C202.736 71.0383 202.197 71.0756 201.611 71.1076C201.024 71.1289 200.421 71.1396 199.803 71.1396C199.184 71.1396 198.576 71.1289 197.979 71.1076C197.392 71.0756 196.848 71.0383 196.347 70.9956V68.9476ZM197.627 75.7796C197.563 76.0463 197.515 76.2863 197.483 76.4996C197.451 76.7023 197.435 76.9103 197.435 77.1236C197.435 77.2943 197.477 77.4543 197.563 77.6036C197.648 77.7423 197.776 77.8649 197.947 77.9716C198.128 78.0676 198.357 78.1423 198.635 78.1956C198.923 78.2383 199.269 78.2596 199.675 78.2596C200.389 78.2596 201.061 78.2276 201.691 78.1636C202.32 78.0889 202.987 77.9823 203.691 77.8436L203.723 80.0036C203.211 80.0996 202.619 80.1743 201.947 80.2276C201.285 80.2809 200.501 80.3076 199.595 80.3076C198.219 80.3076 197.195 80.0783 196.523 79.6196C195.851 79.1503 195.515 78.5049 195.515 77.6836C195.515 77.3743 195.536 77.0543 195.579 76.7236C195.632 76.3823 195.701 76.0089 195.787 75.6036L197.627 75.7796ZM193.883 67.8756C193.84 67.9823 193.792 68.1316 193.739 68.3236C193.685 68.5156 193.632 68.7023 193.579 68.8836C193.536 69.0649 193.504 69.2036 193.483 69.2996C193.451 69.5236 193.397 69.8169 193.323 70.1796C193.259 70.5316 193.189 70.9316 193.115 71.3796C193.051 71.8169 192.987 72.2649 192.923 72.7236C192.859 73.1823 192.805 73.6249 192.763 74.0516C192.731 74.4783 192.715 74.8516 192.715 75.1716C192.715 75.3209 192.715 75.4916 192.715 75.6836C192.725 75.8756 192.747 76.0516 192.779 76.2116C192.853 76.0303 192.933 75.8489 193.019 75.6676C193.104 75.4863 193.189 75.3049 193.275 75.1236C193.36 74.9316 193.435 74.7503 193.499 74.5796L194.491 75.3636C194.341 75.8009 194.187 76.2703 194.027 76.7716C193.877 77.2729 193.739 77.7476 193.611 78.1956C193.493 78.6329 193.403 78.9956 193.339 79.2836C193.317 79.4009 193.296 79.5343 193.275 79.6836C193.264 79.8329 193.259 79.9503 193.259 80.0356C193.259 80.1209 193.259 80.2223 193.259 80.3396C193.269 80.4676 193.28 80.5849 193.291 80.6916L191.435 80.8196C191.275 80.2649 191.131 79.5289 191.003 78.6116C190.875 77.6836 190.811 76.6756 190.811 75.5876C190.811 74.9903 190.837 74.3823 190.891 73.7636C190.944 73.1449 191.008 72.5529 191.083 71.9876C191.157 71.4116 191.227 70.8889 191.291 70.4196C191.365 69.9503 191.429 69.5609 191.483 69.2516C191.504 69.0276 191.531 68.7769 191.563 68.4996C191.605 68.2116 191.632 67.9396 191.643 67.6836L193.883 67.8756ZM207.131 80.1316V78.2116H209.691V70.7396H207.531V69.2676C208.128 69.1609 208.64 69.0329 209.067 68.8836C209.504 68.7236 209.909 68.5209 210.283 68.2756H212.027V78.2116H214.251V80.1316H207.131ZM222.552 66.9156H224.76C224.739 67.3636 224.702 67.9396 224.648 68.6436C224.595 69.3476 224.494 70.1316 224.344 70.9956C224.206 71.8489 223.992 72.7449 223.704 73.6836C223.416 74.6223 223.022 75.5609 222.52 76.4996C222.03 77.4276 221.4 78.3183 220.632 79.1716C219.875 80.0143 218.952 80.7663 217.864 81.4276C217.694 81.1823 217.459 80.9209 217.16 80.6436C216.872 80.3663 216.568 80.1156 216.248 79.8916C217.315 79.2943 218.211 78.6116 218.936 77.8436C219.662 77.0756 220.254 76.2703 220.712 75.4276C221.171 74.5743 221.523 73.7209 221.768 72.8676C222.014 72.0036 222.19 71.1876 222.296 70.4196C222.403 69.6516 222.467 68.9636 222.488 68.3556C222.51 67.7476 222.531 67.2676 222.552 66.9156ZM224.68 67.3476C224.691 67.5503 224.712 67.8703 224.744 68.3076C224.776 68.7449 224.84 69.2676 224.936 69.8756C225.032 70.4836 225.176 71.1449 225.368 71.8596C225.571 72.5636 225.838 73.2889 226.168 74.0356C226.499 74.7823 226.91 75.5129 227.4 76.2276C227.891 76.9423 228.483 77.6036 229.176 78.2116C229.88 78.8196 230.702 79.3476 231.64 79.7956C231.331 80.0196 231.043 80.2809 230.776 80.5796C230.52 80.8783 230.312 81.1609 230.152 81.4276C229.171 80.9369 228.312 80.3556 227.576 79.6836C226.851 79.0009 226.227 78.2649 225.704 77.4756C225.192 76.6756 224.766 75.8649 224.424 75.0436C224.083 74.2223 223.806 73.4169 223.592 72.6276C223.39 71.8276 223.235 71.0863 223.128 70.4036C223.022 69.7209 222.947 69.1289 222.904 68.6276C222.872 68.1263 222.846 67.7636 222.824 67.5396L224.68 67.3476Z" fill="#237233"/>
<path d="M142.585 58.2044C141.753 58.2044 140.945 58.0284 140.161 57.6764C139.393 57.3244 138.713 56.7884 138.121 56.0684C137.529 55.3324 137.057 54.4044 136.705 53.2844C136.369 52.1484 136.201 50.7964 136.201 49.2284C136.201 47.5804 136.385 46.1564 136.753 44.9564C137.137 43.7564 137.649 42.7804 138.289 42.0284C138.929 41.2604 139.657 40.6924 140.473 40.3244C141.305 39.9564 142.177 39.7724 143.089 39.7724C144.177 39.7724 145.113 39.9724 145.897 40.3724C146.697 40.7564 147.361 41.2284 147.889 41.7884L146.017 43.9004C145.713 43.5484 145.313 43.2444 144.817 42.9884C144.321 42.7324 143.817 42.6044 143.305 42.6044C142.585 42.6044 141.929 42.8124 141.337 43.2284C140.761 43.6444 140.297 44.3324 139.945 45.2924C139.593 46.2524 139.417 47.5644 139.417 49.2284C139.417 50.7644 139.553 51.9964 139.825 52.9244C140.113 53.8364 140.489 54.5004 140.953 54.9164C141.417 55.3324 141.937 55.5404 142.513 55.5404C142.961 55.5404 143.361 55.4204 143.713 55.1804C144.081 54.9244 144.377 54.5564 144.601 54.0764C144.825 53.5804 144.937 52.9724 144.937 52.2524C144.937 51.5484 144.825 50.9724 144.601 50.5244C144.393 50.0764 144.097 49.7404 143.713 49.5164C143.345 49.2924 142.905 49.1804 142.393 49.1804C141.913 49.1804 141.409 49.3324 140.881 49.6364C140.353 49.9244 139.865 50.4364 139.417 51.1724L139.249 48.7964C139.569 48.3484 139.945 47.9644 140.377 47.6444C140.825 47.3244 141.281 47.0844 141.745 46.9244C142.225 46.7644 142.657 46.6844 143.041 46.6844C144.033 46.6844 144.913 46.8844 145.681 47.2844C146.465 47.6844 147.073 48.2924 147.505 49.1084C147.937 49.9244 148.153 50.9724 148.153 52.2524C148.153 53.4684 147.897 54.5244 147.385 55.4204C146.889 56.3004 146.217 56.9884 145.369 57.4844C144.521 57.9644 143.593 58.2044 142.585 58.2044ZM154.03 58.2044C153.39 58.2044 152.862 57.9804 152.446 57.5324C152.03 57.0844 151.822 56.5404 151.822 55.9004C151.822 55.2284 152.03 54.6764 152.446 54.2444C152.862 53.8124 153.39 53.5964 154.03 53.5964C154.654 53.5964 155.174 53.8124 155.59 54.2444C156.006 54.6764 156.214 55.2284 156.214 55.9004C156.214 56.5404 156.006 57.0844 155.59 57.5324C155.174 57.9804 154.654 58.2044 154.03 58.2044ZM165.962 58.2044C164.826 58.2044 163.81 58.0044 162.914 57.6044C162.018 57.2044 161.306 56.6444 160.778 55.9244C160.266 55.2044 160.01 54.3804 160.01 53.4524C160.01 52.6844 160.146 52.0124 160.418 51.4364C160.706 50.8444 161.082 50.3324 161.546 49.9004C162.01 49.4684 162.514 49.1084 163.058 48.8204V48.7004C162.386 48.2204 161.826 47.6364 161.378 46.9484C160.93 46.2444 160.706 45.4284 160.706 44.5004C160.706 43.5404 160.938 42.7084 161.402 42.0044C161.866 41.3004 162.498 40.7564 163.298 40.3724C164.114 39.9884 165.034 39.7964 166.058 39.7964C167.114 39.7964 168.026 39.9964 168.794 40.3964C169.562 40.7804 170.154 41.3244 170.57 42.0284C171.002 42.7324 171.218 43.5644 171.218 44.5244C171.218 45.1004 171.106 45.6444 170.882 46.1564C170.674 46.6684 170.394 47.1324 170.042 47.5484C169.706 47.9484 169.338 48.2924 168.938 48.5804V48.7004C169.498 48.9884 170.002 49.3484 170.45 49.7804C170.898 50.2124 171.258 50.7324 171.53 51.3404C171.802 51.9324 171.938 52.6364 171.938 53.4524C171.938 54.3484 171.682 55.1564 171.17 55.8764C170.674 56.5964 169.978 57.1644 169.082 57.5804C168.186 57.9964 167.146 58.2044 165.962 58.2044ZM167.066 47.7164C167.498 47.2524 167.818 46.7724 168.026 46.2764C168.234 45.7804 168.338 45.2684 168.338 44.7404C168.338 44.2604 168.242 43.8364 168.05 43.4684C167.874 43.0844 167.61 42.7884 167.258 42.5804C166.906 42.3724 166.482 42.2684 165.986 42.2684C165.378 42.2684 164.866 42.4604 164.45 42.8444C164.034 43.2284 163.826 43.7804 163.826 44.5004C163.826 45.0444 163.962 45.5164 164.234 45.9164C164.522 46.3004 164.914 46.6364 165.41 46.9244C165.906 47.1964 166.458 47.4604 167.066 47.7164ZM166.034 55.7084C166.546 55.7084 166.994 55.6204 167.378 55.4444C167.778 55.2524 168.09 54.9804 168.314 54.6284C168.538 54.2604 168.65 53.8284 168.65 53.3324C168.65 52.8684 168.546 52.4684 168.338 52.1324C168.146 51.7804 167.874 51.4764 167.522 51.2204C167.17 50.9484 166.754 50.7004 166.274 50.4764C165.794 50.2524 165.266 50.0124 164.69 49.7564C164.21 50.1564 163.818 50.6444 163.514 51.2204C163.21 51.7804 163.058 52.3964 163.058 53.0684C163.058 53.5964 163.186 54.0604 163.442 54.4604C163.714 54.8444 164.074 55.1484 164.522 55.3724C164.97 55.5964 165.474 55.7084 166.034 55.7084ZM178.139 52.5764C177.503 52.5764 176.939 52.4084 176.447 52.0724C175.955 51.7364 175.571 51.2504 175.295 50.6144C175.019 49.9664 174.881 49.1984 174.881 48.3104C174.881 47.4224 175.019 46.6664 175.295 46.0424C175.571 45.4064 175.955 44.9264 176.447 44.6024C176.939 44.2664 177.503 44.0984 178.139 44.0984C179.099 44.0984 179.879 44.4644 180.479 45.1964C181.091 45.9284 181.397 46.9664 181.397 48.3104C181.397 49.1984 181.259 49.9664 180.983 50.6144C180.707 51.2504 180.323 51.7364 179.831 52.0724C179.351 52.4084 178.787 52.5764 178.139 52.5764ZM178.139 51.0644C178.535 51.0644 178.865 50.8544 179.129 50.4344C179.405 50.0024 179.543 49.2944 179.543 48.3104C179.543 47.3264 179.405 46.6304 179.129 46.2224C178.865 45.8024 178.535 45.5924 178.139 45.5924C177.755 45.5924 177.425 45.8024 177.149 46.2224C176.885 46.6304 176.753 47.3264 176.753 48.3104C176.753 49.2944 176.885 50.0024 177.149 50.4344C177.425 50.8544 177.755 51.0644 178.139 51.0644ZM187.877 57.9584C187.241 57.9584 186.677 57.7904 186.185 57.4544C185.693 57.1184 185.303 56.6324 185.015 55.9964C184.739 55.3604 184.601 54.5984 184.601 53.7104C184.601 52.8104 184.739 52.0484 185.015 51.4244C185.303 50.7884 185.693 50.3084 186.185 49.9844C186.677 49.6484 187.241 49.4804 187.877 49.4804C188.513 49.4804 189.077 49.6484 189.569 49.9844C190.061 50.3084 190.445 50.7884 190.721 51.4244C190.997 52.0484 191.135 52.8104 191.135 53.7104C191.135 54.5984 190.997 55.3604 190.721 55.9964C190.445 56.6324 190.061 57.1184 189.569 57.4544C189.077 57.7904 188.513 57.9584 187.877 57.9584ZM187.877 56.4644C188.273 56.4644 188.603 56.2484 188.867 55.8164C189.131 55.3844 189.263 54.6824 189.263 53.7104C189.263 52.7144 189.131 52.0124 188.867 51.6044C188.603 51.1964 188.273 50.9924 187.877 50.9924C187.481 50.9924 187.145 51.1964 186.869 51.6044C186.605 52.0124 186.473 52.7144 186.473 53.7104C186.473 54.6824 186.605 55.3844 186.869 55.8164C187.145 56.2484 187.481 56.4644 187.877 56.4644ZM178.589 57.9584L185.861 44.0984H187.445L180.155 57.9584H178.589Z" fill="#237233"/>
<circle cx="373.999" cy="59.9989" r="35.9989" fill="#EEF1EC"/>
<path d="M399.006 34.1035C395.468 30.6873 391.268 28.0321 386.665 26.3018C382.061 24.5715 377.152 23.8027 372.24 24.043L373.999 59.9989L399.006 34.1035Z" fill="#00913A"/>
<path d="M434.031 73.7784L435.583 73.0104C435.86 73.373 436.137 73.773 436.415 74.2104C436.692 74.637 436.943 75.0637 437.167 75.4904C437.391 75.9064 437.556 76.285 437.663 76.6264L435.999 77.4904C435.903 77.1597 435.748 76.781 435.535 76.3544C435.332 75.917 435.097 75.4744 434.831 75.0264C434.575 74.5784 434.308 74.1624 434.031 73.7784ZM434.575 69.2504H440.319V71.0744H434.575V69.2504ZM439.487 69.2504H441.343C441.343 69.2504 441.343 69.309 441.343 69.4264C441.343 69.5437 441.343 69.6717 441.343 69.8104C441.343 69.949 441.337 70.061 441.327 70.1464C441.273 71.9064 441.215 73.405 441.151 74.6424C441.097 75.869 441.028 76.8824 440.943 77.6824C440.857 78.4824 440.756 79.1117 440.639 79.5704C440.532 80.029 440.393 80.365 440.223 80.5784C439.999 80.8877 439.764 81.101 439.519 81.2184C439.284 81.3357 438.996 81.421 438.655 81.4744C438.367 81.517 437.993 81.5384 437.535 81.5384C437.087 81.5384 436.623 81.533 436.143 81.5224C436.132 81.245 436.068 80.9197 435.951 80.5464C435.833 80.1837 435.684 79.8637 435.503 79.5864C436.015 79.629 436.484 79.6557 436.911 79.6664C437.337 79.677 437.652 79.6824 437.855 79.6824C438.025 79.6824 438.159 79.661 438.255 79.6184C438.361 79.5757 438.463 79.5064 438.559 79.4104C438.687 79.2717 438.799 78.989 438.895 78.5624C438.991 78.1357 439.071 77.5384 439.135 76.7704C439.209 75.9917 439.273 75.0157 439.327 73.8424C439.391 72.669 439.444 71.2664 439.487 69.6344V69.2504ZM434.671 66.5144L436.655 66.9624C436.431 67.7517 436.159 68.5304 435.839 69.2984C435.529 70.0557 435.188 70.765 434.815 71.4264C434.441 72.0877 434.052 72.6637 433.647 73.1544C433.519 73.037 433.353 72.9037 433.151 72.7544C432.948 72.605 432.735 72.461 432.511 72.3224C432.287 72.1837 432.095 72.0717 431.935 71.9864C432.351 71.5597 432.729 71.0584 433.071 70.4824C433.412 69.8957 433.716 69.2664 433.983 68.5944C434.26 67.9117 434.489 67.2184 434.671 66.5144ZM429.023 66.5464L430.719 67.1384C430.505 67.5544 430.281 67.981 430.047 68.4184C429.812 68.845 429.583 69.261 429.359 69.6664C429.135 70.061 428.916 70.4077 428.703 70.7064L427.407 70.1784C427.599 69.8477 427.796 69.4744 427.999 69.0584C428.201 68.6317 428.393 68.1997 428.575 67.7624C428.756 67.325 428.905 66.9197 429.023 66.5464ZM430.943 68.4504L432.575 69.1224C432.18 69.7304 431.753 70.3704 431.295 71.0424C430.836 71.7037 430.372 72.3384 429.903 72.9464C429.433 73.5544 428.996 74.0877 428.591 74.5464L427.423 73.9544C427.732 73.5917 428.047 73.181 428.367 72.7224C428.687 72.2637 429.001 71.789 429.311 71.2984C429.631 70.8077 429.929 70.317 430.207 69.8264C430.495 69.325 430.74 68.8664 430.943 68.4504ZM426.559 70.3384L427.471 69.0264C427.748 69.261 428.036 69.5277 428.335 69.8264C428.633 70.1144 428.905 70.4024 429.151 70.6904C429.407 70.9784 429.599 71.245 429.727 71.4904L428.751 72.9784C428.623 72.733 428.436 72.4557 428.191 72.1464C427.956 71.8264 427.695 71.5117 427.407 71.2024C427.119 70.8824 426.836 70.5944 426.559 70.3384ZM430.559 72.3064L431.919 71.7144C432.132 72.0664 432.34 72.445 432.543 72.8504C432.745 73.2557 432.921 73.6557 433.071 74.0504C433.22 74.4344 433.332 74.781 433.407 75.0904L431.935 75.7624C431.871 75.4637 431.769 75.117 431.631 74.7224C431.492 74.317 431.327 73.9064 431.135 73.4904C430.953 73.0637 430.761 72.669 430.559 72.3064ZM426.559 73.5864C427.295 73.565 428.18 73.533 429.215 73.4904C430.26 73.4477 431.321 73.3997 432.399 73.3464L432.383 74.8664C431.38 74.941 430.383 75.0157 429.391 75.0904C428.399 75.1544 427.508 75.2077 426.719 75.2504L426.559 73.5864ZM430.831 76.3064L432.239 75.8424C432.463 76.3224 432.671 76.845 432.863 77.4104C433.055 77.9757 433.193 78.4664 433.279 78.8824L431.791 79.4264C431.716 78.9997 431.588 78.4984 431.407 77.9224C431.225 77.3357 431.033 76.797 430.831 76.3064ZM427.247 75.9384L428.831 76.2264C428.745 76.9944 428.617 77.7517 428.447 78.4984C428.276 79.245 428.079 79.8744 427.855 80.3864C427.748 80.3117 427.604 80.2264 427.423 80.1304C427.241 80.045 427.055 79.9597 426.863 79.8744C426.681 79.789 426.521 79.725 426.383 79.6824C426.617 79.2024 426.804 78.6317 426.943 77.9704C427.081 77.2984 427.183 76.621 427.247 75.9384ZM429.103 74.4344H430.799V81.5704H429.103V74.4344ZM447.503 80.3544C446.745 80.3544 446.068 80.221 445.471 79.9544C444.873 79.6877 444.399 79.3144 444.047 78.8344C443.705 78.3544 443.535 77.805 443.535 77.1864C443.535 76.6744 443.625 76.2264 443.807 75.8424C443.999 75.4477 444.249 75.1064 444.559 74.8184C444.868 74.5304 445.204 74.2904 445.567 74.0984V74.0184C445.119 73.6984 444.745 73.309 444.447 72.8504C444.148 72.381 443.999 71.837 443.999 71.2184C443.999 70.5784 444.153 70.0237 444.463 69.5544C444.772 69.085 445.193 68.7224 445.727 68.4664C446.271 68.2104 446.884 68.0824 447.567 68.0824C448.271 68.0824 448.879 68.2157 449.391 68.4824C449.903 68.7384 450.297 69.101 450.575 69.5704C450.863 70.0397 451.007 70.5944 451.007 71.2344C451.007 71.6184 450.932 71.981 450.783 72.3224C450.644 72.6637 450.457 72.973 450.223 73.2504C449.999 73.517 449.753 73.7464 449.487 73.9384V74.0184C449.86 74.2104 450.196 74.4504 450.495 74.7384C450.793 75.0264 451.033 75.373 451.215 75.7784C451.396 76.173 451.487 76.6424 451.487 77.1864C451.487 77.7837 451.316 78.3224 450.975 78.8024C450.644 79.2824 450.18 79.661 449.583 79.9384C448.985 80.2157 448.292 80.3544 447.503 80.3544ZM448.239 73.3624C448.527 73.053 448.74 72.733 448.879 72.4024C449.017 72.0717 449.087 71.7304 449.087 71.3784C449.087 71.0584 449.023 70.7757 448.895 70.5304C448.777 70.2744 448.601 70.077 448.367 69.9384C448.132 69.7997 447.849 69.7304 447.519 69.7304C447.113 69.7304 446.772 69.8584 446.495 70.1144C446.217 70.3704 446.079 70.7384 446.079 71.2184C446.079 71.581 446.169 71.8957 446.351 72.1624C446.543 72.4184 446.804 72.6424 447.135 72.8344C447.465 73.0157 447.833 73.1917 448.239 73.3624ZM447.551 78.6904C447.892 78.6904 448.191 78.6317 448.447 78.5144C448.713 78.3864 448.921 78.205 449.071 77.9704C449.22 77.725 449.295 77.437 449.295 77.1064C449.295 76.797 449.225 76.5304 449.087 76.3064C448.959 76.0717 448.777 75.869 448.543 75.6984C448.308 75.517 448.031 75.3517 447.711 75.2024C447.391 75.053 447.039 74.893 446.655 74.7224C446.335 74.989 446.073 75.3144 445.871 75.6984C445.668 76.0717 445.567 76.4824 445.567 76.9304C445.567 77.2824 445.652 77.5917 445.823 77.8584C446.004 78.1144 446.244 78.317 446.543 78.4664C446.841 78.6157 447.177 78.6904 447.551 78.6904ZM459.516 66.9144H461.724C461.703 67.3624 461.665 67.9384 461.612 68.6424C461.559 69.3464 461.457 70.1304 461.308 70.9944C461.169 71.8477 460.956 72.7437 460.668 73.6824C460.38 74.621 459.985 75.5597 459.484 76.4984C458.993 77.4264 458.364 78.317 457.596 79.1704C456.839 80.013 455.916 80.765 454.828 81.4264C454.657 81.181 454.423 80.9197 454.124 80.6424C453.836 80.365 453.532 80.1144 453.212 79.8904C454.279 79.293 455.175 78.6104 455.9 77.8424C456.625 77.0744 457.217 76.269 457.676 75.4264C458.135 74.573 458.487 73.7197 458.732 72.8664C458.977 72.0024 459.153 71.1864 459.26 70.4184C459.367 69.6504 459.431 68.9624 459.452 68.3544C459.473 67.7464 459.495 67.2664 459.516 66.9144ZM461.644 67.3464C461.655 67.549 461.676 67.869 461.708 68.3064C461.74 68.7437 461.804 69.2664 461.9 69.8744C461.996 70.4824 462.14 71.1437 462.332 71.8584C462.535 72.5624 462.801 73.2877 463.132 74.0344C463.463 74.781 463.873 75.5117 464.364 76.2264C464.855 76.941 465.447 77.6024 466.14 78.2104C466.844 78.8184 467.665 79.3464 468.604 79.7944C468.295 80.0184 468.007 80.2797 467.74 80.5784C467.484 80.877 467.276 81.1597 467.116 81.4264C466.135 80.9357 465.276 80.3544 464.54 79.6824C463.815 78.9997 463.191 78.2637 462.668 77.4744C462.156 76.6744 461.729 75.8637 461.388 75.0424C461.047 74.221 460.769 73.4157 460.556 72.6264C460.353 71.8264 460.199 71.085 460.092 70.4024C459.985 69.7197 459.911 69.1277 459.868 68.6264C459.836 68.125 459.809 67.7624 459.788 67.5384L461.644 67.3464ZM477.308 68.9464C477.799 69.0104 478.348 69.0584 478.956 69.0904C479.575 69.1117 480.199 69.1224 480.828 69.1224C481.468 69.1117 482.081 69.0904 482.668 69.0584C483.255 69.0157 483.761 68.973 484.188 68.9304V70.9944C483.697 71.037 483.159 71.0744 482.572 71.1064C481.985 71.1277 481.383 71.1384 480.764 71.1384C480.145 71.1384 479.537 71.1277 478.94 71.1064C478.353 71.0744 477.809 71.037 477.308 70.9944V68.9464ZM478.588 75.7784C478.524 76.045 478.476 76.285 478.444 76.4984C478.412 76.701 478.396 76.909 478.396 77.1224C478.396 77.293 478.439 77.453 478.524 77.6024C478.609 77.741 478.737 77.8637 478.908 77.9704C479.089 78.0664 479.319 78.141 479.596 78.1944C479.884 78.237 480.231 78.2584 480.636 78.2584C481.351 78.2584 482.023 78.2264 482.652 78.1624C483.281 78.0877 483.948 77.981 484.652 77.8424L484.684 80.0024C484.172 80.0984 483.58 80.173 482.908 80.2264C482.247 80.2797 481.463 80.3064 480.556 80.3064C479.18 80.3064 478.156 80.077 477.484 79.6184C476.812 79.149 476.476 78.5037 476.476 77.6824C476.476 77.373 476.497 77.053 476.54 76.7224C476.593 76.381 476.663 76.0077 476.748 75.6024L478.588 75.7784ZM474.844 67.8744C474.801 67.981 474.753 68.1304 474.7 68.3224C474.647 68.5144 474.593 68.701 474.54 68.8824C474.497 69.0637 474.465 69.2024 474.444 69.2984C474.412 69.5224 474.359 69.8157 474.284 70.1784C474.22 70.5304 474.151 70.9304 474.076 71.3784C474.012 71.8157 473.948 72.2637 473.884 72.7224C473.82 73.181 473.767 73.6237 473.724 74.0504C473.692 74.477 473.676 74.8504 473.676 75.1704C473.676 75.3197 473.676 75.4904 473.676 75.6824C473.687 75.8744 473.708 76.0504 473.74 76.2104C473.815 76.029 473.895 75.8477 473.98 75.6664C474.065 75.485 474.151 75.3037 474.236 75.1224C474.321 74.9304 474.396 74.749 474.46 74.5784L475.452 75.3624C475.303 75.7997 475.148 76.269 474.988 76.7704C474.839 77.2717 474.7 77.7464 474.572 78.1944C474.455 78.6317 474.364 78.9944 474.3 79.2824C474.279 79.3997 474.257 79.533 474.236 79.6824C474.225 79.8317 474.22 79.949 474.22 80.0344C474.22 80.1197 474.22 80.221 474.22 80.3384C474.231 80.4664 474.241 80.5837 474.252 80.6904L472.396 80.8184C472.236 80.2637 472.092 79.5277 471.964 78.6104C471.836 77.6824 471.772 76.6744 471.772 75.5864C471.772 74.989 471.799 74.381 471.852 73.7624C471.905 73.1437 471.969 72.5517 472.044 71.9864C472.119 71.4104 472.188 70.8877 472.252 70.4184C472.327 69.949 472.391 69.5597 472.444 69.2504C472.465 69.0264 472.492 68.7757 472.524 68.4984C472.567 68.2104 472.593 67.9384 472.604 67.6824L474.844 67.8744ZM488.092 80.1304V78.2104H490.652V70.7384H488.492V69.2664C489.089 69.1597 489.601 69.0317 490.028 68.8824C490.465 68.7224 490.871 68.5197 491.244 68.2744H492.988V78.2104H495.212V80.1304H488.092ZM503.513 66.9144H505.721C505.7 67.3624 505.663 67.9384 505.609 68.6424C505.556 69.3464 505.455 70.1304 505.305 70.9944C505.167 71.8477 504.953 72.7437 504.665 73.6824C504.377 74.621 503.983 75.5597 503.481 76.4984C502.991 77.4264 502.361 78.317 501.593 79.1704C500.836 80.013 499.913 80.765 498.825 81.4264C498.655 81.181 498.42 80.9197 498.121 80.6424C497.833 80.365 497.529 80.1144 497.209 79.8904C498.276 79.293 499.172 78.6104 499.897 77.8424C500.623 77.0744 501.215 76.269 501.673 75.4264C502.132 74.573 502.484 73.7197 502.729 72.8664C502.975 72.0024 503.151 71.1864 503.257 70.4184C503.364 69.6504 503.428 68.9624 503.449 68.3544C503.471 67.7464 503.492 67.2664 503.513 66.9144ZM505.641 67.3464C505.652 67.549 505.673 67.869 505.705 68.3064C505.737 68.7437 505.801 69.2664 505.897 69.8744C505.993 70.4824 506.137 71.1437 506.329 71.8584C506.532 72.5624 506.799 73.2877 507.129 74.0344C507.46 74.781 507.871 75.5117 508.361 76.2264C508.852 76.941 509.444 77.6024 510.137 78.2104C510.841 78.8184 511.663 79.3464 512.601 79.7944C512.292 80.0184 512.004 80.2797 511.737 80.5784C511.481 80.877 511.273 81.1597 511.113 81.4264C510.132 80.9357 509.273 80.3544 508.537 79.6824C507.812 78.9997 507.188 78.2637 506.665 77.4744C506.153 76.6744 505.727 75.8637 505.385 75.0424C505.044 74.221 504.767 73.4157 504.553 72.6264C504.351 71.8264 504.196 71.085 504.089 70.4024C503.983 69.7197 503.908 69.1277 503.865 68.6264C503.833 68.125 503.807 67.7624 503.785 67.5384L505.641 67.3464Z" fill="#237233"/>
<path d="M428.409 57.8672V54.9872H432.249V43.7792H429.009V41.5712C429.905 41.4112 430.673 41.2192 431.313 40.9952C431.969 40.7552 432.577 40.4512 433.137 40.0832H435.753V54.9872H439.089V57.8672H428.409ZM442.59 57.8672V55.8272C444.206 54.3872 445.582 53.0512 446.718 51.8192C447.87 50.5872 448.75 49.4432 449.358 48.3872C449.966 47.3152 450.27 46.3232 450.27 45.4112C450.27 44.8352 450.166 44.3312 449.958 43.8992C449.75 43.4672 449.446 43.1392 449.046 42.9152C448.662 42.6752 448.182 42.5552 447.606 42.5552C446.966 42.5552 446.374 42.7392 445.83 43.1072C445.302 43.4592 444.814 43.8832 444.366 44.3792L442.398 42.4832C443.23 41.5872 444.078 40.9152 444.942 40.4672C445.822 40.0032 446.862 39.7712 448.062 39.7712C449.182 39.7712 450.158 40.0032 450.99 40.4672C451.838 40.9152 452.494 41.5472 452.958 42.3632C453.422 43.1792 453.654 44.1392 453.654 45.2432C453.654 46.3152 453.382 47.4112 452.838 48.5312C452.31 49.6352 451.598 50.7392 450.702 51.8432C449.806 52.9472 448.814 54.0352 447.726 55.1072C448.19 55.0432 448.686 54.9952 449.214 54.9632C449.758 54.9152 450.238 54.8912 450.654 54.8912H454.494V57.8672H442.59ZM460.586 58.2032C459.946 58.2032 459.418 57.9792 459.002 57.5312C458.586 57.0832 458.378 56.5392 458.378 55.8992C458.378 55.2272 458.586 54.6752 459.002 54.2432C459.418 53.8112 459.946 53.5952 460.586 53.5952C461.21 53.5952 461.73 53.8112 462.146 54.2432C462.562 54.6752 462.77 55.2272 462.77 55.8992C462.77 56.5392 462.562 57.0832 462.146 57.5312C461.73 57.9792 461.21 58.2032 460.586 58.2032ZM472.087 58.2032C471.143 58.2032 470.303 58.0912 469.567 57.8672C468.831 57.6432 468.175 57.3472 467.599 56.9792C467.023 56.6112 466.511 56.2112 466.063 55.7792L467.695 53.5232C468.031 53.8592 468.391 54.1632 468.775 54.4352C469.175 54.7072 469.607 54.9232 470.071 55.0832C470.551 55.2432 471.063 55.3232 471.607 55.3232C472.215 55.3232 472.751 55.1952 473.215 54.9392C473.695 54.6832 474.071 54.3152 474.343 53.8352C474.615 53.3392 474.751 52.7472 474.751 52.0592C474.751 51.0352 474.471 50.2432 473.911 49.6832C473.367 49.1232 472.647 48.8432 471.751 48.8432C471.239 48.8432 470.799 48.9152 470.431 49.0592C470.063 49.1872 469.615 49.4192 469.087 49.7552L467.479 48.7232L467.959 40.0832H477.463V43.0592H471.007L470.671 46.8272C471.023 46.6672 471.367 46.5472 471.703 46.4672C472.039 46.3872 472.407 46.3472 472.807 46.3472C473.799 46.3472 474.711 46.5472 475.543 46.9472C476.375 47.3312 477.039 47.9392 477.535 48.7712C478.031 49.6032 478.279 50.6672 478.279 51.9632C478.279 53.2752 477.983 54.4032 477.391 55.3472C476.815 56.2752 476.055 56.9872 475.111 57.4832C474.183 57.9632 473.175 58.2032 472.087 58.2032ZM484.695 52.5752C484.059 52.5752 483.495 52.4072 483.003 52.0712C482.511 51.7352 482.127 51.2492 481.851 50.6132C481.575 49.9652 481.437 49.1972 481.437 48.3092C481.437 47.4212 481.575 46.6652 481.851 46.0412C482.127 45.4052 482.511 44.9252 483.003 44.6012C483.495 44.2652 484.059 44.0972 484.695 44.0972C485.655 44.0972 486.435 44.4632 487.035 45.1952C487.647 45.9272 487.953 46.9652 487.953 48.3092C487.953 49.1972 487.815 49.9652 487.539 50.6132C487.263 51.2492 486.879 51.7352 486.387 52.0712C485.907 52.4072 485.343 52.5752 484.695 52.5752ZM484.695 51.0632C485.091 51.0632 485.421 50.8532 485.685 50.4332C485.961 50.0012 486.099 49.2932 486.099 48.3092C486.099 47.3252 485.961 46.6292 485.685 46.2212C485.421 45.8012 485.091 45.5912 484.695 45.5912C484.311 45.5912 483.981 45.8012 483.705 46.2212C483.441 46.6292 483.309 47.3252 483.309 48.3092C483.309 49.2932 483.441 50.0012 483.705 50.4332C483.981 50.8532 484.311 51.0632 484.695 51.0632ZM494.433 57.9572C493.797 57.9572 493.233 57.7892 492.741 57.4532C492.249 57.1172 491.859 56.6312 491.571 55.9952C491.295 55.3592 491.157 54.5972 491.157 53.7092C491.157 52.8092 491.295 52.0472 491.571 51.4232C491.859 50.7872 492.249 50.3072 492.741 49.9832C493.233 49.6472 493.797 49.4792 494.433 49.4792C495.069 49.4792 495.633 49.6472 496.125 49.9832C496.617 50.3072 497.001 50.7872 497.277 51.4232C497.553 52.0472 497.691 52.8092 497.691 53.7092C497.691 54.5972 497.553 55.3592 497.277 55.9952C497.001 56.6312 496.617 57.1172 496.125 57.4532C495.633 57.7892 495.069 57.9572 494.433 57.9572ZM494.433 56.4632C494.829 56.4632 495.159 56.2472 495.423 55.8152C495.687 55.3832 495.819 54.6812 495.819 53.7092C495.819 52.7132 495.687 52.0112 495.423 51.6032C495.159 51.1952 494.829 50.9912 494.433 50.9912C494.037 50.9912 493.701 51.1952 493.425 51.6032C493.161 52.0112 493.029 52.7132 493.029 53.7092C493.029 54.6812 493.161 55.3832 493.425 55.8152C493.701 56.2472 494.037 56.4632 494.433 56.4632ZM485.145 57.9572L492.417 44.0972H494.001L486.711 57.9572H485.145Z" fill="#237233"/>
<circle cx="660" cy="60" r="36" fill="#EEF1EC"/>
<path d="M651.291 94.9306C656.34 96.1896 661.602 96.3389 666.715 95.3682C671.827 94.3976 676.669 92.3301 680.905 89.3082C685.142 86.2863 688.673 82.3818 691.255 77.8638C693.837 73.3458 695.409 68.3217 695.863 63.1376C696.317 57.9535 695.641 52.7327 693.882 47.835C692.124 42.9372 689.324 38.4789 685.677 34.7673C682.03 31.0556 677.621 28.1788 672.754 26.3351C667.888 24.4914 662.68 23.7247 657.489 24.0877L660 60L651.291 94.9306Z" fill="#00913A"/>
<path d="M720.031 73.7796L721.583 73.0116C721.86 73.3743 722.137 73.7743 722.415 74.2116C722.692 74.6383 722.943 75.0649 723.167 75.4916C723.391 75.9076 723.556 76.2863 723.663 76.6276L721.999 77.4916C721.903 77.1609 721.748 76.7823 721.535 76.3556C721.332 75.9183 721.097 75.4756 720.831 75.0276C720.575 74.5796 720.308 74.1636 720.031 73.7796ZM720.575 69.2516H726.319V71.0756H720.575V69.2516ZM725.487 69.2516H727.343C727.343 69.2516 727.343 69.3103 727.343 69.4276C727.343 69.5449 727.343 69.6729 727.343 69.8116C727.343 69.9503 727.337 70.0623 727.327 70.1476C727.273 71.9076 727.215 73.4063 727.151 74.6436C727.097 75.8703 727.028 76.8836 726.943 77.6836C726.857 78.4836 726.756 79.1129 726.639 79.5716C726.532 80.0303 726.393 80.3663 726.223 80.5796C725.999 80.8889 725.764 81.1023 725.519 81.2196C725.284 81.3369 724.996 81.4223 724.655 81.4756C724.367 81.5183 723.993 81.5396 723.535 81.5396C723.087 81.5396 722.623 81.5343 722.143 81.5236C722.132 81.2463 722.068 80.9209 721.951 80.5476C721.833 80.1849 721.684 79.8649 721.503 79.5876C722.015 79.6303 722.484 79.6569 722.911 79.6676C723.337 79.6783 723.652 79.6836 723.855 79.6836C724.025 79.6836 724.159 79.6623 724.255 79.6196C724.361 79.5769 724.463 79.5076 724.559 79.4116C724.687 79.2729 724.799 78.9903 724.895 78.5636C724.991 78.1369 725.071 77.5396 725.135 76.7716C725.209 75.9929 725.273 75.0169 725.327 73.8436C725.391 72.6703 725.444 71.2676 725.487 69.6356V69.2516ZM720.671 66.5156L722.655 66.9636C722.431 67.7529 722.159 68.5316 721.839 69.2996C721.529 70.0569 721.188 70.7663 720.815 71.4276C720.441 72.0889 720.052 72.6649 719.647 73.1556C719.519 73.0383 719.353 72.9049 719.151 72.7556C718.948 72.6063 718.735 72.4623 718.511 72.3236C718.287 72.1849 718.095 72.0729 717.935 71.9876C718.351 71.5609 718.729 71.0596 719.071 70.4836C719.412 69.8969 719.716 69.2676 719.983 68.5956C720.26 67.9129 720.489 67.2196 720.671 66.5156ZM715.023 66.5476L716.719 67.1396C716.505 67.5556 716.281 67.9823 716.047 68.4196C715.812 68.8463 715.583 69.2623 715.359 69.6676C715.135 70.0623 714.916 70.4089 714.703 70.7076L713.407 70.1796C713.599 69.8489 713.796 69.4756 713.999 69.0596C714.201 68.6329 714.393 68.2009 714.575 67.7636C714.756 67.3263 714.905 66.9209 715.023 66.5476ZM716.943 68.4516L718.575 69.1236C718.18 69.7316 717.753 70.3716 717.295 71.0436C716.836 71.7049 716.372 72.3396 715.903 72.9476C715.433 73.5556 714.996 74.0889 714.591 74.5476L713.423 73.9556C713.732 73.5929 714.047 73.1823 714.367 72.7236C714.687 72.2649 715.001 71.7903 715.311 71.2996C715.631 70.8089 715.929 70.3183 716.207 69.8276C716.495 69.3263 716.74 68.8676 716.943 68.4516ZM712.559 70.3396L713.471 69.0276C713.748 69.2623 714.036 69.5289 714.335 69.8276C714.633 70.1156 714.905 70.4036 715.151 70.6916C715.407 70.9796 715.599 71.2463 715.727 71.4916L714.751 72.9796C714.623 72.7343 714.436 72.4569 714.191 72.1476C713.956 71.8276 713.695 71.5129 713.407 71.2036C713.119 70.8836 712.836 70.5956 712.559 70.3396ZM716.559 72.3076L717.919 71.7156C718.132 72.0676 718.34 72.4463 718.543 72.8516C718.745 73.2569 718.921 73.6569 719.071 74.0516C719.22 74.4356 719.332 74.7823 719.407 75.0916L717.935 75.7636C717.871 75.4649 717.769 75.1183 717.631 74.7236C717.492 74.3183 717.327 73.9076 717.135 73.4916C716.953 73.0649 716.761 72.6703 716.559 72.3076ZM712.559 73.5876C713.295 73.5663 714.18 73.5343 715.215 73.4916C716.26 73.4489 717.321 73.4009 718.399 73.3476L718.383 74.8676C717.38 74.9423 716.383 75.0169 715.391 75.0916C714.399 75.1556 713.508 75.2089 712.719 75.2516L712.559 73.5876ZM716.831 76.3076L718.239 75.8436C718.463 76.3236 718.671 76.8463 718.863 77.4116C719.055 77.9769 719.193 78.4676 719.279 78.8836L717.791 79.4276C717.716 79.0009 717.588 78.4996 717.407 77.9236C717.225 77.3369 717.033 76.7983 716.831 76.3076ZM713.247 75.9396L714.831 76.2276C714.745 76.9956 714.617 77.7529 714.447 78.4996C714.276 79.2463 714.079 79.8756 713.855 80.3876C713.748 80.3129 713.604 80.2276 713.423 80.1316C713.241 80.0463 713.055 79.9609 712.863 79.8756C712.681 79.7903 712.521 79.7263 712.383 79.6836C712.617 79.2036 712.804 78.6329 712.943 77.9716C713.081 77.2996 713.183 76.6223 713.247 75.9396ZM715.103 74.4356H716.799V81.5716H715.103V74.4356ZM729.471 80.1316V78.7716C730.548 77.8116 731.465 76.9209 732.223 76.0996C732.991 75.2783 733.577 74.5156 733.983 73.8116C734.388 73.0969 734.591 72.4356 734.591 71.8276C734.591 71.4436 734.521 71.1076 734.383 70.8196C734.244 70.5316 734.041 70.3129 733.775 70.1636C733.519 70.0036 733.199 69.9236 732.815 69.9236C732.388 69.9236 731.993 70.0463 731.631 70.2916C731.279 70.5263 730.953 70.8089 730.655 71.1396L729.343 69.8756C729.897 69.2783 730.463 68.8303 731.039 68.5316C731.625 68.2223 732.319 68.0676 733.119 68.0676C733.865 68.0676 734.516 68.2223 735.071 68.5316C735.636 68.8303 736.073 69.2516 736.383 69.7956C736.692 70.3396 736.847 70.9796 736.847 71.7156C736.847 72.4303 736.665 73.1609 736.303 73.9076C735.951 74.6436 735.476 75.3796 734.879 76.1156C734.281 76.8516 733.62 77.5769 732.895 78.2916C733.204 78.2489 733.535 78.2169 733.887 78.1956C734.249 78.1636 734.569 78.1476 734.847 78.1476H737.407V80.1316H729.471ZM745.516 66.9156H747.724C747.703 67.3636 747.665 67.9396 747.612 68.6436C747.559 69.3476 747.457 70.1316 747.308 70.9956C747.169 71.8489 746.956 72.7449 746.668 73.6836C746.38 74.6223 745.985 75.5609 745.484 76.4996C744.993 77.4276 744.364 78.3183 743.596 79.1716C742.839 80.0143 741.916 80.7663 740.828 81.4276C740.657 81.1823 740.423 80.9209 740.124 80.6436C739.836 80.3663 739.532 80.1156 739.212 79.8916C740.279 79.2943 741.175 78.6116 741.9 77.8436C742.625 77.0756 743.217 76.2703 743.676 75.4276C744.135 74.5743 744.487 73.7209 744.732 72.8676C744.977 72.0036 745.153 71.1876 745.26 70.4196C745.367 69.6516 745.431 68.9636 745.452 68.3556C745.473 67.7476 745.495 67.2676 745.516 66.9156ZM747.644 67.3476C747.655 67.5503 747.676 67.8703 747.708 68.3076C747.74 68.7449 747.804 69.2676 747.9 69.8756C747.996 70.4836 748.14 71.1449 748.332 71.8596C748.535 72.5636 748.801 73.2889 749.132 74.0356C749.463 74.7823 749.873 75.5129 750.364 76.2276C750.855 76.9423 751.447 77.6036 752.14 78.2116C752.844 78.8196 753.665 79.3476 754.604 79.7956C754.295 80.0196 754.007 80.2809 753.74 80.5796C753.484 80.8783 753.276 81.1609 753.116 81.4276C752.135 80.9369 751.276 80.3556 750.54 79.6836C749.815 79.0009 749.191 78.2649 748.668 77.4756C748.156 76.6756 747.729 75.8649 747.388 75.0436C747.047 74.2223 746.769 73.4169 746.556 72.6276C746.353 71.8276 746.199 71.0863 746.092 70.4036C745.985 69.7209 745.911 69.1289 745.868 68.6276C745.836 68.1263 745.809 67.7636 745.788 67.5396L747.644 67.3476ZM763.308 68.9476C763.799 69.0116 764.348 69.0596 764.956 69.0916C765.575 69.1129 766.199 69.1236 766.828 69.1236C767.468 69.1129 768.081 69.0916 768.668 69.0596C769.255 69.0169 769.761 68.9743 770.188 68.9316V70.9956C769.697 71.0383 769.159 71.0756 768.572 71.1076C767.985 71.1289 767.383 71.1396 766.764 71.1396C766.145 71.1396 765.537 71.1289 764.94 71.1076C764.353 71.0756 763.809 71.0383 763.308 70.9956V68.9476ZM764.588 75.7796C764.524 76.0463 764.476 76.2863 764.444 76.4996C764.412 76.7023 764.396 76.9103 764.396 77.1236C764.396 77.2943 764.439 77.4543 764.524 77.6036C764.609 77.7423 764.737 77.8649 764.908 77.9716C765.089 78.0676 765.319 78.1423 765.596 78.1956C765.884 78.2383 766.231 78.2596 766.636 78.2596C767.351 78.2596 768.023 78.2276 768.652 78.1636C769.281 78.0889 769.948 77.9823 770.652 77.8436L770.684 80.0036C770.172 80.0996 769.58 80.1743 768.908 80.2276C768.247 80.2809 767.463 80.3076 766.556 80.3076C765.18 80.3076 764.156 80.0783 763.484 79.6196C762.812 79.1503 762.476 78.5049 762.476 77.6836C762.476 77.3743 762.497 77.0543 762.54 76.7236C762.593 76.3823 762.663 76.0089 762.748 75.6036L764.588 75.7796ZM760.844 67.8756C760.801 67.9823 760.753 68.1316 760.7 68.3236C760.647 68.5156 760.593 68.7023 760.54 68.8836C760.497 69.0649 760.465 69.2036 760.444 69.2996C760.412 69.5236 760.359 69.8169 760.284 70.1796C760.22 70.5316 760.151 70.9316 760.076 71.3796C760.012 71.8169 759.948 72.2649 759.884 72.7236C759.82 73.1823 759.767 73.6249 759.724 74.0516C759.692 74.4783 759.676 74.8516 759.676 75.1716C759.676 75.3209 759.676 75.4916 759.676 75.6836C759.687 75.8756 759.708 76.0516 759.74 76.2116C759.815 76.0303 759.895 75.8489 759.98 75.6676C760.065 75.4863 760.151 75.3049 760.236 75.1236C760.321 74.9316 760.396 74.7503 760.46 74.5796L761.452 75.3636C761.303 75.8009 761.148 76.2703 760.988 76.7716C760.839 77.2729 760.7 77.7476 760.572 78.1956C760.455 78.6329 760.364 78.9956 760.3 79.2836C760.279 79.4009 760.257 79.5343 760.236 79.6836C760.225 79.8329 760.22 79.9503 760.22 80.0356C760.22 80.1209 760.22 80.2223 760.22 80.3396C760.231 80.4676 760.241 80.5849 760.252 80.6916L758.396 80.8196C758.236 80.2649 758.092 79.5289 757.964 78.6116C757.836 77.6836 757.772 76.6756 757.772 75.5876C757.772 74.9903 757.799 74.3823 757.852 73.7636C757.905 73.1449 757.969 72.5529 758.044 71.9876C758.119 71.4116 758.188 70.8889 758.252 70.4196C758.327 69.9503 758.391 69.5609 758.444 69.2516C758.465 69.0276 758.492 68.7769 758.524 68.4996C758.567 68.2116 758.593 67.9396 758.604 67.6836L760.844 67.8756ZM774.092 80.1316V78.2116H776.652V70.7396H774.492V69.2676C775.089 69.1609 775.601 69.0329 776.028 68.8836C776.465 68.7236 776.871 68.5209 777.244 68.2756H778.988V78.2116H781.212V80.1316H774.092ZM789.513 66.9156H791.721C791.7 67.3636 791.663 67.9396 791.609 68.6436C791.556 69.3476 791.455 70.1316 791.305 70.9956C791.167 71.8489 790.953 72.7449 790.665 73.6836C790.377 74.6223 789.983 75.5609 789.481 76.4996C788.991 77.4276 788.361 78.3183 787.593 79.1716C786.836 80.0143 785.913 80.7663 784.825 81.4276C784.655 81.1823 784.42 80.9209 784.121 80.6436C783.833 80.3663 783.529 80.1156 783.209 79.8916C784.276 79.2943 785.172 78.6116 785.897 77.8436C786.623 77.0756 787.215 76.2703 787.673 75.4276C788.132 74.5743 788.484 73.7209 788.729 72.8676C788.975 72.0036 789.151 71.1876 789.257 70.4196C789.364 69.6516 789.428 68.9636 789.449 68.3556C789.471 67.7476 789.492 67.2676 789.513 66.9156ZM791.641 67.3476C791.652 67.5503 791.673 67.8703 791.705 68.3076C791.737 68.7449 791.801 69.2676 791.897 69.8756C791.993 70.4836 792.137 71.1449 792.329 71.8596C792.532 72.5636 792.799 73.2889 793.129 74.0356C793.46 74.7823 793.871 75.5129 794.361 76.2276C794.852 76.9423 795.444 77.6036 796.137 78.2116C796.841 78.8196 797.663 79.3476 798.601 79.7956C798.292 80.0196 798.004 80.2809 797.737 80.5796C797.481 80.8783 797.273 81.1609 797.113 81.4276C796.132 80.9369 795.273 80.3556 794.537 79.6836C793.812 79.0009 793.188 78.2649 792.665 77.4756C792.153 76.6756 791.727 75.8649 791.385 75.0436C791.044 74.2223 790.767 73.4169 790.553 72.6276C790.351 71.8276 790.196 71.0863 790.089 70.4036C789.983 69.7209 789.908 69.1289 789.865 68.6276C789.833 68.1263 789.807 67.7636 789.785 67.5396L791.641 67.3476Z" fill="#237233"/>
<path d="M719.091 58.2044C718.147 58.2044 717.307 58.0924 716.571 57.8684C715.835 57.6444 715.179 57.3484 714.603 56.9804C714.027 56.6124 713.515 56.2124 713.067 55.7804L714.699 53.5244C715.035 53.8604 715.395 54.1644 715.779 54.4364C716.179 54.7084 716.611 54.9244 717.075 55.0844C717.555 55.2444 718.067 55.3244 718.611 55.3244C719.219 55.3244 719.755 55.1964 720.219 54.9404C720.699 54.6844 721.075 54.3164 721.347 53.8364C721.619 53.3404 721.755 52.7484 721.755 52.0604C721.755 51.0364 721.475 50.2444 720.915 49.6844C720.371 49.1244 719.651 48.8444 718.755 48.8444C718.243 48.8444 717.803 48.9164 717.435 49.0604C717.067 49.1884 716.619 49.4204 716.091 49.7564L714.483 48.7244L714.963 40.0844H724.467V43.0604H718.011L717.675 46.8284C718.027 46.6684 718.371 46.5484 718.707 46.4684C719.043 46.3884 719.411 46.3484 719.811 46.3484C720.803 46.3484 721.715 46.5484 722.547 46.9484C723.379 47.3324 724.043 47.9404 724.539 48.7724C725.035 49.6044 725.283 50.6684 725.283 51.9644C725.283 53.2764 724.987 54.4044 724.395 55.3484C723.819 56.2764 723.059 56.9884 722.115 57.4844C721.187 57.9644 720.179 58.2044 719.091 58.2044ZM734.208 58.2044C733.264 58.2044 732.424 58.0924 731.688 57.8684C730.952 57.6444 730.296 57.3484 729.72 56.9804C729.144 56.6124 728.632 56.2124 728.184 55.7804L729.816 53.5244C730.152 53.8604 730.512 54.1644 730.896 54.4364C731.296 54.7084 731.728 54.9244 732.192 55.0844C732.672 55.2444 733.184 55.3244 733.728 55.3244C734.336 55.3244 734.872 55.1964 735.336 54.9404C735.816 54.6844 736.192 54.3164 736.464 53.8364C736.736 53.3404 736.872 52.7484 736.872 52.0604C736.872 51.0364 736.592 50.2444 736.032 49.6844C735.488 49.1244 734.768 48.8444 733.872 48.8444C733.36 48.8444 732.92 48.9164 732.552 49.0604C732.184 49.1884 731.736 49.4204 731.208 49.7564L729.6 48.7244L730.08 40.0844H739.584V43.0604H733.128L732.792 46.8284C733.144 46.6684 733.488 46.5484 733.824 46.4684C734.16 46.3884 734.528 46.3484 734.928 46.3484C735.92 46.3484 736.832 46.5484 737.664 46.9484C738.496 47.3324 739.16 47.9404 739.656 48.7724C740.152 49.6044 740.4 50.6684 740.4 51.9644C740.4 53.2764 740.104 54.4044 739.512 55.3484C738.936 56.2764 738.176 56.9884 737.232 57.4844C736.304 57.9644 735.296 58.2044 734.208 58.2044ZM746.588 58.2044C745.948 58.2044 745.42 57.9804 745.004 57.5324C744.588 57.0844 744.38 56.5404 744.38 55.9004C744.38 55.2284 744.588 54.6764 745.004 54.2444C745.42 53.8124 745.948 53.5964 746.588 53.5964C747.212 53.5964 747.732 53.8124 748.148 54.2444C748.564 54.6764 748.772 55.2284 748.772 55.9004C748.772 56.5404 748.564 57.0844 748.148 57.5324C747.732 57.9804 747.212 58.2044 746.588 58.2044ZM757.992 58.2044C757.064 58.2044 756.232 58.0924 755.496 57.8684C754.76 57.6604 754.104 57.3724 753.528 57.0044C752.968 56.6204 752.48 56.1964 752.064 55.7324L753.72 53.5004C754.264 53.9964 754.856 54.4284 755.496 54.7964C756.152 55.1484 756.88 55.3244 757.68 55.3244C758.288 55.3244 758.816 55.2284 759.264 55.0364C759.728 54.8444 760.08 54.5644 760.32 54.1964C760.576 53.8284 760.704 53.3804 760.704 52.8524C760.704 52.2604 760.56 51.7564 760.272 51.3404C760 50.9084 759.512 50.5804 758.808 50.3564C758.104 50.1324 757.112 50.0204 755.832 50.0204V47.4764C756.92 47.4764 757.776 47.3644 758.4 47.1404C759.024 46.9004 759.464 46.5804 759.72 46.1804C759.992 45.7644 760.128 45.2924 760.128 44.7644C760.128 44.0764 759.92 43.5404 759.504 43.1564C759.088 42.7564 758.504 42.5564 757.752 42.5564C757.128 42.5564 756.544 42.7004 756 42.9884C755.472 43.2604 754.944 43.6364 754.416 44.1164L752.592 41.9324C753.376 41.2764 754.2 40.7564 755.064 40.3724C755.928 39.9724 756.88 39.7724 757.92 39.7724C759.056 39.7724 760.056 39.9564 760.92 40.3244C761.8 40.6924 762.48 41.2284 762.96 41.9324C763.44 42.6364 763.68 43.4924 763.68 44.5004C763.68 45.4604 763.424 46.2844 762.912 46.9724C762.4 47.6604 761.672 48.1884 760.728 48.5564V48.6764C761.384 48.8524 761.976 49.1404 762.504 49.5404C763.048 49.9244 763.472 50.4124 763.776 51.0044C764.096 51.5964 764.256 52.2844 764.256 53.0684C764.256 54.1404 763.968 55.0604 763.392 55.8284C762.832 56.5964 762.072 57.1884 761.112 57.6044C760.168 58.0044 759.128 58.2044 757.992 58.2044ZM770.697 52.5764C770.061 52.5764 769.497 52.4084 769.005 52.0724C768.513 51.7364 768.129 51.2504 767.853 50.6144C767.577 49.9664 767.439 49.1984 767.439 48.3104C767.439 47.4224 767.577 46.6664 767.853 46.0424C768.129 45.4064 768.513 44.9264 769.005 44.6024C769.497 44.2664 770.061 44.0984 770.697 44.0984C771.657 44.0984 772.437 44.4644 773.037 45.1964C773.649 45.9284 773.955 46.9664 773.955 48.3104C773.955 49.1984 773.817 49.9664 773.541 50.6144C773.265 51.2504 772.881 51.7364 772.389 52.0724C771.909 52.4084 771.345 52.5764 770.697 52.5764ZM770.697 51.0644C771.093 51.0644 771.423 50.8544 771.687 50.4344C771.963 50.0024 772.101 49.2944 772.101 48.3104C772.101 47.3264 771.963 46.6304 771.687 46.2224C771.423 45.8024 771.093 45.5924 770.697 45.5924C770.313 45.5924 769.983 45.8024 769.707 46.2224C769.443 46.6304 769.311 47.3264 769.311 48.3104C769.311 49.2944 769.443 50.0024 769.707 50.4344C769.983 50.8544 770.313 51.0644 770.697 51.0644ZM780.435 57.9584C779.799 57.9584 779.235 57.7904 778.743 57.4544C778.251 57.1184 777.861 56.6324 777.573 55.9964C777.297 55.3604 777.159 54.5984 777.159 53.7104C777.159 52.8104 777.297 52.0484 777.573 51.4244C777.861 50.7884 778.251 50.3084 778.743 49.9844C779.235 49.6484 779.799 49.4804 780.435 49.4804C781.071 49.4804 781.635 49.6484 782.127 49.9844C782.619 50.3084 783.003 50.7884 783.279 51.4244C783.555 52.0484 783.693 52.8104 783.693 53.7104C783.693 54.5984 783.555 55.3604 783.279 55.9964C783.003 56.6324 782.619 57.1184 782.127 57.4544C781.635 57.7904 781.071 57.9584 780.435 57.9584ZM780.435 56.4644C780.831 56.4644 781.161 56.2484 781.425 55.8164C781.689 55.3844 781.821 54.6824 781.821 53.7104C781.821 52.7144 781.689 52.0124 781.425 51.6044C781.161 51.1964 780.831 50.9924 780.435 50.9924C780.039 50.9924 779.703 51.1964 779.427 51.6044C779.163 52.0124 779.031 52.7144 779.031 53.7104C779.031 54.6824 779.163 55.3844 779.427 55.8164C779.703 56.2484 780.039 56.4644 780.435 56.4644ZM771.147 57.9584L778.419 44.0984H780.003L772.713 57.9584H771.147Z" fill="#237233"/>
<defs>
<clipPath id="clip0_643_786">
<rect width="68" height="121" fill="white" transform="translate(393 118)"/>
</clipPath>
<clipPath id="clip1_643_786">
<rect width="51.0374" height="122.733" fill="white" transform="translate(111 118)"/>
</clipPath>
<clipPath id="clip2_643_786">
<rect width="73" height="139" fill="white" transform="translate(691 100)"/>
</clipPath>
</defs>
</svg>
