<svg width="604" height="189" viewBox="0 0 604 189" fill="none" xmlns="http://www.w3.org/2000/svg">
<path d="M103.358 21.25L99.8782 25.96C98.6482 24.61 97.5382 23.59 95.0782 21.88C91.4782 26.8 87.8182 29.56 80.2282 32.29L78.9982 30.37C84.5482 27.76 87.8182 24.94 90.8182 19.42C88.2682 18.22 86.6782 17.68 84.3082 17.05L85.7182 14.68C89.2282 15.37 90.8182 15.79 92.1982 16.18C93.0082 13.78 93.6982 11.38 94.0282 6.46L99.9382 7.75C99.1882 13 98.2882 15.49 97.2682 17.92C99.9982 19.09 101.468 19.96 103.358 21.25ZM107.168 6.82L112.628 7.15V23.29H107.168V6.82ZM120.788 6.76L126.218 7.09V17.62C126.218 28.24 121.688 31.45 112.298 33.01L111.308 30.91C117.908 29.29 120.788 26.74 120.788 18.19V6.76ZM136.872 21.04L133.032 22.87C132.612 20.74 131.832 17.83 130.362 15.46L131.982 14.53C133.152 15.7 135.282 18.1 136.872 21.04ZM143.352 19.09L139.422 20.68C139.062 18.58 138.252 15.82 137.202 14.05L138.852 13.18C140.742 14.95 142.392 17.41 143.352 19.09ZM134.892 33.04L133.902 31.39C139.032 29.62 145.422 25.99 145.632 12.73L150.282 13.45C148.902 25.57 144.252 30.16 134.892 33.04ZM155.599 6.37L161.059 6.73V14.98C164.359 15.52 168.169 16.33 173.689 19.57L169.969 24.19C168.769 22.93 165.499 19.57 161.059 17.65V32.56H155.599V6.37ZM202.895 17.71L197.915 21.25C197.525 18.13 196.475 13.99 194.405 10.75L196.745 9.01C198.725 11.08 201.185 14.35 202.895 17.71ZM202.325 9.82L200.255 11.47C199.385 10.09 198.125 8.62 197.135 7.66L198.605 6.49C199.955 7.45 201.185 8.56 202.325 9.82ZM176.075 17.29L175.475 14.59C177.695 13.87 179.195 13.48 181.355 13.09C181.985 11.29 183.035 8.23 183.875 6.04L188.675 7.6C188.285 8.59 187.985 9.49 186.995 12.46C187.745 12.4 188.645 12.4 189.155 12.4C193.565 12.4 195.215 14.32 195.215 19.33C195.215 22.51 194.765 26.77 193.565 29.35C193.175 30.22 191.855 32.77 188.975 32.77C186.875 32.77 184.415 31.45 183.035 30.7L183.875 28.06C185.165 29.08 186.245 29.68 186.785 29.68C187.445 29.68 187.775 29.08 188.045 28.57C188.825 27.1 190.055 23.8 190.055 18.19C190.055 15.22 189.635 14.5 187.715 14.5C187.385 14.5 186.815 14.53 186.305 14.59C184.715 19.48 183.035 24.7 180.575 32.86L175.325 30.97C176.975 25.87 178.715 20.8 180.455 15.73C179.375 16.03 177.815 16.48 176.075 17.29ZM204.875 7.66L202.865 9.31C202.085 8.2 201.065 7.06 199.925 6.16L201.485 4.9C202.595 5.62 203.885 6.64 204.875 7.66ZM213.878 5.89L219.608 6.16C219.278 7.69 219.008 9.01 218.708 10.69C222.008 10.57 225.578 10.42 228.308 10.09V12.49C225.698 12.67 222.758 12.79 218.348 12.97C218.138 14.26 218.078 14.83 217.928 16.09C218.498 16.06 219.098 16 220.148 16C223.298 16 230.498 17.02 230.498 24.1C230.498 32.08 221.978 32.74 218.498 33.01L217.838 30.73C219.968 30.52 224.888 30.07 224.888 24.04C224.888 21.22 223.688 20.05 223.058 19.42C222.488 21.52 221.558 24.88 218.858 28.03C216.488 30.76 213.488 32.17 210.548 32.17C207.098 32.17 206.048 29.92 206.048 26.98C206.048 20.68 211.088 18.28 212.948 17.41C212.978 16.48 213.008 14.89 213.128 13.18C211.568 13.24 207.638 13.36 206.318 13.36V11.02C208.328 11.02 211.268 10.96 213.278 10.9C213.458 9.22 213.548 8.23 213.878 5.89ZM217.718 24.79C219.188 22.39 219.698 20.53 220.208 18.13C219.968 18.1 219.668 18.07 219.218 18.07C218.858 18.07 218.558 18.1 217.748 18.25C217.688 19.24 217.628 20.29 217.628 21.79C217.628 23.02 217.688 23.89 217.718 24.79ZM212.978 20.98C212.348 21.67 210.548 23.62 210.548 27.04C210.548 28.06 210.758 29.08 211.838 29.08C211.958 29.08 212.648 29.08 213.668 28.6C213.428 27.07 213.128 25.18 212.978 20.98ZM238.359 9.64L238.269 6.97C242.019 6.97 248.409 6.85 253.869 6.52L255.279 8.74C252.999 10.6 249.249 13.81 246.789 16.09C247.869 15.73 249.219 15.61 250.389 15.61C255.789 15.61 259.179 18.85 259.179 23.53C259.179 30.31 253.269 32.83 247.209 32.83C242.289 32.83 239.619 30.67 239.619 28.06C239.619 25.96 241.059 23.68 245.349 23.68C246.609 23.68 248.019 23.98 249.069 24.61C251.019 25.75 251.469 27.16 251.859 28.93C252.609 28.09 253.749 26.86 253.749 24.01C253.749 21.25 252.369 18.04 248.199 18.04C244.659 18.04 242.619 20.08 237.549 26.02L233.589 22.51C238.689 17.26 244.389 11.77 247.209 9.1C244.329 9.37 240.819 9.58 238.359 9.64ZM248.139 30.79C248.049 29.11 247.869 26.05 245.499 26.05C244.029 26.05 243.609 27.28 243.609 28.18C243.609 29.71 245.109 30.91 246.819 30.91C246.909 30.91 247.479 30.91 248.139 30.79ZM269.945 13.12V5.98L275.705 6.4C275.315 8.59 275.075 11.02 275.075 13.24C275.075 14.92 275.165 15.67 275.315 16.54C278.735 15.52 280.055 15.13 284.645 13.87L285.425 17.56C282.815 17.83 277.445 18.34 273.245 19.99C272.075 20.44 269.105 21.61 269.105 25.48C269.105 28.84 271.745 29.95 276.785 29.95C280.985 29.95 283.415 29.29 285.035 28.87V32.32C281.915 32.68 277.985 32.68 276.335 32.68C271.295 32.68 263.345 32.53 263.345 25.96C263.345 21.43 267.215 19.72 270.605 18.22C270.305 17.2 269.945 15.97 269.945 13.12ZM302.818 31.81L302.458 29.26C303.178 29.44 303.898 29.47 304.318 29.47C306.898 29.47 309.748 28.54 309.748 22.06C309.748 21.19 309.658 15.04 305.428 15.04C302.968 15.04 300.988 16.93 300.298 17.59C300.178 19.69 300.418 29.74 300.478 32.83H294.958V23.68C293.848 25.12 293.098 26.17 291.928 27.85L288.808 24.37C291.268 21.94 292.468 20.83 294.958 18.61V14.68C294.028 14.71 292.018 14.77 290.038 15.16V12.31C290.878 12.31 292.858 12.31 294.958 12.19V6.25L300.478 6.58C300.478 7.72 300.388 13.21 300.358 14.44C302.458 13.12 304.648 11.89 307.258 11.89C311.458 11.89 315.538 14.98 315.538 21.76C315.538 28.09 312.028 31.87 304.828 31.87C304.558 31.87 303.478 31.87 302.818 31.81ZM346.558 17.71L341.548 21.25C341.038 17.02 340.018 13.63 338.188 10.66L340.318 9.1C342.868 11.65 344.698 14.14 346.558 17.71ZM319.618 17.29L318.988 14.59C321.208 13.87 322.738 13.48 324.898 13.09C325.528 11.29 326.578 8.23 327.418 6.04L332.188 7.6C331.828 8.59 331.528 9.49 330.538 12.46C331.288 12.4 332.188 12.4 332.698 12.4C337.108 12.4 338.758 14.32 338.758 19.33C338.758 22.51 338.278 26.77 337.078 29.35C336.688 30.22 335.398 32.77 332.518 32.77C330.388 32.77 327.958 31.45 326.578 30.7L327.418 28.06C328.708 29.08 329.788 29.68 330.328 29.68C330.988 29.68 331.318 29.08 331.588 28.57C332.338 27.1 333.598 23.8 333.598 18.19C333.598 15.22 333.178 14.5 331.258 14.5C330.928 14.5 330.358 14.53 329.848 14.59C327.898 20.56 326.248 25.72 324.118 32.86L318.868 30.97C320.188 26.86 321.658 22.54 323.998 15.73C322.918 16.03 321.358 16.48 319.618 17.29ZM354.814 31.21L354.424 29.2C360.574 29.29 365.284 27.31 365.284 22.06C365.284 17.68 361.984 16.81 360.004 16.81C357.094 16.81 351.784 18.88 349.564 19.9L348.694 16.96C350.584 16.69 351.214 16.51 353.494 15.91C356.614 15.1 359.764 14.5 361.834 14.5C366.814 14.5 369.904 17.29 369.904 21.85C369.904 24.01 369.244 30.97 354.814 31.21ZM394.922 29.23L394.322 31.93C390.302 31.81 379.172 31.42 379.172 21.73C379.172 14.92 384.542 12.01 387.032 10.63C381.692 10.78 374.432 11.56 373.412 11.68L373.202 9.1C380.882 8.5 391.382 8.08 398.312 8.02V10.36C397.172 10.33 396.752 10.33 396.332 10.33C393.572 10.33 392.372 10.66 391.772 10.84C388.232 11.92 384.962 15.31 384.962 21.1C384.962 28.18 390.212 29.29 393.272 29.29C393.812 29.29 394.442 29.26 394.922 29.23ZM412.336 25.06L413.806 27.04C412.126 29.44 410.536 31.21 408.046 31.21C402.256 31.21 402.256 22.69 402.256 20.71C402.256 17.41 402.496 13.09 403.606 7.96L409.726 9.1C409.156 10.9 407.716 15.4 407.716 21.07C407.716 23.17 407.896 27.01 409.756 27.01C411.016 27.01 411.946 25.66 412.336 25.06ZM427.006 25.96L421.156 27.61C421.336 19.03 420.616 14.86 418.456 10.87L420.706 9.64C425.416 14.71 426.616 20.59 427.006 25.96ZM452.138 29.23L451.538 31.93C447.518 31.81 436.388 31.42 436.388 21.73C436.388 14.92 441.758 12.01 444.248 10.63C438.908 10.78 431.648 11.56 430.628 11.68L430.418 9.1C438.098 8.5 448.598 8.08 455.528 8.02V10.36C454.388 10.33 453.968 10.33 453.548 10.33C450.788 10.33 449.588 10.66 448.988 10.84C445.448 11.92 442.178 15.31 442.178 21.1C442.178 28.18 447.428 29.29 450.488 29.29C451.028 29.29 451.658 29.26 452.138 29.23ZM476.071 18.97V21.34C474.031 21.49 470.671 21.64 468.541 21.73C468.391 23.2 468.241 24.91 468.241 26.17C468.241 28.96 469.171 30.61 473.671 30.61C476.431 30.61 479.371 29.62 479.371 25.57C479.371 23.29 478.741 21.49 478.321 20.29L480.331 19.42C482.251 22.15 483.331 24.58 483.331 26.59C483.331 28.03 482.821 30.13 480.601 31.57C478.681 32.8 474.061 33.07 472.591 33.07C471.871 33.07 466.891 33.07 464.401 30.73C462.961 29.41 462.841 27.16 462.841 26.08C462.841 24.91 462.991 23.02 463.111 21.94C461.611 22 459.391 22.06 458.671 22.06V19.66C460.471 19.66 460.801 19.66 463.351 19.6C463.351 19.36 463.801 15.25 463.861 14.56C461.341 14.65 459.901 14.65 459.331 14.65V12.34C460.471 12.34 462.811 12.28 464.131 12.25C464.521 8.71 464.611 7.63 464.701 6.19L470.581 6.76C470.341 8.2 470.161 9.22 469.741 12.04C472.831 11.92 474.571 11.83 476.911 11.65V14.02C475.951 14.08 474.751 14.2 469.411 14.38C469.171 16.15 469.111 16.6 468.781 19.39C471.151 19.27 473.431 19.18 476.071 18.97ZM497.992 29.29L493.702 33.25C492.892 31.63 490.732 27.34 487.102 23.41L488.692 21.79C491.812 23.74 494.302 25.57 497.992 29.29ZM518.529 29.29L514.239 33.25C513.429 31.63 511.269 27.34 507.639 23.41L509.229 21.79C512.349 23.74 514.839 25.57 518.529 29.29Z" fill="#237233"/>
<path d="M174.558 61.104V54.09H182.202V61.104H194.466V64.086H182.202V67.488C182.202 67.908 182.118 69.84 181.908 71.982H198.288V74.964H183.126C185.184 83.238 191.232 88.656 199.17 91.974L197.448 94.2C191.736 92.94 183.42 89.958 178.338 82.062C175.02 86.934 170.148 91.386 159.438 94.452L157.674 91.848C169.77 86.808 172.584 79.164 173.634 74.964H158.43V71.982H174.18C174.306 71.226 174.558 69.252 174.558 66.606V64.086H167.838C164.982 68.244 162.588 70.092 161.37 71.016L158.892 69.504C161.706 65.304 163.092 59.172 163.344 54.216L171.702 55.728C171.66 56.064 171.45 56.652 171.366 56.904C170.904 58.416 170.694 59.214 169.644 61.104H174.558ZM221.094 91.134L220.59 87.564C221.598 87.816 222.606 87.858 223.194 87.858C226.806 87.858 230.796 86.556 230.796 77.484C230.796 76.266 230.67 67.656 224.748 67.656C221.304 67.656 218.532 70.302 217.566 71.226C217.398 74.166 217.734 88.236 217.818 92.562H210.09V79.752C208.536 81.768 207.486 83.238 205.848 85.59L201.48 80.718C204.924 77.316 206.604 75.762 210.09 72.654V67.152C208.788 67.194 205.974 67.278 203.202 67.824V63.834C204.378 63.834 207.15 63.834 210.09 63.666V55.35L217.818 55.812C217.818 57.408 217.692 65.094 217.65 66.816C220.59 64.968 223.656 63.246 227.31 63.246C233.19 63.246 238.902 67.572 238.902 77.064C238.902 85.926 233.988 91.218 223.908 91.218C223.53 91.218 222.018 91.218 221.094 91.134ZM279.852 82.818L282.12 85.296C277.332 90.378 273.216 90.378 272.502 90.378C268.512 90.378 267.252 87.648 267.252 84.498C267.252 82.692 267.462 78.912 267.546 76.98C267.63 75.72 268.134 69.294 268.134 68.958C268.134 68.454 268.134 65.976 266.076 65.976C264.816 65.976 262.086 67.362 257.676 71.562V92.52L250.158 92.604C250.242 89.496 250.284 83.238 250.326 79.836C248.31 82.314 246.546 84.75 245.832 85.716L242.346 80.172C243.522 79.164 249.108 74.166 250.368 73.032C250.368 72.192 250.41 68.076 250.41 67.152C249.024 67.236 246.63 67.362 244.152 67.698V63.918C247.932 63.792 249.318 63.708 250.41 63.666V55.35L258.096 55.896C257.802 58.794 257.718 63.624 257.718 67.026C261.414 64.338 265.656 61.524 269.646 61.524C271.872 61.524 275.778 62.616 275.778 68.034C275.778 69.924 274.98 79.248 274.98 81.348C274.98 83.826 275.064 84.708 276.408 84.708C277.92 84.708 279.264 83.406 279.852 82.818ZM295.896 90L295.182 86.472C298.248 86.514 303.498 86.556 308.286 83.952C311.94 81.978 314.334 78.87 314.334 73.914C314.334 66.27 308.622 64.716 305.01 64.716C300.18 64.716 291.276 67.992 286.656 70.134L285.144 64.926C286.32 64.758 288.42 64.464 290.73 63.876C297.492 62.112 303.204 60.642 308.454 60.642C316.182 60.642 322.482 64.842 322.482 73.578C322.482 77.232 321.306 89.58 295.896 90ZM337.896 90L337.182 86.472C340.248 86.514 345.498 86.556 350.286 83.952C353.94 81.978 356.334 78.87 356.334 73.914C356.334 66.27 350.622 64.716 347.01 64.716C342.18 64.716 333.276 67.992 328.656 70.134L327.144 64.926C328.32 64.758 330.42 64.464 332.73 63.876C339.492 62.112 345.204 60.642 350.454 60.642C358.182 60.642 364.482 64.842 364.482 73.578C364.482 77.232 363.306 89.58 337.896 90ZM380.446 54.846L388.468 55.224C388.006 57.366 387.628 59.214 387.208 61.566C391.828 61.398 396.826 61.188 400.648 60.726V64.086C396.994 64.338 392.878 64.506 386.704 64.758C386.41 66.564 386.326 67.362 386.116 69.126C386.914 69.084 387.754 69 389.224 69C393.634 69 403.714 70.428 403.714 80.34C403.714 91.512 391.786 92.436 386.914 92.814L385.99 89.622C388.972 89.328 395.86 88.698 395.86 80.256C395.86 76.308 394.18 74.67 393.298 73.788C392.5 76.728 391.198 81.432 387.418 85.842C384.1 89.664 379.9 91.638 375.784 91.638C370.954 91.638 369.484 88.488 369.484 84.372C369.484 75.552 376.54 72.192 379.144 70.974C379.186 69.672 379.228 67.446 379.396 65.052C377.212 65.136 371.71 65.304 369.862 65.304V62.028C372.676 62.028 376.792 61.944 379.606 61.86C379.858 59.508 379.984 58.122 380.446 54.846ZM385.822 81.306C387.88 77.946 388.594 75.342 389.308 71.982C388.972 71.94 388.552 71.898 387.922 71.898C387.418 71.898 386.998 71.94 385.864 72.15C385.78 73.536 385.696 75.006 385.696 77.106C385.696 78.828 385.78 80.046 385.822 81.306ZM379.186 75.972C378.304 76.938 375.784 79.668 375.784 84.456C375.784 85.884 376.078 87.312 377.59 87.312C377.758 87.312 378.724 87.312 380.152 86.64C379.816 84.498 379.396 81.852 379.186 75.972ZM414.719 60.096L414.593 56.358C419.843 56.358 428.789 56.19 436.433 55.728L438.407 58.836C435.215 61.44 429.965 65.934 426.521 69.126C428.033 68.622 429.923 68.454 431.561 68.454C439.121 68.454 443.867 72.99 443.867 79.542C443.867 89.034 435.593 92.562 427.109 92.562C420.221 92.562 416.483 89.538 416.483 85.884C416.483 82.944 418.499 79.752 424.505 79.752C426.269 79.752 428.243 80.172 429.713 81.054C432.443 82.65 433.073 84.624 433.619 87.102C434.669 85.926 436.265 84.204 436.265 80.214C436.265 76.35 434.333 71.856 428.495 71.856C423.539 71.856 420.683 74.712 413.585 83.028L408.041 78.114C415.181 70.764 423.161 63.078 427.109 59.34C423.077 59.718 418.163 60.012 414.719 60.096ZM428.411 89.706C428.285 87.354 428.033 83.07 424.715 83.07C422.657 83.07 422.069 84.792 422.069 86.052C422.069 88.194 424.169 89.874 426.563 89.874C426.689 89.874 427.487 89.874 428.411 89.706ZM5.72429 110.056H21.8523V113.08H12.9063V148.864H5.72429V110.056ZM53.6791 112.912L52.2931 120.136C47.7151 118.204 39.6091 116.146 29.1091 115.852V112.618C35.8291 111.736 39.7351 111.736 40.7011 111.736C45.0691 111.736 49.3951 112.114 53.6791 112.912ZM30.0331 130.384L32.8891 131.98C31.7131 133.408 30.4951 135.256 30.4951 137.146C30.4951 140.506 34.5691 140.506 38.9791 140.506C42.2131 140.506 47.7991 140.38 56.0311 138.196V145.336C49.8571 146.218 44.3551 146.26 42.3811 146.26C38.1391 146.26 25.4971 146.26 25.4971 138.868C25.4971 134.5 28.6051 131.686 30.0331 130.384ZM94.424 117.49L90.98 119.212C89.93 115.474 88.67 113.836 87.998 112.954L90.476 111.904C92.03 113.668 93.332 115.684 94.424 117.49ZM98.708 115.432L95.306 117.154C94.634 115.432 93.668 113.374 92.366 111.736L94.76 110.602C96.818 112.618 97.784 114.004 98.708 115.432ZM70.526 120.094V110.14L78.548 110.728C78.044 113.752 77.708 117.196 77.708 120.262C77.708 122.656 77.834 123.664 78.044 124.882C82.832 123.454 84.68 122.95 91.106 121.144L92.198 126.352C88.586 126.688 81.026 127.402 75.146 129.712C73.508 130.342 69.308 131.98 69.308 137.398C69.308 142.102 73.046 143.656 80.06 143.656C85.94 143.656 89.384 142.774 91.652 142.144V146.974C87.284 147.478 81.782 147.478 79.472 147.478C72.416 147.478 61.286 147.268 61.286 138.07C61.286 131.728 66.704 129.334 71.45 127.234C71.03 125.848 70.526 124.084 70.526 120.094ZM124.141 128.158V131.476C121.285 131.686 116.581 131.896 113.599 132.022C113.389 134.08 113.179 136.474 113.179 138.238C113.179 142.144 114.481 144.454 120.781 144.454C124.645 144.454 128.761 143.068 128.761 137.398C128.761 134.206 127.879 131.686 127.291 130.006L130.105 128.788C132.793 132.61 134.305 136.012 134.305 138.826C134.305 140.842 133.591 143.782 130.483 145.798C127.795 147.52 121.327 147.898 119.269 147.898C118.261 147.898 111.289 147.898 107.803 144.622C105.787 142.774 105.619 139.624 105.619 138.112C105.619 136.474 105.829 133.828 105.997 132.316C103.897 132.4 100.789 132.484 99.781 132.484V129.124C102.301 129.124 102.763 129.124 106.333 129.04C106.333 128.704 106.963 122.95 107.047 121.984C103.519 122.11 101.503 122.11 100.705 122.11V118.876C102.301 118.876 105.577 118.792 107.425 118.75C107.971 113.794 108.097 112.282 108.223 110.266L116.455 111.064C116.119 113.08 115.867 114.508 115.279 118.456C119.605 118.288 122.041 118.162 125.317 117.91V121.228C123.973 121.312 122.293 121.48 114.817 121.732C114.481 124.21 114.397 124.84 113.935 128.746C117.253 128.578 120.445 128.452 124.141 128.158ZM174.206 140.884V147.142C170.846 147.352 163.916 147.394 163.412 147.394C159.926 147.394 152.702 147.352 152.702 141.346C152.702 138.784 153.836 136.6 155.222 134.752L158.204 136.012C157.448 137.02 156.86 138.364 156.86 139.624C156.86 142.102 159.086 142.102 162.32 142.102C166.772 142.102 171.392 141.64 174.206 140.884ZM175.088 123.37L174.08 129.796C169.586 127.906 164.798 126.352 158.54 126.142L158.708 122.572C160.556 122.53 163.118 122.53 163.412 122.53C166.31 122.53 170.804 122.614 175.088 123.37ZM161.606 116.986V120.262C160.346 120.388 159.002 120.514 154.13 120.766C150.098 133.492 147.788 141.682 146.36 147.142L138.842 145.21C141.152 137.566 143.714 129.124 146.192 121.102C141.53 121.27 140.396 121.27 138.968 121.27V117.91C141.446 117.91 143 117.91 147.242 117.784C148.376 114.088 148.502 113.668 149.636 110.14L157.238 111.568C156.608 113.206 155.894 115.306 155.18 117.406C158.624 117.238 159.17 117.196 161.606 116.986ZM178.997 120.85V117.574C182.063 117.532 182.609 117.532 187.019 117.448C187.691 115.348 188.615 112.366 189.077 110.056L196.679 111.526C196.301 112.744 196.007 113.668 194.789 117.196C204.743 116.776 206.297 116.608 208.859 116.314L208.775 119.632C203.399 120.094 196.889 120.346 193.697 120.472C193.151 121.984 191.807 125.806 190.547 128.998C191.807 128.326 194.873 126.688 199.703 126.688C206.087 126.688 211.925 129.754 211.925 136.558C211.925 140.674 209.741 143.32 207.263 144.958C203.189 147.604 195.965 147.52 187.901 147.436L187.019 143.866C188.447 143.992 189.707 144.118 192.269 144.118C194.327 144.118 204.029 144.076 204.029 136.978C204.029 132.358 200.417 130.678 196.805 130.678C190.505 130.678 187.733 135.802 186.851 137.482L180.593 134.962C181.643 132.652 182.987 129.46 185.969 120.724C181.223 120.85 180.299 120.85 178.997 120.85ZM254.225 126.394L247.253 131.35C246.707 126.982 245.237 121.186 242.339 116.65L245.615 114.214C248.387 117.112 251.831 121.69 254.225 126.394ZM253.427 115.348L250.529 117.658C249.311 115.726 247.547 113.668 246.161 112.324L248.219 110.686C250.109 112.03 251.831 113.584 253.427 115.348ZM216.677 125.806L215.837 122.026C218.945 121.018 221.045 120.472 224.069 119.926C224.951 117.406 226.421 113.122 227.597 110.056L234.317 112.24C233.771 113.626 233.351 114.886 231.965 119.044C233.015 118.96 234.275 118.96 234.989 118.96C241.163 118.96 243.473 121.648 243.473 128.662C243.473 133.114 242.843 139.078 241.163 142.69C240.617 143.908 238.769 147.478 234.737 147.478C231.797 147.478 228.353 145.63 226.421 144.58L227.597 140.884C229.403 142.312 230.915 143.152 231.671 143.152C232.595 143.152 233.057 142.312 233.435 141.598C234.527 139.54 236.249 134.92 236.249 127.066C236.249 122.908 235.661 121.9 232.973 121.9C232.511 121.9 231.713 121.942 230.999 122.026C228.773 128.872 226.421 136.18 222.977 147.604L215.627 144.958C217.937 137.818 220.373 130.72 222.809 123.622C221.297 124.042 219.113 124.672 216.677 125.806ZM256.997 112.324L254.183 114.634C253.091 113.08 251.663 111.484 250.067 110.224L252.251 108.46C253.805 109.468 255.611 110.896 256.997 112.324ZM266.027 136.978H264.641V144.496H266.027V136.978ZM276.065 133.282H272.831V125.89H296.645V133.282H291.521V144.916C291.521 145.714 291.605 145.714 292.193 145.714C292.571 145.714 292.697 145.504 292.739 145.21C292.781 145 292.865 140.716 292.907 139.876C294.797 140.548 296.015 140.926 298.073 141.304C297.779 148.024 296.603 148.654 292.403 148.654H288.329C284.717 148.654 284.507 147.562 284.507 144.496V132.19H289.715V128.872H279.929V132.19H283.373V133.786C283.373 142.69 279.509 146.344 272.831 149.326L271.151 147.478H264.641V148.948H258.467V134.038H271.235V146.68C274.805 143.53 276.065 141.052 276.065 134.164V133.282ZM258.467 127.99H271.235V130.93H258.467V127.99ZM288.623 113.038H297.527V115.978H288.623V120.094H295.721V123.076H273.629V120.094H280.937V115.978H272.747V113.038H280.937V108.922H288.623V113.038ZM258.467 110.098H271.235V113.038H258.467V110.098ZM257.417 115.978H271.865V118.96H257.417V115.978ZM258.467 121.942H271.235V124.924H258.467V121.942ZM336.377 116.02H339.401V119.002H336.377V123.244H323.357V124.42H336.377V127.402H323.357V128.704H339.401V131.686H299.585V128.704H315.587V127.402H302.651V124.42H315.587V123.244H302.651V120.262H315.587V119.002H299.585V116.02H315.587V114.844H302.651V111.862H315.587V109.048H323.357V111.862H336.377V116.02ZM323.357 116.02H328.607V114.844H323.357V116.02ZM328.607 119.002H323.357V120.262H328.607V119.002ZM327.935 147.058H311.009V148.99H303.323V132.904H335.663V148.99H327.935V147.058ZM311.009 144.076H327.935V141.346H311.009V144.076ZM311.009 138.364H327.935V135.886H311.009V138.364ZM368.301 140.884H361.371V134.29C359.019 135.508 357.423 137.524 357.423 140.128C357.423 143.11 359.565 144.496 365.571 144.496C369.015 144.496 372.333 144.244 375.819 143.572V147.562C373.761 147.73 371.325 147.856 369.267 147.856H362.505C353.223 147.856 350.493 145.546 350.493 141.556C350.493 136.096 356.499 132.862 361.119 130.426C360.825 128.998 360.279 126.436 357.591 126.436C355.197 126.436 354.021 128.326 353.433 129.376C352.845 130.426 350.493 135.004 348.981 138.784L342.429 136.39C343.521 133.87 344.697 131.266 350.535 119.548C347.259 119.716 346.251 119.758 343.479 119.758L343.563 116.482C346.755 116.482 350.871 116.272 352.173 116.23C354.399 111.82 354.693 111.232 355.281 109.3L363.639 111.148C362.379 113.248 362.253 113.458 360.951 115.726C367.461 115.264 368.805 115.138 371.787 114.676L371.745 118.12C368.385 118.498 362.001 118.918 358.977 119.086C357.927 120.85 357.507 121.606 356.373 123.664C358.053 122.824 359.523 122.824 359.985 122.824C363.513 122.824 365.949 124.336 367.209 127.654C369.099 126.856 370.485 126.31 375.063 124.672L376.323 129.544C372.081 130.384 370.023 130.972 368.049 131.56C368.133 132.652 368.301 134.08 368.301 136.978V140.884ZM396.111 117.112V120.304H403.167V117.112H396.111ZM388.761 115.852V114.172H394.137C394.641 112.366 395.061 110.014 395.187 108.334L404.175 109.804C404.091 109.93 403.755 110.476 403.545 110.728C402.201 112.366 401.697 112.996 400.521 114.172H410.475V116.986C412.071 114.928 413.751 112.198 414.507 110.056L420.597 115.18C419.757 115.852 414.885 118.708 412.029 119.884L410.475 118.456V123.454L411.483 122.152C415.137 123.622 416.943 124.462 420.345 126.562L415.725 132.274C413.793 129.082 411.399 126.142 410.475 125.176V129.67H388.761V125.932C387.921 126.856 383.805 130.636 381.537 132.19L378.891 126.436C381.159 125.764 385.569 124.042 387.543 122.824L388.761 124.63V117.7L384.099 122.362C382.545 118.414 381.579 116.482 379.269 112.912L381.075 110.938C384.351 112.744 385.611 113.584 388.761 115.852ZM403.167 126.73V123.286H396.111V126.73H403.167ZM403.377 140.002V149.242H395.397V140.212C390.105 144.958 383.637 147.352 380.739 148.444L378.849 145.84C385.233 142.228 388.173 137.692 388.761 136.768H379.563V133.786H395.397V130.636H403.377V133.786H419.589V136.768H410.223C411.273 138.616 413.625 142.186 420.345 145.882L418.539 148.444C413.163 146.89 408.459 144.706 403.377 140.002ZM451.184 130.09L453.914 131.056C451.352 139.54 447.404 147.52 435.644 147.52C428.21 147.52 424.094 144.118 424.052 135.97C424.052 133.03 424.136 130.762 424.766 110.434L432.746 111.064C431.948 123.286 431.696 133.282 431.696 134.164C431.696 136.306 431.78 141.556 438.752 141.556C445.64 141.556 448.916 136.348 451.184 130.09ZM496.449 122.614L491.157 128.2C489.267 124.042 486.537 119.464 484.143 116.944L486.243 114.718C490.065 117.07 493.215 119.506 496.449 122.614ZM481.329 147.562H476.751C467.385 147.562 467.427 142.9 467.469 139.666C466.923 140.254 466.377 140.842 464.403 140.842C459.741 140.842 459.027 135.844 459.027 132.652C459.027 130.846 459.363 124.42 464.655 124.42C466.671 124.42 467.217 125.134 467.721 125.722V120.43C460.791 120.724 460.203 120.724 458.481 120.766L458.439 117.49C461.841 117.49 465.789 117.28 467.721 117.196V109.93L475.827 110.518C475.701 111.736 475.533 116.566 475.533 116.776C479.943 116.44 480.867 116.356 482.463 116.188V119.59C479.313 119.842 476.625 120.01 475.365 120.052C474.987 130.384 474.987 134.374 474.987 134.752V140.002C474.987 142.648 476.037 144.034 479.187 144.034H480.615C483.723 144.034 487.881 143.068 487.881 138.364C487.881 136.894 487.671 134.962 487.377 133.534L490.443 132.568C493.173 137.314 493.173 140.296 493.173 140.758C493.173 146.302 487.377 147.562 481.329 147.562ZM465.033 132.652C465.033 135.214 465.201 136.894 466.419 136.894C467.847 136.894 468.225 135.34 468.225 132.4C468.225 130.594 468.183 128.242 466.671 128.242C465.201 128.242 465.033 131.056 465.033 132.652ZM519.4 126.268L516.922 121.9C518.476 121.606 521.5 120.976 523.054 120.556C522.298 119.422 520.744 117.532 517.93 115.222L519.484 113.248H517.384V110.266H536.116V122.404C536.116 126.436 535.654 128.158 530.95 128.158H524.902L523.852 125.05C521.962 126.058 521.5 126.31 520.912 126.604L523.138 127.066C523.012 127.402 520.366 129.628 519.946 129.964H532.504V149.074H524.986V147.604H510.118V149.074H502.6V129.964H513.604C513.772 129.376 513.814 129.25 514.108 127.906C513.1 128.158 512.428 128.158 511.672 128.158H505.456L504.532 125.344C501.424 127.276 501.046 127.486 500.542 127.738L497.392 122.32C499.534 122.026 502.936 121.018 503.314 120.892C503.062 120.556 501.172 117.784 498.61 115.6L500.332 113.248H498.82V110.266H516.292V123.076C516.292 124.588 516.292 124.924 516.208 125.596L519.4 126.268ZM510.118 144.622H524.986V140.128H510.118V144.622ZM510.118 137.146H524.986V132.904H510.118V137.146ZM508.984 123.328V122.11C508.396 122.614 507.388 123.496 505.12 124.966C505.456 125.05 507.052 125.26 507.724 125.26C508.984 125.26 508.984 124.798 508.984 123.328ZM507.976 119.17L508.984 120.85V113.248H501.508C503.272 113.92 503.734 114.172 508.06 116.314L504.868 120.43C506.338 119.926 507.094 119.59 507.976 119.17ZM527.716 119.128L528.724 120.808V113.248H520.576C522.466 113.836 525.91 115.264 527.716 116.104L524.608 120.136C526.582 119.548 527.002 119.38 527.716 119.128ZM528.724 123.496V122.068C527.758 122.782 527.38 122.992 524.104 124.924C526.162 125.26 526.792 125.344 527.632 125.344C528.724 125.344 528.724 124.966 528.724 123.496ZM554.26 118.288V115.39H556.108V110.14H577.654V115.39H579.964V118.372H577.654V123.664H556.108V123.454L551.782 126.1C551.824 123.748 551.278 120.094 550.774 117.784V149.032H543.97V109.09H550.774V116.65L552.622 115.432C553.084 116.146 553.462 116.692 554.26 118.288ZM564.34 118.372H562.87V120.682H564.34V118.372ZM562.87 115.39H564.34V113.122H562.87V115.39ZM569.8 115.39H571.312V113.122H569.8V115.39ZM571.312 118.372H569.8V120.682H571.312V118.372ZM556.108 118.372H554.302C554.722 119.212 554.848 119.464 556.108 122.026V118.372ZM580.594 146.596L578.536 149.242C570.976 147.73 568.54 145.672 567.406 144.706L570.976 142.732H562.156L565.642 144.664C565.516 144.832 565.012 145.252 564.802 145.42C561.442 147.94 555.898 148.906 553.63 149.284L551.656 146.68C554.134 145.672 555.226 144.874 557.746 142.732H555.394V125.218H578.326V142.732H575.218C577.024 144.832 579.418 146.008 580.594 146.596ZM570.976 132.988H562.744V134.71H570.976V132.988ZM562.744 130.006H570.976V128.2H562.744V130.006ZM570.976 137.692H562.744V139.792H570.976V137.692ZM539.98 116.608L543.046 117.574C543.046 130.762 543.004 131.896 542.416 135.34L538.93 130.846C539.77 127.822 540.064 125.932 539.98 116.608ZM598.276 148.024H582.148V145H591.094V109.216H598.276V148.024Z" fill="#237233"/>
<g clip-path="url(#clip0_527_3534)">
<path d="M301.5 189C303.709 189 305.5 187.209 305.5 185C305.5 182.791 303.709 181 301.5 181C299.291 181 297.5 182.791 297.5 185C297.5 187.209 299.291 189 301.5 189Z" fill="#DAE000"/>
<path d="M281.5 189C283.709 189 285.5 187.209 285.5 185C285.5 182.791 283.709 181 281.5 181C279.291 181 277.5 182.791 277.5 185C277.5 187.209 279.291 189 281.5 189Z" fill="#237233"/>
<path d="M322.5 189C324.709 189 326.5 187.209 326.5 185C326.5 182.791 324.709 181 322.5 181C320.291 181 318.5 182.791 318.5 185C318.5 187.209 320.291 189 322.5 189Z" fill="#87C067"/>
</g>
<defs>
<clipPath id="clip0_527_3534">
<rect width="49" height="8" fill="white" transform="translate(277.5 181)"/>
</clipPath>
</defs>
</svg>
