<svg width="490" height="87" viewBox="0 0 490 87" fill="none" xmlns="http://www.w3.org/2000/svg">
<path d="M1.40853 31.954H9.59853C9.72453 37.036 10.5225 40.312 16.1085 40.312C17.6205 40.312 21.5265 39.934 21.5265 35.986C21.5265 32.752 18.5445 31.282 14.4285 29.602C6.74253 26.452 2.12253 24.268 2.12253 18.01C2.12253 10.24 9.47253 8.602 15.8565 8.602C17.4525 8.602 23.3745 8.728 26.9445 12.508C28.4985 14.146 29.0445 15.7 29.3385 18.976H21.1485C21.0645 15.196 20.2245 11.92 14.8905 11.92C11.6985 11.92 10.0185 13.222 10.0185 15.868C10.0185 18.682 11.2365 19.228 18.4605 22.378C25.2645 25.318 29.9265 27.376 29.9265 33.886C29.9265 41.95 22.4085 43.63 15.5625 43.63C11.9505 43.63 8.25453 42.706 6.07053 41.152C2.16453 38.38 1.74453 35.356 1.40853 31.954ZM55.9157 31.87H64.2737C64.0217 33.718 63.7697 35.608 62.0897 38.044C58.8137 42.748 53.3537 43.63 49.5737 43.63C42.0557 43.63 33.1517 40.228 33.1517 26.116C33.1517 11.668 42.6017 8.602 49.2797 8.602C52.5557 8.602 56.3357 9.442 59.1077 11.374C63.3497 14.314 63.7697 17.254 64.1057 19.858H55.9577C55.9577 14.86 53.5217 12.088 48.9857 12.088C47.8097 12.088 45.5837 12.34 44.1977 13.936C41.9717 16.54 41.5097 22.882 41.5097 26.494C41.5097 27.25 41.5097 34.936 44.1977 38.296C45.2897 39.682 47.3057 40.186 49.0697 40.186C55.6637 40.186 55.8317 34.306 55.9157 31.87ZM67.5257 31.954H75.7157C75.8417 37.036 76.6397 40.312 82.2257 40.312C83.7377 40.312 87.6437 39.934 87.6437 35.986C87.6437 32.752 84.6617 31.282 80.5457 29.602C72.8597 26.452 68.2397 24.268 68.2397 18.01C68.2397 10.24 75.5897 8.602 81.9737 8.602C83.5697 8.602 89.4917 8.728 93.0617 12.508C94.6157 14.146 95.1617 15.7 95.4557 18.976H87.2657C87.1817 15.196 86.3417 11.92 81.0077 11.92C77.8157 11.92 76.1357 13.222 76.1357 15.868C76.1357 18.682 77.3537 19.228 84.5777 22.378C91.3817 25.318 96.0437 27.376 96.0437 33.886C96.0437 41.95 88.5257 43.63 81.6797 43.63C78.0677 43.63 74.3717 42.706 72.1877 41.152C68.2817 38.38 67.8617 35.356 67.5257 31.954ZM118.085 43L107.921 27.502V43H99.9409V9.274H107.921V23.89L122.369 9.274H127.409L113.927 22.378L128.375 43H118.085ZM152.18 44.344L151.172 41.026C154.448 40.144 161.756 38.128 161.756 26.116C161.756 16.918 156.38 14.944 154.238 14.146C153.818 18.976 153.02 27.67 150.836 34.054C148.694 40.354 145.628 42.622 141.554 42.622C135.002 42.622 131.516 36.28 131.516 29.434C131.516 19.774 138.068 10.198 151.55 10.198C159.488 10.198 169.61 13.81 169.61 26.662C169.61 41.068 157.094 43.42 152.18 44.344ZM146.678 14.146C144.914 14.818 143.108 15.532 141.092 18.388C138.488 22.126 137.732 26.998 137.732 31.366C137.732 32.668 137.732 38.632 140.504 38.632C142.856 38.632 145.712 29.014 146.678 14.146ZM199.957 11.752L195.589 18.178C192.187 14.692 188.953 12.718 184.207 11.206L185.761 8.434C190.717 8.98 195.253 9.988 199.957 11.752ZM177.613 43.504L173.161 37.456C176.815 35.104 181.015 31.324 183.367 27.208L186.097 29.308C184.879 33.046 182.401 39.052 177.613 43.504ZM213.817 37.666L206.551 41.824C206.215 39.43 205.333 32.836 202.099 27.418L204.703 25.612C209.743 30.442 212.935 36.07 213.817 37.666ZM183.913 44.638L183.325 40.858C185.971 41.446 188.029 41.446 188.575 41.446C191.683 41.446 193.279 40.522 193.279 35.776C193.279 29.308 189.247 25.276 184.669 21.622L187.021 18.892C196.597 24.058 201.469 30.526 201.469 36.154C201.469 42.79 197.815 44.764 189.541 44.764C187.987 44.764 185.425 44.764 183.913 44.638ZM223.557 13.096L223.431 9.358C228.681 9.358 237.627 9.19 245.271 8.728L247.245 11.836C244.053 14.44 238.803 18.934 235.359 22.126C236.871 21.622 238.761 21.454 240.399 21.454C247.959 21.454 252.705 25.99 252.705 32.542C252.705 42.034 244.431 45.562 235.947 45.562C229.059 45.562 225.321 42.538 225.321 38.884C225.321 35.944 227.337 32.752 233.343 32.752C235.107 32.752 237.081 33.172 238.551 34.054C241.281 35.65 241.911 37.624 242.457 40.102C243.507 38.926 245.103 37.204 245.103 33.214C245.103 29.35 243.171 24.856 237.333 24.856C232.377 24.856 229.521 27.712 222.423 36.028L216.879 31.114C224.019 23.764 231.999 16.078 235.947 12.34C231.915 12.718 227.001 13.012 223.557 13.096ZM237.249 42.706C237.123 40.354 236.871 36.07 233.553 36.07C231.495 36.07 230.907 37.792 230.907 39.052C230.907 41.194 233.007 42.874 235.401 42.874C235.527 42.874 236.325 42.874 237.249 42.706ZM287.71 30.61L281.914 33.802C280.402 32.248 277.756 29.56 272.674 29.56C268.348 29.56 265.996 31.744 265.996 35.398C265.996 40.312 270.154 41.95 273.85 41.95C274.648 41.95 279.016 41.95 285.274 39.892L286.324 44.218C281.62 45.142 276.832 45.604 272.086 45.604C268.894 45.604 258.142 45.268 258.142 35.776C258.142 31.87 260.41 25.99 270.154 25.99C272.212 25.99 274.858 26.2 277.294 27.082C275.74 24.184 274.06 20.824 273.346 19.396C264.988 19.858 260.62 19.858 257.428 19.858V16.582C261.88 16.54 265.072 16.54 271.75 16.246C271.288 15.28 268.978 10.534 268.474 9.442L276.328 7.762C277.714 11.038 279.058 13.768 279.982 15.7C285.106 15.238 287.038 14.944 289.222 14.524V17.8C286.366 18.304 283.048 18.598 281.452 18.766C282.628 21.118 285.148 26.284 287.71 30.61ZM303.544 17.968V7.972L311.608 8.56C311.062 11.626 310.726 15.028 310.726 18.136C310.726 20.488 310.852 21.538 311.062 22.756C315.85 21.328 317.698 20.782 324.124 19.018L325.216 24.184C321.562 24.562 314.044 25.276 308.164 27.586C306.526 28.216 302.368 29.854 302.368 35.272C302.368 39.976 306.064 41.53 313.12 41.53C319 41.53 322.402 40.606 324.67 40.018V44.848C320.302 45.352 314.8 45.352 312.49 45.352C305.434 45.352 294.304 45.142 294.304 35.944C294.304 29.602 299.722 27.208 304.468 25.108C304.048 23.68 303.544 21.958 303.544 17.968ZM345.283 14.314H352.843V7.006H359.689V14.314H367.669V40.942C367.669 45.436 367.207 46.654 361.789 46.654H356.875L355.993 43.42C356.497 43.462 358.639 43.756 359.731 43.756C360.949 43.756 360.949 43.294 360.949 41.446V34.18L359.185 37.288C357.631 34.642 356.791 31.996 356.413 30.232C356.035 31.492 355.237 34.264 353.473 37.288L351.499 34.054V47.074H344.905V41.446L341.923 42.874C341.629 38.674 340.831 34.894 340.495 33.424V47.074H333.901V37.582C332.809 41.572 331.339 44.806 330.793 45.94L328.063 44.89C329.029 40.816 329.323 36.658 329.323 32.458L333.901 33.424V30.484C333.229 30.652 329.575 31.534 329.197 31.576L328.231 26.2C330.163 26.2 330.331 26.2 331.339 26.158C332.179 24.646 332.221 24.562 333.271 22.504C330.877 18.43 330.205 17.254 328.063 14.314L329.869 12.13C330.499 12.592 330.793 12.844 331.507 13.432C332.179 11.038 332.725 8.938 333.145 6.502L339.445 8.77C339.361 9.316 334.993 15.322 334.405 16.12C334.531 16.246 335.623 17.254 335.833 17.464C338.269 12.676 338.269 12.634 338.899 11.164L345.283 14.314ZM351.499 17.254V32.29C352.843 29.224 352.843 22.588 352.843 19.858V17.254H351.499ZM344.905 24.982V15.238C343.309 17.338 341.671 19.438 339.949 21.454L342.637 20.488C343.435 21.916 343.561 22.252 344.905 24.982ZM360.949 17.254H359.689V18.43C359.689 26.326 359.983 29.644 360.949 32.038V17.254ZM344.905 34.768V30.022L342.721 30.988C343.141 31.618 344.065 33.172 344.905 34.768ZM340.495 28.762V31.87L342.175 31.156C342.007 30.232 341.839 29.308 341.629 28.426C341.293 28.51 341.209 28.552 340.495 28.762ZM339.907 21.496C338.731 22.882 336.757 25.192 336.169 25.864C338.815 25.696 339.109 25.654 340.915 25.486C340.663 24.478 340.327 23.176 339.907 21.496ZM383.293 32.5V47.158H375.943V35.524C373.969 38.506 372.793 39.598 372.079 40.27L370.021 37.624C372.079 34.726 373.885 30.988 375.691 22.21H370.819V19.27H375.943V14.146C374.011 14.314 373.045 14.356 371.575 14.398L370.315 11.332C375.271 10.996 382.117 9.022 385.393 7.216L388.039 12.088C387.409 12.298 385.225 12.802 383.293 13.18V19.27H386.905V22.21H383.587C384.049 24.94 385.225 28.972 388.417 33.508L386.275 36.028C385.141 34.936 384.217 33.844 383.293 32.5ZM393.163 16.708H402.697L399.967 15.7C401.185 12.382 401.815 9.652 402.193 6.67L411.097 9.694C410.047 10.66 404.671 15.784 403.411 16.708H409.417V31.954H404.755V43.294C404.755 43.63 404.797 43.714 405.091 43.714C405.637 43.714 405.679 43.714 405.721 43.504C405.763 43.294 405.763 40.9 405.763 40.522V36.406C408.073 37.75 408.997 38.254 411.475 39.052C410.803 46.36 409.333 46.654 405.553 46.654H401.983C398.035 46.654 397.783 44.848 397.783 42.454V31.954H396.775C396.607 36.448 396.355 43.21 386.023 47.158L383.755 45.016C388.543 41.446 389.761 37.414 389.887 31.954H387.913V16.708H390.853C390.139 13.054 389.593 11.332 388.375 8.14L391.189 6.838C394.843 9.568 398.203 13.516 398.623 14.062L393.163 16.708ZM401.983 29.014V19.69H395.263V29.014H401.983ZM424.089 17.968V7.972L432.153 8.56C431.607 11.626 431.271 15.028 431.271 18.136C431.271 20.488 431.397 21.538 431.607 22.756C436.395 21.328 438.243 20.782 444.669 19.018L445.761 24.184C442.107 24.562 434.589 25.276 428.709 27.586C427.071 28.216 422.913 29.854 422.913 35.272C422.913 39.976 426.609 41.53 433.665 41.53C439.545 41.53 442.947 40.606 445.215 40.018V44.848C440.847 45.352 435.345 45.352 433.035 45.352C425.979 45.352 414.849 45.142 414.849 35.944C414.849 29.602 420.267 27.208 425.013 25.108C424.593 23.68 424.089 21.958 424.089 17.968ZM459.779 43.756L452.429 44.554C451.967 40.27 451.883 35.776 451.883 31.45C451.883 29.434 451.883 21.076 453.101 9.484L460.661 10.324C459.569 17.128 459.107 26.536 459.107 31.324C459.107 37.036 459.527 41.446 459.779 43.756ZM486.533 16.456V19.816C484.559 20.026 483.341 20.152 480.401 20.362C480.359 29.392 480.359 30.4 480.443 33.046C483.509 34.222 485.441 35.356 488.297 37.246L485.147 43.546C484.391 42.496 483.173 40.942 480.905 39.052C480.485 41.95 479.813 45.268 470.111 45.268C466.457 45.268 461.039 44.386 461.039 38.842C461.039 31.702 469.397 31.366 471.497 31.366C472.085 31.366 472.715 31.408 473.303 31.45C473.093 25.192 473.051 23.428 473.009 20.74C469.481 20.824 468.179 20.866 465.827 20.866H461.795V17.548C464.525 17.674 465.575 17.716 466.457 17.716C468.557 17.716 471.287 17.674 472.925 17.59C472.883 14.02 472.841 12.004 472.799 8.896L480.611 9.316C480.569 9.988 480.485 13.6 480.443 17.254C482.417 17.086 484.391 16.918 486.533 16.456ZM473.387 35.23C473.009 35.188 472.505 35.104 471.791 35.104C469.691 35.104 467.675 35.944 467.675 38.926C467.675 39.682 467.759 41.614 470.867 41.614C473.387 41.614 473.471 39.934 473.471 38.758C473.471 38.254 473.387 35.818 473.387 35.23Z" fill="#237233"/>
<g clip-path="url(#clip0_527_3828)">
<path d="M244.5 87C246.709 87 248.5 85.2091 248.5 83C248.5 80.7909 246.709 79 244.5 79C242.291 79 240.5 80.7909 240.5 83C240.5 85.2091 242.291 87 244.5 87Z" fill="#DAE000"/>
<path d="M224.5 87C226.709 87 228.5 85.2091 228.5 83C228.5 80.7909 226.709 79 224.5 79C222.291 79 220.5 80.7909 220.5 83C220.5 85.2091 222.291 87 224.5 87Z" fill="#237233"/>
<path d="M265.5 87C267.709 87 269.5 85.2091 269.5 83C269.5 80.7909 267.709 79 265.5 79C263.291 79 261.5 80.7909 261.5 83C261.5 85.2091 263.291 87 265.5 87Z" fill="#87C067"/>
</g>
<defs>
<clipPath id="clip0_527_3828">
<rect width="49" height="8" fill="white" transform="translate(220.5 79)"/>
</clipPath>
</defs>
</svg>
