<svg width="474" height="189" viewBox="0 0 474 189" fill="none" xmlns="http://www.w3.org/2000/svg">
<path d="M41.5242 10.504V6.16C41.5242 5.848 41.5242 5.416 41.4042 4.624L44.7402 4.696C44.9802 4.696 45.0522 4.864 45.0522 4.96C45.0522 5.056 44.8602 5.44 44.8122 5.536V27.04H41.5242V20.944C40.6842 21.352 36.9402 23.056 36.1962 23.416C36.0282 23.656 35.9562 23.752 35.8122 23.752C35.6682 23.752 35.5962 23.632 35.5722 23.512L34.8282 21.208C36.4122 20.992 40.6122 19.744 41.5242 19.432V11.848H35.1402V10.504H41.5242ZM55.5642 8.608L57.7962 11.272C57.8442 11.32 57.8922 11.416 57.8922 11.512C57.8922 11.68 57.7242 11.704 57.3162 11.728C56.1402 12.496 54.2922 13.6 50.4522 15.088V24.304C50.4522 25.096 50.4522 25.336 51.2922 25.336H52.9002C53.5482 25.336 53.8842 25.024 54.1242 23.848C54.3162 22.912 54.4362 21.76 54.4122 20.824C55.5402 21.376 56.6442 21.736 57.8442 21.904C57.1962 26.536 55.9002 26.68 54.1242 26.68H50.2122C47.3322 26.68 47.1402 25.552 47.1402 24.064V6.568C47.1402 5.872 47.1162 5.632 47.0202 4.696L50.3082 4.768C50.4762 4.768 50.6922 4.84 50.6922 5.104C50.6922 5.176 50.4762 5.608 50.4522 5.656V13.432C52.8762 11.608 54.6522 10.048 55.5642 8.608ZM67.2522 11.128H79.9002C79.9242 11.992 79.8042 15.856 79.8042 16.624H81.4842V17.968H79.7562C79.6602 20.2 79.5402 21.328 79.4442 22.264H81.1482V23.608H79.2762C78.9162 26.872 77.3802 27.04 75.4362 27.04H72.2442L71.7882 25.528C72.4362 25.624 73.4202 25.768 74.4042 25.768C75.1482 25.768 75.7962 25.648 76.0122 23.608H65.0922C65.3802 22.6 65.8362 21.04 66.3402 17.968H64.9242V16.624H66.5322C66.7722 14.992 67.0122 13.072 67.0602 11.32C66.1242 12.208 65.5482 12.688 65.0202 13.096L63.9402 12.304C65.2362 10.792 67.1802 8.344 67.8522 4.456L71.3082 5.32C71.4042 5.344 71.4282 5.416 71.4282 5.512C71.4282 5.656 71.3322 5.752 71.0682 5.992C70.7562 6.568 70.5402 6.952 70.1802 7.504H81.4842V8.848H69.2442C69.0042 9.16 68.2602 10.096 67.2522 11.128ZM71.8842 12.448H70.1802C70.1082 13.264 69.8202 15.688 69.7002 16.624H71.6202C71.6922 15.88 71.8122 14.704 71.8842 12.448ZM76.6842 12.448H74.8842C74.8602 13.912 74.7162 15.808 74.6442 16.624H76.5882C76.5882 16.024 76.6602 13.12 76.6842 12.448ZM73.9962 22.264H76.2282C76.3242 21.52 76.4442 20.464 76.5402 17.968H74.5242C74.3082 20.056 74.1162 21.496 73.9962 22.264ZM68.7402 22.264H70.9002C71.1882 20.848 71.3562 19.336 71.5002 17.968H69.5082C69.1722 20.44 68.9082 21.544 68.7402 22.264ZM63.4122 16.48L64.5882 17.392C63.6282 20.824 61.7802 25.888 61.5402 26.608C61.5162 26.944 61.5162 27.208 61.2522 27.208C61.1802 27.208 61.1322 27.16 60.9882 27.04L58.7802 25.168C61.1802 21.856 62.8362 17.992 63.4122 16.48ZM65.5242 7.408L63.2442 9.736C62.6922 8.824 61.3722 6.928 60.0282 5.632L60.8202 4.672C61.0842 4.792 63.7242 5.992 65.5242 7.408ZM64.4202 13.552L62.1402 16.096C61.3722 14.704 60.1482 12.976 58.8282 11.848L59.5242 10.792C61.6842 11.752 63.5322 12.952 64.4202 13.552ZM93.5802 8.656H99.8202L98.3802 7.96C98.6922 7.408 99.6762 5.752 99.9642 4.384L103.18 5.56C103.276 5.584 103.42 5.728 103.42 5.872C103.42 6.088 103.156 6.184 102.94 6.28C102.004 7.312 101.356 7.888 100.372 8.656H105.484V10H98.8122C98.3082 10.72 97.7802 11.296 97.2762 11.848H103.852V23.512H90.3402V11.848H94.5402C94.6362 11.632 94.9722 10.888 95.1642 10H88.9242V8.656H93.0762C92.8842 7.888 92.4522 6.616 91.4442 5.224L92.5482 4.504C94.1802 5.416 95.3082 6.352 96.3402 7.456L93.5802 8.656ZM100.516 16.576H93.6042V18.664H100.516V16.576ZM93.6042 15.256H100.516V13.168H93.6042V15.256ZM100.516 19.984H93.6042V22.168H100.516V19.984ZM89.0922 10.336L86.1162 12.424C85.1322 9.52 84.1002 7.456 83.0442 5.632L84.1242 4.816C86.6202 7 88.2522 9.184 89.0922 10.336ZM83.1882 14.968H88.3722V22.504C88.3722 25 90.9162 25.336 93.0282 25.336H100.3C101.788 25.336 104.404 25.288 105.892 25.072L105.34 26.68H92.5482C89.1162 26.68 88.1562 26.224 86.6442 24.496C85.7322 25.456 84.9642 26.056 84.2202 26.56C84.1002 26.824 84.0042 26.968 83.8362 26.968C83.6922 26.968 83.5962 26.848 83.5482 26.704L82.7322 24.52C83.5962 24.28 84.6282 23.776 85.2762 23.392V16.312H83.1882V14.968ZM116.62 10.552V6.568C116.62 5.656 116.596 5.392 116.5 4.576L119.932 4.624C120.196 4.624 120.34 4.792 120.34 5.008C120.34 5.128 120.076 5.656 120.004 5.776V10.504C120.004 11.056 120.028 11.296 120.028 11.56H129.508V12.88H120.148C121.204 21.808 128.092 25.096 129.844 25.912L128.788 27.184C122.188 24.424 119.788 21.256 118.348 18.376C115.588 22.936 112.492 25.312 107.812 27.256L106.852 26.032C108.916 24.976 115.42 21.616 116.476 12.88H107.236V11.56H116.572C116.596 11.272 116.62 10.864 116.62 10.552ZM136.588 9.496H140.74C140.332 7.984 139.828 6.52 139.084 5.152L140.332 4.408C141.436 5.248 143.236 6.856 144.196 8.152L141.772 9.496H147.244L145.852 8.824C147.004 6.784 147.412 5.32 147.556 4.456L151.276 5.92C151.324 5.944 151.348 5.992 151.348 6.04C151.348 6.16 151.204 6.424 150.844 6.544C150.748 6.64 148.516 8.8 147.412 9.496H152.98V14.128H149.692V10.816H134.932V14.176H131.692V9.496H135.172C135.1 9.328 134.02 6.832 133.06 5.512L134.212 4.72C135.796 5.44 137.692 7.168 138.58 8.152L136.588 9.496ZM144.004 19.192H153.532V20.536H144.004V24.496C144.004 26.488 143.164 27.04 141.196 27.04H136.996L136.588 25.504C137.572 25.624 138.292 25.72 139.252 25.72C140.356 25.72 140.596 25.576 140.596 24.472V20.536H131.188V19.192H140.596V16.576L143.02 16.768C143.308 16.504 144.412 15.448 144.988 14.584H135.364V13.264H149.356V14.944C147.364 16.336 146.644 16.768 144.004 18.208V19.192ZM166.447 6.496H161.287V27.064H157.879V5.008H166.447V6.496ZM185.48 21.544V24.952C182.696 25.36 179.312 25.504 177.512 25.504C175.304 25.504 168.488 25.504 168.488 21.472C168.488 19.24 170.168 17.632 170.768 17.08L172.112 17.848C171.776 18.28 170.864 19.432 170.864 20.68C170.864 22.312 172.664 22.84 175.664 22.84C178.856 22.84 181.856 22.504 185.48 21.544ZM170.648 8.32L170.6 6.712C171.56 6.568 173.768 6.232 176.864 6.232C180.512 6.232 182.576 6.664 183.968 6.976L183.296 10.384C179.672 8.656 174.584 8.2 170.648 8.32ZM204.894 11.656L205.374 14.272C203.862 14.368 201.03 14.56 197.646 15.544C195.654 16.12 191.982 17.2 191.982 20.632C191.982 24.136 196.11 24.448 198.39 24.448C201.702 24.448 204.03 23.872 205.062 23.632V25.96C202.806 26.224 199.758 26.248 198.558 26.248C194.982 26.248 188.286 26.224 188.286 20.992C188.286 19.144 189.126 16.888 194.166 14.896C193.614 13.336 193.614 12.808 193.614 7.936C193.614 7.096 193.614 6.112 193.566 5.272L196.638 5.56C197.478 5.632 197.478 5.824 197.478 5.944C197.478 6.04 197.214 6.592 197.19 6.712C196.998 7.456 196.878 10.288 196.878 11.104C196.878 11.944 196.878 12.712 197.19 13.84C198.27 13.504 203.694 12.016 204.894 11.656ZM209.358 8.248L207.63 9.16C207.414 8.584 206.862 7.288 205.926 6.112L207.126 5.488C208.014 6.352 208.71 7.24 209.358 8.248ZM203.478 6.832L204.678 6.28C205.59 7.264 206.31 8.272 206.934 9.424L205.23 10.312C205.038 9.736 204.534 8.296 203.478 6.832ZM215.227 5.416L218.251 5.824C218.899 5.92 219.139 6.016 219.139 6.256C219.139 6.352 218.899 6.736 218.851 6.832C218.731 7.072 218.371 9.568 218.299 10.096C219.523 10.048 221.947 9.952 224.323 9.712V11.44C222.907 11.488 220.435 11.56 218.083 11.632C217.795 13.816 217.699 14.488 217.555 15.832C219.355 15.784 221.539 15.688 223.771 15.448V17.2C221.683 17.248 219.499 17.296 217.387 17.368C217.291 18.448 217.123 20.08 217.123 20.992C217.123 23.368 218.083 24.784 221.731 24.784C223.363 24.784 226.795 24.472 226.795 20.752C226.795 19.336 226.459 17.968 225.763 16.336L227.131 15.712C227.827 16.744 229.507 19.264 229.507 21.544C229.507 24.376 227.203 26.44 221.635 26.44C214.795 26.44 213.715 23.872 213.715 21.016C213.715 20.104 213.859 18.64 213.979 17.488C212.803 17.536 211.747 17.56 210.067 17.68V15.904C211.315 15.976 212.971 15.952 214.123 15.928C214.267 14.632 214.315 14.224 214.579 11.752C213.955 11.752 212.203 11.824 210.643 11.896V10.168C211.243 10.192 212.059 10.24 214.747 10.192C215.131 6.712 215.179 6.328 215.227 5.416ZM254.441 22.984L253.457 24.064C250.265 22 246.905 19.144 244.409 14.392V20.848H248.849V22.192H244.409V27.064H241.097V22.192H236.657V20.848H241.097V14.368C238.673 19.336 235.385 22.072 232.073 24.088L231.065 23.032C235.145 19.864 238.145 14.632 239.105 10.672H231.545V9.352H241.097V6.784C241.097 5.608 241.097 5.344 240.977 4.648L244.361 4.696C244.409 4.696 244.505 4.816 244.505 4.984C244.505 5.176 244.457 5.344 244.409 5.464V9.352H254.033V10.672H246.425C247.817 15.496 250.577 19.792 254.441 22.984ZM268.025 25.456L267.521 23.848C269.129 23.512 273.809 22.504 273.809 15.4C273.809 13.024 273.161 9.352 268.409 8.368C267.737 17.584 266.345 24.496 261.713 24.496C258.305 24.496 256.169 21.016 256.169 17.224C256.169 11.728 260.225 6.52 267.401 6.52C272.489 6.52 277.433 9.064 277.433 15.688C277.433 23.848 270.113 25.096 268.025 25.456ZM264.953 8.392C259.337 10.096 259.097 16.288 259.097 17.944C259.097 21.328 260.177 22.6 261.353 22.6C262.529 22.6 264.473 18.136 264.953 8.392ZM289.409 25.816L288.617 24.832C291.329 22.504 292.649 19.984 293.225 18.304H290.969V16.96H294.209V15.784C294.209 15.208 294.185 15.04 294.089 14.392L297.209 14.44C297.281 14.44 297.401 14.56 297.401 14.656C297.401 14.752 297.305 15.16 297.305 15.208V16.96H301.985V18.304H298.097C299.009 21.424 300.905 23.464 302.321 24.856L301.481 25.864C299.345 24.328 298.481 23.56 297.305 22.024V27.112H294.209V21.832C293.033 23.2 291.497 24.664 289.409 25.816ZM301.697 13.672L300.929 14.8C297.689 13.792 295.001 12.568 292.385 10.36V15.208H289.097V10.336C288.233 11.152 285.665 13.384 280.769 14.92L279.929 13.864C282.425 12.616 285.305 10.816 286.865 8.32H280.577V7H289.097V6.16C289.097 5.248 289.049 4.936 289.025 4.672L292.385 4.72C292.433 4.72 292.577 4.864 292.577 4.936C292.577 5.032 292.433 5.416 292.385 5.536V7H301.025V8.32H294.641C295.241 9.256 297.089 11.536 301.697 13.672ZM290.033 21.904L289.169 23.104C288.449 22.648 288.017 22.312 287.345 21.664V27.112H284.273V21.688C282.641 23.752 281.105 24.88 279.905 25.672L278.993 24.76C282.185 21.664 283.097 18.784 283.241 18.304H279.569V16.96H284.273V15.808C284.273 15.376 284.249 14.776 284.225 14.392L287.297 14.44C287.345 14.44 287.465 14.56 287.465 14.656C287.465 14.752 287.441 14.872 287.345 15.136V16.96H290.177V18.304H287.561C287.873 19.096 288.593 20.44 290.033 21.904ZM303.545 25.264H308.705V4.696H312.113V26.752H303.545V25.264ZM333.748 6.208C333.748 4.84 334.828 3.736 336.196 3.736C337.54 3.736 338.644 4.84 338.644 6.208C338.644 7.6 337.516 8.704 336.196 8.704C334.852 8.704 333.748 7.624 333.748 6.208ZM337.372 6.208C337.372 5.584 336.844 5.008 336.196 5.008C335.524 5.008 334.996 5.56 334.996 6.208C334.996 6.88 335.524 7.432 336.196 7.432C336.844 7.432 337.372 6.88 337.372 6.208ZM318.004 25.72L317.14 24.232C322.804 22.912 328.972 19.84 330.748 9.136L321.172 9.184C318.916 9.184 317.956 9.208 316.996 9.256V7.6C318.364 7.648 319.756 7.648 321.124 7.648L330.244 7.624C331.54 7.624 332.548 7.6 333.004 7.576L334.636 9.208C333.724 12.832 333.148 15.04 331.156 17.944C327.268 23.608 321.1 25 318.004 25.72ZM354.673 23.968H344.065C344.065 24.112 344.089 24.808 344.089 24.976H340.513C340.537 23.944 340.561 21.856 340.561 20.704V10.336C340.561 9.496 340.561 8.656 340.513 7.264C342.385 7.312 343.441 7.36 345.025 7.36H354.433C356.785 7.36 357.385 7.336 358.249 7.288C358.201 9.352 358.201 10.432 358.201 10.936V20.752C358.201 22.24 358.225 24.016 358.249 25H354.649C354.649 24.688 354.673 24.28 354.673 23.968ZM344.041 8.872V22.48H354.697V8.872H344.041ZM375.788 6.712L376.748 5.8C377.348 6.16 378.788 7.024 379.844 8.152L378.5 9.496C377.756 8.392 376.652 7.36 375.788 6.712ZM361.868 13.144L362.828 11.704C364.22 11.944 367.076 12.424 370.268 13.912L368.348 17.008C366.116 15.088 364.532 14.152 361.868 13.144ZM364.988 6.64L366.14 5.44C369.956 6.64 371.588 7.72 372.716 8.488L370.604 11.392C369.428 9.928 367.916 8.368 364.988 6.64ZM377.924 5.296L378.884 4.36C380.66 5.272 381.404 5.968 381.836 6.352L380.492 7.696C379.724 6.784 378.884 5.992 377.924 5.296ZM364.34 25.456L363.188 22.024C374.252 21.568 378.812 14.2 380.708 11.08L382.028 11.872C377.732 21.448 371.132 24.208 365.18 25.672C365.084 25.696 364.7 25.936 364.58 25.936C364.484 25.936 364.46 25.792 364.34 25.456ZM390.61 23.344V13.024H388.426C388.114 13.024 386.698 13.024 385.186 13.096V11.752C385.858 11.776 387.394 11.8 388.426 11.8H395.626C397.546 11.8 398.218 11.776 398.89 11.752V13.096C397.834 13.024 396.154 13.024 395.602 13.024H393.49V23.344H397.138C397.594 23.344 399.154 23.344 400.258 23.272V24.616C399.346 24.592 398.218 24.568 397.162 24.568H386.914C385.882 24.568 385.282 24.568 383.866 24.616V23.272C384.634 23.32 385.378 23.344 386.914 23.344H390.61ZM403.169 17.008L402.233 15.664C405.233 13.984 406.937 11.584 407.969 8.032C408.425 6.424 408.521 5.632 408.569 5.2L412.073 6.088C412.361 6.16 412.481 6.232 412.481 6.304C412.481 6.376 412.265 6.688 412.217 6.76C411.953 7.432 411.593 8.512 411.281 9.136H416.249C418.649 9.136 419.465 9.088 420.041 9.04L421.433 10.36C420.449 14.368 419.993 16.312 418.337 18.904C414.497 24.928 408.281 25.864 403.937 26.272L403.457 24.76C407.249 24.304 415.937 22.936 417.449 10.672H410.441C408.545 13.6 406.721 15.304 403.169 17.008ZM425.446 20.896V8.584C425.446 6.976 425.422 6.208 425.398 5.584L428.566 5.824C428.734 5.848 429.07 5.872 429.07 6.04C429.07 6.16 428.926 6.76 428.926 6.88V12.544C430.918 12.952 434.494 13.672 438.79 16.504L436.318 19.408C435.238 18.28 432.982 15.88 428.926 14.296V20.992C428.926 21.184 428.95 25.408 428.95 26.008H425.398C425.446 24.496 425.446 22.408 425.446 20.896Z" fill="#237233"/>
<path d="M65.0072 90.084H77.7332V93.024H43.3352V90.084H47.5772V79.668H54.7172V90.084H57.4472V77.568H52.1132V71.394C51.0632 72.906 49.8452 74.334 48.5852 75.678L46.9052 74.166C46.6532 79.122 45.4772 85.296 39.4292 93.234L36.7412 91.47C39.3452 84.12 39.3452 77.316 39.3452 71.268V55.35H77.7332V58.332H46.9472V70.428C46.9472 72.024 46.9472 72.402 46.9052 73.242C48.2072 71.142 49.3412 68.16 49.8032 66.018H47.7032V63.036H52.1132V59.256H58.4552V63.036H61.6472V66.018H59.7992C60.0512 66.564 60.7232 67.866 62.0672 69.63L59.9672 71.814C59.5472 71.394 59.2532 71.1 58.4552 70.092V76.812H65.0072V81.39H75.1292V84.372H65.0072V90.084ZM78.6992 74.082L76.4732 76.182C75.8012 75.594 74.4572 74.25 72.7352 71.478V77.568H66.4352V71.016C64.2932 74.04 62.8652 75.258 61.8572 76.056L59.7572 74.124C60.5552 73.116 62.6132 70.47 63.9152 66.018H62.7392V63.036H66.4352V59.256H72.7352V63.036H77.7332V66.018H75.3812C75.4652 66.732 75.9692 69.924 78.6992 74.082ZM95.8352 60.096V54.09H103.563V60.096H117.549V76.434H103.395C102.849 81.852 101.505 84.162 100.329 85.758C105.033 88.488 112.131 90.756 119.985 91.68L118.767 94.368C110.451 94.032 102.303 92.268 96.0872 89.412C93.1472 91.176 88.9052 93.108 80.4212 94.2L79.0352 91.512C85.9232 90.126 89.4092 87.606 90.8792 86.388C86.5952 83.28 85.0412 80.088 84.2432 78.282L92.2652 77.064C92.6852 78.114 93.2312 79.458 94.7432 81.222C95.1212 80.256 95.4572 79.206 95.7512 76.434H81.8912V60.096H95.8352ZM95.8352 63.078H89.1992V73.452H95.8352V63.078ZM103.563 63.078V73.452H110.199V63.078H103.563ZM133.849 54.846L141.871 55.224C141.409 57.366 141.031 59.214 140.611 61.566C145.231 61.398 150.229 61.188 154.051 60.726V64.086C150.397 64.338 146.281 64.506 140.107 64.758C139.813 66.564 139.729 67.362 139.519 69.126C140.317 69.084 141.157 69 142.627 69C147.037 69 157.117 70.428 157.117 80.34C157.117 91.512 145.189 92.436 140.317 92.814L139.393 89.622C142.375 89.328 149.263 88.698 149.263 80.256C149.263 76.308 147.583 74.67 146.701 73.788C145.903 76.728 144.601 81.432 140.821 85.842C137.503 89.664 133.303 91.638 129.187 91.638C124.357 91.638 122.887 88.488 122.887 84.372C122.887 75.552 129.943 72.192 132.547 70.974C132.589 69.672 132.631 67.446 132.799 65.052C130.615 65.136 125.113 65.304 123.265 65.304V62.028C126.079 62.028 130.195 61.944 133.009 61.86C133.261 59.508 133.387 58.122 133.849 54.846ZM139.225 81.306C141.283 77.946 141.997 75.342 142.711 71.982C142.375 71.94 141.955 71.898 141.325 71.898C140.821 71.898 140.401 71.94 139.267 72.15C139.183 73.536 139.099 75.006 139.099 77.106C139.099 78.828 139.183 80.046 139.225 81.306ZM132.589 75.972C131.707 76.938 129.187 79.668 129.187 84.456C129.187 85.884 129.481 87.312 130.993 87.312C131.161 87.312 132.127 87.312 133.555 86.64C133.219 84.498 132.799 81.852 132.589 75.972ZM168.123 60.096L167.997 56.358C173.247 56.358 182.193 56.19 189.837 55.728L191.811 58.836C188.619 61.44 183.369 65.934 179.925 69.126C181.437 68.622 183.327 68.454 184.965 68.454C192.525 68.454 197.271 72.99 197.271 79.542C197.271 89.034 188.997 92.562 180.513 92.562C173.625 92.562 169.887 89.538 169.887 85.884C169.887 82.944 171.903 79.752 177.909 79.752C179.673 79.752 181.647 80.172 183.117 81.054C185.847 82.65 186.477 84.624 187.023 87.102C188.073 85.926 189.669 84.204 189.669 80.214C189.669 76.35 187.737 71.856 181.899 71.856C176.943 71.856 174.087 74.712 166.989 83.028L161.445 78.114C168.585 70.764 176.565 63.078 180.513 59.34C176.481 59.718 171.567 60.012 168.123 60.096ZM181.815 89.706C181.689 87.354 181.437 83.07 178.119 83.07C176.061 83.07 175.473 84.792 175.473 86.052C175.473 88.194 177.573 89.874 179.967 89.874C180.093 89.874 180.891 89.874 181.815 89.706ZM207.709 70.176H202.249V62.322H206.911C205.651 58.878 204.769 56.946 203.845 55.35L206.491 53.88C209.809 55.182 213.631 58.626 215.017 60.054L211.489 62.322H216.991C216.865 61.86 215.857 57.66 214.555 54.888L217.243 53.46C219.637 54.888 223.207 57.408 225.391 60.012L220.897 62.322H229.633L226.777 61.272C228.163 58.122 228.877 54.132 229.003 53.46L237.949 56.526C237.529 57.198 233.581 60.768 231.145 62.322H239.965V70.176H235.639V72.108C231.901 74.502 229.129 75.93 224.929 77.652V79.668H241.057V82.608H224.929V88.656C224.929 93.78 221.359 93.78 219.217 93.78H210.271L209.599 90.504C212.497 90.798 213.463 90.882 214.765 90.882C216.361 90.882 216.991 90.588 216.991 88.488V82.608H201.115V79.668H216.991V74.964L221.695 75.3C222.787 74.292 223.669 73.242 224.425 72.108H207.709V70.176ZM209.767 65.262V69.126H232.279V65.262H209.767ZM280.133 59.718L277.277 62.07C276.311 60.516 274.757 58.416 272.783 56.82L274.715 55.14C276.731 56.4 278.705 58.08 280.133 59.718ZM283.745 56.652L280.847 59.046C279.671 57.24 278.369 55.854 276.689 54.594L278.663 52.872C279.461 53.292 281.855 54.594 283.745 56.652ZM281.645 65.136L278.705 70.218C275.975 68.58 272.489 65.934 270.053 63.624C272.027 66.732 275.093 71.562 275.093 77.61C275.093 85.884 269.423 91.512 259.805 91.512C254.933 91.512 245.861 89.874 245.861 78.786C245.861 71.562 249.557 66.774 254.471 61.482C252.413 62.028 248.675 62.994 245.147 63.75L244.349 59.844C247.751 59.676 253.421 58.626 257.453 57.492L259.889 60.642C258.209 62.49 256.865 63.918 255.269 67.698C254.471 69.588 252.875 73.746 252.875 78.408C252.875 83.196 255.395 86.01 259.805 86.01C267.617 86.01 268.415 77.82 268.415 74.208C268.415 69.378 267.281 63.876 264.677 59.844L267.785 57.408C272.027 61.524 277.655 63.96 281.645 65.136ZM305.966 91.344L304.958 88.026C308.234 87.144 315.542 85.128 315.542 73.116C315.542 63.918 310.166 61.944 308.024 61.146C307.604 65.976 306.806 74.67 304.622 81.054C302.48 87.354 299.414 89.622 295.34 89.622C288.788 89.622 285.302 83.28 285.302 76.434C285.302 66.774 291.854 57.198 305.336 57.198C313.274 57.198 323.396 60.81 323.396 73.662C323.396 88.068 310.88 90.42 305.966 91.344ZM300.464 61.146C298.7 61.818 296.894 62.532 294.878 65.388C292.274 69.126 291.518 73.998 291.518 78.366C291.518 79.668 291.518 85.632 294.29 85.632C296.642 85.632 299.498 76.014 300.464 61.146ZM341.647 55.434H365.125V69.84H341.647V55.434ZM338.875 91.974L336.523 89.832C344.461 86.346 347.317 81.642 348.409 79.416H347.191C343.453 85.296 339.001 87.06 337.405 87.69L335.221 85.716C340.303 82.65 341.983 78.786 342.529 74.292H339.421V71.436H367.015V74.292H349.669C349.417 75.426 349.207 75.846 348.997 76.434H365.965C365.881 80.214 365.671 84.666 365.083 87.858C364.453 91.134 363.865 93.654 358.531 93.654H352.021L350.929 90.588C348.955 92.142 347.401 92.982 346.225 93.612L343.999 91.596C345.889 90.42 351.937 86.724 354.205 79.416H353.323C351.979 82.566 348.661 88.446 338.875 91.974ZM357.775 58.374H348.997V61.146H357.775V58.374ZM357.775 64.128H348.997V66.858H357.775V64.128ZM358.069 82.02C356.263 85.716 353.995 88.152 351.097 90.462C351.727 90.546 352.903 90.756 354.835 90.756C357.565 90.756 357.607 89.538 358.069 82.02ZM330.139 64.716V54.048H337.447V64.716H340.597V67.656H337.447V79.206C338.749 78.744 339.211 78.576 340.513 78.03L340.261 80.928C337.993 82.482 329.215 86.934 327.535 87.732L326.443 82.356C327.283 82.23 328.921 81.852 330.139 81.516V67.656H327.115V64.716H330.139ZM379.969 90.504L372.661 91.386C372.241 87.816 371.905 84.33 371.905 76.266C371.905 63.96 372.703 59.214 373.123 56.358L380.431 57.282C379.969 59.424 379.087 63.666 379.087 75.804C379.087 83.952 379.549 87.564 379.969 90.504ZM405.925 82.776V89.328C402.439 89.664 398.701 89.874 395.173 89.874C385.891 89.874 382.195 88.824 382.195 83.952C382.195 83.196 382.195 80.256 385.093 76.938L387.865 78.366C387.235 79.332 386.521 80.424 386.521 81.936C386.521 83.658 387.529 84.414 391.519 84.414C397.651 84.414 402.481 83.574 405.925 82.776ZM383.623 64.086L383.161 60.39C388.537 59.298 394.333 58.752 399.835 58.752C401.389 58.752 402.187 58.794 403.657 59.004V65.598C400.423 64.422 396.643 63.624 390.847 63.624C386.941 63.624 384.757 63.918 383.623 64.086ZM426.609 87.606L420.603 93.15C419.469 90.882 416.445 84.876 411.363 79.374L413.589 77.106C417.957 79.836 421.443 82.398 426.609 87.606ZM31.0688 112.912L29.6828 120.136C25.1048 118.204 16.9988 116.146 6.49875 115.852V112.618C13.2188 111.736 17.1248 111.736 18.0908 111.736C22.4588 111.736 26.7848 112.114 31.0688 112.912ZM7.42275 130.384L10.2788 131.98C9.10275 133.408 7.88475 135.256 7.88475 137.146C7.88475 140.506 11.9588 140.506 16.3688 140.506C19.6028 140.506 25.1888 140.38 33.4208 138.196V145.336C27.2468 146.218 21.7448 146.26 19.7708 146.26C15.5288 146.26 2.88675 146.26 2.88675 138.868C2.88675 134.5 5.99475 131.686 7.42275 130.384ZM71.8137 117.49L68.3697 119.212C67.3197 115.474 66.0597 113.836 65.3877 112.954L67.8657 111.904C69.4197 113.668 70.7217 115.684 71.8137 117.49ZM76.0977 115.432L72.6957 117.154C72.0237 115.432 71.0577 113.374 69.7557 111.736L72.1497 110.602C74.2077 112.618 75.1737 114.004 76.0977 115.432ZM47.9157 120.094V110.14L55.9377 110.728C55.4337 113.752 55.0977 117.196 55.0977 120.262C55.0977 122.656 55.2237 123.664 55.4337 124.882C60.2217 123.454 62.0697 122.95 68.4957 121.144L69.5877 126.352C65.9757 126.688 58.4157 127.402 52.5357 129.712C50.8977 130.342 46.6977 131.98 46.6977 137.398C46.6977 142.102 50.4357 143.656 57.4497 143.656C63.3297 143.656 66.7737 142.774 69.0417 142.144V146.974C64.6737 147.478 59.1717 147.478 56.8617 147.478C49.8057 147.478 38.6757 147.268 38.6757 138.07C38.6757 131.728 44.0937 129.334 48.8397 127.234C48.4197 125.848 47.9157 124.084 47.9157 120.094ZM101.531 128.158V131.476C98.6746 131.686 93.9706 131.896 90.9886 132.022C90.7786 134.08 90.5686 136.474 90.5686 138.238C90.5686 142.144 91.8706 144.454 98.1706 144.454C102.035 144.454 106.151 143.068 106.151 137.398C106.151 134.206 105.269 131.686 104.681 130.006L107.495 128.788C110.183 132.61 111.695 136.012 111.695 138.826C111.695 140.842 110.981 143.782 107.873 145.798C105.185 147.52 98.7166 147.898 96.6586 147.898C95.6506 147.898 88.6786 147.898 85.1926 144.622C83.1766 142.774 83.0086 139.624 83.0086 138.112C83.0086 136.474 83.2186 133.828 83.3866 132.316C81.2866 132.4 78.1786 132.484 77.1706 132.484V129.124C79.6906 129.124 80.1526 129.124 83.7226 129.04C83.7226 128.704 84.3526 122.95 84.4366 121.984C80.9086 122.11 78.8926 122.11 78.0946 122.11V118.876C79.6906 118.876 82.9666 118.792 84.8146 118.75C85.3606 113.794 85.4866 112.282 85.6126 110.266L93.8446 111.064C93.5086 113.08 93.2566 114.508 92.6686 118.456C96.9946 118.288 99.4306 118.162 102.707 117.91V121.228C101.363 121.312 99.6826 121.48 92.2066 121.732C91.8706 124.21 91.7866 124.84 91.3246 128.746C94.6426 128.578 97.8346 128.452 101.531 128.158ZM136.797 146.344L135.789 143.026C139.065 142.144 146.373 140.128 146.373 128.116C146.373 118.918 140.997 116.944 138.855 116.146C138.435 120.976 137.637 129.67 135.453 136.054C133.311 142.354 130.245 144.622 126.171 144.622C119.619 144.622 116.133 138.28 116.133 131.434C116.133 121.774 122.685 112.198 136.167 112.198C144.105 112.198 154.227 115.81 154.227 128.662C154.227 143.068 141.711 145.42 136.797 146.344ZM131.295 116.146C129.531 116.818 127.725 117.532 125.709 120.388C123.105 124.126 122.349 128.998 122.349 133.366C122.349 134.668 122.349 140.632 125.121 140.632C127.473 140.632 130.329 131.014 131.295 116.146ZM194.375 140.884V147.142C191.015 147.352 184.085 147.394 183.581 147.394C180.095 147.394 172.871 147.352 172.871 141.346C172.871 138.784 174.005 136.6 175.391 134.752L178.373 136.012C177.617 137.02 177.029 138.364 177.029 139.624C177.029 142.102 179.255 142.102 182.489 142.102C186.941 142.102 191.561 141.64 194.375 140.884ZM195.257 123.37L194.249 129.796C189.755 127.906 184.967 126.352 178.709 126.142L178.877 122.572C180.725 122.53 183.287 122.53 183.581 122.53C186.479 122.53 190.973 122.614 195.257 123.37ZM181.775 116.986V120.262C180.515 120.388 179.171 120.514 174.299 120.766C170.267 133.492 167.957 141.682 166.529 147.142L159.011 145.21C161.321 137.566 163.883 129.124 166.361 121.102C161.699 121.27 160.565 121.27 159.137 121.27V117.91C161.615 117.91 163.169 117.91 167.411 117.784C168.545 114.088 168.671 113.668 169.805 110.14L177.407 111.568C176.777 113.206 176.063 115.306 175.349 117.406C178.793 117.238 179.339 117.196 181.775 116.986ZM218.354 110.182L226.292 112.156C225.872 114.592 225.536 116.272 224.864 118.918C227.72 119.842 235.154 122.278 235.154 132.064C235.154 139.078 231.08 142.522 228.854 143.908C224.738 146.512 220.076 146.848 216.758 147.1L215.918 144.034C219.362 143.572 227.594 142.522 227.594 131.35C227.594 126.31 225.494 124.336 223.73 123.076C217.766 142.9 211.886 145.798 207.224 145.798C201.386 145.798 199.664 140.296 199.664 135.76C199.664 128.704 203.654 124.714 205.292 123.076C204.704 119.464 204.494 117.154 204.242 113.5L211.214 112.786C211.256 115.18 211.298 116.818 211.424 119.296C213.566 118.54 215.036 118.246 217.43 118.12C217.934 114.76 218.144 113.038 218.354 110.182ZM206.468 128.704C205.838 130.006 204.662 132.568 204.662 137.062C204.662 137.986 204.662 141.934 206.846 141.934C208.442 141.934 209.828 139.834 210.542 138.784C208.568 135.592 207.602 132.862 206.468 128.704ZM213.608 132.526C215.288 127.948 216.086 124.756 216.758 121.564C214.91 121.774 213.65 122.11 211.718 123.076C212.18 126.898 212.6 129.292 213.608 132.526ZM260.459 146.344L259.451 143.026C262.727 142.144 270.035 140.128 270.035 128.116C270.035 118.918 264.659 116.944 262.517 116.146C262.097 120.976 261.299 129.67 259.115 136.054C256.973 142.354 253.907 144.622 249.833 144.622C243.281 144.622 239.795 138.28 239.795 131.434C239.795 121.774 246.347 112.198 259.829 112.198C267.767 112.198 277.889 115.81 277.889 128.662C277.889 143.068 265.373 145.42 260.459 146.344ZM254.957 116.146C253.193 116.818 251.387 117.532 249.371 120.388C246.767 124.126 246.011 128.998 246.011 133.366C246.011 134.668 246.011 140.632 248.783 140.632C251.135 140.632 253.991 131.014 254.957 116.146ZM312.815 147.058H290.345V149.074H282.953V110.434H320.291V149.074H312.815V147.058ZM290.345 128.62V140.044C292.571 138.7 295.553 136.852 298.577 133.744C295.217 131.35 292.697 129.712 290.345 128.62ZM290.345 127.99L291.647 126.016C292.571 126.268 292.655 126.31 292.865 126.352C292.403 123.706 291.395 120.724 290.345 118.246V127.99ZM312.815 135.718V123.412C311.261 126.982 309.287 129.796 307.061 132.358C309.665 133.744 311.219 134.626 312.815 135.718ZM312.815 137.944L309.035 142.774C308.153 141.808 306.137 139.624 302.441 136.684C298.451 139.876 293.789 141.766 291.815 142.564L290.345 140.842V144.076H312.815V137.944ZM306.725 115.894L312.815 118.54V113.416H290.345V117.154L292.445 115.894C294.251 117.28 295.763 118.666 298.283 121.564C297.695 118.246 297.485 117.28 296.897 115.348L299.291 114.382C301.559 116.566 303.575 119.002 305.423 121.564C306.137 119.128 306.305 118.162 306.725 115.894ZM298.661 123.958L293.705 126.646C294.461 126.898 298.409 128.242 301.727 129.796C302.231 128.998 303.365 127.234 304.751 123.664L298.913 126.016C298.871 125.302 298.787 124.798 298.661 123.958ZM360.443 116.02H363.467V119.002H360.443V123.244H347.423V124.42H360.443V127.402H347.423V128.704H363.467V131.686H323.651V128.704H339.653V127.402H326.717V124.42H339.653V123.244H326.717V120.262H339.653V119.002H323.651V116.02H339.653V114.844H326.717V111.862H339.653V109.048H347.423V111.862H360.443V116.02ZM347.423 116.02H352.673V114.844H347.423V116.02ZM352.673 119.002H347.423V120.262H352.673V119.002ZM352.001 147.058H335.075V148.99H327.389V132.904H359.729V148.99H352.001V147.058ZM335.075 144.076H352.001V141.346H335.075V144.076ZM335.075 138.364H352.001V135.886H335.075V138.364ZM396.983 147.184H391.943V149.116H384.719V122.11H383.123V118.918L381.737 120.766C381.149 120.346 380.267 119.674 378.419 117.616V121.018H382.325V135.55H374.177V141.598C374.681 141.514 374.933 141.43 376.781 141.094C376.151 138.28 375.983 137.902 375.731 137.188L378.419 135.634C380.309 137.902 382.997 142.144 384.467 145.252L377.873 149.116C377.789 147.772 377.747 146.68 377.327 143.992C376.151 144.496 366.995 148.36 366.407 148.528L364.811 143.194C365.567 143.068 365.903 143.026 367.037 142.858V122.488C366.449 122.866 366.239 123.034 365.819 123.328L364.685 120.262C367.499 117.364 369.725 113.584 370.817 109.468H379.385C380.099 112.87 382.493 116.314 383.123 117.07V113.668H390.137V109.132H397.823V113.668H405.089V122.11H402.611V131.392H391.943V134.374H404.249V149.116H396.983V147.184ZM374.177 123.958V126.73H375.563V123.958H374.177ZM368.927 121.018H371.741V118.456C371.405 118.792 370.229 119.884 368.927 121.018ZM375.563 132.61V129.712H374.177V132.61H375.563ZM390.221 116.65V120.01H398.075V116.65H390.221ZM395.177 128.41V122.992H391.943V128.41H395.177ZM391.943 144.202H396.983V137.356H391.943V144.202ZM373.001 117.154H378.041C376.319 115.18 375.983 114.592 375.521 113.92C375.017 114.718 374.597 115.348 373.001 117.154ZM434.367 140.884H427.437V134.29C425.085 135.508 423.489 137.524 423.489 140.128C423.489 143.11 425.631 144.496 431.637 144.496C435.081 144.496 438.399 144.244 441.885 143.572V147.562C439.827 147.73 437.391 147.856 435.333 147.856H428.571C419.289 147.856 416.559 145.546 416.559 141.556C416.559 136.096 422.565 132.862 427.185 130.426C426.891 128.998 426.345 126.436 423.657 126.436C421.263 126.436 420.087 128.326 419.499 129.376C418.911 130.426 416.559 135.004 415.047 138.784L408.495 136.39C409.587 133.87 410.763 131.266 416.601 119.548C413.325 119.716 412.317 119.758 409.545 119.758L409.629 116.482C412.821 116.482 416.937 116.272 418.239 116.23C420.465 111.82 420.759 111.232 421.347 109.3L429.705 111.148C428.445 113.248 428.319 113.458 427.017 115.726C433.527 115.264 434.871 115.138 437.853 114.676L437.811 118.12C434.451 118.498 428.067 118.918 425.043 119.086C423.993 120.85 423.573 121.606 422.439 123.664C424.119 122.824 425.589 122.824 426.051 122.824C429.579 122.824 432.015 124.336 433.275 127.654C435.165 126.856 436.551 126.31 441.129 124.672L442.389 129.544C438.147 130.384 436.089 130.972 434.115 131.56C434.199 132.652 434.367 134.08 434.367 136.978V140.884ZM454.322 147.94C450.5 147.94 447.476 144.748 447.476 140.968C447.476 137.188 450.5 133.996 454.322 133.996C458.144 133.996 461.168 137.188 461.168 140.968C461.168 144.748 458.186 147.94 454.322 147.94ZM454.322 145.252C456.674 145.252 458.522 143.32 458.522 140.968C458.522 138.616 456.632 136.684 454.322 136.684C452.012 136.684 450.122 138.616 450.122 140.968C450.122 143.362 452.012 145.252 454.322 145.252Z" fill="#237233"/>
<g clip-path="url(#clip0_527_3028)">
<path d="M236.5 189C238.709 189 240.5 187.209 240.5 185C240.5 182.791 238.709 181 236.5 181C234.291 181 232.5 182.791 232.5 185C232.5 187.209 234.291 189 236.5 189Z" fill="#DAE000"/>
<path d="M216.5 189C218.709 189 220.5 187.209 220.5 185C220.5 182.791 218.709 181 216.5 181C214.291 181 212.5 182.791 212.5 185C212.5 187.209 214.291 189 216.5 189Z" fill="#237233"/>
<path d="M257.5 189C259.709 189 261.5 187.209 261.5 185C261.5 182.791 259.709 181 257.5 181C255.291 181 253.5 182.791 253.5 185C253.5 187.209 255.291 189 257.5 189Z" fill="#87C067"/>
</g>
<defs>
<clipPath id="clip0_527_3028">
<rect width="49" height="8" fill="white" transform="translate(212.5 181)"/>
</clipPath>
</defs>
</svg>
