<svg width="559" height="20" viewBox="0 0 559 20" fill="none" xmlns="http://www.w3.org/2000/svg">
<path d="M3.39718 18V4.6C2.69718 4.92 1.49718 5.14 0.0971755 5.18V3.88C0.737176 3.76 2.45718 3.44 3.41718 2.08H6.49718V18H3.39718ZM29.2572 4.44L30.5972 3.48C32.1172 5.28 33.5772 7.14 34.5972 9.28L31.8372 11.2C31.3572 7.48 29.4372 4.66 29.2572 4.44ZM16.9572 8.78L16.5772 7.12C19.2572 6.48 19.5572 6.4 20.6572 6.2C21.1972 4.62 21.7372 3.04 22.2772 1.46L24.3972 2.24C24.5972 2.32 24.9372 2.46 24.9372 2.62C24.9372 2.7 24.7772 2.86 24.7172 2.94C24.5772 3.08 23.7772 5.36 23.6172 5.84C24.1172 5.8 24.7572 5.72 25.4772 5.72C28.3972 5.72 29.2172 7.2 29.2172 10.3C29.2172 11.1 29.1572 19 25.2372 19C23.9572 19 22.2572 18.04 21.5972 17.68L22.1172 16.18C23.2972 17.1 23.9972 17.26 24.1972 17.26C24.6372 17.26 24.8972 16.9 25.0972 16.52C26.1172 14.7 26.4572 11.94 26.4572 9.78C26.4572 7.66 26.1172 6.92 24.6972 6.92C24.1172 6.92 23.4772 7.04 23.1972 7.08C20.9772 13.76 19.6372 18.08 19.3772 18.98L16.5372 17.96C17.4172 15.6 18.7172 11.84 20.1372 7.68C19.0372 7.98 18.0172 8.3 16.9572 8.78ZM39.3572 1.84H52.7772V17.06C52.7772 18.62 52.4772 19.48 49.9172 19.48H46.1772L45.8972 18.18C46.3172 18.24 47.4172 18.4 48.3572 18.4C49.9172 18.4 49.9772 18.02 49.9772 17.08V12.16H42.0572C41.8772 15.78 40.2372 17.88 37.9172 19.64L36.9372 18.94C38.2572 17.58 39.3572 15.96 39.3572 10.74V1.84ZM49.9772 6.44V2.94H42.0972V6.44H49.9772ZM49.9772 11.06V7.54H42.0972V11.06H49.9772ZM58.2172 1.72H66.1772V8.46H60.8372V19.72H58.2172V1.72ZM60.8372 4.52H63.6772V2.82H60.8372V4.52ZM63.6772 5.62H60.8372V7.34H63.6772V5.62ZM75.4172 1.72V17.76C75.4172 19.6 74.2972 19.6 73.2172 19.6H70.2172L69.8572 18.28C70.2372 18.32 71.7772 18.52 72.0372 18.52C72.6772 18.52 72.8172 18.34 72.8172 17.54V8.46H67.3572V1.72H75.4172ZM69.9172 4.52H72.7972V2.82H69.9172V4.52ZM72.7972 5.62H69.9172V7.34H72.7972V5.62ZM62.4572 9.94H71.0972V17.52H62.4572V9.94ZM64.9772 13.14H68.5172V11.04H64.9772V13.14ZM68.5172 14.24H64.9772V16.4H68.5172V14.24ZM94.6972 3.48L94.6772 6.02C93.9372 5.78 92.3372 5.24 89.2572 5.24C87.2972 5.24 86.0572 5.46 85.5172 5.56L85.2772 4.08C86.5572 3.82 88.9372 3.34 92.3772 3.34C93.6572 3.34 94.1372 3.4 94.6972 3.48ZM80.5772 2.26L82.8972 2.62C83.5572 2.72 83.5572 2.82 83.5572 2.94C83.5572 3.02 83.3372 3.28 83.3172 3.36C83.1372 3.74 82.7172 7 82.7172 11.56C82.7172 15.24 82.9972 17.06 83.1772 18.12L80.3772 18.44C80.1972 17.08 79.9772 15.32 79.9772 11.62C79.9772 9.14 80.0772 6 80.5772 2.26ZM95.7972 14.88L95.7572 17.46C94.1772 17.68 92.3772 17.78 90.7572 17.78C86.5372 17.78 84.8172 17.14 84.8172 15.16C84.8172 13.66 85.6772 12.6 85.9972 12.2L87.1572 12.78C86.8972 13.16 86.5972 13.64 86.5972 14.4C86.5972 15.44 87.6172 15.68 89.4772 15.68C92.7172 15.68 94.8172 15.14 95.7972 14.88ZM118.137 16.32L117.317 17.22C114.657 15.5 111.857 13.12 109.777 9.16V14.54H113.477V15.66H109.777V19.72H107.017V15.66H103.317V14.54H107.017V9.14C104.997 13.28 102.257 15.56 99.4972 17.24L98.6572 16.36C102.057 13.72 104.557 9.36 105.357 6.06H99.0572V4.96H107.017V2.82C107.017 1.84 107.017 1.62 106.917 1.04L109.737 1.08C109.777 1.08 109.857 1.18 109.857 1.32C109.857 1.48 109.817 1.62 109.777 1.72V4.96H117.797V6.06H111.457C112.617 10.08 114.917 13.66 118.137 16.32ZM136.357 8.5L136.957 10.56C135.277 10.8 134.257 11.06 132.717 11.58C132.797 12.76 132.817 13.42 132.797 16.02H130.097C130.117 15.16 130.137 14.4 130.157 12.64C129.257 13.16 127.717 14.04 127.717 15.78C127.717 17.78 129.997 17.92 131.717 17.92C132.117 17.92 134.297 17.92 136.657 17.44L136.697 19.06C135.717 19.18 134.397 19.26 133.397 19.26H130.577C126.817 19.26 125.017 18.4 125.017 16.32C125.017 15.02 125.657 13.38 130.077 11.1C129.957 10.44 129.717 9.1 128.317 9.1C127.077 9.1 125.877 9.74 123.737 14.84L121.277 13.86C122.457 11.22 125.277 5.88 125.357 5.72C123.657 5.8 123.477 5.82 121.717 5.92L121.757 4.46C123.217 4.5 124.417 4.48 126.037 4.4C126.897 2.74 127.317 1.96 127.597 1.16L130.097 1.82C130.317 1.88 130.717 1.98 130.717 2.18C130.717 2.28 130.597 2.4 130.397 2.6C130.257 2.74 129.557 3.9 129.357 4.22C130.817 4.12 133.237 3.96 134.657 3.62V5.16C132.977 5.28 130.597 5.42 128.557 5.54C128.017 6.44 127.717 6.96 126.937 8.32C127.377 8.04 127.977 7.66 129.097 7.66C131.557 7.66 132.157 9.34 132.417 10.02C134.037 9.34 135.417 8.84 136.357 8.5ZM148.997 18V4.6C148.297 4.92 147.097 5.14 145.697 5.18V3.88C146.337 3.76 148.057 3.44 149.017 2.08H152.097V18H148.997ZM173.817 18.74H171.617V10.12H169.937V18.74H167.517V10.12H165.857V19.72H163.217V10.12H161.517V9.02H163.217V1.66H178.397V9.02H180.137V10.12H178.397V17.44C178.397 19.42 177.397 19.6 175.957 19.6H174.057L173.817 18.74ZM174.097 2.78V9.02H175.777V2.78H174.097ZM171.617 9.02V2.78H169.937V9.02H171.617ZM174.097 10.12V18.38C174.517 18.46 174.937 18.48 175.137 18.48C175.777 18.48 175.777 18.08 175.777 17.54V10.12H174.097ZM167.517 9.02V2.78H165.857V9.02H167.517ZM187.897 1.68L190.417 2.02C190.957 2.1 191.157 2.18 191.157 2.38C191.157 2.46 190.957 2.78 190.917 2.86C190.817 3.06 190.517 5.14 190.457 5.58C191.477 5.54 193.497 5.46 195.477 5.26V6.7C194.297 6.74 192.237 6.8 190.277 6.86C190.037 8.68 189.957 9.24 189.837 10.36C191.337 10.32 193.157 10.24 195.017 10.04V11.5C193.277 11.54 191.457 11.58 189.697 11.64C189.617 12.54 189.477 13.9 189.477 14.66C189.477 16.64 190.277 17.82 193.317 17.82C194.677 17.82 197.537 17.56 197.537 14.46C197.537 13.28 197.257 12.14 196.677 10.78L197.817 10.26C198.397 11.12 199.797 13.22 199.797 15.12C199.797 17.48 197.877 19.2 193.237 19.2C187.537 19.2 186.637 17.06 186.637 14.68C186.637 13.92 186.757 12.7 186.857 11.74C185.877 11.78 184.997 11.8 183.597 11.9V10.42C184.637 10.48 186.017 10.46 186.977 10.44C187.097 9.36 187.137 9.02 187.357 6.96C186.837 6.96 185.377 7.02 184.077 7.08V5.64C184.577 5.66 185.257 5.7 187.497 5.66C187.817 2.76 187.857 2.44 187.897 1.68ZM212.657 11.56L214.957 11.58C215.057 11.58 215.117 11.7 215.117 11.78C215.117 11.9 215.057 12.32 215.057 12.4C214.977 15.78 214.297 18.12 210.337 19.82L209.577 18.88C212.597 17.14 212.497 14.52 212.417 12.24H210.057V9.04H221.317V12.24H218.817V10.16H212.657V11.56ZM219.737 19.48H217.897C215.897 19.48 215.897 18.82 215.897 17.66V12.9C215.897 12.44 215.877 11.78 215.837 11.54L218.337 11.58C218.417 11.58 218.497 11.66 218.497 11.8C218.497 11.94 218.457 12.02 218.397 12.12V17.76C218.397 18.24 218.477 18.36 218.897 18.36H219.237C219.657 18.36 219.917 18.22 219.937 15.7C220.637 16.06 221.617 16.3 221.997 16.38C221.677 18.36 221.497 19.48 219.737 19.48ZM203.597 12.88H209.497V18.96H205.937V19.72H203.597V12.88ZM207.497 14H205.937V17.84H207.497V14ZM217.097 3.06H221.737V4.18H217.097V6.42H220.857V7.54H210.737V6.42H214.337V4.18H210.077V3.06H214.337V2.26C214.337 1.74 214.317 1.54 214.277 1.02L216.997 1.04C217.057 1.04 217.157 1.08 217.157 1.2C217.157 1.26 217.157 1.32 217.097 1.52V3.06ZM203.677 1.62H209.497V2.72H203.677V1.62ZM203.097 4.44H209.897V5.54H203.097V4.44ZM203.677 7.28H209.497V8.4H203.677V7.28ZM203.677 10.04H209.497V11.16H203.677V10.04ZM239.897 8.14V9.6C238.557 9.6 236.837 9.62 234.897 9.62C234.937 10.66 234.977 12.16 234.997 12.72C236.597 13.16 238.077 13.68 240.877 15.58L239.277 18.06C237.457 16.2 236.417 15.48 235.057 14.78C235.117 16.66 235.197 19.12 230.777 19.12C228.417 19.12 225.777 18.38 225.777 16.04C225.777 12.78 230.197 12.16 232.117 12.3C232.097 11.8 232.057 10.04 232.057 9.64C228.597 9.64 226.897 9.68 226.317 9.68V8.24C227.817 8.38 230.417 8.38 232.017 8.38C232.017 8 232.017 6.2 231.997 5.8C229.797 5.82 227.417 5.84 225.777 5.9V4.46C227.337 4.58 230.857 4.56 231.977 4.56C231.957 3.58 231.937 2.02 231.957 1.48L234.497 1.68C235.057 1.72 235.057 1.78 235.057 1.88C235.057 1.94 234.917 2.28 234.897 2.36C234.877 2.58 234.857 3.66 234.857 4.54C236.057 4.52 238.377 4.48 240.197 4.28V5.7C238.437 5.74 237.337 5.78 234.857 5.78C234.857 6.54 234.877 6.72 234.897 8.36C235.417 8.36 237.837 8.32 239.897 8.14ZM232.157 13.84C231.737 13.8 231.417 13.8 231.357 13.8C229.557 13.8 228.337 14.76 228.337 16.06C228.337 17.06 229.157 17.66 230.317 17.66C231.377 17.66 231.817 17.22 232.037 16.68C232.197 16.26 232.157 14.52 232.157 13.84ZM255.597 7.92L257.797 8.1C258.537 8.16 258.577 8.24 258.577 8.34C258.577 8.42 258.397 8.78 258.377 8.86C258.317 9.1 258.317 9.98 258.317 10.34C258.317 10.88 258.337 12.2 258.437 14.44C259.257 14.7 260.377 15.06 262.477 16.22L260.817 18.24C260.097 17.54 259.537 17.08 258.557 16.5C258.537 16.92 258.497 17.6 257.857 18.18C256.957 18.98 255.417 19.1 254.377 19.1C251.217 19.1 250.117 17.76 250.117 16.52C250.117 15.04 251.677 13.74 254.197 13.74C254.937 13.74 255.537 13.82 255.777 13.84C255.657 12.32 255.657 11.84 255.597 7.92ZM255.877 15.28C255.477 15.16 254.957 15.06 254.477 15.06C254.017 15.06 252.517 15.14 252.517 16.38C252.517 17.3 253.237 17.72 254.217 17.72C255.097 17.72 255.957 17.34 255.957 16.42C255.957 16.4 255.897 15.46 255.877 15.28ZM262.717 6.04L261.417 8.18C259.397 6.62 257.697 5.88 256.037 5.3L256.797 4.22C257.857 4.48 260.157 5.04 262.717 6.04ZM245.917 6.8V5.26C246.957 5.34 247.457 5.34 248.957 5.34C249.137 4.82 250.077 2.24 250.277 1.66L252.377 2.18C252.917 2.32 252.997 2.4 252.997 2.54C252.997 2.64 252.657 3 252.597 3.1C252.437 3.32 251.877 4.78 251.717 5.16C253.257 5 254.017 4.86 254.777 4.66V6.18C253.617 6.34 252.717 6.42 251.197 6.52C249.317 11.54 248.517 14.7 248.137 16.36L245.437 15.64C246.577 12.08 247.697 8.88 248.477 6.66C247.897 6.68 246.317 6.78 245.917 6.8ZM278.857 4.44L280.197 3.48C281.717 5.28 283.177 7.14 284.197 9.28L281.437 11.2C280.957 7.48 279.037 4.66 278.857 4.44ZM266.557 8.78L266.177 7.12C268.857 6.48 269.157 6.4 270.257 6.2C270.797 4.62 271.337 3.04 271.877 1.46L273.997 2.24C274.197 2.32 274.537 2.46 274.537 2.62C274.537 2.7 274.377 2.86 274.317 2.94C274.177 3.08 273.377 5.36 273.217 5.84C273.717 5.8 274.357 5.72 275.077 5.72C277.997 5.72 278.817 7.2 278.817 10.3C278.817 11.1 278.757 19 274.837 19C273.557 19 271.857 18.04 271.197 17.68L271.717 16.18C272.897 17.1 273.597 17.26 273.797 17.26C274.237 17.26 274.497 16.9 274.697 16.52C275.717 14.7 276.057 11.94 276.057 9.78C276.057 7.66 275.717 6.92 274.297 6.92C273.717 6.92 273.077 7.04 272.797 7.08C270.577 13.76 269.237 18.08 268.977 18.98L266.137 17.96C267.017 15.6 268.317 11.84 269.737 7.68C268.637 7.98 267.617 8.3 266.557 8.78ZM289.077 10.5L288.557 8.78C289.357 8.68 290.177 8.5 290.957 8.28C292.857 7.74 295.037 7.14 297.217 7.14C300.137 7.14 302.457 8.84 302.457 11.94C302.457 15.4 298.997 17.9 292.717 18L292.477 16.86C295.677 17.06 299.957 15.82 299.957 12.02C299.957 9.84 298.557 8.44 296.077 8.44C294.017 8.44 290.657 9.74 289.077 10.5ZM317.217 8.74L317.337 7.34C317.597 7.34 317.657 7.32 318.157 7.32C322.017 7.32 323.777 7.64 324.897 7.82L324.457 10.36C323.017 9.78 320.697 8.84 317.217 8.74ZM315.317 13.54L316.597 14.06C316.037 14.86 316.037 15.56 316.037 15.68C316.037 17.06 317.697 17.06 318.857 17.06C320.037 17.06 322.377 17 324.357 16.48L324.397 18.96C323.077 19.02 321.757 19.06 320.417 19.06C317.557 19.06 314.337 19.06 314.337 16.22C314.337 15.76 314.377 14.76 315.317 13.54ZM318.477 4.8V6.22C317.617 6.26 316.837 6.3 314.617 6.4C312.737 12.2 311.417 16.64 310.837 18.8L307.937 18C308.577 16.18 308.837 15.36 309.057 14.62C309.417 13.48 311.217 7.82 311.617 6.54C310.497 6.58 309.677 6.62 307.897 6.74V5.26C309.517 5.28 310.937 5.28 312.017 5.22C312.137 4.9 313.057 1.96 313.217 1.44L315.457 2C316.017 2.14 316.117 2.26 316.117 2.38C316.117 2.48 315.857 2.82 315.797 2.9C315.737 3.02 315.197 4.62 315.037 5.1C316.137 5.02 317.117 4.96 318.477 4.8ZM338.577 9.6H346.497V10.7H338.577V17.36C338.577 19.4 337.557 19.58 336.277 19.58H332.417L332.057 18.28C332.897 18.42 333.757 18.48 334.617 18.48C335.657 18.48 335.857 18.32 335.857 17.4V10.7H327.897V9.6H335.857V5.84L338.037 6.1C338.617 5.5 339.897 4.02 340.457 2.92H329.437V1.8H344.677V2.86C342.797 4.64 341.617 5.46 338.577 7.54V9.6ZM364.397 6.88L364.797 9.06C363.537 9.14 361.177 9.3 358.357 10.12C356.697 10.6 353.637 11.5 353.637 14.36C353.637 17.28 357.077 17.54 358.977 17.54C361.737 17.54 363.677 17.06 364.537 16.86V18.8C362.657 19.02 360.117 19.04 359.117 19.04C356.137 19.04 350.557 19.02 350.557 14.66C350.557 13.12 351.257 11.24 355.457 9.58C354.997 8.28 354.997 7.84 354.997 3.78C354.997 3.08 354.997 2.26 354.957 1.56L357.517 1.8C358.217 1.86 358.217 2.02 358.217 2.12C358.217 2.2 357.997 2.66 357.977 2.76C357.817 3.38 357.717 5.74 357.717 6.42C357.717 7.12 357.717 7.76 357.977 8.7C358.877 8.42 363.397 7.18 364.397 6.88ZM368.117 4.04L366.677 4.8C366.497 4.32 366.037 3.24 365.257 2.26L366.257 1.74C366.997 2.46 367.577 3.2 368.117 4.04ZM363.217 2.86L364.217 2.4C364.977 3.22 365.577 4.06 366.097 5.02L364.677 5.76C364.517 5.28 364.097 4.08 363.217 2.86ZM375.097 1.68L377.617 2.02C378.157 2.1 378.357 2.18 378.357 2.38C378.357 2.46 378.157 2.78 378.117 2.86C378.017 3.06 377.717 5.14 377.657 5.58C378.677 5.54 380.697 5.46 382.677 5.26V6.7C381.497 6.74 379.437 6.8 377.477 6.86C377.237 8.68 377.157 9.24 377.037 10.36C378.537 10.32 380.357 10.24 382.217 10.04V11.5C380.477 11.54 378.657 11.58 376.897 11.64C376.817 12.54 376.677 13.9 376.677 14.66C376.677 16.64 377.477 17.82 380.517 17.82C381.877 17.82 384.737 17.56 384.737 14.46C384.737 13.28 384.457 12.14 383.877 10.78L385.017 10.26C385.597 11.12 386.997 13.22 386.997 15.12C386.997 17.48 385.077 19.2 380.437 19.2C374.737 19.2 373.837 17.06 373.837 14.68C373.837 13.92 373.957 12.7 374.057 11.74C373.077 11.78 372.197 11.8 370.797 11.9V10.42C371.837 10.48 373.217 10.46 374.177 10.44C374.297 9.36 374.337 9.02 374.557 6.96C374.037 6.96 372.577 7.02 371.277 7.08V5.64C371.777 5.66 372.457 5.7 374.697 5.66C375.017 2.76 375.057 2.44 375.097 1.68ZM400.657 18.38L400.237 17.04C401.577 16.76 405.477 15.92 405.477 10C405.477 8.02 404.937 4.96 400.977 4.14C400.417 11.82 399.257 17.58 395.397 17.58C392.557 17.58 390.777 14.68 390.777 11.52C390.777 6.94 394.157 2.6 400.137 2.6C404.377 2.6 408.497 4.72 408.497 10.24C408.497 17.04 402.397 18.08 400.657 18.38ZM398.097 4.16C393.417 5.58 393.217 10.74 393.217 12.12C393.217 14.94 394.117 16 395.097 16C396.077 16 397.697 12.28 398.097 4.16ZM415.077 18.96V19.76H412.457V13.62H421.677V18.96H415.077ZM415.077 17.84H419.077V14.72H415.077V17.84ZM423.337 2.18L425.377 2.2C425.457 2.26 425.497 2.32 425.497 2.42C425.497 2.54 425.457 2.62 425.377 2.74V15.44H423.397V3.46C423.397 3.3 423.357 2.56 423.337 2.18ZM418.397 3.08H422.597V6.02H420.177V4.2H413.937V6.02H411.517V3.08H415.757V2.08C415.757 1.92 415.697 1.2 415.697 1.04L418.297 1.06C418.377 1.06 418.477 1.2 418.477 1.32C418.477 1.44 418.437 1.52 418.397 1.6V3.08ZM418.297 6.46H421.397V7.58H418.297V8.82H421.797V9.92H418.297V11.26H422.917V12.36H411.097V11.26H415.797V9.92H412.277V8.82H415.797V7.58H412.717V6.46H415.797V5.9C415.797 5.8 415.737 5.14 415.697 4.84L418.197 4.86C418.237 4.9 418.357 4.96 418.357 5.1C418.357 5.18 418.317 5.32 418.297 5.4V6.46ZM426.557 1.04L429.077 1.06C429.137 1.06 429.237 1.16 429.237 1.3C429.237 1.44 429.197 1.6 429.177 1.7V17.46C429.177 19.32 428.597 19.64 427.057 19.64H424.337L423.937 18.38C424.417 18.46 425.237 18.54 425.957 18.54C426.457 18.54 426.617 18.4 426.617 17.56V2.22C426.617 2 426.577 1.52 426.557 1.04ZM445.397 18.88H436.997V19.72H434.277V11.72H448.177V19.72H445.397V18.88ZM436.997 17.78H445.397V12.84H436.997V17.78ZM439.157 1.04H443.237C443.717 2.26 445.137 5.84 450.937 8.84L450.197 9.74C446.177 8.2 443.617 6.52 441.217 3.36C438.417 7.14 434.397 9 432.257 9.8L431.457 8.86C435.537 6.84 438.097 3.88 439.157 1.04ZM435.917 8.2H446.497V9.32H435.917V8.2ZM471.337 18.58V19.82C469.197 19.32 465.037 17.86 465.037 10.4C465.037 3.82 468.197 1.72 471.337 0.98V2.22C469.677 2.74 467.857 3.94 467.857 10.4C467.857 16.84 469.677 18.06 471.337 18.58ZM485.837 18H473.497C473.997 14.26 475.717 12.72 480.357 10.02C481.177 9.54 482.497 8.76 482.497 6.26C482.497 5.84 482.457 3.06 479.937 3.06C477.017 3.06 476.877 5.98 476.777 8.06L473.537 7.7C473.817 5.94 474.437 1.78 480.217 1.78C481.617 1.78 485.797 2.24 485.797 6.54C485.797 10.16 483.057 10.6 480.557 12.06C477.597 13.78 477.377 15.62 477.257 16.72H485.837V18ZM500.329 10.04C500.329 15 497.749 18.3 494.169 18.3C490.429 18.3 487.989 14.82 487.989 10.14C487.989 4.82 490.729 1.78 494.149 1.78C497.909 1.78 500.329 5.32 500.329 10.04ZM497.049 10.04C497.049 4.3 496.069 3.06 494.109 3.06C492.409 3.06 491.269 4.06 491.269 10.12C491.269 16.34 492.569 17.02 494.209 17.02C495.909 17.02 497.049 16 497.049 10.04ZM507.64 18V4.6C506.94 4.92 505.72 5.14 504.34 5.18V3.88C504.96 3.76 506.68 3.44 507.66 2.08H510.74V18H507.64ZM517.171 14.62L520.211 13.9C520.411 14.9 520.811 17.08 522.851 17.08C524.991 17.08 525.951 15.14 526.111 11.08C525.311 11.88 524.411 12.76 522.331 12.76C520.231 12.76 517.051 11.46 517.051 7.64C517.051 3.54 519.831 1.78 522.751 1.78C527.451 1.78 529.251 5.32 529.251 9.58C529.251 15.78 526.011 18.3 522.431 18.3C519.871 18.3 518.431 17.24 517.171 14.62ZM525.971 9.38C525.931 6.74 525.851 3.14 522.971 3.14C520.131 3.14 520.131 6.24 520.131 7.4C520.131 9.7 520.891 11.4 522.871 11.4C523.271 11.4 524.671 11.34 525.971 9.38ZM543.163 13.84H550.103V14.96H543.163V19.8H540.423V14.96H531.503V13.84H534.043V8.06H540.423V4.4H537.023C535.443 6.64 533.663 7.9 532.543 8.64L531.463 7.84C533.923 5.94 535.363 2.62 535.563 0.779999L538.563 1.62C538.583 1.62 538.663 1.76 538.663 1.82C538.663 1.92 538.503 2.1 538.463 2.12C538.403 2.2 537.883 3.1 537.763 3.28H548.843V4.4H543.163V8.06H548.203V9.18H543.163V13.84ZM536.743 13.84H540.423V9.18H536.743V13.84ZM552.263 2.22V0.98C554.403 1.48 558.563 2.94 558.563 10.4C558.563 16.98 555.403 19.08 552.263 19.82V18.58C553.903 18.06 555.743 16.86 555.743 10.4C555.743 3.96 553.923 2.74 552.263 2.22Z" fill="#237233"/>
</svg>
