<svg width="634" height="189" viewBox="0 0 634 189" fill="none" xmlns="http://www.w3.org/2000/svg">
<path d="M49.5808 28.552V47.032H42.7768V35.944C41.8108 39.388 40.4248 42.664 38.5348 45.646L35.8888 44.848C36.4768 42.958 37.1908 40.648 37.1908 32.038L42.7768 33.214V30.358C41.3068 30.736 40.9288 30.778 37.4428 31.492L36.3508 26.032H39.4588C40.8868 23.974 41.6427 22.798 42.1468 21.958C41.2648 20.53 39.6268 18.262 36.3508 14.356L38.0728 12.298C38.8288 12.76 39.0808 12.886 40.5088 13.81C41.1388 12.046 41.7268 9.484 42.1888 6.628L48.5728 8.602C48.1528 9.358 46.4728 12.256 43.1968 15.742C44.2888 16.582 44.6248 16.834 44.9608 17.128C46.4728 14.356 47.2288 12.55 47.7328 11.248L54.7888 14.188C53.6548 15.994 49.3708 20.782 43.9948 25.864C47.0188 25.654 47.3548 25.654 49.9168 25.444C49.4128 23.512 49.2028 23.05 48.8248 22.084L50.9248 21.16C51.8488 22.126 55.5868 26.032 57.7288 29.56L52.8568 31.618C55.0828 34.642 57.2668 37.666 58.6948 40.648L52.1428 43.966C51.8068 39.01 51.3448 36.07 50.1688 32.374L51.2188 31.87C51.0508 30.694 50.9668 30.106 50.5468 28.258C50.3368 28.3 49.7068 28.51 49.5808 28.552ZM62.3068 14.65H76.0408C76.0408 30.862 75.2008 39.304 74.5708 41.656C73.6468 45.142 71.1268 46.654 67.3468 46.654H59.0308L58.1908 43.21C59.6188 43.462 61.0888 43.798 64.0288 43.798C65.5828 43.798 66.6748 43.588 67.2628 40.606C68.0188 36.826 68.3968 24.394 68.3968 17.632H60.0388C57.4768 20.572 55.5868 22.126 54.4528 23.092L51.9748 21.412C55.4188 17.128 56.6368 9.946 57.1828 6.754L65.6668 8.434C65.5828 8.602 65.5408 8.812 65.4148 9.064C64.7008 10.744 63.6928 12.592 62.3068 14.65ZM67.4308 32.5L59.7448 37.75C59.1987 33.172 58.2748 28.972 55.9228 24.1L58.4428 22.378C61.4248 24.814 66.2968 30.526 67.4308 32.5ZM108.045 43H79.0648C79.2748 40.564 79.5268 38.128 81.3328 35.356C83.6848 31.786 85.9528 30.61 91.9588 27.502C97.1248 24.856 99.6868 23.512 99.6868 18.682C99.6868 14.272 97.9648 11.836 93.6808 11.836C87.7168 11.836 87.5068 17.296 87.3388 22.294L79.2328 21.496C79.7788 17.422 80.9968 8.602 94.7308 8.602C102.921 8.602 107.961 12.424 107.961 18.892C107.961 25.024 104.265 26.746 95.6548 30.736C89.1448 33.76 88.5567 35.776 88.3888 39.85H108.045V43ZM126.264 7.09H134.076V14.146C134.076 34.516 144.744 41.446 150.834 44.638L149.112 47.368C140.376 43.882 135.714 40.522 130.254 33.34C127.398 37.624 123.408 42.79 111.648 47.242L109.8 44.806C124.878 36.532 126.264 23.974 126.264 15.49V7.09ZM163.242 43.504L155.934 44.386C155.514 40.816 155.178 37.33 155.178 29.266C155.178 16.96 155.976 12.214 156.396 9.358L163.704 10.282C163.242 12.424 162.36 16.666 162.36 28.804C162.36 36.952 162.822 40.564 163.242 43.504ZM189.198 35.776V42.328C185.712 42.664 181.974 42.874 178.446 42.874C169.164 42.874 165.468 41.824 165.468 36.952C165.468 36.196 165.468 33.256 168.366 29.938L171.138 31.366C170.508 32.332 169.794 33.424 169.794 34.936C169.794 36.658 170.802 37.414 174.792 37.414C180.924 37.414 185.754 36.574 189.198 35.776ZM166.896 17.086L166.434 13.39C171.81 12.298 177.606 11.752 183.108 11.752C184.662 11.752 185.46 11.794 186.93 12.004V18.598C183.696 17.422 179.916 16.624 174.12 16.624C170.214 16.624 168.03 16.918 166.896 17.086ZM204.505 43V15.574C202.909 16.372 200.179 16.834 196.777 16.918V13.6C198.793 13.264 202.363 12.592 204.631 9.274H212.527V43H204.505ZM240.574 7.09H248.386V14.146C248.386 34.516 259.054 41.446 265.144 44.638L263.422 47.368C254.686 43.882 250.024 40.522 244.564 33.34C241.708 37.624 237.718 42.79 225.958 47.242L224.11 44.806C239.188 36.532 240.574 23.974 240.574 15.49V7.09ZM305.38 24.394L298.408 29.35C297.862 24.982 296.392 19.186 293.494 14.65L296.77 12.214C299.542 15.112 302.986 19.69 305.38 24.394ZM304.582 13.348L301.684 15.658C300.466 13.726 298.702 11.668 297.316 10.324L299.374 8.686C301.264 10.03 302.986 11.584 304.582 13.348ZM267.832 23.806L266.992 20.026C270.1 19.018 272.2 18.472 275.224 17.926C276.106 15.406 277.576 11.122 278.752 8.056L285.472 10.24C284.926 11.626 284.506 12.886 283.12 17.044C284.17 16.96 285.43 16.96 286.144 16.96C292.318 16.96 294.628 19.648 294.628 26.662C294.628 31.114 293.998 37.078 292.318 40.69C291.772 41.908 289.924 45.478 285.892 45.478C282.952 45.478 279.508 43.63 277.576 42.58L278.752 38.884C280.558 40.312 282.07 41.152 282.826 41.152C283.75 41.152 284.212 40.312 284.59 39.598C285.682 37.54 287.404 32.92 287.404 25.066C287.404 20.908 286.816 19.9 284.128 19.9C283.666 19.9 282.868 19.942 282.154 20.026C279.928 26.872 277.576 34.18 274.132 45.604L266.782 42.958C269.092 35.818 271.528 28.72 273.964 21.622C272.452 22.042 270.268 22.672 267.832 23.806ZM308.152 10.324L305.338 12.634C304.246 11.08 302.818 9.484 301.222 8.224L303.406 6.46C304.96 7.468 306.766 8.896 308.152 10.324ZM323.566 18.01L332.092 20.236C332.05 20.908 326.884 31.324 320.164 40.774C328.69 40.354 329.614 40.312 338.098 39.598C336.544 36.196 334.906 32.878 332.47 28.93L334.99 27.376C339.946 32.374 343.264 36.532 343.978 37.414C346.666 40.816 347.548 42.37 348.136 43.378L341.122 47.62C340.744 46.234 340.366 45.1 339.274 42.37C329.824 44.176 325.834 44.932 312.562 46.654C311.974 46.738 311.302 46.822 310.84 46.864L308.866 41.152C311.722 41.068 312.856 41.068 315.04 40.984C317.434 35.86 321.466 25.864 323.566 18.01ZM315.754 7.3L324.364 9.484C324.28 10.24 320.416 21.622 310.252 29.518L307.942 27.544C309.748 25.486 313.864 20.614 315.754 7.3ZM326.254 8.014H341.5C341.458 11.164 341.668 19.9 348.85 27.292L346.96 29.392C336.67 21.79 334.486 15.868 333.268 10.996H326.254V8.014ZM359.434 15.07V7.006H367.12V15.07H374.134V7.006H381.82V15.07H389.212V18.052H381.82V28.51H390.598V31.45H379.678C381.232 37.708 386.44 41.908 390.64 44.764L388.708 46.906C378.67 43.756 373.798 37.708 371.992 35.524L378.964 31.45H361.87L368.842 35.482C368.674 35.734 368.254 36.28 368.17 36.364C365.566 39.724 360.526 44.008 352.336 46.99L350.068 44.848C356.956 40.564 360.232 34.81 361.366 31.45H350.74V28.51H359.434V18.052H352.168V15.07H359.434ZM374.134 28.51V18.052H367.12V28.51H374.134ZM414.328 44.344L413.32 41.026C416.596 40.144 423.904 38.128 423.904 26.116C423.904 16.918 418.528 14.944 416.386 14.146C415.966 18.976 415.168 27.67 412.984 34.054C410.842 40.354 407.776 42.622 403.702 42.622C397.15 42.622 393.664 36.28 393.664 29.434C393.664 19.774 400.216 10.198 413.698 10.198C421.636 10.198 431.758 13.81 431.758 26.662C431.758 41.068 419.242 43.42 414.328 44.344ZM408.826 14.146C407.062 14.818 405.256 15.532 403.24 18.388C400.636 22.126 399.88 26.998 399.88 31.366C399.88 32.668 399.88 38.632 402.652 38.632C405.004 38.632 407.86 29.014 408.826 14.146ZM466.684 45.058H444.214V47.074H436.822V8.434H474.16V47.074H466.684V45.058ZM444.214 26.62V38.044C446.44 36.7 449.422 34.852 452.446 31.744C449.086 29.35 446.566 27.712 444.214 26.62ZM444.214 25.99L445.516 24.016C446.44 24.268 446.524 24.31 446.734 24.352C446.272 21.706 445.264 18.724 444.214 16.246V25.99ZM466.684 33.718V21.412C465.13 24.982 463.156 27.796 460.93 30.358C463.534 31.744 465.088 32.626 466.684 33.718ZM466.684 35.944L462.904 40.774C462.022 39.808 460.006 37.624 456.31 34.684C452.32 37.876 447.658 39.766 445.684 40.564L444.214 38.842V42.076H466.684V35.944ZM460.594 13.894L466.684 16.54V11.416H444.214V15.154L446.314 13.894C448.12 15.28 449.632 16.666 452.152 19.564C451.564 16.246 451.354 15.28 450.766 13.348L453.16 12.382C455.428 14.566 457.444 17.002 459.292 19.564C460.006 17.128 460.174 16.162 460.594 13.894ZM452.53 21.958L447.574 24.646C448.33 24.898 452.278 26.242 455.596 27.796C456.1 26.998 457.234 25.234 458.62 21.664L452.782 24.016C452.74 23.302 452.656 22.798 452.53 21.958ZM514.312 14.02H517.336V17.002H514.312V21.244H501.292V22.42H514.312V25.402H501.292V26.704H517.336V29.686H477.52V26.704H493.522V25.402H480.586V22.42H493.522V21.244H480.586V18.262H493.522V17.002H477.52V14.02H493.522V12.844H480.586V9.862H493.522V7.048H501.292V9.862H514.312V14.02ZM501.292 14.02H506.542V12.844H501.292V14.02ZM506.542 17.002H501.292V18.262H506.542V17.002ZM505.87 45.058H488.944V46.99H481.258V30.904H513.598V46.99H505.87V45.058ZM488.944 42.076H505.87V39.346H488.944V42.076ZM488.944 36.364H505.87V33.886H488.944V36.364ZM550.852 45.184H545.812V47.116H538.588V20.11H536.992V16.918L535.606 18.766C535.018 18.346 534.136 17.674 532.288 15.616V19.018H536.194V33.55H528.046V39.598C528.55 39.514 528.802 39.43 530.65 39.094C530.02 36.28 529.852 35.902 529.6 35.188L532.288 33.634C534.178 35.902 536.866 40.144 538.336 43.252L531.742 47.116C531.658 45.772 531.616 44.68 531.196 41.992C530.02 42.496 520.864 46.36 520.276 46.528L518.68 41.194C519.436 41.068 519.772 41.026 520.906 40.858V20.488C520.318 20.866 520.108 21.034 519.688 21.328L518.554 18.262C521.368 15.364 523.594 11.584 524.686 7.468H533.254C533.968 10.87 536.362 14.314 536.992 15.07V11.668H544.006V7.132H551.692V11.668H558.958V20.11H556.48V29.392H545.812V32.374H558.118V47.116H550.852V45.184ZM528.046 21.958V24.73H529.432V21.958H528.046ZM522.796 19.018H525.61V16.456C525.274 16.792 524.098 17.884 522.796 19.018ZM529.432 30.61V27.712H528.046V30.61H529.432ZM544.09 14.65V18.01H551.944V14.65H544.09ZM549.046 26.41V20.992H545.812V26.41H549.046ZM545.812 42.202H550.852V35.356H545.812V42.202ZM526.87 15.154H531.91C530.188 13.18 529.852 12.592 529.39 11.92C528.886 12.718 528.466 13.348 526.87 15.154ZM588.236 38.884H581.306V32.29C578.954 33.508 577.358 35.524 577.358 38.128C577.358 41.11 579.5 42.496 585.506 42.496C588.95 42.496 592.268 42.244 595.754 41.572V45.562C593.696 45.73 591.26 45.856 589.202 45.856H582.44C573.158 45.856 570.428 43.546 570.428 39.556C570.428 34.096 576.434 30.862 581.054 28.426C580.76 26.998 580.214 24.436 577.526 24.436C575.132 24.436 573.956 26.326 573.368 27.376C572.78 28.426 570.428 33.004 568.916 36.784L562.364 34.39C563.456 31.87 564.632 29.266 570.47 17.548C567.194 17.716 566.186 17.758 563.414 17.758L563.498 14.482C566.69 14.482 570.806 14.272 572.108 14.23C574.334 9.82 574.628 9.232 575.216 7.3L583.574 9.148C582.314 11.248 582.188 11.458 580.886 13.726C587.396 13.264 588.74 13.138 591.722 12.676L591.68 16.12C588.32 16.498 581.936 16.918 578.912 17.086C577.862 18.85 577.442 19.606 576.308 21.664C577.988 20.824 579.458 20.824 579.92 20.824C583.448 20.824 585.884 22.336 587.144 25.654C589.034 24.856 590.42 24.31 594.998 22.672L596.258 27.544C592.016 28.384 589.958 28.972 587.984 29.56C588.068 30.652 588.236 32.08 588.236 34.978V38.884ZM50.9382 79.898V87.08H61.1022V90.062H50.9382V98.042H66.0582V101.024H28.3422V98.042H43.0842V90.062H33.0882V87.08H43.0842V79.898H32.4582V77.672C30.3582 78.596 29.1822 79.016 28.0482 79.436L26.4522 76.874C31.7022 74.27 37.6242 69.65 40.7322 62.342H53.6682C55.6002 67.592 61.0182 73.136 67.7802 76.874L66.1422 79.268C65.2182 78.974 64.0422 78.638 61.9422 77.798V79.898H50.9382ZM34.0542 76.958H59.9262C51.7362 73.136 48.4602 68.978 47.1162 67.256C43.8822 70.91 40.0602 74.018 34.0542 76.958ZM99.567 95.354L94.107 102.074C88.647 95.942 77.391 87.374 74.787 85.61C72.225 83.888 70.923 82.964 70.923 81.83C70.923 78.554 85.623 65.996 91.125 61.964L97.173 67.592C91.503 70.868 86.043 74.48 81.003 78.68C79.533 79.898 78.903 80.528 78.903 81.116C78.903 81.62 79.911 82.208 80.205 82.376C86.967 86.198 93.519 90.482 99.567 95.354ZM123.174 89.474L121.032 91.868C120.066 91.028 118.638 89.684 116.706 87.248V102.032H109.398V89.684C107.046 92.75 104.82 94.598 103.896 95.354L102.09 93.002C106.206 88.046 108.558 82.544 109.314 77.336H102.93V74.354H109.398V69.23C106.5 69.482 105.198 69.482 103.812 69.524L102.51 66.71C106.29 66.332 112.548 65.324 119.016 62.216L121.998 67.172C121.326 67.382 117.378 68.18 116.706 68.306V74.354H122.544V77.336H116.79C118.092 82.04 120.654 86.912 123.174 89.474ZM123.636 64.484H131.07V94.01H123.636V64.484ZM133.128 62.048H140.772V96.992C140.772 101.822 137.622 101.822 134.766 101.822H126.828L125.946 98.294C127.584 98.63 129.264 98.84 130.944 98.84C133.128 98.84 133.128 97.622 133.128 96.656V62.048ZM168.786 87.752V100.52H161.142V87.752H154.254C153.582 91.994 152.238 96.068 146.442 102.074L144.174 99.848C146.316 95.858 147.198 92.288 147.198 82.754V63.434H182.982V95.564C182.982 100.856 181.008 101.57 176.892 101.57H170.382L169.626 98.336C171.726 98.672 173.112 98.672 173.238 98.672C174.036 98.672 175.338 98.672 175.338 96.362V87.752H168.786ZM168.786 77.168V84.77H175.338V77.168H168.786ZM161.142 84.77V77.168H154.8V81.536C154.8 82.586 154.758 83.72 154.632 84.77H161.142ZM168.786 66.416V74.228H175.338V66.416H168.786ZM161.142 74.228V66.416H154.8V74.228H161.142ZM216.173 83.09L218.903 84.056C216.341 92.54 212.393 100.52 200.633 100.52C193.199 100.52 189.083 97.118 189.041 88.97C189.041 86.03 189.125 83.762 189.755 63.434L197.735 64.064C196.937 76.286 196.685 86.282 196.685 87.164C196.685 89.306 196.769 94.556 203.741 94.556C210.629 94.556 213.905 89.348 216.173 83.09ZM253.025 95.522L252.185 99.302C246.557 99.134 230.975 98.588 230.975 85.022C230.975 75.488 238.493 71.414 241.979 69.482C234.503 69.692 224.339 70.784 222.911 70.952L222.617 67.34C233.369 66.5 248.069 65.912 257.771 65.828V69.104C256.175 69.062 255.587 69.062 254.999 69.062C251.135 69.062 249.455 69.524 248.615 69.776C243.659 71.288 239.081 76.034 239.081 84.14C239.081 94.052 246.431 95.606 250.715 95.606C251.471 95.606 252.353 95.564 253.025 95.522ZM277.405 89.684L279.463 92.456C277.111 95.816 274.885 98.294 271.399 98.294C263.293 98.294 263.293 86.366 263.293 83.594C263.293 78.974 263.629 72.926 265.183 65.744L273.751 67.34C272.953 69.86 270.937 76.16 270.937 84.098C270.937 87.038 271.189 92.414 273.793 92.414C275.557 92.414 276.859 90.524 277.405 89.684ZM297.943 90.944L289.753 93.254C290.005 81.242 288.997 75.404 285.973 69.818L289.123 68.096C295.717 75.194 297.397 83.426 297.943 90.944ZM324.077 76.58L331.259 77.042C331.175 82.796 331.301 87.626 331.385 90.314C334.241 91.196 336.425 92.12 339.827 93.842L335.501 99.008C334.073 97.412 333.149 96.698 331.595 95.522C331.385 97.034 330.923 100.688 322.061 100.688C320.927 100.688 312.905 100.646 312.905 94.934C312.905 91.238 316.853 88.676 321.977 88.676C322.943 88.676 323.741 88.76 324.455 88.802C324.329 86.786 324.077 82.124 324.077 76.58ZM324.665 92.288C324.035 92.162 323.279 91.994 322.691 91.994C320.969 91.994 318.911 92.456 318.911 94.598C318.911 96.572 320.297 97.202 321.851 97.202C323.573 97.202 324.875 96.278 324.875 95.144C324.875 94.724 324.707 92.75 324.665 92.288ZM340.289 72.59L337.013 77.882C335.081 76.412 331.385 73.64 325.211 71.288L327.143 68.6C331.511 69.608 336.131 71.036 340.289 72.59ZM304.169 74.438V70.826C305.261 70.91 307.151 70.994 310.133 70.994C311.225 68.054 311.897 66.29 313.115 63.266L319.961 64.568C318.995 66.71 318.533 67.676 317.357 70.574C320.969 70.196 322.187 69.986 323.153 69.818L323.279 73.388C320.675 73.682 319.373 73.808 315.971 74.018C313.703 80.108 311.183 87.122 309.671 94.598L302.573 92.666C304.421 86.912 306.353 81.452 308.873 74.354C306.437 74.438 305.933 74.438 304.169 74.438ZM359.067 89.684L361.125 92.456C358.773 95.816 356.547 98.294 353.061 98.294C344.955 98.294 344.955 86.366 344.955 83.594C344.955 78.974 345.291 72.926 346.845 65.744L355.413 67.34C354.615 69.86 352.599 76.16 352.599 84.098C352.599 87.038 352.851 92.414 355.455 92.414C357.219 92.414 358.521 90.524 359.067 89.684ZM379.605 90.944L371.415 93.254C371.667 81.242 370.659 75.404 367.635 69.818L370.785 68.096C377.379 75.194 379.059 83.426 379.605 90.944ZM394.616 72.968V62.972L402.68 63.56C402.134 66.626 401.798 70.028 401.798 73.136C401.798 75.488 401.924 76.538 402.134 77.756C406.922 76.328 408.77 75.782 415.196 74.018L416.288 79.184C412.634 79.562 405.116 80.276 399.236 82.586C397.598 83.216 393.44 84.854 393.44 90.272C393.44 94.976 397.136 96.53 404.192 96.53C410.072 96.53 413.474 95.606 415.742 95.018V99.848C411.374 100.352 405.872 100.352 403.562 100.352C396.506 100.352 385.376 100.142 385.376 90.944C385.376 84.602 390.794 82.208 395.54 80.108C395.12 78.68 394.616 76.958 394.616 72.968ZM436.053 89.684L438.111 92.456C435.759 95.816 433.533 98.294 430.047 98.294C421.941 98.294 421.941 86.366 421.941 83.594C421.941 78.974 422.277 72.926 423.831 65.744L432.399 67.34C431.601 69.86 429.585 76.16 429.585 84.098C429.585 87.038 429.837 92.414 432.441 92.414C434.205 92.414 435.507 90.524 436.053 89.684ZM456.591 90.944L448.401 93.254C448.653 81.242 447.645 75.404 444.621 69.818L447.771 68.096C454.365 75.194 456.045 83.426 456.591 90.944ZM488.589 64.652L485.271 71.204C478.089 66.332 469.983 65.786 466.959 65.576L468.429 62.384C479.181 62.132 485.439 63.812 488.589 64.652ZM469.899 101.822L468.177 98.84C472.671 98.084 484.053 96.194 484.053 82.796C484.053 79.436 483.255 76.118 478.803 76.118C473.931 76.118 468.051 79.73 464.019 82.334L461.289 77.504C465.783 75.572 473.763 72.212 480.693 72.212C487.371 72.212 492.117 76.496 492.117 83.426C492.117 88.382 489.765 92.33 487.077 94.766C481.239 100.058 473.679 101.234 469.899 101.822ZM533.058 86.114H536.082V89.096H533.058V96.068H525.708V94.388H519.702V96.404C519.702 100.394 518.4 101.696 514.662 101.696H505.968L504.96 98.378C507.9 98.798 509.454 98.798 510 98.798C512.058 98.798 512.058 97.79 512.058 96.068V94.388H498.66V91.406H512.058V89.096H496.098V86.114H512.058V83.804H498.66V80.864H512.058V78.974H500.004V69.776H512.058V67.802H497.022V64.862H512.058V62.174H519.702V64.862H535.2V67.802H519.702V69.776H532.176V78.974H519.702V80.864H533.058V86.114ZM519.702 91.406H525.708V89.096H519.702V91.406ZM519.702 86.114H525.708V83.804H519.702V86.114ZM524.658 72.758H519.702V75.992H524.658V72.758ZM507.354 75.992H512.058V72.758H507.354V75.992ZM572.076 74.228V76.538H561.912V77.462C561.912 79.016 561.912 79.226 561.87 79.814H573.63V82.754H561.576C561.366 84.224 561.114 85.232 560.904 86.03H577.914V89.012H564.768C566.532 92.456 569.556 96.782 578.46 99.68L576.738 102.326C569.094 100.688 562.332 97.622 558.006 92.036C553.218 98.84 546.162 100.688 539.652 102.368L537.72 99.806C543.306 98.084 549.228 94.934 552 89.012H538.182V86.03H553.05C553.344 84.98 553.512 84.14 553.722 82.754H542.256V79.814H554.058C554.142 78.302 554.142 77.672 554.142 76.538H543.894V74.228H539.232V66.038H554.142V62.048H562.038V66.038H576.99V74.228H572.076ZM561.912 73.598H569.262V69.02H546.918V73.598H554.142V69.86H561.912V73.598ZM588.75 100.94C584.928 100.94 581.904 97.748 581.904 93.968C581.904 90.188 584.928 86.996 588.75 86.996C592.572 86.996 595.596 90.188 595.596 93.968C595.596 97.748 592.614 100.94 588.75 100.94ZM588.75 98.252C591.102 98.252 592.95 96.32 592.95 93.968C592.95 91.616 591.06 89.684 588.75 89.684C586.44 89.684 584.55 91.616 584.55 93.968C584.55 96.362 586.44 98.252 588.75 98.252Z" fill="#237233"/>
<path d="M15.113 142.13L13.703 143.66C12.413 142.61 11.753 141.89 10.733 140.72V151.91H5.60305V142.52C4.40305 144.32 2.81305 145.85 2.06305 146.54L0.803047 144.74C4.16305 139.43 5.15305 134.36 5.51305 132.26H1.43305V130.13H5.60305V123.32H10.733V130.13H14.753V132.26H10.793C11.213 134.87 12.563 138.59 15.113 142.13ZM15.623 123.32H21.023V148.52C21.023 149.45 21.353 149.54 22.223 149.54H23.003C23.723 149.54 24.083 148.97 24.233 148.46C24.503 147.56 24.743 146.27 24.923 143C25.613 143.33 27.173 144.05 30.323 144.74C29.393 150.53 28.673 151.64 25.853 151.64H19.313C15.743 151.64 15.623 149.9 15.623 147.5V123.32ZM42.233 139.79H44.093C43.763 137.81 43.433 136.52 42.833 134.84L44.573 133.91C46.193 134.9 47.423 135.83 48.323 136.67V133.82H43.313V124.04H58.493V133.82H56.243L60.233 135.47C60.143 135.59 59.783 135.92 59.753 135.95C57.563 138.08 57.323 138.32 55.703 139.55L53.423 138.59C53.993 136.91 54.203 135.32 54.383 133.82H53.393V139.79H59.843V141.92H55.583V149.21C55.583 149.51 55.763 149.6 55.883 149.6C56.333 149.6 56.333 149.51 56.333 148.76V145.82C57.893 146.6 59.063 146.84 60.023 146.99C59.693 150.8 58.883 151.7 56.873 151.7H52.703C51.083 151.7 50.453 150.92 50.453 149.21V141.92H49.763C49.613 145.19 49.193 149.9 41.753 152L40.463 150.35C43.973 148.43 44.303 146.27 44.303 141.92H42.233V142.52C42.233 144.44 42.233 145.49 39.923 145.49H39.113L38.723 144.14V151.91H34.883V130.25H34.133V145.82H31.373V128.12H34.403V123.35H39.593V128.12H42.233V139.79ZM48.323 127.88H53.393V126.17H48.323V127.88ZM53.393 129.98H48.323V131.69H53.393V129.98ZM44.813 139.79H48.323V137.9L44.813 139.79ZM39.593 130.25H38.723V143.42C39.173 143.45 39.383 143.39 39.473 143.24C39.593 143.06 39.593 142.79 39.593 142.43V130.25ZM76.823 149.96L76.103 147.59C78.443 146.96 83.663 145.52 83.663 136.94C83.663 130.37 79.823 128.96 78.293 128.39C77.993 131.84 77.423 138.05 75.863 142.61C74.333 147.11 72.143 148.73 69.233 148.73C64.553 148.73 62.063 144.2 62.063 139.31C62.063 132.41 66.743 125.57 76.373 125.57C82.043 125.57 89.273 128.15 89.273 137.33C89.273 147.62 80.333 149.3 76.823 149.96ZM72.893 128.39C71.633 128.87 70.343 129.38 68.903 131.42C67.043 134.09 66.503 137.57 66.503 140.69C66.503 141.62 66.503 145.88 68.483 145.88C70.163 145.88 72.203 139.01 72.893 128.39ZM112.953 126.08L111.963 131.24C108.693 129.86 102.903 128.39 95.4031 128.18V125.87C100.203 125.24 102.993 125.24 103.683 125.24C106.803 125.24 109.893 125.51 112.953 126.08ZM96.0631 138.56L98.1031 139.7C97.2631 140.72 96.3931 142.04 96.3931 143.39C96.3931 145.79 99.3031 145.79 102.453 145.79C104.763 145.79 108.753 145.7 114.633 144.14V149.24C110.223 149.87 106.293 149.9 104.883 149.9C101.853 149.9 92.8231 149.9 92.8231 144.62C92.8231 141.5 95.0431 139.49 96.0631 138.56ZM142.057 129.35L139.597 130.58C138.847 127.91 137.947 126.74 137.467 126.11L139.237 125.36C140.347 126.62 141.277 128.06 142.057 129.35ZM145.117 127.88L142.687 129.11C142.207 127.88 141.517 126.41 140.587 125.24L142.297 124.43C143.767 125.87 144.457 126.86 145.117 127.88ZM124.987 131.21V124.1L130.717 124.52C130.357 126.68 130.117 129.14 130.117 131.33C130.117 133.04 130.207 133.76 130.357 134.63C133.777 133.61 135.097 133.25 139.687 131.96L140.467 135.68C137.887 135.92 132.487 136.43 128.287 138.08C127.117 138.53 124.117 139.7 124.117 143.57C124.117 146.93 126.787 148.04 131.797 148.04C135.997 148.04 138.457 147.41 140.077 146.96V150.41C136.957 150.77 133.027 150.77 131.377 150.77C126.337 150.77 118.387 150.62 118.387 144.05C118.387 139.52 122.257 137.81 125.647 136.31C125.347 135.32 124.987 134.06 124.987 131.21ZM163.283 136.97V139.34C161.243 139.49 157.883 139.64 155.753 139.73C155.603 141.2 155.453 142.91 155.453 144.17C155.453 146.96 156.383 148.61 160.883 148.61C163.643 148.61 166.583 147.62 166.583 143.57C166.583 141.29 165.953 139.49 165.533 138.29L167.543 137.42C169.463 140.15 170.543 142.58 170.543 144.59C170.543 146.03 170.033 148.13 167.813 149.57C165.893 150.8 161.273 151.07 159.803 151.07C159.083 151.07 154.103 151.07 151.613 148.73C150.173 147.41 150.053 145.16 150.053 144.08C150.053 142.91 150.203 141.02 150.323 139.94C148.823 140 146.603 140.06 145.883 140.06V137.66C147.683 137.66 148.013 137.66 150.563 137.6C150.563 137.36 151.013 133.25 151.073 132.56C148.553 132.65 147.113 132.65 146.543 132.65V130.34C147.683 130.34 150.023 130.28 151.343 130.25C151.733 126.71 151.823 125.63 151.913 124.19L157.793 124.76C157.553 126.2 157.373 127.22 156.953 130.04C160.043 129.92 161.783 129.83 164.123 129.65V132.02C163.163 132.08 161.963 132.2 156.623 132.38C156.383 134.15 156.323 134.6 155.993 137.39C158.363 137.27 160.643 137.18 163.283 136.97ZM199.044 146.06V150.53C196.644 150.68 191.694 150.71 191.334 150.71C188.844 150.71 183.684 150.68 183.684 146.39C183.684 144.56 184.494 143 185.484 141.68L187.614 142.58C187.074 143.3 186.654 144.26 186.654 145.16C186.654 146.93 188.244 146.93 190.554 146.93C193.734 146.93 197.034 146.6 199.044 146.06ZM199.674 133.55L198.954 138.14C195.744 136.79 192.324 135.68 187.854 135.53L187.974 132.98C189.294 132.95 191.124 132.95 191.334 132.95C193.404 132.95 196.614 133.01 199.674 133.55ZM190.044 128.99V131.33C189.144 131.42 188.184 131.51 184.704 131.69C181.824 140.78 180.174 146.63 179.154 150.53L173.784 149.15C175.434 143.69 177.264 137.66 179.034 131.93C175.704 132.05 174.894 132.05 173.874 132.05V129.65C175.644 129.65 176.754 129.65 179.784 129.56C180.594 126.92 180.684 126.62 181.494 124.1L186.924 125.12C186.474 126.29 185.964 127.79 185.454 129.29C187.914 129.17 188.304 129.14 190.044 128.99ZM202.466 131.75V129.41C204.656 129.38 205.046 129.38 208.196 129.32C208.676 127.82 209.336 125.69 209.666 124.04L215.096 125.09C214.826 125.96 214.616 126.62 213.746 129.14C220.856 128.84 221.966 128.72 223.796 128.51L223.736 130.88C219.896 131.21 215.246 131.39 212.966 131.48C212.576 132.56 211.616 135.29 210.716 137.57C211.616 137.09 213.806 135.92 217.256 135.92C221.816 135.92 225.986 138.11 225.986 142.97C225.986 145.91 224.426 147.8 222.656 148.97C219.746 150.86 214.586 150.8 208.826 150.74L208.196 148.19C209.216 148.28 210.116 148.37 211.946 148.37C213.416 148.37 220.346 148.34 220.346 143.27C220.346 139.97 217.766 138.77 215.186 138.77C210.686 138.77 208.706 142.43 208.076 143.63L203.606 141.83C204.356 140.18 205.316 137.9 207.446 131.66C204.056 131.75 203.396 131.75 202.466 131.75ZM236.323 149.36L231.103 149.99C230.803 147.44 230.563 144.95 230.563 139.19C230.563 130.4 231.133 127.01 231.433 124.97L236.653 125.63C236.323 127.16 235.693 130.19 235.693 138.86C235.693 144.68 236.023 147.26 236.323 149.36ZM254.863 143.84V148.52C252.373 148.76 249.703 148.91 247.183 148.91C240.553 148.91 237.913 148.16 237.913 144.68C237.913 144.14 237.913 142.04 239.983 139.67L241.963 140.69C241.513 141.38 241.003 142.16 241.003 143.24C241.003 144.47 241.723 145.01 244.573 145.01C248.953 145.01 252.403 144.41 254.863 143.84ZM238.933 130.49L238.603 127.85C242.443 127.07 246.583 126.68 250.513 126.68C251.623 126.68 252.193 126.71 253.243 126.86V131.57C250.933 130.73 248.233 130.16 244.093 130.16C241.303 130.16 239.743 130.37 238.933 130.49ZM275.667 127.16H284.307V147.05H267.747V127.16H271.767C271.827 126.98 272.307 124.43 272.397 123.41L278.367 124.28C277.887 124.82 276.387 126.41 275.667 127.16ZM273.147 135.92H278.877V129.29H273.147V135.92ZM278.877 138.05H273.147V144.92H278.877V138.05ZM266.847 130.7L261.837 134.15C260.877 131.06 258.447 126.2 257.517 124.79L259.227 123.5C261.867 125.57 265.437 128.81 266.847 130.7ZM257.427 136.22H265.587V144.59C265.587 146.54 265.617 147.29 266.577 148.22C267.267 148.88 268.407 149.09 270.717 149.09H278.937C281.367 149.09 283.827 149 286.257 148.76L285.597 151.22H269.307C265.977 151.22 264.357 151.19 262.407 149.24C261.927 149.63 259.317 151.58 258.327 152.15L257.157 147.62C257.757 147.53 259.347 147.17 260.307 146.78V138.35H257.427V136.22ZM292.778 127.64L292.688 124.97C296.438 124.97 302.828 124.85 308.288 124.52L309.698 126.74C307.418 128.6 303.668 131.81 301.208 134.09C302.288 133.73 303.638 133.61 304.808 133.61C310.208 133.61 313.598 136.85 313.598 141.53C313.598 148.31 307.688 150.83 301.628 150.83C296.708 150.83 294.038 148.67 294.038 146.06C294.038 143.96 295.478 141.68 299.768 141.68C301.028 141.68 302.438 141.98 303.488 142.61C305.438 143.75 305.888 145.16 306.278 146.93C307.028 146.09 308.168 144.86 308.168 142.01C308.168 139.25 306.788 136.04 302.618 136.04C299.078 136.04 297.038 138.08 291.968 144.02L288.008 140.51C293.108 135.26 298.808 129.77 301.628 127.1C298.748 127.37 295.238 127.58 292.778 127.64ZM302.558 148.79C302.468 147.11 302.288 144.05 299.918 144.05C298.448 144.05 298.028 145.28 298.028 146.18C298.028 147.71 299.528 148.91 301.238 148.91C301.328 148.91 301.898 148.91 302.558 148.79ZM319.784 124.04H331.304V126.2H324.914V151.76H319.784V124.04ZM361.964 146.72L360.494 148.31C359.474 147.68 357.644 146.57 355.274 144.32V145.52H349.964V151.85H344.384V145.52H339.194V144.44C337.034 146.45 335.054 147.68 333.974 148.37L332.474 146.69C336.824 142.64 340.154 135.92 341.054 130.94H333.014V128.81H344.384V123.35H349.964V128.81H361.574V130.94H353.354C354.254 135.83 357.944 143.03 361.964 146.72ZM349.964 143.42H354.374C353.354 142.37 351.554 140.3 349.964 137.57V143.42ZM344.384 143.42V137.57C343.964 138.35 342.554 141.05 340.244 143.42H344.384ZM371.034 131.12V123.98L376.794 124.4C376.404 126.59 376.164 129.02 376.164 131.24C376.164 132.92 376.254 133.67 376.404 134.54C379.824 133.52 381.144 133.13 385.734 131.87L386.514 135.56C383.904 135.83 378.534 136.34 374.334 137.99C373.164 138.44 370.194 139.61 370.194 143.48C370.194 146.84 372.834 147.95 377.874 147.95C382.074 147.95 384.504 147.29 386.124 146.87V150.32C383.004 150.68 379.074 150.68 377.424 150.68C372.384 150.68 364.434 150.53 364.434 143.96C364.434 139.43 368.304 137.72 371.694 136.22C371.394 135.2 371.034 133.97 371.034 131.12ZM400.607 134.6V123.32H406.097V134.6H410.507V125.69H416.087V136.73H406.097V148.28H411.317V138.68H416.807V151.88H411.317V150.38H395.387V151.88H389.807V138.68H395.387V148.28H400.607V136.73H390.617V125.69H396.227V134.6H400.607ZM441.407 133.16V134.6H425.447V133.13C424.547 133.64 422.777 134.54 420.077 135.41L418.757 133.58C425.297 130.01 427.817 125.72 428.957 123.62H437.807C440.537 128.45 443.237 130.88 448.097 133.76L446.627 135.44C445.457 135.02 443.717 134.36 441.407 133.16ZM426.647 132.47H440.147C435.767 129.92 434.177 128.12 433.367 127.16C431.147 129.86 427.547 131.96 426.647 132.47ZM435.647 142.19L437.477 141.02C440.597 143.03 444.257 146.39 446.537 149.12L440.417 152.06C439.847 150.5 439.727 150.23 439.217 148.91C436.187 149.51 431.627 150.44 423.287 151.73C422.897 151.79 422.417 151.88 422.117 151.94L420.857 147.68C422.087 147.68 423.317 147.68 424.547 147.65C426.347 142.34 426.377 142.28 426.887 140.15H419.807V138.05H447.167V140.15H433.457C432.257 142.31 429.827 145.88 428.627 147.47C433.067 147.26 433.577 147.26 438.347 146.96C437.597 145.4 436.667 143.78 435.647 142.19ZM463.907 149.81L463.547 147.26C464.267 147.44 464.987 147.47 465.407 147.47C467.987 147.47 470.837 146.54 470.837 140.06C470.837 139.19 470.747 133.04 466.517 133.04C464.057 133.04 462.077 134.93 461.387 135.59C461.267 137.69 461.507 147.74 461.567 150.83H456.047V141.68C454.937 143.12 454.187 144.17 453.017 145.85L449.897 142.37C452.357 139.94 453.557 138.83 456.047 136.61V132.68C455.117 132.71 453.107 132.77 451.127 133.16V130.31C451.967 130.31 453.947 130.31 456.047 130.19V124.25L461.567 124.58C461.567 125.72 461.477 131.21 461.447 132.44C463.547 131.12 465.737 129.89 468.347 129.89C472.547 129.89 476.627 132.98 476.627 139.76C476.627 146.09 473.117 149.87 465.917 149.87C465.647 149.87 464.567 149.87 463.907 149.81ZM495.082 133.7L500.212 134.03C500.152 138.14 500.242 141.59 500.302 143.51C502.342 144.14 503.902 144.8 506.332 146.03L503.242 149.72C502.222 148.58 501.562 148.07 500.452 147.23C500.302 148.31 499.972 150.92 493.642 150.92C492.832 150.92 487.102 150.89 487.102 146.81C487.102 144.17 489.922 142.34 493.582 142.34C494.272 142.34 494.842 142.4 495.352 142.43C495.262 140.99 495.082 137.66 495.082 133.7ZM495.502 144.92C495.052 144.83 494.512 144.71 494.092 144.71C492.862 144.71 491.392 145.04 491.392 146.57C491.392 147.98 492.382 148.43 493.492 148.43C494.722 148.43 495.652 147.77 495.652 146.96C495.652 146.66 495.532 145.25 495.502 144.92ZM506.662 130.85L504.322 134.63C502.942 133.58 500.302 131.6 495.892 129.92L497.272 128C500.392 128.72 503.692 129.74 506.662 130.85ZM480.862 132.17V129.59C481.642 129.65 482.992 129.71 485.122 129.71C485.902 127.61 486.382 126.35 487.252 124.19L492.142 125.12C491.452 126.65 491.122 127.34 490.282 129.41C492.862 129.14 493.732 128.99 494.422 128.87L494.512 131.42C492.652 131.63 491.722 131.72 489.292 131.87C487.672 136.22 485.872 141.23 484.792 146.57L479.722 145.19C481.042 141.08 482.422 137.18 484.222 132.11C482.482 132.17 482.122 132.17 480.862 132.17ZM520.075 143.06L521.545 145.04C519.865 147.44 518.275 149.21 515.785 149.21C509.995 149.21 509.995 140.69 509.995 138.71C509.995 135.41 510.235 131.09 511.345 125.96L517.465 127.1C516.895 128.9 515.455 133.4 515.455 139.07C515.455 141.17 515.635 145.01 517.495 145.01C518.755 145.01 519.685 143.66 520.075 143.06ZM534.745 143.96L528.895 145.61C529.075 137.03 528.355 132.86 526.195 128.87L528.445 127.64C533.155 132.71 534.355 138.59 534.745 143.96ZM539.341 124.82L544.801 125.15V141.29H539.341V124.82ZM552.961 124.76L558.391 125.09V135.62C558.391 146.24 553.861 149.45 544.471 151.01L543.481 148.91C550.081 147.29 552.961 144.74 552.961 136.19V124.76ZM588.279 145.64L583.779 149.03C582.579 147.14 580.509 144.14 577.539 141.41C573.099 146.27 566.949 148.25 563.139 149.39L562.149 147.35C569.859 144.5 575.259 140.84 577.929 129.17H564.279V126.98H582.879L584.439 128.75C582.879 133.22 581.499 136.31 579.279 139.34C580.479 139.94 584.349 141.92 588.279 145.64ZM592.948 150.83L592.078 148.7C596.518 148.07 607.618 146.33 609.118 131.15H601.588C599.068 134.87 596.608 137.09 592.048 139.16L590.638 137.24C592.378 136.16 597.208 133.1 598.138 123.98L604.198 125.42C603.778 126.8 603.478 127.58 602.818 128.96H613.318L615.208 130.67C614.818 132.92 614.008 137.57 611.308 141.65C606.298 149.18 598.048 150.32 592.948 150.83ZM629.187 151.16H617.667V149H624.057V123.44H629.187V151.16Z" fill="#237233"/>
<g clip-path="url(#clip0_527_3668)">
<path d="M316.5 189C318.709 189 320.5 187.209 320.5 185C320.5 182.791 318.709 181 316.5 181C314.291 181 312.5 182.791 312.5 185C312.5 187.209 314.291 189 316.5 189Z" fill="#DAE000"/>
<path d="M296.5 189C298.709 189 300.5 187.209 300.5 185C300.5 182.791 298.709 181 296.5 181C294.291 181 292.5 182.791 292.5 185C292.5 187.209 294.291 189 296.5 189Z" fill="#237233"/>
<path d="M337.5 189C339.709 189 341.5 187.209 341.5 185C341.5 182.791 339.709 181 337.5 181C335.291 181 333.5 182.791 333.5 185C333.5 187.209 335.291 189 337.5 189Z" fill="#87C067"/>
</g>
<defs>
<clipPath id="clip0_527_3668">
<rect width="49" height="8" fill="white" transform="translate(292.5 181)"/>
</clipPath>
</defs>
</svg>
