<svg width="370" height="31" viewBox="0 0 370 31" fill="none" xmlns="http://www.w3.org/2000/svg">
<path d="M2.21768 7.81988C2.09271 7.56392 1.96773 7.81988 1.69278 7.81988C1.41784 7.81988 1.41783 7.75809 1.14289 7.75809C0.867938 7.75809 0.867939 7.8287 0.58466 7.8287C0.30138 7.8287 0.176405 8.04053 0.0514286 7.78457C-0.0902111 7.50214 0.193065 7.52862 0.334705 7.25501C0.476345 6.9814 0.468014 6.97258 0.609654 6.69897C0.751294 6.41653 0.717969 6.40771 0.859609 6.12527C1.00125 5.84284 1.02624 5.86049 1.16788 5.57806C1.30952 5.29563 1.29286 5.29563 1.43449 5.01319C1.57613 4.73076 1.57614 4.73076 1.71778 4.45715C1.85942 4.17472 1.84275 4.16589 1.98439 3.89229C2.12603 3.60985 2.12603 3.60985 2.26767 3.33624C2.40931 3.06264 2.40931 3.05381 2.55095 2.7802C2.69259 2.49777 2.71759 2.51542 2.85923 2.24182C3.00087 1.95938 2.97587 1.95056 3.11751 1.66812C3.25915 1.38569 3.25915 1.38569 3.40079 1.10326C3.54243 0.820822 3.59242 0.8473 3.73406 0.564866C3.8757 0.282433 3.70073 0 4.00067 0C4.30062 0 4.15064 0.264782 4.29228 0.538389C4.43392 0.811997 4.41726 0.829648 4.5589 1.10326C4.70054 1.37686 4.67555 1.39451 4.81719 1.67695C4.95883 1.95938 5.01715 1.92408 5.15879 2.19768C5.30043 2.48012 5.25043 2.50659 5.39207 2.7802C5.53371 3.06264 5.54205 3.05381 5.68369 3.32742C5.82533 3.60985 5.83366 3.60102 5.9753 3.88346C6.11694 4.16589 6.1336 4.14824 6.27524 4.43067C6.41688 4.71311 6.39189 4.72193 6.53353 5.00437C6.67517 5.27797 6.70016 5.26915 6.8418 5.54275C6.98344 5.82519 6.95011 5.84284 7.09175 6.11645C7.23339 6.39888 7.24173 6.39006 7.38337 6.67249C7.52501 6.95492 7.55 6.93727 7.69164 7.2197C7.83328 7.50214 8.05823 7.49331 7.92492 7.77575C7.79995 8.04053 7.68331 7.8287 7.40003 7.8287C7.11675 7.8287 7.12508 7.8287 6.85013 7.8287C6.57518 7.8287 6.57518 7.76692 6.2919 7.76692C6.00862 7.76692 5.86699 7.52862 5.73368 7.78457C5.59204 8.05818 5.86699 8.06701 6.00029 8.34061C6.1336 8.61422 6.14194 8.60539 6.27524 8.879C6.41688 9.15261 6.45021 9.12613 6.59185 9.39974C6.73349 9.67334 6.66683 9.70865 6.80847 9.98226C6.95011 10.2559 7.00843 10.2206 7.15007 10.4942C7.29171 10.7678 7.22506 10.8031 7.3667 11.0767C7.50834 11.3503 7.54166 11.3326 7.6833 11.6062C7.82494 11.8799 8.09156 11.8799 7.94992 12.1535C7.82494 12.4094 7.68331 12.1535 7.40003 12.1535C7.11675 12.1535 7.12508 12.1182 6.85013 12.1182C6.57518 12.1182 6.57518 12.1535 6.2919 12.1535C6.00862 12.1535 5.88365 11.8975 5.75034 12.1535C5.6087 12.4271 5.87532 12.4182 6.00863 12.6919C6.15027 12.9655 6.17526 12.9478 6.3169 13.2214C6.45854 13.495 6.40022 13.5215 6.53353 13.7951C6.67517 14.0687 6.66683 14.0687 6.80847 14.3423C6.95011 14.6159 6.99177 14.5895 7.13341 14.8631C7.27505 15.1367 7.23339 15.1631 7.3667 15.4367C7.50834 15.7104 7.50834 15.7104 7.64998 15.984C7.79162 16.2576 8.09156 16.2487 7.95825 16.5224C7.83328 16.7783 7.67497 16.5047 7.40003 16.5047C7.12508 16.5047 7.12508 16.4871 6.85013 16.4871C6.57518 16.4871 6.57518 16.5047 6.2919 16.5047C6.00862 16.5047 5.85865 16.2487 5.72535 16.5047C5.58371 16.7783 5.86699 16.796 6.00029 17.0696C6.1336 17.3432 6.15026 17.3344 6.2919 17.608C6.43354 17.8816 6.44188 17.8727 6.57519 18.1463C6.71683 18.42 6.67517 18.4376 6.81681 18.7112C6.95845 18.9848 6.99177 18.9583 7.13341 19.2408C7.27505 19.5144 7.24173 19.532 7.38337 19.8056C7.52501 20.0792 7.53334 20.0793 7.67498 20.3529C7.81662 20.6265 8.10822 20.6353 7.95825 20.9001C7.79995 21.1737 7.65831 20.9265 7.35837 20.9265C7.05842 20.9265 7.05843 20.8824 6.75015 20.8824C6.44188 20.8824 6.44187 20.9265 6.14193 20.9265C5.84199 20.9265 5.84199 20.9265 5.53372 20.9265C5.22544 20.9265 5.23377 20.8912 4.9255 20.8912C4.61722 20.8912 4.61723 20.9265 4.31728 20.9265C4.01734 20.9265 4.00901 20.8824 3.70906 20.8824C3.40912 20.8824 3.40079 20.9265 3.10084 20.9265C2.8009 20.9265 2.8009 20.8912 2.49263 20.8912C2.18436 20.8912 2.18435 20.8912 1.88441 20.8912C1.58447 20.8912 1.57614 20.9177 1.2762 20.9177C0.976253 20.9177 0.967917 20.9001 0.659642 20.9001C0.351368 20.9001 0.226395 21.1825 0.0514286 20.9001C-0.106875 20.6441 0.168071 20.6265 0.309711 20.3529C0.45135 20.0793 0.484681 20.1057 0.626321 19.8321C0.767961 19.5585 0.726301 19.5409 0.859609 19.2673C1.00125 18.9936 0.984585 18.9848 1.12622 18.72C1.26786 18.4464 1.27619 18.4553 1.41783 18.1817C1.55114 17.908 1.55947 17.908 1.70111 17.6344C1.84275 17.3608 1.83442 17.352 1.96773 17.0784C2.10937 16.8048 2.38432 16.8136 2.24268 16.54C2.1177 16.284 1.97606 16.54 1.70111 16.54C1.42616 16.54 1.42617 16.5488 1.15122 16.5488C0.876271 16.5488 0.876273 16.5135 0.592993 16.5135C0.309714 16.5135 0.176403 16.7783 0.043095 16.5135C-0.0985446 16.2399 0.143075 16.2223 0.276383 15.9487C0.418023 15.6751 0.443018 15.6927 0.576326 15.4191C0.717966 15.1455 0.726296 15.1543 0.867936 14.8807C1.00958 14.6071 0.967918 14.5895 1.10956 14.3158C1.2512 14.0422 1.26786 14.0599 1.4095 13.7863C1.55114 13.5127 1.52615 13.5038 1.66779 13.2302C1.80943 12.9566 1.83442 12.9743 1.97606 12.7007C2.1177 12.4271 2.38432 12.4182 2.25101 12.1446C2.12603 11.8887 1.97606 12.1182 1.70111 12.1182C1.42616 12.1182 1.42617 12.1711 1.15122 12.1711C0.876271 12.1711 0.876273 12.1358 0.592993 12.1358C0.309714 12.1358 0.176403 12.3918 0.043095 12.1358C-0.0985446 11.8622 0.168071 11.8622 0.309711 11.5886C0.45135 11.315 0.48468 11.3326 0.617988 11.0679C0.759627 10.7943 0.726296 10.7766 0.867936 10.503C1.00124 10.2294 1.02624 10.2382 1.16788 9.97343C1.30952 9.69982 1.28453 9.691 1.42617 9.41739C1.56781 9.14378 1.53448 9.12613 1.67612 8.85252C1.81776 8.57891 1.80942 8.57009 2.00105 8.33178C2.20935 8.08465 2.37599 8.05818 2.23435 7.78457" fill="#237233"/>
<path d="M3.98398 14.1133C3.98398 14.431 3.97565 14.431 3.97565 14.7488C3.97565 15.0665 3.99231 15.0665 3.99231 15.3842C3.99231 15.702 3.97565 15.702 3.97565 16.0197C3.97565 16.3374 4.00064 16.3374 4.00064 16.6552C4.00064 16.9729 3.99231 16.9729 3.99231 17.2907C3.99231 17.6084 4.00897 17.6084 4.00897 17.9261C4.00897 18.2439 4.00897 18.2439 4.00897 18.5528C4.00897 18.8617 4.00897 18.8705 4.00897 19.1794C4.00897 19.4883 3.98398 19.4972 3.98398 19.8149C3.98398 20.1326 4.00064 20.1326 4.00064 20.4504C4.00064 20.7681 3.98398 20.7681 3.98398 21.0859C3.98398 21.4036 4.00064 21.4036 4.00064 21.7213C4.00064 22.0391 3.95898 22.0391 3.95898 22.3568C3.95898 22.6745 4.00064 22.6745 4.00064 22.9923C4.00064 23.31 4.00897 23.31 4.00897 23.6278C4.00897 23.9455 4.00897 23.9455 4.00897 24.2632C4.00897 24.581 4.00897 24.581 4.00897 24.8987C4.00897 25.2165 3.97565 25.2164 3.97565 25.5342C3.97565 25.8519 4.00064 25.8519 4.00064 26.1697C4.00064 26.4874 3.97565 26.4874 3.97565 26.8051C3.97565 27.1229 3.98398 27.1229 3.98398 27.4406C3.98398 27.7583 4.00064 27.7583 4.00064 28.0761C4.00064 28.3938 3.95898 28.3938 3.95898 28.7116C3.95898 29.0293 3.97565 29.0293 3.97565 29.3559C3.97565 29.6824 3.98398 29.6736 3.98398 30.0002" stroke="#623A26" stroke-width="0.697424" stroke-linecap="round" stroke-linejoin="round"/>
<path d="M39.4209 22.4L36.7409 25.22C36.0809 24.66 34.8209 23.64 32.4209 22.46C29.3809 24.48 26.3409 24.82 22.0409 24.96L21.2609 23.48C26.5009 23.5 29.0009 21.78 29.6409 21.32C26.2409 20.2 23.7809 20.02 22.2609 19.92C23.2809 18.34 24.2009 16.92 25.1409 15.12H20.9009V13.72H25.8409C26.0409 13.26 26.9209 11.4 27.1409 9.82L31.4209 10.56C31.4209 10.76 30.0209 13.32 29.8009 13.72H39.8209V15.12H36.6609C36.4609 17.18 35.8409 18.9 34.6609 20.44C36.4609 21 38.1009 21.64 39.4209 22.4ZM32.7409 15.12H28.9809C27.5809 17.44 27.1209 18.08 26.6809 18.68C27.5009 18.76 28.9209 18.9 31.3809 19.5C31.7609 18.86 32.4409 17.64 32.7409 15.12ZM32.1609 8.04H39.3609V12.36H35.6809V9.46H25.0209V12.36H21.4009V8.04H28.5209V5.9H32.1609V8.04ZM54.1409 12.44L55.6809 11.78C57.5009 14.02 59.5809 17.76 60.3609 19.64L56.5609 21.48C56.1409 23.44 55.5809 24.78 53.5009 24.78H47.9809C45.7609 24.78 45.7609 22.66 45.7609 21.8V10.82H49.4209V22.3C49.4209 23.02 49.8409 23.38 50.5609 23.38H51.6009C52.0009 23.38 52.5209 23.32 52.8809 22.64C53.0809 22.24 53.3809 21.28 53.6209 19.02C54.0009 19.26 54.5609 19.58 56.2609 20.28C56.1009 18.88 55.5409 15.84 54.1409 12.44ZM43.2609 12.46L44.9009 12.68C44.9609 15.36 44.6209 19.66 43.8809 22.28L40.4009 19.62C41.5409 18.24 42.6809 15.4 43.2609 12.46ZM55.2409 9.12L52.6609 11.94C49.3609 9.08 47.9609 8.06 45.9209 7L46.9609 5.7C49.6409 6.2 54.4609 8.5 55.2409 9.12ZM74.9463 15.9L76.2463 16.36C75.0263 20.4 73.1463 24.2 67.5463 24.2C64.0063 24.2 62.0463 22.58 62.0263 18.7C62.0263 17.3 62.0663 16.22 62.3663 6.54L66.1663 6.84C65.7863 12.66 65.6663 17.42 65.6663 17.84C65.6663 18.86 65.7063 21.36 69.0263 21.36C72.3063 21.36 73.8663 18.88 74.9463 15.9ZM92.4946 21.82L92.0946 23.62C89.4146 23.54 81.9946 23.28 81.9946 16.82C81.9946 12.28 85.5746 10.34 87.2346 9.42C83.6746 9.52 78.8346 10.04 78.1546 10.12L78.0146 8.4C83.1346 8 90.1346 7.72 94.7546 7.68V9.24C93.9946 9.22 93.7146 9.22 93.4346 9.22C91.5946 9.22 90.7946 9.44 90.3946 9.56C88.0346 10.28 85.8546 12.54 85.8546 16.4C85.8546 21.12 89.3546 21.86 91.3946 21.86C91.7546 21.86 92.1746 21.84 92.4946 21.82ZM101.908 12.58H102.928V6.38H113.808V12.58H114.748V19.76C114.748 21.88 113.228 21.88 112.128 21.88H109.188L108.648 20.34C109.068 20.4 109.768 20.5 110.328 20.5C111.228 20.5 111.248 20.12 111.248 19.64V13.98H105.368V22.04H101.908V12.58ZM109.728 12.58H110.388V10.44H109.728V12.58ZM106.428 12.58H106.928V9.02H110.388V7.8H106.428V12.58ZM105.908 14.8H110.668V19.94H105.908V14.8ZM108.588 16.22H107.928V18.52H108.588V16.22ZM102.168 10.64L99.0277 12.8C98.0677 9.58 97.3077 8.06 96.5877 6.84L97.6877 6.02C99.3677 7.24 101.428 9.64 102.168 10.64ZM96.4277 14.32H101.108V20.68C101.108 21.52 101.208 23.08 104.548 23.08H109.648C109.828 23.08 113.748 22.94 115.728 22.84L115.128 24.5H103.788C101.868 24.5 100.208 24.5 99.1477 22.74C98.7277 23.28 97.4477 24.44 96.9877 24.82L96.1277 21.96C96.3477 21.92 97.3077 21.68 97.8277 21.42V15.72H96.4277V14.32ZM133.332 8.48L131.912 9.54C131.492 8.8 130.832 7.76 129.912 6.94L130.892 6.18C131.432 6.56 132.512 7.42 133.332 8.48ZM119.472 15.88L120.712 16.78C119.532 18.12 119.392 18.92 119.392 19.34C119.392 20.92 121.592 20.92 123.512 20.92C125.412 20.92 127.892 20.8 131.612 19.82V23.22C130.192 23.42 128.512 23.66 125.012 23.66C121.972 23.66 117.212 23.52 117.212 20.2C117.212 18 118.692 16.6 119.472 15.88ZM135.132 7.08L133.732 8.16C133.452 7.74 132.812 6.84 131.812 5.98L132.812 5.22C133.672 5.74 134.392 6.28 135.132 7.08ZM130.492 7.84L129.512 11.22C127.332 10.26 123.512 9.38 118.792 9.24V7.7C121.972 7.28 123.852 7.28 124.312 7.28C126.372 7.28 128.452 7.48 130.492 7.84ZM144.403 19.4L144.223 17.7C144.763 17.76 145.283 17.76 145.343 17.76C145.843 17.76 146.483 17.76 146.483 16.24V13.46C145.443 13.48 143.483 13.52 142.303 13.56C142.303 15.76 142.283 18.1 142.383 19.24C142.543 21.36 143.923 22.32 146.183 22.32C146.543 22.32 149.283 22.24 151.183 22.02V23.82H144.223C140.143 23.82 138.763 22.22 138.743 18.32C138.743 17.66 138.763 14.42 138.763 13.68C137.523 13.74 136.603 13.78 135.783 13.84V12.18L138.763 12.12C138.763 11.44 138.743 8.1 138.743 7.36H142.363C142.363 8.24 142.323 11.26 142.323 12.02C143.003 12 145.603 11.96 146.483 11.94V9.94C146.483 8.82 146.443 7.7 146.403 6.58L149.943 6.8C149.943 7.28 149.983 9.66 149.983 10.2V11.88C151.023 11.86 152.083 11.86 153.123 11.86V13.42H149.983V16.34C149.983 19.38 147.883 19.44 146.763 19.44C146.423 19.44 144.763 19.4 144.403 19.4ZM158.119 8.76L158.059 6.98C160.559 6.98 164.819 6.9 168.459 6.68L169.399 8.16C167.879 9.4 165.379 11.54 163.739 13.06C164.459 12.82 165.359 12.74 166.139 12.74C169.739 12.74 171.999 14.9 171.999 18.02C171.999 22.54 168.059 24.22 164.019 24.22C160.739 24.22 158.959 22.78 158.959 21.04C158.959 19.64 159.919 18.12 162.779 18.12C163.619 18.12 164.559 18.32 165.259 18.74C166.559 19.5 166.859 20.44 167.119 21.62C167.619 21.06 168.379 20.24 168.379 18.34C168.379 16.5 167.459 14.36 164.679 14.36C162.319 14.36 160.959 15.72 157.579 19.68L154.939 17.34C158.339 13.84 162.139 10.18 164.019 8.4C162.099 8.58 159.759 8.72 158.119 8.76ZM164.639 22.86C164.579 21.74 164.459 19.7 162.879 19.7C161.899 19.7 161.619 20.52 161.619 21.12C161.619 22.14 162.619 22.94 163.759 22.94C163.819 22.94 164.199 22.94 164.639 22.86ZM185.11 8.04H192.39V12.58H189.61C189.89 12.68 190.75 13 192.29 13.4C191.99 15.72 190.57 15.78 189.95 15.78H185.77C183.63 15.78 183.53 15.12 183.53 13.72V9.46H177.89V12.42C178.61 11.4 178.79 10.62 178.91 10L182.85 10.72C181.61 14.24 177.61 15.96 174.43 16.44L173.63 15.16C175.99 14.4 177.07 13.42 177.63 12.76H174.33V8.04H181.45V5.84H185.11V8.04ZM188.63 9.46H187.21V13.82C187.21 14.3 187.21 14.36 187.55 14.36H188.63C189.07 14.36 189.07 13.6 189.07 12.58H188.63V9.46ZM185.11 18.28V23.06H192.85V24.46H173.81V23.06H181.43V18.28H175.95V16.86H190.61V18.28H185.11ZM194.41 6.6H202.97V13.58H197.95V24.92H194.41V6.6ZM197.95 9.34H199.61V8H197.95V9.34ZM199.61 10.76H197.95V12.16H199.61V10.76ZM212.19 6.6V22.62C212.19 24.78 210.83 24.78 209.65 24.78H205.75L205.31 23.18C205.69 23.22 207.57 23.42 207.83 23.42C208.51 23.42 208.69 23.16 208.69 22.36V13.58H203.55V6.6H212.19ZM207.01 9.34H208.69V8H207.01V9.34ZM208.69 10.76H207.01V12.16H208.69V10.76ZM198.95 14.78H207.63V22.5H198.95V14.78ZM202.31 17.88H204.21V16.18H202.31V17.88ZM204.21 19.3H202.31V21.08H204.21V19.3ZM226.572 21.04H223.272V17.9C222.152 18.48 221.392 19.44 221.392 20.68C221.392 22.1 222.412 22.76 225.272 22.76C226.912 22.76 228.492 22.64 230.152 22.32V24.22C229.172 24.3 228.012 24.36 227.032 24.36H223.812C219.392 24.36 218.092 23.26 218.092 21.36C218.092 18.76 220.952 17.22 223.152 16.06C223.012 15.38 222.752 14.16 221.472 14.16C220.332 14.16 219.772 15.06 219.492 15.56C219.212 16.06 218.092 18.24 217.372 20.04L214.252 18.9C214.772 17.7 215.332 16.46 218.112 10.88C216.552 10.96 216.072 10.98 214.752 10.98L214.792 9.42C216.312 9.42 218.272 9.32 218.892 9.3C219.952 7.2 220.092 6.92 220.372 6L224.352 6.88C223.752 7.88 223.692 7.98 223.072 9.06C226.172 8.84 226.812 8.78 228.232 8.56L228.212 10.2C226.612 10.38 223.572 10.58 222.132 10.66C221.632 11.5 221.432 11.86 220.892 12.84C221.692 12.44 222.392 12.44 222.612 12.44C224.292 12.44 225.452 13.16 226.052 14.74C226.952 14.36 227.612 14.1 229.792 13.32L230.392 15.64C228.372 16.04 227.392 16.32 226.452 16.6C226.492 17.12 226.572 17.8 226.572 19.18V21.04ZM242.315 14.04V10.88H245.995V14.04H250.995V15.46H245.995V21.9C245.995 24 245.635 24.84 242.975 24.84H238.395L238.035 23.14C239.955 23.4 240.955 23.4 241.135 23.4C242.175 23.4 242.315 23.12 242.315 22.14V15.46H231.995V14.04H242.315ZM243.235 8.08H250.435V13.04H246.735V9.5H236.095V13.04H232.395V8.08H239.535V5.88H243.235V8.08ZM240.795 20.8L237.095 23.1C236.335 20.64 235.235 18.18 234.255 16.86L235.515 16.1C236.835 16.92 239.915 19.72 240.795 20.8ZM255.522 8.76L255.462 6.98C257.962 6.98 262.222 6.9 265.862 6.68L266.802 8.16C265.282 9.4 262.782 11.54 261.142 13.06C261.862 12.82 262.762 12.74 263.542 12.74C267.142 12.74 269.402 14.9 269.402 18.02C269.402 22.54 265.462 24.22 261.422 24.22C258.142 24.22 256.362 22.78 256.362 21.04C256.362 19.64 257.322 18.12 260.182 18.12C261.022 18.12 261.962 18.32 262.662 18.74C263.962 19.5 264.262 20.44 264.522 21.62C265.022 21.06 265.782 20.24 265.782 18.34C265.782 16.5 264.862 14.36 262.082 14.36C259.722 14.36 258.362 15.72 254.982 19.68L252.342 17.34C255.742 13.84 259.542 10.18 261.422 8.4C259.502 8.58 257.162 8.72 255.522 8.76ZM262.042 22.86C261.982 21.74 261.862 19.7 260.282 19.7C259.302 19.7 259.022 20.52 259.022 21.12C259.022 22.14 260.022 22.94 261.162 22.94C261.222 22.94 261.602 22.94 262.042 22.86ZM288.579 21.04V24.02C286.979 24.12 283.679 24.14 283.439 24.14C281.779 24.14 278.339 24.12 278.339 21.26C278.339 20.04 278.879 19 279.539 18.12L280.959 18.72C280.599 19.2 280.319 19.84 280.319 20.44C280.319 21.62 281.379 21.62 282.919 21.62C285.039 21.62 287.239 21.4 288.579 21.04ZM288.999 12.7L288.519 15.76C286.379 14.86 284.099 14.12 281.119 14.02L281.199 12.32C282.079 12.3 283.299 12.3 283.439 12.3C284.819 12.3 286.959 12.34 288.999 12.7ZM282.579 9.66V11.22C281.979 11.28 281.339 11.34 279.019 11.46C277.099 17.52 275.999 21.42 275.319 24.02L271.739 23.1C272.839 19.46 274.059 15.44 275.239 11.62C273.019 11.7 272.479 11.7 271.799 11.7V10.1C272.979 10.1 273.719 10.1 275.739 10.04C276.279 8.28 276.339 8.08 276.879 6.4L280.499 7.08C280.199 7.86 279.859 8.86 279.519 9.86C281.159 9.78 281.419 9.76 282.579 9.66ZM299.998 6.42L303.778 7.36C303.578 8.52 303.418 9.32 303.098 10.58C304.458 11.02 307.998 12.18 307.998 16.84C307.998 20.18 306.058 21.82 304.998 22.48C303.038 23.72 300.818 23.88 299.238 24L298.838 22.54C300.478 22.32 304.398 21.82 304.398 16.5C304.398 14.1 303.398 13.16 302.558 12.56C299.718 22 296.918 23.38 294.698 23.38C291.918 23.38 291.098 20.76 291.098 18.6C291.098 15.24 292.998 13.34 293.778 12.56C293.498 10.84 293.398 9.74 293.278 8L296.598 7.66C296.618 8.8 296.638 9.58 296.698 10.76C297.718 10.4 298.418 10.26 299.558 10.2C299.798 8.6 299.898 7.78 299.998 6.42ZM294.338 15.24C294.038 15.86 293.478 17.08 293.478 19.22C293.478 19.66 293.478 21.54 294.518 21.54C295.278 21.54 295.938 20.54 296.278 20.04C295.338 18.52 294.878 17.22 294.338 15.24ZM297.738 17.06C298.538 14.88 298.918 13.36 299.238 11.84C298.358 11.94 297.758 12.1 296.838 12.56C297.058 14.38 297.258 15.52 297.738 17.06ZM320.048 23.64L319.568 22.06C321.128 21.64 324.608 20.68 324.608 14.96C324.608 10.58 322.048 9.64 321.028 9.26C320.828 11.56 320.448 15.7 319.408 18.74C318.388 21.74 316.928 22.82 314.988 22.82C311.868 22.82 310.208 19.8 310.208 16.54C310.208 11.94 313.328 7.38 319.748 7.38C323.528 7.38 328.348 9.1 328.348 15.22C328.348 22.08 322.388 23.2 320.048 23.64ZM317.428 9.26C316.588 9.58 315.728 9.92 314.768 11.28C313.528 13.06 313.168 15.38 313.168 17.46C313.168 18.08 313.168 20.92 314.488 20.92C315.608 20.92 316.968 16.34 317.428 9.26ZM346.939 14.6V21.76H344.999C345.799 22.6 347.219 23.3 349.259 23.76L348.219 25.02C345.179 24.72 342.219 23.98 340.639 22.7L342.739 21.76H336.219L338.379 22.72C338.259 22.8 337.979 22.98 337.939 23C335.819 24.2 333.459 24.84 331.039 25.04L329.919 23.84C331.019 23.58 332.619 23.2 334.099 21.76H332.279V15.52C331.479 15.74 331.039 15.8 330.619 15.86L329.779 14.6C332.079 14.04 333.159 13.58 334.139 12.44H330.119C330.479 10.98 330.519 10.74 330.819 9.08H335.279C335.299 8.7 335.299 8.64 335.299 8.32H330.939V6.9H335.299V5.9H338.819V6.9H339.939V5.9H343.399V6.9H347.879V10.4H343.399V11.12H348.939C348.719 13.7 348.639 14.54 346.939 14.6ZM335.919 14.88V15.68H343.219V14.88H335.919ZM343.399 13.46H344.279L344.139 12.98C344.239 13.04 344.459 13.14 344.779 13.14C345.179 13.14 345.199 13.04 345.259 12.44H343.399V13.46ZM336.679 13.46H339.939V12.44H337.679C337.299 12.94 336.959 13.24 336.679 13.46ZM335.919 17.08V17.94H343.219V17.08H335.919ZM339.939 10.4H338.639C338.559 10.76 338.499 10.9 338.419 11.12H339.939V10.4ZM339.939 8.32H338.819V9.08H339.939V8.32ZM343.219 20.34V19.36H335.919V20.34H343.219ZM344.479 8.32H343.399V9.08H344.479V8.32ZM333.839 11.12H334.919C334.999 10.88 335.039 10.66 335.099 10.4H334.019L333.839 11.12ZM361.619 18.12V24.2H357.979V18.12H354.699C354.379 20.14 353.739 22.08 350.979 24.94L349.899 23.88C350.919 21.98 351.339 20.28 351.339 15.74V6.54H368.379V21.84C368.379 24.36 367.439 24.7 365.479 24.7H362.379L362.019 23.16C363.019 23.32 363.679 23.32 363.739 23.32C364.119 23.32 364.739 23.32 364.739 22.22V18.12H361.619ZM361.619 13.08V16.7H364.739V13.08H361.619ZM357.979 16.7V13.08H354.959V15.16C354.959 15.66 354.939 16.2 354.879 16.7H357.979ZM361.619 7.96V11.68H364.739V7.96H361.619ZM357.979 11.68V7.96H354.959V11.68H357.979Z" fill="#237233"/>
</svg>
