<svg width="80" height="80" viewBox="0 0 80 80" fill="none" xmlns="http://www.w3.org/2000/svg">
<circle cx="40" cy="40" r="40" fill="#EEF1EC"/>
<path d="M49.1675 48.331C55.1501 48.331 60 46.839 60 44.9985C60 43.158 55.1501 41.666 49.1675 41.666C43.1848 41.666 38.335 43.158 38.335 44.9985C38.335 46.839 43.1848 48.331 49.1675 48.331Z" fill="#87C067"/>
<path d="M49.1675 54.1667C55.15 54.1667 60 52.6742 60 50.8342V48.7217C56.59 50.6917 50.72 50.8342 49.1675 50.8342C47.615 50.8342 41.745 50.6917 38.335 48.7217V50.8342C38.3325 52.6742 43.1825 54.1667 49.1675 54.1667Z" fill="#87C067"/>
<path d="M49.1675 56.6672C47.615 56.6672 41.745 56.5247 38.335 54.5547V56.6672C38.335 58.5072 43.185 59.9997 49.1675 59.9997C55.15 59.9997 60 58.5072 60 56.6672V54.5547C56.59 56.5222 50.72 56.6672 49.1675 56.6672Z" fill="#87C067"/>
<path d="M35.8325 44.39L35.905 44.4325C36.655 39.4425 47.02 39.1675 49.165 39.1675C50.7225 39.1675 56.6 39.3225 59.9975 41.3125V24.5825C60 22.055 57.945 20 55.4175 20H24.5825C22.055 20 20 22.055 20 24.5825V42.0825C20 44.61 22.055 46.665 24.5825 46.665H35.8325V44.39ZM30.4175 27.5H26.25C25.56 27.5 25 26.94 25 26.25C25 25.56 25.56 25 26.25 25H30.4175C31.1075 25 31.6675 25.56 31.6675 26.25C31.6675 26.94 31.1075 27.5 30.4175 27.5ZM40 27.5C43.2175 27.5 45.8325 30.1175 45.8325 33.3325C45.8325 36.5475 43.2175 39.1675 40 39.1675C36.7825 39.1675 34.1675 36.55 34.1675 33.335C34.1675 30.12 36.7825 27.5 40 27.5Z" fill="#237233"/>
</svg>
