<svg width="70" height="33" viewBox="0 0 70 33" fill="none" xmlns="http://www.w3.org/2000/svg">
<path d="M13.328 12.58L11.452 14.554C10.99 14.162 10.108 13.448 8.428 12.622C6.3 14.036 4.172 14.274 1.162 14.372L0.616 13.336C4.284 13.35 6.034 12.146 6.482 11.824C4.102 11.04 2.38 10.914 1.316 10.844C2.03 9.738 2.674 8.744 3.332 7.484H0.364V6.504H3.822C3.962 6.182 4.578 4.88 4.732 3.774L7.728 4.292C7.728 4.432 6.748 6.224 6.594 6.504H13.608V7.484H11.396C11.256 8.926 10.822 10.13 9.996 11.208C11.256 11.6 12.404 12.048 13.328 12.58ZM8.652 7.484H6.02C5.04 9.108 4.718 9.556 4.41 9.976C4.984 10.032 5.978 10.13 7.7 10.55C7.966 10.102 8.442 9.248 8.652 7.484ZM8.246 2.528H13.286V5.552H10.71V3.522H3.248V5.552H0.714V2.528H5.698V1.03H8.246V2.528ZM26.194 7.61H27.636V8.604H26.726C27.146 9.248 27.51 9.682 27.79 9.99L27.16 10.676C26.264 10.172 25.508 9.43 24.864 8.604H22.372C21.756 9.206 21.042 9.738 19.852 10.466L19.614 10.2V12.888C19.614 13.644 19.362 14.302 18.102 14.302H16.338L16.072 13.224C16.576 13.28 16.926 13.308 17.08 13.308C17.444 13.308 17.444 13.084 17.444 12.692V10.578H16.758C16.492 12.076 15.89 13.168 14.77 14.302L14.084 13.714C14.574 12.356 14.854 10.48 14.854 9.066V4.236H19.614V9.472C19.754 9.36 20.006 9.136 20.454 8.604H19.95V7.61H21.126C21.294 7.316 21.392 7.12 21.588 6.672H20.188V5.678H20.524C20.384 5.062 20.356 4.936 20.16 4.348L21.098 4.012C21.448 4.236 21.518 4.278 22.092 4.684C22.106 4.432 22.12 4.334 22.134 4.11L24.794 4.39C24.822 4.488 24.36 5.566 24.318 5.678H27.244V6.672H25.83C26.054 7.274 26.124 7.456 26.194 7.61ZM16.898 9.598H17.444V7.876H16.982V8.128C16.982 8.576 16.926 9.332 16.898 9.598ZM16.982 6.882H17.444V5.23H16.982V6.882ZM23.24 7.61H24.192C23.912 7.12 23.828 6.938 23.758 6.798C23.674 6.952 23.534 7.204 23.24 7.61ZM22.036 5.118L20.594 5.678H21.91C21.952 5.51 21.98 5.384 22.036 5.118ZM17.29 2.108V1.03H19.866V2.108H22.204V1.03H24.738V2.108H27.636V3.102H24.738V3.872H22.204V3.102H19.866V3.872H17.29V3.102H14.364V2.108H17.29ZM24.654 12.538V12.86C24.654 14.12 24.262 14.246 22.988 14.246H21.574L21.294 13.224C20.874 13.49 20.538 13.7 20.244 13.868L19.74 12.398C20.622 12.244 21.602 11.88 22.078 11.712L22.386 12.244V10.97L21.126 11.95C20.762 11.138 20.706 10.998 20.44 10.578L21.154 10.018C21.588 10.228 21.672 10.27 22.386 10.662V9.234H24.654V12.3L25.046 11.67C25.158 11.698 25.242 11.712 25.326 11.74L24.822 10.998C25.158 10.718 25.396 10.494 25.844 9.948L26.978 11.334C26.922 11.404 25.662 11.74 25.466 11.782C26.558 12.118 27.286 12.636 27.58 12.832L26.726 14.162C26.334 13.686 25.76 13.028 24.654 12.538ZM22.386 12.776V12.496C22.078 12.734 21.994 12.776 21.336 13.196C21.84 13.28 21.896 13.294 22.036 13.294C22.372 13.294 22.386 13.168 22.386 12.776ZM25.27 3.97L27.482 4.67C27.3 4.782 26.32 5.384 25.76 5.594L24.934 5.314C25.116 4.824 25.242 4.222 25.27 3.97ZM36.246 2.514H40.6V7.722H36.246V9.024H35.098C35.504 9.262 36.61 9.962 37.562 10.676L36.974 11.082C37.128 11.152 37.94 11.488 38.892 11.726C38.528 10.48 38.262 9.948 38.15 9.724L39.046 9.22C39.788 9.99 41.16 11.572 41.874 12.72L39.41 14.288C39.382 13.924 39.34 13.49 38.99 12.09C38.542 14.106 38.22 14.316 36.988 14.316H32.956C31.346 14.316 31.29 13.448 31.29 12.608V9.402H33.81V12.454C33.81 13.21 34.02 13.336 34.692 13.336H35.616C36.218 13.336 36.47 13.336 36.666 11.292L35.28 12.286C35.028 11.39 34.468 10.158 33.992 9.402L34.566 9.024H33.642V7.722H29.358V2.514H33.642V1.002H36.246V2.514ZM37.968 3.494H36.246V6.728H37.968V3.494ZM31.92 6.728H33.642V3.494H31.92V6.728ZM29.946 9.528L30.884 9.85C30.87 10.27 30.772 12.51 30.282 14.19L28.14 12.916C28.938 12.076 29.666 10.676 29.946 9.528ZM50.204 3.578H51.492C51.52 3.536 52.038 2.178 52.164 0.889999L54.978 1.562C54.712 1.898 53.858 2.878 53.13 3.578H55.468V4.572H54.208V6.518H55.272V7.498H54.208V9.43H55.272V10.424H54.208V12.706H55.622V13.686H51.212V14.33H48.748V13.308L46.928 14.372C46.886 13.672 46.872 13.336 46.844 12.958C45.542 13.364 44.1 13.798 42.882 14.036L42.434 12.468C42.924 12.44 43.064 12.426 43.862 12.328C44.17 11.558 45.178 9.136 45.738 6.462L48.384 7.4C48.202 7.722 46.914 9.836 46.774 10.06L47.404 9.808C47.894 10.326 48.258 10.928 48.748 11.81V5.496C48.174 6.154 47.936 6.406 47.614 6.742L46.788 6.224C47.152 5.58 47.348 5.174 47.572 4.67H45.78C45.64 5.874 45.29 8.842 42.826 11.964L42.042 11.404C42.476 10.452 43.344 8.618 43.428 4.67H42.35V3.676H43.428C43.428 3.256 43.414 1.38 43.4 0.987999H45.92C45.962 1.366 45.892 3.312 45.864 3.676H47.6V4.586C48.286 3.032 48.496 1.464 48.552 0.96L51.422 1.534C51.394 1.604 51.366 1.66 51.324 1.758C51.058 2.346 50.61 2.99 50.204 3.578ZM51.212 7.498V9.43H51.8V7.498H51.212ZM51.212 10.424V12.706H51.8V10.424H51.212ZM51.212 4.572V6.518H51.8V4.572H51.212ZM45.416 12.146C45.85 12.076 46.312 12.006 46.774 11.936C46.718 11.068 46.62 10.62 46.578 10.382C46.242 10.9 45.836 11.558 45.416 12.146ZM67.214 0.834L68.376 2.556C67.648 2.682 66.402 2.808 65.604 2.864V4.32C65.604 5.202 65.604 5.244 65.66 6.112H69.37V7.106H65.744C66.038 10.004 66.766 12.216 67.34 12.216C67.676 12.216 67.886 11.39 68.166 10.256C68.432 10.564 68.796 10.984 69.762 11.684C69.3 13.252 68.726 14.428 67.2 14.428C64.036 14.428 63.476 9.724 63.154 7.106H59.934V11.74C60.452 11.628 63.028 11.082 63.602 10.942L63.462 11.978C62.944 12.16 56.98 14.092 56.7 14.148L56.084 12.398C56.42 12.356 57.232 12.244 57.372 12.216V1.632L59.934 2.038C62.356 1.94 65.828 1.562 67.214 0.834ZM59.934 3.116V6.112H63.07C63.028 5.58 62.972 4.838 62.972 3.032C61.432 3.088 60.62 3.102 59.934 3.116ZM24.206 28.018H27.398V29.012H24.206V30.636H21.63V29.012H19.082V28.018H21.63V27.178H19.544V26.184H21.63V25.274H19.544V24.28H21.63V23.146H18.956V22.152H21.63V21.046H19.544V20.052H21.63V19.044H24.206V20.052H27.048V22.152H27.65V23.146H27.048V25.274H24.206V26.184H27.048V27.178H24.206V28.018ZM24.206 23.146V24.28H24.682V23.146H24.206ZM24.206 21.046V22.152H24.682V21.046H24.206ZM21.392 31.028H24.556C26.138 31.028 27.314 30.888 27.86 30.818L27.384 32.008H21.14C19.796 32.008 18.144 31.952 16.842 30.972C16.086 31.644 15.316 32.036 14.798 32.288L14.112 31.476C14.602 31.14 15.134 30.72 15.722 29.88C14.392 28.228 14.154 26.128 14.084 25.442L16.254 25.288C16.31 26.744 16.52 27.416 16.576 27.57C16.716 26.59 16.744 25.876 16.716 24.812H14.154L16.38 20.514H14.364V19.534H19.096V20.388L17.36 23.832H19.208C19.25 27.178 18.732 28.564 17.906 29.782C18.27 30.146 19.138 31.028 21.392 31.028ZM37.646 22.614H40.068V25.414C40.068 25.75 40.068 25.778 40.292 25.778C40.404 25.778 40.404 25.624 40.404 25.554V24.21C40.768 24.434 41.02 24.532 41.748 24.714C41.636 25.736 41.538 26.772 40.292 26.772H38.696C37.758 26.772 37.758 26.268 37.758 25.82V25.4L37.114 26.408C36.834 26.002 36.722 25.862 36.316 25.33C35.854 25.932 35.196 26.296 35.042 26.394H36.232V27.402H41.636V28.396H38.57C39.074 29.334 40.236 30.692 41.72 31.392L41.006 32.134C38.08 31.266 36.526 29.67 36.232 29.376V32.344H33.656V29.446C32.228 30.776 30.786 31.56 28.882 32.148L28.168 31.406C29.988 30.426 30.968 29.18 31.472 28.396H28.336V27.402H33.656V26.982C33.586 26.996 33.544 27.01 33.39 27.052L32.886 26.24C33.446 25.862 34.468 25.148 34.468 23.412V22.852C34.426 22.88 34.384 22.908 34.258 22.978L33.628 22.516C33.754 22.39 33.81 22.334 34.006 22.04L31.878 22.614H33.6V23.608H32.396V25.008C32.606 24.98 33.32 24.868 33.446 24.84L33.18 25.848C32.592 26.072 29.288 26.968 28.784 27.08L28.35 25.54C28.7 25.54 29.638 25.414 30.086 25.344V23.608H28.896V23.048C28.84 23.076 28.812 23.09 28.672 23.146L28 22.404C28.966 21.536 29.792 19.842 29.89 18.89L32.634 19.366C32.662 19.436 32.228 20.094 32.186 20.178H34.468V21.158H32.83C33.446 21.564 33.726 21.746 34.034 22.012C34.636 21.074 34.958 20.024 35.168 18.89L38.024 19.38C38.01 19.45 37.492 20.094 37.436 20.178H41.636V21.158H39.046C39.816 21.606 39.97 21.704 40.236 21.914L37.646 22.614ZM34.874 22.614H37.408C37.324 22.138 37.156 21.48 37.058 21.158H36.554C36.162 21.564 35.63 22.11 34.874 22.614ZM37.758 23.608H36.932C36.904 23.832 36.89 24 36.834 24.224C37.226 24.336 37.464 24.42 37.758 24.518V23.608ZM29.638 22.614H31.584C31.57 22.334 31.556 22.222 31.416 21.158H31.36C30.94 21.592 30.422 22.096 29.638 22.614ZM48.748 32.316H46.214L45.962 31.168C46.62 31.224 47.152 31.28 47.516 31.28C48.118 31.28 48.58 31.28 48.622 29.348C46.872 30.622 44.268 31.308 42.84 31.644L42.28 30.804C44.688 30.16 47.306 28.62 48.51 27.318C48.482 27.136 48.468 27.08 48.454 26.954C47.642 27.598 45.696 28.746 42.854 29.46L42.28 28.564C45.15 27.668 47.166 25.974 47.95 25.162C47.922 25.106 47.908 25.078 47.88 25.022C46.256 26.072 44.786 26.688 43.26 27.192L42.63 26.184C44.576 25.442 45.864 24.532 46.452 23.608H44.59V23.006H42.742V20.5H47.726V19.03H50.302V20.5H55.258V23.006H53.382V23.608H51.898C51.926 24.28 52.094 25.26 52.108 25.288C52.822 24.728 53.172 24.392 53.676 23.748L55.23 25.61C55.09 25.666 54.922 25.764 54.852 25.792C54.334 26.044 53.298 26.422 52.43 26.73C53.018 28.606 54.474 30.188 55.566 31.182L54.81 32.036C53.158 31.028 52.052 30.174 50.96 28.284C51.114 29.082 51.114 29.614 51.114 29.866C51.114 32.316 49.728 32.316 48.748 32.316ZM49.7 23.608H49.616C49.462 23.762 49.322 23.93 48.958 24.238C49.112 24.378 49.476 24.742 49.966 25.554C49.812 24.924 49.742 24.266 49.7 23.608ZM45.304 21.48V22.614H52.668V21.48H45.304Z" fill="#DAE000"/>
</svg>
