<svg width="80" height="80" viewBox="0 0 80 80" fill="none" xmlns="http://www.w3.org/2000/svg">
<circle cx="40" cy="40" r="40" fill="#EEF1EC"/>
<path d="M51.0001 20C45.4851 20 41 24.4851 41 30.0001C41 35.5152 45.4851 40.0003 51.0001 40.0003C56.5152 40.0003 61.0003 35.5152 61.0003 30.0001C61.0003 24.4851 56.5152 20 51.0001 20ZM56.3877 28.2176L50.9701 34.0502C50.6426 34.4027 50.1951 34.5827 49.7476 34.5827C49.3626 34.5827 48.9776 34.4502 48.6626 34.1827L45.7451 31.6827C45.0451 31.0826 44.9651 30.0326 45.5651 29.3326C46.1651 28.6351 47.2176 28.5526 47.9151 29.1526L49.6151 30.6101L53.9427 25.9501C54.5702 25.2751 55.6227 25.2376 56.2977 25.8626C56.9752 26.4876 57.0152 27.5426 56.3877 28.2176Z" fill="#87C067"/>
<path d="M52.6679 48.3332V43.2332C52.1179 43.3007 51.5679 43.3332 51.0004 43.3332C50.4329 43.3332 49.8829 43.3007 49.3329 43.2332V48.3332H27.6651V33.3331H38.0827C37.8152 32.2655 37.6652 31.1505 37.6652 30.0005C37.6652 28.8505 37.8152 27.733 38.0827 26.668H22.6675C21.75 26.668 21 27.418 21 28.333V31.6655C21 32.583 21.75 33.3331 22.6675 33.3331H24.335V48.3332C23.415 48.3332 22.6675 49.0808 22.6675 50.0008C22.6675 50.9208 23.415 51.6683 24.335 51.6683H35.7427L31.3526 57.3109C30.7876 58.0359 30.9176 59.0834 31.6451 59.6509C32.3676 60.2134 33.4177 60.0834 33.9852 59.3584L38.5002 53.5483L43.0178 59.3559C43.5828 60.0809 44.6303 60.2134 45.3578 59.6484C46.0853 59.0834 46.2153 58.0359 45.6503 57.3084L41.2603 51.6658H52.6679C53.5879 51.6658 54.3354 50.9183 54.3354 49.9983C54.3354 49.0783 53.5879 48.3332 52.6679 48.3332Z" fill="#237233"/>
</svg>
