<svg width="412" height="233" viewBox="0 0 412 233" fill="none" xmlns="http://www.w3.org/2000/svg">
<path d="M17 16V188" stroke="#CCCCCC" stroke-width="0.560223"/>
<path d="M92 16V188" stroke="#CCCCCC" stroke-width="0.560223" stroke-dasharray="1.12 1.12"/>
<path d="M173 16V188" stroke="#CCCCCC" stroke-width="0.560223" stroke-dasharray="1.12 1.12"/>
<path d="M253 16V188" stroke="#CCCCCC" stroke-width="0.560223" stroke-dasharray="1.12 1.12"/>
<path d="M333 16V188" stroke="#CCCCCC" stroke-width="0.560223" stroke-dasharray="1.12 1.12"/>
<path d="M411 16V188" stroke="#CCCCCC" stroke-width="0.560223"/>
<rect x="17" y="26" width="251" height="20" fill="#237233"/>
<rect x="17" y="70" width="239" height="20" fill="#237233"/>
<rect x="17" y="114" width="215" height="20" fill="#237233"/>
<rect x="17" y="158" width="185" height="20" fill="#237233"/>
<rect x="348" y="26" width="63" height="20" fill="#C6CB00"/>
<rect x="348" y="70" width="63" height="20" fill="#C6CB00"/>
<rect x="333" y="114" width="78" height="20" fill="#C6CB00"/>
<rect x="312" y="158" width="99" height="20" fill="#C6CB00"/>
<rect x="268" y="26" width="80" height="20" fill="#87C067"/>
<rect x="256" y="70" width="92" height="20" fill="#87C067"/>
<rect x="232" y="114" width="101" height="20" fill="#87C067"/>
<rect x="202" y="158" width="110" height="20" fill="#87C067"/>
<path d="M134.547 41.14C134.2 41.14 133.864 41.0667 133.537 40.92C133.217 40.7733 132.934 40.55 132.687 40.25C132.44 39.9433 132.244 39.5567 132.097 39.09C131.957 38.6167 131.887 38.0533 131.887 37.4C131.887 36.7133 131.964 36.12 132.117 35.62C132.277 35.12 132.49 34.7133 132.757 34.4C133.024 34.08 133.327 33.8433 133.667 33.69C134.014 33.5367 134.377 33.46 134.757 33.46C135.21 33.46 135.6 33.5433 135.927 33.71C136.26 33.87 136.537 34.0667 136.757 34.3L135.977 35.18C135.85 35.0333 135.684 34.9067 135.477 34.8C135.27 34.6933 135.06 34.64 134.847 34.64C134.547 34.64 134.274 34.7267 134.027 34.9C133.787 35.0733 133.594 35.36 133.447 35.76C133.3 36.16 133.227 36.7067 133.227 37.4C133.227 38.04 133.284 38.5533 133.397 38.94C133.517 39.32 133.674 39.5967 133.867 39.77C134.06 39.9433 134.277 40.03 134.517 40.03C134.704 40.03 134.87 39.98 135.017 39.88C135.17 39.7733 135.294 39.62 135.387 39.42C135.48 39.2133 135.527 38.96 135.527 38.66C135.527 38.3667 135.48 38.1267 135.387 37.94C135.3 37.7533 135.177 37.6133 135.017 37.52C134.864 37.4267 134.68 37.38 134.467 37.38C134.267 37.38 134.057 37.4433 133.837 37.57C133.617 37.69 133.414 37.9033 133.227 38.21L133.157 37.22C133.29 37.0333 133.447 36.8733 133.627 36.74C133.814 36.6067 134.004 36.5067 134.197 36.44C134.397 36.3733 134.577 36.34 134.737 36.34C135.15 36.34 135.517 36.4233 135.837 36.59C136.164 36.7567 136.417 37.01 136.597 37.35C136.777 37.69 136.867 38.1267 136.867 38.66C136.867 39.1667 136.76 39.6067 136.547 39.98C136.34 40.3467 136.06 40.6333 135.707 40.84C135.354 41.04 134.967 41.14 134.547 41.14ZM141.056 41V36.45C141.056 36.2367 141.062 35.9833 141.076 35.69C141.089 35.39 141.102 35.13 141.116 34.91H141.066C140.979 35.11 140.886 35.31 140.786 35.51C140.686 35.71 140.582 35.9133 140.476 36.12L139.326 37.96H143.306V39.08H137.896V38.08L140.656 33.59H142.426V41H141.056ZM146.104 38.15C145.757 38.15 145.447 38.0567 145.174 37.87C144.901 37.6833 144.687 37.4133 144.534 37.06C144.381 36.7067 144.304 36.2833 144.304 35.79C144.304 35.2967 144.381 34.8767 144.534 34.53C144.687 34.1833 144.901 33.92 145.174 33.74C145.447 33.5533 145.757 33.46 146.104 33.46C146.464 33.46 146.777 33.5533 147.044 33.74C147.317 33.92 147.531 34.1833 147.684 34.53C147.837 34.8767 147.914 35.2967 147.914 35.79C147.914 36.2833 147.837 36.7067 147.684 37.06C147.531 37.4133 147.317 37.6833 147.044 37.87C146.777 38.0567 146.464 38.15 146.104 38.15ZM146.104 37.32C146.317 37.32 146.497 37.2033 146.644 36.97C146.797 36.73 146.874 36.3367 146.874 35.79C146.874 35.25 146.797 34.8667 146.644 34.64C146.497 34.4067 146.317 34.29 146.104 34.29C145.891 34.29 145.707 34.4067 145.554 34.64C145.407 34.8667 145.334 35.25 145.334 35.79C145.334 36.3367 145.407 36.73 145.554 36.97C145.707 37.2033 145.891 37.32 146.104 37.32ZM146.344 41.14L150.374 33.46H151.244L147.224 41.14H146.344ZM151.494 41.14C151.141 41.14 150.827 41.0467 150.554 40.86C150.287 40.6733 150.074 40.4033 149.914 40.05C149.761 39.6967 149.684 39.2733 149.684 38.78C149.684 38.28 149.761 37.8567 149.914 37.51C150.074 37.1633 150.287 36.9 150.554 36.72C150.827 36.5333 151.141 36.44 151.494 36.44C151.841 36.44 152.147 36.5333 152.414 36.72C152.687 36.9 152.901 37.1633 153.054 37.51C153.214 37.8567 153.294 38.28 153.294 38.78C153.294 39.2733 153.214 39.6967 153.054 40.05C152.901 40.4033 152.687 40.6733 152.414 40.86C152.147 41.0467 151.841 41.14 151.494 41.14ZM151.494 40.3C151.707 40.3 151.887 40.1833 152.034 39.95C152.181 39.71 152.254 39.32 152.254 38.78C152.254 38.2267 152.181 37.84 152.034 37.62C151.887 37.3933 151.707 37.28 151.494 37.28C151.274 37.28 151.091 37.3933 150.944 37.62C150.797 37.84 150.724 38.2267 150.724 38.78C150.724 39.32 150.797 39.71 150.944 39.95C151.091 40.1833 151.274 40.3 151.494 40.3Z" fill="white"/>
<path d="M2.41 30.99L3.21 30.32C3.41667 30.4133 3.63333 30.5233 3.86 30.65C4.08667 30.7767 4.3 30.9067 4.5 31.04C4.70667 31.1733 4.87333 31.3 5 31.42L4.16 32.16C4.04 32.04 3.88 31.91 3.68 31.77C3.48 31.63 3.27 31.49 3.05 31.35C2.83 31.21 2.61667 31.09 2.41 30.99ZM6.92 29.26H7.14L7.34 29.2L8.11 29.66C7.79 30.26 7.38 30.7967 6.88 31.27C6.38 31.7367 5.81667 32.1433 5.19 32.49C4.57 32.8367 3.91 33.1333 3.21 33.38C2.51 33.62 1.8 33.8133 1.08 33.96C1.02667 33.8067 0.946667 33.63 0.84 33.43C0.74 33.2233 0.636667 33.0567 0.53 32.93C1.20333 32.8233 1.86667 32.67 2.52 32.47C3.17333 32.2633 3.78667 32.0133 4.36 31.72C4.93333 31.4267 5.44 31.09 5.88 30.71C6.32 30.3233 6.66667 29.8967 6.92 29.43V29.26ZM3.75 29.26H7.19V30.24H3.75V29.26ZM4.31 28.47L5.62 28.75C5.10667 29.33 4.50667 29.8567 3.82 30.33C3.14 30.8033 2.33667 31.2267 1.41 31.6C1.35 31.5067 1.27333 31.4033 1.18 31.29C1.09333 31.1767 0.996667 31.0667 0.89 30.96C0.79 30.8533 0.696667 30.77 0.61 30.71C1.19667 30.5233 1.72667 30.3067 2.2 30.06C2.67333 29.8133 3.08667 29.5567 3.44 29.29C3.79333 29.0167 4.08333 28.7433 4.31 28.47ZM3.77 34.78L4.64 34.1C4.84667 34.2133 5.06333 34.34 5.29 34.48C5.51667 34.62 5.73333 34.7667 5.94 34.92C6.14667 35.0667 6.31333 35.2033 6.44 35.33L5.51 36.07C5.39667 35.9433 5.24 35.8033 5.04 35.65C4.84667 35.4967 4.63667 35.3433 4.41 35.19C4.19 35.0367 3.97667 34.9 3.77 34.78ZM8.18 32.9H8.42L8.63 32.85L9.42 33.26C9.11333 34.0067 8.71 34.6467 8.21 35.18C7.71667 35.7133 7.14 36.16 6.48 36.52C5.82667 36.88 5.11 37.17 4.33 37.39C3.55667 37.61 2.74 37.78 1.88 37.9C1.83333 37.74 1.76 37.5533 1.66 37.34C1.56 37.1267 1.46 36.95 1.36 36.81C2.15333 36.73 2.91 36.6 3.63 36.42C4.35 36.24 5.01 36.0033 5.61 35.71C6.21 35.41 6.72667 35.0433 7.16 34.61C7.6 34.17 7.94 33.6567 8.18 33.07V32.9ZM5.23 32.9H8.5V33.9H5.23V32.9ZM5.93 31.93L7.24 32.23C6.68667 32.89 6.01333 33.4867 5.22 34.02C4.43333 34.5467 3.48333 35.01 2.37 35.41C2.33 35.31 2.26667 35.2033 2.18 35.09C2.09333 34.97 2.00333 34.8533 1.91 34.74C1.81667 34.6267 1.72667 34.5367 1.64 34.47C2.34 34.2567 2.96333 34.0167 3.51 33.75C4.06333 33.4767 4.54 33.1867 4.94 32.88C5.34667 32.5667 5.67667 32.25 5.93 31.93ZM2.6 41.85C2.57333 41.97 2.55 42.1067 2.53 42.26C2.51667 42.4133 2.50333 42.5633 2.49 42.71C2.48333 42.8567 2.48 42.9767 2.48 43.07C2.47333 43.29 2.47 43.5167 2.47 43.75C2.47667 43.9833 2.48333 44.2233 2.49 44.47C2.50333 44.71 2.52 44.95 2.54 45.19C2.58667 45.67 2.65333 46.0933 2.74 46.46C2.82667 46.8267 2.94 47.1133 3.08 47.32C3.22 47.52 3.39667 47.62 3.61 47.62C3.72333 47.62 3.83333 47.5567 3.94 47.43C4.05333 47.3033 4.15333 47.14 4.24 46.94C4.33333 46.7333 4.41333 46.5167 4.48 46.29C4.55333 46.0633 4.61667 45.85 4.67 45.65L5.67 46.87C5.45 47.45 5.23 47.9133 5.01 48.26C4.79667 48.6 4.57333 48.8467 4.34 49C4.10667 49.1467 3.85333 49.22 3.58 49.22C3.22 49.22 2.87667 49.1 2.55 48.86C2.23 48.62 1.95667 48.2333 1.73 47.7C1.50333 47.16 1.34333 46.4433 1.25 45.55C1.21667 45.2433 1.19 44.92 1.17 44.58C1.15667 44.24 1.14667 43.9167 1.14 43.61C1.14 43.3033 1.14 43.05 1.14 42.85C1.14 42.71 1.13333 42.5433 1.12 42.35C1.10667 42.1567 1.08667 41.9833 1.06 41.83L2.6 41.85ZM7.6 42.08C7.78667 42.3067 7.96667 42.5833 8.14 42.91C8.31333 43.2367 8.47333 43.5867 8.62 43.96C8.76667 44.3333 8.89667 44.7167 9.01 45.11C9.12333 45.4967 9.21333 45.8767 9.28 46.25C9.35333 46.6167 9.4 46.9533 9.42 47.26L8.1 47.77C8.06667 47.3633 8.00667 46.92 7.92 46.44C7.83333 45.96 7.71667 45.4767 7.57 44.99C7.42333 44.5033 7.24667 44.0433 7.04 43.61C6.84 43.1767 6.60333 42.8033 6.33 42.49L7.6 42.08Z" fill="#222222"/>
<path d="M4.39 155.5H5.62V160.38C5.62 160.693 5.58 160.943 5.5 161.13C5.42667 161.31 5.28 161.45 5.06 161.55C4.84667 161.643 4.58667 161.703 4.28 161.73C3.97333 161.757 3.61333 161.77 3.2 161.77C3.17333 161.59 3.11667 161.383 3.03 161.15C2.95 160.91 2.86667 160.703 2.78 160.53C2.96667 160.537 3.15333 160.543 3.34 160.55C3.52667 160.55 3.69333 160.55 3.84 160.55C3.98667 160.55 4.09 160.55 4.15 160.55C4.24333 160.55 4.30667 160.537 4.34 160.51C4.37333 160.483 4.39 160.43 4.39 160.35V155.5ZM6.56 157.18L7.68 156.61C7.95333 156.943 8.22667 157.307 8.5 157.7C8.77333 158.087 9.02333 158.473 9.25 158.86C9.47667 159.247 9.65 159.6 9.77 159.92L8.54 160.58C8.44 160.273 8.28333 159.923 8.07 159.53C7.86333 159.13 7.62667 158.727 7.36 158.32C7.1 157.913 6.83333 157.533 6.56 157.18ZM7.02 159.73L8.3 160.1C8.05333 160.873 7.74 161.537 7.36 162.09C6.98 162.637 6.52 163.097 5.98 163.47C5.44667 163.837 4.82667 164.137 4.12 164.37C3.41333 164.603 2.60667 164.793 1.7 164.94C1.64 164.747 1.55 164.537 1.43 164.31C1.31 164.083 1.18667 163.893 1.06 163.74C1.89333 163.647 2.63333 163.51 3.28 163.33C3.92667 163.15 4.49 162.907 4.97 162.6C5.45667 162.287 5.86667 161.897 6.2 161.43C6.54 160.963 6.81333 160.397 7.02 159.73ZM2.1 156.77L3.44 157.08C3.28 157.493 3.09333 157.923 2.88 158.37C2.66667 158.81 2.43 159.23 2.17 159.63C1.91667 160.03 1.64667 160.38 1.36 160.68C1.26667 160.6 1.15333 160.517 1.02 160.43C0.893333 160.337 0.76 160.25 0.62 160.17C0.486667 160.083 0.37 160.017 0.27 159.97C0.55 159.697 0.806667 159.38 1.04 159.02C1.28 158.653 1.49 158.273 1.67 157.88C1.85667 157.487 2 157.117 2.1 156.77ZM0.83 169.45C1.04333 169.477 1.27 169.497 1.51 169.51C1.75667 169.517 1.97333 169.52 2.16 169.52C2.57333 169.52 2.99 169.497 3.41 169.45C3.83667 169.403 4.24667 169.343 4.64 169.27C5.03333 169.19 5.39 169.1 5.71 169L5.75 170.16C5.46333 170.233 5.12 170.31 4.72 170.39C4.32667 170.463 3.91 170.527 3.47 170.58C3.03 170.627 2.59667 170.65 2.17 170.65C1.97 170.65 1.76667 170.647 1.56 170.64C1.35333 170.633 1.14 170.623 0.92 170.61L0.83 169.45ZM4.72 167.95C4.68 168.117 4.62667 168.333 4.56 168.6C4.49333 168.867 4.41667 169.147 4.33 169.44C4.25 169.733 4.16333 170.023 4.07 170.31C3.92333 170.79 3.73 171.3 3.49 171.84C3.25 172.38 2.99 172.907 2.71 173.42C2.43 173.933 2.14667 174.39 1.86 174.79L0.65 174.17C0.876667 173.89 1.1 173.58 1.32 173.24C1.54 172.9 1.74667 172.55 1.94 172.19C2.13333 171.83 2.30667 171.483 2.46 171.15C2.62 170.81 2.74667 170.503 2.84 170.23C2.96667 169.877 3.07667 169.483 3.17 169.05C3.27 168.61 3.32667 168.197 3.34 167.81L4.72 167.95ZM7.06 171.06C7.04667 171.273 7.04 171.487 7.04 171.7C7.04667 171.907 7.05333 172.12 7.06 172.34C7.06667 172.493 7.07333 172.69 7.08 172.93C7.09333 173.163 7.10667 173.413 7.12 173.68C7.13333 173.94 7.14333 174.19 7.15 174.43C7.16333 174.663 7.17 174.85 7.17 174.99C7.17 175.297 7.10667 175.577 6.98 175.83C6.85333 176.077 6.65 176.273 6.37 176.42C6.09667 176.567 5.72 176.64 5.24 176.64C4.82667 176.64 4.45333 176.577 4.12 176.45C3.78667 176.33 3.52 176.15 3.32 175.91C3.12 175.663 3.02 175.357 3.02 174.99C3.02 174.663 3.10667 174.37 3.28 174.11C3.45333 173.843 3.70333 173.637 4.03 173.49C4.36333 173.337 4.76333 173.26 5.23 173.26C5.81667 173.26 6.35667 173.343 6.85 173.51C7.34333 173.67 7.78667 173.877 8.18 174.13C8.57333 174.383 8.91 174.637 9.19 174.89L8.52 175.96C8.34 175.8 8.13333 175.62 7.9 175.42C7.67333 175.22 7.41667 175.033 7.13 174.86C6.85 174.687 6.54333 174.543 6.21 174.43C5.88333 174.317 5.53 174.26 5.15 174.26C4.86333 174.26 4.63333 174.317 4.46 174.43C4.28667 174.543 4.2 174.69 4.2 174.87C4.2 175.057 4.27333 175.207 4.42 175.32C4.57333 175.433 4.78667 175.49 5.06 175.49C5.28667 175.49 5.46667 175.453 5.6 175.38C5.73333 175.3 5.82667 175.19 5.88 175.05C5.93333 174.903 5.96 174.74 5.96 174.56C5.96 174.407 5.95333 174.19 5.94 173.91C5.92667 173.63 5.91 173.32 5.89 172.98C5.87667 172.64 5.86333 172.3 5.85 171.96C5.83667 171.62 5.82333 171.32 5.81 171.06H7.06ZM8.78 171.59C8.58667 171.43 8.34667 171.26 8.06 171.08C7.77333 170.9 7.47667 170.73 7.17 170.57C6.87 170.403 6.60667 170.27 6.38 170.17L7.02 169.18C7.2 169.26 7.40333 169.36 7.63 169.48C7.86333 169.593 8.09667 169.713 8.33 169.84C8.57 169.967 8.79 170.093 8.99 170.22C9.19667 170.34 9.36333 170.447 9.49 170.54L8.78 171.59ZM2.6 180.85C2.57333 180.97 2.55 181.107 2.53 181.26C2.51667 181.413 2.50333 181.563 2.49 181.71C2.48333 181.857 2.48 181.977 2.48 182.07C2.47333 182.29 2.47 182.517 2.47 182.75C2.47667 182.983 2.48333 183.223 2.49 183.47C2.50333 183.71 2.52 183.95 2.54 184.19C2.58667 184.67 2.65333 185.093 2.74 185.46C2.82667 185.827 2.94 186.113 3.08 186.32C3.22 186.52 3.39667 186.62 3.61 186.62C3.72333 186.62 3.83333 186.557 3.94 186.43C4.05333 186.303 4.15333 186.14 4.24 185.94C4.33333 185.733 4.41333 185.517 4.48 185.29C4.55333 185.063 4.61667 184.85 4.67 184.65L5.67 185.87C5.45 186.45 5.23 186.913 5.01 187.26C4.79667 187.6 4.57333 187.847 4.34 188C4.10667 188.147 3.85333 188.22 3.58 188.22C3.22 188.22 2.87667 188.1 2.55 187.86C2.23 187.62 1.95667 187.233 1.73 186.7C1.50333 186.16 1.34333 185.443 1.25 184.55C1.21667 184.243 1.19 183.92 1.17 183.58C1.15667 183.24 1.14667 182.917 1.14 182.61C1.14 182.303 1.14 182.05 1.14 181.85C1.14 181.71 1.13333 181.543 1.12 181.35C1.10667 181.157 1.08667 180.983 1.06 180.83L2.6 180.85ZM7.6 181.08C7.78667 181.307 7.96667 181.583 8.14 181.91C8.31333 182.237 8.47333 182.587 8.62 182.96C8.76667 183.333 8.89667 183.717 9.01 184.11C9.12333 184.497 9.21333 184.877 9.28 185.25C9.35333 185.617 9.4 185.953 9.42 186.26L8.1 186.77C8.06667 186.363 8.00667 185.92 7.92 185.44C7.83333 184.96 7.71667 184.477 7.57 183.99C7.42333 183.503 7.24667 183.043 7.04 182.61C6.84 182.177 6.60333 181.803 6.33 181.49L7.6 181.08Z" fill="#222222"/>
<path opacity="0.5" d="M170.739 192.04H172.215V200.764C172.215 201.1 172.243 201.316 172.299 201.412C172.363 201.5 172.515 201.544 172.755 201.544C172.811 201.544 172.899 201.544 173.019 201.544C173.147 201.544 173.283 201.544 173.427 201.544C173.579 201.544 173.719 201.544 173.847 201.544C173.975 201.544 174.067 201.544 174.123 201.544C174.291 201.544 174.415 201.484 174.495 201.364C174.575 201.244 174.631 201.028 174.663 200.716C174.703 200.404 174.735 199.968 174.759 199.408C174.935 199.536 175.155 199.66 175.419 199.78C175.683 199.9 175.915 199.984 176.115 200.032C176.067 200.736 175.979 201.3 175.851 201.724C175.731 202.148 175.547 202.456 175.299 202.648C175.051 202.84 174.707 202.936 174.267 202.936C174.211 202.936 174.123 202.936 174.003 202.936C173.883 202.936 173.751 202.936 173.607 202.936C173.463 202.936 173.319 202.936 173.175 202.936C173.039 202.936 172.911 202.936 172.791 202.936C172.679 202.936 172.595 202.936 172.539 202.936C172.075 202.936 171.711 202.872 171.447 202.744C171.183 202.616 170.999 202.392 170.895 202.072C170.791 201.752 170.739 201.308 170.739 200.74V192.04ZM164.991 194.032H168.963V195.328H164.991V194.032ZM166.803 198.124L168.231 196.42V203.08H166.803V198.124ZM166.803 191.812H168.231V194.632H166.803V191.812ZM168.087 196.684C168.199 196.764 168.359 196.892 168.567 197.068C168.775 197.236 168.995 197.424 169.227 197.632C169.467 197.84 169.683 198.032 169.875 198.208C170.075 198.376 170.215 198.504 170.295 198.592L169.407 199.768C169.287 199.6 169.135 199.412 168.951 199.204C168.775 198.988 168.587 198.768 168.387 198.544C168.187 198.32 167.991 198.108 167.799 197.908C167.607 197.708 167.443 197.54 167.307 197.404L168.087 196.684ZM168.579 194.032H168.867L169.107 193.972L169.923 194.5C169.611 195.292 169.203 196.048 168.699 196.768C168.203 197.48 167.655 198.124 167.055 198.7C166.455 199.276 165.847 199.748 165.231 200.116C165.191 199.988 165.127 199.836 165.039 199.66C164.959 199.476 164.875 199.3 164.787 199.132C164.699 198.964 164.619 198.836 164.547 198.748C164.971 198.524 165.387 198.252 165.795 197.932C166.203 197.612 166.587 197.256 166.947 196.864C167.307 196.472 167.627 196.056 167.907 195.616C168.195 195.176 168.419 194.732 168.579 194.284V194.032ZM180.663 192.928H188.079V193.864H180.663V192.928ZM181.059 194.32H187.683V195.22H181.059V194.32ZM180.327 195.7H188.427V196.696H180.327V195.7ZM180.219 198.568H188.523V199.54H180.219V198.568ZM183.615 193.252H185.007V196.156H183.615V193.252ZM183.699 196.804L184.407 197.632C184.055 197.728 183.655 197.812 183.207 197.884C182.767 197.956 182.315 198.012 181.851 198.052C181.395 198.092 180.955 198.124 180.531 198.148C180.515 198.036 180.479 197.896 180.423 197.728C180.367 197.56 180.311 197.42 180.255 197.308C180.663 197.276 181.079 197.236 181.503 197.188C181.927 197.14 182.331 197.084 182.715 197.02C183.099 196.956 183.427 196.884 183.699 196.804ZM181.959 197.428H183.207V201.88C183.207 202.152 183.171 202.364 183.099 202.516C183.035 202.668 182.911 202.788 182.727 202.876C182.543 202.956 182.319 203.004 182.055 203.02C181.791 203.036 181.479 203.044 181.119 203.044C181.087 202.892 181.039 202.716 180.975 202.516C180.911 202.324 180.839 202.156 180.759 202.012C180.967 202.02 181.171 202.024 181.371 202.024C181.571 202.032 181.703 202.032 181.767 202.024C181.895 202.016 181.959 201.956 181.959 201.844V197.428ZM180.135 200.32C180.703 200.272 181.371 200.212 182.139 200.14C182.907 200.06 183.687 199.984 184.479 199.912L184.503 200.908C183.751 200.988 182.995 201.068 182.235 201.148C181.483 201.228 180.815 201.3 180.231 201.364L180.135 200.32ZM184.683 196.948H185.931C185.931 197.636 185.971 198.284 186.051 198.892C186.131 199.492 186.239 200.02 186.375 200.476C186.519 200.924 186.679 201.276 186.855 201.532C187.031 201.788 187.219 201.916 187.419 201.916C187.515 201.916 187.583 201.856 187.623 201.736C187.671 201.608 187.707 201.392 187.731 201.088C187.851 201.208 187.995 201.316 188.163 201.412C188.331 201.508 188.487 201.584 188.631 201.64C188.575 202.024 188.495 202.32 188.391 202.528C188.295 202.744 188.159 202.892 187.983 202.972C187.815 203.052 187.599 203.092 187.335 203.092C186.903 203.092 186.523 202.932 186.195 202.612C185.875 202.3 185.607 201.868 185.391 201.316C185.175 200.756 185.007 200.104 184.887 199.36C184.775 198.616 184.707 197.812 184.683 196.948ZM187.035 199.6L188.127 199.972C187.847 200.388 187.503 200.78 187.095 201.148C186.695 201.516 186.263 201.848 185.799 202.144C185.343 202.448 184.879 202.708 184.407 202.924C184.359 202.844 184.287 202.744 184.191 202.624C184.095 202.512 183.995 202.396 183.891 202.276C183.795 202.164 183.707 202.076 183.627 202.012C184.307 201.748 184.955 201.412 185.571 201.004C186.195 200.588 186.683 200.12 187.035 199.6ZM181.683 192.184L182.823 191.788C182.975 191.964 183.127 192.168 183.279 192.4C183.431 192.624 183.547 192.82 183.627 192.988L182.427 193.432C182.363 193.264 182.259 193.064 182.115 192.832C181.971 192.592 181.827 192.376 181.683 192.184ZM186.051 197.44L186.879 196.84C187.119 196.992 187.367 197.172 187.623 197.38C187.887 197.58 188.091 197.764 188.235 197.932L187.347 198.592C187.211 198.424 187.019 198.232 186.771 198.016C186.523 197.792 186.283 197.6 186.051 197.44ZM185.715 191.776L187.119 192.16C186.943 192.4 186.771 192.628 186.603 192.844C186.435 193.06 186.283 193.248 186.147 193.408L185.055 193.048C185.167 192.864 185.287 192.652 185.415 192.412C185.543 192.172 185.643 191.96 185.715 191.776ZM179.619 191.836L180.891 192.232C180.643 192.888 180.351 193.548 180.015 194.212C179.687 194.868 179.327 195.492 178.935 196.084C178.551 196.668 178.151 197.18 177.735 197.62C177.695 197.508 177.631 197.364 177.543 197.188C177.463 197.012 177.371 196.832 177.267 196.648C177.171 196.464 177.087 196.316 177.015 196.204C177.359 195.852 177.691 195.444 178.011 194.98C178.339 194.508 178.639 194.004 178.911 193.468C179.183 192.932 179.419 192.388 179.619 191.836ZM178.431 195.184L179.775 193.828V193.84V203.068H178.431V195.184ZM195.339 195.904C195.627 195.904 195.883 195.976 196.107 196.12C196.339 196.256 196.523 196.44 196.659 196.672C196.803 196.896 196.875 197.152 196.875 197.44C196.875 197.72 196.803 197.976 196.659 198.208C196.523 198.44 196.339 198.628 196.107 198.772C195.883 198.908 195.627 198.976 195.339 198.976C195.059 198.976 194.803 198.908 194.571 198.772C194.339 198.628 194.151 198.44 194.007 198.208C193.871 197.976 193.803 197.72 193.803 197.44C193.803 197.152 193.871 196.896 194.007 196.672C194.151 196.44 194.339 196.256 194.571 196.12C194.803 195.976 195.059 195.904 195.339 195.904ZM213.255 194.44C213.167 194.536 213.087 194.624 213.015 194.704C212.951 194.784 212.895 194.864 212.847 194.944C212.607 195.328 212.323 195.744 211.995 196.192C211.667 196.64 211.303 197.092 210.903 197.548C210.503 198.004 210.079 198.444 209.631 198.868C209.191 199.292 208.735 199.676 208.263 200.02L207.075 198.904C207.475 198.632 207.851 198.332 208.203 198.004C208.563 197.668 208.895 197.328 209.199 196.984C209.511 196.64 209.787 196.304 210.027 195.976C210.267 195.648 210.467 195.348 210.627 195.076C210.467 195.076 210.255 195.076 209.991 195.076C209.727 195.076 209.419 195.076 209.067 195.076C208.723 195.076 208.359 195.076 207.975 195.076C207.591 195.076 207.207 195.076 206.823 195.076C206.447 195.076 206.087 195.076 205.743 195.076C205.407 195.076 205.111 195.076 204.855 195.076C204.607 195.076 204.415 195.076 204.279 195.076C204.119 195.076 203.947 195.08 203.763 195.088C203.587 195.096 203.419 195.108 203.259 195.124C203.099 195.14 202.979 195.152 202.899 195.16V193.48C203.003 193.488 203.135 193.504 203.295 193.528C203.463 193.552 203.635 193.568 203.811 193.576C203.987 193.584 204.143 193.588 204.279 193.588C204.383 193.588 204.559 193.588 204.807 193.588C205.063 193.588 205.363 193.588 205.707 193.588C206.051 193.588 206.419 193.588 206.811 193.588C207.211 193.588 207.611 193.588 208.011 193.588C208.419 193.588 208.811 193.588 209.187 193.588C209.563 193.588 209.899 193.588 210.195 193.588C210.499 193.588 210.747 193.588 210.939 193.588C211.411 193.588 211.783 193.544 212.055 193.456L213.255 194.44ZM206.919 200.188C206.743 200.012 206.539 199.82 206.307 199.612C206.083 199.396 205.847 199.18 205.599 198.964C205.359 198.748 205.123 198.548 204.891 198.364C204.667 198.172 204.463 198.012 204.279 197.884L205.551 196.864C205.711 196.984 205.899 197.132 206.115 197.308C206.339 197.484 206.575 197.676 206.823 197.884C207.071 198.092 207.323 198.308 207.579 198.532C207.835 198.756 208.079 198.976 208.311 199.192C208.575 199.448 208.847 199.724 209.127 200.02C209.415 200.316 209.687 200.604 209.943 200.884C210.207 201.164 210.431 201.424 210.615 201.664L209.211 202.78C209.043 202.556 208.827 202.296 208.563 202C208.307 201.696 208.035 201.384 207.747 201.064C207.459 200.744 207.183 200.452 206.919 200.188ZM219.795 193.912C219.795 193.712 219.783 193.476 219.759 193.204C219.735 192.924 219.695 192.692 219.639 192.508H221.547C221.515 192.692 221.491 192.928 221.475 193.216C221.459 193.496 221.451 193.732 221.451 193.924C221.451 194.148 221.451 194.392 221.451 194.656C221.451 194.92 221.451 195.192 221.451 195.472C221.451 195.752 221.451 196.024 221.451 196.288C221.451 196.944 221.399 197.568 221.295 198.16C221.191 198.744 221.011 199.304 220.755 199.84C220.507 200.376 220.159 200.88 219.711 201.352C219.271 201.824 218.707 202.264 218.019 202.672L216.531 201.568C217.163 201.28 217.687 200.948 218.103 200.572C218.527 200.196 218.863 199.784 219.111 199.336C219.359 198.888 219.535 198.408 219.639 197.896C219.743 197.384 219.795 196.848 219.795 196.288C219.795 196.024 219.795 195.752 219.795 195.472C219.795 195.184 219.795 194.908 219.795 194.644C219.795 194.372 219.795 194.128 219.795 193.912ZM215.343 195.148C215.527 195.164 215.735 195.184 215.967 195.208C216.199 195.224 216.435 195.232 216.675 195.232C216.779 195.232 216.975 195.232 217.263 195.232C217.559 195.232 217.915 195.232 218.331 195.232C218.747 195.232 219.195 195.232 219.675 195.232C220.155 195.232 220.635 195.232 221.115 195.232C221.603 195.232 222.055 195.232 222.471 195.232C222.887 195.232 223.243 195.232 223.539 195.232C223.835 195.232 224.039 195.232 224.151 195.232C224.431 195.232 224.687 195.224 224.919 195.208C225.159 195.192 225.339 195.176 225.459 195.16V196.792C225.339 196.784 225.147 196.776 224.883 196.768C224.627 196.752 224.379 196.744 224.139 196.744C224.027 196.744 223.823 196.744 223.527 196.744C223.239 196.744 222.883 196.744 222.459 196.744C222.043 196.744 221.595 196.744 221.115 196.744C220.643 196.744 220.167 196.744 219.687 196.744C219.207 196.744 218.759 196.744 218.343 196.744C217.927 196.744 217.575 196.744 217.287 196.744C216.999 196.744 216.811 196.744 216.723 196.744C216.459 196.744 216.211 196.752 215.979 196.768C215.747 196.776 215.535 196.788 215.343 196.804V195.148ZM227.883 196.444C228.027 196.452 228.211 196.464 228.435 196.48C228.659 196.488 228.891 196.496 229.131 196.504C229.379 196.512 229.607 196.516 229.815 196.516C230.015 196.516 230.263 196.516 230.559 196.516C230.855 196.516 231.175 196.516 231.519 196.516C231.871 196.516 232.231 196.516 232.599 196.516C232.975 196.516 233.347 196.516 233.715 196.516C234.083 196.516 234.431 196.516 234.759 196.516C235.087 196.516 235.379 196.516 235.635 196.516C235.899 196.516 236.107 196.516 236.259 196.516C236.539 196.516 236.803 196.508 237.051 196.492C237.299 196.468 237.503 196.452 237.663 196.444V198.328C237.527 198.32 237.323 198.308 237.051 198.292C236.779 198.276 236.515 198.268 236.259 198.268C236.107 198.268 235.899 198.268 235.635 198.268C235.371 198.268 235.075 198.268 234.747 198.268C234.419 198.268 234.071 198.268 233.703 198.268C233.343 198.268 232.975 198.268 232.599 198.268C232.223 198.268 231.859 198.268 231.507 198.268C231.163 198.268 230.843 198.268 230.547 198.268C230.259 198.268 230.015 198.268 229.815 198.268C229.471 198.268 229.119 198.276 228.759 198.292C228.399 198.3 228.107 198.312 227.883 198.328V196.444ZM248.669 193.864C248.621 193.936 248.549 194.048 248.453 194.2C248.365 194.352 248.297 194.492 248.249 194.62C248.081 194.996 247.873 195.416 247.625 195.88C247.385 196.344 247.109 196.812 246.797 197.284C246.493 197.748 246.169 198.184 245.825 198.592C245.377 199.096 244.881 199.596 244.337 200.092C243.801 200.58 243.233 201.032 242.633 201.448C242.041 201.856 241.433 202.208 240.809 202.504L239.573 201.208C240.221 200.96 240.849 200.648 241.457 200.272C242.065 199.896 242.629 199.488 243.149 199.048C243.669 198.608 244.117 198.18 244.493 197.764C244.757 197.46 245.005 197.136 245.237 196.792C245.477 196.448 245.689 196.108 245.873 195.772C246.057 195.428 246.193 195.112 246.281 194.824C246.201 194.824 246.057 194.824 245.849 194.824C245.641 194.824 245.397 194.824 245.117 194.824C244.845 194.824 244.557 194.824 244.253 194.824C243.949 194.824 243.657 194.824 243.377 194.824C243.105 194.824 242.865 194.824 242.657 194.824C242.449 194.824 242.301 194.824 242.213 194.824C242.045 194.824 241.869 194.832 241.685 194.848C241.501 194.856 241.325 194.868 241.157 194.884C240.997 194.892 240.873 194.9 240.785 194.908V193.204C240.905 193.212 241.053 193.224 241.229 193.24C241.405 193.256 241.581 193.268 241.757 193.276C241.941 193.284 242.093 193.288 242.213 193.288C242.317 193.288 242.481 193.288 242.705 193.288C242.929 193.288 243.185 193.288 243.473 193.288C243.761 193.288 244.057 193.288 244.361 193.288C244.673 193.288 244.969 193.288 245.249 193.288C245.537 193.288 245.785 193.288 245.993 193.288C246.201 193.288 246.353 193.288 246.449 193.288C246.713 193.288 246.953 193.272 247.169 193.24C247.393 193.208 247.565 193.172 247.685 193.132L248.669 193.864ZM245.981 197.596C246.293 197.844 246.625 198.132 246.977 198.46C247.329 198.788 247.677 199.128 248.021 199.48C248.365 199.832 248.681 200.172 248.969 200.5C249.265 200.82 249.513 201.1 249.713 201.34L248.345 202.528C248.049 202.12 247.709 201.696 247.325 201.256C246.949 200.816 246.549 200.38 246.125 199.948C245.709 199.508 245.285 199.092 244.853 198.7L245.981 197.596ZM255.509 193.432C255.477 193.256 255.437 193.096 255.389 192.952C255.349 192.808 255.309 192.664 255.269 192.52L256.961 192.244C256.977 192.364 256.993 192.516 257.009 192.7C257.033 192.876 257.061 193.036 257.093 193.18C257.109 193.292 257.145 193.5 257.201 193.804C257.257 194.108 257.325 194.476 257.405 194.908C257.485 195.34 257.573 195.808 257.669 196.312C257.773 196.808 257.873 197.312 257.969 197.824C258.065 198.328 258.157 198.808 258.245 199.264C258.341 199.72 258.421 200.124 258.485 200.476C258.557 200.828 258.609 201.088 258.641 201.256C258.681 201.432 258.729 201.624 258.785 201.832C258.841 202.04 258.897 202.24 258.953 202.432L257.213 202.744C257.181 202.52 257.157 202.304 257.141 202.096C257.125 201.896 257.097 201.708 257.057 201.532C257.025 201.372 256.977 201.128 256.913 200.8C256.857 200.464 256.785 200.072 256.697 199.624C256.617 199.176 256.529 198.7 256.433 198.196C256.337 197.692 256.241 197.188 256.145 196.684C256.049 196.18 255.957 195.708 255.869 195.268C255.789 194.828 255.717 194.448 255.653 194.128C255.589 193.8 255.541 193.568 255.509 193.432ZM252.233 194.956C252.425 194.948 252.613 194.94 252.797 194.932C252.981 194.916 253.165 194.896 253.349 194.872C253.525 194.848 253.773 194.816 254.093 194.776C254.413 194.728 254.781 194.676 255.197 194.62C255.613 194.556 256.041 194.488 256.481 194.416C256.929 194.344 257.361 194.276 257.777 194.212C258.193 194.14 258.561 194.076 258.881 194.02C259.209 193.964 259.465 193.92 259.649 193.888C259.841 193.848 260.041 193.808 260.249 193.768C260.457 193.72 260.633 193.676 260.777 193.636L261.065 195.208C260.937 195.216 260.765 195.236 260.549 195.268C260.333 195.3 260.137 195.328 259.961 195.352C259.745 195.384 259.461 195.428 259.109 195.484C258.765 195.54 258.381 195.604 257.957 195.676C257.533 195.74 257.101 195.808 256.661 195.88C256.221 195.944 255.801 196.012 255.401 196.084C255.001 196.148 254.649 196.204 254.345 196.252C254.041 196.3 253.813 196.336 253.661 196.36C253.469 196.4 253.289 196.44 253.121 196.48C252.953 196.512 252.765 196.556 252.557 196.612L252.233 194.956ZM252.245 198.484C252.405 198.476 252.605 198.46 252.845 198.436C253.093 198.404 253.309 198.376 253.493 198.352C253.709 198.32 253.997 198.276 254.357 198.22C254.717 198.164 255.121 198.1 255.569 198.028C256.025 197.956 256.493 197.884 256.973 197.812C257.453 197.732 257.921 197.652 258.377 197.572C258.833 197.492 259.249 197.42 259.625 197.356C260.001 197.292 260.305 197.24 260.537 197.2C260.769 197.152 260.989 197.104 261.197 197.056C261.413 197.008 261.601 196.96 261.761 196.912L262.085 198.496C261.925 198.504 261.729 198.528 261.497 198.568C261.273 198.6 261.045 198.636 260.813 198.676C260.557 198.716 260.237 198.768 259.853 198.832C259.469 198.896 259.045 198.968 258.581 199.048C258.125 199.12 257.657 199.196 257.177 199.276C256.697 199.348 256.237 199.424 255.797 199.504C255.357 199.576 254.961 199.64 254.609 199.696C254.257 199.752 253.981 199.8 253.781 199.84C253.525 199.888 253.293 199.932 253.085 199.972C252.885 200.012 252.717 200.052 252.581 200.092L252.245 198.484ZM269.657 201.736C269.681 201.616 269.701 201.48 269.717 201.328C269.741 201.168 269.753 201.008 269.753 200.848C269.753 200.76 269.753 200.584 269.753 200.32C269.753 200.056 269.753 199.736 269.753 199.36C269.753 198.984 269.753 198.58 269.753 198.148C269.753 197.708 269.753 197.264 269.753 196.816C269.753 196.368 269.753 195.948 269.753 195.556C269.753 195.156 269.753 194.808 269.753 194.512C269.753 194.208 269.753 193.988 269.753 193.852C269.753 193.58 269.737 193.344 269.705 193.144C269.681 192.944 269.665 192.836 269.657 192.82H271.445C271.437 192.836 271.421 192.948 271.397 193.156C271.373 193.356 271.361 193.592 271.361 193.864C271.361 194 271.361 194.204 271.361 194.476C271.361 194.74 271.361 195.048 271.361 195.4C271.361 195.744 271.361 196.112 271.361 196.504C271.361 196.896 271.361 197.284 271.361 197.668C271.361 198.044 271.361 198.404 271.361 198.748C271.361 199.084 271.361 199.372 271.361 199.612C271.361 199.852 271.361 200.028 271.361 200.14C271.689 199.996 272.029 199.8 272.381 199.552C272.733 199.304 273.077 199.016 273.413 198.688C273.757 198.352 274.061 197.992 274.325 197.608L275.249 198.928C274.921 199.36 274.521 199.784 274.049 200.2C273.585 200.616 273.105 200.996 272.609 201.34C272.113 201.684 271.637 201.972 271.181 202.204C271.053 202.276 270.949 202.34 270.869 202.396C270.789 202.46 270.721 202.516 270.665 202.564L269.657 201.736ZM264.101 201.556C264.629 201.188 265.061 200.744 265.397 200.224C265.733 199.704 265.981 199.192 266.141 198.688C266.229 198.424 266.293 198.1 266.333 197.716C266.381 197.324 266.417 196.908 266.441 196.468C266.465 196.02 266.477 195.58 266.477 195.148C266.485 194.708 266.489 194.304 266.489 193.936C266.489 193.696 266.477 193.492 266.453 193.324C266.437 193.148 266.413 192.984 266.381 192.832H268.145C268.137 192.848 268.125 192.916 268.109 193.036C268.101 193.148 268.089 193.284 268.073 193.444C268.065 193.596 268.061 193.756 268.061 193.924C268.061 194.276 268.057 194.688 268.049 195.16C268.041 195.624 268.025 196.1 268.001 196.588C267.977 197.076 267.941 197.54 267.893 197.98C267.845 198.412 267.781 198.78 267.701 199.084C267.517 199.764 267.241 200.396 266.873 200.98C266.513 201.556 266.077 202.072 265.565 202.528L264.101 201.556Z" fill="#222222"/>
<path opacity="0.5" d="M5.72 6.336H12.512V8.652H11.18V7.464H6.992V8.652H5.72V6.336ZM9.452 8.052H10.784V11.34C10.784 11.516 10.796 11.628 10.82 11.676C10.844 11.716 10.9 11.736 10.988 11.736C11.012 11.736 11.052 11.736 11.108 11.736C11.164 11.736 11.22 11.736 11.276 11.736C11.34 11.736 11.384 11.736 11.408 11.736C11.48 11.736 11.532 11.704 11.564 11.64C11.596 11.568 11.62 11.424 11.636 11.208C11.652 10.984 11.664 10.648 11.672 10.2C11.76 10.28 11.872 10.356 12.008 10.428C12.152 10.492 12.3 10.552 12.452 10.608C12.604 10.656 12.74 10.7 12.86 10.74C12.828 11.324 12.764 11.78 12.668 12.108C12.572 12.436 12.432 12.664 12.248 12.792C12.072 12.92 11.84 12.984 11.552 12.984C11.504 12.984 11.444 12.984 11.372 12.984C11.3 12.984 11.224 12.984 11.144 12.984C11.072 12.984 11 12.984 10.928 12.984C10.856 12.984 10.796 12.984 10.748 12.984C10.396 12.984 10.124 12.932 9.932 12.828C9.748 12.732 9.62 12.564 9.548 12.324C9.484 12.084 9.452 11.76 9.452 11.352V8.052ZM7.328 8.04H8.66C8.644 8.672 8.6 9.248 8.528 9.768C8.456 10.28 8.328 10.748 8.144 11.172C7.96 11.588 7.696 11.956 7.352 12.276C7.016 12.596 6.572 12.876 6.02 13.116C5.972 12.996 5.9 12.86 5.804 12.708C5.708 12.564 5.604 12.424 5.492 12.288C5.388 12.152 5.288 12.04 5.192 11.952C5.664 11.776 6.036 11.568 6.308 11.328C6.588 11.088 6.796 10.812 6.932 10.5C7.076 10.18 7.172 9.82 7.22 9.42C7.276 9.012 7.312 8.552 7.328 8.04ZM5.864 2.7H12.416V3.876H5.864V2.7ZM6.26 4.596H12.068V5.76H6.26V4.596ZM8.348 1.788H9.764V5.184H8.348V1.788ZM1.94 5.484H5.288V6.576H1.94V5.484ZM2.012 2.184H5.24V3.264H2.012V2.184ZM1.94 7.128H5.288V8.208H1.94V7.128ZM1.4 3.792H5.648V4.932H1.4V3.792ZM2.6 8.784H5.312V12.42H2.6V11.292H4.124V9.912H2.6V8.784ZM1.904 8.784H3.068V12.912H1.904V8.784ZM15.608 9.192H23.612V13.104H22.148V10.104H17V13.116H15.608V9.192ZM16.34 10.548H22.664V11.376H16.34V10.548ZM16.34 11.844H22.664V12.756H16.34V11.844ZM18.74 1.764H20.192V8.472H18.74V1.764ZM15.344 2.52H23.552V6.096H15.212V5.244H22.124V3.372H15.344V2.52ZM14.108 3.804H24.932V4.8H14.108V3.804ZM14.948 6.516H24.044V7.38H14.948V6.516ZM14.096 7.824H24.932V8.82H14.096V7.824ZM33.092 3.78C33.012 4.388 32.908 5.036 32.78 5.724C32.652 6.412 32.48 7.108 32.264 7.812C32.032 8.62 31.76 9.316 31.448 9.9C31.136 10.484 30.792 10.936 30.416 11.256C30.048 11.568 29.644 11.724 29.204 11.724C28.764 11.724 28.356 11.576 27.98 11.28C27.612 10.976 27.316 10.56 27.092 10.032C26.876 9.504 26.768 8.904 26.768 8.232C26.768 7.536 26.908 6.88 27.188 6.264C27.468 5.648 27.856 5.104 28.352 4.632C28.856 4.152 29.44 3.776 30.104 3.504C30.776 3.232 31.5 3.096 32.276 3.096C33.02 3.096 33.688 3.216 34.28 3.456C34.88 3.696 35.392 4.028 35.816 4.452C36.24 4.876 36.564 5.372 36.788 5.94C37.012 6.508 37.124 7.12 37.124 7.776C37.124 8.616 36.952 9.368 36.608 10.032C36.264 10.696 35.752 11.244 35.072 11.676C34.4 12.108 33.56 12.404 32.552 12.564L31.652 11.136C31.884 11.112 32.088 11.084 32.264 11.052C32.44 11.02 32.608 10.984 32.768 10.944C33.152 10.848 33.508 10.712 33.836 10.536C34.172 10.352 34.464 10.128 34.712 9.864C34.96 9.592 35.152 9.276 35.288 8.916C35.432 8.556 35.504 8.16 35.504 7.728C35.504 7.256 35.432 6.824 35.288 6.432C35.144 6.04 34.932 5.7 34.652 5.412C34.372 5.116 34.032 4.892 33.632 4.74C33.232 4.58 32.772 4.5 32.252 4.5C31.612 4.5 31.048 4.616 30.56 4.848C30.072 5.072 29.66 5.364 29.324 5.724C28.988 6.084 28.732 6.472 28.556 6.888C28.388 7.304 28.304 7.7 28.304 8.076C28.304 8.476 28.352 8.812 28.448 9.084C28.544 9.348 28.66 9.548 28.796 9.684C28.94 9.812 29.092 9.876 29.252 9.876C29.42 9.876 29.584 9.792 29.744 9.624C29.912 9.448 30.076 9.184 30.236 8.832C30.396 8.48 30.556 8.036 30.716 7.5C30.9 6.924 31.056 6.308 31.184 5.652C31.312 4.996 31.404 4.356 31.46 3.732L33.092 3.78ZM41.984 3.072H44.264V4.272H41.984V3.072ZM38.876 5.184H44.564V6.468H38.876V5.184ZM41.312 1.92H42.56V5.844H41.312V1.92ZM39.548 2.808H40.676V6.108H39.548V2.808ZM43.172 8.604L44.384 8.976C43.992 10.048 43.404 10.912 42.62 11.568C41.844 12.224 40.88 12.74 39.728 13.116C39.664 12.924 39.556 12.716 39.404 12.492C39.252 12.268 39.1 12.08 38.948 11.928C39.98 11.672 40.856 11.28 41.576 10.752C42.296 10.224 42.828 9.508 43.172 8.604ZM42.884 7.08L43.94 6.732C44.108 7.02 44.264 7.34 44.408 7.692C44.56 8.044 44.664 8.348 44.72 8.604L43.592 9.024C43.544 8.768 43.452 8.456 43.316 8.088C43.18 7.72 43.036 7.384 42.884 7.08ZM41.312 6.192H42.56V9.048C42.56 9.32 42.532 9.544 42.476 9.72C42.428 9.888 42.312 10.02 42.128 10.116C41.952 10.204 41.748 10.26 41.516 10.284C41.284 10.3 41.012 10.308 40.7 10.308C40.684 10.14 40.644 9.948 40.58 9.732C40.524 9.516 40.456 9.324 40.376 9.156C40.536 9.156 40.692 9.16 40.844 9.168C40.996 9.168 41.1 9.164 41.156 9.156C41.26 9.156 41.312 9.112 41.312 9.024V6.192ZM39.716 6.768L40.952 7.032C40.84 7.512 40.688 7.988 40.496 8.46C40.304 8.932 40.096 9.332 39.872 9.66C39.792 9.588 39.68 9.516 39.536 9.444C39.4 9.364 39.26 9.288 39.116 9.216C38.98 9.144 38.864 9.088 38.768 9.048C38.984 8.76 39.172 8.412 39.332 8.004C39.492 7.588 39.62 7.176 39.716 6.768ZM44.504 2.28H49.964V3.48H44.504V2.28ZM46.04 7.128V7.872H48.452V7.128H46.04ZM46.04 8.868V9.624H48.452V8.868H46.04ZM46.04 5.388V6.12H48.452V5.388H46.04ZM44.792 4.32H49.748V10.692H44.792V4.32ZM46.58 2.928L48.08 3.096C47.984 3.464 47.876 3.824 47.756 4.176C47.644 4.52 47.544 4.82 47.456 5.076L46.304 4.872C46.336 4.688 46.372 4.484 46.412 4.26C46.452 4.028 46.488 3.796 46.52 3.564C46.552 3.332 46.572 3.12 46.58 2.928ZM45.836 10.68L47 11.424C46.8 11.624 46.56 11.832 46.28 12.048C46.008 12.264 45.72 12.46 45.416 12.636C45.12 12.82 44.832 12.976 44.552 13.104C44.44 12.968 44.288 12.812 44.096 12.636C43.912 12.468 43.744 12.32 43.592 12.192C43.872 12.08 44.152 11.94 44.432 11.772C44.712 11.596 44.976 11.412 45.224 11.22C45.472 11.028 45.676 10.848 45.836 10.68ZM47.444 11.448L48.512 10.752C48.712 10.904 48.924 11.072 49.148 11.256C49.38 11.44 49.596 11.628 49.796 11.82C50.004 12.004 50.176 12.172 50.312 12.324L49.196 13.092C49.076 12.94 48.916 12.768 48.716 12.576C48.516 12.384 48.304 12.188 48.08 11.988C47.864 11.788 47.652 11.608 47.444 11.448ZM53.972 5.184H62.3V6.312H53.972V5.184ZM54.056 8.676H60.644V9.804H54.056V8.676ZM55.592 4.392H56.948V7.116H59.156V4.392H60.56V8.196H55.592V4.392ZM60.284 8.676H60.56L60.812 8.628L61.712 9.084C61.392 9.732 60.972 10.288 60.452 10.752C59.94 11.208 59.352 11.592 58.688 11.904C58.032 12.216 57.32 12.464 56.552 12.648C55.784 12.84 54.98 12.992 54.14 13.104C54.084 12.92 53.996 12.708 53.876 12.468C53.764 12.236 53.652 12.044 53.54 11.892C54.3 11.828 55.032 11.724 55.736 11.58C56.448 11.436 57.1 11.244 57.692 11.004C58.284 10.764 58.8 10.468 59.24 10.116C59.688 9.756 60.036 9.34 60.284 8.868V8.676ZM56.528 9.564C56.888 10.012 57.368 10.396 57.968 10.716C58.568 11.028 59.26 11.28 60.044 11.472C60.828 11.664 61.684 11.8 62.612 11.88C62.508 11.976 62.4 12.096 62.288 12.24C62.184 12.392 62.084 12.544 61.988 12.696C61.9 12.848 61.824 12.988 61.76 13.116C60.792 12.988 59.904 12.796 59.096 12.54C58.288 12.284 57.564 11.948 56.924 11.532C56.284 11.108 55.74 10.6 55.292 10.008L56.528 9.564ZM56.588 1.8H58.088V3.612H56.588V1.8ZM52.988 2.892H62.372V4.176H52.988V2.892ZM52.292 2.892H53.672V6.264C53.672 6.76 53.656 7.3 53.624 7.884C53.592 8.468 53.532 9.068 53.444 9.684C53.356 10.3 53.224 10.9 53.048 11.484C52.88 12.06 52.66 12.58 52.388 13.044C52.308 12.964 52.196 12.868 52.052 12.756C51.908 12.652 51.76 12.552 51.608 12.456C51.456 12.36 51.324 12.292 51.212 12.252C51.46 11.828 51.656 11.36 51.8 10.848C51.944 10.336 52.052 9.816 52.124 9.288C52.196 8.752 52.24 8.224 52.256 7.704C52.28 7.184 52.292 6.704 52.292 6.264V2.892Z" fill="#222222"/>
<path d="M15.91 192.33H24.69V193.36H15.91V192.33ZM19.62 191.49H20.85V192.84H19.62V191.49ZM16.3 196.37H23.62V197.36H17.47V200.9H16.3V196.37ZM23.17 196.37H24.37V199.63C24.37 199.903 24.3367 200.123 24.27 200.29C24.2033 200.463 24.0733 200.597 23.88 200.69C23.6867 200.777 23.4567 200.83 23.19 200.85C22.9233 200.87 22.6067 200.88 22.24 200.88C22.22 200.713 22.1733 200.52 22.1 200.3C22.0267 200.087 21.95 199.907 21.87 199.76C22.1033 199.767 22.3267 199.773 22.54 199.78C22.76 199.78 22.9033 199.777 22.97 199.77C23.05 199.763 23.1033 199.75 23.13 199.73C23.1567 199.71 23.17 199.67 23.17 199.61V196.37ZM18.37 197.82H19.41V200.53H18.37V197.82ZM18.9 197.82H22.21V200.07H18.9V199.26H21.16V198.63H18.9V197.82ZM18.69 194.54V195.15H21.83V194.54H18.69ZM17.55 193.74H23.05V195.95H17.55V193.74ZM28.3 192.85C28.2733 192.97 28.25 193.107 28.23 193.26C28.2167 193.413 28.2033 193.563 28.19 193.71C28.1833 193.857 28.18 193.977 28.18 194.07C28.1733 194.29 28.17 194.517 28.17 194.75C28.1767 194.983 28.1833 195.223 28.19 195.47C28.2033 195.71 28.22 195.95 28.24 196.19C28.2867 196.67 28.3533 197.093 28.44 197.46C28.5267 197.827 28.64 198.113 28.78 198.32C28.92 198.52 29.0967 198.62 29.31 198.62C29.4233 198.62 29.5333 198.557 29.64 198.43C29.7533 198.303 29.8533 198.14 29.94 197.94C30.0333 197.733 30.1133 197.517 30.18 197.29C30.2533 197.063 30.3167 196.85 30.37 196.65L31.37 197.87C31.15 198.45 30.93 198.913 30.71 199.26C30.4967 199.6 30.2733 199.847 30.04 200C29.8067 200.147 29.5533 200.22 29.28 200.22C28.92 200.22 28.5767 200.1 28.25 199.86C27.93 199.62 27.6567 199.233 27.43 198.7C27.2033 198.16 27.0433 197.443 26.95 196.55C26.9167 196.243 26.89 195.92 26.87 195.58C26.8567 195.24 26.8467 194.917 26.84 194.61C26.84 194.303 26.84 194.05 26.84 193.85C26.84 193.71 26.8333 193.543 26.82 193.35C26.8067 193.157 26.7867 192.983 26.76 192.83L28.3 192.85ZM33.3 193.08C33.4867 193.307 33.6667 193.583 33.84 193.91C34.0133 194.237 34.1733 194.587 34.32 194.96C34.4667 195.333 34.5967 195.717 34.71 196.11C34.8233 196.497 34.9133 196.877 34.98 197.25C35.0533 197.617 35.1 197.953 35.12 198.26L33.8 198.77C33.7667 198.363 33.7067 197.92 33.62 197.44C33.5333 196.96 33.4167 196.477 33.27 195.99C33.1233 195.503 32.9467 195.043 32.74 194.61C32.54 194.177 32.3033 193.803 32.03 193.49L33.3 193.08Z" fill="#222222"/>
<path d="M398.7 189.8L399.59 190.71C399.117 190.857 398.597 190.993 398.03 191.12C397.463 191.24 396.883 191.343 396.29 191.43C395.697 191.517 395.123 191.587 394.57 191.64C394.543 191.513 394.497 191.357 394.43 191.17C394.363 190.977 394.297 190.82 394.23 190.7C394.637 190.653 395.043 190.6 395.45 190.54C395.863 190.473 396.267 190.403 396.66 190.33C397.053 190.25 397.423 190.167 397.77 190.08C398.117 189.993 398.427 189.9 398.7 189.8ZM393.92 190.39L395.09 190.77V196.39H393.92V190.39ZM393.27 196.16C393.743 196.1 394.3 196.027 394.94 195.94C395.587 195.847 396.237 195.75 396.89 195.65L396.95 196.72C396.357 196.82 395.757 196.917 395.15 197.01C394.543 197.103 393.993 197.19 393.5 197.27L393.27 196.16ZM394.62 192.88H399.99V193.96H394.62V192.88ZM396.62 190.93H397.83C397.823 191.563 397.84 192.193 397.88 192.82C397.927 193.447 397.987 194.033 398.06 194.58C398.14 195.127 398.23 195.613 398.33 196.04C398.437 196.46 398.547 196.79 398.66 197.03C398.78 197.27 398.897 197.39 399.01 197.39C399.083 197.39 399.14 197.28 399.18 197.06C399.227 196.84 399.253 196.5 399.26 196.04C399.387 196.16 399.537 196.28 399.71 196.4C399.883 196.52 400.047 196.61 400.2 196.67C400.147 197.177 400.067 197.57 399.96 197.85C399.86 198.123 399.723 198.31 399.55 198.41C399.377 198.51 399.157 198.56 398.89 198.56C398.57 198.56 398.287 198.417 398.04 198.13C397.8 197.85 397.59 197.46 397.41 196.96C397.237 196.46 397.093 195.887 396.98 195.24C396.867 194.587 396.78 193.893 396.72 193.16C396.667 192.427 396.633 191.683 396.62 190.93ZM393.63 197.65H397.65V198.7H393.63V197.65ZM392.67 189.54L393.8 189.9C393.587 190.46 393.333 191.027 393.04 191.6C392.747 192.167 392.43 192.707 392.09 193.22C391.75 193.727 391.397 194.17 391.03 194.55C390.997 194.45 390.94 194.323 390.86 194.17C390.787 194.01 390.707 193.85 390.62 193.69C390.533 193.53 390.457 193.4 390.39 193.3C390.69 192.993 390.98 192.64 391.26 192.24C391.547 191.84 391.81 191.41 392.05 190.95C392.297 190.49 392.503 190.02 392.67 189.54ZM391.71 192.31L392.85 191.17V191.18V198.88H391.71V192.31ZM403.3 190.85C403.273 190.97 403.25 191.107 403.23 191.26C403.217 191.413 403.203 191.563 403.19 191.71C403.183 191.857 403.18 191.977 403.18 192.07C403.173 192.29 403.17 192.517 403.17 192.75C403.177 192.983 403.183 193.223 403.19 193.47C403.203 193.71 403.22 193.95 403.24 194.19C403.287 194.67 403.353 195.093 403.44 195.46C403.527 195.827 403.64 196.113 403.78 196.32C403.92 196.52 404.097 196.62 404.31 196.62C404.423 196.62 404.533 196.557 404.64 196.43C404.753 196.303 404.853 196.14 404.94 195.94C405.033 195.733 405.113 195.517 405.18 195.29C405.253 195.063 405.317 194.85 405.37 194.65L406.37 195.87C406.15 196.45 405.93 196.913 405.71 197.26C405.497 197.6 405.273 197.847 405.04 198C404.807 198.147 404.553 198.22 404.28 198.22C403.92 198.22 403.577 198.1 403.25 197.86C402.93 197.62 402.657 197.233 402.43 196.7C402.203 196.16 402.043 195.443 401.95 194.55C401.917 194.243 401.89 193.92 401.87 193.58C401.857 193.24 401.847 192.917 401.84 192.61C401.84 192.303 401.84 192.05 401.84 191.85C401.84 191.71 401.833 191.543 401.82 191.35C401.807 191.157 401.787 190.983 401.76 190.83L403.3 190.85ZM408.3 191.08C408.487 191.307 408.667 191.583 408.84 191.91C409.013 192.237 409.173 192.587 409.32 192.96C409.467 193.333 409.597 193.717 409.71 194.11C409.823 194.497 409.913 194.877 409.98 195.25C410.053 195.617 410.1 195.953 410.12 196.26L408.8 196.77C408.767 196.363 408.707 195.92 408.62 195.44C408.533 194.96 408.417 194.477 408.27 193.99C408.123 193.503 407.947 193.043 407.74 192.61C407.54 192.177 407.303 191.803 407.03 191.49L408.3 191.08Z" fill="#222222"/>
<path d="M128.547 85.14C128.2 85.14 127.864 85.0667 127.537 84.92C127.217 84.7733 126.934 84.55 126.687 84.25C126.44 83.9433 126.244 83.5567 126.097 83.09C125.957 82.6167 125.887 82.0533 125.887 81.4C125.887 80.7133 125.964 80.12 126.117 79.62C126.277 79.12 126.49 78.7133 126.757 78.4C127.024 78.08 127.327 77.8433 127.667 77.69C128.014 77.5367 128.377 77.46 128.757 77.46C129.21 77.46 129.6 77.5433 129.927 77.71C130.26 77.87 130.537 78.0667 130.757 78.3L129.977 79.18C129.85 79.0333 129.684 78.9067 129.477 78.8C129.27 78.6933 129.06 78.64 128.847 78.64C128.547 78.64 128.274 78.7267 128.027 78.9C127.787 79.0733 127.594 79.36 127.447 79.76C127.3 80.16 127.227 80.7067 127.227 81.4C127.227 82.04 127.284 82.5533 127.397 82.94C127.517 83.32 127.674 83.5967 127.867 83.77C128.06 83.9433 128.277 84.03 128.517 84.03C128.704 84.03 128.87 83.98 129.017 83.88C129.17 83.7733 129.294 83.62 129.387 83.42C129.48 83.2133 129.527 82.96 129.527 82.66C129.527 82.3667 129.48 82.1267 129.387 81.94C129.3 81.7533 129.177 81.6133 129.017 81.52C128.864 81.4267 128.68 81.38 128.467 81.38C128.267 81.38 128.057 81.4433 127.837 81.57C127.617 81.69 127.414 81.9033 127.227 82.21L127.157 81.22C127.29 81.0333 127.447 80.8733 127.627 80.74C127.814 80.6067 128.004 80.5067 128.197 80.44C128.397 80.3733 128.577 80.34 128.737 80.34C129.15 80.34 129.517 80.4233 129.837 80.59C130.164 80.7567 130.417 81.01 130.597 81.35C130.777 81.69 130.867 82.1267 130.867 82.66C130.867 83.1667 130.76 83.6067 130.547 83.98C130.34 84.3467 130.06 84.6333 129.707 84.84C129.354 85.04 128.967 85.14 128.547 85.14ZM132.506 85V83.8H134.106V79.13H132.756V78.21C133.129 78.1433 133.449 78.0633 133.716 77.97C133.989 77.87 134.242 77.7433 134.476 77.59H135.566V83.8H136.956V85H132.506ZM140.104 82.15C139.757 82.15 139.447 82.0567 139.174 81.87C138.901 81.6833 138.687 81.4133 138.534 81.06C138.381 80.7067 138.304 80.2833 138.304 79.79C138.304 79.2967 138.381 78.8767 138.534 78.53C138.687 78.1833 138.901 77.92 139.174 77.74C139.447 77.5533 139.757 77.46 140.104 77.46C140.464 77.46 140.777 77.5533 141.044 77.74C141.317 77.92 141.531 78.1833 141.684 78.53C141.837 78.8767 141.914 79.2967 141.914 79.79C141.914 80.2833 141.837 80.7067 141.684 81.06C141.531 81.4133 141.317 81.6833 141.044 81.87C140.777 82.0567 140.464 82.15 140.104 82.15ZM140.104 81.32C140.317 81.32 140.497 81.2033 140.644 80.97C140.797 80.73 140.874 80.3367 140.874 79.79C140.874 79.25 140.797 78.8667 140.644 78.64C140.497 78.4067 140.317 78.29 140.104 78.29C139.891 78.29 139.707 78.4067 139.554 78.64C139.407 78.8667 139.334 79.25 139.334 79.79C139.334 80.3367 139.407 80.73 139.554 80.97C139.707 81.2033 139.891 81.32 140.104 81.32ZM140.344 85.14L144.374 77.46H145.244L141.224 85.14H140.344ZM145.494 85.14C145.141 85.14 144.827 85.0467 144.554 84.86C144.287 84.6733 144.074 84.4033 143.914 84.05C143.761 83.6967 143.684 83.2733 143.684 82.78C143.684 82.28 143.761 81.8567 143.914 81.51C144.074 81.1633 144.287 80.9 144.554 80.72C144.827 80.5333 145.141 80.44 145.494 80.44C145.841 80.44 146.147 80.5333 146.414 80.72C146.687 80.9 146.901 81.1633 147.054 81.51C147.214 81.8567 147.294 82.28 147.294 82.78C147.294 83.2733 147.214 83.6967 147.054 84.05C146.901 84.4033 146.687 84.6733 146.414 84.86C146.147 85.0467 145.841 85.14 145.494 85.14ZM145.494 84.3C145.707 84.3 145.887 84.1833 146.034 83.95C146.181 83.71 146.254 83.32 146.254 82.78C146.254 82.2267 146.181 81.84 146.034 81.62C145.887 81.3933 145.707 81.28 145.494 81.28C145.274 81.28 145.091 81.3933 144.944 81.62C144.797 81.84 144.724 82.2267 144.724 82.78C144.724 83.32 144.797 83.71 144.944 83.95C145.091 84.1833 145.274 84.3 145.494 84.3Z" fill="white"/>
<path d="M116.157 129.14C115.764 129.14 115.414 129.093 115.107 129C114.8 128.907 114.527 128.783 114.287 128.63C114.047 128.477 113.834 128.31 113.647 128.13L114.327 127.19C114.467 127.33 114.617 127.457 114.777 127.57C114.944 127.683 115.124 127.773 115.317 127.84C115.517 127.907 115.73 127.94 115.957 127.94C116.21 127.94 116.434 127.887 116.627 127.78C116.827 127.673 116.984 127.52 117.097 127.32C117.21 127.113 117.267 126.867 117.267 126.58C117.267 126.153 117.15 125.823 116.917 125.59C116.69 125.357 116.39 125.24 116.017 125.24C115.804 125.24 115.62 125.27 115.467 125.33C115.314 125.383 115.127 125.48 114.907 125.62L114.237 125.19L114.437 121.59H118.397V122.83H115.707L115.567 124.4C115.714 124.333 115.857 124.283 115.997 124.25C116.137 124.217 116.29 124.2 116.457 124.2C116.87 124.2 117.25 124.283 117.597 124.45C117.944 124.61 118.22 124.863 118.427 125.21C118.634 125.557 118.737 126 118.737 126.54C118.737 127.087 118.614 127.557 118.367 127.95C118.127 128.337 117.81 128.633 117.417 128.84C117.03 129.04 116.61 129.14 116.157 129.14ZM123.056 129V124.45C123.056 124.237 123.062 123.983 123.076 123.69C123.089 123.39 123.102 123.13 123.116 122.91H123.066C122.979 123.11 122.886 123.31 122.786 123.51C122.686 123.71 122.582 123.913 122.476 124.12L121.326 125.96H125.306V127.08H119.896V126.08L122.656 121.59H124.426V129H123.056ZM128.104 126.15C127.757 126.15 127.447 126.057 127.174 125.87C126.901 125.683 126.687 125.413 126.534 125.06C126.381 124.707 126.304 124.283 126.304 123.79C126.304 123.297 126.381 122.877 126.534 122.53C126.687 122.183 126.901 121.92 127.174 121.74C127.447 121.553 127.757 121.46 128.104 121.46C128.464 121.46 128.777 121.553 129.044 121.74C129.317 121.92 129.531 122.183 129.684 122.53C129.837 122.877 129.914 123.297 129.914 123.79C129.914 124.283 129.837 124.707 129.684 125.06C129.531 125.413 129.317 125.683 129.044 125.87C128.777 126.057 128.464 126.15 128.104 126.15ZM128.104 125.32C128.317 125.32 128.497 125.203 128.644 124.97C128.797 124.73 128.874 124.337 128.874 123.79C128.874 123.25 128.797 122.867 128.644 122.64C128.497 122.407 128.317 122.29 128.104 122.29C127.891 122.29 127.707 122.407 127.554 122.64C127.407 122.867 127.334 123.25 127.334 123.79C127.334 124.337 127.407 124.73 127.554 124.97C127.707 125.203 127.891 125.32 128.104 125.32ZM128.344 129.14L132.374 121.46H133.244L129.224 129.14H128.344ZM133.494 129.14C133.141 129.14 132.827 129.047 132.554 128.86C132.287 128.673 132.074 128.403 131.914 128.05C131.761 127.697 131.684 127.273 131.684 126.78C131.684 126.28 131.761 125.857 131.914 125.51C132.074 125.163 132.287 124.9 132.554 124.72C132.827 124.533 133.141 124.44 133.494 124.44C133.841 124.44 134.147 124.533 134.414 124.72C134.687 124.9 134.901 125.163 135.054 125.51C135.214 125.857 135.294 126.28 135.294 126.78C135.294 127.273 135.214 127.697 135.054 128.05C134.901 128.403 134.687 128.673 134.414 128.86C134.147 129.047 133.841 129.14 133.494 129.14ZM133.494 128.3C133.707 128.3 133.887 128.183 134.034 127.95C134.181 127.71 134.254 127.32 134.254 126.78C134.254 126.227 134.181 125.84 134.034 125.62C133.887 125.393 133.707 125.28 133.494 125.28C133.274 125.28 133.091 125.393 132.944 125.62C132.797 125.84 132.724 126.227 132.724 126.78C132.724 127.32 132.797 127.71 132.944 127.95C133.091 128.183 133.274 128.3 133.494 128.3Z" fill="white"/>
<path d="M101.757 173V168.45C101.757 168.237 101.764 167.983 101.777 167.69C101.79 167.39 101.804 167.13 101.817 166.91H101.767C101.68 167.11 101.587 167.31 101.487 167.51C101.387 167.71 101.284 167.913 101.177 168.12L100.027 169.96H104.007V171.08H98.5971V170.08L101.357 165.59H103.127V173H101.757ZM106.546 173C106.579 172.36 106.636 171.77 106.716 171.23C106.796 170.683 106.909 170.17 107.056 169.69C107.202 169.203 107.392 168.727 107.626 168.26C107.866 167.793 108.162 167.317 108.516 166.83H105.186V165.59H110.106V166.49C109.679 167.01 109.332 167.51 109.066 167.99C108.806 168.47 108.606 168.957 108.466 169.45C108.332 169.943 108.232 170.477 108.166 171.05C108.106 171.623 108.059 172.273 108.026 173H106.546ZM113.104 170.15C112.757 170.15 112.447 170.057 112.174 169.87C111.901 169.683 111.687 169.413 111.534 169.06C111.381 168.707 111.304 168.283 111.304 167.79C111.304 167.297 111.381 166.877 111.534 166.53C111.687 166.183 111.901 165.92 112.174 165.74C112.447 165.553 112.757 165.46 113.104 165.46C113.464 165.46 113.777 165.553 114.044 165.74C114.317 165.92 114.531 166.183 114.684 166.53C114.837 166.877 114.914 167.297 114.914 167.79C114.914 168.283 114.837 168.707 114.684 169.06C114.531 169.413 114.317 169.683 114.044 169.87C113.777 170.057 113.464 170.15 113.104 170.15ZM113.104 169.32C113.317 169.32 113.497 169.203 113.644 168.97C113.797 168.73 113.874 168.337 113.874 167.79C113.874 167.25 113.797 166.867 113.644 166.64C113.497 166.407 113.317 166.29 113.104 166.29C112.891 166.29 112.707 166.407 112.554 166.64C112.407 166.867 112.334 167.25 112.334 167.79C112.334 168.337 112.407 168.73 112.554 168.97C112.707 169.203 112.891 169.32 113.104 169.32ZM113.344 173.14L117.374 165.46H118.244L114.224 173.14H113.344ZM118.494 173.14C118.141 173.14 117.827 173.047 117.554 172.86C117.287 172.673 117.074 172.403 116.914 172.05C116.761 171.697 116.684 171.273 116.684 170.78C116.684 170.28 116.761 169.857 116.914 169.51C117.074 169.163 117.287 168.9 117.554 168.72C117.827 168.533 118.141 168.44 118.494 168.44C118.841 168.44 119.147 168.533 119.414 168.72C119.687 168.9 119.901 169.163 120.054 169.51C120.214 169.857 120.294 170.28 120.294 170.78C120.294 171.273 120.214 171.697 120.054 172.05C119.901 172.403 119.687 172.673 119.414 172.86C119.147 173.047 118.841 173.14 118.494 173.14ZM118.494 172.3C118.707 172.3 118.887 172.183 119.034 171.95C119.181 171.71 119.254 171.32 119.254 170.78C119.254 170.227 119.181 169.84 119.034 169.62C118.887 169.393 118.707 169.28 118.494 169.28C118.274 169.28 118.091 169.393 117.944 169.62C117.797 169.84 117.724 170.227 117.724 170.78C117.724 171.32 117.797 171.71 117.944 171.95C118.091 172.183 118.274 172.3 118.494 172.3Z" fill="white"/>
<path d="M299.817 40V39.15C300.49 38.55 301.064 37.9933 301.537 37.48C302.017 36.9667 302.384 36.49 302.637 36.05C302.89 35.6033 303.017 35.19 303.017 34.81C303.017 34.57 302.974 34.36 302.887 34.18C302.8 34 302.674 33.8633 302.507 33.77C302.347 33.67 302.147 33.62 301.907 33.62C301.64 33.62 301.394 33.6967 301.167 33.85C300.947 33.9967 300.744 34.1733 300.557 34.38L299.737 33.59C300.084 33.2167 300.437 32.9367 300.797 32.75C301.164 32.5567 301.597 32.46 302.097 32.46C302.564 32.46 302.97 32.5567 303.317 32.75C303.67 32.9367 303.944 33.2 304.137 33.54C304.33 33.88 304.427 34.28 304.427 34.74C304.427 35.1867 304.314 35.6433 304.087 36.11C303.867 36.57 303.57 37.03 303.197 37.49C302.824 37.95 302.41 38.4033 301.957 38.85C302.15 38.8233 302.357 38.8033 302.577 38.79C302.804 38.77 303.004 38.76 303.177 38.76H304.777V40H299.817ZM308.636 40.14C308.136 40.14 307.696 39.9967 307.316 39.71C306.942 39.4167 306.649 38.9833 306.436 38.41C306.229 37.83 306.126 37.1133 306.126 36.26C306.126 35.4133 306.229 34.71 306.436 34.15C306.649 33.5833 306.942 33.16 307.316 32.88C307.696 32.6 308.136 32.46 308.636 32.46C309.142 32.46 309.582 32.6033 309.956 32.89C310.329 33.17 310.619 33.59 310.826 34.15C311.039 34.71 311.146 35.4133 311.146 36.26C311.146 37.1133 311.039 37.83 310.826 38.41C310.619 38.9833 310.329 39.4167 309.956 39.71C309.582 39.9967 309.142 40.14 308.636 40.14ZM308.636 38.99C308.856 38.99 309.049 38.9067 309.216 38.74C309.382 38.5733 309.512 38.2933 309.606 37.9C309.699 37.5 309.746 36.9533 309.746 36.26C309.746 35.5733 309.699 35.0367 309.606 34.65C309.512 34.2567 309.382 33.9833 309.216 33.83C309.049 33.67 308.856 33.59 308.636 33.59C308.429 33.59 308.239 33.67 308.066 33.83C307.899 33.9833 307.766 34.2567 307.666 34.65C307.566 35.0367 307.516 35.5733 307.516 36.26C307.516 36.9533 307.566 37.5 307.666 37.9C307.766 38.2933 307.899 38.5733 308.066 38.74C308.239 38.9067 308.429 38.99 308.636 38.99ZM314.104 37.15C313.757 37.15 313.447 37.0567 313.174 36.87C312.901 36.6833 312.687 36.4133 312.534 36.06C312.381 35.7067 312.304 35.2833 312.304 34.79C312.304 34.2967 312.381 33.8767 312.534 33.53C312.687 33.1833 312.901 32.92 313.174 32.74C313.447 32.5533 313.757 32.46 314.104 32.46C314.464 32.46 314.777 32.5533 315.044 32.74C315.317 32.92 315.531 33.1833 315.684 33.53C315.837 33.8767 315.914 34.2967 315.914 34.79C315.914 35.2833 315.837 35.7067 315.684 36.06C315.531 36.4133 315.317 36.6833 315.044 36.87C314.777 37.0567 314.464 37.15 314.104 37.15ZM314.104 36.32C314.317 36.32 314.497 36.2033 314.644 35.97C314.797 35.73 314.874 35.3367 314.874 34.79C314.874 34.25 314.797 33.8667 314.644 33.64C314.497 33.4067 314.317 33.29 314.104 33.29C313.891 33.29 313.707 33.4067 313.554 33.64C313.407 33.8667 313.334 34.25 313.334 34.79C313.334 35.3367 313.407 35.73 313.554 35.97C313.707 36.2033 313.891 36.32 314.104 36.32ZM314.344 40.14L318.374 32.46H319.244L315.224 40.14H314.344ZM319.494 40.14C319.141 40.14 318.827 40.0467 318.554 39.86C318.287 39.6733 318.074 39.4033 317.914 39.05C317.761 38.6967 317.684 38.2733 317.684 37.78C317.684 37.28 317.761 36.8567 317.914 36.51C318.074 36.1633 318.287 35.9 318.554 35.72C318.827 35.5333 319.141 35.44 319.494 35.44C319.841 35.44 320.147 35.5333 320.414 35.72C320.687 35.9 320.901 36.1633 321.054 36.51C321.214 36.8567 321.294 37.28 321.294 37.78C321.294 38.2733 321.214 38.6967 321.054 39.05C320.901 39.4033 320.687 39.6733 320.414 39.86C320.147 40.0467 319.841 40.14 319.494 40.14ZM319.494 39.3C319.707 39.3 319.887 39.1833 320.034 38.95C320.181 38.71 320.254 38.32 320.254 37.78C320.254 37.2267 320.181 36.84 320.034 36.62C319.887 36.3933 319.707 36.28 319.494 36.28C319.274 36.28 319.091 36.3933 318.944 36.62C318.797 36.84 318.724 37.2267 318.724 37.78C318.724 38.32 318.797 38.71 318.944 38.95C319.091 39.1833 319.274 39.3 319.494 39.3Z" fill="white"/>
<path d="M291.817 85V84.15C292.49 83.55 293.064 82.9933 293.537 82.48C294.017 81.9667 294.384 81.49 294.637 81.05C294.89 80.6033 295.017 80.19 295.017 79.81C295.017 79.57 294.974 79.36 294.887 79.18C294.8 79 294.674 78.8633 294.507 78.77C294.347 78.67 294.147 78.62 293.907 78.62C293.64 78.62 293.394 78.6967 293.167 78.85C292.947 78.9967 292.744 79.1733 292.557 79.38L291.737 78.59C292.084 78.2167 292.437 77.9367 292.797 77.75C293.164 77.5567 293.597 77.46 294.097 77.46C294.564 77.46 294.97 77.5567 295.317 77.75C295.67 77.9367 295.944 78.2 296.137 78.54C296.33 78.88 296.427 79.28 296.427 79.74C296.427 80.1867 296.314 80.6433 296.087 81.11C295.867 81.57 295.57 82.03 295.197 82.49C294.824 82.95 294.41 83.4033 293.957 83.85C294.15 83.8233 294.357 83.8033 294.577 83.79C294.804 83.77 295.004 83.76 295.177 83.76H296.777V85H291.817ZM300.416 85.14C300.029 85.14 299.682 85.0933 299.376 85C299.069 84.9133 298.796 84.7933 298.556 84.64C298.322 84.48 298.119 84.3033 297.946 84.11L298.636 83.18C298.862 83.3867 299.109 83.5667 299.376 83.72C299.649 83.8667 299.952 83.94 300.286 83.94C300.539 83.94 300.759 83.9 300.946 83.82C301.139 83.74 301.286 83.6233 301.386 83.47C301.492 83.3167 301.546 83.13 301.546 82.91C301.546 82.6633 301.486 82.4533 301.366 82.28C301.252 82.1 301.049 81.9633 300.756 81.87C300.462 81.7767 300.049 81.73 299.516 81.73V80.67C299.969 80.67 300.326 80.6233 300.586 80.53C300.846 80.43 301.029 80.2967 301.136 80.13C301.249 79.9567 301.306 79.76 301.306 79.54C301.306 79.2533 301.219 79.03 301.046 78.87C300.872 78.7033 300.629 78.62 300.316 78.62C300.056 78.62 299.812 78.68 299.586 78.8C299.366 78.9133 299.146 79.07 298.926 79.27L298.166 78.36C298.492 78.0867 298.836 77.87 299.196 77.71C299.556 77.5433 299.952 77.46 300.386 77.46C300.859 77.46 301.276 77.5367 301.636 77.69C302.002 77.8433 302.286 78.0667 302.486 78.36C302.686 78.6533 302.786 79.01 302.786 79.43C302.786 79.83 302.679 80.1733 302.466 80.46C302.252 80.7467 301.949 80.9667 301.556 81.12V81.17C301.829 81.2433 302.076 81.3633 302.296 81.53C302.522 81.69 302.699 81.8933 302.826 82.14C302.959 82.3867 303.026 82.6733 303.026 83C303.026 83.4467 302.906 83.83 302.666 84.15C302.432 84.47 302.116 84.7167 301.716 84.89C301.322 85.0567 300.889 85.14 300.416 85.14ZM306.104 82.15C305.757 82.15 305.447 82.0567 305.174 81.87C304.901 81.6833 304.687 81.4133 304.534 81.06C304.381 80.7067 304.304 80.2833 304.304 79.79C304.304 79.2967 304.381 78.8767 304.534 78.53C304.687 78.1833 304.901 77.92 305.174 77.74C305.447 77.5533 305.757 77.46 306.104 77.46C306.464 77.46 306.777 77.5533 307.044 77.74C307.317 77.92 307.531 78.1833 307.684 78.53C307.837 78.8767 307.914 79.2967 307.914 79.79C307.914 80.2833 307.837 80.7067 307.684 81.06C307.531 81.4133 307.317 81.6833 307.044 81.87C306.777 82.0567 306.464 82.15 306.104 82.15ZM306.104 81.32C306.317 81.32 306.497 81.2033 306.644 80.97C306.797 80.73 306.874 80.3367 306.874 79.79C306.874 79.25 306.797 78.8667 306.644 78.64C306.497 78.4067 306.317 78.29 306.104 78.29C305.891 78.29 305.707 78.4067 305.554 78.64C305.407 78.8667 305.334 79.25 305.334 79.79C305.334 80.3367 305.407 80.73 305.554 80.97C305.707 81.2033 305.891 81.32 306.104 81.32ZM306.344 85.14L310.374 77.46H311.244L307.224 85.14H306.344ZM311.494 85.14C311.141 85.14 310.827 85.0467 310.554 84.86C310.287 84.6733 310.074 84.4033 309.914 84.05C309.761 83.6967 309.684 83.2733 309.684 82.78C309.684 82.28 309.761 81.8567 309.914 81.51C310.074 81.1633 310.287 80.9 310.554 80.72C310.827 80.5333 311.141 80.44 311.494 80.44C311.841 80.44 312.147 80.5333 312.414 80.72C312.687 80.9 312.901 81.1633 313.054 81.51C313.214 81.8567 313.294 82.28 313.294 82.78C313.294 83.2733 313.214 83.6967 313.054 84.05C312.901 84.4033 312.687 84.6733 312.414 84.86C312.147 85.0467 311.841 85.14 311.494 85.14ZM311.494 84.3C311.707 84.3 311.887 84.1833 312.034 83.95C312.181 83.71 312.254 83.32 312.254 82.78C312.254 82.2267 312.181 81.84 312.034 81.62C311.887 81.3933 311.707 81.28 311.494 81.28C311.274 81.28 311.091 81.3933 310.944 81.62C310.797 81.84 310.724 82.2267 310.724 82.78C310.724 83.32 310.797 83.71 310.944 83.95C311.091 84.1833 311.274 84.3 311.494 84.3Z" fill="white"/>
<path d="M271.817 129V128.15C272.49 127.55 273.064 126.993 273.537 126.48C274.017 125.967 274.384 125.49 274.637 125.05C274.89 124.603 275.017 124.19 275.017 123.81C275.017 123.57 274.974 123.36 274.887 123.18C274.8 123 274.674 122.863 274.507 122.77C274.347 122.67 274.147 122.62 273.907 122.62C273.64 122.62 273.394 122.697 273.167 122.85C272.947 122.997 272.744 123.173 272.557 123.38L271.737 122.59C272.084 122.217 272.437 121.937 272.797 121.75C273.164 121.557 273.597 121.46 274.097 121.46C274.564 121.46 274.97 121.557 275.317 121.75C275.67 121.937 275.944 122.2 276.137 122.54C276.33 122.88 276.427 123.28 276.427 123.74C276.427 124.187 276.314 124.643 276.087 125.11C275.867 125.57 275.57 126.03 275.197 126.49C274.824 126.95 274.41 127.403 273.957 127.85C274.15 127.823 274.357 127.803 274.577 127.79C274.804 127.77 275.004 127.76 275.177 127.76H276.777V129H271.817ZM280.846 129.14C280.499 129.14 280.162 129.067 279.836 128.92C279.516 128.773 279.232 128.55 278.986 128.25C278.739 127.943 278.542 127.557 278.396 127.09C278.256 126.617 278.186 126.053 278.186 125.4C278.186 124.713 278.262 124.12 278.416 123.62C278.576 123.12 278.789 122.713 279.056 122.4C279.322 122.08 279.626 121.843 279.966 121.69C280.312 121.537 280.676 121.46 281.056 121.46C281.509 121.46 281.899 121.543 282.226 121.71C282.559 121.87 282.836 122.067 283.056 122.3L282.276 123.18C282.149 123.033 281.982 122.907 281.776 122.8C281.569 122.693 281.359 122.64 281.146 122.64C280.846 122.64 280.572 122.727 280.326 122.9C280.086 123.073 279.892 123.36 279.746 123.76C279.599 124.16 279.526 124.707 279.526 125.4C279.526 126.04 279.582 126.553 279.696 126.94C279.816 127.32 279.972 127.597 280.166 127.77C280.359 127.943 280.576 128.03 280.816 128.03C281.002 128.03 281.169 127.98 281.316 127.88C281.469 127.773 281.592 127.62 281.686 127.42C281.779 127.213 281.826 126.96 281.826 126.66C281.826 126.367 281.779 126.127 281.686 125.94C281.599 125.753 281.476 125.613 281.316 125.52C281.162 125.427 280.979 125.38 280.766 125.38C280.566 125.38 280.356 125.443 280.136 125.57C279.916 125.69 279.712 125.903 279.526 126.21L279.456 125.22C279.589 125.033 279.746 124.873 279.926 124.74C280.112 124.607 280.302 124.507 280.496 124.44C280.696 124.373 280.876 124.34 281.036 124.34C281.449 124.34 281.816 124.423 282.136 124.59C282.462 124.757 282.716 125.01 282.896 125.35C283.076 125.69 283.166 126.127 283.166 126.66C283.166 127.167 283.059 127.607 282.846 127.98C282.639 128.347 282.359 128.633 282.006 128.84C281.652 129.04 281.266 129.14 280.846 129.14ZM286.104 126.15C285.757 126.15 285.447 126.057 285.174 125.87C284.901 125.683 284.687 125.413 284.534 125.06C284.381 124.707 284.304 124.283 284.304 123.79C284.304 123.297 284.381 122.877 284.534 122.53C284.687 122.183 284.901 121.92 285.174 121.74C285.447 121.553 285.757 121.46 286.104 121.46C286.464 121.46 286.777 121.553 287.044 121.74C287.317 121.92 287.531 122.183 287.684 122.53C287.837 122.877 287.914 123.297 287.914 123.79C287.914 124.283 287.837 124.707 287.684 125.06C287.531 125.413 287.317 125.683 287.044 125.87C286.777 126.057 286.464 126.15 286.104 126.15ZM286.104 125.32C286.317 125.32 286.497 125.203 286.644 124.97C286.797 124.73 286.874 124.337 286.874 123.79C286.874 123.25 286.797 122.867 286.644 122.64C286.497 122.407 286.317 122.29 286.104 122.29C285.891 122.29 285.707 122.407 285.554 122.64C285.407 122.867 285.334 123.25 285.334 123.79C285.334 124.337 285.407 124.73 285.554 124.97C285.707 125.203 285.891 125.32 286.104 125.32ZM286.344 129.14L290.374 121.46H291.244L287.224 129.14H286.344ZM291.494 129.14C291.141 129.14 290.827 129.047 290.554 128.86C290.287 128.673 290.074 128.403 289.914 128.05C289.761 127.697 289.684 127.273 289.684 126.78C289.684 126.28 289.761 125.857 289.914 125.51C290.074 125.163 290.287 124.9 290.554 124.72C290.827 124.533 291.141 124.44 291.494 124.44C291.841 124.44 292.147 124.533 292.414 124.72C292.687 124.9 292.901 125.163 293.054 125.51C293.214 125.857 293.294 126.28 293.294 126.78C293.294 127.273 293.214 127.697 293.054 128.05C292.901 128.403 292.687 128.673 292.414 128.86C292.147 129.047 291.841 129.14 291.494 129.14ZM291.494 128.3C291.707 128.3 291.887 128.183 292.034 127.95C292.181 127.71 292.254 127.32 292.254 126.78C292.254 126.227 292.181 125.84 292.034 125.62C291.887 125.393 291.707 125.28 291.494 125.28C291.274 125.28 291.091 125.393 290.944 125.62C290.797 125.84 290.724 126.227 290.724 126.78C290.724 127.32 290.797 127.71 290.944 127.95C291.091 128.183 291.274 128.3 291.494 128.3Z" fill="white"/>
<path d="M246.817 173V172.15C247.49 171.55 248.064 170.993 248.537 170.48C249.017 169.967 249.384 169.49 249.637 169.05C249.89 168.603 250.017 168.19 250.017 167.81C250.017 167.57 249.974 167.36 249.887 167.18C249.8 167 249.674 166.863 249.507 166.77C249.347 166.67 249.147 166.62 248.907 166.62C248.64 166.62 248.394 166.697 248.167 166.85C247.947 166.997 247.744 167.173 247.557 167.38L246.737 166.59C247.084 166.217 247.437 165.937 247.797 165.75C248.164 165.557 248.597 165.46 249.097 165.46C249.564 165.46 249.97 165.557 250.317 165.75C250.67 165.937 250.944 166.2 251.137 166.54C251.33 166.88 251.427 167.28 251.427 167.74C251.427 168.187 251.314 168.643 251.087 169.11C250.867 169.57 250.57 170.03 250.197 170.49C249.824 170.95 249.41 171.403 248.957 171.85C249.15 171.823 249.357 171.803 249.577 171.79C249.804 171.77 250.004 171.76 250.177 171.76H251.777V173H246.817ZM255.636 173.14C255.162 173.14 254.739 173.057 254.366 172.89C253.992 172.723 253.696 172.49 253.476 172.19C253.262 171.89 253.156 171.547 253.156 171.16C253.156 170.84 253.212 170.56 253.326 170.32C253.446 170.073 253.602 169.86 253.796 169.68C253.989 169.5 254.199 169.35 254.426 169.23V169.18C254.146 168.98 253.912 168.737 253.726 168.45C253.539 168.157 253.446 167.817 253.446 167.43C253.446 167.03 253.542 166.683 253.736 166.39C253.929 166.097 254.192 165.87 254.526 165.71C254.866 165.55 255.249 165.47 255.676 165.47C256.116 165.47 256.496 165.553 256.816 165.72C257.136 165.88 257.382 166.107 257.556 166.4C257.736 166.693 257.826 167.04 257.826 167.44C257.826 167.68 257.779 167.907 257.686 168.12C257.599 168.333 257.482 168.527 257.336 168.7C257.196 168.867 257.042 169.01 256.876 169.13V169.18C257.109 169.3 257.319 169.45 257.506 169.63C257.692 169.81 257.842 170.027 257.956 170.28C258.069 170.527 258.126 170.82 258.126 171.16C258.126 171.533 258.019 171.87 257.806 172.17C257.599 172.47 257.309 172.707 256.936 172.88C256.562 173.053 256.129 173.14 255.636 173.14ZM256.096 168.77C256.276 168.577 256.409 168.377 256.496 168.17C256.582 167.963 256.626 167.75 256.626 167.53C256.626 167.33 256.586 167.153 256.506 167C256.432 166.84 256.322 166.717 256.176 166.63C256.029 166.543 255.852 166.5 255.646 166.5C255.392 166.5 255.179 166.58 255.006 166.74C254.832 166.9 254.746 167.13 254.746 167.43C254.746 167.657 254.802 167.853 254.916 168.02C255.036 168.18 255.199 168.32 255.406 168.44C255.612 168.553 255.842 168.663 256.096 168.77ZM255.666 172.1C255.879 172.1 256.066 172.063 256.226 171.99C256.392 171.91 256.522 171.797 256.616 171.65C256.709 171.497 256.756 171.317 256.756 171.11C256.756 170.917 256.712 170.75 256.626 170.61C256.546 170.463 256.432 170.337 256.286 170.23C256.139 170.117 255.966 170.013 255.766 169.92C255.566 169.827 255.346 169.727 255.106 169.62C254.906 169.787 254.742 169.99 254.616 170.23C254.489 170.463 254.426 170.72 254.426 171C254.426 171.22 254.479 171.413 254.586 171.58C254.699 171.74 254.849 171.867 255.036 171.96C255.222 172.053 255.432 172.1 255.666 172.1ZM261.104 170.15C260.757 170.15 260.447 170.057 260.174 169.87C259.901 169.683 259.687 169.413 259.534 169.06C259.381 168.707 259.304 168.283 259.304 167.79C259.304 167.297 259.381 166.877 259.534 166.53C259.687 166.183 259.901 165.92 260.174 165.74C260.447 165.553 260.757 165.46 261.104 165.46C261.464 165.46 261.777 165.553 262.044 165.74C262.317 165.92 262.531 166.183 262.684 166.53C262.837 166.877 262.914 167.297 262.914 167.79C262.914 168.283 262.837 168.707 262.684 169.06C262.531 169.413 262.317 169.683 262.044 169.87C261.777 170.057 261.464 170.15 261.104 170.15ZM261.104 169.32C261.317 169.32 261.497 169.203 261.644 168.97C261.797 168.73 261.874 168.337 261.874 167.79C261.874 167.25 261.797 166.867 261.644 166.64C261.497 166.407 261.317 166.29 261.104 166.29C260.891 166.29 260.707 166.407 260.554 166.64C260.407 166.867 260.334 167.25 260.334 167.79C260.334 168.337 260.407 168.73 260.554 168.97C260.707 169.203 260.891 169.32 261.104 169.32ZM261.344 173.14L265.374 165.46H266.244L262.224 173.14H261.344ZM266.494 173.14C266.141 173.14 265.827 173.047 265.554 172.86C265.287 172.673 265.074 172.403 264.914 172.05C264.761 171.697 264.684 171.273 264.684 170.78C264.684 170.28 264.761 169.857 264.914 169.51C265.074 169.163 265.287 168.9 265.554 168.72C265.827 168.533 266.141 168.44 266.494 168.44C266.841 168.44 267.147 168.533 267.414 168.72C267.687 168.9 267.901 169.163 268.054 169.51C268.214 169.857 268.294 170.28 268.294 170.78C268.294 171.273 268.214 171.697 268.054 172.05C267.901 172.403 267.687 172.673 267.414 172.86C267.147 173.047 266.841 173.14 266.494 173.14ZM266.494 172.3C266.707 172.3 266.887 172.183 267.034 171.95C267.181 171.71 267.254 171.32 267.254 170.78C267.254 170.227 267.181 169.84 267.034 169.62C266.887 169.393 266.707 169.28 266.494 169.28C266.274 169.28 266.091 169.393 265.944 169.62C265.797 169.84 265.724 170.227 265.724 170.78C265.724 171.32 265.797 171.71 265.944 171.95C266.091 172.183 266.274 172.3 266.494 172.3Z" fill="white"/>
<path d="M369.207 41V39.8H370.807V35.13H369.457V34.21C369.83 34.1433 370.15 34.0633 370.417 33.97C370.69 33.87 370.944 33.7433 371.177 33.59H372.267V39.8H373.657V41H369.207ZM377.846 41.14C377.499 41.14 377.162 41.0667 376.836 40.92C376.516 40.7733 376.232 40.55 375.986 40.25C375.739 39.9433 375.542 39.5567 375.396 39.09C375.256 38.6167 375.186 38.0533 375.186 37.4C375.186 36.7133 375.262 36.12 375.416 35.62C375.576 35.12 375.789 34.7133 376.056 34.4C376.322 34.08 376.626 33.8433 376.966 33.69C377.312 33.5367 377.676 33.46 378.056 33.46C378.509 33.46 378.899 33.5433 379.226 33.71C379.559 33.87 379.836 34.0667 380.056 34.3L379.276 35.18C379.149 35.0333 378.982 34.9067 378.776 34.8C378.569 34.6933 378.359 34.64 378.146 34.64C377.846 34.64 377.572 34.7267 377.326 34.9C377.086 35.0733 376.892 35.36 376.746 35.76C376.599 36.16 376.526 36.7067 376.526 37.4C376.526 38.04 376.582 38.5533 376.696 38.94C376.816 39.32 376.972 39.5967 377.166 39.77C377.359 39.9433 377.576 40.03 377.816 40.03C378.002 40.03 378.169 39.98 378.316 39.88C378.469 39.7733 378.592 39.62 378.686 39.42C378.779 39.2133 378.826 38.96 378.826 38.66C378.826 38.3667 378.779 38.1267 378.686 37.94C378.599 37.7533 378.476 37.6133 378.316 37.52C378.162 37.4267 377.979 37.38 377.766 37.38C377.566 37.38 377.356 37.4433 377.136 37.57C376.916 37.69 376.712 37.9033 376.526 38.21L376.456 37.22C376.589 37.0333 376.746 36.8733 376.926 36.74C377.112 36.6067 377.302 36.5067 377.496 36.44C377.696 36.3733 377.876 36.34 378.036 36.34C378.449 36.34 378.816 36.4233 379.136 36.59C379.462 36.7567 379.716 37.01 379.896 37.35C380.076 37.69 380.166 38.1267 380.166 38.66C380.166 39.1667 380.059 39.6067 379.846 39.98C379.639 40.3467 379.359 40.6333 379.006 40.84C378.652 41.04 378.266 41.14 377.846 41.14ZM383.104 38.15C382.757 38.15 382.447 38.0567 382.174 37.87C381.901 37.6833 381.687 37.4133 381.534 37.06C381.381 36.7067 381.304 36.2833 381.304 35.79C381.304 35.2967 381.381 34.8767 381.534 34.53C381.687 34.1833 381.901 33.92 382.174 33.74C382.447 33.5533 382.757 33.46 383.104 33.46C383.464 33.46 383.777 33.5533 384.044 33.74C384.317 33.92 384.531 34.1833 384.684 34.53C384.837 34.8767 384.914 35.2967 384.914 35.79C384.914 36.2833 384.837 36.7067 384.684 37.06C384.531 37.4133 384.317 37.6833 384.044 37.87C383.777 38.0567 383.464 38.15 383.104 38.15ZM383.104 37.32C383.317 37.32 383.497 37.2033 383.644 36.97C383.797 36.73 383.874 36.3367 383.874 35.79C383.874 35.25 383.797 34.8667 383.644 34.64C383.497 34.4067 383.317 34.29 383.104 34.29C382.891 34.29 382.707 34.4067 382.554 34.64C382.407 34.8667 382.334 35.25 382.334 35.79C382.334 36.3367 382.407 36.73 382.554 36.97C382.707 37.2033 382.891 37.32 383.104 37.32ZM383.344 41.14L387.374 33.46H388.244L384.224 41.14H383.344ZM388.494 41.14C388.141 41.14 387.827 41.0467 387.554 40.86C387.287 40.6733 387.074 40.4033 386.914 40.05C386.761 39.6967 386.684 39.2733 386.684 38.78C386.684 38.28 386.761 37.8567 386.914 37.51C387.074 37.1633 387.287 36.9 387.554 36.72C387.827 36.5333 388.141 36.44 388.494 36.44C388.841 36.44 389.147 36.5333 389.414 36.72C389.687 36.9 389.901 37.1633 390.054 37.51C390.214 37.8567 390.294 38.28 390.294 38.78C390.294 39.2733 390.214 39.6967 390.054 40.05C389.901 40.4033 389.687 40.6733 389.414 40.86C389.147 41.0467 388.841 41.14 388.494 41.14ZM388.494 40.3C388.707 40.3 388.887 40.1833 389.034 39.95C389.181 39.71 389.254 39.32 389.254 38.78C389.254 38.2267 389.181 37.84 389.034 37.62C388.887 37.3933 388.707 37.28 388.494 37.28C388.274 37.28 388.091 37.3933 387.944 37.62C387.797 37.84 387.724 38.2267 387.724 38.78C387.724 39.32 387.797 39.71 387.944 39.95C388.091 40.1833 388.274 40.3 388.494 40.3Z" fill="white"/>
<path d="M369.207 85V83.8H370.807V79.13H369.457V78.21C369.83 78.1433 370.15 78.0633 370.417 77.97C370.69 77.87 370.944 77.7433 371.177 77.59H372.267V83.8H373.657V85H369.207ZM377.846 85.14C377.499 85.14 377.162 85.0667 376.836 84.92C376.516 84.7733 376.232 84.55 375.986 84.25C375.739 83.9433 375.542 83.5567 375.396 83.09C375.256 82.6167 375.186 82.0533 375.186 81.4C375.186 80.7133 375.262 80.12 375.416 79.62C375.576 79.12 375.789 78.7133 376.056 78.4C376.322 78.08 376.626 77.8433 376.966 77.69C377.312 77.5367 377.676 77.46 378.056 77.46C378.509 77.46 378.899 77.5433 379.226 77.71C379.559 77.87 379.836 78.0667 380.056 78.3L379.276 79.18C379.149 79.0333 378.982 78.9067 378.776 78.8C378.569 78.6933 378.359 78.64 378.146 78.64C377.846 78.64 377.572 78.7267 377.326 78.9C377.086 79.0733 376.892 79.36 376.746 79.76C376.599 80.16 376.526 80.7067 376.526 81.4C376.526 82.04 376.582 82.5533 376.696 82.94C376.816 83.32 376.972 83.5967 377.166 83.77C377.359 83.9433 377.576 84.03 377.816 84.03C378.002 84.03 378.169 83.98 378.316 83.88C378.469 83.7733 378.592 83.62 378.686 83.42C378.779 83.2133 378.826 82.96 378.826 82.66C378.826 82.3667 378.779 82.1267 378.686 81.94C378.599 81.7533 378.476 81.6133 378.316 81.52C378.162 81.4267 377.979 81.38 377.766 81.38C377.566 81.38 377.356 81.4433 377.136 81.57C376.916 81.69 376.712 81.9033 376.526 82.21L376.456 81.22C376.589 81.0333 376.746 80.8733 376.926 80.74C377.112 80.6067 377.302 80.5067 377.496 80.44C377.696 80.3733 377.876 80.34 378.036 80.34C378.449 80.34 378.816 80.4233 379.136 80.59C379.462 80.7567 379.716 81.01 379.896 81.35C380.076 81.69 380.166 82.1267 380.166 82.66C380.166 83.1667 380.059 83.6067 379.846 83.98C379.639 84.3467 379.359 84.6333 379.006 84.84C378.652 85.04 378.266 85.14 377.846 85.14ZM383.104 82.15C382.757 82.15 382.447 82.0567 382.174 81.87C381.901 81.6833 381.687 81.4133 381.534 81.06C381.381 80.7067 381.304 80.2833 381.304 79.79C381.304 79.2967 381.381 78.8767 381.534 78.53C381.687 78.1833 381.901 77.92 382.174 77.74C382.447 77.5533 382.757 77.46 383.104 77.46C383.464 77.46 383.777 77.5533 384.044 77.74C384.317 77.92 384.531 78.1833 384.684 78.53C384.837 78.8767 384.914 79.2967 384.914 79.79C384.914 80.2833 384.837 80.7067 384.684 81.06C384.531 81.4133 384.317 81.6833 384.044 81.87C383.777 82.0567 383.464 82.15 383.104 82.15ZM383.104 81.32C383.317 81.32 383.497 81.2033 383.644 80.97C383.797 80.73 383.874 80.3367 383.874 79.79C383.874 79.25 383.797 78.8667 383.644 78.64C383.497 78.4067 383.317 78.29 383.104 78.29C382.891 78.29 382.707 78.4067 382.554 78.64C382.407 78.8667 382.334 79.25 382.334 79.79C382.334 80.3367 382.407 80.73 382.554 80.97C382.707 81.2033 382.891 81.32 383.104 81.32ZM383.344 85.14L387.374 77.46H388.244L384.224 85.14H383.344ZM388.494 85.14C388.141 85.14 387.827 85.0467 387.554 84.86C387.287 84.6733 387.074 84.4033 386.914 84.05C386.761 83.6967 386.684 83.2733 386.684 82.78C386.684 82.28 386.761 81.8567 386.914 81.51C387.074 81.1633 387.287 80.9 387.554 80.72C387.827 80.5333 388.141 80.44 388.494 80.44C388.841 80.44 389.147 80.5333 389.414 80.72C389.687 80.9 389.901 81.1633 390.054 81.51C390.214 81.8567 390.294 82.28 390.294 82.78C390.294 83.2733 390.214 83.6967 390.054 84.05C389.901 84.4033 389.687 84.6733 389.414 84.86C389.147 85.0467 388.841 85.14 388.494 85.14ZM388.494 84.3C388.707 84.3 388.887 84.1833 389.034 83.95C389.181 83.71 389.254 83.32 389.254 82.78C389.254 82.2267 389.181 81.84 389.034 81.62C388.887 81.3933 388.707 81.28 388.494 81.28C388.274 81.28 388.091 81.3933 387.944 81.62C387.797 81.84 387.724 82.2267 387.724 82.78C387.724 83.32 387.797 83.71 387.944 83.95C388.091 84.1833 388.274 84.3 388.494 84.3Z" fill="white"/>
<path d="M361.817 129V128.15C362.49 127.55 363.064 126.993 363.537 126.48C364.017 125.967 364.384 125.49 364.637 125.05C364.89 124.603 365.017 124.19 365.017 123.81C365.017 123.57 364.974 123.36 364.887 123.18C364.8 123 364.674 122.863 364.507 122.77C364.347 122.67 364.147 122.62 363.907 122.62C363.64 122.62 363.394 122.697 363.167 122.85C362.947 122.997 362.744 123.173 362.557 123.38L361.737 122.59C362.084 122.217 362.437 121.937 362.797 121.75C363.164 121.557 363.597 121.46 364.097 121.46C364.564 121.46 364.97 121.557 365.317 121.75C365.67 121.937 365.944 122.2 366.137 122.54C366.33 122.88 366.427 123.28 366.427 123.74C366.427 124.187 366.314 124.643 366.087 125.11C365.867 125.57 365.57 126.03 365.197 126.49C364.824 126.95 364.41 127.403 363.957 127.85C364.15 127.823 364.357 127.803 364.577 127.79C364.804 127.77 365.004 127.76 365.177 127.76H366.777V129H361.817ZM370.636 129.14C370.136 129.14 369.696 128.997 369.316 128.71C368.942 128.417 368.649 127.983 368.436 127.41C368.229 126.83 368.126 126.113 368.126 125.26C368.126 124.413 368.229 123.71 368.436 123.15C368.649 122.583 368.942 122.16 369.316 121.88C369.696 121.6 370.136 121.46 370.636 121.46C371.142 121.46 371.582 121.603 371.956 121.89C372.329 122.17 372.619 122.59 372.826 123.15C373.039 123.71 373.146 124.413 373.146 125.26C373.146 126.113 373.039 126.83 372.826 127.41C372.619 127.983 372.329 128.417 371.956 128.71C371.582 128.997 371.142 129.14 370.636 129.14ZM370.636 127.99C370.856 127.99 371.049 127.907 371.216 127.74C371.382 127.573 371.512 127.293 371.606 126.9C371.699 126.5 371.746 125.953 371.746 125.26C371.746 124.573 371.699 124.037 371.606 123.65C371.512 123.257 371.382 122.983 371.216 122.83C371.049 122.67 370.856 122.59 370.636 122.59C370.429 122.59 370.239 122.67 370.066 122.83C369.899 122.983 369.766 123.257 369.666 123.65C369.566 124.037 369.516 124.573 369.516 125.26C369.516 125.953 369.566 126.5 369.666 126.9C369.766 127.293 369.899 127.573 370.066 127.74C370.239 127.907 370.429 127.99 370.636 127.99ZM376.104 126.15C375.757 126.15 375.447 126.057 375.174 125.87C374.901 125.683 374.687 125.413 374.534 125.06C374.381 124.707 374.304 124.283 374.304 123.79C374.304 123.297 374.381 122.877 374.534 122.53C374.687 122.183 374.901 121.92 375.174 121.74C375.447 121.553 375.757 121.46 376.104 121.46C376.464 121.46 376.777 121.553 377.044 121.74C377.317 121.92 377.531 122.183 377.684 122.53C377.837 122.877 377.914 123.297 377.914 123.79C377.914 124.283 377.837 124.707 377.684 125.06C377.531 125.413 377.317 125.683 377.044 125.87C376.777 126.057 376.464 126.15 376.104 126.15ZM376.104 125.32C376.317 125.32 376.497 125.203 376.644 124.97C376.797 124.73 376.874 124.337 376.874 123.79C376.874 123.25 376.797 122.867 376.644 122.64C376.497 122.407 376.317 122.29 376.104 122.29C375.891 122.29 375.707 122.407 375.554 122.64C375.407 122.867 375.334 123.25 375.334 123.79C375.334 124.337 375.407 124.73 375.554 124.97C375.707 125.203 375.891 125.32 376.104 125.32ZM376.344 129.14L380.374 121.46H381.244L377.224 129.14H376.344ZM381.494 129.14C381.141 129.14 380.827 129.047 380.554 128.86C380.287 128.673 380.074 128.403 379.914 128.05C379.761 127.697 379.684 127.273 379.684 126.78C379.684 126.28 379.761 125.857 379.914 125.51C380.074 125.163 380.287 124.9 380.554 124.72C380.827 124.533 381.141 124.44 381.494 124.44C381.841 124.44 382.147 124.533 382.414 124.72C382.687 124.9 382.901 125.163 383.054 125.51C383.214 125.857 383.294 126.28 383.294 126.78C383.294 127.273 383.214 127.697 383.054 128.05C382.901 128.403 382.687 128.673 382.414 128.86C382.147 129.047 381.841 129.14 381.494 129.14ZM381.494 128.3C381.707 128.3 381.887 128.183 382.034 127.95C382.181 127.71 382.254 127.32 382.254 126.78C382.254 126.227 382.181 125.84 382.034 125.62C381.887 125.393 381.707 125.28 381.494 125.28C381.274 125.28 381.091 125.393 380.944 125.62C380.797 125.84 380.724 126.227 380.724 126.78C380.724 127.32 380.797 127.71 380.944 127.95C381.091 128.183 381.274 128.3 381.494 128.3Z" fill="white"/>
<path d="M350.817 173V172.15C351.49 171.55 352.064 170.993 352.537 170.48C353.017 169.967 353.384 169.49 353.637 169.05C353.89 168.603 354.017 168.19 354.017 167.81C354.017 167.57 353.974 167.36 353.887 167.18C353.8 167 353.674 166.863 353.507 166.77C353.347 166.67 353.147 166.62 352.907 166.62C352.64 166.62 352.394 166.697 352.167 166.85C351.947 166.997 351.744 167.173 351.557 167.38L350.737 166.59C351.084 166.217 351.437 165.937 351.797 165.75C352.164 165.557 352.597 165.46 353.097 165.46C353.564 165.46 353.97 165.557 354.317 165.75C354.67 165.937 354.944 166.2 355.137 166.54C355.33 166.88 355.427 167.28 355.427 167.74C355.427 168.187 355.314 168.643 355.087 169.11C354.867 169.57 354.57 170.03 354.197 170.49C353.824 170.95 353.41 171.403 352.957 171.85C353.15 171.823 353.357 171.803 353.577 171.79C353.804 171.77 354.004 171.76 354.177 171.76H355.777V173H350.817ZM359.456 173.14C359.062 173.14 358.712 173.093 358.406 173C358.099 172.907 357.826 172.783 357.586 172.63C357.346 172.477 357.132 172.31 356.946 172.13L357.626 171.19C357.766 171.33 357.916 171.457 358.076 171.57C358.242 171.683 358.422 171.773 358.616 171.84C358.816 171.907 359.029 171.94 359.256 171.94C359.509 171.94 359.732 171.887 359.926 171.78C360.126 171.673 360.282 171.52 360.396 171.32C360.509 171.113 360.566 170.867 360.566 170.58C360.566 170.153 360.449 169.823 360.216 169.59C359.989 169.357 359.689 169.24 359.316 169.24C359.102 169.24 358.919 169.27 358.766 169.33C358.612 169.383 358.426 169.48 358.206 169.62L357.536 169.19L357.736 165.59H361.696V166.83H359.006L358.866 168.4C359.012 168.333 359.156 168.283 359.296 168.25C359.436 168.217 359.589 168.2 359.756 168.2C360.169 168.2 360.549 168.283 360.896 168.45C361.242 168.61 361.519 168.863 361.726 169.21C361.932 169.557 362.036 170 362.036 170.54C362.036 171.087 361.912 171.557 361.666 171.95C361.426 172.337 361.109 172.633 360.716 172.84C360.329 173.04 359.909 173.14 359.456 173.14ZM365.104 170.15C364.757 170.15 364.447 170.057 364.174 169.87C363.901 169.683 363.687 169.413 363.534 169.06C363.381 168.707 363.304 168.283 363.304 167.79C363.304 167.297 363.381 166.877 363.534 166.53C363.687 166.183 363.901 165.92 364.174 165.74C364.447 165.553 364.757 165.46 365.104 165.46C365.464 165.46 365.777 165.553 366.044 165.74C366.317 165.92 366.531 166.183 366.684 166.53C366.837 166.877 366.914 167.297 366.914 167.79C366.914 168.283 366.837 168.707 366.684 169.06C366.531 169.413 366.317 169.683 366.044 169.87C365.777 170.057 365.464 170.15 365.104 170.15ZM365.104 169.32C365.317 169.32 365.497 169.203 365.644 168.97C365.797 168.73 365.874 168.337 365.874 167.79C365.874 167.25 365.797 166.867 365.644 166.64C365.497 166.407 365.317 166.29 365.104 166.29C364.891 166.29 364.707 166.407 364.554 166.64C364.407 166.867 364.334 167.25 364.334 167.79C364.334 168.337 364.407 168.73 364.554 168.97C364.707 169.203 364.891 169.32 365.104 169.32ZM365.344 173.14L369.374 165.46H370.244L366.224 173.14H365.344ZM370.494 173.14C370.141 173.14 369.827 173.047 369.554 172.86C369.287 172.673 369.074 172.403 368.914 172.05C368.761 171.697 368.684 171.273 368.684 170.78C368.684 170.28 368.761 169.857 368.914 169.51C369.074 169.163 369.287 168.9 369.554 168.72C369.827 168.533 370.141 168.44 370.494 168.44C370.841 168.44 371.147 168.533 371.414 168.72C371.687 168.9 371.901 169.163 372.054 169.51C372.214 169.857 372.294 170.28 372.294 170.78C372.294 171.273 372.214 171.697 372.054 172.05C371.901 172.403 371.687 172.673 371.414 172.86C371.147 173.047 370.841 173.14 370.494 173.14ZM370.494 172.3C370.707 172.3 370.887 172.183 371.034 171.95C371.181 171.71 371.254 171.32 371.254 170.78C371.254 170.227 371.181 169.84 371.034 169.62C370.887 169.393 370.707 169.28 370.494 169.28C370.274 169.28 370.091 169.393 369.944 169.62C369.797 169.84 369.724 170.227 369.724 170.78C369.724 171.32 369.797 171.71 369.944 171.95C370.091 172.183 370.274 172.3 370.494 172.3Z" fill="white"/>
<rect x="292" y="223.078" width="7.84312" height="7.84312" fill="#237233"/>
<path d="M304.114 223.33H312.894V224.36H304.114V223.33ZM307.824 222.49H309.054V223.84H307.824V222.49ZM304.504 227.37H311.824V228.36H305.674V231.9H304.504V227.37ZM311.374 227.37H312.574V230.63C312.574 230.903 312.541 231.123 312.474 231.29C312.407 231.463 312.277 231.597 312.084 231.69C311.891 231.777 311.661 231.83 311.394 231.85C311.127 231.87 310.811 231.88 310.444 231.88C310.424 231.713 310.377 231.52 310.304 231.3C310.231 231.087 310.154 230.907 310.074 230.76C310.307 230.767 310.531 230.773 310.744 230.78C310.964 230.78 311.107 230.777 311.174 230.77C311.254 230.763 311.307 230.75 311.334 230.73C311.361 230.71 311.374 230.67 311.374 230.61V227.37ZM306.574 228.82H307.614V231.53H306.574V228.82ZM307.104 228.82H310.414V231.07H307.104V230.26H309.364V229.63H307.104V228.82ZM306.894 225.54V226.15H310.034V225.54H306.894ZM305.754 224.74H311.254V226.95H305.754V224.74ZM319.164 224.43H323.414V225.51H319.164V224.43ZM319.284 226.42H323.224V227.52H319.284V226.42ZM318.944 228.57H323.614V229.69H318.944V228.57ZM319.174 222.9L320.134 222.57C320.294 222.817 320.434 223.093 320.554 223.4C320.681 223.7 320.767 223.967 320.814 224.2L319.794 224.57C319.761 224.337 319.684 224.067 319.564 223.76C319.451 223.447 319.321 223.16 319.174 222.9ZM322.124 222.49L323.284 222.76C323.157 223.073 323.027 223.383 322.894 223.69C322.761 223.99 322.637 224.25 322.524 224.47L321.534 224.22C321.607 224.06 321.681 223.88 321.754 223.68C321.827 223.48 321.897 223.277 321.964 223.07C322.031 222.857 322.084 222.663 322.124 222.49ZM320.644 224.99H321.794V231.89H320.644V224.99ZM314.224 224.62H319.054V225.62H314.224V224.62ZM314.774 222.97H318.564V227.25H314.724V226.25H317.464V223.97H314.774V222.97ZM315.254 228.02H316.334V231.9H315.254V228.02ZM315.694 228.02H318.744V231.41H315.694V230.38H317.584V229.05H315.694V228.02ZM315.734 223.36L316.864 223.4C316.817 224.373 316.727 225.277 316.594 226.11C316.467 226.937 316.267 227.683 315.994 228.35C315.727 229.017 315.354 229.593 314.874 230.08C314.834 230 314.767 229.903 314.674 229.79C314.581 229.67 314.481 229.55 314.374 229.43C314.267 229.31 314.177 229.217 314.104 229.15C314.517 228.75 314.837 228.26 315.064 227.68C315.291 227.1 315.451 226.443 315.544 225.71C315.637 224.977 315.701 224.193 315.734 223.36Z" fill="#222222"/>
<rect x="335.409" y="223.078" width="7.84312" height="7.84312" fill="#87C067"/>
<path d="M347.793 224.24H356.053V229.26H354.793V225.42H348.993V229.31H347.793V224.24ZM348.413 227.58H355.493V228.76H348.413V227.58ZM351.253 222.5H352.523V231.89H351.253V222.5ZM362.573 224.43H366.823V225.51H362.573V224.43ZM362.693 226.42H366.633V227.52H362.693V226.42ZM362.353 228.57H367.023V229.69H362.353V228.57ZM362.583 222.9L363.543 222.57C363.703 222.817 363.843 223.093 363.963 223.4C364.09 223.7 364.177 223.967 364.223 224.2L363.203 224.57C363.17 224.337 363.093 224.067 362.973 223.76C362.86 223.447 362.73 223.16 362.583 222.9ZM365.533 222.49L366.693 222.76C366.567 223.073 366.437 223.383 366.303 223.69C366.17 223.99 366.047 224.25 365.933 224.47L364.943 224.22C365.017 224.06 365.09 223.88 365.163 223.68C365.237 223.48 365.307 223.277 365.373 223.07C365.44 222.857 365.493 222.663 365.533 222.49ZM364.053 224.99H365.203V231.89H364.053V224.99ZM357.633 224.62H362.463V225.62H357.633V224.62ZM358.183 222.97H361.973V227.25H358.133V226.25H360.873V223.97H358.183V222.97ZM358.663 228.02H359.743V231.9H358.663V228.02ZM359.103 228.02H362.153V231.41H359.103V230.38H360.993V229.05H359.103V228.02ZM359.143 223.36L360.273 223.4C360.227 224.373 360.137 225.277 360.003 226.11C359.877 226.937 359.677 227.683 359.403 228.35C359.137 229.017 358.763 229.593 358.283 230.08C358.243 230 358.177 229.903 358.083 229.79C357.99 229.67 357.89 229.55 357.783 229.43C357.677 229.31 357.587 229.217 357.513 229.15C357.927 228.75 358.247 228.26 358.473 227.68C358.7 227.1 358.86 226.443 358.953 225.71C359.047 224.977 359.11 224.193 359.143 223.36Z" fill="#222222"/>
<rect x="378.817" y="223.078" width="7.84312" height="7.84312" fill="#C6CB00"/>
<path d="M398.721 222.8L399.611 223.71C399.138 223.857 398.618 223.993 398.051 224.12C397.485 224.24 396.905 224.343 396.311 224.43C395.718 224.517 395.145 224.587 394.591 224.64C394.565 224.513 394.518 224.357 394.451 224.17C394.385 223.977 394.318 223.82 394.251 223.7C394.658 223.653 395.065 223.6 395.471 223.54C395.885 223.473 396.288 223.403 396.681 223.33C397.075 223.25 397.445 223.167 397.791 223.08C398.138 222.993 398.448 222.9 398.721 222.8ZM393.941 223.39L395.111 223.77V229.39H393.941V223.39ZM393.291 229.16C393.765 229.1 394.321 229.027 394.961 228.94C395.608 228.847 396.258 228.75 396.911 228.65L396.971 229.72C396.378 229.82 395.778 229.917 395.171 230.01C394.565 230.103 394.015 230.19 393.521 230.27L393.291 229.16ZM394.641 225.88H400.011V226.96H394.641V225.88ZM396.641 223.93H397.851C397.845 224.563 397.861 225.193 397.901 225.82C397.948 226.447 398.008 227.033 398.081 227.58C398.161 228.127 398.251 228.613 398.351 229.04C398.458 229.46 398.568 229.79 398.681 230.03C398.801 230.27 398.918 230.39 399.031 230.39C399.105 230.39 399.161 230.28 399.201 230.06C399.248 229.84 399.275 229.5 399.281 229.04C399.408 229.16 399.558 229.28 399.731 229.4C399.905 229.52 400.068 229.61 400.221 229.67C400.168 230.177 400.088 230.57 399.981 230.85C399.881 231.123 399.745 231.31 399.571 231.41C399.398 231.51 399.178 231.56 398.911 231.56C398.591 231.56 398.308 231.417 398.061 231.13C397.821 230.85 397.611 230.46 397.431 229.96C397.258 229.46 397.115 228.887 397.001 228.24C396.888 227.587 396.801 226.893 396.741 226.16C396.688 225.427 396.655 224.683 396.641 223.93ZM393.651 230.65H397.671V231.7H393.651V230.65ZM392.691 222.54L393.821 222.9C393.608 223.46 393.355 224.027 393.061 224.6C392.768 225.167 392.451 225.707 392.111 226.22C391.771 226.727 391.418 227.17 391.051 227.55C391.018 227.45 390.961 227.323 390.881 227.17C390.808 227.01 390.728 226.85 390.641 226.69C390.555 226.53 390.478 226.4 390.411 226.3C390.711 225.993 391.001 225.64 391.281 225.24C391.568 224.84 391.831 224.41 392.071 223.95C392.318 223.49 392.525 223.02 392.691 222.54ZM391.731 225.31L392.871 224.17V224.18V231.88H391.731V225.31ZM405.981 224.43H410.231V225.51H405.981V224.43ZM406.101 226.42H410.041V227.52H406.101V226.42ZM405.761 228.57H410.431V229.69H405.761V228.57ZM405.991 222.9L406.951 222.57C407.111 222.817 407.251 223.093 407.371 223.4C407.498 223.7 407.585 223.967 407.631 224.2L406.611 224.57C406.578 224.337 406.501 224.067 406.381 223.76C406.268 223.447 406.138 223.16 405.991 222.9ZM408.941 222.49L410.101 222.76C409.975 223.073 409.845 223.383 409.711 223.69C409.578 223.99 409.455 224.25 409.341 224.47L408.351 224.22C408.425 224.06 408.498 223.88 408.571 223.68C408.645 223.48 408.715 223.277 408.781 223.07C408.848 222.857 408.901 222.663 408.941 222.49ZM407.461 224.99H408.611V231.89H407.461V224.99ZM401.041 224.62H405.871V225.62H401.041V224.62ZM401.591 222.97H405.381V227.25H401.541V226.25H404.281V223.97H401.591V222.97ZM402.071 228.02H403.151V231.9H402.071V228.02ZM402.511 228.02H405.561V231.41H402.511V230.38H404.401V229.05H402.511V228.02ZM402.551 223.36L403.681 223.4C403.635 224.373 403.545 225.277 403.411 226.11C403.285 226.937 403.085 227.683 402.811 228.35C402.545 229.017 402.171 229.593 401.691 230.08C401.651 230 401.585 229.903 401.491 229.79C401.398 229.67 401.298 229.55 401.191 229.43C401.085 229.31 400.995 229.217 400.921 229.15C401.335 228.75 401.655 228.26 401.881 227.68C402.108 227.1 402.268 226.443 402.361 225.71C402.455 224.977 402.518 224.193 402.551 223.36Z" fill="#222222"/>
</svg>
