<svg width="429" height="98" viewBox="0 0 429 98" fill="none" xmlns="http://www.w3.org/2000/svg">
<path d="M40.8624 8.88H54.3024V11.4H46.8474V41.22H40.8624V8.88ZM69.5274 8.075H76.0374V13.955C76.0374 30.93 84.9274 36.705 90.0024 39.365L88.5674 41.64C81.2874 38.735 77.4024 35.935 72.8524 29.95C70.4724 33.52 67.1474 37.825 57.3474 41.535L55.8074 39.505C68.3724 32.61 69.5274 22.145 69.5274 15.075V8.075ZM105.192 37.405L103.372 35.795C108.412 30.65 111.177 22.74 112.052 17.98H106.942V15.495H115.027V8.005H121.432V15.495H124.547V17.98H121.432V36.845C121.432 38.49 121.432 41.115 117.582 41.115H110.687L109.987 38.35C110.652 38.42 113.487 38.63 114.082 38.63C115.027 38.63 115.027 38.21 115.027 36.95V26.94C111.807 32.785 107.537 35.83 105.192 37.405ZM107.397 27.745L105.822 29.74C104.527 28.69 103.792 28.025 102.217 26.415V41.395H96.0574V30.195C93.8174 32.96 92.5574 34.045 91.8224 34.71L90.4224 32.505C93.3974 28.025 95.4624 22.145 96.0574 17.98H91.2974V15.495H96.0574V8.005H102.217V15.495H106.032V17.98H102.392C102.602 18.82 103.512 22.985 107.397 27.745ZM159.687 34.01L154.122 38.035C149.887 30.545 146.562 24.49 143.027 18.05C141.802 15.775 141.662 15.53 140.892 15.53C140.577 15.53 140.332 15.67 140.122 15.915C139.492 16.615 134.697 24.21 131.582 29.355L126.262 25.47C129.937 21.445 136.097 15.145 136.202 15.04C139.107 12.17 140.157 12.03 140.997 12.03C143.237 12.03 144.952 14.06 148.312 18.33C149.922 20.36 153.702 25.26 159.687 34.01ZM179.972 39.12L179.132 36.355C181.862 35.62 187.952 33.94 187.952 23.93C187.952 16.265 183.472 14.62 181.687 13.955C181.337 17.98 180.672 25.225 178.852 30.545C177.067 35.795 174.512 37.685 171.117 37.685C165.657 37.685 162.752 32.4 162.752 26.695C162.752 18.645 168.212 10.665 179.447 10.665C186.062 10.665 194.497 13.675 194.497 24.385C194.497 36.39 184.067 38.35 179.972 39.12ZM175.387 13.955C173.917 14.515 172.412 15.11 170.732 17.49C168.562 20.605 167.932 24.665 167.932 28.305C167.932 29.39 167.932 34.36 170.242 34.36C172.202 34.36 174.582 26.345 175.387 13.955ZM211.876 27.29L214.816 26.38H209.461V23.93H229.726C229.306 28.69 228.116 32.225 224.161 35.69C225.631 36.74 227.416 37.755 231.511 39.295L230.181 41.5C225.911 40.45 222.831 39.19 220.696 38.07C216.601 40.345 212.541 41.115 209.006 41.535L207.536 39.505C211.771 38.63 215.201 36.775 216.811 35.62C213.031 32.435 212.226 29.285 211.876 27.29ZM206.626 15.355H209.041V17.84H206.626V24.035C207.466 23.72 207.851 23.545 208.341 23.37L209.041 25.785C208.481 26.17 208.131 26.45 206.626 27.29V36.775C206.626 40.275 205.576 41.115 202.531 41.115H198.156L197.666 38.49C198.401 38.63 199.136 38.735 199.626 38.735C200.606 38.735 200.606 38.21 200.606 36.985V30.51C200.221 30.72 198.611 31.595 198.226 31.7L197.001 26.94C198.786 26.555 198.961 26.52 200.606 26.03V17.84H197.596V15.355H200.606V8.075H206.626V15.355ZM222.621 26.38H218.421C219.086 29.74 220.031 31.21 220.486 31.875C222.201 29.25 222.481 27.255 222.621 26.38ZM212.121 9.195H225.876V19.31C225.876 19.695 225.946 19.695 226.541 19.695C226.716 19.695 226.751 19.52 226.751 19.38C226.786 18.75 226.821 15.74 226.786 14.69C228.326 15.425 229.551 15.845 231.266 16.23C230.881 21.06 229.866 22.18 227.381 22.18H222.831C220.871 22.18 219.751 21.795 219.751 18.645V11.68H218.246V12.52C218.246 18.225 215.796 21.62 210.931 23.755L209.076 21.795C211.386 19.03 212.121 16.79 212.121 11.995V9.195ZM266.266 19.17L264.586 21.305C263.956 21.27 263.536 21.235 262.101 20.92V35.375H258.566C258.916 35.76 261.646 38.595 266.301 39.33L264.341 41.43C260.421 41.115 254.856 40.24 250.621 37.23L254.821 35.375H243.761L247.681 37.23C244.601 39.225 238.056 41.15 233.926 41.325L231.966 39.33C235.256 38.63 236.971 37.86 239.806 35.375H236.411V20.29C235.641 20.78 234.381 21.585 234.136 21.725L231.966 17.875C232.351 17.77 238.441 15.88 242.431 13.71L242.781 14.795C243.691 13.64 245.231 11.645 245.371 7.585L252.791 8.46C252.651 8.705 252.161 9.545 251.741 10.21H265.531C264.656 12.1 262.906 14.235 261.051 15.53L257.866 14.795C260.106 17.105 263.081 18.54 266.266 19.17ZM242.746 23.825H255.626V21.935H242.746V23.825ZM255.626 26.31H242.746V28.2H255.626V26.31ZM242.816 19.45L241.626 18.05C248.521 16.895 249.431 14.235 249.956 12.66H249.711C247.856 14.41 245.756 15.53 244.601 16.125L242.781 14.83L243.096 15.81C241.556 16.965 241.451 17.035 237.706 19.45H242.816ZM255.626 30.685H242.746V32.89H255.626V30.685ZM258.391 12.66H256.326C256.501 13.045 256.816 13.675 257.831 14.725C258.006 14.235 258.286 13.395 258.391 12.66ZM247.226 19.45H257.831C255.206 18.295 254.261 17.63 253.246 16.86C251.671 18.05 249.361 18.89 247.226 19.45ZM242.256 10.49L237.846 15.355C237.076 14.025 235.781 11.995 233.051 9.685L234.381 7.935C236.446 8.25 240.121 9.51 242.256 10.49ZM281.281 40.52H267.841V38H275.296V8.18H281.281V40.52ZM311.572 11.26L310.417 17.28C306.602 15.67 299.847 13.955 291.097 13.71V11.015C296.697 10.28 299.952 10.28 300.757 10.28C304.397 10.28 308.002 10.595 311.572 11.26ZM291.867 25.82L294.247 27.15C293.267 28.34 292.252 29.88 292.252 31.455C292.252 34.255 295.647 34.255 299.322 34.255C302.017 34.255 306.672 34.15 313.532 32.33V38.28C308.387 39.015 303.802 39.05 302.157 39.05C298.622 39.05 288.087 39.05 288.087 32.89C288.087 29.25 290.677 26.905 291.867 25.82ZM331.12 15.425L326.535 20.01C325.38 17.63 323.175 13.885 320.095 10.735L321.95 8.88C325.24 10.63 328.565 13.08 331.12 15.425ZM317.82 25.19L317.68 22.355C322.37 21.795 328.32 21.34 331.05 21.13C333.955 17.21 336.055 12.205 337.14 8.495L343.965 10.42C342.635 12.66 339.905 16.965 336.3 20.745C339.03 20.57 343.195 20.325 347.045 20.185L347.15 22.95C341.795 22.985 338.4 23.09 335.285 24.875C333.5 25.89 330.7 28.27 330.7 32.225C330.7 36.6 333.15 37.685 337.35 37.685C338.47 37.685 341.27 37.545 342.355 37.37L341.9 40.52C338.505 40.555 335.985 40.555 334.095 40.45C330.105 40.24 324.75 38.105 324.75 32.855C324.75 27.71 329.965 24.7 331.995 23.755C328.705 23.93 323.315 24.385 317.82 25.19ZM382.136 22.495L376.326 26.625C375.871 22.985 374.646 18.155 372.231 14.375L374.961 12.345C377.271 14.76 380.141 18.575 382.136 22.495ZM381.471 13.29L379.056 15.215C378.041 13.605 376.571 11.89 375.416 10.77L377.131 9.405C378.706 10.525 380.141 11.82 381.471 13.29ZM350.846 22.005L350.146 18.855C352.736 18.015 354.486 17.56 357.006 17.105C357.741 15.005 358.966 11.435 359.946 8.88L365.546 10.7C365.091 11.855 364.741 12.905 363.586 16.37C364.461 16.3 365.511 16.3 366.106 16.3C371.251 16.3 373.176 18.54 373.176 24.385C373.176 28.095 372.651 33.065 371.251 36.075C370.796 37.09 369.256 40.065 365.896 40.065C363.446 40.065 360.576 38.525 358.966 37.65L359.946 34.57C361.451 35.76 362.711 36.46 363.341 36.46C364.111 36.46 364.496 35.76 364.811 35.165C365.721 33.45 367.156 29.6 367.156 23.055C367.156 19.59 366.666 18.75 364.426 18.75C364.041 18.75 363.376 18.785 362.781 18.855C360.926 24.56 358.966 30.65 356.096 40.17L349.971 37.965C351.896 32.015 353.926 26.1 355.956 20.185C354.696 20.535 352.876 21.06 350.846 22.005ZM384.446 10.77L382.101 12.695C381.191 11.4 380.001 10.07 378.671 9.02L380.491 7.55C381.786 8.39 383.291 9.58 384.446 10.77ZM47.7729 60.26L46.6179 66.28C42.803 64.67 36.048 62.955 27.2979 62.71V60.015C32.898 59.28 36.153 59.28 36.958 59.28C40.598 59.28 44.2029 59.595 47.7729 60.26ZM28.0679 74.82L30.4479 76.15C29.4679 77.34 28.4529 78.88 28.4529 80.455C28.4529 83.255 31.848 83.255 35.5229 83.255C38.2179 83.255 42.873 83.15 49.733 81.33V87.28C44.588 88.015 40.0029 88.05 38.3579 88.05C34.8229 88.05 24.2879 88.05 24.2879 81.89C24.2879 78.25 26.8779 75.905 28.0679 74.82ZM71.0753 88.12L70.2353 85.355C72.9653 84.62 79.0553 82.94 79.0553 72.93C79.0553 65.265 74.5753 63.62 72.7903 62.955C72.4403 66.98 71.7753 74.225 69.9553 79.545C68.1703 84.795 65.6153 86.685 62.2203 86.685C56.7603 86.685 53.8553 81.4 53.8553 75.695C53.8553 67.645 59.3153 59.665 70.5503 59.665C77.1653 59.665 85.6003 62.675 85.6003 73.385C85.6003 85.39 75.1703 87.35 71.0753 88.12ZM66.4903 62.955C65.0203 63.515 63.5153 64.11 61.8353 66.49C59.6653 69.605 59.0353 73.665 59.0353 77.305C59.0353 78.39 59.0353 83.36 61.3453 83.36C63.3053 83.36 65.6853 75.345 66.4903 62.955ZM89.8197 58.265H120.795V90.29H114.6V89.03H96.0147V90.29H89.8197V58.265ZM108.195 75.625L110.505 74.82C113.48 77.06 113.83 77.305 114.6 78.18V60.715H96.0147V86.545H114.6V78.6L110.54 80.98H113.795V83.465H96.6447V80.98H101.895V74.19H97.9047V71.74H101.895V66.525H97.2747V64.04H113.305V66.525H108.195V71.74H112.71V74.19H108.195V75.625ZM108.195 80.98H109.63C109.455 79.86 109 77.795 108.195 75.8V80.98ZM141.725 88.12L140.885 85.355C143.615 84.62 149.705 82.94 149.705 72.93C149.705 65.265 145.225 63.62 143.44 62.955C143.09 66.98 142.425 74.225 140.605 79.545C138.82 84.795 136.265 86.685 132.87 86.685C127.41 86.685 124.505 81.4 124.505 75.695C124.505 67.645 129.965 59.665 141.2 59.665C147.815 59.665 156.25 62.675 156.25 73.385C156.25 85.39 145.82 87.35 141.725 88.12ZM137.14 62.955C135.67 63.515 134.165 64.11 132.485 66.49C130.315 69.605 129.685 73.665 129.685 77.305C129.685 78.39 129.685 83.36 131.995 83.36C133.955 83.36 136.335 75.345 137.14 62.955ZM192.739 87.105L191.024 88.855C188.434 87.455 183.184 84.445 179.054 78.635V90.395H172.649V78.775C169.604 83.22 166.104 86.09 160.889 88.855L159.279 87C164.039 82.835 166.979 77.41 168.099 73.84H159.279V71.355H172.649V65.055H161.904V62.57H172.649V57.04H179.054V62.57H190.079V65.055H179.054V71.355H192.599V73.84H183.779C184.794 77.165 187.944 82.765 192.739 87.105ZM228.054 86.93L226.129 88.575C222.104 86.755 217.694 84.095 214.089 79.58V90.325H207.684V79.51C204.079 84.515 199.739 86.965 195.469 88.75L193.754 87.07C198.059 83.885 201.804 79.09 203.239 75.065H194.349V72.58H200.719C200.439 71.215 199.739 68.135 197.744 64.145L198.969 63.34H195.854V60.89H207.684V57.04H214.089V60.89H226.234V63.34H220.844L225.254 65.125C224.099 67.33 218.919 71.845 217.939 72.58H227.599V75.065H218.709C220.284 79.86 225.744 85.46 228.054 86.93ZM218.639 63.34H214.089V72.58H217.414L215.279 71.39C217.064 68.205 218.184 64.845 218.639 63.34ZM202.294 72.58H207.684V63.34H200.579C201.664 64.285 205.164 67.505 206.844 70.095L202.294 72.58ZM251.648 83.57H245.873V78.075C243.913 79.09 242.583 80.77 242.583 82.94C242.583 85.425 244.368 86.58 249.373 86.58C252.243 86.58 255.008 86.37 257.913 85.81V89.135C256.198 89.275 254.168 89.38 252.453 89.38H246.818C239.083 89.38 236.808 87.455 236.808 84.13C236.808 79.58 241.813 76.885 245.663 74.855C245.418 73.665 244.963 71.53 242.723 71.53C240.728 71.53 239.748 73.105 239.258 73.98C238.768 74.855 236.808 78.67 235.548 81.82L230.088 79.825C230.998 77.725 231.978 75.555 236.843 65.79C234.113 65.93 233.273 65.965 230.963 65.965L231.033 63.235C233.693 63.235 237.123 63.06 238.208 63.025C240.063 59.35 240.308 58.86 240.798 57.25L247.763 58.79C246.713 60.54 246.608 60.715 245.523 62.605C250.948 62.22 252.068 62.115 254.553 61.73L254.518 64.6C251.718 64.915 246.398 65.265 243.878 65.405C243.003 66.875 242.653 67.505 241.708 69.22C243.108 68.52 244.333 68.52 244.718 68.52C247.658 68.52 249.688 69.78 250.738 72.545C252.313 71.88 253.468 71.425 257.283 70.06L258.333 74.12C254.798 74.82 253.083 75.31 251.438 75.8C251.508 76.71 251.648 77.9 251.648 80.315V83.57ZM294.352 75.87H284.412C285.007 78.25 287.037 83.395 294.632 88.61L293.057 90.64C287.247 88.4 284.167 86.335 280.562 81.75C276.852 86.58 273.982 88.575 268.137 90.64L266.317 88.715C269.887 86.685 275.242 83.395 276.782 75.87H270.097C269.362 78.145 265.092 89.975 264.742 90.15L260.577 86.58C261.557 85.32 264.707 81.05 267.892 73.805L269.607 74.995V73.385H277.167C277.307 72.16 277.342 71.11 277.342 70.2V65.37H270.622V62.92H277.342V57.075H283.817V62.92H292.637V73.385H294.352V75.87ZM283.852 73.385H286.302V65.37H283.817V73.105C283.817 73.175 283.852 73.315 283.852 73.385ZM271.252 61.1L266.667 65.86C265.407 63.55 264.007 61.205 261.907 58.825L263.692 57.075C264.952 57.6 268.102 58.895 271.252 61.1ZM270.202 69.43L266.002 74.295C264.812 72.23 262.957 69.535 260.682 67.26L262.362 65.3C264.497 66.105 268.242 67.96 270.202 69.43ZM312.74 57.985L319.355 59.63C319.005 61.66 318.725 63.06 318.165 65.265C320.545 66.035 326.74 68.065 326.74 76.22C326.74 82.065 323.345 84.935 321.49 86.09C318.06 88.26 314.175 88.54 311.41 88.75L310.71 86.195C313.58 85.81 320.44 84.935 320.44 75.625C320.44 71.425 318.69 69.78 317.22 68.73C312.25 85.25 307.35 87.665 303.465 87.665C298.6 87.665 297.165 83.08 297.165 79.3C297.165 73.42 300.49 70.095 301.855 68.73C301.365 65.72 301.19 63.795 300.98 60.75L306.79 60.155C306.825 62.15 306.86 63.515 306.965 65.58C308.75 64.95 309.975 64.705 311.97 64.6C312.39 61.8 312.565 60.365 312.74 57.985ZM302.835 73.42C302.31 74.505 301.33 76.64 301.33 80.385C301.33 81.155 301.33 84.445 303.15 84.445C304.48 84.445 305.635 82.695 306.23 81.82C304.585 79.16 303.78 76.885 302.835 73.42ZM308.785 76.605C310.185 72.79 310.85 70.13 311.41 67.47C309.87 67.645 308.82 67.925 307.21 68.73C307.595 71.915 307.945 73.91 308.785 76.605ZM336.011 62.08L335.906 58.965C340.281 58.965 347.736 58.825 354.106 58.44L355.751 61.03C353.091 63.2 348.716 66.945 345.846 69.605C347.106 69.185 348.681 69.045 350.046 69.045C356.346 69.045 360.301 72.825 360.301 78.285C360.301 86.195 353.406 89.135 346.336 89.135C340.596 89.135 337.481 86.615 337.481 83.57C337.481 81.12 339.161 78.46 344.166 78.46C345.636 78.46 347.281 78.81 348.506 79.545C350.781 80.875 351.306 82.52 351.761 84.585C352.636 83.605 353.966 82.17 353.966 78.845C353.966 75.625 352.356 71.88 347.491 71.88C343.361 71.88 340.981 74.26 335.066 81.19L330.446 77.095C336.396 70.97 343.046 64.565 346.336 61.45C342.976 61.765 338.881 62.01 336.011 62.08ZM347.421 86.755C347.316 84.795 347.106 81.225 344.341 81.225C342.626 81.225 342.136 82.66 342.136 83.71C342.136 85.495 343.886 86.895 345.881 86.895C345.986 86.895 346.651 86.895 347.421 86.755ZM374.389 90.745L372.464 88.96C373.549 88.085 374.949 86.965 376.489 84.095C375.719 82.765 375.404 81.715 375.054 80.63C374.634 81.505 373.899 82.94 373.724 83.255L371.869 82.52V84.13C372.954 83.85 373.654 83.64 374.914 83.29L374.389 86.02C374.319 86.055 363.994 90.43 363.994 90.36L362.944 86.44C364.309 86.195 366.234 85.67 366.339 85.67V83.71L364.099 85.145C363.924 82.52 363.644 80.56 362.909 77.06L364.939 75.8C365.359 76.465 365.744 77.095 366.339 78.355V75.135H363.469V72.65H366.339V69.815H364.939V68.59C364.589 68.975 364.484 69.08 364.029 69.57L362.629 67.225C365.114 62.255 365.674 59.385 365.989 57.425H372.674C373.059 60.715 373.899 62.36 376.384 65.545C376.559 64.88 377.434 61.765 377.609 61.065H374.914V58.58H383.664V60.715C383.174 62.675 381.529 68.03 380.864 70.305H383.594C383.594 76.85 383.594 80.42 381.074 84.62C382.054 85.74 383.839 87.385 389.614 87.385C394.759 87.385 396.054 87.07 396.754 86.895L396.089 89.765H387.724C384.924 89.765 381.529 89.31 379.009 87.21C377.539 88.645 376.174 89.625 374.389 90.745ZM371.869 69.815V72.65H374.424C375.124 70.06 376.104 66.455 376.279 65.86L374.739 67.715C372.464 66.14 370.994 64.985 369.524 62.99C368.684 64.355 368.019 65.09 366.059 67.33H373.724V69.815H371.869ZM395.844 65.23H396.754V67.715H395.844V72.965H392.239V74.89H395.844V77.34H392.239V79.58H396.754V82.065H392.239V85.425H386.429V82.065H383.804V79.58H386.429V77.34H384.469V74.89H386.429V72.965H384.469V70.48H386.429V67.715H383.454V65.23H386.429V62.71H384.469V60.26H386.429V57.075H392.239V60.26H395.844V65.23ZM373.794 75.135H371.869V81.75C372.849 77.76 372.954 77.34 373.094 76.08L374.039 76.43C373.969 76.08 373.899 75.835 373.794 75.135ZM374.424 74.61L377.259 74.12C377.329 75.24 377.399 76.465 378.099 78.845C378.379 76.675 378.309 73.98 378.309 72.755H374.424V74.61ZM392.239 65.23H393.394V62.71H392.239V65.23ZM393.394 67.715H392.239V70.48H393.394V67.715Z" fill="white"/>
<path d="M8.38102 6.22852C8.03869 6.22852 7.71826 6.38922 7.51351 6.66439L2.86491 12.9084C2.58758 13.2821 2.4375 13.7353 2.4375 14.2012V19.2581C2.4375 20.4552 3.40708 21.4248 4.60417 21.4248H8.9375C10.1346 21.4248 11.1042 20.4552 11.1042 19.2581V14.9248C11.1042 13.7288 10.1346 12.7581 8.9375 12.7581H5.67692L9.25065 7.95719C9.78148 7.24328 9.27261 6.22852 8.38102 6.22852ZM19.1932 6.22852C18.8509 6.22852 18.5283 6.38922 18.3236 6.66439L13.6982 12.8787C13.4209 13.2525 13.2708 13.7046 13.2708 14.1715V19.2285C13.2708 20.4256 14.2404 21.3952 15.4375 21.3952H19.7708C20.9679 21.3952 21.9375 20.4256 21.9375 19.2285V14.8952C21.9375 13.6981 20.9679 12.7285 19.7708 12.7285H16.5103L20.0628 7.95931C20.5937 7.24431 20.0848 6.22852 19.1932 6.22852Z" fill="white"/>
<path d="M420.619 91.7715C420.961 91.7715 421.282 91.6108 421.486 91.3356L426.135 85.0916C426.412 84.7179 426.563 84.2647 426.563 83.7988L426.563 78.7419C426.563 77.5448 425.593 76.5752 424.396 76.5752L420.063 76.5752C418.865 76.5752 417.896 77.5448 417.896 78.7419L417.896 83.0752C417.896 84.2712 418.865 85.2419 420.063 85.2419L423.323 85.2419L419.749 90.0428C419.219 90.7567 419.727 91.7715 420.619 91.7715ZM409.807 91.7715C410.149 91.7715 410.472 91.6108 410.676 91.3356L415.302 85.1213C415.579 84.7475 415.729 84.2954 415.729 83.8284L415.729 78.7715C415.729 77.5744 414.76 76.6048 413.563 76.6048L409.229 76.6048C408.032 76.6048 407.063 77.5744 407.063 78.7715L407.063 83.1048C407.063 84.3019 408.032 85.2715 409.229 85.2715L412.49 85.2715L408.937 90.0407C408.406 90.7557 408.915 91.7715 409.807 91.7715Z" fill="white"/>
</svg>
