<svg width="236" height="87" viewBox="0 0 236 87" fill="none" xmlns="http://www.w3.org/2000/svg">
<path d="M37.5111 38.38L32.9331 43.462C29.1951 39.472 26.8431 38.086 24.8271 36.952C24.9531 42.79 22.8951 45.856 13.4031 45.856C10.9671 45.856 2.4411 45.478 2.4411 38.884C2.4411 30.568 13.7811 30.778 16.9311 30.904C16.7211 24.142 16.4271 15.49 16.1331 8.014L24.2811 8.434L24.4491 18.094H33.8991C34.2771 18.094 35.3271 18.052 36.0411 17.968V21.286H24.5331L24.7431 32.038C30.1611 33.508 33.4371 35.146 37.5111 38.38ZM17.0151 34.516C15.8391 34.432 15.5871 34.432 14.8311 34.432C12.3531 34.432 9.2031 35.272 9.2031 38.884C9.2031 41.992 11.9331 42.454 13.6131 42.454C17.1831 42.454 17.1411 40.564 17.0151 34.516ZM70.4742 40.354L65.0142 47.074C59.5542 40.942 48.2982 32.374 45.6942 30.61C43.1322 28.888 41.8302 27.964 41.8302 26.83C41.8302 23.554 56.5302 10.996 62.0322 6.964L68.0802 12.592C62.4102 15.868 56.9502 19.48 51.9102 23.68C50.4402 24.898 49.8102 25.528 49.8102 26.116C49.8102 26.62 50.8182 27.208 51.1122 27.376C57.8742 31.198 64.4262 35.482 70.4742 40.354ZM85.6014 7.846L93.6234 8.224C93.1614 10.366 92.7834 12.214 92.3634 14.566C96.9834 14.398 101.981 14.188 105.803 13.726V17.086C102.149 17.338 98.0334 17.506 91.8594 17.758C91.5654 19.564 91.4814 20.362 91.2714 22.126C92.0694 22.084 92.9094 22 94.3794 22C98.7894 22 108.869 23.428 108.869 33.34C108.869 44.512 96.9414 45.436 92.0694 45.814L91.1454 42.622C94.1274 42.328 101.015 41.698 101.015 33.256C101.015 29.308 99.3354 27.67 98.4534 26.788C97.6554 29.728 96.3534 34.432 92.5734 38.842C89.2554 42.664 85.0554 44.638 80.9394 44.638C76.1094 44.638 74.6394 41.488 74.6394 37.372C74.6394 28.552 81.6954 25.192 84.2994 23.974C84.3414 22.672 84.3834 20.446 84.5514 18.052C82.3674 18.136 76.8654 18.304 75.0174 18.304V15.028C77.8314 15.028 81.9474 14.944 84.7614 14.86C85.0134 12.508 85.1394 11.122 85.6014 7.846ZM90.9774 34.306C93.0354 30.946 93.7494 28.342 94.4634 24.982C94.1274 24.94 93.7074 24.898 93.0774 24.898C92.5734 24.898 92.1534 24.94 91.0194 25.15C90.9354 26.536 90.8514 28.006 90.8514 30.106C90.8514 31.828 90.9354 33.046 90.9774 34.306ZM84.3414 28.972C83.4594 29.938 80.9394 32.668 80.9394 37.456C80.9394 38.884 81.2334 40.312 82.7454 40.312C82.9134 40.312 83.8794 40.312 85.3074 39.64C84.9714 37.498 84.5514 34.852 84.3414 28.972ZM119.875 13.096L119.749 9.358C124.999 9.358 133.945 9.19 141.589 8.728L143.563 11.836C140.371 14.44 135.121 18.934 131.677 22.126C133.189 21.622 135.079 21.454 136.717 21.454C144.277 21.454 149.023 25.99 149.023 32.542C149.023 42.034 140.749 45.562 132.265 45.562C125.377 45.562 121.639 42.538 121.639 38.884C121.639 35.944 123.655 32.752 129.661 32.752C131.425 32.752 133.399 33.172 134.869 34.054C137.599 35.65 138.229 37.624 138.775 40.102C139.825 38.926 141.421 37.204 141.421 33.214C141.421 29.35 139.489 24.856 133.651 24.856C128.695 24.856 125.839 27.712 118.741 36.028L113.197 31.114C120.337 23.764 128.317 16.078 132.265 12.34C128.233 12.718 123.319 13.012 119.875 13.096ZM133.567 42.706C133.441 40.354 133.189 36.07 129.871 36.07C127.813 36.07 127.225 37.792 127.225 39.052C127.225 41.194 129.325 42.874 131.719 42.874C131.845 42.874 132.643 42.874 133.567 42.706ZM170.003 15.784V21.874H162.989V15.784H161.729C161.225 18.136 160.259 20.74 157.865 22.798H172.775L170.675 20.992C171.977 19.396 173.615 17.38 173.615 11.29V7.846L180.881 8.392C181.973 8.476 185.963 7.846 189.533 6.46L192.095 10.24C192.053 10.366 186.845 11.29 180.881 11.29V12.424C180.881 12.55 180.839 12.676 180.839 12.802H192.725V15.784H188.777V21.874H181.427V15.784H180.335C179.453 18.178 177.395 20.488 173.195 22.798H189.701V39.724H184.073C186.551 42.202 189.659 43.924 192.977 45.1L190.583 47.2C184.535 46.528 180.461 45.184 175.253 41.74L178.865 39.724H166.643L170.549 41.824C170.213 41.992 169.667 42.328 169.415 42.496C165.509 44.806 160.511 46.528 154.841 47.116L152.573 44.89C155.555 43.966 158.201 42.79 161.477 39.724H157.487V23.134C156.311 24.1 155.303 24.73 154.337 25.36L152.321 23.386C153.455 21.832 154.967 19.816 154.967 12.802V7.93L161.687 8.434C163.913 8.602 168.071 7.426 170.255 6.334L172.775 10.114C172.523 10.198 172.271 10.282 171.935 10.366C168.281 11.206 162.149 11.248 162.023 11.248V12.802H172.313V15.784H170.003ZM181.847 31.828V30.274H165.005V31.828H181.847ZM165.005 25.78V27.292H181.847V25.78H165.005ZM181.847 36.742V34.81H165.005V36.742H181.847ZM196.211 8.434H214.019V23.134H203.561V47.032H196.211V8.434ZM203.561 14.272H206.879V11.416H203.561V14.272ZM206.879 17.254H203.561V20.152H206.879V17.254ZM215.321 8.434H233.339V41.992C233.339 46.57 229.769 46.57 227.333 46.57H220.109L219.101 43.378C220.277 43.588 221.369 43.756 223.091 43.756C225.695 43.756 226.115 43.588 226.115 41.614V23.134H215.321V8.434ZM222.503 14.272H226.115V11.416H222.503V14.272ZM226.115 17.254H222.503V20.152H226.115V17.254ZM223.259 26.116V41.026H206.333V26.116H223.259ZM216.119 38.086V29.098H213.557V38.086H216.119Z" fill="#237233"/>
<g clip-path="url(#clip0_527_3783)">
<path d="M117.5 87C119.709 87 121.5 85.2091 121.5 83C121.5 80.7909 119.709 79 117.5 79C115.291 79 113.5 80.7909 113.5 83C113.5 85.2091 115.291 87 117.5 87Z" fill="#DAE000"/>
<path d="M97.5 87C99.7091 87 101.5 85.2091 101.5 83C101.5 80.7909 99.7091 79 97.5 79C95.2909 79 93.5 80.7909 93.5 83C93.5 85.2091 95.2909 87 97.5 87Z" fill="#237233"/>
<path d="M138.5 87C140.709 87 142.5 85.2091 142.5 83C142.5 80.7909 140.709 79 138.5 79C136.291 79 134.5 80.7909 134.5 83C134.5 85.2091 136.291 87 138.5 87Z" fill="#87C067"/>
</g>
<defs>
<clipPath id="clip0_527_3783">
<rect width="49" height="8" fill="white" transform="translate(93.5 79)"/>
</clipPath>
</defs>
</svg>
