<svg width="754" height="197" viewBox="0 0 754 197" fill="none" xmlns="http://www.w3.org/2000/svg">
<path d="M317.168 31.114H312.674V34.894H317.168V37.876H312.674V42.16H319.268V45.142H303.056V46.948H295.832V28.216C295.412 28.636 295.286 28.72 294.74 29.182L293.522 27.46V41.992H287.348V44.764H281.174V33.172C280.796 33.676 280.586 33.97 279.83 34.936L278.234 31.534C281.174 24.646 281.636 15.112 281.678 11.878H279.284V8.896H294.404V11.626H300.494C300.704 10.618 301.082 8.308 301.166 6.964L309.02 8.308C308.6 9.484 308.138 10.66 307.718 11.626H318.344V19.564H312.002V17.674C311.33 18.64 310.112 20.068 308.936 21.412H317.756V24.352H312.674V28.174H317.168V31.114ZM305.45 31.114H303.056V34.894H305.45V31.114ZM303.056 28.174H305.45V24.352H303.056V28.174ZM312.002 14.566H306.332C305.072 16.96 303.686 19.228 302.048 21.412H304.736C305.156 20.11 305.912 17.632 306.29 15.49L312.002 16.666V14.566ZM303.056 37.876V42.16H305.45V37.876H303.056ZM297.722 19.564H292.388V11.878H288.692C288.65 14.02 288.398 16.792 287.39 20.572H293.522V26.242C294.866 24.772 296.336 22.42 297.722 19.564ZM298.142 14.566V18.682C298.52 17.8 298.982 16.582 299.654 14.566H298.142ZM288.776 39.01V23.722H287.348V39.01H288.776ZM361.226 24.394L354.212 29.35C353.498 23.428 352.07 18.682 349.508 14.524L352.49 12.34C356.06 15.91 358.622 19.396 361.226 24.394ZM323.51 23.806L322.628 20.026C325.736 19.018 327.878 18.472 330.902 17.926C331.784 15.406 333.254 11.122 334.43 8.056L341.108 10.24C340.604 11.626 340.184 12.886 338.798 17.044C339.848 16.96 341.108 16.96 341.822 16.96C347.996 16.96 350.306 19.648 350.306 26.662C350.306 31.114 349.634 37.078 347.954 40.69C347.408 41.908 345.602 45.478 341.57 45.478C338.588 45.478 335.186 43.63 333.254 42.58L334.43 38.884C336.236 40.312 337.748 41.152 338.504 41.152C339.428 41.152 339.89 40.312 340.268 39.598C341.318 37.54 343.082 32.92 343.082 25.066C343.082 20.908 342.494 19.9 339.806 19.9C339.344 19.9 338.546 19.942 337.832 20.026C335.102 28.384 332.792 35.608 329.81 45.604L322.46 42.958C324.308 37.204 326.366 31.156 329.642 21.622C328.13 22.042 325.946 22.672 323.51 23.806ZM385.635 21.58L392.817 22.042C392.733 27.796 392.859 32.626 392.943 35.314C395.799 36.196 397.983 37.12 401.385 38.842L397.059 44.008C395.631 42.412 394.707 41.698 393.153 40.522C392.943 42.034 392.481 45.688 383.619 45.688C382.485 45.688 374.463 45.646 374.463 39.934C374.463 36.238 378.411 33.676 383.535 33.676C384.501 33.676 385.299 33.76 386.013 33.802C385.887 31.786 385.635 27.124 385.635 21.58ZM386.223 37.288C385.593 37.162 384.837 36.994 384.249 36.994C382.527 36.994 380.469 37.456 380.469 39.598C380.469 41.572 381.855 42.202 383.409 42.202C385.131 42.202 386.433 41.278 386.433 40.144C386.433 39.724 386.265 37.75 386.223 37.288ZM401.847 17.59L398.571 22.882C396.639 21.412 392.943 18.64 386.769 16.288L388.701 13.6C393.069 14.608 397.689 16.036 401.847 17.59ZM365.727 19.438V15.826C366.819 15.91 368.709 15.994 371.691 15.994C372.783 13.054 373.455 11.29 374.673 8.266L381.519 9.568C380.553 11.71 380.091 12.676 378.915 15.574C382.527 15.196 383.745 14.986 384.711 14.818L384.837 18.388C382.233 18.682 380.931 18.808 377.529 19.018C375.261 25.108 372.741 32.122 371.229 39.598L364.131 37.666C365.979 31.912 367.911 26.452 370.431 19.354C367.995 19.438 367.491 19.438 365.727 19.438ZM433.938 10.912L432.552 18.136C427.974 16.204 419.868 14.146 409.368 13.852V10.618C416.088 9.736 419.994 9.736 420.96 9.736C425.328 9.736 429.654 10.114 433.938 10.912ZM410.292 28.384L413.148 29.98C411.972 31.408 410.754 33.256 410.754 35.146C410.754 38.506 414.828 38.506 419.238 38.506C422.472 38.506 428.058 38.38 436.29 36.196V43.336C430.116 44.218 424.614 44.26 422.64 44.26C418.398 44.26 405.756 44.26 405.756 36.868C405.756 32.5 408.864 29.686 410.292 28.384ZM451.499 17.968V7.972L459.563 8.56C459.017 11.626 458.681 15.028 458.681 18.136C458.681 20.488 458.807 21.538 459.017 22.756C463.805 21.328 465.653 20.782 472.079 19.018L473.171 24.184C469.517 24.562 461.999 25.276 456.119 27.586C454.481 28.216 450.323 29.854 450.323 35.272C450.323 39.976 454.019 41.53 461.075 41.53C466.955 41.53 470.357 40.606 472.625 40.018V44.848C468.257 45.352 462.755 45.352 460.445 45.352C453.389 45.352 442.259 45.142 442.259 35.944C442.259 29.602 447.677 27.208 452.423 25.108C452.003 23.68 451.499 21.958 451.499 17.968ZM70.6139 63.056H86.7419V66.08H77.7959V101.864H70.6139V63.056ZM118.569 65.912L117.183 73.136C112.605 71.204 104.499 69.146 93.9988 68.852V65.618C100.719 64.736 104.625 64.736 105.591 64.736C109.959 64.736 114.285 65.114 118.569 65.912ZM94.9228 83.384L97.7788 84.98C96.6028 86.408 95.3848 88.256 95.3848 90.146C95.3848 93.506 99.4588 93.506 103.869 93.506C107.103 93.506 112.689 93.38 120.921 91.196V98.336C114.747 99.218 109.245 99.26 107.271 99.26C103.029 99.26 90.3868 99.26 90.3868 91.868C90.3868 87.5 93.4948 84.686 94.9228 83.384ZM159.314 70.49L155.87 72.212C154.82 68.474 153.56 66.836 152.888 65.954L155.366 64.904C156.92 66.668 158.222 68.684 159.314 70.49ZM163.598 68.432L160.196 70.154C159.524 68.432 158.558 66.374 157.256 64.736L159.65 63.602C161.708 65.618 162.674 67.004 163.598 68.432ZM135.416 73.094V63.14L143.438 63.728C142.934 66.752 142.598 70.196 142.598 73.262C142.598 75.656 142.724 76.664 142.934 77.882C147.722 76.454 149.57 75.95 155.996 74.144L157.088 79.352C153.476 79.688 145.916 80.402 140.036 82.712C138.398 83.342 134.198 84.98 134.198 90.398C134.198 95.102 137.936 96.656 144.95 96.656C150.83 96.656 154.274 95.774 156.542 95.144V99.974C152.174 100.478 146.672 100.478 144.362 100.478C137.306 100.478 126.176 100.268 126.176 91.07C126.176 84.728 131.594 82.334 136.34 80.234C135.92 78.848 135.416 77.084 135.416 73.094ZM189.031 81.158V84.476C186.175 84.686 181.471 84.896 178.489 85.022C178.279 87.08 178.069 89.474 178.069 91.238C178.069 95.144 179.371 97.454 185.671 97.454C189.535 97.454 193.651 96.068 193.651 90.398C193.651 87.206 192.769 84.686 192.181 83.006L194.995 81.788C197.683 85.61 199.195 89.012 199.195 91.826C199.195 93.842 198.481 96.782 195.373 98.798C192.685 100.52 186.217 100.898 184.159 100.898C183.151 100.898 176.179 100.898 172.693 97.622C170.677 95.774 170.509 92.624 170.509 91.112C170.509 89.474 170.719 86.828 170.887 85.316C168.787 85.4 165.679 85.484 164.671 85.484V82.124C167.191 82.124 167.653 82.124 171.223 82.04C171.223 81.704 171.853 75.95 171.937 74.984C168.409 75.11 166.393 75.11 165.595 75.11V71.876C167.191 71.876 170.467 71.792 172.315 71.75C172.861 66.794 172.987 65.282 173.113 63.266L181.345 64.064C181.009 66.08 180.757 67.508 180.169 71.456C184.495 71.288 186.931 71.162 190.207 70.91V74.228C188.863 74.312 187.183 74.48 179.707 74.732C179.371 77.21 179.287 77.84 178.825 81.746C182.143 81.578 185.335 81.452 189.031 81.158ZM224.297 99.344L223.289 96.026C226.565 95.144 233.873 93.128 233.873 81.116C233.873 71.918 228.497 69.944 226.355 69.146C225.935 73.976 225.137 82.67 222.953 89.054C220.811 95.354 217.745 97.622 213.671 97.622C207.119 97.622 203.633 91.28 203.633 84.434C203.633 74.774 210.185 65.198 223.667 65.198C231.605 65.198 241.727 68.81 241.727 81.662C241.727 96.068 229.211 98.42 224.297 99.344ZM218.795 69.146C217.031 69.818 215.225 70.532 213.209 73.388C210.605 77.126 209.849 81.998 209.849 86.366C209.849 87.668 209.849 93.632 212.621 93.632C214.973 93.632 217.829 84.014 218.795 69.146ZM261.322 75.278V69.86H267.244C267.454 68.936 267.496 68.684 267.832 66.5H259.852V63.518H285.43V66.5H275.476C274.72 67.424 273.502 68.894 272.62 69.86H283.666V92.96H279.382C280.39 94.85 282.238 97.454 286.186 99.932L283.414 102.41C278.458 100.562 274.678 97.832 272.704 95.228L276.946 92.96H266.236L270.73 95.312C270.562 95.564 270.058 96.026 269.974 96.11C266.992 98.798 263.59 101.15 257.836 102.41L255.316 100.1C257.542 99.134 261.448 97.202 263.884 92.96H261.322V76.034C259.222 77.21 255.862 78.134 253.846 78.638V93.254C253.846 93.968 254.014 93.968 254.476 93.968C254.728 93.968 254.812 93.632 254.812 93.464C254.896 92.666 254.938 91.574 254.938 90.608C254.938 88.298 254.812 87.164 254.728 86.156C256.786 87.332 258.844 88.046 260.608 88.382C260.23 93.674 259.306 96.95 255.82 96.95H251.158C246.622 96.95 246.622 94.724 246.622 92.372V62.93H253.846V75.11C254.938 74.354 256.828 72.758 258.088 71.372L261.322 75.278ZM276.106 82.67V79.184H268.756V82.67H276.106ZM268.756 72.8V76.202H276.106V72.8H268.756ZM276.106 89.978V85.652H268.756V89.978H276.106ZM298.3 98.504L290.992 99.386C290.572 95.816 290.236 92.33 290.236 84.266C290.236 71.96 291.034 67.214 291.454 64.358L298.762 65.282C298.3 67.424 297.418 71.666 297.418 83.804C297.418 91.952 297.88 95.564 298.3 98.504ZM324.256 90.776V97.328C320.77 97.664 317.032 97.874 313.504 97.874C304.222 97.874 300.526 96.824 300.526 91.952C300.526 91.196 300.526 88.256 303.424 84.938L306.196 86.366C305.566 87.332 304.852 88.424 304.852 89.936C304.852 91.658 305.86 92.414 309.85 92.414C315.982 92.414 320.812 91.574 324.256 90.776ZM301.954 72.086L301.492 68.39C306.868 67.298 312.664 66.752 318.166 66.752C319.72 66.752 320.518 66.794 321.988 67.004V73.598C318.754 72.422 314.974 71.624 309.178 71.624C305.272 71.624 303.088 71.918 301.954 72.086ZM336.372 89.978H334.986V97.496H336.372V89.978ZM346.41 86.282H343.176V78.89H366.99V86.282H361.866V97.916C361.866 98.714 361.95 98.714 362.538 98.714C362.916 98.714 363.042 98.504 363.084 98.21C363.126 98 363.21 93.716 363.252 92.876C365.142 93.548 366.36 93.926 368.418 94.304C368.124 101.024 366.948 101.654 362.748 101.654H358.674C355.062 101.654 354.852 100.562 354.852 97.496V85.19H360.06V81.872H350.274V85.19H353.718V86.786C353.718 95.69 349.854 99.344 343.176 102.326L341.496 100.478H334.986V101.948H328.812V87.038H341.58V99.68C345.15 96.53 346.41 94.052 346.41 87.164V86.282ZM328.812 80.99H341.58V83.93H328.812V80.99ZM358.968 66.038H367.872V68.978H358.968V73.094H366.066V76.076H343.974V73.094H351.282V68.978H343.092V66.038H351.282V61.922H358.968V66.038ZM328.812 63.098H341.58V66.038H328.812V63.098ZM327.762 68.978H342.21V71.96H327.762V68.978ZM328.812 74.942H341.58V77.924H328.812V74.942ZM406.722 69.02H409.746V72.002H406.722V76.244H393.702V77.42H406.722V80.402H393.702V81.704H409.746V84.686H369.93V81.704H385.932V80.402H372.996V77.42H385.932V76.244H372.996V73.262H385.932V72.002H369.93V69.02H385.932V67.844H372.996V64.862H385.932V62.048H393.702V64.862H406.722V69.02ZM393.702 69.02H398.952V67.844H393.702V69.02ZM398.952 72.002H393.702V73.262H398.952V72.002ZM398.28 100.058H381.354V101.99H373.668V85.904H406.008V101.99H398.28V100.058ZM381.354 97.076H398.28V94.346H381.354V97.076ZM381.354 91.364H398.28V88.886H381.354V91.364ZM438.646 93.884H431.716V87.29C429.364 88.508 427.768 90.524 427.768 93.128C427.768 96.11 429.91 97.496 435.916 97.496C439.36 97.496 442.678 97.244 446.164 96.572V100.562C444.106 100.73 441.67 100.856 439.612 100.856H432.85C423.568 100.856 420.838 98.546 420.838 94.556C420.838 89.096 426.844 85.862 431.464 83.426C431.17 81.998 430.624 79.436 427.936 79.436C425.542 79.436 424.366 81.326 423.778 82.376C423.19 83.426 420.838 88.004 419.326 91.784L412.774 89.39C413.866 86.87 415.042 84.266 420.88 72.548C417.604 72.716 416.596 72.758 413.824 72.758L413.908 69.482C417.1 69.482 421.216 69.272 422.518 69.23C424.744 64.82 425.038 64.232 425.626 62.3L433.984 64.148C432.724 66.248 432.598 66.458 431.296 68.726C437.806 68.264 439.15 68.138 442.132 67.676L442.09 71.12C438.73 71.498 432.346 71.918 429.322 72.086C428.272 73.85 427.852 74.606 426.718 76.664C428.398 75.824 429.868 75.824 430.33 75.824C433.858 75.824 436.294 77.336 437.554 80.654C439.444 79.856 440.83 79.31 445.408 77.672L446.668 82.544C442.426 83.384 440.368 83.972 438.394 84.56C438.478 85.652 438.646 87.08 438.646 89.978V93.884ZM466.455 70.112V73.304H473.511V70.112H466.455ZM459.105 68.852V67.172H464.481C464.985 65.366 465.405 63.014 465.531 61.334L474.519 62.804C474.435 62.93 474.099 63.476 473.889 63.728C472.545 65.366 472.041 65.996 470.865 67.172H480.819V69.986C482.415 67.928 484.095 65.198 484.851 63.056L490.941 68.18C490.101 68.852 485.229 71.708 482.373 72.884L480.819 71.456V76.454L481.827 75.152C485.481 76.622 487.287 77.462 490.689 79.562L486.069 85.274C484.137 82.082 481.743 79.142 480.819 78.176V82.67H459.105V78.932C458.265 79.856 454.149 83.636 451.881 85.19L449.235 79.436C451.503 78.764 455.913 77.042 457.887 75.824L459.105 77.63V70.7L454.443 75.362C452.889 71.414 451.923 69.482 449.613 65.912L451.419 63.938C454.695 65.744 455.955 66.584 459.105 68.852ZM473.511 79.73V76.286H466.455V79.73H473.511ZM473.721 93.002V102.242H465.741V93.212C460.449 97.958 453.981 100.352 451.083 101.444L449.193 98.84C455.577 95.228 458.517 90.692 459.105 89.768H449.907V86.786H465.741V83.636H473.721V86.786H489.933V89.768H480.567C481.617 91.616 483.969 95.186 490.689 98.882L488.883 101.444C483.507 99.89 478.803 97.706 473.721 93.002ZM521.529 83.09L524.259 84.056C521.697 92.54 517.749 100.52 505.989 100.52C498.555 100.52 494.439 97.118 494.397 88.97C494.397 86.03 494.481 83.762 495.111 63.434L503.091 64.064C502.293 76.286 502.041 86.282 502.041 87.164C502.041 89.306 502.125 94.556 509.097 94.556C515.985 94.556 519.261 89.348 521.529 83.09ZM566.794 75.614L561.502 81.2C559.612 77.042 556.882 72.464 554.488 69.944L556.588 67.718C560.41 70.07 563.56 72.506 566.794 75.614ZM551.674 100.562H547.096C537.73 100.562 537.772 95.9 537.814 92.666C537.268 93.254 536.722 93.842 534.748 93.842C530.086 93.842 529.372 88.844 529.372 85.652C529.372 83.846 529.708 77.42 535 77.42C537.016 77.42 537.562 78.134 538.066 78.722V73.43C531.136 73.724 530.548 73.724 528.826 73.766L528.784 70.49C532.186 70.49 536.134 70.28 538.066 70.196V62.93L546.172 63.518C546.046 64.736 545.878 69.566 545.878 69.776C550.288 69.44 551.212 69.356 552.808 69.188V72.59C549.658 72.842 546.97 73.01 545.71 73.052C545.332 83.384 545.332 87.374 545.332 87.752V93.002C545.332 95.648 546.382 97.034 549.532 97.034H550.96C554.068 97.034 558.226 96.068 558.226 91.364C558.226 89.894 558.016 87.962 557.722 86.534L560.788 85.568C563.518 90.314 563.518 93.296 563.518 93.758C563.518 99.302 557.722 100.562 551.674 100.562ZM535.378 85.652C535.378 88.214 535.546 89.894 536.764 89.894C538.192 89.894 538.57 88.34 538.57 85.4C538.57 83.594 538.528 81.242 537.016 81.242C535.546 81.242 535.378 84.056 535.378 85.652ZM589.744 79.268L587.266 74.9C588.82 74.606 591.844 73.976 593.398 73.556C592.642 72.422 591.088 70.532 588.274 68.222L589.828 66.248H587.728V63.266H606.46V75.404C606.46 79.436 605.998 81.158 601.294 81.158H595.246L594.196 78.05C592.306 79.058 591.844 79.31 591.256 79.604L593.482 80.066C593.356 80.402 590.71 82.628 590.29 82.964H602.848V102.074H595.33V100.604H580.462V102.074H572.944V82.964H583.948C584.116 82.376 584.158 82.25 584.452 80.906C583.444 81.158 582.772 81.158 582.016 81.158H575.8L574.876 78.344C571.768 80.276 571.39 80.486 570.886 80.738L567.736 75.32C569.878 75.026 573.28 74.018 573.658 73.892C573.406 73.556 571.516 70.784 568.954 68.6L570.676 66.248H569.164V63.266H586.636V76.076C586.636 77.588 586.636 77.924 586.552 78.596L589.744 79.268ZM580.462 97.622H595.33V93.128H580.462V97.622ZM580.462 90.146H595.33V85.904H580.462V90.146ZM579.328 76.328V75.11C578.74 75.614 577.732 76.496 575.464 77.966C575.8 78.05 577.396 78.26 578.068 78.26C579.328 78.26 579.328 77.798 579.328 76.328ZM578.32 72.17L579.328 73.85V66.248H571.852C573.616 66.92 574.078 67.172 578.404 69.314L575.212 73.43C576.682 72.926 577.438 72.59 578.32 72.17ZM598.06 72.128L599.068 73.808V66.248H590.92C592.81 66.836 596.254 68.264 598.06 69.104L594.952 73.136C596.926 72.548 597.346 72.38 598.06 72.128ZM599.068 76.496V75.068C598.102 75.782 597.724 75.992 594.448 77.924C596.506 78.26 597.136 78.344 597.976 78.344C599.068 78.344 599.068 77.966 599.068 76.496ZM624.604 71.288V68.39H626.452V63.14H647.998V68.39H650.308V71.372H647.998V76.664H626.452V76.454L622.126 79.1C622.168 76.748 621.622 73.094 621.118 70.784V102.032H614.314V62.09H621.118V69.65L622.966 68.432C623.428 69.146 623.806 69.692 624.604 71.288ZM634.684 71.372H633.214V73.682H634.684V71.372ZM633.214 68.39H634.684V66.122H633.214V68.39ZM640.144 68.39H641.656V66.122H640.144V68.39ZM641.656 71.372H640.144V73.682H641.656V71.372ZM626.452 71.372H624.646C625.066 72.212 625.192 72.464 626.452 75.026V71.372ZM650.938 99.596L648.88 102.242C641.32 100.73 638.884 98.672 637.75 97.706L641.32 95.732H632.5L635.986 97.664C635.86 97.832 635.356 98.252 635.146 98.42C631.786 100.94 626.242 101.906 623.974 102.284L622 99.68C624.478 98.672 625.57 97.874 628.09 95.732H625.738V78.218H648.67V95.732H645.562C647.368 97.832 649.762 99.008 650.938 99.596ZM641.32 85.988H633.088V87.71H641.32V85.988ZM633.088 83.006H641.32V81.2H633.088V83.006ZM641.32 90.692H633.088V92.792H641.32V90.692ZM610.324 69.608L613.39 70.574C613.39 83.762 613.348 84.896 612.76 88.34L609.274 83.846C610.114 80.822 610.408 78.932 610.324 69.608ZM678.957 93.884H672.027V87.29C669.675 88.508 668.079 90.524 668.079 93.128C668.079 96.11 670.221 97.496 676.227 97.496C679.671 97.496 682.989 97.244 686.475 96.572V100.562C684.417 100.73 681.981 100.856 679.923 100.856H673.161C663.879 100.856 661.149 98.546 661.149 94.556C661.149 89.096 667.155 85.862 671.775 83.426C671.481 81.998 670.935 79.436 668.247 79.436C665.853 79.436 664.677 81.326 664.089 82.376C663.501 83.426 661.149 88.004 659.637 91.784L653.085 89.39C654.177 86.87 655.353 84.266 661.191 72.548C657.915 72.716 656.907 72.758 654.135 72.758L654.219 69.482C657.411 69.482 661.527 69.272 662.829 69.23C665.055 64.82 665.349 64.232 665.937 62.3L674.295 64.148C673.035 66.248 672.909 66.458 671.607 68.726C678.117 68.264 679.461 68.138 682.443 67.676L682.401 71.12C679.041 71.498 672.657 71.918 669.633 72.086C668.583 73.85 668.163 74.606 667.029 76.664C668.709 75.824 670.179 75.824 670.641 75.824C674.169 75.824 676.605 77.336 677.865 80.654C679.755 79.856 681.141 79.31 685.719 77.672L686.979 82.544C682.737 83.384 680.679 83.972 678.705 84.56C678.789 85.652 678.957 87.08 678.957 89.978V93.884ZM37.2031 129.354L42.4531 134.52C42.3691 134.646 42.2011 134.814 41.9911 135.108C40.0171 137.628 37.8751 140.064 35.5231 142.248V151.782C35.5231 156.612 32.4571 156.696 29.6431 156.696H20.9491L20.1091 153.21C21.7051 153.756 24.1831 153.924 25.8631 153.924C27.7111 153.924 27.7111 152.874 27.7111 151.656V148.296C20.4031 152.832 10.5751 155.982 2.8471 157.41L1.1251 154.848C9.8191 153.084 17.1691 149.388 24.3931 143.97C13.1791 146.322 11.9191 146.574 3.9811 147.792C3.8551 147.792 3.1411 147.918 2.9311 147.96L1.8391 142.836C2.5951 142.836 2.9311 142.794 5.9971 142.626V121.332H15.6151C15.7411 120.786 16.1191 118.602 16.2031 116.838L24.8131 117.804C24.7291 118.182 21.5791 121.206 21.4111 121.332H35.5231V132.294C36.2371 131.202 36.6151 130.614 37.2031 129.354ZM27.7111 134.31V130.698H13.7251V134.31H27.7111ZM13.7251 124.314V127.716H27.7111V124.314H13.7251ZM27.7111 140.484V137.25H13.7251V141.996C14.6491 141.912 14.8171 141.912 17.1691 141.702C17.6311 141.66 26.0731 140.652 27.7111 140.484ZM54.4828 153.504L47.1748 154.386C46.7548 150.816 46.4188 147.33 46.4188 139.266C46.4188 126.96 47.2168 122.214 47.6368 119.358L54.9448 120.282C54.4828 122.424 53.6008 126.666 53.6008 138.804C53.6008 146.952 54.0628 150.564 54.4828 153.504ZM80.4388 145.776V152.328C76.9528 152.664 73.2148 152.874 69.6868 152.874C60.4048 152.874 56.7088 151.824 56.7088 146.952C56.7088 146.196 56.7088 143.256 59.6068 139.938L62.3788 141.366C61.7488 142.332 61.0348 143.424 61.0348 144.936C61.0348 146.658 62.0428 147.414 66.0328 147.414C72.1648 147.414 76.9948 146.574 80.4388 145.776ZM58.1368 127.086L57.6748 123.39C63.0508 122.298 68.8468 121.752 74.3488 121.752C75.9028 121.752 76.7008 121.794 78.1708 122.004V128.598C74.9368 127.422 71.1568 126.624 65.3608 126.624C61.4548 126.624 59.2708 126.918 58.1368 127.086ZM95.5785 153L94.8645 149.472C97.9305 149.514 103.181 149.556 107.969 146.952C111.623 144.978 114.017 141.87 114.017 136.914C114.017 129.27 108.305 127.716 104.693 127.716C99.8625 127.716 90.9585 130.992 86.3385 133.134L84.8265 127.926C86.0025 127.758 88.1025 127.464 90.4125 126.876C97.1745 125.112 102.887 123.642 108.137 123.642C115.865 123.642 122.165 127.842 122.165 136.578C122.165 140.232 120.989 152.58 95.5785 153ZM136.697 150.312L129.263 151.236C128.759 146.826 128.633 142.374 128.633 137.964C128.633 131.034 128.969 126.288 130.145 119.736L137.663 120.618C136.319 128.052 136.025 134.604 136.025 139.98C136.025 144.936 136.277 147.036 136.697 150.312ZM150.137 118.14L157.991 118.686C157.991 122.55 158.033 125.616 158.075 127.086C162.233 126.624 163.115 126.414 164.081 126.204V129.396C161.855 129.858 158.999 130.152 158.117 130.236C158.159 131.958 158.201 133.596 158.201 135.738V141.786C158.201 153 147.659 155.142 140.939 156.318L139.973 153.168C143.081 152.328 147.911 150.984 149.507 147.288C150.599 144.81 150.599 143.886 150.599 130.74C147.617 130.824 145.895 130.866 143.921 130.866H139.511V127.8H145.979C147.869 127.8 148.331 127.8 150.599 127.674C150.557 123.096 150.305 120.408 150.137 118.14ZM174.74 123.096L174.614 119.358C179.864 119.358 188.81 119.19 196.454 118.728L198.428 121.836C195.236 124.44 189.986 128.934 186.542 132.126C188.054 131.622 189.944 131.454 191.582 131.454C199.142 131.454 203.888 135.99 203.888 142.542C203.888 152.034 195.614 155.562 187.13 155.562C180.242 155.562 176.504 152.538 176.504 148.884C176.504 145.944 178.52 142.752 184.526 142.752C186.29 142.752 188.264 143.172 189.734 144.054C192.464 145.65 193.094 147.624 193.64 150.102C194.69 148.926 196.286 147.204 196.286 143.214C196.286 139.35 194.354 134.856 188.516 134.856C183.56 134.856 180.704 137.712 173.606 146.028L168.062 141.114C175.202 133.764 183.182 126.078 187.13 122.34C183.098 122.718 178.184 123.012 174.74 123.096ZM188.432 152.706C188.306 150.354 188.054 146.07 184.736 146.07C182.678 146.07 182.09 147.792 182.09 149.052C182.09 151.194 184.19 152.874 186.584 152.874C186.71 152.874 187.508 152.874 188.432 152.706ZM237.165 120.912L235.779 128.136C231.201 126.204 223.095 124.146 212.595 123.852V120.618C219.315 119.736 223.221 119.736 224.187 119.736C228.555 119.736 232.881 120.114 237.165 120.912ZM213.519 138.384L216.375 139.98C215.199 141.408 213.981 143.256 213.981 145.146C213.981 148.506 218.055 148.506 222.465 148.506C225.699 148.506 231.285 148.38 239.517 146.196V153.336C233.343 154.218 227.841 154.26 225.867 154.26C221.625 154.26 208.983 154.26 208.983 146.868C208.983 142.5 212.091 139.686 213.519 138.384ZM254.726 127.968V117.972L262.79 118.56C262.244 121.626 261.908 125.028 261.908 128.136C261.908 130.488 262.034 131.538 262.244 132.756C267.032 131.328 268.88 130.782 275.306 129.018L276.398 134.184C272.744 134.562 265.226 135.276 259.346 137.586C257.708 138.216 253.55 139.854 253.55 145.272C253.55 149.976 257.246 151.53 264.302 151.53C270.182 151.53 273.584 150.606 275.852 150.018V154.848C271.484 155.352 265.982 155.352 263.672 155.352C256.616 155.352 245.486 155.142 245.486 145.944C245.486 139.602 250.904 137.208 255.65 135.108C255.23 133.68 254.726 131.958 254.726 127.968ZM290.417 153.756L283.067 154.554C282.605 150.27 282.521 145.776 282.521 141.45C282.521 139.434 282.521 131.076 283.739 119.484L291.299 120.324C290.207 127.128 289.745 136.536 289.745 141.324C289.745 147.036 290.165 151.446 290.417 153.756ZM317.171 126.456V129.816C315.197 130.026 313.979 130.152 311.039 130.362C310.997 139.392 310.997 140.4 311.081 143.046C314.147 144.222 316.079 145.356 318.935 147.246L315.785 153.546C315.029 152.496 313.811 150.942 311.543 149.052C311.123 151.95 310.451 155.268 300.749 155.268C297.095 155.268 291.677 154.386 291.677 148.842C291.677 141.702 300.035 141.366 302.135 141.366C302.723 141.366 303.353 141.408 303.941 141.45C303.731 135.192 303.689 133.428 303.647 130.74C300.119 130.824 298.817 130.866 296.465 130.866H292.433V127.548C295.163 127.674 296.213 127.716 297.095 127.716C299.195 127.716 301.925 127.674 303.563 127.59C303.521 124.02 303.479 122.004 303.437 118.896L311.249 119.316C311.207 119.988 311.123 123.6 311.081 127.254C313.055 127.086 315.029 126.918 317.171 126.456ZM304.025 145.23C303.647 145.188 303.143 145.104 302.429 145.104C300.329 145.104 298.313 145.944 298.313 148.926C298.313 149.682 298.397 151.614 301.505 151.614C304.025 151.614 304.109 149.934 304.109 148.758C304.109 148.254 304.025 145.818 304.025 145.23ZM350.477 118.77L352.913 116.88C358.583 119.862 361.565 122.886 362.699 124.02L356.021 128.85L361.817 128.556L361.943 131.454L350.141 132.084C351.149 144.81 354.383 149.556 355.181 149.556C356.357 149.556 357.113 145.272 357.449 143.55C358.961 145.188 360.347 146.322 362.657 147.666C361.355 152.202 359.927 157.284 354.803 157.284C349.049 157.284 343.715 149.388 342.371 132.504L333.887 132.924L333.761 129.984L342.245 129.522C342.161 127.548 341.909 118.77 341.825 116.964H349.679V117.93C349.679 118.98 349.679 125.322 349.931 129.144L355.517 128.85C353.837 123.81 352.367 120.996 350.477 118.77ZM332.795 126.204V156.99H325.529V135.906C324.353 137.208 323.345 138.09 322.631 138.72L321.119 136.536C326.369 128.682 328.259 117.51 328.385 116.628L336.701 118.476C336.617 118.77 336.281 119.4 336.197 119.652C334.853 122.886 334.097 124.062 332.795 126.204ZM390.059 120.534L386.027 126.624C384.053 125.154 379.307 121.668 372.881 120.534L374.267 117.804C380.903 118.014 386.153 119.316 390.059 120.534ZM371.075 156.486L364.817 152.538C368.933 146.07 375.443 137.544 380.735 131.664C376.157 132.168 371.915 132.504 367.379 132.798L366.959 129.354C372.839 129.102 382.499 128.472 390.899 127.296L392.495 129.69C390.647 131.076 387.791 133.26 382.751 139.098C383.759 138.888 384.683 138.804 385.607 138.804C388.421 138.804 390.269 139.518 390.269 144.6V148.422C390.269 150.858 391.109 151.656 393.671 151.656C393.965 151.656 396.695 151.656 399.257 151.278L398.543 155.016C396.695 155.1 390.941 155.142 388.841 155.016C384.809 154.764 382.877 153.63 382.877 150.438V145.146C382.877 143.256 382.709 142.332 381.113 142.332C380.609 142.332 380.273 142.416 380.021 142.5C375.023 149.094 372.923 152.916 371.075 156.486ZM440.829 134.394L433.857 139.35C433.311 134.982 431.841 129.186 428.943 124.65L432.219 122.214C434.991 125.112 438.435 129.69 440.829 134.394ZM440.031 123.348L437.133 125.658C435.915 123.726 434.151 121.668 432.765 120.324L434.823 118.686C436.713 120.03 438.435 121.584 440.031 123.348ZM403.281 133.806L402.441 130.026C405.549 129.018 407.649 128.472 410.673 127.926C411.555 125.406 413.025 121.122 414.201 118.056L420.921 120.24C420.375 121.626 419.955 122.886 418.569 127.044C419.619 126.96 420.879 126.96 421.593 126.96C427.767 126.96 430.077 129.648 430.077 136.662C430.077 141.114 429.447 147.078 427.767 150.69C427.221 151.908 425.373 155.478 421.341 155.478C418.401 155.478 414.957 153.63 413.025 152.58L414.201 148.884C416.007 150.312 417.519 151.152 418.275 151.152C419.199 151.152 419.661 150.312 420.039 149.598C421.131 147.54 422.853 142.92 422.853 135.066C422.853 130.908 422.265 129.9 419.577 129.9C419.115 129.9 418.317 129.942 417.603 130.026C415.377 136.872 413.025 144.18 409.581 155.604L402.231 152.958C404.541 145.818 406.977 138.72 409.413 131.622C407.901 132.042 405.717 132.672 403.281 133.806ZM443.601 120.324L440.787 122.634C439.695 121.08 438.267 119.484 436.671 118.224L438.855 116.46C440.409 117.468 442.215 118.896 443.601 120.324ZM480.575 148.884V155.142C477.215 155.352 470.285 155.394 469.781 155.394C466.295 155.394 459.071 155.352 459.071 149.346C459.071 146.784 460.205 144.6 461.591 142.752L464.573 144.012C463.817 145.02 463.229 146.364 463.229 147.624C463.229 150.102 465.455 150.102 468.689 150.102C473.141 150.102 477.761 149.64 480.575 148.884ZM481.457 131.37L480.449 137.796C475.955 135.906 471.167 134.352 464.909 134.142L465.077 130.572C466.925 130.53 469.487 130.53 469.781 130.53C472.679 130.53 477.173 130.614 481.457 131.37ZM467.975 124.986V128.262C466.715 128.388 465.371 128.514 460.499 128.766C456.467 141.492 454.157 149.682 452.729 155.142L445.211 153.21C447.521 145.566 450.083 137.124 452.561 129.102C447.899 129.27 446.765 129.27 445.337 129.27V125.91C447.815 125.91 449.369 125.91 453.611 125.784C454.745 122.088 454.871 121.668 456.005 118.14L463.607 119.568C462.977 121.206 462.263 123.306 461.549 125.406C464.993 125.238 465.539 125.196 467.975 124.986ZM500.709 144.684L502.767 147.456C500.415 150.816 498.189 153.294 494.703 153.294C486.597 153.294 486.597 141.366 486.597 138.594C486.597 133.974 486.933 127.926 488.487 120.744L497.055 122.34C496.257 124.86 494.241 131.16 494.241 139.098C494.241 142.038 494.493 147.414 497.097 147.414C498.861 147.414 500.163 145.524 500.709 144.684ZM521.247 145.944L513.057 148.254C513.309 136.242 512.301 130.404 509.277 124.818L512.427 123.096C519.021 130.194 520.701 138.426 521.247 145.944ZM544.223 155.772L541.535 157.368C540.569 156.78 537.671 154.932 534.059 149.808C532.337 152.412 529.187 155.688 526.373 157.326L524.063 155.688C525.995 152.622 527.003 149.556 527.633 146.364H526.037V118.35H542.165V146.364H540.485C540.695 147.414 541.745 152.034 544.223 155.772ZM535.109 129.396H532.967V134.688H535.109V129.396ZM535.109 137.67H532.967V143.382H535.109V137.67ZM532.967 126.414H535.109V121.332H532.967V126.414ZM534.059 147.918L538.007 146.364H530.279L534.059 147.918ZM544.475 151.488L542.375 149.556C545.777 144.348 547.961 134.52 548.381 129.396H543.215V126.414H554.177V117.09H561.653V126.414H564.929V129.396H561.653V150.48C561.653 153.126 561.653 156.864 556.529 156.864H548.129L547.331 153.546C549.473 153.84 551.069 153.84 551.489 153.84C553.757 153.84 554.177 153.546 554.177 151.152V137.124C551.237 145.356 546.155 149.976 544.475 151.488ZM596.639 123.894L600.839 125.364C600.251 126.12 597.815 127.968 594.665 129.984H606.845V132.966H576.227V136.2C576.227 146.49 573.749 151.908 568.835 156.57L566.273 154.89C567.155 152.79 568.835 148.674 568.835 140.904V129.984H576.773C576.479 128.64 576.059 126.708 575.261 124.608L576.941 123.894H568.835V120.912H582.989V117.09H590.843V120.912H605.333V123.894H596.639ZM591.851 129.984L589.499 129.144C589.961 128.262 590.591 126.75 591.683 123.894H579.083C581.603 125.49 583.115 126.498 585.341 128.136L580.343 129.984H591.851ZM584.711 137.712H586.937V133.932H594.707V137.712H604.451V140.694H594.707V144.978H602.897V147.96H594.707V153.126H606.845V156.066H573.581V153.126H586.937V147.96H578.705V146.238C578.369 146.616 578.243 146.742 577.907 147.078L575.723 145.524C577.109 142.458 578.033 136.494 578.117 133.596L586.013 134.856C585.887 135.234 584.921 137.292 584.711 137.712ZM586.937 140.694H583.031C582.065 142.164 581.141 143.55 579.881 144.978H586.937V140.694ZM619.883 153.504L612.575 154.386C612.155 150.816 611.819 147.33 611.819 139.266C611.819 126.96 612.617 122.214 613.037 119.358L620.345 120.282C619.883 122.424 619.001 126.666 619.001 138.804C619.001 146.952 619.463 150.564 619.883 153.504ZM645.839 145.776V152.328C642.353 152.664 638.615 152.874 635.087 152.874C625.805 152.874 622.109 151.824 622.109 146.952C622.109 146.196 622.109 143.256 625.007 139.938L627.779 141.366C627.149 142.332 626.435 143.424 626.435 144.936C626.435 146.658 627.443 147.414 631.433 147.414C637.565 147.414 642.395 146.574 645.839 145.776ZM623.537 127.086L623.075 123.39C628.451 122.298 634.247 121.752 639.749 121.752C641.303 121.752 642.101 121.794 643.571 122.004V128.598C640.337 127.422 636.557 126.624 630.761 126.624C626.855 126.624 624.671 126.918 623.537 127.086ZM671.822 131.58L679.004 132.042C678.92 137.796 679.046 142.626 679.13 145.314C681.986 146.196 684.17 147.12 687.572 148.842L683.246 154.008C681.818 152.412 680.894 151.698 679.34 150.522C679.13 152.034 678.668 155.688 669.806 155.688C668.672 155.688 660.65 155.646 660.65 149.934C660.65 146.238 664.598 143.676 669.722 143.676C670.688 143.676 671.486 143.76 672.2 143.802C672.074 141.786 671.822 137.124 671.822 131.58ZM672.41 147.288C671.78 147.162 671.024 146.994 670.436 146.994C668.714 146.994 666.656 147.456 666.656 149.598C666.656 151.572 668.042 152.202 669.596 152.202C671.318 152.202 672.62 151.278 672.62 150.144C672.62 149.724 672.452 147.75 672.41 147.288ZM688.034 127.59L684.758 132.882C682.826 131.412 679.13 128.64 672.956 126.288L674.888 123.6C679.256 124.608 683.876 126.036 688.034 127.59ZM651.914 129.438V125.826C653.006 125.91 654.896 125.994 657.878 125.994C658.97 123.054 659.642 121.29 660.86 118.266L667.706 119.568C666.74 121.71 666.278 122.676 665.102 125.574C668.714 125.196 669.932 124.986 670.898 124.818L671.024 128.388C668.42 128.682 667.118 128.808 663.716 129.018C661.448 135.108 658.928 142.122 657.416 149.598L650.318 147.666C652.166 141.912 654.098 136.452 656.618 129.354C654.182 129.438 653.678 129.438 651.914 129.438ZM698.14 123.096L698.014 119.358C703.264 119.358 712.21 119.19 719.854 118.728L721.828 121.836C718.636 124.44 713.386 128.934 709.942 132.126C711.454 131.622 713.344 131.454 714.982 131.454C722.542 131.454 727.288 135.99 727.288 142.542C727.288 152.034 719.014 155.562 710.53 155.562C703.642 155.562 699.904 152.538 699.904 148.884C699.904 145.944 701.92 142.752 707.926 142.752C709.69 142.752 711.664 143.172 713.134 144.054C715.864 145.65 716.494 147.624 717.04 150.102C718.09 148.926 719.686 147.204 719.686 143.214C719.686 139.35 717.754 134.856 711.916 134.856C706.96 134.856 704.104 137.712 697.006 146.028L691.462 141.114C698.602 133.764 706.582 126.078 710.53 122.34C706.498 122.718 701.584 123.012 698.14 123.096ZM711.832 152.706C711.706 150.354 711.454 146.07 708.136 146.07C706.078 146.07 705.49 147.792 705.49 149.052C705.49 151.194 707.59 152.874 709.984 152.874C710.11 152.874 710.908 152.874 711.832 152.706ZM747.555 156.024H731.427V153H740.373V117.216H747.555V156.024Z" fill="#237233"/>
<g clip-path="url(#clip0_527_3679)">
<path d="M376.5 197C378.709 197 380.5 195.209 380.5 193C380.5 190.791 378.709 189 376.5 189C374.291 189 372.5 190.791 372.5 193C372.5 195.209 374.291 197 376.5 197Z" fill="#DAE000"/>
<path d="M356.5 197C358.709 197 360.5 195.209 360.5 193C360.5 190.791 358.709 189 356.5 189C354.291 189 352.5 190.791 352.5 193C352.5 195.209 354.291 197 356.5 197Z" fill="#237233"/>
<path d="M397.5 197C399.709 197 401.5 195.209 401.5 193C401.5 190.791 399.709 189 397.5 189C395.291 189 393.5 190.791 393.5 193C393.5 195.209 395.291 197 397.5 197Z" fill="#87C067"/>
</g>
<defs>
<clipPath id="clip0_527_3679">
<rect width="49" height="8" fill="white" transform="translate(352.5 189)"/>
</clipPath>
</defs>
</svg>
