<svg width="171" height="48" viewBox="0 0 171 48" fill="none" xmlns="http://www.w3.org/2000/svg">
<path d="M170.715 0.956H155.621L138.114 21.143H137.984L140.905 0.956H128.167L124.076 29.231C122.894 20.988 113.712 20.182 107.288 18.472C104.04 17.579 100.122 16.499 100.612 13.121C100.94 10.828 103.766 8.918 106.697 8.918C108.86 8.918 110.444 9.425 111.388 10.383C112.396 11.337 112.774 12.677 112.453 14.46H125.193C127.561 3.378 118.304 0 108.815 0C99.1954 0 89.2104 2.993 87.1224 13.883C86.4044 18.853 88.0884 23.059 92.4424 25.094C101.809 29.49 111.426 28.153 110.524 34.395C110.082 37.452 104.528 38.98 100.362 38.98C94.7244 38.98 86.4794 37.506 88.9334 27.743C88.9404 27.721 88.9484 27.699 88.9534 27.678H75.5694C73.8024 37.877 67.3154 39.014 62.4974 38.98C55.3014 38.928 52.8074 31.918 53.9514 24.395C54.9964 17.523 57.5284 8.918 64.8534 8.918C70.0774 8.918 72.8574 11.274 72.5744 15.413H85.9534C87.8194 3.82 77.2924 0 66.1434 0C51.7944 0.129 42.8784 8.471 40.6494 23.885C40.5244 24.738 40.4354 25.569 40.3684 26.38C37.6914 20.763 30.0094 19.961 24.4174 18.472C21.1704 17.579 17.2504 16.499 17.7394 13.121C18.0724 10.828 20.8944 8.918 23.8264 8.918C25.9914 8.918 27.5744 9.425 28.5174 10.383C29.5254 11.337 29.9054 12.677 29.5864 14.46H42.3234C44.6904 3.378 35.4354 0 25.9454 0C16.3264 0 6.33839 2.993 4.25439 13.883C3.53439 18.853 5.22039 23.059 9.57238 25.094C18.9374 29.49 28.5584 28.153 27.6574 34.395C27.2124 37.452 23.2344 38.98 20.3044 38.98C15.7164 38.98 12.8754 36.626 13.5654 32.292H0.825385C-0.788615 44.775 8.18438 47.898 18.8854 47.898C29.0234 47.898 38.7744 43.727 40.8794 34.956C42.8974 43.354 49.7144 47.898 61.2064 47.898C65.6464 47.898 73.8304 48.129 80.5744 42.128C85.7794 47.087 93.8534 47.898 98.9464 47.898C111.526 47.898 119.765 44.609 122.845 37.726L121.512 46.943H134.252L137.79 22.484H137.917L149.539 46.943H165.336L151.926 21.211L170.715 0.956Z" fill="white"/>
</svg>
