<svg width="113" height="11" viewBox="0 0 113 11" fill="none" xmlns="http://www.w3.org/2000/svg">
<g clipPath="url(#clip0_822_13819)">
<path d="M1.18164 8.94495V7.3855H1.34785C1.71286 7.68534 2.13246 7.92324 2.60665 8.09923C3.08084 8.27522 3.53629 8.36321 3.973 8.36321C4.42601 8.36321 4.79102 8.28174 5.06804 8.11879C5.34507 7.95584 5.48357 7.72933 5.48357 7.43928C5.48357 7.21441 5.41757 7.03516 5.28558 6.90154C5.15359 6.76792 4.90346 6.65711 4.53519 6.56911C4.2712 6.52023 3.82064 6.42409 3.1835 6.28069C2.54636 6.13729 2.06076 5.88553 1.72671 5.52541C1.39266 5.16528 1.22564 4.70494 1.22564 4.14439C1.22564 3.47629 1.5108 2.93285 2.08113 2.51406C2.65146 2.09527 3.38475 1.88588 4.28098 1.88588C5.19351 1.88588 6.05064 2.05209 6.85236 2.38451V3.87552H6.69104C6.00664 3.32148 5.22121 3.04446 4.33476 3.04446C3.91434 3.04446 3.56807 3.12268 3.29594 3.27912C3.02381 3.43555 2.88774 3.64902 2.88774 3.91952C2.88774 4.15091 2.96514 4.33504 3.11995 4.47192C3.27475 4.6088 3.53955 4.72124 3.91434 4.80923C4.28913 4.87767 4.7071 4.96811 5.16825 5.08055C5.62941 5.19299 5.97324 5.31927 6.19974 5.45941C6.42624 5.59955 6.60712 5.75191 6.74237 5.91649C6.87762 6.08107 6.97865 6.26439 7.04546 6.46645C7.11227 6.66852 7.14568 6.89176 7.14568 7.13619C7.14568 7.85318 6.85318 8.43003 6.26818 8.86674C5.68318 9.30345 4.90835 9.5218 3.94367 9.5218C3.00507 9.5218 2.08439 9.32952 1.18164 8.94495ZM15.4451 8.89118C14.8259 9.17472 14.3338 9.35233 13.9687 9.42403C13.6037 9.49573 13.2518 9.53158 12.9128 9.53158C11.7852 9.53158 10.8971 9.1959 10.2485 8.52454C9.59999 7.85318 9.27573 6.9162 9.27573 5.71362C9.27573 4.53385 9.60406 3.59932 10.2608 2.91003C10.9175 2.22075 11.8031 1.8761 12.9177 1.8761C13.7813 1.8761 14.6238 2.08305 15.4451 2.49695V4.00751H15.274C14.5081 3.35571 13.783 3.0298 13.0986 3.0298C12.4435 3.0298 11.9253 3.26364 11.544 3.73131C11.1627 4.19898 10.9721 4.86138 10.9721 5.7185C10.9721 6.56911 11.166 7.225 11.5538 7.68615C11.9416 8.1473 12.4598 8.37788 13.1084 8.37788C13.4473 8.37788 13.7781 8.3184 14.1007 8.19945C14.4234 8.08049 14.8193 7.8157 15.2887 7.40506H15.4451V8.89118ZM17.5556 8.94495V7.3855H17.7218C18.0868 7.68534 18.5064 7.92324 18.9806 8.09923C19.4548 8.27522 19.9102 8.36321 20.3469 8.36321C20.7999 8.36321 21.165 8.28174 21.442 8.11879C21.719 7.95584 21.8575 7.72933 21.8575 7.43928C21.8575 7.21441 21.7915 7.03516 21.6595 6.90154C21.5275 6.76792 21.2774 6.65711 20.9091 6.56911C20.6451 6.52023 20.1946 6.42409 19.5574 6.28069C18.9203 6.13729 18.4347 5.88553 18.1006 5.52541C17.7666 5.16528 17.5996 4.70494 17.5996 4.14439C17.5996 3.47629 17.8847 2.93285 18.4551 2.51406C19.0254 2.09527 19.7587 1.88588 20.6549 1.88588C21.5674 1.88588 22.4246 2.05209 23.2263 2.38451V3.87552H23.065C22.3806 3.32148 21.5951 3.04446 20.7087 3.04446C20.2883 3.04446 19.942 3.12268 19.6699 3.27912C19.3977 3.43555 19.2617 3.64902 19.2617 3.91952C19.2617 4.15091 19.3391 4.33504 19.4939 4.47192C19.6487 4.6088 19.9135 4.72124 20.2883 4.80923C20.6631 4.87767 21.081 4.96811 21.5422 5.08055C22.0033 5.19299 22.3472 5.31927 22.5737 5.45941C22.8002 5.59955 22.9811 5.75191 23.1163 5.91649C23.2516 6.08107 23.3526 6.26439 23.4194 6.46645C23.4862 6.66852 23.5196 6.89176 23.5196 7.13619C23.5196 7.85318 23.2271 8.43003 22.6421 8.86674C22.0571 9.30345 21.2823 9.5218 20.3176 9.5218C19.379 9.5218 18.4583 9.32952 17.5556 8.94495ZM32.6892 9.38492H30.6946L28.2699 6.33446L27.7224 6.95531V9.38492H26.119V2.01787H27.7322V5.51807L30.6702 2.01787H32.5474L29.536 5.43986L32.6892 9.38492ZM38.8229 9.83467L38.4612 8.61253C39.755 8.46913 40.7279 8.17093 41.3797 7.71792C42.0315 7.26492 42.3574 6.58867 42.3574 5.68917C42.3574 4.93634 42.1227 4.3326 41.6534 3.87796C41.1841 3.42333 40.5339 3.1569 39.7029 3.07868C39.6344 4.90375 39.2931 6.38253 38.6787 7.51505C38.0644 8.64757 37.2912 9.21382 36.3591 9.21382C35.7529 9.21382 35.2624 8.92784 34.8877 8.35588C34.5129 7.78392 34.3255 7.12967 34.3255 6.39313V6.27091C34.3255 5.14328 34.7793 4.14521 35.6869 3.27667C36.5946 2.40814 37.7393 1.94128 39.1211 1.8761H39.3216C40.6415 1.8761 41.7259 2.21097 42.5749 2.8807C43.4239 3.55043 43.8484 4.46052 43.8484 5.61096C43.8484 6.87221 43.4206 7.85969 42.5651 8.57342C41.7096 9.28715 40.4622 9.70757 38.8229 9.83467ZM38.3292 3.22046C37.5959 3.39318 36.9726 3.77775 36.4593 4.37415C35.946 4.97056 35.6894 5.62888 35.6894 6.34913C35.6894 6.72066 35.7529 7.06286 35.88 7.37573C36.0071 7.68859 36.1847 7.84503 36.4129 7.84503C36.8724 7.84503 37.2896 7.39854 37.6644 6.50556C38.0391 5.61259 38.2608 4.51755 38.3292 3.22046ZM53.0277 2.18897L52.5389 3.38667C51.6948 3.14224 50.9737 2.97358 50.3757 2.8807C49.7776 2.78782 48.8301 2.69086 47.533 2.58983L47.753 1.44591C49.4411 1.57953 50.55 1.68871 51.0796 1.77344C51.6092 1.85818 52.2586 1.99669 53.0277 2.18897ZM47.9534 9.05739L48.4618 7.97213C49.1234 8.3404 49.6839 8.52454 50.1435 8.52454C50.3977 8.52454 50.5248 8.26381 50.5248 7.74237C50.5248 7.56964 50.5101 7.40343 50.4808 7.24373C50.4514 7.08404 50.4075 6.93168 50.3488 6.78666C50.2901 6.64163 50.238 6.53652 50.1924 6.47134C50.1467 6.40616 49.943 6.12426 49.5813 5.62562C49.3597 5.3095 49.2489 4.99011 49.2489 4.66747C49.2489 4.19491 49.4574 3.67509 49.8746 3.10802L51.0136 3.5871C50.7236 3.97492 50.5785 4.27149 50.5785 4.47681C50.5785 4.63651 50.6894 4.87278 50.911 5.18565L51.3265 5.75273C51.5351 6.03626 51.6964 6.35483 51.8105 6.70844C51.9245 7.06204 51.9816 7.43439 51.9816 7.82547C51.9816 8.40884 51.821 8.89281 51.5 9.27737C51.179 9.66194 50.7513 9.85423 50.2168 9.85423C49.5161 9.85423 48.7616 9.58861 47.9534 9.05739ZM55.4231 8.87651L53.981 9.21382C53.8082 8.37951 53.4929 7.53053 53.035 6.66689C52.5771 5.80324 52.1673 5.16447 51.8056 4.75057L52.9593 4.16883C53.4807 4.74894 53.9631 5.46593 54.4063 6.3198C54.8495 7.17367 55.1885 8.0259 55.4231 8.87651ZM48.6133 4.94123C48.307 6.73696 47.6422 8.23448 46.6188 9.43381L45.5678 8.67608C45.9817 8.17745 46.3451 7.56801 46.6579 6.84776C46.9708 6.12751 47.1794 5.42193 47.2837 4.73102L48.6133 4.94123ZM63.351 8.49032C64.1462 8.17745 64.5438 7.67882 64.5438 6.99442C64.5438 6.50882 64.3474 6.1267 63.9547 5.84805C63.562 5.5694 63.0674 5.43008 62.471 5.43008H62.3488C62.0881 5.43008 61.7826 5.47408 61.4322 5.56207C61.0819 5.65007 60.7527 5.76413 60.4447 5.90427C60.1367 6.04441 59.8777 6.18455 59.6675 6.32469C59.4572 6.46482 58.9692 6.81843 58.2033 7.3855L57.4212 6.4029C60.0838 4.57784 61.7866 3.38015 62.5297 2.80981H58.394V1.66589H64.2994L65.0033 2.41873C64.3026 2.88478 63.2581 3.59525 61.8697 4.55014C62.2706 4.44585 62.6063 4.39371 62.8768 4.39371C63.8382 4.39371 64.591 4.61288 65.1353 5.05122C65.6796 5.48956 65.9517 6.11937 65.9517 6.94065C65.9517 7.8988 65.5663 8.63453 64.7955 9.14783C64.0248 9.66113 63.0104 9.91778 61.7524 9.91778C60.9214 9.91778 60.2622 9.7809 59.775 9.50714C59.2878 9.23338 59.0442 8.83252 59.0442 8.30455C59.0442 7.87762 59.2519 7.51831 59.6675 7.22663C60.083 6.93494 60.5368 6.7891 61.0289 6.7891C62.2445 6.7891 63.0186 7.35617 63.351 8.49032ZM62.0897 8.81296C61.8779 8.14812 61.4917 7.8157 60.9311 7.8157C60.7682 7.8157 60.6232 7.86051 60.4961 7.95013C60.369 8.03975 60.3054 8.15627 60.3054 8.29966C60.3054 8.65816 60.7258 8.8374 61.5667 8.8374C61.7524 8.8374 61.9268 8.82926 62.0897 8.81296ZM76.8665 9.49736C75.9507 9.74179 74.9453 9.864 73.8502 9.864C72.2663 9.864 71.1469 9.66927 70.4918 9.27982C69.8367 8.89036 69.5092 8.32085 69.5092 7.57127C69.5092 6.81191 69.8367 6.22203 70.4918 5.80161C71.1469 5.3812 71.973 5.17099 72.9703 5.17099C73.218 5.17099 73.6596 5.21824 74.2951 5.31276C74.0474 4.93471 73.7948 4.51918 73.5374 4.06617H69.0252V2.85381H72.9801C72.8073 2.37148 72.6607 1.86307 72.5401 1.32859L73.9724 1.19659C74.0376 1.48339 74.2038 2.03579 74.4711 2.85381H77.7269V4.06617H75.0626C75.5515 4.89723 76.1299 5.536 76.798 5.98249L76.0354 7.01398C75.149 6.53164 74.1452 6.29047 73.0241 6.29047C72.4211 6.29047 71.9209 6.39802 71.5233 6.61311C71.1257 6.82821 70.9269 7.13782 70.9269 7.54194C70.9269 8.25567 71.9127 8.61253 73.8845 8.61253C74.2918 8.61253 74.7709 8.57668 75.3217 8.50498C75.8725 8.43328 76.3108 8.34366 76.6367 8.23611L76.8665 9.49736ZM88.7492 9.72712C87.7193 9.81512 86.7286 9.85911 85.7769 9.85911C84.4016 9.85911 83.4793 9.81186 83.01 9.71734C82.3647 9.59024 81.858 9.34663 81.4897 8.98651C81.1214 8.62638 80.9373 8.15138 80.9373 7.56149C80.9373 6.44364 81.7553 5.48874 83.3913 4.6968C83.287 3.57243 83.2316 2.43829 83.2251 1.29436H84.6477L84.6428 1.73433V1.88099C84.6428 2.60449 84.6656 3.35571 84.7112 4.13461C85.4641 3.85108 86.5803 3.4991 88.0599 3.07868L88.4705 4.30083C86.476 4.81901 84.9483 5.33801 83.8875 5.85783C82.8267 6.37765 82.2963 6.93413 82.2963 7.52727C82.2963 8.25078 83.0931 8.61253 84.6868 8.61253H85.1414C86.168 8.61253 87.351 8.54246 88.6905 8.40232L88.7492 9.72712ZM93.915 9.96666H92.8053V6.01671C92.235 6.07537 91.8048 6.11122 91.5147 6.12426L91.4023 5.20032C91.6304 5.20032 91.8585 5.19543 92.0867 5.18565C92.1975 5.02596 92.3653 4.77501 92.5902 4.43282C92.2969 4.06129 91.8879 3.5708 91.3632 2.96136L91.9547 2.20852L92.1209 2.3894C92.437 1.85818 92.6847 1.37421 92.864 0.9375L93.827 1.29925C93.537 1.89565 93.1785 2.49369 92.7515 3.09335L93.1475 3.55288C93.5321 2.91736 93.8091 2.39592 93.9786 1.98854L94.9172 2.43829C94.4674 3.27912 93.9003 4.17209 93.2159 5.11721C93.506 5.0944 93.783 5.06996 94.047 5.04388C93.9525 4.69843 93.8857 4.47681 93.8466 4.37904L94.6581 4.16883C94.7917 4.59577 94.9644 5.20358 95.1763 5.99226L94.3257 6.19269C94.3191 6.12099 94.2947 6.00041 94.2523 5.83094L93.915 5.88472V9.96666ZM100.515 8.94495C100.515 9.19916 100.412 9.40611 100.207 9.5658C100.001 9.72549 99.7732 9.80534 99.5222 9.80534H98.3538L98.1827 8.69564H99.0822C99.268 8.69564 99.3609 8.61253 99.3609 8.44632L99.356 6.73533L99.0627 7.32684C98.4989 6.7728 98.0996 6.12263 97.865 5.37631C97.6043 6.22692 97.1724 6.9162 96.5695 7.44417L96.33 6.95531V9.85911H95.23V2.58005H97.1806V1.11837H98.4321V2.58005H100.515V8.94495ZM97.1708 3.53821H96.33V6.34424C96.8384 5.60118 97.1187 4.66584 97.1708 3.53821ZM99.356 6.1047L99.3511 3.53821H98.3832C98.4777 4.4931 98.802 5.3486 99.356 6.1047ZM95.1372 8.3681L94.3354 8.54409C94.254 7.97702 94.1676 7.30077 94.0763 6.51534L94.8585 6.37357L95.1372 8.3681ZM92.6342 6.50556C92.5234 7.78311 92.367 8.69401 92.1649 9.23827L91.3534 9.06717C91.562 7.97539 91.6793 7.10034 91.7054 6.44201L92.6342 6.50556ZM108.814 6.27091C108.814 7.12804 108.627 7.87354 108.252 8.50743C107.877 9.14131 107.383 9.62446 106.771 9.95688L106.013 9.0965C107.001 8.49683 107.517 7.55497 107.563 6.27091H106.653V2.72671H107.465C107.276 2.14334 107.108 1.67078 106.961 1.30903L108.193 1.07927C108.346 1.46709 108.535 2.01624 108.76 2.72671H109.723C110.098 1.79137 110.312 1.21777 110.364 1.00594L111.689 1.26503L111.024 2.72671H111.796V6.27091H110.677V8.55387C110.677 8.67445 110.737 8.73475 110.858 8.73475H111.136C111.179 8.73475 111.219 8.71926 111.258 8.6883C111.298 8.65734 111.329 8.50498 111.351 8.23122C111.374 7.95746 111.386 7.71467 111.386 7.50283V7.33662L112.397 7.46372V8.80807C112.397 9.04272 112.345 9.24153 112.239 9.40448C112.133 9.56743 111.988 9.6815 111.806 9.74668C111.623 9.81186 111.298 9.84445 110.828 9.84445C110.284 9.84445 109.919 9.75238 109.733 9.56824C109.547 9.38411 109.455 9.13398 109.455 8.81785V6.27091H108.814ZM110.525 5.27365V3.73864H107.88V5.27365H110.525ZM104.278 6.99442C103.929 7.58105 103.606 8.01124 103.31 8.285L102.645 7.48327C102.906 7.21277 103.196 6.7948 103.515 6.22936C103.834 5.66392 104.076 5.13188 104.238 4.63325H102.909V3.58221H104.278V2.59472C103.776 2.6762 103.372 2.72834 103.065 2.75115L102.875 1.80766C103.373 1.75878 103.958 1.66019 104.63 1.51191C105.301 1.36362 105.839 1.20148 106.243 1.0255L106.751 1.97876C106.419 2.11238 106.005 2.23786 105.509 2.35518V3.58221H106.419V4.63325H105.509V4.9119C105.738 5.2378 106.111 5.62562 106.629 6.07537L106.081 7.02375C105.886 6.83473 105.695 6.63103 105.509 6.41268V9.94711H104.278V6.99442Z" fill="#804501"/>
</g>
<defs>
<clipPath id="clip0_822_13819">
<rect width="112" height="10" fill="white" transform="translate(0.789062 0.5)"/>
</clipPath>
</defs>
</svg>
